<svg class="main-svg" xmlns="http://www.w3.org/2000/svg" xmlns:xlink="http://www.w3.org/1999/xlink" width="185" height="250" style="" viewBox="0 0 185 250"><rect x="0" y="0" width="185" height="250" style="fill: rgb(255, 255, 255); fill-opacity: 1;"/><defs id="defs-68c151"><g class="clips"><clipPath id="clip68c151xyplot" class="plotclip"><rect width="135" height="180"/></clipPath><clipPath class="axesclip" id="clip68c151x"><rect x="30" y="0" width="135" height="250"/></clipPath><clipPath class="axesclip" id="clip68c151y"><rect x="0" y="20" width="185" height="180"/></clipPath><clipPath class="axesclip" id="clip68c151xy"><rect x="30" y="20" width="135" height="180"/></clipPath></g><g class="gradients"/></defs><g class="bglayer"/><g class="layer-below"><g class="imagelayer"/><g class="shapelayer"/></g><g class="cartesianlayer"><g class="subplot xy"><g class="layer-subplot"><g class="shapelayer"/><g class="imagelayer"/></g><g class="gridlayer"><g class="x"/><g class="y"><path class="ygrid crisp" transform="translate(0,191)" d="M30,0h135" style="stroke: rgb(238, 238, 238); stroke-opacity: 1; stroke-width: 1px;"/><path class="ygrid crisp" transform="translate(0,110)" d="M30,0h135" style="stroke: rgb(238, 238, 238); stroke-opacity: 1; stroke-width: 1px;"/></g></g><g class="zerolinelayer"/><path class="xlines-below"/><path class="ylines-below"/><g class="overlines-below"/><g class="xaxislayer-below"/><g class="yaxislayer-below"/><g class="overaxes-below"/><g class="plot" transform="translate(30,20)" clip-path="url('#clip68c151xyplot')"><g class="violinlayer mlayer"><g class="trace violins" style="opacity: 1;"><path class="violin" d="M6.75,171L6.75,170.98Q7.57,170.98 7.98,170.97C8.39,170.97 8.79,170.96 9.2,170.95C9.61,170.94 10.02,170.93 10.43,170.92C10.84,170.91 11.25,170.91 11.66,170.9C12.07,170.89 12.48,170.89 12.89,170.88C13.3,170.88 13.7,170.87 14.11,170.87C14.52,170.87 14.93,170.88 15.34,170.88C15.75,170.89 16.16,170.89 16.57,170.9C16.98,170.91 17.39,170.91 17.8,170.92C18.21,170.93 18.61,170.94 19.02,170.95C19.43,170.96 19.84,170.96 20.25,170.97C20.66,170.97 21.07,170.98 21.48,170.98C21.89,170.98 22.29,170.99 22.7,170.99C23.11,170.99 23.52,171 23.93,171C24.34,171 24.75,171 25.16,171C25.57,171 25.98,171 26.39,171C26.8,171 27.2,171 27.61,171C28.02,171 28.43,171 28.84,171C29.25,171 29.66,171 30.07,171C30.48,171 30.89,171 31.3,171C31.71,171 32.11,171 32.52,171C32.93,171 33.34,171 33.75,171C34.16,171 34.57,171 34.98,171C35.39,171 35.79,171 36.2,171C36.61,171 37.02,171 37.43,171C37.84,171 38.25,171 38.66,171C39.07,171 39.48,171 39.89,171C40.3,171 40.7,171 41.11,171C41.52,171 41.93,171 42.34,171C42.75,171 43.16,171 43.57,171C43.98,171 44.39,171 44.8,171C45.21,171 45.61,171 46.02,171C46.43,171 46.84,171 47.25,171C47.66,171 48.07,171 48.48,171C48.89,171 49.29,171 49.7,171C50.11,171 50.52,170.99 50.93,170.99C51.34,170.99 51.75,170.99 52.16,170.99C52.57,170.99 52.98,170.98 53.39,170.97C53.8,170.97 54.2,170.97 54.61,170.96C55.02,170.95 55.43,170.94 55.84,170.93C56.25,170.92 56.66,170.9 57.07,170.89C57.48,170.87 57.89,170.86 58.3,170.84C58.71,170.82 59.11,170.8 59.52,170.77C59.93,170.74 60.34,170.71 60.75,170.68C61.16,170.65 61.57,170.62 61.98,170.58C62.39,170.54 62.79,170.5 63.2,170.46C63.61,170.42 64.02,170.38 64.43,170.33C64.84,170.28 65.25,170.23 65.66,170.17C66.07,170.1 66.48,170.04 66.89,169.94C67.3,169.84 67.71,169.74 68.11,169.59C68.52,169.44 68.94,169.26 69.34,169.04C69.76,168.81 70.17,168.55 70.57,168.25C70.99,167.93 71.4,167.56 71.8,167.17C72.22,166.75 72.62,166.29 73.02,165.81C73.44,165.3 73.85,164.75 74.25,164.19C74.67,163.6 75.08,162.98 75.48,162.35C75.9,161.69 76.3,161.02 76.7,160.32C77.12,159.6 77.53,158.85 77.93,158.09C78.35,157.3 78.76,156.49 79.16,155.66C79.58,154.8 79.99,153.91 80.39,153.01C80.8,152.09 81.2,151.14 81.61,150.19C82.02,149.23 82.43,148.25 82.84,147.3C83.25,146.37 83.65,145.41 84.07,144.53C84.47,143.71 84.86,142.86 85.3,142.17C85.68,141.57 86.06,140.93 86.52,140.58C86.89,140.3 87.35,140.05 87.75,140.09C88.17,140.14 88.61,140.53 88.98,140.93C89.45,141.44 89.82,142.27 90.2,143.06C90.65,143.99 91.03,145.11 91.43,146.2C91.85,147.37 92.25,148.64 92.66,149.85C93.07,151.06 93.47,152.31 93.89,153.46C94.29,154.54 94.68,155.61 95.11,156.58C95.5,157.45 95.9,158.29 96.34,159.01C96.73,159.65 97.13,160.23 97.57,160.72C97.96,161.15 98.37,161.53 98.8,161.82C99.19,162.08 99.6,162.28 100.02,162.42C100.42,162.56 100.84,162.63 101.25,162.67C101.66,162.71 102.07,162.69 102.48,162.68C102.89,162.67 103.29,162.63 103.7,162.62C104.11,162.6 104.52,162.59 104.93,162.59C105.34,162.59 105.75,162.62 106.16,162.63C106.57,162.64 106.98,162.68 107.39,162.63C107.8,162.58 108.23,162.52 108.61,162.32C109.05,162.09 109.47,161.71 109.84,161.22C110.32,160.58 110.7,159.69 111.07,158.69C111.55,157.38 111.93,155.73 112.3,153.95C112.77,151.71 113.14,149.06 113.52,146.28C113.97,142.97 114.36,139.22 114.75,135.4C115.18,131.15 115.58,126.47 115.98,121.93C116.39,117.28 116.77,112.29 117.2,107.8C117.59,103.71 117.93,99.34 118.43,96.08C118.79,93.71 119.05,90.14 119.66,90C120.01,89.92 120.55,90.79 120.89,91.61C121.61,93.36 121.74,97.35 122.11,100.73C122.57,104.95 122.94,110.11 123.34,114.99C123.76,120.14 124.15,125.72 124.57,130.87C124.97,135.76 125.36,140.73 125.8,145.18C126.18,149.07 126.56,152.84 127.02,156.1Q127.39,158.75 128.25,163.29L128.25,171" style="vector-effect: non-scaling-stroke; stroke-width: 2px; stroke: rgb(31, 119, 180); stroke-opacity: 1; fill: rgb(31, 119, 180); fill-opacity: 0.5;"/></g><g class="trace violins" style="opacity: 1;"><path class="violin" d="M22.46,90L22.46,89.89Q22.59,89.84 22.65,89.8C22.71,89.76 22.78,89.72 22.84,89.67C22.9,89.62 22.96,89.56 23.02,89.51C23.08,89.46 23.15,89.41 23.21,89.36C23.27,89.32 23.33,89.27 23.39,89.24C23.45,89.21 23.52,89.19 23.58,89.19C23.64,89.19 23.7,89.21 23.76,89.23C23.82,89.25 23.89,89.29 23.95,89.33C24.01,89.37 24.08,89.42 24.14,89.47C24.2,89.52 24.26,89.57 24.32,89.61C24.38,89.65 24.45,89.69 24.51,89.72C24.57,89.75 24.63,89.78 24.69,89.8C24.75,89.82 24.82,89.83 24.88,89.85C24.94,89.86 25.01,89.88 25.07,89.89C25.13,89.9 25.19,89.91 25.25,89.92C25.31,89.93 25.38,89.94 25.44,89.95C25.5,89.96 25.56,89.97 25.62,89.97C25.68,89.98 25.75,89.98 25.81,89.98C25.87,89.98 25.93,89.99 25.99,89.99C26.05,89.99 26.12,90 26.18,90C26.24,90 26.31,90 26.37,90C26.43,90 26.49,90 26.55,90C26.61,90 26.68,90 26.74,90C26.8,90 26.86,90 26.92,90C26.98,90 27.05,90 27.11,90C27.17,90 27.23,90 27.29,90C27.35,90 27.42,90 27.48,90C27.54,90 27.61,90 27.67,90C27.73,90 27.79,90 27.85,90C27.91,90 27.98,90 28.04,90C28.1,90 28.16,90 28.22,90C28.28,90 28.35,90 28.41,90C28.47,90 28.54,90 28.6,90C28.66,90 28.72,90 28.78,90C28.84,90 28.91,90 28.97,90C29.03,90 29.09,90 29.15,90C29.21,90 29.28,90 29.34,90C29.4,90 29.46,90 29.52,90C29.58,90 29.65,90 29.71,90C29.77,90 29.84,90 29.9,90C29.96,90 30.02,90 30.08,90C30.14,90 30.21,90 30.27,90C30.33,90 30.39,90 30.45,90C30.51,90 30.58,90 30.64,90C30.7,90 30.77,90 30.83,90C30.89,90 30.95,90 31.01,90C31.07,90 31.14,90 31.2,90C31.26,90 31.32,90 31.38,90C31.44,90 31.51,90 31.57,90C31.63,90 31.69,90 31.75,90C31.81,90 31.88,90 31.94,90C32,90 32.07,90 32.13,90C32.19,90 32.25,90 32.31,90C32.37,90 32.44,90 32.5,90C32.56,90 32.62,90 32.68,90C32.74,90 32.81,90 32.87,90C32.93,90 32.99,90 33.05,90C33.11,90 33.18,90 33.24,90C33.3,90 33.37,90 33.43,90C33.49,90 33.55,90 33.61,90C33.67,90 33.74,90 33.8,90C33.86,90 33.92,90 33.98,90C34.04,90 34.11,90 34.17,90C34.23,90 34.3,90 34.36,90C34.42,90 34.48,90 34.54,90C34.6,90 34.67,90 34.73,90C34.79,90 34.85,90 34.91,90C34.97,90 35.04,90 35.1,90C35.16,90 35.22,90 35.28,90C35.34,90 35.41,90 35.47,90C35.53,90 35.6,90 35.66,90C35.72,90 35.78,90 35.84,90C35.9,90 35.97,90 36.03,90C36.09,90 36.15,90 36.21,90C36.27,90 36.34,90 36.4,90C36.46,90 36.53,90 36.59,90C36.65,90 36.71,90 36.77,90C36.83,90 36.9,90 36.96,90C37.02,90 37.08,90 37.14,90C37.2,90 37.27,90 37.33,90C37.39,90 37.45,90 37.51,90C37.57,90 37.64,90 37.7,90C37.76,90 37.83,90 37.89,90C37.95,90 38.01,90 38.07,90C38.13,90 38.2,90 38.26,90C38.32,90 38.38,90 38.44,90C38.5,90 38.57,90 38.63,90C38.69,90 38.75,90 38.81,90C38.87,90 38.94,90 39,90C39.06,90 39.13,90 39.19,90C39.25,90 39.31,90 39.37,90C39.43,90 39.5,90 39.56,90C39.62,90 39.68,90 39.74,90C39.8,90 39.87,90 39.93,90C39.99,90 40.06,90 40.12,90C40.18,90 40.24,90 40.3,90C40.36,90 40.43,90 40.49,90C40.55,90 40.61,90 40.67,90C40.73,90 40.8,90 40.86,90C40.92,90 40.98,90 41.04,90C41.1,90 41.17,90 41.23,90C41.29,90 41.36,90 41.42,90C41.48,90 41.54,90 41.6,90C41.66,90 41.73,90 41.79,90C41.85,90 41.91,90 41.97,90C42.03,90 42.1,89.99 42.16,89.99C42.22,89.99 42.28,89.98 42.34,89.98C42.4,89.98 42.47,89.97 42.53,89.97C42.59,89.96 42.66,89.96 42.72,89.95C42.78,89.94 42.84,89.93 42.9,89.92C42.96,89.91 43.03,89.9 43.09,89.89C43.15,89.88 43.21,89.87 43.27,89.87C43.33,89.86 43.4,89.86 43.46,89.86C43.52,89.86 43.59,89.86 43.65,89.86C43.71,89.86 43.77,89.87 43.83,89.88C43.89,89.89 43.96,89.9 44.02,89.91C44.08,89.92 44.14,89.93 44.2,89.94C44.26,89.95 44.33,89.95 44.39,89.96C44.45,89.97 44.51,89.98 44.57,89.98C44.63,89.99 44.7,89.99 44.76,89.99C44.82,89.99 44.89,90 44.95,90C45.01,90 45.07,90 45.13,90C45.19,90 45.26,90 45.32,90C45.38,90 45.44,90 45.5,90C45.56,90 45.63,90 45.69,90C45.75,90 45.82,90 45.88,90C45.94,90 46,90 46.06,90C46.12,90 46.19,90 46.25,90C46.31,90 46.37,90 46.43,90C46.49,90 46.56,90 46.62,90C46.68,90 46.74,90 46.8,90C46.86,90 46.93,90 46.99,90C47.05,90 47.12,90 47.18,90C47.24,90 47.3,90 47.36,90C47.42,90 47.49,90 47.55,90C47.61,90 47.67,90 47.73,90C47.79,90 47.86,90 47.92,90C47.98,90 48.04,90 48.1,90C48.16,90 48.23,90 48.29,90C48.35,90 48.42,90 48.48,90C48.54,90 48.6,89.99 48.66,89.99C48.72,89.99 48.79,89.99 48.85,89.98C48.91,89.98 48.97,89.97 49.03,89.96C49.09,89.95 49.16,89.94 49.22,89.93C49.28,89.92 49.35,89.9 49.41,89.88C49.47,89.86 49.53,89.84 49.59,89.82C49.65,89.8 49.72,89.77 49.78,89.75C49.84,89.73 49.9,89.71 49.96,89.69C50.02,89.67 50.09,89.66 50.15,89.65C50.21,89.64 50.27,89.64 50.33,89.64C50.39,89.64 50.46,89.65 50.52,89.66C50.58,89.67 50.65,89.68 50.71,89.7C50.77,89.71 50.83,89.74 50.89,89.75C50.95,89.77 51.02,89.78 51.08,89.79C51.14,89.8 51.2,89.81 51.26,89.82C51.32,89.83 51.39,89.82 51.45,89.82C51.51,89.82 51.58,89.81 51.64,89.8C51.7,89.79 51.76,89.78 51.82,89.77C51.88,89.76 51.95,89.74 52.01,89.72C52.07,89.71 52.13,89.69 52.19,89.68C52.25,89.67 52.32,89.66 52.38,89.66C52.44,89.66 52.5,89.66 52.56,89.67C52.62,89.68 52.69,89.69 52.75,89.7C52.81,89.71 52.88,89.73 52.94,89.75C53,89.76 53.06,89.78 53.12,89.79C53.18,89.8 53.25,89.81 53.31,89.82C53.37,89.83 53.43,89.83 53.49,89.83C53.55,89.83 53.62,89.81 53.68,89.79C53.74,89.77 53.8,89.75 53.86,89.73C53.92,89.7 53.99,89.67 54.05,89.64C54.11,89.61 54.18,89.56 54.24,89.53C54.3,89.5 54.36,89.47 54.42,89.44C54.48,89.42 54.55,89.39 54.61,89.38C54.67,89.37 54.73,89.37 54.79,89.37C54.85,89.37 54.92,89.39 54.98,89.4C55.04,89.41 55.11,89.43 55.17,89.45C55.23,89.47 55.29,89.49 55.35,89.5C55.41,89.51 55.48,89.52 55.54,89.53C55.6,89.54 55.66,89.55 55.72,89.55C55.78,89.56 55.85,89.55 55.91,89.56C55.97,89.56 56.03,89.57 56.09,89.58C56.15,89.59 56.22,89.6 56.28,89.61C56.34,89.62 56.41,89.63 56.47,89.64C56.53,89.65 56.59,89.65 56.65,89.65C56.71,89.65 56.78,89.64 56.84,89.63C56.9,89.62 56.96,89.6 57.02,89.58C57.08,89.56 57.15,89.54 57.21,89.52C57.27,89.5 57.34,89.47 57.4,89.44C57.46,89.42 57.52,89.39 57.58,89.37C57.64,89.35 57.71,89.33 57.77,89.32C57.83,89.31 57.89,89.3 57.95,89.3C58.01,89.3 58.08,89.3 58.14,89.31C58.2,89.31 58.26,89.33 58.32,89.33C58.38,89.33 58.45,89.33 58.51,89.33C58.57,89.33 58.64,89.32 58.7,89.31C58.76,89.3 58.82,89.27 58.88,89.24C58.94,89.21 59.01,89.17 59.07,89.13C59.13,89.09 59.19,89.04 59.25,89C59.31,88.96 59.38,88.91 59.44,88.87C59.5,88.83 59.56,88.79 59.62,88.75C59.68,88.71 59.75,88.68 59.81,88.65C59.87,88.62 59.94,88.6 60,88.57C60.06,88.54 60.12,88.5 60.18,88.47C60.24,88.43 60.31,88.4 60.37,88.36C60.43,88.32 60.49,88.27 60.55,88.22C60.61,88.17 60.67,88.12 60.74,88.08C60.8,88.04 60.87,88.01 60.93,87.99C60.99,87.97 61.05,87.97 61.11,87.98C61.17,87.99 61.24,88.03 61.3,88.08C61.37,88.13 61.42,88.21 61.48,88.29C61.54,88.37 61.61,88.47 61.67,88.56C61.73,88.65 61.79,88.74 61.85,88.82C61.91,88.9 61.97,88.97 62.04,89.04C62.1,89.1 62.17,89.15 62.23,89.2C62.29,89.24 62.35,89.28 62.41,89.31C62.47,89.34 62.54,89.37 62.6,89.4C62.66,89.43 62.72,89.45 62.78,89.47C62.84,89.49 62.91,89.52 62.97,89.53C63.03,89.54 63.1,89.55 63.16,89.55C63.22,89.55 63.28,89.54 63.34,89.52C63.4,89.5 63.47,89.47 63.53,89.43C63.59,89.39 63.65,89.34 63.71,89.29C63.77,89.24 63.84,89.19 63.9,89.14C63.96,89.09 64.02,89.04 64.08,89C64.14,88.96 64.21,88.93 64.27,88.91C64.33,88.89 64.4,88.87 64.46,88.86C64.52,88.85 64.58,88.85 64.64,88.84C64.7,88.83 64.77,88.83 64.83,88.82C64.89,88.81 64.95,88.79 65.01,88.77C65.07,88.74 65.14,88.7 65.2,88.66C65.26,88.61 65.32,88.55 65.38,88.49C65.45,88.42 65.51,88.34 65.57,88.25C65.64,88.16 65.7,88.06 65.76,87.96C65.82,87.85 65.88,87.72 65.94,87.59C66,87.45 66.07,87.3 66.13,87.14C66.19,86.96 66.25,86.78 66.31,86.58C66.38,86.36 66.44,86.12 66.5,85.88C66.57,85.62 66.63,85.34 66.69,85.06C66.75,84.77 66.81,84.46 66.87,84.16C66.93,83.87 67,83.57 67.06,83.3C67.12,83.05 67.17,82.8 67.24,82.6C67.3,82.44 67.35,82.26 67.43,82.19C67.48,82.14 67.56,82.11 67.61,82.13C67.68,82.15 67.74,82.3 67.8,82.41C67.88,82.56 67.93,82.77 67.99,82.98C68.06,83.22 68.11,83.5 68.17,83.78C68.23,84.08 68.3,84.39 68.36,84.7C68.42,85.02 68.48,85.35 68.54,85.67C68.6,85.98 68.66,86.3 68.73,86.59C68.79,86.86 68.85,87.13 68.92,87.37C68.98,87.59 69.03,87.8 69.1,87.98C69.16,88.13 69.22,88.28 69.29,88.39C69.35,88.48 69.4,88.56 69.47,88.62C69.53,88.67 69.6,88.71 69.66,88.72C69.72,88.73 69.78,88.73 69.84,88.71C69.9,88.69 69.97,88.66 70.03,88.62C70.1,88.58 70.16,88.53 70.22,88.48C70.28,88.43 70.34,88.37 70.4,88.31C70.46,88.25 70.53,88.19 70.59,88.13C70.65,88.07 70.71,88.01 70.77,87.97C70.83,87.93 70.9,87.9 70.96,87.88C71.02,87.86 71.08,87.86 71.14,87.87C71.2,87.88 71.27,87.91 71.33,87.95C71.4,87.99 71.46,88.04 71.52,88.1C71.58,88.16 71.64,88.23 71.7,88.3C71.76,88.37 71.83,88.45 71.89,88.52C71.95,88.59 72.01,88.66 72.07,88.73C72.13,88.79 72.2,88.85 72.26,88.91C72.32,88.97 72.39,89.02 72.45,89.07C72.51,89.11 72.57,89.15 72.63,89.19C72.69,89.22 72.76,89.25 72.82,89.28C72.88,89.3 72.94,89.33 73,89.34C73.06,89.36 73.13,89.37 73.19,89.37C73.25,89.37 73.31,89.37 73.37,89.36C73.43,89.35 73.5,89.33 73.56,89.32C73.62,89.3 73.69,89.29 73.75,89.27C73.81,89.25 73.87,89.22 73.93,89.2C73.99,89.18 74.06,89.15 74.12,89.13C74.18,89.11 74.24,89.09 74.3,89.07C74.36,89.05 74.43,89.04 74.49,89.02C74.55,89.01 74.62,88.99 74.68,88.98C74.74,88.97 74.8,88.96 74.86,88.95C74.92,88.94 74.99,88.93 75.05,88.92C75.11,88.91 75.17,88.89 75.23,88.87C75.29,88.85 75.36,88.83 75.42,88.79C75.48,88.75 75.54,88.7 75.6,88.65C75.66,88.59 75.73,88.53 75.79,88.46C75.85,88.39 75.92,88.32 75.98,88.25C76.04,88.18 76.1,88.11 76.16,88.05C76.22,87.99 76.28,87.94 76.35,87.9C76.41,87.87 76.47,87.84 76.53,87.84C76.59,87.84 76.66,87.86 76.72,87.89C76.78,87.92 76.84,87.96 76.9,88C76.96,88.04 77.02,88.11 77.09,88.14C77.15,88.17 77.22,88.21 77.28,88.2C77.35,88.19 77.41,88.12 77.46,88.04C77.54,87.91 77.6,87.68 77.65,87.43C77.73,87.04 77.78,86.52 77.83,85.92C77.91,85.06 77.96,83.97 78.02,82.76C78.1,81.12 78.15,79.13 78.21,76.98C78.28,74.25 78.33,71.04 78.39,67.68C78.46,63.71 78.52,59.2 78.58,54.67C78.64,49.72 78.7,44.29 78.76,39.14C78.82,34.04 78.88,28.59 78.95,23.91C79.01,19.91 79.04,15.5 79.13,12.77C79.18,11.18 79.26,9 79.32,9C79.39,9 79.46,11.85 79.51,13.82C79.59,16.92 79.63,21.54 79.69,25.81C79.76,30.7 79.82,36.31 79.88,41.55C79.94,46.79 79.99,52.27 80.06,57.25C80.12,61.77 80.18,66.25 80.25,70.18Q80.31,73.47 80.44,79.26L80.44,90" style="vector-effect: non-scaling-stroke; stroke-width: 2px; stroke: rgb(255, 127, 14); stroke-opacity: 1; fill: rgb(255, 127, 14); fill-opacity: 0.5;"/></g></g></g><g class="overplot"/><path class="xlines-above crisp" d="M0,0" style="fill: none;"/><path class="ylines-above crisp" d="M0,0" style="fill: none;"/><g class="overlines-above"/><g class="xaxislayer-above"><g class="xtick"><text text-anchor="middle" x="0" y="213" transform="translate(57.56,0)" style="font-family: Calibri; font-size: 12px; fill: rgb(68, 68, 68); fill-opacity: 1; white-space: pre;">0.2</text></g><g class="xtick"><text text-anchor="middle" x="0" y="213" transform="translate(107.33,0)" style="font-family: Calibri; font-size: 12px; fill: rgb(68, 68, 68); fill-opacity: 1; white-space: pre;">0.4</text></g><g class="xtick"><text text-anchor="middle" x="0" y="213" transform="translate(157.1,0)" style="font-family: Calibri; font-size: 12px; fill: rgb(68, 68, 68); fill-opacity: 1; white-space: pre;">0.6</text></g></g><g class="yaxislayer-above"/><g class="overaxes-above"/></g></g><g class="polarlayer"/><g class="ternarylayer"/><g class="geolayer"/><g class="funnelarealayer"/><g class="pielayer"/><g class="treemaplayer"/><g class="sunburstlayer"/><g class="glimages"/><defs id="topdefs-68c151"><g class="clips"/></defs><g class="layer-above"><g class="imagelayer"/><g class="shapelayer"><path data-index="0" fill-rule="evenodd" d="M97.38,191L97.38,110" clip-path="url('#clip68c151xy')" style="opacity: 1; stroke: rgb(0, 0, 255); stroke-opacity: 1; fill: rgb(0, 0, 0); fill-opacity: 0; stroke-dasharray: 9px, 9px; stroke-width: 2px;"/><path data-index="1" fill-rule="evenodd" d="M84.93,110L84.93,29" clip-path="url('#clip68c151xy')" style="opacity: 1; stroke: rgb(255, 165, 0); stroke-opacity: 1; fill: rgb(0, 0, 0); fill-opacity: 0; stroke-dasharray: 9px, 9px; stroke-width: 2px;"/></g></g><g class="infolayer"><g class="g-gtitle"/><g class="g-xtitle"><text class="xtitle" x="97.5" y="246" text-anchor="middle" style="font-family: Calibri; font-size: 12px; fill: rgb(68, 68, 68); opacity: 1; font-weight: normal; white-space: pre;">Biomasa   (C-mol C-mol ​<tspan style="font-size:70%" dy="-0.6em">-1</tspan><tspan dy="0.42em">​</tspan>)</text></g><g class="g-ytitle"/></g></svg>