<svg class="main-svg" xmlns="http://www.w3.org/2000/svg" xmlns:xlink="http://www.w3.org/1999/xlink" width="320" height="250" style="" viewBox="0 0 320 250"><rect x="0" y="0" width="320" height="250" style="fill: rgb(255, 255, 255); fill-opacity: 1;"/><defs id="defs-e6c8b3"><g class="clips"><clipPath id="clipe6c8b3xyplot" class="plotclip"><rect width="270" height="180"/></clipPath><clipPath class="axesclip" id="clipe6c8b3x"><rect x="30" y="0" width="270" height="250"/></clipPath><clipPath class="axesclip" id="clipe6c8b3y"><rect x="0" y="20" width="320" height="180"/></clipPath><clipPath class="axesclip" id="clipe6c8b3xy"><rect x="30" y="20" width="270" height="180"/></clipPath></g><g class="gradients"/></defs><g class="bglayer"/><g class="layer-below"><g class="imagelayer"/><g class="shapelayer"/></g><g class="cartesianlayer"><g class="subplot xy"><g class="layer-subplot"><g class="shapelayer"/><g class="imagelayer"/></g><g class="gridlayer"><g class="x"/><g class="y"><path class="ygrid crisp" transform="translate(0,191)" d="M30,0h270" style="stroke: rgb(238, 238, 238); stroke-opacity: 1; stroke-width: 1px;"/><path class="ygrid crisp" transform="translate(0,110)" d="M30,0h270" style="stroke: rgb(238, 238, 238); stroke-opacity: 1; stroke-width: 1px;"/></g></g><g class="zerolinelayer"/><path class="xlines-below"/><path class="ylines-below"/><g class="overlines-below"/><g class="xaxislayer-below"/><g class="yaxislayer-below"/><g class="overaxes-below"/><g class="plot" transform="translate(30,20)" clip-path="url('#clipe6c8b3xyplot')"><g class="violinlayer mlayer"><g class="trace violins" style="opacity: 1;"><path class="violin" d="M13.5,171L13.5,170.98Q15.13,170.97 15.95,170.97C16.77,170.96 17.59,170.96 18.41,170.95C19.23,170.94 20.04,170.93 20.86,170.92C21.68,170.91 22.5,170.91 23.32,170.9C24.14,170.89 24.95,170.88 25.77,170.88C26.59,170.87 27.41,170.87 28.23,170.87C29.05,170.87 29.86,170.88 30.68,170.88C31.5,170.89 32.32,170.89 33.14,170.9C33.96,170.91 34.77,170.91 35.59,170.92C36.41,170.93 37.23,170.94 38.05,170.95C38.87,170.96 39.68,170.96 40.5,170.97C41.32,170.97 42.13,170.98 42.95,170.98C43.77,170.98 44.59,170.99 45.41,170.99C46.23,170.99 47.04,171 47.86,171C48.68,171 49.5,171 50.32,171C51.14,171 51.95,171 52.77,171C53.59,171 54.41,171 55.23,171C56.05,171 56.86,171 57.68,171C58.5,171 59.32,171 60.14,171C60.96,171 61.77,171 62.59,171C63.41,171 64.23,171 65.05,171C65.87,171 66.68,171 67.5,171C68.32,171 69.13,171 69.95,171C70.77,171 71.59,171 72.41,171C73.23,171 74.04,171 74.86,171C75.68,171 76.5,171 77.32,171C78.14,171 78.95,171 79.77,171C80.59,171 81.41,171 82.23,171C83.05,171 83.86,171 84.68,171C85.5,171 86.32,171 87.14,171C87.96,171 88.77,171 89.59,171C90.41,171 91.23,171 92.05,171C92.87,171 93.68,171 94.5,171C95.32,171 96.13,171 96.95,171C97.77,171 98.59,171 99.41,171C100.23,171 101.04,170.99 101.86,170.99C102.68,170.99 103.5,170.99 104.32,170.99C105.14,170.99 105.95,170.97 106.77,170.97C107.59,170.96 108.41,170.97 109.23,170.96C110.05,170.95 110.86,170.94 111.68,170.93C112.5,170.92 113.32,170.91 114.14,170.89C114.96,170.88 115.77,170.86 116.59,170.84C117.41,170.82 118.23,170.8 119.05,170.77C119.87,170.74 120.68,170.71 121.5,170.68C122.32,170.65 123.13,170.62 123.95,170.58C124.77,170.54 125.59,170.5 126.41,170.46C127.23,170.42 128.04,170.38 128.86,170.33C129.68,170.28 130.5,170.24 131.32,170.17C132.14,170.11 132.95,170.04 133.77,169.94C134.59,169.84 135.41,169.74 136.23,169.59C137.05,169.44 137.87,169.26 138.68,169.04C139.5,168.82 140.33,168.56 141.14,168.25C141.97,167.94 142.78,167.57 143.59,167.17C144.42,166.76 145.24,166.3 146.05,165.81C146.88,165.31 147.69,164.76 148.5,164.19C149.33,163.61 150.14,162.99 150.95,162.35C151.78,161.7 152.6,161.02 153.41,160.32C154.24,159.6 155.05,158.86 155.86,158.09C156.69,157.31 157.51,156.5 158.32,155.66C159.15,154.8 159.96,153.91 160.77,153.01C161.6,152.09 162.41,151.14 163.23,150.19C164.05,149.24 164.86,148.25 165.68,147.3C166.49,146.36 167.3,145.4 168.14,144.53C168.94,143.7 169.74,142.84 170.59,142.17C171.38,141.54 172.2,140.93 173.05,140.58C173.84,140.26 174.69,140.04 175.5,140.09C176.32,140.14 177.17,140.48 177.95,140.93C178.82,141.43 179.63,142.24 180.41,143.06C181.27,143.97 182.06,145.1 182.86,146.2C183.7,147.36 184.5,148.64 185.32,149.85C186.14,151.06 186.93,152.31 187.77,153.46C188.57,154.55 189.38,155.63 190.23,156.58C191.02,157.47 191.83,158.3 192.68,159.01C193.47,159.67 194.3,160.24 195.14,160.72C195.94,161.17 196.76,161.53 197.59,161.82C198.4,162.1 199.23,162.28 200.05,162.42C200.86,162.56 201.68,162.63 202.5,162.67C203.32,162.71 204.13,162.69 204.95,162.68C205.77,162.67 206.59,162.64 207.41,162.62C208.23,162.61 209.04,162.59 209.86,162.59C210.68,162.59 211.5,162.62 212.32,162.63C213.14,162.64 213.95,162.68 214.77,162.63C215.59,162.58 216.43,162.55 217.23,162.32C218.07,162.09 218.91,161.76 219.68,161.22C220.56,160.6 221.39,159.73 222.14,158.69C223.06,157.41 223.84,155.75 224.59,153.95C225.51,151.73 226.29,149.08 227.05,146.28C227.95,142.99 228.72,139.23 229.5,135.4C230.36,131.16 231.14,126.48 231.95,121.93C232.78,117.28 233.55,112.28 234.41,107.8C235.19,103.7 235.88,99.32 236.86,96.08C237.59,93.69 238.26,90.33 239.32,90C240.03,89.78 241.08,90.66 241.77,91.61C243,93.32 243.48,97.33 244.23,100.73C245.16,104.94 245.88,110.11 246.68,114.99C247.52,120.14 248.3,125.72 249.14,130.87C249.94,135.77 250.71,140.74 251.59,145.18C252.36,149.08 253.14,152.86 254.05,156.1Q254.8,158.77 256.5,163.29L256.5,171" style="vector-effect: non-scaling-stroke; stroke-width: 2px; stroke: rgb(31, 119, 180); stroke-opacity: 1; fill: rgb(31, 119, 180); fill-opacity: 0.5;"/></g><g class="trace violins" style="opacity: 1;"><path class="violin" d="M44.93,90L44.93,89.89Q45.18,89.84 45.3,89.8C45.42,89.76 45.55,89.72 45.67,89.67C45.79,89.62 45.92,89.56 46.04,89.51C46.16,89.46 46.29,89.41 46.41,89.36C46.53,89.32 46.66,89.27 46.78,89.24C46.9,89.21 47.03,89.19 47.15,89.19C47.27,89.19 47.4,89.2 47.52,89.22C47.64,89.24 47.77,89.29 47.89,89.33C48.01,89.37 48.14,89.42 48.26,89.46C48.38,89.51 48.51,89.56 48.63,89.6C48.75,89.64 48.88,89.69 49,89.72C49.12,89.75 49.25,89.78 49.37,89.8C49.49,89.82 49.62,89.83 49.74,89.85C49.86,89.86 49.99,89.88 50.11,89.89C50.23,89.9 50.36,89.91 50.48,89.92C50.6,89.93 50.73,89.93 50.85,89.94C50.97,89.95 51.1,89.95 51.22,89.96C51.35,89.97 51.47,89.97 51.6,89.98C51.72,89.98 51.85,89.99 51.97,89.99C52.09,89.99 52.22,89.99 52.34,89.99C52.46,89.99 52.59,90 52.71,90C52.83,90 52.96,90 53.08,90C53.2,90 53.33,90 53.45,90C53.57,90 53.7,90 53.82,90C53.94,90 54.07,90 54.19,90C54.31,90 54.44,90 54.56,90C54.68,90 54.81,90 54.93,90C55.05,90 55.18,90 55.3,90C55.42,90 55.55,90 55.67,90C55.79,90 55.92,90 56.04,90C56.16,90 56.29,90 56.41,90C56.53,90 56.66,90 56.78,90C56.9,90 57.03,90 57.15,90C57.27,90 57.4,90 57.52,90C57.64,90 57.77,90 57.89,90C58.01,90 58.14,90 58.26,90C58.38,90 58.51,90 58.63,90C58.75,90 58.88,90 59,90C59.12,90 59.25,90 59.37,90C59.49,90 59.62,90 59.74,90C59.86,90 59.99,90 60.11,90C60.24,90 60.36,90 60.49,90C60.61,90 60.74,90 60.86,90C60.98,90 61.11,90 61.23,90C61.35,90 61.48,90 61.6,90C61.72,90 61.85,90 61.97,90C62.09,90 62.22,90 62.34,90C62.46,90 62.59,90 62.71,90C62.83,90 62.96,90 63.08,90C63.2,90 63.33,90 63.45,90C63.57,90 63.7,90 63.82,90C63.94,90 64.07,90 64.19,90C64.31,90 64.44,90 64.56,90C64.68,90 64.81,90 64.93,90C65.05,90 65.18,90 65.3,90C65.42,90 65.55,90 65.67,90C65.79,90 65.92,90 66.04,90C66.16,90 66.29,90 66.41,90C66.53,90 66.66,90 66.78,90C66.9,90 67.03,90 67.15,90C67.27,90 67.4,90 67.52,90C67.64,90 67.77,90 67.89,90C68.01,90 68.14,90 68.26,90C68.38,90 68.51,90 68.63,90C68.76,90 68.88,90 69.01,90C69.13,90 69.26,90 69.38,90C69.5,90 69.63,90 69.75,90C69.87,90 70,90 70.12,90C70.24,90 70.37,90 70.49,90C70.61,90 70.74,90 70.86,90C70.98,90 71.11,90 71.23,90C71.35,90 71.48,90 71.6,90C71.72,90 71.85,90 71.97,90C72.09,90 72.22,90 72.34,90C72.46,90 72.59,90 72.71,90C72.83,90 72.96,90 73.08,90C73.2,90 73.33,90 73.45,90C73.57,90 73.7,90 73.82,90C73.94,90 74.07,90 74.19,90C74.31,90 74.44,90 74.56,90C74.68,90 74.81,90 74.93,90C75.05,90 75.18,90 75.3,90C75.42,90 75.55,90 75.67,90C75.79,90 75.92,90 76.04,90C76.16,90 76.29,90 76.41,90C76.53,90 76.66,90 76.78,90C76.9,90 77.03,90 77.15,90C77.27,90 77.4,90 77.52,90C77.65,90 77.77,90 77.9,90C78.02,90 78.15,90 78.27,90C78.39,90 78.52,90 78.64,90C78.76,90 78.89,90 79.01,90C79.13,90 79.26,90 79.38,90C79.5,90 79.63,90 79.75,90C79.87,90 80,90 80.12,90C80.24,90 80.37,90 80.49,90C80.61,90 80.74,90 80.86,90C80.98,90 81.11,90 81.23,90C81.35,90 81.48,90 81.6,90C81.72,90 81.85,90 81.97,90C82.09,90 82.22,90 82.34,90C82.46,90 82.59,90 82.71,90C82.83,90 82.96,90 83.08,90C83.2,90 83.33,90 83.45,90C83.57,90 83.7,90 83.82,90C83.94,90 84.07,89.99 84.19,89.99C84.31,89.99 84.44,89.99 84.56,89.99C84.68,89.99 84.81,89.98 84.93,89.97C85.05,89.96 85.18,89.96 85.3,89.95C85.42,89.94 85.55,89.94 85.67,89.93C85.79,89.92 85.92,89.91 86.04,89.9C86.17,89.89 86.29,89.89 86.42,89.88C86.54,89.87 86.67,89.86 86.79,89.86C86.91,89.86 87.04,89.86 87.16,89.86C87.28,89.86 87.41,89.86 87.53,89.87C87.65,89.88 87.78,89.89 87.9,89.9C88.02,89.91 88.15,89.92 88.27,89.93C88.39,89.94 88.52,89.94 88.64,89.95C88.76,89.96 88.89,89.96 89.01,89.97C89.13,89.98 89.26,89.99 89.38,89.99C89.5,89.99 89.63,89.99 89.75,89.99C89.87,89.99 90,90 90.12,90C90.24,90 90.37,90 90.49,90C90.61,90 90.74,90 90.86,90C90.98,90 91.11,90 91.23,90C91.35,90 91.48,90 91.6,90C91.72,90 91.85,90 91.97,90C92.09,90 92.22,90 92.34,90C92.46,90 92.59,90 92.71,90C92.83,90 92.96,90 93.08,90C93.2,90 93.33,90 93.45,90C93.57,90 93.7,90 93.82,90C93.94,90 94.07,90 94.19,90C94.31,90 94.44,90 94.56,90C94.68,90 94.81,90 94.93,90C95.06,90 95.18,90 95.31,90C95.43,90 95.56,90 95.68,90C95.8,90 95.93,90 96.05,90C96.17,90 96.3,90 96.42,90C96.54,90 96.67,90 96.79,90C96.91,90 97.04,90 97.16,90C97.28,90 97.41,89.99 97.53,89.99C97.65,89.98 97.78,89.98 97.9,89.97C98.02,89.96 98.15,89.96 98.27,89.95C98.39,89.94 98.52,89.93 98.64,89.91C98.76,89.89 98.89,89.87 99.01,89.85C99.13,89.83 99.26,89.8 99.38,89.78C99.5,89.76 99.63,89.73 99.75,89.71C99.87,89.69 100,89.67 100.12,89.66C100.24,89.65 100.37,89.64 100.49,89.64C100.61,89.64 100.74,89.64 100.86,89.65C100.98,89.66 101.11,89.67 101.23,89.68C101.35,89.69 101.48,89.71 101.6,89.73C101.72,89.74 101.85,89.76 101.97,89.77C102.09,89.78 102.22,89.8 102.34,89.81C102.46,89.82 102.59,89.82 102.71,89.82C102.83,89.82 102.96,89.82 103.08,89.82C103.2,89.82 103.33,89.8 103.45,89.79C103.57,89.78 103.7,89.75 103.82,89.74C103.95,89.72 104.07,89.71 104.2,89.7C104.32,89.69 104.45,89.68 104.57,89.67C104.69,89.66 104.82,89.66 104.94,89.66C105.06,89.66 105.19,89.67 105.31,89.68C105.43,89.69 105.56,89.71 105.68,89.72C105.8,89.74 105.93,89.75 106.05,89.77C106.17,89.78 106.3,89.8 106.42,89.81C106.54,89.82 106.67,89.83 106.79,89.83C106.91,89.83 107.04,89.83 107.16,89.82C107.28,89.81 107.41,89.79 107.53,89.77C107.65,89.75 107.78,89.72 107.9,89.69C108.02,89.66 108.15,89.62 108.27,89.59C108.39,89.56 108.52,89.52 108.64,89.49C108.76,89.46 108.89,89.43 109.01,89.41C109.13,89.39 109.26,89.37 109.38,89.37C109.5,89.37 109.63,89.37 109.75,89.38C109.87,89.39 110,89.41 110.12,89.42C110.24,89.44 110.37,89.45 110.49,89.47C110.61,89.48 110.74,89.5 110.86,89.51C110.98,89.52 111.11,89.53 111.23,89.54C111.35,89.55 111.48,89.55 111.6,89.55C111.72,89.56 111.85,89.56 111.97,89.57C112.09,89.58 112.22,89.59 112.34,89.6C112.47,89.61 112.59,89.61 112.72,89.62C112.84,89.63 112.97,89.64 113.09,89.64C113.21,89.64 113.34,89.64 113.46,89.64C113.58,89.64 113.71,89.62 113.83,89.61C113.95,89.6 114.08,89.58 114.2,89.56C114.32,89.54 114.45,89.51 114.57,89.49C114.69,89.46 114.82,89.44 114.94,89.41C115.06,89.39 115.19,89.36 115.31,89.34C115.43,89.32 115.56,89.32 115.68,89.31C115.8,89.3 115.93,89.3 116.05,89.3C116.17,89.3 116.3,89.31 116.42,89.31C116.54,89.32 116.67,89.33 116.79,89.33C116.91,89.33 117.04,89.34 117.16,89.33C117.28,89.32 117.41,89.31 117.53,89.29C117.65,89.27 117.78,89.24 117.9,89.21C118.02,89.18 118.15,89.13 118.27,89.09C118.39,89.05 118.52,88.99 118.64,88.95C118.76,88.91 118.89,88.87 119.01,88.83C119.13,88.79 119.26,88.76 119.38,88.72C119.5,88.69 119.63,88.65 119.75,88.62C119.87,88.59 120,88.56 120.12,88.53C120.24,88.5 120.37,88.48 120.49,88.44C120.61,88.4 120.74,88.35 120.86,88.31C120.98,88.26 121.11,88.21 121.23,88.17C121.36,88.12 121.48,88.07 121.61,88.04C121.73,88.01 121.86,87.98 121.98,87.97C122.1,87.96 122.23,87.97 122.35,88C122.48,88.03 122.6,88.08 122.72,88.14C122.85,88.2 122.97,88.3 123.09,88.38C123.21,88.47 123.34,88.56 123.46,88.65C123.58,88.74 123.7,88.82 123.83,88.9C123.95,88.97 124.07,89.04 124.2,89.1C124.32,89.16 124.45,89.2 124.57,89.24C124.69,89.28 124.82,89.31 124.94,89.34C125.06,89.37 125.19,89.39 125.31,89.42C125.43,89.44 125.56,89.47 125.68,89.49C125.8,89.51 125.93,89.53 126.05,89.54C126.17,89.55 126.3,89.55 126.42,89.54C126.54,89.53 126.67,89.52 126.79,89.5C126.91,89.47 127.04,89.43 127.16,89.39C127.28,89.35 127.41,89.3 127.53,89.25C127.65,89.2 127.78,89.15 127.9,89.1C128.02,89.05 128.15,89.01 128.27,88.97C128.39,88.94 128.52,88.91 128.64,88.89C128.76,88.87 128.89,88.86 129.01,88.85C129.13,88.84 129.26,88.85 129.38,88.84C129.5,88.83 129.63,88.83 129.75,88.81C129.87,88.79 130,88.77 130.12,88.74C130.25,88.71 130.38,88.67 130.5,88.62C130.63,88.57 130.75,88.5 130.87,88.43C131,88.36 131.12,88.27 131.24,88.18C131.37,88.09 131.49,87.98 131.61,87.87C131.74,87.75 131.86,87.62 131.98,87.48C132.11,87.33 132.23,87.18 132.35,87.01C132.48,86.83 132.6,86.63 132.72,86.42C132.85,86.19 132.97,85.95 133.09,85.7C133.22,85.43 133.34,85.14 133.46,84.85C133.58,84.55 133.7,84.24 133.83,83.95C133.95,83.67 134.07,83.38 134.2,83.12C134.32,82.89 134.43,82.65 134.57,82.48C134.68,82.34 134.81,82.2 134.94,82.15C135.06,82.11 135.2,82.11 135.31,82.16C135.44,82.22 135.57,82.37 135.68,82.51C135.82,82.68 135.93,82.91 136.05,83.14C136.18,83.39 136.3,83.68 136.42,83.96C136.55,84.26 136.67,84.58 136.79,84.9C136.91,85.22 137.03,85.55 137.16,85.86C137.28,86.17 137.4,86.48 137.53,86.76C137.65,87.02 137.77,87.28 137.9,87.51C138.02,87.71 138.14,87.91 138.27,88.07C138.39,88.21 138.51,88.34 138.64,88.44C138.76,88.53 138.89,88.6 139.02,88.65C139.14,88.7 139.27,88.72 139.39,88.73C139.51,88.74 139.64,88.72 139.76,88.7C139.88,88.68 140.01,88.64 140.13,88.6C140.25,88.56 140.38,88.5 140.5,88.45C140.62,88.39 140.75,88.33 140.87,88.27C140.99,88.21 141.12,88.15 141.24,88.1C141.36,88.05 141.48,87.99 141.61,87.95C141.73,87.91 141.86,87.88 141.98,87.87C142.1,87.86 142.23,87.86 142.35,87.88C142.47,87.9 142.6,87.93 142.72,87.97C142.85,88.01 142.97,88.07 143.09,88.13C143.21,88.19 143.34,88.26 143.46,88.33C143.58,88.4 143.71,88.48 143.83,88.55C143.95,88.62 144.08,88.69 144.2,88.76C144.32,88.82 144.45,88.88 144.57,88.94C144.69,88.99 144.82,89.05 144.94,89.09C145.06,89.13 145.19,89.17 145.31,89.2C145.43,89.23 145.56,89.26 145.68,89.29C145.8,89.31 145.93,89.34 146.05,89.35C146.17,89.36 146.3,89.37 146.42,89.37C146.54,89.37 146.67,89.36 146.79,89.35C146.91,89.34 147.04,89.32 147.16,89.31C147.28,89.29 147.41,89.28 147.53,89.26C147.66,89.24 147.78,89.21 147.91,89.19C148.03,89.17 148.16,89.15 148.28,89.13C148.4,89.11 148.53,89.09 148.65,89.07C148.77,89.05 148.9,89.03 149.02,89.01C149.14,89 149.27,88.99 149.39,88.98C149.51,88.97 149.64,88.96 149.76,88.95C149.88,88.94 150.01,88.93 150.13,88.92C150.25,88.91 150.38,88.89 150.5,88.87C150.62,88.85 150.75,88.82 150.87,88.78C150.99,88.74 151.12,88.68 151.24,88.63C151.36,88.57 151.49,88.52 151.61,88.45C151.73,88.38 151.86,88.3 151.98,88.23C152.1,88.16 152.22,88.09 152.35,88.03C152.47,87.97 152.59,87.92 152.72,87.89C152.84,87.86 152.97,87.84 153.09,87.84C153.21,87.84 153.34,87.86 153.46,87.89C153.58,87.92 153.71,87.97 153.83,88.01C153.95,88.05 154.07,88.12 154.2,88.15C154.32,88.18 154.45,88.22 154.57,88.2C154.7,88.18 154.83,88.12 154.94,88.02C155.09,87.88 155.2,87.65 155.31,87.38C155.47,86.98 155.57,86.44 155.68,85.82C155.83,84.94 155.94,83.82 156.05,82.58C156.2,80.91 156.31,78.89 156.42,76.7C156.56,73.93 156.68,70.68 156.8,67.28C156.94,63.28 157.05,58.75 157.17,54.2C157.3,49.25 157.42,43.81 157.54,38.67C157.66,33.6 157.78,28.19 157.91,23.55C158.02,19.6 158.1,15.25 158.28,12.59C158.38,11.07 158.54,9 158.65,9C158.78,9 158.91,11.95 159.02,13.96C159.18,17.09 159.27,21.7 159.39,25.98C159.52,30.87 159.64,36.47 159.76,41.7C159.88,46.92 160,52.38 160.13,57.34C160.25,61.84 160.36,66.3 160.5,70.21Q160.61,73.49 160.87,79.26L160.87,90" style="vector-effect: non-scaling-stroke; stroke-width: 2px; stroke: rgb(255, 127, 14); stroke-opacity: 1; fill: rgb(255, 127, 14); fill-opacity: 0.5;"/></g></g></g><g class="overplot"/><path class="xlines-above crisp" d="M0,0" style="fill: none;"/><path class="ylines-above crisp" d="M0,0" style="fill: none;"/><g class="overlines-above"/><g class="xaxislayer-above"><g class="xtick"><text text-anchor="middle" x="0" y="213" transform="translate(35.35,0)" style="font-family: 'Open Sans', verdana, arial, sans-serif; font-size: 12px; fill: rgb(68, 68, 68); fill-opacity: 1; white-space: pre;">0.2</text></g><g class="xtick"><text text-anchor="middle" x="0" y="213" transform="translate(134.89,0)" style="font-family: 'Open Sans', verdana, arial, sans-serif; font-size: 12px; fill: rgb(68, 68, 68); fill-opacity: 1; white-space: pre;">0.4</text></g><g class="xtick"><text text-anchor="middle" x="0" y="213" transform="translate(234.43,0)" style="font-family: 'Open Sans', verdana, arial, sans-serif; font-size: 12px; fill: rgb(68, 68, 68); fill-opacity: 1; white-space: pre;">0.6</text></g></g><g class="yaxislayer-above"/><g class="overaxes-above"/></g></g><g class="polarlayer"/><g class="ternarylayer"/><g class="geolayer"/><g class="funnelarealayer"/><g class="pielayer"/><g class="treemaplayer"/><g class="sunburstlayer"/><g class="glimages"/><defs id="topdefs-e6c8b3"><g class="clips"/></defs><g class="layer-above"><g class="imagelayer"/><g class="shapelayer"/></g><g class="infolayer"><g class="g-gtitle"/><g class="g-xtitle" transform="translate(0,-5.015625)"><text class="xtitle" x="165" y="252" text-anchor="middle" style="font-family: 'Open Sans', verdana, arial, sans-serif; font-size: 14px; fill: rgb(68, 68, 68); opacity: 1; font-weight: normal; white-space: pre;">Biomasa   (C-mol C-mol ​<tspan style="font-size:70%" dy="-0.6em">-1</tspan><tspan dy="0.42em">​</tspan>)</text></g><g class="g-ytitle"/></g></svg>