<svg class="main-svg" xmlns="http://www.w3.org/2000/svg" xmlns:xlink="http://www.w3.org/1999/xlink" width="350" height="250" style="" viewBox="0 0 350 250"><rect x="0" y="0" width="350" height="250" style="fill: rgb(255, 255, 255); fill-opacity: 1;"/><defs id="defs-22e611"><g class="clips"><clipPath id="clip22e611xyplot" class="plotclip"><rect width="270" height="180"/></clipPath><clipPath class="axesclip" id="clip22e611x"><rect x="60" y="0" width="270" height="250"/></clipPath><clipPath class="axesclip" id="clip22e611y"><rect x="0" y="20" width="350" height="180"/></clipPath><clipPath class="axesclip" id="clip22e611xy"><rect x="60" y="20" width="270" height="180"/></clipPath></g><g class="gradients"/></defs><g class="bglayer"/><g class="layer-below"><g class="imagelayer"/><g class="shapelayer"/></g><g class="cartesianlayer"><g class="subplot xy"><g class="layer-subplot"><g class="shapelayer"/><g class="imagelayer"/></g><g class="gridlayer"><g class="x"/><g class="y"><path class="ygrid crisp" transform="translate(0,191)" d="M60,0h270" style="stroke: rgb(238, 238, 238); stroke-opacity: 1; stroke-width: 1px;"/><path class="ygrid crisp" transform="translate(0,110)" d="M60,0h270" style="stroke: rgb(238, 238, 238); stroke-opacity: 1; stroke-width: 1px;"/></g></g><g class="zerolinelayer"/><path class="xlines-below"/><path class="ylines-below"/><g class="overlines-below"/><g class="xaxislayer-below"/><g class="yaxislayer-below"/><g class="overaxes-below"/><g class="plot" transform="translate(60,20)" clip-path="url('#clip22e611xyplot')"><g class="violinlayer mlayer"><g class="trace violins" style="opacity: 1;"><path class="violin" d="M13.5,171L13.5,170.97Q15.04,170.94 15.81,170.9C16.58,170.86 17.36,170.83 18.13,170.74C18.9,170.64 19.68,170.55 20.44,170.33C21.22,170.11 22.02,169.85 22.76,169.41C23.57,168.93 24.36,168.29 25.07,167.49C25.92,166.53 26.68,165.3 27.39,163.91C28.26,162.19 28.99,160.11 29.7,157.86C30.56,155.16 31.29,152.02 32.01,148.75C32.84,144.99 33.59,140.78 34.33,136.55C35.13,131.98 35.87,127.02 36.64,122.25C37.41,117.47 38.14,112.42 38.96,107.9C39.7,103.82 40.35,99.53 41.27,96.28C41.96,93.84 42.49,90.6 43.59,90C44.24,89.64 45.25,89.92 45.9,90.5C47.05,91.53 47.51,94.84 48.21,97.48C49.1,100.82 49.78,105.03 50.53,109.02C51.33,113.31 52.06,118 52.84,122.4C53.6,126.68 54.35,131.06 55.16,135.06C55.9,138.68 56.63,142.23 57.47,145.37C58.19,148.05 58.93,150.6 59.79,152.76C60.5,154.53 61.24,156.17 62.1,157.46C62.81,158.52 63.58,159.42 64.41,160.09C65.14,160.67 65.94,161.07 66.73,161.37C67.48,161.66 68.26,161.78 69.04,161.9C69.81,162.02 70.59,162.04 71.36,162.09C72.13,162.14 72.9,162.16 73.67,162.19C74.44,162.22 75.22,162.24 75.99,162.25C76.76,162.26 77.53,162.28 78.3,162.24C79.07,162.2 79.84,162.15 80.61,162.02C81.39,161.89 82.17,161.72 82.93,161.47C83.71,161.21 84.49,160.88 85.24,160.46C86.03,160.02 86.81,159.49 87.56,158.88C88.36,158.23 89.12,157.45 89.87,156.63C90.67,155.74 91.44,154.74 92.19,153.71C92.98,152.62 93.74,151.42 94.5,150.24C95.28,149.03 96.03,147.75 96.81,146.54C97.57,145.36 98.32,144.14 99.13,143.08C99.87,142.1 100.62,141.12 101.44,140.39C102.17,139.75 102.95,139.14 103.76,138.86C104.5,138.6 105.32,138.53 106.07,138.66C106.86,138.79 107.65,139.22 108.39,139.69C109.2,140.2 109.95,140.95 110.7,141.69C111.5,142.48 112.25,143.39 113.01,144.29C113.79,145.21 114.56,146.19 115.33,147.14C116.1,148.09 116.86,149.06 117.64,150C118.41,150.92 119.18,151.83 119.96,152.72C120.72,153.59 121.49,154.44 122.27,155.27C123.04,156.09 123.81,156.89 124.59,157.68C125.36,158.46 126.12,159.22 126.9,159.96C127.66,160.69 128.43,161.41 129.21,162.1C129.97,162.77 130.75,163.44 131.53,164.05C132.29,164.65 133.06,165.22 133.84,165.74C134.6,166.24 135.38,166.71 136.16,167.13C136.92,167.53 137.69,167.9 138.47,168.21C139.23,168.52 140.01,168.77 140.79,169C141.56,169.22 142.33,169.4 143.1,169.56C143.87,169.72 144.64,169.83 145.41,169.94C146.18,170.05 146.96,170.13 147.73,170.21C148.5,170.29 149.27,170.35 150.04,170.41C150.81,170.47 151.59,170.52 152.36,170.57C153.13,170.62 153.9,170.66 154.67,170.69C155.44,170.73 156.22,170.75 156.99,170.78C157.76,170.81 158.53,170.83 159.3,170.85C160.07,170.87 160.84,170.89 161.61,170.9C162.38,170.92 163.16,170.93 163.93,170.94C164.7,170.95 165.47,170.95 166.24,170.96C167.01,170.97 167.79,170.97 168.56,170.98C169.33,170.98 170.1,170.99 170.87,170.99C171.64,170.99 172.42,170.99 173.19,170.99C173.96,170.99 174.73,171 175.5,171C176.27,171 177.04,171 177.81,171C178.58,171 179.36,171 180.13,171C180.9,171 181.67,171 182.44,171C183.21,171 183.99,171 184.76,171C185.53,171 186.3,171 187.07,171C187.84,171 188.62,171 189.39,171C190.16,171 190.93,171 191.7,171C192.47,171 193.24,171 194.01,171C194.78,171 195.56,171 196.33,171C197.1,171 197.87,171 198.64,171C199.41,171 200.19,171 200.96,171C201.73,171 202.5,171 203.27,171C204.04,171 204.82,171 205.59,171C206.36,171 207.13,171 207.9,171C208.67,171 209.44,171 210.21,171C210.98,171 211.76,171 212.53,171C213.3,171 214.07,171 214.84,171C215.61,171 216.39,171 217.16,171C217.93,171 218.7,171 219.47,171C220.24,171 221.02,171 221.79,171C222.56,171 223.33,171 224.1,171C224.87,171 225.64,170.99 226.41,170.99C227.18,170.99 227.96,170.98 228.73,170.98C229.5,170.98 230.27,170.98 231.04,170.97C231.81,170.96 232.59,170.95 233.36,170.94C234.13,170.93 234.9,170.93 235.67,170.92C236.44,170.91 237.22,170.9 237.99,170.89C238.76,170.88 239.53,170.88 240.3,170.87C241.07,170.87 241.84,170.86 242.61,170.86C243.38,170.86 244.16,170.86 244.93,170.87C245.7,170.87 246.47,170.88 247.24,170.89C248.01,170.9 248.79,170.91 249.56,170.92C250.33,170.93 251.1,170.93 251.87,170.94C252.64,170.95 253.42,170.96 254.19,170.97Q254.96,170.98 256.5,170.98L256.5,171" style="vector-effect: non-scaling-stroke; stroke-width: 2px; stroke: rgb(31, 119, 180); stroke-opacity: 1; fill: rgb(31, 119, 180); fill-opacity: 0.5;"/></g><g class="trace violins" style="opacity: 1;"><path class="violin" d="M61.51,90L61.51,89.99Q61.84,89.99 62.01,89.99C62.17,89.99 62.34,89.98 62.5,89.98C62.67,89.97 62.83,89.97 63,89.96C63.16,89.96 63.33,89.95 63.49,89.95C63.66,89.95 63.82,89.94 63.99,89.94C64.15,89.94 64.32,89.94 64.48,89.94C64.65,89.94 64.81,89.94 64.98,89.94C65.14,89.94 65.31,89.95 65.47,89.95C65.64,89.95 65.8,89.95 65.97,89.96C66.13,89.96 66.3,89.98 66.46,89.98C66.63,89.99 66.79,89.99 66.96,89.99C67.12,89.99 67.29,89.99 67.45,89.99C67.62,89.99 67.78,90 67.95,90C68.11,90 68.28,90 68.44,90C68.61,90 68.77,90 68.94,90C69.1,90 69.27,90 69.43,90C69.6,90 69.76,90 69.93,90C70.09,90 70.26,90 70.42,90C70.59,90 70.75,90 70.92,90C71.08,90 71.25,90 71.41,90C71.57,90 71.74,90 71.9,90C72.07,90 72.23,90 72.4,90C72.56,90 72.73,90 72.89,90C73.06,90 73.22,90 73.39,90C73.55,90 73.72,90 73.88,90C74.05,90 74.21,90 74.38,90C74.54,90 74.71,90 74.87,90C75.04,90 75.2,90 75.37,90C75.53,90 75.7,90 75.86,90C76.03,90 76.19,90 76.36,90C76.52,90 76.69,90 76.85,90C77.02,90 77.18,90 77.35,90C77.51,90 77.68,90 77.84,90C78.01,90 78.17,90 78.34,90C78.5,90 78.67,90 78.83,90C79,90 79.16,90 79.33,90C79.49,90 79.66,90 79.82,90C79.99,90 80.15,90 80.32,90C80.48,90 80.65,90 80.81,90C80.98,90 81.14,90 81.31,90C81.47,90 81.64,90 81.8,90C81.97,90 82.13,90 82.3,90C82.46,90 82.63,90 82.79,90C82.96,90 83.12,90 83.29,90C83.45,90 83.62,89.99 83.78,89.99C83.95,89.99 84.11,89.98 84.28,89.98C84.44,89.98 84.61,89.97 84.77,89.97C84.93,89.96 85.1,89.96 85.26,89.95C85.43,89.94 85.59,89.93 85.76,89.92C85.92,89.91 86.09,89.9 86.25,89.89C86.42,89.88 86.58,89.86 86.75,89.85C86.91,89.84 87.08,89.83 87.24,89.82C87.41,89.81 87.57,89.8 87.74,89.79C87.9,89.78 88.07,89.77 88.23,89.76C88.4,89.75 88.56,89.75 88.73,89.75C88.89,89.75 89.06,89.74 89.22,89.74C89.39,89.74 89.55,89.74 89.72,89.74C89.88,89.74 90.05,89.76 90.21,89.76C90.38,89.77 90.54,89.76 90.71,89.77C90.87,89.77 91.04,89.79 91.2,89.79C91.37,89.8 91.53,89.8 91.7,89.8C91.86,89.8 92.03,89.8 92.19,89.8C92.36,89.8 92.52,89.79 92.69,89.78C92.85,89.77 93.02,89.76 93.18,89.74C93.35,89.72 93.51,89.7 93.68,89.67C93.84,89.64 94.01,89.6 94.17,89.56C94.34,89.52 94.51,89.47 94.67,89.41C94.84,89.35 95,89.29 95.16,89.22C95.33,89.15 95.5,89.08 95.66,89C95.83,88.92 95.99,88.83 96.15,88.73C96.32,88.63 96.49,88.53 96.65,88.4C96.82,88.27 96.98,88.12 97.14,87.95C97.31,87.76 97.48,87.56 97.63,87.32C97.81,87.04 97.98,86.72 98.13,86.35C98.31,85.91 98.47,85.4 98.62,84.84C98.81,84.14 98.97,83.34 99.12,82.46C99.31,81.37 99.46,80.12 99.61,78.76C99.79,77.11 99.96,75.24 100.11,73.25C100.29,70.89 100.44,68.25 100.6,65.49C100.78,62.34 100.94,58.89 101.1,55.38C101.27,51.56 101.43,47.45 101.59,43.41C101.76,39.26 101.92,34.9 102.09,30.81C102.25,26.94 102.4,22.92 102.58,19.49C102.73,16.63 102.84,13.55 103.08,11.63C103.22,10.51 103.41,9 103.57,9C103.75,9 103.93,10.96 104.07,12.33C104.3,14.54 104.41,17.87 104.56,21.01C104.74,24.74 104.9,29.08 105.06,33.26C105.23,37.65 105.38,42.33 105.55,46.74C105.71,51 105.88,55.33 106.05,59.3C106.21,62.88 106.36,66.39 106.54,69.52C106.69,72.18 106.85,74.71 107.04,76.9C107.19,78.66 107.34,80.29 107.53,81.65C107.68,82.69 107.83,83.63 108.03,84.38C108.18,84.93 108.32,85.41 108.52,85.78C108.67,86.05 108.84,86.26 109.02,86.43C109.17,86.57 109.34,86.66 109.51,86.74C109.67,86.82 109.84,86.86 110,86.93C110.17,87 110.34,87.07 110.5,87.14C110.67,87.22 110.83,87.29 110.99,87.38C111.16,87.47 111.32,87.57 111.49,87.67C111.65,87.77 111.82,87.87 111.98,87.97C112.15,88.07 112.31,88.17 112.48,88.27C112.64,88.36 112.8,88.46 112.97,88.54C113.13,88.62 113.3,88.69 113.47,88.75C113.63,88.81 113.79,88.86 113.96,88.9C114.12,88.94 114.29,88.96 114.46,88.98C114.62,89 114.79,89 114.95,89C115.12,89 115.28,88.99 115.45,88.97C115.61,88.95 115.78,88.93 115.94,88.9C116.11,88.87 116.28,88.83 116.44,88.78C116.61,88.73 116.77,88.67 116.93,88.61C117.1,88.54 117.27,88.47 117.43,88.39C117.6,88.31 117.76,88.22 117.92,88.12C118.09,88.02 118.25,87.92 118.42,87.81C118.58,87.71 118.74,87.59 118.91,87.49C119.07,87.39 119.24,87.29 119.41,87.2C119.57,87.12 119.73,87.03 119.9,86.98C120.06,86.93 120.23,86.9 120.4,86.89C120.56,86.88 120.73,86.89 120.89,86.92C121.06,86.95 121.23,87 121.39,87.05C121.56,87.1 121.72,87.18 121.88,87.23C122.04,87.28 122.2,87.35 122.37,87.37C122.53,87.39 122.71,87.4 122.87,87.37C123.04,87.34 123.2,87.27 123.36,87.18C123.54,87.07 123.7,86.92 123.86,86.75C124.04,86.56 124.19,86.32 124.35,86.07C124.52,85.8 124.69,85.49 124.85,85.17C125.02,84.83 125.18,84.46 125.34,84.09C125.51,83.71 125.67,83.32 125.84,82.94C126,82.56 126.16,82.16 126.33,81.8C126.49,81.46 126.65,81.11 126.83,80.81C126.99,80.55 127.14,80.28 127.32,80.09C127.47,79.93 127.65,79.78 127.82,79.74C127.98,79.71 128.16,79.76 128.31,79.84C128.49,79.94 128.66,80.16 128.81,80.37C128.99,80.62 129.14,80.94 129.3,81.26C129.47,81.61 129.64,82.01 129.8,82.4C129.97,82.8 130.12,83.23 130.29,83.63C130.45,84.03 130.62,84.42 130.79,84.8C130.95,85.16 131.11,85.52 131.28,85.84C131.44,86.14 131.61,86.42 131.78,86.68C131.94,86.92 132.1,87.14 132.27,87.34C132.43,87.52 132.6,87.68 132.77,87.83C132.93,87.97 133.09,88.09 133.26,88.19C133.42,88.29 133.59,88.37 133.76,88.43C133.92,88.49 134.08,88.54 134.25,88.57C134.41,88.6 134.58,88.62 134.75,88.63C134.91,88.64 135.08,88.65 135.24,88.65C135.4,88.65 135.57,88.64 135.73,88.64C135.9,88.64 136.06,88.64 136.23,88.64C136.39,88.64 136.56,88.64 136.72,88.64C136.89,88.64 137.05,88.63 137.22,88.62C137.38,88.61 137.55,88.59 137.71,88.56C137.88,88.53 138.05,88.49 138.21,88.44C138.38,88.39 138.54,88.32 138.7,88.25C138.87,88.18 139.04,88.09 139.2,88.01C139.37,87.93 139.52,87.83 139.69,87.75C139.85,87.67 140.02,87.59 140.19,87.52C140.35,87.45 140.51,87.39 140.68,87.35C140.84,87.31 141.01,87.28 141.18,87.27C141.34,87.26 141.51,87.26 141.67,87.28C141.84,87.3 142.01,87.33 142.17,87.38C142.34,87.43 142.5,87.5 142.66,87.57C142.83,87.64 142.99,87.73 143.16,87.81C143.32,87.89 143.48,87.98 143.65,88.06C143.81,88.14 143.98,88.21 144.15,88.27C144.31,88.33 144.47,88.38 144.64,88.42C144.8,88.46 144.97,88.48 145.14,88.51C145.3,88.53 145.47,88.55 145.63,88.57C145.8,88.59 145.96,88.6 146.13,88.62C146.29,88.64 146.46,88.65 146.62,88.68C146.79,88.71 146.95,88.74 147.12,88.78C147.28,88.81 147.45,88.85 147.61,88.89C147.77,88.93 147.94,88.97 148.1,89.01C148.27,89.05 148.43,89.08 148.6,89.11C148.76,89.14 148.93,89.15 149.09,89.17C149.26,89.19 149.42,89.2 149.59,89.21C149.75,89.22 149.92,89.23 150.08,89.23C150.25,89.24 150.41,89.23 150.58,89.24C150.74,89.25 150.91,89.26 151.07,89.27C151.24,89.28 151.4,89.28 151.57,89.29C151.73,89.3 151.9,89.31 152.06,89.31C152.23,89.31 152.39,89.32 152.56,89.31C152.72,89.3 152.89,89.29 153.05,89.28C153.22,89.27 153.38,89.25 153.55,89.23C153.71,89.22 153.88,89.2 154.04,89.19C154.21,89.18 154.37,89.17 154.54,89.18C154.7,89.19 154.87,89.21 155.03,89.23C155.2,89.25 155.36,89.28 155.53,89.31C155.69,89.34 155.86,89.38 156.02,89.41C156.19,89.44 156.35,89.47 156.52,89.49C156.68,89.51 156.85,89.52 157.01,89.53C157.18,89.54 157.34,89.54 157.51,89.53C157.67,89.52 157.84,89.51 158,89.5C158.17,89.49 158.33,89.47 158.5,89.46C158.66,89.45 158.83,89.43 158.99,89.42C159.16,89.41 159.32,89.4 159.49,89.39C159.65,89.38 159.82,89.38 159.98,89.38C160.14,89.38 160.31,89.37 160.47,89.37C160.64,89.37 160.8,89.38 160.97,89.39C161.13,89.4 161.3,89.41 161.46,89.42C161.63,89.44 161.79,89.45 161.96,89.48C162.12,89.5 162.29,89.54 162.45,89.57C162.62,89.6 162.78,89.64 162.95,89.67C163.11,89.7 163.28,89.74 163.44,89.77C163.61,89.8 163.77,89.82 163.94,89.85C164.1,89.87 164.27,89.9 164.43,89.92C164.6,89.94 164.76,89.95 164.93,89.96C165.09,89.97 165.26,89.98 165.42,89.98C165.59,89.99 165.75,89.99 165.92,89.99C166.08,89.99 166.25,90 166.41,90C166.58,90 166.74,90 166.91,90C167.07,90 167.24,90 167.4,90C167.57,90 167.73,90 167.9,90C168.06,90 168.23,90 168.39,90C168.56,90 168.72,90 168.89,90C169.05,90 169.22,90 169.38,90C169.55,90 169.71,90 169.88,90C170.04,90 170.21,90 170.37,90C170.54,90 170.7,90 170.87,90C171.03,90 171.2,89.99 171.36,89.99C171.53,89.99 171.69,89.98 171.86,89.98C172.02,89.98 172.19,89.97 172.35,89.97C172.51,89.96 172.68,89.96 172.84,89.95C173.01,89.94 173.17,89.92 173.34,89.91C173.5,89.9 173.67,89.89 173.83,89.88C174,89.87 174.16,89.86 174.33,89.85C174.49,89.84 174.66,89.83 174.82,89.83C174.99,89.83 175.15,89.83 175.32,89.83C175.48,89.83 175.65,89.83 175.81,89.84C175.98,89.85 176.14,89.86 176.31,89.87C176.47,89.88 176.64,89.9 176.8,89.91C176.97,89.92 177.13,89.93 177.3,89.94C177.46,89.95 177.63,89.96 177.79,89.97C177.96,89.98 178.12,89.98 178.29,89.98C178.45,89.98 178.62,89.99 178.78,89.99C178.95,89.99 179.11,90 179.28,90C179.44,90 179.61,90 179.77,90C179.94,90 180.1,90 180.27,90C180.43,90 180.6,90 180.76,90C180.93,90 181.09,90 181.26,90C181.42,90 181.59,90 181.75,90C181.92,90 182.08,90 182.25,90C182.41,90 182.58,90 182.74,90C182.91,90 183.07,90 183.24,90C183.4,90 183.57,89.99 183.73,89.99C183.9,89.99 184.06,90 184.23,89.99C184.39,89.98 184.56,89.97 184.72,89.96C184.88,89.95 185.05,89.94 185.21,89.92C185.38,89.9 185.54,89.88 185.71,89.85C185.87,89.82 186.04,89.78 186.2,89.73C186.37,89.68 186.53,89.63 186.7,89.57C186.86,89.52 187.03,89.45 187.19,89.4C187.36,89.34 187.52,89.28 187.69,89.24C187.85,89.2 188.02,89.16 188.18,89.14C188.35,89.12 188.51,89.12 188.68,89.13C188.84,89.14 189.01,89.17 189.17,89.21C189.34,89.25 189.5,89.31 189.67,89.36C189.83,89.41 190,89.47 190.16,89.53C190.33,89.59 190.49,89.65 190.66,89.7C190.82,89.75 190.99,89.79 191.15,89.82C191.32,89.86 191.48,89.89 191.65,89.91C191.81,89.93 191.98,89.95 192.14,89.96C192.31,89.97 192.47,89.97 192.64,89.98C192.8,89.98 192.97,89.99 193.13,89.99C193.3,89.99 193.46,90 193.63,90C193.79,90 193.96,90 194.12,90C194.29,90 194.45,90 194.62,90C194.78,90 194.95,90 195.11,90C195.28,90 195.44,90 195.61,90C195.77,90 195.94,90 196.1,90C196.27,90 196.43,90 196.6,90C196.76,90 196.93,89.99 197.09,89.99C197.26,89.99 197.42,89.99 197.59,89.99C197.75,89.99 197.92,89.98 198.08,89.97C198.24,89.97 198.41,89.97 198.57,89.96C198.74,89.95 198.9,89.94 199.07,89.93C199.23,89.92 199.4,89.92 199.56,89.91C199.73,89.9 199.89,89.9 200.06,89.89C200.22,89.89 200.39,89.88 200.55,89.88C200.72,89.88 200.88,89.89 201.05,89.89C201.21,89.89 201.38,89.9 201.54,89.9C201.71,89.91 201.87,89.91 202.04,89.92C202.2,89.93 202.37,89.94 202.53,89.95C202.7,89.96 202.86,89.96 203.03,89.97C203.19,89.97 203.36,89.98 203.52,89.98C203.69,89.98 203.85,89.99 204.02,89.99C204.18,89.99 204.35,90 204.51,90C204.68,90 204.84,90 205.01,90C205.17,90 205.34,90 205.5,90C205.67,90 205.83,90 206,90C206.16,90 206.33,90 206.49,90C206.66,90 206.82,90 206.99,90C207.15,90 207.32,90 207.48,90C207.65,90 207.81,90 207.98,90C208.14,90 208.31,90 208.47,90C208.64,90 208.8,90 208.97,90C209.13,90 209.3,90 209.46,90C209.63,90 209.79,89.99 209.96,89.99C210.12,89.99 210.29,89.98 210.45,89.98C210.61,89.98 210.78,89.97 210.94,89.97C211.11,89.96 211.27,89.96 211.44,89.95C211.6,89.94 211.77,89.94 211.93,89.93C212.1,89.92 212.26,89.92 212.43,89.91C212.59,89.9 212.76,89.89 212.92,89.89C213.09,89.88 213.25,89.88 213.42,89.88C213.58,89.88 213.75,89.89 213.91,89.89C214.08,89.9 214.24,89.9 214.41,89.91C214.57,89.92 214.74,89.92 214.9,89.93C215.07,89.94 215.23,89.94 215.4,89.95C215.56,89.96 215.73,89.97 215.89,89.97Q216.06,89.98 216.39,89.98L216.39,90" style="vector-effect: non-scaling-stroke; stroke-width: 2px; stroke: rgb(255, 127, 14); stroke-opacity: 1; fill: rgb(255, 127, 14); fill-opacity: 0.5;"/></g></g></g><g class="overplot"/><path class="xlines-above crisp" d="M0,0" style="fill: none;"/><path class="ylines-above crisp" d="M0,0" style="fill: none;"/><g class="overlines-above"/><g class="xaxislayer-above"><g class="xtick"><text text-anchor="middle" x="0" y="213" transform="translate(115.38,0)" style="font-family: 'Open Sans', verdana, arial, sans-serif; font-size: 12px; fill: rgb(68, 68, 68); fill-opacity: 1; white-space: pre;">0.5</text></g><g class="xtick"><text text-anchor="middle" x="0" y="213" transform="translate(176.16,0)" style="font-family: 'Open Sans', verdana, arial, sans-serif; font-size: 12px; fill: rgb(68, 68, 68); fill-opacity: 1; white-space: pre;">0.6</text></g><g class="xtick"><text text-anchor="middle" x="0" y="213" transform="translate(236.94,0)" style="font-family: 'Open Sans', verdana, arial, sans-serif; font-size: 12px; fill: rgb(68, 68, 68); fill-opacity: 1; white-space: pre;">0.7</text></g><g class="xtick"><text text-anchor="middle" x="0" y="213" transform="translate(297.72,0)" style="font-family: 'Open Sans', verdana, arial, sans-serif; font-size: 12px; fill: rgb(68, 68, 68); fill-opacity: 1; white-space: pre;">0.8</text></g></g><g class="yaxislayer-above"><g class="ytick"><text text-anchor="end" x="59" y="4.199999999999999" transform="translate(0,191)" style="font-family: 'Open Sans', verdana, arial, sans-serif; font-size: 12px; fill: rgb(68, 68, 68); fill-opacity: 1; white-space: pre;">CIR_19</text></g><g class="ytick"><text text-anchor="end" x="59" y="4.199999999999999" transform="translate(0,110)" style="font-family: 'Open Sans', verdana, arial, sans-serif; font-size: 12px; fill: rgb(68, 68, 68); fill-opacity: 1; white-space: pre;">My_20</text></g></g><g class="overaxes-above"/></g></g><g class="polarlayer"/><g class="ternarylayer"/><g class="geolayer"/><g class="funnelarealayer"/><g class="pielayer"/><g class="treemaplayer"/><g class="sunburstlayer"/><g class="glimages"/><defs id="topdefs-22e611"><g class="clips"/></defs><g class="layer-above"><g class="imagelayer"/><g class="shapelayer"/></g><g class="infolayer"><g class="g-gtitle"/><g class="g-xtitle" transform="translate(0,-6.953125)"><text class="xtitle" x="195" y="252" text-anchor="middle" style="font-family: 'Open Sans', verdana, arial, sans-serif; font-size: 14px; fill: rgb(68, 68, 68); opacity: 1; font-weight: normal; white-space: pre;">CO​<tspan style="font-size:70%" dy="0.3em">2</tspan><tspan dy="-0.21em">​</tspan>   (C-mol C-mol ​<tspan style="font-size:70%" dy="-0.6em">-1</tspan><tspan dy="0.42em">​</tspan>)</text></g><g class="g-ytitle"/></g></svg>