<svg class="main-svg" xmlns="http://www.w3.org/2000/svg" xmlns:xlink="http://www.w3.org/1999/xlink" width="185" height="250" style="" viewBox="0 0 185 250"><rect x="0" y="0" width="185" height="250" style="fill: rgb(255, 255, 255); fill-opacity: 1;"/><defs id="defs-da1ed1"><g class="clips"><clipPath id="clipda1ed1xyplot" class="plotclip"><rect width="105" height="180"/></clipPath><clipPath class="axesclip" id="clipda1ed1x"><rect x="60" y="0" width="105" height="250"/></clipPath><clipPath class="axesclip" id="clipda1ed1y"><rect x="0" y="20" width="185" height="180"/></clipPath><clipPath class="axesclip" id="clipda1ed1xy"><rect x="60" y="20" width="105" height="180"/></clipPath></g><g class="gradients"/></defs><g class="bglayer"/><g class="layer-below"><g class="imagelayer"/><g class="shapelayer"/></g><g class="cartesianlayer"><g class="subplot xy"><g class="layer-subplot"><g class="shapelayer"/><g class="imagelayer"/></g><g class="gridlayer"><g class="x"/><g class="y"><path class="ygrid crisp" transform="translate(0,191)" d="M60,0h105" style="stroke: rgb(238, 238, 238); stroke-opacity: 1; stroke-width: 1px;"/><path class="ygrid crisp" transform="translate(0,110)" d="M60,0h105" style="stroke: rgb(238, 238, 238); stroke-opacity: 1; stroke-width: 1px;"/></g></g><g class="zerolinelayer"/><path class="xlines-below"/><path class="ylines-below"/><g class="overlines-below"/><g class="xaxislayer-below"/><g class="yaxislayer-below"/><g class="overaxes-below"/><g class="plot" transform="translate(60,20)" clip-path="url('#clipda1ed1xyplot')"><g class="violinlayer mlayer"><g class="trace violins" style="opacity: 1;"><path class="violin" d="M5.25,171L5.25,170.97Q5.85,170.94 6.15,170.9C6.45,170.86 6.76,170.83 7.05,170.74C7.36,170.64 7.67,170.53 7.95,170.33C8.27,170.1 8.58,169.8 8.85,169.41C9.2,168.91 9.48,168.24 9.75,167.49C10.1,166.5 10.38,165.27 10.65,163.91C11,162.16 11.27,160.09 11.55,157.86C11.89,155.14 12.17,152.01 12.45,148.75C12.78,144.98 13.06,140.78 13.35,136.55C13.66,131.97 13.95,127.02 14.25,122.25C14.55,117.47 14.83,112.43 15.15,107.9C15.44,103.82 15.69,99.56 16.05,96.28C16.32,93.86 16.33,90.31 16.95,90C17.2,89.88 17.6,90.13 17.85,90.5C18.5,91.46 18.48,94.86 18.75,97.48C19.1,100.84 19.36,105.03 19.65,109.02C19.96,113.31 20.25,118 20.55,122.4C20.85,126.68 21.13,131.06 21.45,135.06C21.74,138.67 22.02,142.22 22.35,145.37C22.63,148.04 22.91,150.58 23.25,152.76C23.52,154.51 23.8,156.13 24.15,157.46C24.42,158.47 24.69,159.39 25.05,160.09C25.32,160.62 25.61,161.06 25.95,161.37C26.23,161.62 26.54,161.78 26.85,161.9C27.14,162.01 27.45,162.04 27.75,162.09C28.05,162.14 28.35,162.16 28.65,162.19C28.95,162.22 29.25,162.24 29.55,162.25C29.85,162.26 30.15,162.28 30.45,162.24C30.75,162.2 31.06,162.14 31.35,162.02C31.66,161.89 31.97,161.71 32.25,161.47C32.57,161.2 32.87,160.85 33.15,160.46C33.48,160.01 33.77,159.46 34.05,158.88C34.37,158.21 34.67,157.44 34.95,156.63C35.27,155.73 35.56,154.73 35.85,153.71C36.16,152.61 36.45,151.42 36.75,150.24C37.05,149.03 37.35,147.75 37.65,146.54C37.95,145.37 38.23,144.16 38.55,143.08C38.83,142.12 39.11,141.15 39.45,140.39C39.72,139.79 39.98,139.13 40.35,138.86C40.61,138.67 40.97,138.57 41.25,138.66C41.59,138.77 41.88,139.27 42.15,139.69C42.49,140.23 42.77,140.97 43.05,141.69C43.37,142.49 43.66,143.4 43.95,144.29C44.26,145.22 44.55,146.19 44.85,147.14C45.15,148.09 45.45,149.06 45.75,150C46.05,150.92 46.35,151.83 46.65,152.72C46.95,153.59 47.25,154.43 47.55,155.27C47.85,156.09 48.15,156.89 48.45,157.68C48.75,158.45 49.05,159.21 49.35,159.96C49.65,160.69 49.94,161.41 50.25,162.1C50.54,162.77 50.84,163.43 51.15,164.05C51.44,164.64 51.74,165.21 52.05,165.74C52.34,166.23 52.64,166.7 52.95,167.13C53.24,167.52 53.54,167.89 53.85,168.21C54.14,168.51 54.44,168.77 54.75,169C55.04,169.22 55.34,169.4 55.65,169.56C55.94,169.71 56.25,169.83 56.55,169.94C56.85,170.05 57.15,170.13 57.45,170.21C57.75,170.29 58.05,170.35 58.35,170.41C58.65,170.47 58.95,170.52 59.25,170.57C59.55,170.62 59.85,170.65 60.15,170.69C60.45,170.72 60.75,170.75 61.05,170.78C61.35,170.81 61.65,170.83 61.95,170.85C62.25,170.87 62.55,170.88 62.85,170.9C63.15,170.91 63.45,170.93 63.75,170.94C64.05,170.95 64.35,170.95 64.65,170.96C64.95,170.97 65.25,170.97 65.55,170.98C65.85,170.98 66.15,170.99 66.45,170.99C66.75,170.99 67.05,170.99 67.35,170.99C67.65,170.99 67.95,171 68.25,171C68.55,171 68.85,171 69.15,171C69.45,171 69.75,171 70.05,171C70.35,171 70.65,171 70.95,171C71.25,171 71.55,171 71.85,171C72.15,171 72.45,171 72.75,171C73.05,171 73.35,171 73.65,171C73.95,171 74.25,171 74.55,171C74.85,171 75.15,171 75.45,171C75.75,171 76.05,171 76.35,171C76.65,171 76.95,171 77.25,171C77.55,171 77.85,171 78.15,171C78.45,171 78.75,171 79.05,171C79.35,171 79.65,171 79.95,171C80.25,171 80.55,171 80.85,171C81.15,171 81.45,171 81.75,171C82.05,171 82.35,171 82.65,171C82.95,171 83.25,171 83.55,171C83.85,171 84.15,171 84.45,171C84.75,171 85.05,171 85.35,171C85.65,171 85.95,171 86.25,171C86.55,171 86.85,171 87.15,171C87.45,171 87.75,170.99 88.05,170.99C88.35,170.99 88.65,170.98 88.95,170.98C89.25,170.98 89.55,170.98 89.85,170.97C90.15,170.96 90.45,170.95 90.75,170.94C91.05,170.93 91.35,170.93 91.65,170.92C91.95,170.91 92.25,170.9 92.55,170.89C92.85,170.88 93.15,170.88 93.45,170.87C93.75,170.87 94.05,170.86 94.35,170.86C94.65,170.86 94.95,170.87 95.25,170.87C95.55,170.88 95.85,170.88 96.15,170.89C96.45,170.9 96.75,170.91 97.05,170.92C97.35,170.93 97.65,170.93 97.95,170.94C98.25,170.95 98.55,170.96 98.85,170.97Q99.15,170.98 99.75,170.98L99.75,171" style="vector-effect: non-scaling-stroke; stroke-width: 2px; stroke: rgb(31, 119, 180); stroke-opacity: 1; fill: rgb(31, 119, 180); fill-opacity: 0.5;"/></g><g class="trace violins" style="opacity: 1;"><path class="violin" d="M23.92,90L23.92,89.99Q24.05,89.99 24.11,89.99C24.18,89.99 24.24,89.99 24.31,89.98C24.37,89.98 24.44,89.97 24.5,89.96C24.56,89.96 24.63,89.95 24.69,89.95C24.75,89.95 24.82,89.94 24.88,89.94C24.95,89.94 25.01,89.94 25.08,89.94C25.14,89.94 25.21,89.94 25.27,89.94C25.33,89.94 25.4,89.95 25.46,89.95C25.52,89.95 25.59,89.96 25.65,89.96C25.72,89.97 25.78,89.97 25.85,89.98C25.91,89.98 25.98,89.99 26.04,89.99C26.1,89.99 26.17,89.99 26.23,89.99C26.29,89.99 26.36,90 26.42,90C26.49,90 26.55,90 26.62,90C26.68,90 26.75,90 26.81,90C26.87,90 26.94,90 27,90C27.06,90 27.13,90 27.19,90C27.26,90 27.32,90 27.39,90C27.45,90 27.52,90 27.58,90C27.64,90 27.71,90 27.77,90C27.83,90 27.9,90 27.96,90C28.03,90 28.09,90 28.16,90C28.22,90 28.29,90 28.35,90C28.41,90 28.48,90 28.54,90C28.6,90 28.67,90 28.73,90C28.8,90 28.86,90 28.93,90C28.99,90 29.06,90 29.12,90C29.18,90 29.25,90 29.31,90C29.37,90 29.44,90 29.5,90C29.56,90 29.63,90 29.69,90C29.76,90 29.82,90 29.89,90C29.95,90 30.02,90 30.08,90C30.14,90 30.21,90 30.27,90C30.33,90 30.4,90 30.46,90C30.53,90 30.59,90 30.66,90C30.72,90 30.79,90 30.85,90C30.91,90 30.98,90 31.04,90C31.1,90 31.17,90 31.23,90C31.3,90 31.36,90 31.43,90C31.49,90 31.56,90 31.62,90C31.68,90 31.75,90 31.81,90C31.87,90 31.94,90 32,90C32.07,90 32.13,90 32.2,90C32.26,90 32.33,90 32.39,90C32.45,90 32.52,89.99 32.58,89.99C32.64,89.99 32.71,89.98 32.77,89.98C32.84,89.98 32.9,89.98 32.97,89.97C33.03,89.97 33.1,89.96 33.16,89.95C33.22,89.94 33.29,89.93 33.35,89.92C33.41,89.91 33.48,89.9 33.54,89.89C33.61,89.88 33.67,89.86 33.74,89.85C33.8,89.84 33.87,89.83 33.93,89.82C33.99,89.81 34.06,89.8 34.12,89.79C34.18,89.78 34.25,89.77 34.31,89.76C34.38,89.75 34.44,89.75 34.51,89.75C34.57,89.75 34.64,89.74 34.7,89.74C34.76,89.74 34.83,89.74 34.89,89.74C34.95,89.74 35.02,89.76 35.08,89.76C35.15,89.77 35.21,89.76 35.28,89.77C35.34,89.77 35.41,89.78 35.47,89.79C35.53,89.79 35.6,89.8 35.66,89.8C35.72,89.8 35.79,89.8 35.85,89.8C35.91,89.8 35.98,89.79 36.04,89.78C36.11,89.77 36.17,89.76 36.24,89.74C36.3,89.72 36.37,89.7 36.43,89.67C36.49,89.64 36.56,89.6 36.62,89.56C36.68,89.52 36.75,89.46 36.81,89.41C36.88,89.35 36.95,89.29 37.01,89.22C37.08,89.15 37.14,89.08 37.2,89C37.27,88.92 37.33,88.83 37.39,88.73C37.46,88.63 37.52,88.52 37.58,88.4C37.65,88.26 37.72,88.11 37.78,87.95C37.85,87.76 37.91,87.55 37.97,87.32C38.04,87.03 38.1,86.71 38.16,86.35C38.23,85.9 38.29,85.4 38.35,84.84C38.42,84.14 38.49,83.34 38.55,82.46C38.62,81.36 38.68,80.12 38.74,78.76C38.81,77.11 38.87,75.24 38.93,73.25C39,70.88 39.06,68.25 39.12,65.49C39.19,62.34 39.26,58.89 39.32,55.38C39.39,51.56 39.45,47.45 39.51,43.41C39.57,39.26 39.63,34.9 39.7,30.81C39.76,26.94 39.82,22.92 39.89,19.49C39.95,16.63 40,13.55 40.09,11.63C40.14,10.52 40.22,9 40.28,9C40.35,9 40.42,10.96 40.47,12.33C40.56,14.54 40.6,17.87 40.66,21.01C40.73,24.74 40.8,29.08 40.86,33.26C40.93,37.65 40.99,42.33 41.05,46.74C41.11,51 41.17,55.33 41.24,59.3C41.3,62.88 41.36,66.39 41.43,69.52C41.49,72.18 41.56,74.71 41.63,76.9C41.69,78.66 41.75,80.28 41.82,81.65C41.88,82.69 41.93,83.62 42.01,84.38C42.07,84.92 42.12,85.4 42.2,85.78C42.26,86.04 42.31,86.26 42.39,86.43C42.45,86.56 42.52,86.65 42.59,86.74C42.65,86.81 42.72,86.86 42.78,86.93C42.84,87 42.91,87.07 42.97,87.14C43.03,87.22 43.1,87.3 43.16,87.38C43.23,87.47 43.3,87.57 43.36,87.67C43.43,87.77 43.49,87.87 43.55,87.97C43.61,88.07 43.68,88.17 43.74,88.27C43.8,88.36 43.86,88.46 43.93,88.54C43.99,88.62 44.06,88.69 44.13,88.75C44.19,88.81 44.25,88.86 44.32,88.9C44.38,88.94 44.45,88.96 44.51,88.98C44.57,89 44.64,89 44.7,89C44.77,89 44.84,88.99 44.9,88.97C44.97,88.95 45.03,88.93 45.09,88.9C45.16,88.87 45.22,88.83 45.28,88.78C45.35,88.73 45.41,88.67 45.47,88.61C45.54,88.54 45.61,88.47 45.67,88.39C45.74,88.31 45.8,88.21 45.86,88.12C45.92,88.02 45.99,87.91 46.05,87.81C46.11,87.7 46.17,87.59 46.24,87.49C46.3,87.39 46.37,87.29 46.44,87.2C46.5,87.12 46.56,87.03 46.63,86.98C46.69,86.94 46.76,86.9 46.82,86.89C46.88,86.88 46.95,86.9 47.01,86.92C47.08,86.95 47.15,87 47.21,87.05C47.28,87.1 47.33,87.18 47.4,87.23C47.46,87.28 47.52,87.35 47.59,87.37C47.65,87.39 47.72,87.39 47.78,87.37C47.85,87.34 47.92,87.26 47.98,87.18C48.06,87.07 48.11,86.91 48.17,86.75C48.24,86.55 48.3,86.31 48.36,86.07C48.43,85.79 48.49,85.48 48.55,85.17C48.62,84.83 48.68,84.46 48.74,84.09C48.81,83.71 48.87,83.32 48.94,82.94C49,82.56 49.06,82.17 49.13,81.8C49.19,81.46 49.25,81.11 49.32,80.81C49.38,80.55 49.43,80.28 49.51,80.09C49.57,79.95 49.63,79.76 49.71,79.74C49.77,79.72 49.85,79.78 49.9,79.84C49.99,79.94 50.03,80.17 50.09,80.37C50.16,80.63 50.22,80.94 50.28,81.26C50.35,81.62 50.42,82.01 50.48,82.4C50.55,82.8 50.61,83.23 50.67,83.63C50.73,84.02 50.79,84.42 50.86,84.8C50.92,85.16 50.98,85.51 51.05,85.84C51.11,86.14 51.18,86.42 51.25,86.68C51.31,86.91 51.37,87.14 51.44,87.34C51.5,87.52 51.56,87.68 51.63,87.83C51.69,87.96 51.75,88.09 51.82,88.19C51.88,88.28 51.95,88.36 52.02,88.43C52.08,88.49 52.14,88.54 52.21,88.57C52.27,88.6 52.34,88.62 52.4,88.63C52.46,88.64 52.53,88.65 52.59,88.65C52.66,88.65 52.72,88.64 52.79,88.64C52.85,88.64 52.92,88.64 52.98,88.64C53.04,88.64 53.11,88.64 53.17,88.64C53.23,88.64 53.3,88.63 53.36,88.62C53.43,88.61 53.5,88.59 53.56,88.56C53.63,88.53 53.69,88.49 53.75,88.44C53.82,88.39 53.88,88.32 53.94,88.25C54.01,88.18 54.07,88.09 54.13,88.01C54.2,87.93 54.26,87.83 54.33,87.75C54.39,87.67 54.45,87.59 54.52,87.52C54.58,87.46 54.64,87.39 54.71,87.35C54.77,87.31 54.84,87.28 54.9,87.27C54.96,87.26 55.03,87.26 55.09,87.28C55.16,87.3 55.23,87.34 55.29,87.38C55.36,87.43 55.42,87.5 55.48,87.57C55.55,87.64 55.61,87.73 55.67,87.81C55.73,87.89 55.79,87.98 55.86,88.06C55.92,88.13 55.99,88.21 56.06,88.27C56.12,88.33 56.18,88.38 56.25,88.42C56.31,88.46 56.38,88.48 56.44,88.51C56.5,88.53 56.57,88.55 56.63,88.57C56.7,88.59 56.76,88.6 56.83,88.62C56.89,88.64 56.96,88.65 57.02,88.68C57.08,88.71 57.15,88.75 57.21,88.78C57.27,88.82 57.34,88.85 57.4,88.89C57.47,88.93 57.53,88.97 57.6,89.01C57.66,89.05 57.73,89.08 57.79,89.11C57.85,89.14 57.92,89.15 57.98,89.17C58.04,89.19 58.11,89.2 58.17,89.21C58.24,89.22 58.3,89.22 58.37,89.23C58.43,89.23 58.5,89.23 58.56,89.24C58.62,89.25 58.69,89.26 58.75,89.27C58.81,89.28 58.88,89.28 58.94,89.29C59.01,89.3 59.07,89.31 59.14,89.31C59.2,89.31 59.27,89.31 59.33,89.31C59.39,89.31 59.46,89.29 59.52,89.28C59.58,89.27 59.65,89.24 59.71,89.23C59.78,89.21 59.84,89.2 59.91,89.19C59.97,89.18 60.04,89.17 60.1,89.18C60.16,89.19 60.23,89.21 60.29,89.23C60.35,89.25 60.42,89.28 60.48,89.31C60.55,89.34 60.61,89.38 60.68,89.41C60.74,89.44 60.81,89.47 60.87,89.49C60.93,89.51 61,89.52 61.06,89.53C61.12,89.54 61.19,89.53 61.25,89.53C61.31,89.53 61.38,89.51 61.44,89.5C61.51,89.49 61.57,89.47 61.64,89.46C61.7,89.45 61.77,89.43 61.83,89.42C61.89,89.41 61.96,89.4 62.02,89.39C62.08,89.38 62.15,89.38 62.21,89.38C62.28,89.38 62.34,89.37 62.41,89.37C62.47,89.37 62.54,89.38 62.6,89.39C62.66,89.4 62.73,89.41 62.79,89.42C62.85,89.44 62.92,89.46 62.98,89.48C63.05,89.51 63.11,89.54 63.18,89.57C63.24,89.6 63.31,89.64 63.37,89.67C63.43,89.7 63.5,89.74 63.56,89.77C63.62,89.8 63.69,89.83 63.75,89.85C63.82,89.88 63.88,89.9 63.95,89.92C64.01,89.94 64.08,89.95 64.14,89.96C64.2,89.97 64.27,89.97 64.33,89.98C64.39,89.98 64.46,89.99 64.52,89.99C64.59,89.99 64.65,90 64.72,90C64.78,90 64.85,90 64.91,90C64.97,90 65.04,90 65.1,90C65.16,90 65.23,90 65.29,90C65.36,90 65.42,90 65.49,90C65.55,90 65.62,90 65.68,90C65.74,90 65.81,90 65.87,90C65.93,90 66,90 66.06,90C66.13,90 66.19,90 66.26,90C66.32,90 66.39,90 66.45,90C66.51,90 66.58,89.99 66.64,89.99C66.7,89.99 66.77,89.98 66.83,89.98C66.9,89.98 66.96,89.98 67.03,89.97C67.09,89.97 67.16,89.96 67.22,89.95C67.28,89.94 67.35,89.92 67.41,89.91C67.47,89.9 67.54,89.89 67.6,89.88C67.66,89.87 67.73,89.86 67.79,89.85C67.86,89.84 67.92,89.83 67.99,89.83C68.05,89.83 68.12,89.83 68.18,89.83C68.24,89.83 68.31,89.83 68.37,89.84C68.43,89.85 68.5,89.86 68.56,89.87C68.63,89.88 68.69,89.9 68.76,89.91C68.82,89.92 68.89,89.93 68.95,89.94C69.01,89.95 69.08,89.96 69.14,89.97C69.2,89.98 69.27,89.98 69.33,89.98C69.4,89.98 69.46,89.99 69.53,89.99C69.59,89.99 69.66,90 69.72,90C69.78,90 69.85,90 69.91,90C69.97,90 70.04,90 70.1,90C70.17,90 70.23,90 70.3,90C70.36,90 70.43,90 70.49,90C70.55,90 70.62,90 70.68,90C70.74,90 70.81,90 70.87,90C70.94,90 71,90 71.07,90C71.13,90 71.2,90 71.26,90C71.32,90 71.39,89.99 71.45,89.99C71.51,89.99 71.58,89.99 71.64,89.99C71.71,89.99 71.77,89.97 71.84,89.96C71.9,89.95 71.97,89.94 72.03,89.92C72.09,89.9 72.16,89.88 72.22,89.85C72.29,89.82 72.35,89.77 72.41,89.73C72.48,89.68 72.54,89.63 72.61,89.57C72.67,89.52 72.74,89.46 72.8,89.4C72.86,89.35 72.92,89.28 72.99,89.24C73.05,89.2 73.11,89.16 73.18,89.14C73.24,89.12 73.32,89.12 73.38,89.13C73.45,89.14 73.51,89.17 73.57,89.21C73.64,89.25 73.7,89.31 73.76,89.36C73.82,89.41 73.89,89.47 73.95,89.53C74.01,89.59 74.07,89.65 74.14,89.7C74.2,89.75 74.27,89.78 74.34,89.82C74.4,89.85 74.47,89.89 74.53,89.91C74.59,89.93 74.66,89.95 74.72,89.96C74.78,89.97 74.85,89.98 74.91,89.98C74.98,89.99 75.04,89.99 75.11,89.99C75.17,89.99 75.24,90 75.3,90C75.36,90 75.43,90 75.49,90C75.55,90 75.62,90 75.68,90C75.75,90 75.81,90 75.88,90C75.94,90 76.01,90 76.07,90C76.13,90 76.2,90 76.26,90C76.32,90 76.39,90 76.45,90C76.52,90 76.58,89.99 76.65,89.99C76.71,89.99 76.78,89.99 76.84,89.99C76.9,89.99 76.97,89.98 77.03,89.97C77.09,89.97 77.16,89.97 77.22,89.96C77.29,89.95 77.35,89.94 77.42,89.93C77.48,89.92 77.55,89.92 77.61,89.91C77.67,89.9 77.74,89.9 77.8,89.89C77.86,89.89 77.93,89.88 77.99,89.88C78.06,89.88 78.12,89.89 78.19,89.89C78.25,89.89 78.32,89.9 78.38,89.9C78.44,89.91 78.51,89.91 78.57,89.92C78.63,89.93 78.7,89.94 78.76,89.95C78.83,89.96 78.89,89.96 78.96,89.97C79.02,89.97 79.09,89.98 79.15,89.98C79.21,89.98 79.28,89.99 79.34,89.99C79.4,89.99 79.47,90 79.53,90C79.59,90 79.66,90 79.72,90C79.79,90 79.85,90 79.92,90C79.98,90 80.05,90 80.11,90C80.17,90 80.24,90 80.3,90C80.36,90 80.43,90 80.49,90C80.56,90 80.62,90 80.69,90C80.75,90 80.82,90 80.88,90C80.94,90 81.01,90 81.07,90C81.13,90 81.2,90 81.26,90C81.33,90 81.39,90 81.46,90C81.52,90 81.59,89.99 81.65,89.99C81.71,89.99 81.78,89.98 81.84,89.98C81.9,89.98 81.97,89.97 82.03,89.97C82.1,89.96 82.16,89.96 82.23,89.95C82.29,89.94 82.36,89.94 82.42,89.93C82.48,89.92 82.55,89.92 82.61,89.91C82.67,89.9 82.74,89.89 82.8,89.89C82.87,89.88 82.93,89.88 83,89.88C83.06,89.88 83.13,89.89 83.19,89.89C83.25,89.9 83.32,89.9 83.38,89.91C83.44,89.92 83.51,89.92 83.57,89.93C83.64,89.94 83.7,89.94 83.77,89.95C83.83,89.96 83.9,89.96 83.96,89.97Q84.02,89.97 84.15,89.98L84.15,90" style="vector-effect: non-scaling-stroke; stroke-width: 2px; stroke: rgb(255, 127, 14); stroke-opacity: 1; fill: rgb(255, 127, 14); fill-opacity: 0.5;"/></g></g></g><g class="overplot"/><path class="xlines-above crisp" d="M0,0" style="fill: none;"/><path class="ylines-above crisp" d="M0,0" style="fill: none;"/><g class="overlines-above"/><g class="xaxislayer-above"><g class="xtick"><text text-anchor="middle" x="0" y="213" transform="translate(81.53,0)" style="font-family: Calibri; font-size: 12px; fill: rgb(68, 68, 68); fill-opacity: 1; white-space: pre;">0.5</text></g><g class="xtick"><text text-anchor="middle" x="0" y="213" transform="translate(105.17,0)" style="font-family: Calibri; font-size: 12px; fill: rgb(68, 68, 68); fill-opacity: 1; white-space: pre;">0.6</text></g><g class="xtick"><text text-anchor="middle" x="0" y="213" transform="translate(128.81,0)" style="font-family: Calibri; font-size: 12px; fill: rgb(68, 68, 68); fill-opacity: 1; white-space: pre;">0.7</text></g><g class="xtick"><text text-anchor="middle" x="0" y="213" transform="translate(152.45,0)" style="font-family: Calibri; font-size: 12px; fill: rgb(68, 68, 68); fill-opacity: 1; white-space: pre;">0.8</text></g></g><g class="yaxislayer-above"><g class="ytick"><text text-anchor="end" x="59" y="4.199999999999999" transform="translate(0,191)" style="font-family: Calibri; font-size: 12px; fill: rgb(68, 68, 68); fill-opacity: 1; white-space: pre;">CIR_19</text></g><g class="ytick"><text text-anchor="end" x="59" y="4.199999999999999" transform="translate(0,110)" style="font-family: Calibri; font-size: 12px; fill: rgb(68, 68, 68); fill-opacity: 1; white-space: pre;">My_20</text></g></g><g class="overaxes-above"/></g></g><g class="polarlayer"/><g class="ternarylayer"/><g class="geolayer"/><g class="funnelarealayer"/><g class="pielayer"/><g class="treemaplayer"/><g class="sunburstlayer"/><g class="glimages"/><defs id="topdefs-da1ed1"><g class="clips"/></defs><g class="layer-above"><g class="imagelayer"/><g class="shapelayer"><path data-index="0" fill-rule="evenodd" d="M114.63,191L114.63,110" clip-path="url('#clipda1ed1xy')" style="opacity: 1; stroke: rgb(0, 0, 255); stroke-opacity: 1; fill: rgb(0, 0, 0); fill-opacity: 0; stroke-dasharray: 9px, 9px; stroke-width: 2px;"/><path data-index="1" fill-rule="evenodd" d="M126.45,110L126.45,29" clip-path="url('#clipda1ed1xy')" style="opacity: 1; stroke: rgb(255, 165, 0); stroke-opacity: 1; fill: rgb(0, 0, 0); fill-opacity: 0; stroke-dasharray: 9px, 9px; stroke-width: 2px;"/></g></g><g class="infolayer"><g class="g-gtitle"/><g class="g-xtitle" transform="translate(0,-0.53125)"><text class="xtitle" x="112.5" y="246" text-anchor="middle" style="font-family: Calibri; font-size: 12px; fill: rgb(68, 68, 68); opacity: 1; font-weight: normal; white-space: pre;">CO​<tspan style="font-size:70%" dy="0.3em">2</tspan><tspan dy="-0.21em">​</tspan>   (C-mol C-mol ​<tspan style="font-size:70%" dy="-0.6em">-1</tspan><tspan dy="0.42em">​</tspan>)</text></g><g class="g-ytitle"/></g></svg>