<svg class="main-svg" xmlns="http://www.w3.org/2000/svg" xmlns:xlink="http://www.w3.org/1999/xlink" width="450" height="250" style="" viewBox="0 0 450 250"><rect x="0" y="0" width="450" height="250" style="fill: rgb(255, 255, 255); fill-opacity: 1;"/><defs id="defs-85a725"><g class="clips"><clipPath id="clip85a725xyplot" class="plotclip"><rect width="370" height="180"/></clipPath><clipPath class="axesclip" id="clip85a725x"><rect x="60" y="0" width="370" height="250"/></clipPath><clipPath class="axesclip" id="clip85a725y"><rect x="0" y="20" width="450" height="180"/></clipPath><clipPath class="axesclip" id="clip85a725xy"><rect x="60" y="20" width="370" height="180"/></clipPath></g><g class="gradients"/></defs><g class="bglayer"/><g class="layer-below"><g class="imagelayer"/><g class="shapelayer"/></g><g class="cartesianlayer"><g class="subplot xy"><g class="layer-subplot"><g class="shapelayer"/><g class="imagelayer"/></g><g class="gridlayer"><g class="x"/><g class="y"><path class="ygrid crisp" transform="translate(0,191)" d="M60,0h370" style="stroke: rgb(238, 238, 238); stroke-opacity: 1; stroke-width: 1px;"/><path class="ygrid crisp" transform="translate(0,110)" d="M60,0h370" style="stroke: rgb(238, 238, 238); stroke-opacity: 1; stroke-width: 1px;"/></g></g><g class="zerolinelayer"/><path class="xlines-below"/><path class="ylines-below"/><g class="overlines-below"/><g class="xaxislayer-below"/><g class="yaxislayer-below"/><g class="overaxes-below"/><g class="plot" transform="translate(60,20)" clip-path="url('#clip85a725xyplot')"><g class="violinlayer mlayer"><g class="trace violins" style="opacity: 1;"><path class="violin" d="M141.77,171L141.77,170.99Q142.2,170.98 142.41,170.98C142.62,170.98 142.83,170.97 143.04,170.97C143.25,170.97 143.46,170.96 143.67,170.96C143.88,170.95 144.1,170.95 144.31,170.94C144.52,170.94 144.73,170.93 144.94,170.93C145.15,170.93 145.36,170.93 145.57,170.93C145.78,170.93 146,170.93 146.21,170.93C146.42,170.93 146.63,170.94 146.84,170.94C147.05,170.95 147.26,170.96 147.47,170.96C147.68,170.97 147.9,170.97 148.11,170.97C148.32,170.97 148.53,170.98 148.74,170.98C148.95,170.98 149.16,170.99 149.37,170.99C149.58,170.99 149.8,171 150.01,171C150.22,171 150.43,171 150.64,171C150.85,171 151.06,171 151.27,171C151.48,171 151.7,171 151.91,171C152.12,171 152.33,171 152.54,171C152.75,171 152.97,171 153.18,171C153.39,171 153.6,171 153.81,171C154.02,171 154.23,171 154.44,171C154.65,171 154.87,171 155.08,171C155.29,171 155.5,171 155.71,171C155.92,171 156.13,171 156.34,171C156.55,171 156.77,171 156.98,171C157.19,171 157.4,171 157.61,171C157.82,171 158.03,171 158.24,171C158.45,171 158.67,171 158.88,171C159.09,171 159.3,171 159.51,171C159.72,171 159.93,171 160.14,171C160.35,171 160.57,171 160.78,171C160.99,171 161.2,171 161.41,171C161.62,171 161.84,171 162.05,171C162.26,171 162.47,171 162.68,171C162.89,171 163.1,171 163.31,171C163.52,171 163.74,171 163.95,171C164.16,171 164.37,171 164.58,171C164.79,171 165,171 165.21,171C165.42,171 165.64,171 165.85,171C166.06,171 166.27,171 166.48,171C166.69,171 166.9,171 167.11,171C167.32,171 167.54,171 167.75,171C167.96,171 168.17,171 168.38,171C168.59,171 168.8,171 169.01,171C169.22,171 169.44,171 169.65,171C169.86,171 170.07,171 170.28,171C170.49,171 170.7,171 170.91,171C171.12,171 171.34,171 171.55,171C171.76,171 171.97,171 172.18,171C172.39,171 172.61,171 172.82,171C173.03,171 173.24,171 173.45,171C173.66,171 173.87,171 174.08,171C174.29,171 174.51,171 174.72,171C174.93,171 175.14,171 175.35,171C175.56,171 175.77,171 175.98,171C176.19,171 176.41,171 176.62,171C176.83,171 177.04,171 177.25,171C177.46,171 177.67,171 177.88,171C178.09,171 178.31,171 178.52,171C178.73,171 178.94,171 179.15,171C179.36,171 179.57,171 179.78,171C179.99,171 180.21,171 180.42,171C180.63,171 180.84,171 181.05,171C181.26,171 181.48,171 181.69,171C181.9,171 182.11,171 182.32,171C182.53,171 182.74,171 182.95,171C183.16,171 183.38,171 183.59,171C183.8,171 184.01,171 184.22,171C184.43,171 184.64,171 184.85,171C185.06,171 185.28,171 185.49,171C185.7,171 185.91,171 186.12,171C186.33,171 186.54,171 186.75,171C186.96,171 187.18,171 187.39,171C187.6,171 187.81,171 188.02,171C188.23,171 188.44,171 188.65,171C188.86,171 189.08,171 189.29,171C189.5,171 189.71,171 189.92,171C190.13,171 190.34,171 190.55,171C190.76,171 190.98,171 191.19,171C191.4,171 191.61,171 191.82,171C192.03,171 192.25,171 192.46,171C192.67,171 192.88,171 193.09,171C193.3,171 193.51,171 193.72,171C193.93,171 194.15,171 194.36,171C194.57,171 194.78,171 194.99,171C195.2,171 195.41,171 195.62,171C195.83,171 196.05,171 196.26,171C196.47,171 196.68,171 196.89,171C197.1,171 197.31,171 197.52,171C197.73,171 197.95,171 198.16,171C198.37,171 198.58,171 198.79,171C199,171 199.21,171 199.42,171C199.63,171 199.85,171 200.06,171C200.27,171 200.48,171 200.69,171C200.9,171 201.12,171 201.33,171C201.54,171 201.75,171 201.96,171C202.17,171 202.38,171 202.59,171C202.8,171 203.02,171 203.23,171C203.44,171 203.65,171 203.86,171C204.07,171 204.28,171 204.49,171C204.7,171 204.92,171 205.13,171C205.34,171 205.55,171 205.76,171C205.97,171 206.18,171 206.39,171C206.6,171 206.82,171 207.03,171C207.24,171 207.45,171 207.66,171C207.87,171 208.08,171 208.29,171C208.5,171 208.72,171 208.93,171C209.14,171 209.35,171 209.56,171C209.77,171 209.98,171 210.19,171C210.4,171 210.62,171 210.83,171C211.04,171 211.25,171 211.46,171C211.67,171 211.89,171 212.1,171C212.31,171 212.52,171 212.73,171C212.94,171 213.15,171 213.36,171C213.57,171 213.79,171 214,171C214.21,171 214.42,171 214.63,171C214.84,171 215.05,171 215.26,171C215.47,171 215.69,171 215.9,171C216.11,171 216.32,171 216.53,171C216.74,171 216.95,171 217.16,171C217.37,171 217.59,171 217.8,171C218.01,171 218.22,171 218.43,171C218.64,171 218.85,171 219.06,171C219.27,171 219.49,171 219.7,171C219.91,171 220.12,171 220.33,171C220.54,171 220.76,171 220.97,171C221.18,171 221.39,171 221.6,171C221.81,171 222.02,171 222.23,171C222.44,171 222.66,171 222.87,171C223.08,171 223.29,171 223.5,171C223.71,171 223.92,171 224.13,171C224.34,171 224.56,171 224.77,171C224.98,171 225.19,171 225.4,171C225.61,171 225.82,171 226.03,171C226.24,171 226.46,171 226.67,171C226.88,171 227.09,171 227.3,171C227.51,171 227.72,171 227.93,171C228.14,171 228.36,171 228.57,171C228.78,171 228.99,171 229.2,171C229.41,171 229.62,171 229.83,171C230.04,171 230.26,171 230.47,171C230.68,171 230.89,171 231.1,171C231.31,171 231.53,171 231.74,171C231.95,171 232.16,171 232.37,171C232.58,171 232.79,171 233,171C233.21,171 233.43,171 233.64,171C233.85,171 234.06,171 234.27,171C234.48,171 234.69,171 234.9,171C235.11,171 235.33,171 235.54,171C235.75,171 235.96,171 236.17,171C236.38,171 236.59,171 236.8,171C237.01,171 237.23,171 237.44,171C237.65,171 237.86,170.99 238.07,170.99C238.28,170.99 238.49,170.99 238.7,170.99C238.91,170.99 239.13,170.98 239.34,170.98C239.55,170.98 239.76,170.97 239.97,170.97C240.18,170.97 240.4,170.97 240.61,170.97C240.82,170.97 241.03,170.96 241.24,170.96C241.45,170.96 241.66,170.96 241.87,170.96C242.08,170.96 242.3,170.97 242.51,170.97C242.72,170.97 242.93,170.97 243.14,170.97C243.35,170.97 243.56,170.98 243.77,170.98C243.98,170.98 244.2,170.99 244.41,170.99C244.62,170.99 244.83,170.99 245.04,170.99C245.25,170.99 245.46,171 245.67,171C245.88,171 246.1,171 246.31,171C246.52,171 246.73,171 246.94,171C247.15,171 247.36,171 247.57,171C247.78,171 248,171 248.21,171C248.42,171 248.63,171 248.84,171C249.05,171 249.26,171 249.47,171C249.68,171 249.9,171 250.11,171C250.32,171 250.53,171 250.74,171C250.95,171 251.17,171 251.38,171C251.59,171 251.8,171 252.01,171C252.22,171 252.43,171 252.64,171C252.85,171 253.07,171 253.28,171C253.49,171 253.7,171 253.91,171C254.12,171 254.33,171 254.54,171C254.75,171 254.97,170.99 255.18,170.99C255.39,170.99 255.6,170.98 255.81,170.98C256.02,170.98 256.23,170.97 256.44,170.97C256.65,170.96 256.87,170.96 257.08,170.95C257.29,170.94 257.5,170.93 257.71,170.92C257.92,170.91 258.13,170.9 258.34,170.89C258.55,170.88 258.77,170.87 258.98,170.86C259.19,170.85 259.4,170.84 259.61,170.84C259.82,170.83 260.04,170.83 260.25,170.83C260.46,170.83 260.67,170.84 260.88,170.84C261.09,170.85 261.3,170.85 261.51,170.86C261.72,170.87 261.94,170.88 262.15,170.89C262.36,170.9 262.57,170.91 262.78,170.92C262.99,170.93 263.2,170.94 263.41,170.95C263.62,170.96 263.84,170.96 264.05,170.97C264.26,170.98 264.47,170.99 264.68,170.99C264.89,170.99 265.1,170.99 265.31,170.99C265.52,170.99 265.74,171 265.95,171C266.16,171 266.37,171 266.58,171C266.79,171 267,171 267.21,171C267.42,171 267.64,170.99 267.85,170.99C268.06,170.99 268.27,170.98 268.48,170.98C268.69,170.97 268.9,170.97 269.11,170.96C269.32,170.95 269.54,170.94 269.75,170.93C269.96,170.92 270.17,170.91 270.38,170.9C270.59,170.89 270.81,170.87 271.02,170.86C271.23,170.85 271.44,170.84 271.65,170.83C271.86,170.82 272.07,170.81 272.28,170.8C272.49,170.79 272.71,170.8 272.92,170.8C273.13,170.8 273.34,170.8 273.55,170.81C273.76,170.82 273.97,170.83 274.18,170.84C274.39,170.85 274.61,170.86 274.82,170.87C275.03,170.88 275.24,170.89 275.45,170.9C275.66,170.91 275.87,170.91 276.08,170.92C276.29,170.93 276.51,170.94 276.72,170.94C276.93,170.94 277.14,170.94 277.35,170.94C277.56,170.94 277.77,170.93 277.98,170.93C278.19,170.92 278.41,170.92 278.62,170.91C278.83,170.9 279.04,170.9 279.25,170.89C279.46,170.88 279.67,170.86 279.88,170.85C280.09,170.84 280.31,170.82 280.52,170.81C280.73,170.8 280.94,170.78 281.15,170.77C281.36,170.76 281.58,170.74 281.79,170.73C282,170.72 282.21,170.7 282.42,170.69C282.63,170.68 282.84,170.67 283.05,170.67C283.26,170.67 283.48,170.67 283.69,170.67C283.9,170.67 284.11,170.67 284.32,170.68C284.53,170.69 284.74,170.7 284.95,170.71C285.16,170.72 285.38,170.73 285.59,170.74C285.8,170.75 286.01,170.75 286.22,170.76C286.43,170.76 286.64,170.77 286.85,170.77C287.06,170.77 287.28,170.78 287.49,170.78C287.7,170.78 287.91,170.77 288.12,170.77C288.33,170.77 288.54,170.76 288.75,170.76C288.96,170.76 289.18,170.75 289.39,170.75C289.6,170.75 289.81,170.74 290.02,170.74C290.23,170.73 290.45,170.73 290.66,170.72C290.87,170.72 291.08,170.71 291.29,170.71C291.5,170.71 291.71,170.7 291.92,170.7C292.13,170.69 292.35,170.69 292.56,170.68C292.77,170.67 292.98,170.67 293.19,170.66C293.4,170.65 293.61,170.64 293.82,170.64C294.03,170.63 294.25,170.63 294.46,170.63C294.67,170.63 294.88,170.64 295.09,170.64C295.3,170.64 295.51,170.65 295.72,170.65C295.93,170.66 296.15,170.66 296.36,170.67C296.57,170.68 296.78,170.68 296.99,170.69C297.2,170.7 297.41,170.71 297.62,170.71C297.83,170.71 298.05,170.71 298.26,170.71C298.47,170.71 298.68,170.7 298.89,170.7C299.1,170.69 299.31,170.69 299.52,170.68C299.73,170.67 299.95,170.66 300.16,170.65C300.37,170.64 300.58,170.64 300.79,170.63C301,170.62 301.22,170.61 301.43,170.6C301.64,170.59 301.85,170.59 302.06,170.58C302.27,170.58 302.48,170.58 302.69,170.57C302.9,170.56 303.12,170.55 303.33,170.54C303.54,170.53 303.75,170.53 303.96,170.52C304.17,170.51 304.38,170.5 304.59,170.49C304.8,170.48 305.02,170.48 305.23,170.47C305.44,170.47 305.65,170.46 305.86,170.46C306.07,170.46 306.28,170.46 306.49,170.47C306.7,170.48 306.92,170.49 307.13,170.5C307.34,170.51 307.55,170.53 307.76,170.54C307.97,170.55 308.18,170.56 308.39,170.57C308.6,170.58 308.82,170.59 309.03,170.6C309.24,170.61 309.45,170.62 309.66,170.62C309.87,170.62 310.09,170.62 310.3,170.62C310.51,170.62 310.72,170.62 310.93,170.61C311.14,170.6 311.35,170.59 311.56,170.58C311.77,170.57 311.99,170.56 312.2,170.54C312.41,170.52 312.62,170.5 312.83,170.48C313.04,170.46 313.25,170.43 313.46,170.41C313.67,170.39 313.89,170.37 314.1,170.35C314.31,170.34 314.52,170.33 314.73,170.32C314.94,170.31 315.15,170.31 315.36,170.31C315.57,170.31 315.79,170.33 316,170.34C316.21,170.35 316.42,170.37 316.63,170.39C316.84,170.41 317.05,170.43 317.26,170.45C317.47,170.47 317.69,170.49 317.9,170.51C318.11,170.53 318.32,170.54 318.53,170.55C318.74,170.56 318.95,170.57 319.16,170.57C319.37,170.57 319.59,170.56 319.8,170.55C320.01,170.54 320.22,170.52 320.43,170.49C320.64,170.46 320.86,170.43 321.07,170.39C321.28,170.35 321.49,170.3 321.7,170.26C321.91,170.21 322.12,170.16 322.33,170.12C322.54,170.08 322.76,170.04 322.97,170C323.18,169.97 323.39,169.93 323.6,169.91C323.81,169.89 324.02,169.88 324.23,169.88C324.44,169.88 324.66,169.89 324.87,169.91C325.08,169.93 325.29,169.95 325.5,169.98C325.71,170.01 325.92,170.05 326.13,170.08C326.34,170.11 326.56,170.14 326.77,170.18C326.98,170.21 327.19,170.26 327.4,170.29C327.61,170.32 327.82,170.35 328.03,170.37C328.24,170.39 328.46,170.41 328.67,170.41C328.88,170.41 329.09,170.41 329.3,170.36C329.52,170.31 329.74,170.25 329.94,170.12C330.17,169.97 330.38,169.74 330.57,169.44C330.82,169.04 331.01,168.49 331.2,167.86C331.46,166.98 331.65,165.85 331.84,164.6C332.09,162.92 332.28,160.88 332.47,158.67C332.71,155.87 332.9,152.59 333.1,149.15C333.33,145.1 333.54,140.51 333.74,135.9C333.96,130.88 334.16,125.38 334.37,120.17C334.58,115.03 334.77,109.54 335,104.84C335.2,100.83 335.33,96.41 335.64,93.7C335.82,92.13 336.07,90 336.27,90C336.5,90 336.72,92.91 336.9,94.91C337.18,98.03 337.34,102.67 337.54,106.95C337.77,111.85 337.96,117.45 338.17,122.69C338.38,127.92 338.58,133.38 338.8,138.35C339,142.86 339.21,147.32 339.44,151.24Q339.64,154.52 340.07,160.28L340.07,171" style="vector-effect: non-scaling-stroke; stroke-width: 2px; stroke: rgb(31, 119, 180); stroke-opacity: 1; fill: rgb(31, 119, 180); fill-opacity: 0.5;"/><path class="meanline" d="M334.19,124.74513244628906V171" style="fill: none; vector-effect: non-scaling-stroke; stroke-width: 2px; stroke-dasharray: 4px, 2px; stroke: rgb(31, 119, 180); stroke-opacity: 1;"/></g><g class="trace violins" style="opacity: 1;"><path class="violin" d="M18.5,90L18.5,89.92Q20.18,89.88 21.02,89.85C21.86,89.82 22.71,89.79 23.55,89.75C24.39,89.71 25.23,89.67 26.07,89.63C26.91,89.59 27.75,89.55 28.59,89.51C29.43,89.47 30.27,89.43 31.11,89.4C31.95,89.37 32.8,89.35 33.64,89.33C34.48,89.31 35.32,89.29 36.16,89.27C37,89.25 37.84,89.23 38.68,89.19C39.52,89.15 40.36,89.11 41.2,89.05C42.04,88.98 42.89,88.9 43.73,88.8C44.57,88.7 45.41,88.58 46.25,88.46C47.09,88.34 47.93,88.2 48.77,88.09C49.61,87.98 50.46,87.87 51.3,87.8C52.14,87.74 52.98,87.7 53.82,87.7C54.66,87.7 55.5,87.75 56.34,87.83C57.18,87.91 58.02,88.03 58.86,88.16C59.7,88.29 60.55,88.45 61.39,88.6C62.23,88.75 63.07,88.91 63.91,89.05C64.75,89.19 65.59,89.31 66.43,89.42C67.27,89.52 68.11,89.61 68.95,89.68C69.79,89.75 70.64,89.8 71.48,89.84C72.32,89.88 73.16,89.91 74,89.93C74.84,89.95 75.68,89.96 76.52,89.97C77.36,89.98 78.21,89.98 79.05,89.99C79.89,89.99 80.73,90 81.57,90C82.41,90 83.25,90 84.09,90C84.93,90 85.77,90 86.61,90C87.45,90 88.3,90 89.14,90C89.98,90 90.82,89.99 91.66,89.99C92.5,89.99 93.34,89.99 94.18,89.99C95.02,89.99 95.86,89.97 96.7,89.96C97.54,89.95 98.39,89.94 99.23,89.92C100.07,89.9 100.91,89.88 101.75,89.84C102.59,89.8 103.43,89.75 104.27,89.7C105.11,89.64 105.96,89.58 106.8,89.51C107.64,89.44 108.48,89.35 109.32,89.26C110.16,89.17 111,89.08 111.84,88.99C112.68,88.9 113.52,88.8 114.36,88.72C115.2,88.64 116.05,88.56 116.89,88.49C117.73,88.43 118.57,88.38 119.41,88.33C120.25,88.28 121.09,88.24 121.93,88.2C122.77,88.16 123.61,88.12 124.45,88.07C125.29,88.02 126.14,87.96 126.98,87.89C127.82,87.82 128.66,87.74 129.5,87.65C130.34,87.56 131.18,87.46 132.02,87.36C132.86,87.26 133.71,87.14 134.55,87.03C135.39,86.92 136.23,86.82 137.07,86.71C137.91,86.61 138.75,86.5 139.59,86.4C140.43,86.3 141.27,86.2 142.11,86.11C142.95,86.02 143.8,85.94 144.64,85.88C145.48,85.82 146.32,85.77 147.16,85.75C148,85.73 148.84,85.74 149.68,85.76C150.52,85.78 151.36,85.83 152.2,85.87C153.04,85.91 153.89,85.98 154.73,86.01C155.57,86.04 156.41,86.07 157.25,86.05C158.09,86.03 158.93,85.98 159.77,85.88C160.62,85.78 161.46,85.62 162.3,85.44C163.14,85.25 163.98,85.02 164.82,84.77C165.66,84.52 166.5,84.24 167.34,83.96C168.18,83.68 169.02,83.38 169.86,83.1C170.7,82.81 171.55,82.54 172.39,82.25C173.23,81.95 174.08,81.68 174.91,81.33C175.76,80.97 176.61,80.6 177.43,80.13C178.29,79.64 179.14,79.08 179.95,78.41C180.83,77.69 181.67,76.84 182.48,75.91C183.36,74.89 184.19,73.71 185,72.48C185.88,71.14 186.7,69.66 187.52,68.15C188.39,66.55 189.22,64.84 190.05,63.13C190.9,61.37 191.73,59.52 192.57,57.72C193.41,55.92 194.24,54.08 195.09,52.31C195.92,50.58 196.75,48.85 197.61,47.22C198.43,45.67 199.27,44.15 200.14,42.73C200.96,41.4 201.79,40.13 202.66,38.95C203.47,37.84 204.32,36.81 205.18,35.85C206,34.94 206.85,34.11 207.7,33.3C208.53,32.51 209.39,31.8 210.23,31.06C211.07,30.32 211.92,29.61 212.75,28.86C213.6,28.1 214.44,27.33 215.27,26.51C216.12,25.67 216.97,24.79 217.8,23.88C218.65,22.95 219.49,21.97 220.32,20.99C221.17,19.99 222,18.95 222.84,17.95C223.68,16.95 224.5,15.93 225.36,14.99C226.19,14.08 227.02,13.17 227.89,12.39C228.71,11.66 229.54,10.95 230.41,10.42C231.22,9.93 232.07,9.52 232.93,9.28C233.75,9.05 234.61,8.98 235.45,9C236.29,9.02 237.15,9.21 237.98,9.43C238.83,9.65 239.67,9.99 240.5,10.33C241.35,10.68 242.19,11.09 243.02,11.52C243.87,11.96 244.72,12.43 245.55,12.97C246.41,13.53 247.25,14.13 248.07,14.82C248.94,15.55 249.78,16.36 250.59,17.26C251.46,18.23 252.3,19.32 253.11,20.46C253.98,21.69 254.82,23.03 255.64,24.4C256.5,25.84 257.33,27.38 258.16,28.92C259.01,30.5 259.84,32.14 260.68,33.74C261.52,35.34 262.35,36.98 263.2,38.54C264.03,40.06 264.87,41.58 265.73,43.01C266.55,44.38 267.38,45.71 268.25,46.95C269.07,48.12 269.9,49.23 270.77,50.26C271.59,51.24 272.44,52.14 273.3,53C274.12,53.83 274.97,54.58 275.82,55.33C276.65,56.07 277.5,56.76 278.34,57.48C279.18,58.2 280.02,58.91 280.86,59.63C281.7,60.35 282.55,61.09 283.39,61.81C284.23,62.53 285.06,63.28 285.91,63.97C286.74,64.65 287.58,65.32 288.43,65.92C289.26,66.5 290.09,67.05 290.95,67.52C291.78,67.97 292.63,68.35 293.48,68.68C294.31,69 295.16,69.24 296,69.47C296.84,69.7 297.68,69.85 298.52,70.04C299.36,70.23 300.21,70.38 301.05,70.59C301.89,70.8 302.74,71.03 303.57,71.31C304.42,71.59 305.26,71.92 306.09,72.29C306.94,72.66 307.77,73.09 308.61,73.53C309.46,73.97 310.3,74.46 311.14,74.92C311.98,75.38 312.81,75.87 313.66,76.29C314.49,76.71 315.33,77.11 316.18,77.44C317.01,77.76 317.85,78.05 318.7,78.25C319.53,78.45 320.38,78.58 321.23,78.65C322.07,78.72 322.91,78.7 323.75,78.66C324.59,78.62 325.43,78.51 326.27,78.43C327.11,78.35 327.96,78.23 328.8,78.19C329.64,78.15 330.48,78.11 331.32,78.2C332.16,78.29 333.01,78.46 333.84,78.73C334.7,79.01 335.54,79.41 336.36,79.86C337.22,80.34 338.06,80.94 338.89,81.54C339.74,82.15 340.57,82.85 341.41,83.5C342.25,84.15 343.08,84.83 343.93,85.44C344.76,86.03 345.59,86.6 346.45,87.09C347.28,87.56 348.12,87.98 348.98,88.32Q349.81,88.65 351.5,89.12L351.5,90" style="vector-effect: non-scaling-stroke; stroke-width: 2px; stroke: rgb(255, 127, 14); stroke-opacity: 1; fill: rgb(255, 127, 14); fill-opacity: 0.5;"/><path class="meanline" d="M239.47,9.91879653930664V90" style="fill: none; vector-effect: non-scaling-stroke; stroke-width: 2px; stroke-dasharray: 4px, 2px; stroke: rgb(255, 127, 14); stroke-opacity: 1;"/></g></g></g><g class="overplot"/><path class="xlines-above crisp" d="M0,0" style="fill: none;"/><path class="ylines-above crisp" d="M0,0" style="fill: none;"/><g class="overlines-above"/><g class="xaxislayer-above"><g class="xtick"><text text-anchor="middle" x="0" y="213" transform="translate(93.74000000000001,0)" style="font-family: 'Open Sans', verdana, arial, sans-serif; font-size: 12px; fill: rgb(68, 68, 68); fill-opacity: 1; white-space: pre;">0</text></g><g class="xtick"><text text-anchor="middle" x="0" y="213" transform="translate(245,0)" style="font-family: 'Open Sans', verdana, arial, sans-serif; font-size: 12px; fill: rgb(68, 68, 68); fill-opacity: 1; white-space: pre;">0.5</text></g><g class="xtick"><text text-anchor="middle" x="0" y="213" transform="translate(396.26,0)" style="font-family: 'Open Sans', verdana, arial, sans-serif; font-size: 12px; fill: rgb(68, 68, 68); fill-opacity: 1; white-space: pre;">1</text></g></g><g class="yaxislayer-above"><g class="ytick"><text text-anchor="end" x="59" y="4.199999999999999" transform="translate(0,191)" style="font-family: 'Open Sans', verdana, arial, sans-serif; font-size: 12px; fill: rgb(68, 68, 68); fill-opacity: 1; white-space: pre;">CIR_19</text></g><g class="ytick"><text text-anchor="end" x="59" y="4.199999999999999" transform="translate(0,110)" style="font-family: 'Open Sans', verdana, arial, sans-serif; font-size: 12px; fill: rgb(68, 68, 68); fill-opacity: 1; white-space: pre;">My_20</text></g></g><g class="overaxes-above"/></g></g><g class="polarlayer"/><g class="ternarylayer"/><g class="geolayer"/><g class="funnelarealayer"/><g class="pielayer"/><g class="treemaplayer"/><g class="sunburstlayer"/><g class="glimages"/><defs id="topdefs-85a725"><g class="clips"/></defs><g class="layer-above"><g class="imagelayer"/><g class="shapelayer"/></g><g class="infolayer"><g class="g-gtitle"/><g class="g-xtitle" transform="translate(0,-5)"><text class="xtitle" x="245" y="252" text-anchor="middle" style="font-family: 'Open Sans', verdana, arial, sans-serif; font-size: 14px; fill: rgb(68, 68, 68); opacity: 1; font-weight: normal; white-space: pre;">Fracción de Metanol Intercambiado</text></g><g class="g-ytitle"/></g></svg>