<svg class="main-svg" xmlns="http://www.w3.org/2000/svg" xmlns:xlink="http://www.w3.org/1999/xlink" width="185" height="250" style="" viewBox="0 0 185 250"><rect x="0" y="0" width="185" height="250" style="fill: rgb(255, 255, 255); fill-opacity: 1;"/><defs id="defs-41dc6e"><g class="clips"><clipPath id="clip41dc6exyplot" class="plotclip"><rect width="105" height="180"/></clipPath><clipPath class="axesclip" id="clip41dc6ex"><rect x="60" y="0" width="105" height="250"/></clipPath><clipPath class="axesclip" id="clip41dc6ey"><rect x="0" y="20" width="185" height="180"/></clipPath><clipPath class="axesclip" id="clip41dc6exy"><rect x="60" y="20" width="105" height="180"/></clipPath></g><g class="gradients"/></defs><g class="bglayer"/><g class="layer-below"><g class="imagelayer"/><g class="shapelayer"/></g><g class="cartesianlayer"><g class="subplot xy"><g class="layer-subplot"><g class="shapelayer"/><g class="imagelayer"/></g><g class="gridlayer"><g class="x"/><g class="y"><path class="ygrid crisp" transform="translate(0,191)" d="M60,0h105" style="stroke: rgb(238, 238, 238); stroke-opacity: 1; stroke-width: 1px;"/><path class="ygrid crisp" transform="translate(0,110)" d="M60,0h105" style="stroke: rgb(238, 238, 238); stroke-opacity: 1; stroke-width: 1px;"/></g></g><g class="zerolinelayer"/><path class="xlines-below"/><path class="ylines-below"/><g class="overlines-below"/><g class="xaxislayer-below"/><g class="yaxislayer-below"/><g class="overaxes-below"/><g class="plot" transform="translate(60,20)" clip-path="url('#clip41dc6exyplot')"><g class="violinlayer mlayer"><g class="trace violins" style="opacity: 1;"><path class="violin" d="M40.23,171L40.23,170.99Q40.35,170.98 40.41,170.98C40.47,170.98 40.53,170.97 40.59,170.97C40.65,170.97 40.71,170.96 40.77,170.96C40.83,170.95 40.89,170.95 40.95,170.94C41.01,170.94 41.07,170.93 41.13,170.93C41.19,170.93 41.25,170.93 41.31,170.93C41.37,170.93 41.43,170.93 41.49,170.93C41.55,170.93 41.61,170.94 41.67,170.94C41.73,170.95 41.79,170.95 41.85,170.96C41.91,170.96 41.97,170.97 42.03,170.97C42.09,170.97 42.15,170.98 42.21,170.98C42.27,170.98 42.33,170.99 42.39,170.99C42.45,170.99 42.51,171 42.57,171C42.63,171 42.69,171 42.75,171C42.81,171 42.87,171 42.93,171C42.99,171 43.05,171 43.11,171C43.17,171 43.23,171 43.29,171C43.35,171 43.41,171 43.47,171C43.53,171 43.59,171 43.65,171C43.71,171 43.77,171 43.83,171C43.89,171 43.95,171 44.01,171C44.07,171 44.13,171 44.19,171C44.25,171 44.31,171 44.37,171C44.43,171 44.49,171 44.55,171C44.61,171 44.67,171 44.73,171C44.79,171 44.85,171 44.91,171C44.97,171 45.03,171 45.09,171C45.15,171 45.21,171 45.27,171C45.33,171 45.39,171 45.45,171C45.51,171 45.57,171 45.63,171C45.69,171 45.75,171 45.81,171C45.87,171 45.93,171 45.99,171C46.05,171 46.11,171 46.17,171C46.23,171 46.29,171 46.35,171C46.41,171 46.47,171 46.53,171C46.59,171 46.64,171 46.7,171C46.76,171 46.82,171 46.88,171C46.94,171 47,171 47.06,171C47.12,171 47.18,171 47.24,171C47.3,171 47.36,171 47.42,171C47.48,171 47.54,171 47.6,171C47.66,171 47.72,171 47.78,171C47.84,171 47.9,171 47.96,171C48.02,171 48.08,171 48.14,171C48.2,171 48.26,171 48.32,171C48.38,171 48.44,171 48.5,171C48.56,171 48.62,171 48.68,171C48.74,171 48.8,171 48.86,171C48.92,171 48.98,171 49.04,171C49.1,171 49.16,171 49.22,171C49.28,171 49.34,171 49.4,171C49.46,171 49.52,171 49.58,171C49.64,171 49.7,171 49.76,171C49.82,171 49.88,171 49.94,171C50,171 50.06,171 50.12,171C50.18,171 50.24,171 50.3,171C50.36,171 50.42,171 50.48,171C50.54,171 50.6,171 50.66,171C50.72,171 50.78,171 50.84,171C50.9,171 50.96,171 51.02,171C51.08,171 51.14,171 51.2,171C51.26,171 51.32,171 51.38,171C51.44,171 51.5,171 51.56,171C51.62,171 51.68,171 51.74,171C51.8,171 51.86,171 51.92,171C51.98,171 52.04,171 52.1,171C52.16,171 52.22,171 52.28,171C52.34,171 52.4,171 52.46,171C52.52,171 52.58,171 52.64,171C52.7,171 52.76,171 52.82,171C52.88,171 52.94,171 53,171C53.06,171 53.12,171 53.18,171C53.24,171 53.3,171 53.36,171C53.42,171 53.48,171 53.54,171C53.6,171 53.66,171 53.72,171C53.78,171 53.84,171 53.9,171C53.96,171 54.02,171 54.08,171C54.14,171 54.2,171 54.26,171C54.32,171 54.38,171 54.44,171C54.5,171 54.56,171 54.62,171C54.68,171 54.74,171 54.8,171C54.86,171 54.92,171 54.98,171C55.04,171 55.1,171 55.16,171C55.22,171 55.27,171 55.33,171C55.39,171 55.45,171 55.51,171C55.57,171 55.63,171 55.69,171C55.75,171 55.81,171 55.87,171C55.93,171 55.99,171 56.05,171C56.11,171 56.17,171 56.23,171C56.29,171 56.35,171 56.41,171C56.47,171 56.53,171 56.59,171C56.65,171 56.71,171 56.77,171C56.83,171 56.89,171 56.95,171C57.01,171 57.07,171 57.13,171C57.19,171 57.25,171 57.31,171C57.37,171 57.43,171 57.49,171C57.55,171 57.61,171 57.67,171C57.73,171 57.79,171 57.85,171C57.91,171 57.97,171 58.03,171C58.09,171 58.15,171 58.21,171C58.27,171 58.33,171 58.39,171C58.45,171 58.51,171 58.57,171C58.63,171 58.69,171 58.75,171C58.81,171 58.87,171 58.93,171C58.99,171 59.05,171 59.11,171C59.17,171 59.23,171 59.29,171C59.35,171 59.41,171 59.47,171C59.53,171 59.59,171 59.65,171C59.71,171 59.77,171 59.83,171C59.89,171 59.95,171 60.01,171C60.07,171 60.13,171 60.19,171C60.25,171 60.31,171 60.37,171C60.43,171 60.49,171 60.55,171C60.61,171 60.67,171 60.73,171C60.79,171 60.85,171 60.91,171C60.97,171 61.03,171 61.09,171C61.15,171 61.21,171 61.27,171C61.33,171 61.39,171 61.45,171C61.51,171 61.57,171 61.63,171C61.69,171 61.75,171 61.81,171C61.87,171 61.93,171 61.99,171C62.05,171 62.11,171 62.17,171C62.23,171 62.29,171 62.35,171C62.41,171 62.47,171 62.53,171C62.59,171 62.65,171 62.71,171C62.77,171 62.83,171 62.89,171C62.95,171 63.01,171 63.07,171C63.13,171 63.19,171 63.25,171C63.31,171 63.37,171 63.43,171C63.49,171 63.55,171 63.61,171C63.67,171 63.73,171 63.79,171C63.85,171 63.9,171 63.96,171C64.02,171 64.08,171 64.14,171C64.2,171 64.26,171 64.32,171C64.38,171 64.44,171 64.5,171C64.56,171 64.62,171 64.68,171C64.74,171 64.8,171 64.86,171C64.92,171 64.98,171 65.04,171C65.1,171 65.16,171 65.22,171C65.28,171 65.34,171 65.4,171C65.46,171 65.52,171 65.58,171C65.64,171 65.7,171 65.76,171C65.82,171 65.88,171 65.94,171C66,171 66.06,171 66.12,171C66.18,171 66.24,171 66.3,171C66.36,171 66.42,171 66.48,171C66.54,171 66.6,171 66.66,171C66.72,171 66.78,171 66.84,171C66.9,171 66.96,171 67.02,171C67.08,171 67.14,171 67.2,171C67.26,171 67.32,171 67.38,171C67.44,171 67.5,170.99 67.56,170.99C67.62,170.99 67.68,170.99 67.74,170.99C67.8,170.99 67.86,170.98 67.92,170.98C67.98,170.98 68.04,170.97 68.1,170.97C68.16,170.97 68.22,170.97 68.28,170.97C68.34,170.97 68.4,170.96 68.46,170.96C68.52,170.96 68.58,170.96 68.64,170.96C68.7,170.96 68.76,170.97 68.82,170.97C68.88,170.97 68.94,170.97 69,170.97C69.06,170.97 69.12,170.98 69.18,170.98C69.24,170.98 69.3,170.99 69.36,170.99C69.42,170.99 69.48,170.99 69.54,170.99C69.6,170.99 69.66,171 69.72,171C69.78,171 69.84,171 69.9,171C69.96,171 70.02,171 70.08,171C70.14,171 70.2,171 70.26,171C70.32,171 70.38,171 70.44,171C70.5,171 70.56,171 70.62,171C70.68,171 70.74,171 70.8,171C70.86,171 70.92,171 70.98,171C71.04,171 71.1,171 71.16,171C71.22,171 71.28,171 71.34,171C71.4,171 71.46,171 71.52,171C71.58,171 71.64,171 71.7,171C71.76,171 71.82,171 71.88,171C71.94,171 72,171 72.06,171C72.12,171 72.18,171 72.24,171C72.3,171 72.35,170.99 72.41,170.99C72.47,170.99 72.53,170.98 72.59,170.98C72.65,170.98 72.71,170.97 72.77,170.97C72.83,170.96 72.89,170.96 72.95,170.95C73.01,170.94 73.07,170.93 73.13,170.92C73.19,170.91 73.25,170.9 73.31,170.89C73.37,170.88 73.43,170.87 73.49,170.86C73.55,170.85 73.61,170.85 73.67,170.84C73.73,170.84 73.79,170.83 73.85,170.83C73.91,170.83 73.97,170.84 74.03,170.84C74.09,170.85 74.15,170.85 74.21,170.86C74.27,170.87 74.33,170.88 74.39,170.89C74.45,170.9 74.51,170.91 74.57,170.92C74.63,170.93 74.69,170.94 74.75,170.95C74.81,170.96 74.87,170.96 74.93,170.97C74.99,170.98 75.05,170.99 75.11,170.99C75.17,170.99 75.23,170.99 75.29,170.99C75.35,170.99 75.41,171 75.47,171C75.53,171 75.59,171 75.65,171C75.71,171 75.77,171 75.83,171C75.89,171 75.95,170.99 76.01,170.99C76.07,170.99 76.13,170.98 76.19,170.98C76.25,170.97 76.31,170.97 76.37,170.96C76.43,170.95 76.49,170.94 76.55,170.93C76.61,170.92 76.67,170.91 76.73,170.9C76.79,170.89 76.85,170.87 76.91,170.86C76.97,170.85 77.03,170.84 77.09,170.83C77.15,170.82 77.21,170.8 77.27,170.8C77.33,170.8 77.39,170.8 77.45,170.8C77.51,170.8 77.57,170.8 77.63,170.81C77.69,170.82 77.75,170.83 77.81,170.84C77.87,170.85 77.93,170.86 77.99,170.87C78.05,170.88 78.11,170.89 78.17,170.9C78.23,170.91 78.29,170.91 78.35,170.92C78.41,170.93 78.47,170.94 78.53,170.94C78.59,170.94 78.65,170.94 78.71,170.94C78.77,170.94 78.83,170.93 78.89,170.93C78.95,170.92 79.01,170.92 79.07,170.91C79.13,170.9 79.19,170.9 79.25,170.89C79.31,170.88 79.37,170.86 79.43,170.85C79.49,170.84 79.55,170.82 79.61,170.81C79.67,170.8 79.73,170.78 79.79,170.77C79.85,170.76 79.91,170.74 79.97,170.73C80.03,170.72 80.09,170.7 80.15,170.69C80.21,170.68 80.27,170.67 80.33,170.67C80.39,170.67 80.45,170.67 80.51,170.67C80.57,170.67 80.63,170.67 80.69,170.68C80.75,170.69 80.81,170.7 80.87,170.71C80.93,170.72 80.98,170.73 81.04,170.74C81.1,170.75 81.16,170.75 81.22,170.76C81.28,170.76 81.34,170.77 81.4,170.77C81.46,170.77 81.52,170.78 81.58,170.78C81.64,170.78 81.7,170.77 81.76,170.77C81.82,170.77 81.88,170.76 81.94,170.76C82,170.76 82.06,170.75 82.12,170.75C82.18,170.75 82.24,170.74 82.3,170.74C82.36,170.73 82.42,170.73 82.48,170.72C82.54,170.72 82.6,170.71 82.66,170.71C82.72,170.71 82.78,170.7 82.84,170.7C82.9,170.69 82.96,170.69 83.02,170.68C83.08,170.67 83.14,170.67 83.2,170.66C83.26,170.65 83.32,170.65 83.38,170.64C83.44,170.64 83.5,170.63 83.56,170.63C83.62,170.63 83.68,170.64 83.74,170.64C83.8,170.64 83.86,170.65 83.92,170.65C83.98,170.66 84.04,170.66 84.1,170.67C84.16,170.68 84.22,170.68 84.28,170.69C84.34,170.7 84.4,170.71 84.46,170.71C84.52,170.71 84.58,170.71 84.64,170.71C84.7,170.71 84.76,170.7 84.82,170.7C84.88,170.69 84.94,170.69 85,170.68C85.06,170.67 85.12,170.66 85.18,170.65C85.24,170.64 85.3,170.64 85.36,170.63C85.42,170.62 85.48,170.61 85.54,170.6C85.6,170.59 85.66,170.59 85.72,170.58C85.78,170.58 85.84,170.58 85.9,170.57C85.96,170.56 86.02,170.55 86.08,170.54C86.14,170.53 86.2,170.53 86.26,170.52C86.32,170.51 86.38,170.5 86.44,170.49C86.5,170.48 86.56,170.48 86.62,170.47C86.68,170.47 86.74,170.46 86.8,170.46C86.86,170.46 86.92,170.46 86.98,170.47C87.04,170.48 87.1,170.49 87.16,170.5C87.22,170.51 87.28,170.53 87.34,170.54C87.4,170.55 87.46,170.56 87.52,170.57C87.58,170.58 87.64,170.59 87.7,170.6C87.76,170.61 87.82,170.62 87.88,170.62C87.94,170.62 88,170.62 88.06,170.62C88.12,170.62 88.18,170.62 88.24,170.61C88.3,170.6 88.36,170.59 88.42,170.58C88.48,170.57 88.54,170.56 88.6,170.54C88.66,170.52 88.72,170.5 88.78,170.48C88.84,170.46 88.9,170.43 88.96,170.41C89.02,170.39 89.08,170.37 89.14,170.35C89.2,170.34 89.26,170.33 89.32,170.32C89.38,170.31 89.44,170.31 89.5,170.31C89.56,170.31 89.61,170.33 89.67,170.34C89.73,170.35 89.79,170.37 89.85,170.39C89.91,170.41 89.97,170.43 90.03,170.45C90.09,170.47 90.15,170.49 90.21,170.51C90.27,170.53 90.33,170.54 90.39,170.55C90.45,170.56 90.51,170.57 90.57,170.57C90.63,170.57 90.69,170.56 90.75,170.55C90.81,170.54 90.87,170.52 90.93,170.49C90.99,170.46 91.05,170.43 91.11,170.39C91.17,170.35 91.23,170.3 91.29,170.26C91.35,170.21 91.41,170.16 91.47,170.12C91.53,170.08 91.59,170.04 91.65,170C91.71,169.97 91.77,169.93 91.83,169.91C91.89,169.89 91.95,169.88 92.01,169.88C92.07,169.88 92.13,169.89 92.19,169.91C92.25,169.93 92.31,169.95 92.37,169.98C92.43,170.01 92.49,170.05 92.55,170.08C92.61,170.11 92.67,170.15 92.73,170.18C92.79,170.22 92.85,170.26 92.91,170.29C92.97,170.32 93.03,170.35 93.09,170.37C93.15,170.39 93.21,170.41 93.27,170.41C93.33,170.41 93.4,170.4 93.45,170.36C93.52,170.31 93.58,170.23 93.63,170.12C93.71,169.96 93.76,169.72 93.81,169.44C93.89,169.02 93.94,168.48 93.99,167.86C94.07,166.97 94.12,165.85 94.17,164.6C94.24,162.92 94.3,160.88 94.35,158.67C94.42,155.87 94.47,152.59 94.53,149.15C94.6,145.1 94.65,140.51 94.71,135.9C94.77,130.88 94.83,125.38 94.89,120.17C94.95,115.03 95,109.54 95.07,104.84C95.13,100.83 95.16,96.41 95.25,93.7C95.3,92.13 95.37,90 95.43,90C95.49,90 95.56,92.91 95.61,94.91C95.69,98.04 95.73,102.67 95.79,106.95C95.85,111.85 95.91,117.45 95.97,122.69C96.03,127.92 96.09,133.38 96.15,138.35C96.21,142.86 96.26,147.32 96.33,151.24Q96.39,154.52 96.51,160.28L96.51,171" style="vector-effect: non-scaling-stroke; stroke-width: 2px; stroke: rgb(31, 119, 180); stroke-opacity: 1; fill: rgb(31, 119, 180); fill-opacity: 0.5;"/><path class="meanline" d="M94.84,124.59367370605469V171" style="fill: none; vector-effect: non-scaling-stroke; stroke-width: 2px; stroke-dasharray: 4px, 2px; stroke: rgb(31, 119, 180); stroke-opacity: 1;"/></g><g class="trace violins" style="opacity: 1;"><path class="violin" d="M5.25,90L5.25,89.92Q5.73,89.88 5.97,89.85C6.21,89.82 6.44,89.79 6.68,89.75C6.92,89.71 7.16,89.67 7.4,89.63C7.64,89.59 7.87,89.55 8.11,89.51C8.35,89.47 8.59,89.43 8.83,89.4C9.07,89.37 9.31,89.35 9.55,89.33C9.79,89.31 10.02,89.29 10.26,89.27C10.5,89.25 10.74,89.23 10.98,89.19C11.22,89.15 11.45,89.11 11.69,89.05C11.93,88.98 12.17,88.9 12.41,88.8C12.65,88.7 12.89,88.58 13.13,88.46C13.37,88.34 13.6,88.2 13.84,88.09C14.08,87.98 14.32,87.87 14.56,87.8C14.79,87.74 15.03,87.7 15.27,87.7C15.51,87.7 15.76,87.76 15.99,87.83C16.23,87.91 16.47,88.03 16.7,88.16C16.94,88.29 17.18,88.45 17.42,88.6C17.66,88.75 17.9,88.91 18.14,89.05C18.37,89.18 18.61,89.31 18.85,89.42C19.09,89.52 19.33,89.61 19.57,89.68C19.81,89.75 20.04,89.8 20.28,89.84C20.52,89.88 20.76,89.91 21,89.93C21.24,89.95 21.48,89.96 21.72,89.97C21.96,89.98 22.19,89.99 22.43,89.99C22.67,90 22.91,90 23.15,90C23.39,90 23.62,90 23.86,90C24.1,90 24.34,90 24.58,90C24.82,90 25.06,90 25.3,90C25.54,90 25.77,89.99 26.01,89.99C26.25,89.99 26.49,90 26.73,89.99C26.97,89.98 27.2,89.97 27.44,89.96C27.68,89.95 27.92,89.94 28.16,89.92C28.4,89.9 28.64,89.88 28.88,89.84C29.12,89.8 29.35,89.75 29.59,89.7C29.83,89.64 30.07,89.58 30.31,89.51C30.55,89.44 30.78,89.35 31.02,89.26C31.26,89.17 31.5,89.08 31.74,88.99C31.98,88.9 32.21,88.8 32.45,88.72C32.69,88.64 32.93,88.56 33.17,88.49C33.41,88.43 33.65,88.38 33.89,88.33C34.13,88.28 34.36,88.24 34.6,88.2C34.84,88.16 35.08,88.12 35.32,88.07C35.56,88.02 35.79,87.96 36.03,87.89C36.27,87.82 36.51,87.74 36.75,87.65C36.99,87.56 37.23,87.46 37.47,87.36C37.71,87.26 37.94,87.14 38.18,87.03C38.42,86.92 38.66,86.82 38.9,86.71C39.14,86.61 39.37,86.5 39.61,86.4C39.85,86.3 40.09,86.2 40.33,86.11C40.57,86.02 40.81,85.94 41.05,85.88C41.29,85.82 41.52,85.77 41.76,85.75C42,85.73 42.24,85.74 42.48,85.76C42.72,85.78 42.95,85.83 43.19,85.87C43.43,85.91 43.67,85.98 43.91,86.01C44.15,86.04 44.39,86.07 44.63,86.05C44.87,86.03 45.11,85.98 45.34,85.88C45.59,85.78 45.83,85.62 46.06,85.44C46.31,85.25 46.54,85.01 46.77,84.77C47.01,84.52 47.25,84.24 47.49,83.96C47.73,83.68 47.96,83.39 48.2,83.1C48.44,82.82 48.68,82.54 48.92,82.25C49.16,81.95 49.41,81.67 49.64,81.33C49.89,80.96 50.13,80.57 50.35,80.13C50.61,79.62 50.85,79.04 51.07,78.41C51.33,77.66 51.56,76.81 51.78,75.91C52.04,74.86 52.27,73.69 52.5,72.48C52.76,71.12 52.99,69.65 53.22,68.15C53.47,66.54 53.7,64.84 53.93,63.13C54.17,61.36 54.41,59.52 54.65,57.72C54.89,55.92 55.12,54.09 55.36,52.31C55.59,50.59 55.83,48.86 56.08,47.22C56.31,45.68 56.55,44.16 56.8,42.73C57.03,41.41 57.26,40.15 57.51,38.95C57.74,37.86 57.98,36.83 58.23,35.85C58.46,34.96 58.69,34.12 58.94,33.3C59.17,32.53 59.42,31.8 59.66,31.06C59.9,30.32 60.15,29.61 60.38,28.86C60.62,28.09 60.86,27.32 61.09,26.51C61.33,25.66 61.58,24.78 61.81,23.88C62.05,22.94 62.28,21.97 62.52,20.99C62.76,19.99 63,18.96 63.24,17.95C63.48,16.96 63.7,15.94 63.95,14.99C64.18,14.09 64.41,13.19 64.67,12.39C64.9,11.68 65.12,10.98 65.39,10.42C65.61,9.98 65.82,9.51 66.1,9.28C66.31,9.1 66.59,8.98 66.82,9C67.06,9.02 67.31,9.24 67.53,9.43C67.79,9.66 68.02,10 68.25,10.33C68.5,10.69 68.74,11.1 68.97,11.52C69.22,11.97 69.45,12.45 69.68,12.97C69.93,13.54 70.17,14.16 70.4,14.82C70.66,15.57 70.89,16.39 71.11,17.26C71.37,18.25 71.6,19.34 71.83,20.46C72.08,21.7 72.32,23.04 72.55,24.4C72.8,25.85 73.03,27.39 73.26,28.92C73.5,30.5 73.74,32.13 73.98,33.74C74.22,35.34 74.45,36.97 74.69,38.54C74.92,40.06 75.16,41.57 75.41,43.01C75.64,44.37 75.88,45.7 76.13,46.95C76.36,48.1 76.59,49.21 76.84,50.26C77.07,51.22 77.31,52.13 77.56,53C77.79,53.81 78.03,54.57 78.27,55.33C78.5,56.06 78.75,56.76 78.99,57.48C79.23,58.2 79.46,58.91 79.7,59.63C79.94,60.35 80.18,61.09 80.42,61.81C80.66,62.53 80.9,63.27 81.14,63.97C81.37,64.64 81.6,65.31 81.85,65.92C82.08,66.48 82.31,67.04 82.57,67.52C82.79,67.95 83.03,68.34 83.28,68.68C83.51,68.98 83.75,69.24 84,69.47C84.23,69.69 84.48,69.85 84.72,70.04C84.96,70.23 85.2,70.39 85.43,70.59C85.68,70.81 85.92,71.04 86.15,71.31C86.4,71.6 86.63,71.94 86.86,72.29C87.11,72.67 87.35,73.1 87.58,73.53C87.83,73.98 88.06,74.46 88.3,74.92C88.54,75.38 88.76,75.86 89.01,76.29C89.24,76.7 89.48,77.1 89.73,77.44C89.96,77.74 90.18,78.04 90.44,78.25C90.66,78.43 90.91,78.58 91.16,78.65C91.39,78.71 91.64,78.7 91.88,78.66C92.12,78.62 92.35,78.51 92.59,78.43C92.83,78.35 93.07,78.23 93.31,78.19C93.54,78.15 93.79,78.12 94.02,78.2C94.27,78.29 94.52,78.49 94.74,78.73C95.01,79.02 95.23,79.44 95.45,79.86C95.71,80.36 95.94,80.96 96.17,81.54C96.42,82.17 96.65,82.85 96.89,83.5C97.13,84.15 97.35,84.82 97.6,85.44C97.83,86.02 98.07,86.59 98.32,87.09C98.55,87.54 98.77,87.97 99.03,88.32Q99.25,88.63 99.75,89.12L99.75,90" style="vector-effect: non-scaling-stroke; stroke-width: 2px; stroke: rgb(255, 127, 14); stroke-opacity: 1; fill: rgb(255, 127, 14); fill-opacity: 0.5;"/><path class="meanline" d="M67.96,9.921313285827637V90" style="fill: none; vector-effect: non-scaling-stroke; stroke-width: 2px; stroke-dasharray: 4px, 2px; stroke: rgb(255, 127, 14); stroke-opacity: 1;"/></g></g></g><g class="overplot"/><path class="xlines-above crisp" d="M0,0" style="fill: none;"/><path class="ylines-above crisp" d="M0,0" style="fill: none;"/><g class="overlines-above"/><g class="xaxislayer-above"><g class="xtick"><text text-anchor="middle" x="0" y="213" transform="translate(69.58,0)" style="font-family: Calibri; font-size: 12px; fill: rgb(68, 68, 68); fill-opacity: 1; white-space: pre;">0</text></g><g class="xtick"><text text-anchor="middle" x="0" y="213" transform="translate(112.5,0)" style="font-family: Calibri; font-size: 12px; fill: rgb(68, 68, 68); fill-opacity: 1; white-space: pre;">0.5</text></g><g class="xtick"><text text-anchor="middle" x="0" y="213" transform="translate(155.42000000000002,0)" style="font-family: Calibri; font-size: 12px; fill: rgb(68, 68, 68); fill-opacity: 1; white-space: pre;">1</text></g></g><g class="yaxislayer-above"><g class="ytick"><text text-anchor="end" x="59" y="4.199999999999999" transform="translate(0,191)" style="font-family: Calibri; font-size: 12px; fill: rgb(68, 68, 68); fill-opacity: 1; white-space: pre;">CIR_19</text></g><g class="ytick"><text text-anchor="end" x="59" y="4.199999999999999" transform="translate(0,110)" style="font-family: Calibri; font-size: 12px; fill: rgb(68, 68, 68); fill-opacity: 1; white-space: pre;">My_20</text></g></g><g class="overaxes-above"/></g></g><g class="polarlayer"/><g class="ternarylayer"/><g class="geolayer"/><g class="funnelarealayer"/><g class="pielayer"/><g class="treemaplayer"/><g class="sunburstlayer"/><g class="glimages"/><defs id="topdefs-41dc6e"><g class="clips"/></defs><g class="layer-above"><g class="imagelayer"/><g class="shapelayer"/></g><g class="infolayer"><g class="g-gtitle"/><g class="g-xtitle" transform="translate(0,-2)"><text class="xtitle" x="112.5" y="249" text-anchor="middle" style="font-family: Calibri; font-size: 13px; fill: rgb(68, 68, 68); opacity: 1; font-weight: normal; white-space: pre;">Metanol Secretado</text></g><g class="g-ytitle"/></g></svg>