<svg class="main-svg" xmlns="http://www.w3.org/2000/svg" xmlns:xlink="http://www.w3.org/1999/xlink" width="185" height="250" style="" viewBox="0 0 185 250"><rect x="0" y="0" width="185" height="250" style="fill: rgb(255, 255, 255); fill-opacity: 1;"/><defs id="defs-c4318d"><g class="clips"><clipPath id="clipc4318dxyplot" class="plotclip"><rect width="135" height="180"/></clipPath><clipPath class="axesclip" id="clipc4318dx"><rect x="30" y="0" width="135" height="250"/></clipPath><clipPath class="axesclip" id="clipc4318dy"><rect x="0" y="20" width="185" height="180"/></clipPath><clipPath class="axesclip" id="clipc4318dxy"><rect x="30" y="20" width="135" height="180"/></clipPath></g><g class="gradients"/></defs><g class="bglayer"/><g class="layer-below"><g class="imagelayer"/><g class="shapelayer"/></g><g class="cartesianlayer"><g class="subplot xy"><g class="layer-subplot"><g class="shapelayer"/><g class="imagelayer"/></g><g class="gridlayer"><g class="x"/><g class="y"><path class="ygrid crisp" transform="translate(0,191)" d="M30,0h135" style="stroke: rgb(238, 238, 238); stroke-opacity: 1; stroke-width: 1px;"/><path class="ygrid crisp" transform="translate(0,110)" d="M30,0h135" style="stroke: rgb(238, 238, 238); stroke-opacity: 1; stroke-width: 1px;"/></g></g><g class="zerolinelayer"/><path class="xlines-below"/><path class="ylines-below"/><g class="overlines-below"/><g class="xaxislayer-below"/><g class="yaxislayer-below"/><g class="overaxes-below"/><g class="plot" transform="translate(30,20)" clip-path="url('#clipc4318dxyplot')"><g class="violinlayer mlayer"><g class="trace violins" style="opacity: 1;"><path class="violin" d="M6.75,171L6.75,170.97Q7.52,170.95 7.91,170.92C8.29,170.89 8.68,170.85 9.06,170.77C9.45,170.68 9.85,170.6 10.22,170.41C10.62,170.21 11.03,169.94 11.38,169.56C11.81,169.1 12.19,168.47 12.54,167.75C12.99,166.81 13.34,165.62 13.69,164.31C14.14,162.62 14.5,160.6 14.85,158.42C15.29,155.74 15.65,152.64 16.01,149.41C16.43,145.66 16.79,141.46 17.16,137.22C17.56,132.62 17.93,127.62 18.32,122.8C18.71,117.96 19.07,112.85 19.48,108.25C19.85,104.1 20.18,99.76 20.64,96.42C20.98,93.95 21.06,90.4 21.79,90C22.11,89.82 22.63,90.08 22.95,90.48C23.71,91.44 23.76,94.88 24.11,97.53C24.56,100.92 24.89,105.16 25.26,109.18C25.66,113.5 26.03,118.21 26.42,122.63C26.8,126.92 27.17,131.32 27.58,135.33C27.95,138.94 28.32,142.49 28.74,145.63C29.1,148.29 29.45,150.82 29.89,152.98C30.24,154.71 30.6,156.32 31.05,157.62C31.4,158.62 31.76,159.53 32.21,160.2C32.56,160.72 32.94,161.14 33.36,161.43C33.72,161.68 34.13,161.8 34.52,161.91C34.9,162.01 35.29,162.02 35.68,162.07C36.07,162.11 36.45,162.14 36.84,162.18C37.22,162.22 37.61,162.26 37.99,162.29C38.38,162.32 38.76,162.36 39.15,162.35C39.54,162.34 39.93,162.31 40.31,162.21C40.7,162.11 41.09,161.97 41.46,161.75C41.86,161.51 42.26,161.19 42.62,160.81C43.04,160.38 43.42,159.84 43.78,159.26C44.2,158.6 44.57,157.83 44.94,157.02C45.35,156.11 45.72,155.09 46.09,154.05C46.49,152.92 46.87,151.7 47.25,150.49C47.64,149.25 48.02,147.93 48.41,146.69C48.79,145.48 49.15,144.24 49.56,143.14C49.93,142.15 50.28,141.14 50.72,140.37C51.07,139.75 51.43,139.08 51.88,138.8C52.23,138.58 52.68,138.49 53.04,138.6C53.46,138.72 53.84,139.22 54.19,139.66C54.62,140.21 54.98,140.97 55.35,141.71C55.76,142.53 56.13,143.46 56.51,144.38C56.9,145.34 57.28,146.36 57.66,147.35C58.05,148.34 58.43,149.35 58.82,150.33C59.2,151.29 59.59,152.24 59.98,153.16C60.36,154.05 60.75,154.92 61.14,155.76C61.52,156.57 61.9,157.36 62.29,158.12C62.67,158.86 63.06,159.57 63.45,160.27C63.83,160.94 64.22,161.59 64.61,162.22C64.99,162.83 65.37,163.42 65.76,163.98C66.14,164.52 66.52,165.06 66.92,165.55C67.3,166.02 67.68,166.47 68.08,166.88C68.46,167.27 68.84,167.64 69.24,167.97C69.61,168.28 70,168.57 70.39,168.81C70.77,169.04 71.16,169.24 71.55,169.41C71.93,169.58 72.32,169.71 72.71,169.83C73.09,169.95 73.47,170.04 73.86,170.12C74.24,170.2 74.63,170.27 75.02,170.33C75.41,170.39 75.79,170.45 76.18,170.5C76.57,170.55 76.95,170.59 77.34,170.63C77.72,170.67 78.11,170.71 78.49,170.74C78.88,170.77 79.26,170.8 79.65,170.82C80.04,170.84 80.42,170.86 80.81,170.87C81.19,170.88 81.58,170.89 81.96,170.9C82.35,170.91 82.73,170.91 83.12,170.92C83.51,170.92 83.89,170.93 84.28,170.93C84.67,170.94 85.05,170.94 85.44,170.95C85.82,170.95 86.21,170.96 86.59,170.96C86.98,170.97 87.36,170.97 87.75,170.98C88.14,170.98 88.52,170.99 88.91,170.99C89.29,170.99 89.68,170.99 90.06,170.99C90.45,170.99 90.83,171 91.22,171C91.61,171 91.99,171 92.38,171C92.77,171 93.15,171 93.54,171C93.92,171 94.31,171 94.69,171C95.08,171 95.46,171 95.85,171C96.24,171 96.62,171 97.01,171C97.39,171 97.78,171 98.16,171C98.55,171 98.93,171 99.32,171C99.71,171 100.09,171 100.48,171C100.87,171 101.25,171 101.64,171C102.02,171 102.41,171 102.79,171C103.18,171 103.56,171 103.95,171C104.34,171 104.72,171 105.11,171C105.49,171 105.88,171 106.26,171C106.65,171 107.03,171 107.42,171C107.81,171 108.19,171 108.58,171C108.97,171 109.35,171 109.74,171C110.12,171 110.51,171 110.89,171C111.28,171 111.66,171 112.05,171C112.44,171 112.82,170.99 113.21,170.99C113.59,170.99 113.98,170.98 114.36,170.98C114.75,170.98 115.13,170.98 115.52,170.97C115.91,170.96 116.29,170.95 116.68,170.94C117.07,170.93 117.45,170.93 117.84,170.92C118.22,170.91 118.61,170.9 118.99,170.89C119.38,170.88 119.76,170.88 120.15,170.87C120.54,170.87 120.92,170.86 121.31,170.86C121.69,170.86 122.08,170.87 122.46,170.87C122.85,170.88 123.23,170.88 123.62,170.89C124.01,170.9 124.39,170.91 124.78,170.92C125.17,170.93 125.55,170.93 125.94,170.94C126.32,170.95 126.71,170.96 127.09,170.97Q127.48,170.98 128.25,170.98L128.25,171" style="vector-effect: non-scaling-stroke; stroke-width: 2px; stroke: rgb(31, 119, 180); stroke-opacity: 1; fill: rgb(31, 119, 180); fill-opacity: 0.5;"/></g><g class="trace violins" style="opacity: 1;"><path class="violin" d="M25.62,90L25.62,89.99Q25.79,89.99 25.87,89.99C25.95,89.99 26.04,89.98 26.12,89.98C26.2,89.98 26.29,89.97 26.37,89.97C26.45,89.96 26.54,89.95 26.62,89.95C26.7,89.95 26.79,89.95 26.87,89.95C26.95,89.95 27.04,89.94 27.12,89.94C27.2,89.94 27.29,89.95 27.37,89.95C27.45,89.95 27.54,89.95 27.62,89.95C27.7,89.95 27.79,89.96 27.87,89.97C27.95,89.97 28.04,89.98 28.12,89.98C28.2,89.98 28.28,89.99 28.36,89.99C28.44,89.99 28.53,89.99 28.61,89.99C28.69,89.99 28.78,90 28.86,90C28.94,90 29.03,90 29.11,90C29.19,90 29.28,90 29.36,90C29.44,90 29.53,90 29.61,90C29.69,90 29.78,90 29.86,90C29.94,90 30.03,90 30.11,90C30.19,90 30.28,90 30.36,90C30.44,90 30.53,90 30.61,90C30.69,90 30.78,90 30.86,90C30.94,90 31.03,90 31.11,90C31.19,90 31.28,90 31.36,90C31.44,90 31.52,90 31.6,90C31.68,90 31.77,90 31.85,90C31.93,90 32.02,90 32.1,90C32.18,90 32.27,90 32.35,90C32.43,90 32.52,90 32.6,90C32.68,90 32.77,90 32.85,90C32.93,90 33.02,90 33.1,90C33.18,90 33.27,90 33.35,90C33.43,90 33.52,90 33.6,90C33.68,90 33.77,89.99 33.85,89.99C33.93,89.99 34.02,89.99 34.1,89.99C34.18,89.99 34.27,89.99 34.35,89.98C34.43,89.98 34.51,89.97 34.59,89.96C34.67,89.95 34.76,89.95 34.84,89.94C34.92,89.93 35.01,89.93 35.09,89.92C35.17,89.91 35.26,89.91 35.34,89.9C35.42,89.9 35.51,89.89 35.59,89.89C35.67,89.89 35.76,89.89 35.84,89.89C35.92,89.89 36.01,89.9 36.09,89.9C36.17,89.91 36.26,89.91 36.34,89.92C36.42,89.93 36.51,89.93 36.59,89.94C36.67,89.94 36.76,89.95 36.84,89.95C36.92,89.95 37.01,89.96 37.09,89.96C37.17,89.96 37.26,89.96 37.34,89.96C37.42,89.96 37.51,89.94 37.59,89.93C37.67,89.92 37.75,89.91 37.83,89.89C37.91,89.87 38,89.85 38.08,89.83C38.16,89.81 38.25,89.78 38.33,89.75C38.41,89.72 38.5,89.68 38.58,89.65C38.66,89.61 38.75,89.58 38.83,89.54C38.91,89.5 39,89.46 39.08,89.42C39.16,89.38 39.25,89.33 39.33,89.29C39.41,89.24 39.5,89.2 39.58,89.15C39.67,89.09 39.75,89.03 39.83,88.96C39.92,88.88 40,88.8 40.08,88.69C40.17,88.57 40.25,88.42 40.33,88.25C40.43,88.04 40.5,87.78 40.58,87.49C40.68,87.12 40.76,86.69 40.83,86.2C40.93,85.57 41,84.85 41.07,84.04C41.16,83.01 41.24,81.83 41.32,80.53C41.41,78.93 41.49,77.1 41.57,75.14C41.66,72.79 41.74,70.14 41.82,67.37C41.91,64.18 41.99,60.66 42.07,57.07C42.16,53.13 42.24,48.87 42.32,44.68C42.4,40.36 42.48,35.78 42.57,31.51C42.65,27.46 42.73,23.24 42.82,19.66C42.9,16.69 42.94,13.45 43.07,11.51C43.14,10.43 43.24,9 43.32,9C43.41,9 43.5,11.29 43.57,12.86C43.68,15.31 43.74,18.9 43.82,22.29C43.91,26.26 43.99,30.84 44.07,35.23C44.15,39.77 44.23,44.58 44.31,49.08C44.39,53.37 44.47,57.7 44.56,61.64C44.64,65.14 44.72,68.54 44.81,71.55C44.89,74.06 44.96,76.44 45.06,78.47C45.14,80.07 45.21,81.55 45.31,82.77C45.38,83.67 45.46,84.49 45.56,85.13C45.63,85.58 45.7,85.97 45.81,86.26C45.88,86.46 45.96,86.62 46.06,86.73C46.13,86.81 46.22,86.86 46.31,86.9C46.39,86.94 46.48,86.95 46.56,86.99C46.64,87.03 46.73,87.07 46.81,87.12C46.9,87.17 46.98,87.24 47.06,87.31C47.15,87.39 47.23,87.47 47.31,87.56C47.39,87.65 47.47,87.75 47.55,87.84C47.63,87.94 47.72,88.04 47.8,88.13C47.88,88.22 47.97,88.31 48.05,88.39C48.13,88.47 48.21,88.56 48.3,88.63C48.38,88.7 48.46,88.76 48.55,88.82C48.63,88.87 48.72,88.92 48.8,88.96C48.88,89 48.97,89.02 49.05,89.05C49.13,89.07 49.22,89.1 49.3,89.11C49.38,89.12 49.47,89.12 49.55,89.12C49.63,89.12 49.72,89.11 49.8,89.09C49.88,89.07 49.97,89.05 50.05,89.02C50.13,88.99 50.22,88.95 50.3,88.91C50.39,88.86 50.47,88.81 50.55,88.75C50.63,88.69 50.71,88.61 50.79,88.54C50.87,88.46 50.96,88.38 51.04,88.29C51.12,88.2 51.21,88.11 51.29,88.02C51.37,87.93 51.46,87.83 51.54,87.74C51.62,87.65 51.7,87.56 51.79,87.48C51.87,87.41 51.95,87.34 52.04,87.28C52.12,87.23 52.2,87.17 52.29,87.15C52.37,87.13 52.46,87.12 52.54,87.13C52.62,87.14 52.71,87.17 52.79,87.21C52.88,87.25 52.96,87.31 53.04,87.37C53.12,87.43 53.2,87.5 53.29,87.55C53.37,87.6 53.46,87.65 53.54,87.66C53.62,87.67 53.7,87.66 53.78,87.62C53.87,87.58 53.95,87.49 54.03,87.39C54.13,87.27 54.2,87.09 54.28,86.91C54.37,86.7 54.45,86.46 54.53,86.21C54.62,85.93 54.7,85.62 54.78,85.31C54.87,84.98 54.95,84.62 55.03,84.27C55.11,83.91 55.2,83.54 55.28,83.18C55.36,82.83 55.44,82.46 55.53,82.13C55.61,81.82 55.69,81.51 55.78,81.24C55.86,81.01 55.93,80.77 56.03,80.61C56.1,80.49 56.19,80.36 56.28,80.34C56.36,80.33 56.46,80.39 56.53,80.47C56.63,80.58 56.71,80.79 56.78,80.99C56.87,81.24 56.94,81.55 57.02,81.85C57.11,82.19 57.19,82.56 57.27,82.92C57.35,83.29 57.44,83.68 57.52,84.05C57.6,84.41 57.68,84.78 57.77,85.13C57.85,85.45 57.93,85.77 58.02,86.06C58.1,86.33 58.18,86.59 58.27,86.83C58.35,87.04 58.43,87.24 58.52,87.42C58.6,87.58 58.68,87.74 58.77,87.88C58.85,88 58.93,88.12 59.02,88.22C59.1,88.31 59.18,88.39 59.27,88.45C59.35,88.5 59.44,88.54 59.52,88.57C59.6,88.6 59.69,88.62 59.77,88.63C59.85,88.64 59.94,88.64 60.02,88.65C60.1,88.66 60.18,88.66 60.26,88.67C60.34,88.68 60.43,88.71 60.51,88.73C60.59,88.75 60.68,88.78 60.76,88.8C60.84,88.82 60.93,88.85 61.01,88.86C61.09,88.87 61.18,88.89 61.26,88.88C61.34,88.87 61.43,88.85 61.51,88.82C61.6,88.79 61.68,88.73 61.76,88.68C61.85,88.62 61.93,88.55 62.01,88.48C62.09,88.41 62.18,88.33 62.26,88.25C62.34,88.18 62.43,88.1 62.51,88.03C62.59,87.96 62.67,87.89 62.76,87.84C62.84,87.79 62.92,87.74 63.01,87.71C63.09,87.68 63.18,87.66 63.26,87.66C63.34,87.66 63.42,87.67 63.5,87.7C63.58,87.73 63.67,87.77 63.75,87.82C63.84,87.87 63.92,87.94 64,88C64.08,88.07 64.17,88.14 64.25,88.21C64.33,88.28 64.42,88.35 64.5,88.41C64.58,88.47 64.66,88.52 64.75,88.57C64.83,88.61 64.92,88.65 65,88.68C65.08,88.71 65.17,88.72 65.25,88.73C65.33,88.74 65.42,88.74 65.5,88.75C65.58,88.75 65.67,88.76 65.75,88.76C65.83,88.76 65.92,88.76 66,88.77C66.08,88.78 66.17,88.8 66.25,88.81C66.33,88.83 66.42,88.84 66.5,88.86C66.58,88.88 66.66,88.9 66.74,88.91C66.82,88.93 66.91,88.94 66.99,88.95C67.07,88.96 67.16,88.98 67.24,88.98C67.32,88.98 67.41,88.97 67.49,88.97C67.57,88.96 67.66,88.96 67.74,88.95C67.82,88.94 67.91,88.93 67.99,88.93C68.07,88.93 68.16,88.94 68.24,88.95C68.32,88.96 68.41,88.98 68.49,89.01C68.57,89.04 68.66,89.08 68.74,89.12C68.82,89.16 68.91,89.19 68.99,89.23C69.07,89.26 69.16,89.3 69.24,89.33C69.32,89.35 69.41,89.38 69.49,89.38C69.57,89.38 69.65,89.37 69.73,89.36C69.81,89.35 69.9,89.33 69.98,89.31C70.06,89.29 70.15,89.27 70.23,89.26C70.31,89.25 70.4,89.24 70.48,89.24C70.56,89.24 70.65,89.24 70.73,89.26C70.81,89.28 70.9,89.31 70.98,89.34C71.06,89.37 71.15,89.41 71.23,89.44C71.31,89.47 71.4,89.5 71.48,89.52C71.56,89.54 71.65,89.57 71.73,89.58C71.81,89.59 71.9,89.59 71.98,89.59C72.06,89.59 72.15,89.58 72.23,89.57C72.31,89.56 72.4,89.55 72.48,89.54C72.56,89.53 72.65,89.51 72.73,89.5C72.81,89.49 72.89,89.49 72.97,89.49C73.05,89.49 73.14,89.48 73.22,89.48C73.3,89.48 73.39,89.48 73.47,89.48C73.55,89.48 73.64,89.48 73.72,89.48C73.8,89.48 73.89,89.48 73.97,89.48C74.05,89.48 74.14,89.48 74.22,89.48C74.3,89.48 74.39,89.5 74.47,89.51C74.55,89.53 74.64,89.55 74.72,89.57C74.8,89.59 74.89,89.62 74.97,89.65C75.05,89.68 75.14,89.71 75.22,89.74C75.3,89.77 75.39,89.79 75.47,89.82C75.55,89.84 75.64,89.87 75.72,89.89C75.8,89.91 75.89,89.93 75.97,89.94C76.05,89.95 76.13,89.96 76.21,89.97C76.29,89.98 76.38,89.98 76.46,89.99C76.54,89.99 76.63,90 76.71,90C76.79,90 76.88,90 76.96,90C77.04,90 77.13,90 77.21,90C77.29,90 77.38,90 77.46,90C77.54,90 77.63,90 77.71,90C77.79,90 77.88,90 77.96,90C78.04,90 78.13,90 78.21,90C78.29,90 78.38,90 78.46,90C78.54,90 78.63,90 78.71,90C78.79,90 78.88,90 78.96,90C79.04,90 79.13,90 79.21,90C79.29,90 79.37,90 79.45,90C79.53,90 79.62,90 79.7,90C79.78,90 79.87,89.99 79.95,89.99C80.03,89.99 80.12,89.98 80.2,89.98C80.28,89.97 80.37,89.97 80.45,89.96C80.53,89.95 80.62,89.94 80.7,89.93C80.78,89.92 80.87,89.91 80.95,89.9C81.03,89.89 81.12,89.87 81.2,89.86C81.28,89.85 81.37,89.85 81.45,89.84C81.53,89.84 81.62,89.83 81.7,89.83C81.78,89.83 81.87,89.83 81.95,89.84C82.03,89.85 82.12,89.86 82.2,89.87C82.28,89.88 82.37,89.89 82.45,89.9C82.53,89.91 82.61,89.92 82.69,89.93C82.77,89.94 82.86,89.95 82.94,89.96C83.02,89.97 83.11,89.97 83.19,89.98C83.27,89.98 83.36,89.99 83.44,89.99C83.52,89.99 83.61,90 83.69,90C83.77,90 83.86,90 83.94,90C84.02,90 84.11,90 84.19,90C84.27,90 84.36,90 84.44,90C84.52,90 84.61,90 84.69,90C84.77,90 84.86,90 84.94,90C85.02,90 85.11,90 85.19,90C85.27,90 85.36,90 85.44,90C85.52,90 85.61,90 85.69,90C85.77,90 85.85,90 85.93,90C86.01,90 86.1,90 86.18,90C86.26,90 86.35,90 86.43,90C86.51,90 86.6,90 86.68,90C86.76,90 86.85,90 86.93,90C87.01,90 87.1,90 87.18,90C87.26,90 87.35,90 87.43,90C87.51,90 87.6,89.99 87.68,89.99C87.76,89.98 87.85,89.98 87.93,89.97C88.01,89.96 88.1,89.95 88.18,89.94C88.26,89.92 88.35,89.91 88.43,89.88C88.51,89.85 88.6,89.81 88.68,89.77C88.76,89.73 88.84,89.68 88.92,89.63C89,89.58 89.09,89.52 89.17,89.47C89.25,89.42 89.34,89.36 89.42,89.31C89.5,89.26 89.58,89.21 89.67,89.19C89.75,89.17 89.84,89.16 89.92,89.16C90,89.16 90.09,89.18 90.17,89.21C90.26,89.24 90.34,89.29 90.42,89.34C90.5,89.39 90.59,89.45 90.67,89.51C90.75,89.56 90.84,89.62 90.92,89.67C91,89.72 91.09,89.76 91.17,89.8C91.25,89.84 91.34,89.87 91.42,89.9C91.5,89.92 91.59,89.94 91.67,89.95C91.75,89.96 91.84,89.97 91.92,89.98C92,89.99 92.08,89.99 92.16,89.99C92.24,89.99 92.33,90 92.41,90C92.49,90 92.58,90 92.66,90C92.74,90 92.83,90 92.91,90C92.99,90 93.08,90 93.16,90C93.24,90 93.33,90 93.41,90C93.49,90 93.58,90 93.66,90C93.74,90 93.83,90 93.91,90C93.99,90 94.08,89.99 94.16,89.99C94.24,89.99 94.33,89.98 94.41,89.98C94.49,89.98 94.58,89.97 94.66,89.97C94.74,89.96 94.83,89.96 94.91,89.95C94.99,89.94 95.08,89.94 95.16,89.93C95.24,89.92 95.32,89.92 95.4,89.91C95.48,89.9 95.57,89.89 95.65,89.89C95.73,89.89 95.82,89.89 95.9,89.89C95.98,89.89 96.07,89.89 96.15,89.89C96.23,89.89 96.32,89.9 96.4,89.91C96.48,89.92 96.57,89.92 96.65,89.93C96.73,89.94 96.82,89.95 96.9,89.96C96.98,89.97 97.07,89.97 97.15,89.97C97.23,89.98 97.32,89.99 97.4,89.99C97.48,89.99 97.57,89.99 97.65,89.99C97.73,89.99 97.82,90 97.9,90C97.98,90 98.07,90 98.15,90C98.23,90 98.32,90 98.4,90C98.48,90 98.56,90 98.64,90C98.72,90 98.81,90 98.89,90C98.97,90 99.06,90 99.14,90C99.22,90 99.31,90 99.39,90C99.47,90 99.56,90 99.64,90C99.72,90 99.81,90 99.89,90C99.97,90 100.06,89.99 100.14,89.99C100.22,89.99 100.31,89.98 100.39,89.98C100.47,89.98 100.56,89.97 100.64,89.97C100.72,89.96 100.81,89.96 100.89,89.95C100.97,89.94 101.06,89.94 101.14,89.93C101.22,89.92 101.31,89.92 101.39,89.91C101.47,89.9 101.56,89.89 101.64,89.89C101.72,89.89 101.8,89.89 101.88,89.89C101.96,89.89 102.05,89.89 102.13,89.89C102.21,89.89 102.3,89.9 102.38,89.91C102.46,89.92 102.55,89.92 102.63,89.93C102.71,89.94 102.8,89.94 102.88,89.95C102.96,89.96 103.05,89.96 103.13,89.97Q103.21,89.97 103.38,89.98L103.38,90" style="vector-effect: non-scaling-stroke; stroke-width: 2px; stroke: rgb(255, 127, 14); stroke-opacity: 1; fill: rgb(255, 127, 14); fill-opacity: 0.5;"/></g></g></g><g class="overplot"/><path class="xlines-above crisp" d="M0,0" style="fill: none;"/><path class="ylines-above crisp" d="M0,0" style="fill: none;"/><g class="overlines-above"/><g class="xaxislayer-above"><g class="xtick"><text text-anchor="middle" x="0" y="213" transform="translate(49.72,0)" style="font-family: Calibri; font-size: 12px; fill: rgb(68, 68, 68); fill-opacity: 1; white-space: pre;">1.2</text></g><g class="xtick"><text text-anchor="middle" x="0" y="213" transform="translate(89.7,0)" style="font-family: Calibri; font-size: 12px; fill: rgb(68, 68, 68); fill-opacity: 1; white-space: pre;">1.4</text></g><g class="xtick"><text text-anchor="middle" x="0" y="213" transform="translate(129.69,0)" style="font-family: Calibri; font-size: 12px; fill: rgb(68, 68, 68); fill-opacity: 1; white-space: pre;">1.6</text></g></g><g class="yaxislayer-above"/><g class="overaxes-above"/></g></g><g class="polarlayer"/><g class="ternarylayer"/><g class="geolayer"/><g class="funnelarealayer"/><g class="pielayer"/><g class="treemaplayer"/><g class="sunburstlayer"/><g class="glimages"/><defs id="topdefs-c4318d"><g class="clips"/></defs><g class="layer-above"><g class="imagelayer"/><g class="shapelayer"><path data-index="0" fill-rule="evenodd" d="M71.71000000000001,191L71.71000000000001,110" clip-path="url('#clipc4318dxy')" style="opacity: 1; stroke: rgb(0, 0, 255); stroke-opacity: 1; fill: rgb(0, 0, 0); fill-opacity: 0; stroke-dasharray: 9px, 9px; stroke-width: 2px;"/><path data-index="1" fill-rule="evenodd" d="M101.7,110L101.7,29" clip-path="url('#clipc4318dxy')" style="opacity: 1; stroke: rgb(255, 165, 0); stroke-opacity: 1; fill: rgb(0, 0, 0); fill-opacity: 0; stroke-dasharray: 9px, 9px; stroke-width: 2px;"/></g></g><g class="infolayer"><g class="g-gtitle"/><g class="g-xtitle" transform="translate(0,-0.53125)"><text class="xtitle" x="97.5" y="246" text-anchor="middle" style="font-family: Calibri; font-size: 12px; fill: rgb(68, 68, 68); opacity: 1; font-weight: normal; white-space: pre;">O​<tspan style="font-size:70%" dy="0.3em">2</tspan><tspan dy="-0.21em">​</tspan>   (mol C-mol ​<tspan style="font-size:70%" dy="-0.6em">-1</tspan><tspan dy="0.42em">​</tspan>)</text></g><g class="g-ytitle"/></g></svg>