<svg class="main-svg" xmlns="http://www.w3.org/2000/svg" xmlns:xlink="http://www.w3.org/1999/xlink" width="320" height="250" style="" viewBox="0 0 320 250"><rect x="0" y="0" width="320" height="250" style="fill: rgb(255, 255, 255); fill-opacity: 1;"/><defs id="defs-7b3d2b"><g class="clips"><clipPath id="clip7b3d2bxyplot" class="plotclip"><rect width="270" height="180"/></clipPath><clipPath class="axesclip" id="clip7b3d2bx"><rect x="30" y="0" width="270" height="250"/></clipPath><clipPath class="axesclip" id="clip7b3d2by"><rect x="0" y="20" width="320" height="180"/></clipPath><clipPath class="axesclip" id="clip7b3d2bxy"><rect x="30" y="20" width="270" height="180"/></clipPath></g><g class="gradients"/></defs><g class="bglayer"/><g class="layer-below"><g class="imagelayer"/><g class="shapelayer"/></g><g class="cartesianlayer"><g class="subplot xy"><g class="layer-subplot"><g class="shapelayer"/><g class="imagelayer"/></g><g class="gridlayer"><g class="x"/><g class="y"><path class="ygrid crisp" transform="translate(0,191)" d="M30,0h270" style="stroke: rgb(238, 238, 238); stroke-opacity: 1; stroke-width: 1px;"/><path class="ygrid crisp" transform="translate(0,110)" d="M30,0h270" style="stroke: rgb(238, 238, 238); stroke-opacity: 1; stroke-width: 1px;"/></g></g><g class="zerolinelayer"/><path class="xlines-below"/><path class="ylines-below"/><g class="overlines-below"/><g class="xaxislayer-below"/><g class="yaxislayer-below"/><g class="overaxes-below"/><g class="plot" transform="translate(30,20)" clip-path="url('#clip7b3d2bxyplot')"><g class="violinlayer mlayer"><g class="trace violins" style="opacity: 1;"><path class="violin" d="M13.5,171L13.5,170.97Q15.04,170.95 15.81,170.92C16.58,170.89 17.36,170.85 18.13,170.77C18.9,170.68 19.68,170.61 20.44,170.41C21.22,170.21 22.02,169.97 22.76,169.56C23.57,169.11 24.35,168.52 25.07,167.75C25.92,166.84 26.68,165.66 27.39,164.31C28.26,162.65 28.99,160.62 29.7,158.42C30.56,155.76 31.29,152.65 32.01,149.41C32.85,145.67 33.59,141.46 34.33,137.22C35.14,132.62 35.87,127.62 36.64,122.8C37.41,117.96 38.15,112.84 38.96,108.25C39.7,104.1 40.35,99.74 41.27,96.42C41.96,93.92 42.48,90.62 43.59,90C44.24,89.63 45.25,89.9 45.9,90.48C47.05,91.51 47.51,94.86 48.21,97.53C49.1,100.91 49.78,105.15 50.53,109.18C51.33,113.5 52.06,118.21 52.84,122.63C53.6,126.93 54.35,131.33 55.16,135.33C55.9,138.95 56.63,142.5 57.47,145.63C58.19,148.3 58.93,150.84 59.79,152.98C60.5,154.74 61.24,156.35 62.1,157.62C62.81,158.66 63.58,159.55 64.41,160.2C65.14,160.77 65.94,161.14 66.73,161.43C67.48,161.7 68.27,161.8 69.04,161.91C69.81,162.02 70.59,162.02 71.36,162.07C72.13,162.11 72.9,162.14 73.67,162.18C74.44,162.22 75.22,162.26 75.99,162.29C76.76,162.32 77.53,162.36 78.3,162.35C79.07,162.34 79.84,162.31 80.61,162.21C81.39,162.11 82.17,161.98 82.93,161.75C83.71,161.52 84.49,161.21 85.24,160.81C86.03,160.39 86.81,159.86 87.56,159.26C88.36,158.61 89.13,157.85 89.87,157.02C90.67,156.12 91.44,155.1 92.19,154.05C92.99,152.93 93.74,151.7 94.5,150.49C95.28,149.25 96.03,147.93 96.81,146.69C97.57,145.48 98.32,144.23 99.13,143.14C99.87,142.14 100.61,141.12 101.44,140.37C102.17,139.71 102.95,139.09 103.76,138.8C104.5,138.54 105.32,138.47 106.07,138.6C106.86,138.74 107.65,139.18 108.39,139.66C109.2,140.19 109.95,140.95 110.7,141.71C111.5,142.52 112.25,143.46 113.01,144.38C113.79,145.33 114.56,146.36 115.33,147.35C116.1,148.34 116.86,149.35 117.64,150.33C118.41,151.29 119.18,152.24 119.96,153.16C120.72,154.05 121.49,154.92 122.27,155.76C123.03,156.58 123.81,157.36 124.59,158.12C125.35,158.86 126.12,159.58 126.9,160.27C127.66,160.95 128.43,161.6 129.21,162.22C129.97,162.83 130.75,163.42 131.53,163.98C132.29,164.53 133.06,165.06 133.84,165.55C134.6,166.03 135.38,166.47 136.16,166.88C136.92,167.28 137.69,167.65 138.47,167.97C139.24,168.29 140.01,168.57 140.79,168.81C141.56,169.05 142.33,169.24 143.1,169.41C143.87,169.58 144.64,169.71 145.41,169.83C146.18,169.95 146.96,170.04 147.73,170.12C148.5,170.2 149.27,170.27 150.04,170.33C150.81,170.39 151.59,170.45 152.36,170.5C153.13,170.55 153.9,170.59 154.67,170.63C155.44,170.67 156.22,170.71 156.99,170.74C157.76,170.77 158.53,170.8 159.3,170.82C160.07,170.84 160.84,170.86 161.61,170.87C162.38,170.88 163.16,170.89 163.93,170.9C164.7,170.91 165.47,170.92 166.24,170.92C167.01,170.93 167.79,170.92 168.56,170.93C169.33,170.93 170.1,170.95 170.87,170.95C171.64,170.96 172.42,170.95 173.19,170.96C173.96,170.96 174.73,170.97 175.5,170.98C176.27,170.98 177.04,170.99 177.81,170.99C178.58,170.99 179.36,170.99 180.13,170.99C180.9,170.99 181.67,171 182.44,171C183.21,171 183.99,171 184.76,171C185.53,171 186.3,171 187.07,171C187.84,171 188.62,171 189.39,171C190.16,171 190.93,171 191.7,171C192.47,171 193.24,171 194.01,171C194.78,171 195.56,171 196.33,171C197.1,171 197.87,171 198.64,171C199.41,171 200.19,171 200.96,171C201.73,171 202.5,171 203.27,171C204.04,171 204.82,171 205.59,171C206.36,171 207.13,171 207.9,171C208.67,171 209.44,171 210.21,171C210.98,171 211.76,171 212.53,171C213.3,171 214.07,171 214.84,171C215.61,171 216.39,171 217.16,171C217.93,171 218.7,171 219.47,171C220.24,171 221.02,171 221.79,171C222.56,171 223.33,171 224.1,171C224.87,171 225.64,170.99 226.41,170.99C227.18,170.99 227.96,170.98 228.73,170.98C229.5,170.98 230.27,170.98 231.04,170.97C231.81,170.96 232.59,170.95 233.36,170.94C234.13,170.93 234.9,170.93 235.67,170.92C236.44,170.91 237.22,170.9 237.99,170.89C238.76,170.88 239.53,170.88 240.3,170.87C241.07,170.87 241.84,170.86 242.61,170.86C243.38,170.86 244.16,170.86 244.93,170.87C245.7,170.87 246.47,170.88 247.24,170.89C248.01,170.9 248.79,170.91 249.56,170.92C250.33,170.93 251.1,170.93 251.87,170.94C252.64,170.95 253.42,170.96 254.19,170.97Q254.96,170.98 256.5,170.98L256.5,171" style="vector-effect: non-scaling-stroke; stroke-width: 2px; stroke: rgb(31, 119, 180); stroke-opacity: 1; fill: rgb(31, 119, 180); fill-opacity: 0.5;"/></g><g class="trace violins" style="opacity: 1;"><path class="violin" d="M51.25,90L51.25,89.99Q51.58,89.99 51.74,89.99C51.91,89.99 52.07,89.98 52.24,89.98C52.41,89.98 52.57,89.97 52.74,89.97C52.91,89.96 53.07,89.95 53.24,89.95C53.41,89.95 53.57,89.95 53.74,89.95C53.91,89.95 54.07,89.94 54.24,89.94C54.41,89.94 54.57,89.95 54.74,89.95C54.9,89.95 55.07,89.95 55.23,89.95C55.4,89.95 55.56,89.96 55.73,89.97C55.9,89.97 56.06,89.98 56.23,89.98C56.4,89.98 56.56,89.99 56.73,89.99C56.9,89.99 57.06,89.99 57.23,89.99C57.4,89.99 57.56,90 57.73,90C57.89,90 58.06,90 58.22,90C58.39,90 58.55,90 58.72,90C58.89,90 59.05,90 59.22,90C59.39,90 59.55,90 59.72,90C59.89,90 60.05,90 60.22,90C60.39,90 60.55,90 60.72,90C60.88,90 61.05,90 61.21,90C61.38,90 61.54,90 61.71,90C61.88,90 62.04,90 62.21,90C62.38,90 62.54,90 62.71,90C62.88,90 63.04,90 63.21,90C63.38,90 63.54,90 63.71,90C63.88,90 64.04,90 64.21,90C64.37,90 64.54,90 64.7,90C64.87,90 65.03,90 65.2,90C65.37,90 65.53,90 65.7,90C65.87,90 66.03,90 66.2,90C66.37,90 66.53,90 66.7,90C66.87,90 67.03,90 67.2,90C67.36,90 67.53,89.99 67.69,89.99C67.86,89.99 68.02,89.99 68.19,89.99C68.36,89.99 68.52,89.98 68.69,89.98C68.86,89.97 69.02,89.97 69.19,89.96C69.36,89.95 69.52,89.95 69.69,89.94C69.86,89.93 70.02,89.93 70.19,89.92C70.36,89.91 70.52,89.91 70.69,89.9C70.85,89.9 71.02,89.89 71.18,89.89C71.35,89.89 71.51,89.89 71.68,89.89C71.85,89.89 72.01,89.9 72.18,89.9C72.35,89.91 72.51,89.91 72.68,89.92C72.85,89.93 73.01,89.93 73.18,89.94C73.35,89.94 73.51,89.95 73.68,89.95C73.84,89.95 74.01,89.96 74.17,89.96C74.34,89.96 74.5,89.96 74.67,89.96C74.84,89.96 75,89.94 75.17,89.93C75.34,89.92 75.5,89.91 75.67,89.89C75.84,89.87 76,89.85 76.17,89.83C76.34,89.81 76.5,89.78 76.67,89.75C76.83,89.72 77,89.68 77.16,89.65C77.33,89.61 77.49,89.58 77.66,89.54C77.83,89.5 77.99,89.46 78.16,89.42C78.33,89.38 78.49,89.33 78.66,89.29C78.83,89.24 78.99,89.2 79.16,89.15C79.33,89.09 79.5,89.04 79.66,88.96C79.83,88.88 80,88.8 80.16,88.69C80.33,88.57 80.5,88.43 80.65,88.25C80.83,88.04 81,87.79 81.15,87.49C81.34,87.12 81.5,86.69 81.65,86.2C81.84,85.58 82,84.85 82.15,84.04C82.34,83.01 82.5,81.83 82.65,80.53C82.84,78.93 83,77.1 83.15,75.14C83.33,72.79 83.49,70.14 83.64,67.37C83.82,64.18 83.98,60.66 84.14,57.07C84.32,53.13 84.48,48.87 84.64,44.68C84.81,40.36 84.97,35.78 85.14,31.51C85.3,27.46 85.45,23.24 85.64,19.66C85.79,16.69 85.89,13.44 86.14,11.51C86.28,10.43 86.49,8.99 86.64,9C86.83,9.01 86.99,11.29 87.13,12.86C87.35,15.31 87.47,18.9 87.63,22.29C87.81,26.26 87.97,30.84 88.13,35.23C88.3,39.77 88.46,44.58 88.63,49.08C88.79,53.37 88.95,57.7 89.13,61.64C89.29,65.14 89.45,68.54 89.63,71.55C89.78,74.06 89.93,76.44 90.12,78.47C90.27,80.07 90.42,81.55 90.62,82.77C90.77,83.68 90.91,84.5 91.12,85.13C91.27,85.58 91.42,85.98 91.62,86.26C91.77,86.47 91.94,86.62 92.12,86.73C92.28,86.82 92.45,86.86 92.62,86.9C92.79,86.94 92.95,86.95 93.12,86.99C93.28,87.03 93.45,87.07 93.61,87.12C93.78,87.17 93.95,87.24 94.11,87.31C94.28,87.38 94.44,87.47 94.61,87.56C94.78,87.65 94.94,87.75 95.11,87.84C95.28,87.94 95.44,88.04 95.61,88.13C95.78,88.22 95.94,88.31 96.11,88.39C96.27,88.47 96.43,88.56 96.6,88.63C96.76,88.7 96.93,88.76 97.1,88.82C97.27,88.87 97.43,88.92 97.6,88.96C97.77,89 97.93,89.02 98.1,89.05C98.27,89.07 98.43,89.1 98.6,89.11C98.77,89.12 98.93,89.12 99.1,89.12C99.26,89.12 99.43,89.11 99.59,89.09C99.76,89.07 99.92,89.05 100.09,89.02C100.26,88.99 100.42,88.95 100.59,88.91C100.76,88.86 100.92,88.81 101.09,88.75C101.26,88.69 101.42,88.62 101.59,88.54C101.76,88.46 101.92,88.38 102.09,88.29C102.26,88.2 102.42,88.11 102.59,88.02C102.75,87.93 102.91,87.83 103.08,87.74C103.24,87.65 103.41,87.56 103.58,87.48C103.74,87.4 103.91,87.34 104.08,87.28C104.24,87.23 104.41,87.17 104.58,87.15C104.75,87.13 104.91,87.12 105.08,87.13C105.25,87.14 105.42,87.17 105.58,87.21C105.75,87.25 105.91,87.31 106.07,87.37C106.24,87.43 106.4,87.5 106.57,87.55C106.74,87.6 106.9,87.65 107.07,87.66C107.24,87.67 107.41,87.66 107.57,87.62C107.74,87.58 107.91,87.5 108.07,87.39C108.25,87.27 108.41,87.09 108.57,86.91C108.75,86.71 108.91,86.46 109.07,86.21C109.24,85.93 109.4,85.62 109.56,85.31C109.73,84.98 109.89,84.62 110.06,84.27C110.23,83.91 110.39,83.54 110.56,83.18C110.73,82.83 110.89,82.46 111.06,82.13C111.22,81.82 111.38,81.5 111.56,81.24C111.72,81 111.88,80.76 112.06,80.61C112.21,80.48 112.38,80.36 112.55,80.34C112.71,80.32 112.9,80.38 113.05,80.47C113.23,80.58 113.39,80.78 113.55,80.99C113.73,81.23 113.89,81.54 114.05,81.85C114.22,82.18 114.39,82.56 114.55,82.92C114.72,83.29 114.88,83.68 115.05,84.05C115.21,84.41 115.37,84.79 115.54,85.13C115.7,85.45 115.87,85.77 116.04,86.06C116.2,86.33 116.37,86.6 116.54,86.83C116.7,87.05 116.87,87.24 117.04,87.42C117.2,87.59 117.37,87.74 117.54,87.88C117.7,88.01 117.87,88.12 118.04,88.22C118.2,88.31 118.37,88.39 118.54,88.45C118.7,88.51 118.86,88.54 119.03,88.57C119.19,88.6 119.36,88.62 119.53,88.63C119.7,88.64 119.86,88.64 120.03,88.65C120.2,88.66 120.36,88.66 120.53,88.67C120.7,88.68 120.86,88.71 121.03,88.73C121.2,88.75 121.36,88.78 121.53,88.8C121.69,88.82 121.86,88.85 122.02,88.86C122.19,88.87 122.35,88.89 122.52,88.88C122.69,88.87 122.85,88.85 123.02,88.82C123.19,88.79 123.35,88.74 123.52,88.68C123.69,88.62 123.85,88.55 124.02,88.48C124.19,88.41 124.35,88.33 124.52,88.25C124.69,88.18 124.85,88.1 125.02,88.03C125.18,87.96 125.34,87.89 125.51,87.84C125.67,87.79 125.84,87.74 126.01,87.71C126.18,87.68 126.34,87.66 126.51,87.66C126.68,87.66 126.84,87.67 127.01,87.7C127.18,87.73 127.34,87.77 127.51,87.82C127.68,87.87 127.85,87.94 128.01,88C128.18,88.07 128.34,88.14 128.5,88.21C128.67,88.28 128.83,88.35 129,88.41C129.17,88.47 129.33,88.52 129.5,88.57C129.67,88.61 129.83,88.65 130,88.68C130.17,88.71 130.33,88.72 130.5,88.73C130.67,88.74 130.83,88.74 131,88.75C131.16,88.75 131.33,88.76 131.49,88.76C131.66,88.76 131.82,88.76 131.99,88.77C132.16,88.78 132.32,88.8 132.49,88.81C132.66,88.83 132.82,88.84 132.99,88.86C133.16,88.88 133.32,88.89 133.49,88.91C133.66,88.92 133.82,88.94 133.99,88.95C134.16,88.96 134.32,88.98 134.49,88.98C134.65,88.98 134.82,88.97 134.98,88.97C135.15,88.96 135.31,88.96 135.48,88.95C135.65,88.94 135.81,88.93 135.98,88.93C136.15,88.93 136.31,88.94 136.48,88.95C136.65,88.96 136.81,88.98 136.98,89.01C137.15,89.04 137.31,89.08 137.48,89.12C137.64,89.16 137.81,89.2 137.97,89.23C138.14,89.27 138.3,89.3 138.47,89.33C138.64,89.35 138.8,89.38 138.97,89.38C139.14,89.38 139.3,89.37 139.47,89.36C139.64,89.35 139.8,89.33 139.97,89.31C140.14,89.29 140.3,89.27 140.47,89.26C140.64,89.25 140.8,89.24 140.97,89.24C141.13,89.24 141.3,89.24 141.46,89.26C141.63,89.28 141.79,89.31 141.96,89.34C142.13,89.37 142.29,89.41 142.46,89.44C142.63,89.47 142.79,89.5 142.96,89.52C143.13,89.54 143.29,89.57 143.46,89.58C143.63,89.59 143.79,89.59 143.96,89.59C144.12,89.59 144.29,89.58 144.45,89.57C144.62,89.56 144.78,89.55 144.95,89.54C145.12,89.53 145.28,89.51 145.45,89.5C145.62,89.49 145.78,89.49 145.95,89.49C146.12,89.49 146.28,89.48 146.45,89.48C146.62,89.48 146.78,89.48 146.95,89.48C147.12,89.48 147.28,89.48 147.45,89.48C147.61,89.48 147.78,89.48 147.94,89.48C148.11,89.48 148.27,89.48 148.44,89.48C148.61,89.48 148.77,89.5 148.94,89.51C149.11,89.53 149.27,89.55 149.44,89.57C149.61,89.59 149.77,89.62 149.94,89.65C150.11,89.68 150.27,89.71 150.44,89.74C150.6,89.77 150.77,89.8 150.93,89.82C151.1,89.85 151.26,89.87 151.43,89.89C151.6,89.91 151.76,89.93 151.93,89.94C152.1,89.95 152.26,89.96 152.43,89.97C152.6,89.98 152.76,89.98 152.93,89.99C153.1,89.99 153.26,90 153.43,90C153.59,90 153.76,90 153.92,90C154.09,90 154.25,90 154.42,90C154.59,90 154.75,90 154.92,90C155.09,90 155.25,90 155.42,90C155.59,90 155.75,90 155.92,90C156.09,90 156.25,90 156.42,90C156.59,90 156.75,90 156.92,90C157.08,90 157.25,90 157.41,90C157.58,90 157.74,90 157.91,90C158.08,90 158.24,90 158.41,90C158.58,90 158.74,90 158.91,90C159.08,90 159.24,90 159.41,90C159.58,90 159.74,89.99 159.91,89.99C160.07,89.99 160.24,89.98 160.4,89.98C160.57,89.97 160.73,89.97 160.9,89.96C161.07,89.95 161.23,89.94 161.4,89.93C161.57,89.92 161.73,89.91 161.9,89.9C162.07,89.89 162.23,89.87 162.4,89.86C162.57,89.85 162.73,89.85 162.9,89.84C163.07,89.84 163.23,89.83 163.4,89.83C163.56,89.83 163.73,89.83 163.89,89.84C164.06,89.85 164.22,89.86 164.39,89.87C164.56,89.88 164.72,89.89 164.89,89.9C165.06,89.91 165.22,89.92 165.39,89.93C165.56,89.94 165.72,89.95 165.89,89.96C166.06,89.97 166.22,89.97 166.39,89.98C166.55,89.98 166.72,89.99 166.88,89.99C167.05,89.99 167.21,90 167.38,90C167.55,90 167.71,90 167.88,90C168.05,90 168.21,90 168.38,90C168.55,90 168.71,90 168.88,90C169.05,90 169.21,90 169.38,90C169.54,90 169.71,90 169.87,90C170.04,90 170.2,90 170.37,90C170.54,90 170.7,90 170.87,90C171.04,90 171.2,90 171.37,90C171.54,90 171.7,90 171.87,90C172.04,90 172.2,90 172.37,90C172.54,90 172.7,90 172.87,90C173.03,90 173.2,90 173.36,90C173.53,90 173.69,90 173.86,90C174.03,90 174.19,90 174.36,90C174.53,90 174.69,90 174.86,90C175.03,90 175.19,89.99 175.36,89.99C175.53,89.98 175.69,89.98 175.86,89.97C176.02,89.96 176.19,89.95 176.35,89.94C176.52,89.92 176.68,89.91 176.85,89.88C177.02,89.85 177.18,89.81 177.35,89.77C177.52,89.73 177.68,89.68 177.85,89.63C178.02,89.58 178.18,89.52 178.35,89.47C178.52,89.42 178.68,89.36 178.85,89.31C179.02,89.26 179.18,89.21 179.35,89.19C179.51,89.17 179.68,89.16 179.84,89.16C180.01,89.16 180.17,89.18 180.34,89.21C180.51,89.24 180.67,89.29 180.84,89.34C181.01,89.39 181.17,89.45 181.34,89.51C181.51,89.56 181.67,89.62 181.84,89.67C182.01,89.72 182.17,89.76 182.34,89.8C182.5,89.84 182.67,89.88 182.83,89.9C183,89.93 183.16,89.94 183.33,89.95C183.5,89.96 183.66,89.97 183.83,89.98C184,89.99 184.16,89.99 184.33,89.99C184.5,89.99 184.66,90 184.83,90C185,90 185.16,90 185.33,90C185.49,90 185.66,90 185.82,90C185.99,90 186.15,90 186.32,90C186.49,90 186.65,90 186.82,90C186.99,90 187.15,90 187.32,90C187.49,90 187.65,90 187.82,90C187.99,90 188.15,89.99 188.32,89.99C188.49,89.99 188.65,89.98 188.82,89.98C188.98,89.98 189.15,89.97 189.31,89.97C189.48,89.96 189.64,89.96 189.81,89.95C189.98,89.94 190.14,89.94 190.31,89.93C190.48,89.92 190.64,89.92 190.81,89.91C190.98,89.9 191.14,89.89 191.31,89.89C191.48,89.89 191.64,89.89 191.81,89.89C191.97,89.89 192.14,89.89 192.3,89.89C192.47,89.89 192.63,89.9 192.8,89.91C192.97,89.92 193.13,89.92 193.3,89.93C193.47,89.94 193.63,89.95 193.8,89.96C193.97,89.97 194.13,89.97 194.3,89.97C194.47,89.98 194.63,89.99 194.8,89.99C194.97,89.99 195.13,89.99 195.3,89.99C195.46,89.99 195.63,90 195.79,90C195.96,90 196.12,90 196.29,90C196.46,90 196.62,90 196.79,90C196.96,90 197.12,90 197.29,90C197.46,90 197.62,90 197.79,90C197.96,90 198.12,90 198.29,90C198.45,90 198.62,90 198.78,90C198.95,90 199.11,90 199.28,90C199.45,90 199.61,90 199.78,90C199.95,90 200.11,89.99 200.28,89.99C200.45,89.99 200.61,89.98 200.78,89.98C200.95,89.98 201.11,89.97 201.28,89.97C201.45,89.96 201.61,89.96 201.78,89.95C201.94,89.94 202.11,89.94 202.27,89.93C202.44,89.92 202.6,89.92 202.77,89.91C202.94,89.9 203.1,89.89 203.27,89.89C203.44,89.89 203.6,89.89 203.77,89.89C203.94,89.89 204.1,89.89 204.27,89.89C204.44,89.89 204.6,89.9 204.77,89.91C204.93,89.92 205.1,89.92 205.26,89.93C205.43,89.94 205.59,89.94 205.76,89.95C205.93,89.96 206.09,89.96 206.26,89.97Q206.43,89.97 206.76,89.98L206.76,90" style="vector-effect: non-scaling-stroke; stroke-width: 2px; stroke: rgb(255, 127, 14); stroke-opacity: 1; fill: rgb(255, 127, 14); fill-opacity: 0.5;"/></g></g></g><g class="overplot"/><path class="xlines-above crisp" d="M0,0" style="fill: none;"/><path class="ylines-above crisp" d="M0,0" style="fill: none;"/><g class="overlines-above"/><g class="xaxislayer-above"><g class="xtick"><text text-anchor="middle" x="0" y="213" transform="translate(69.44,0)" style="font-family: 'Open Sans', verdana, arial, sans-serif; font-size: 12px; fill: rgb(68, 68, 68); fill-opacity: 1; white-space: pre;">1.2</text></g><g class="xtick"><text text-anchor="middle" x="0" y="213" transform="translate(149.41,0)" style="font-family: 'Open Sans', verdana, arial, sans-serif; font-size: 12px; fill: rgb(68, 68, 68); fill-opacity: 1; white-space: pre;">1.4</text></g><g class="xtick"><text text-anchor="middle" x="0" y="213" transform="translate(229.37,0)" style="font-family: 'Open Sans', verdana, arial, sans-serif; font-size: 12px; fill: rgb(68, 68, 68); fill-opacity: 1; white-space: pre;">1.6</text></g></g><g class="yaxislayer-above"/><g class="overaxes-above"/></g></g><g class="polarlayer"/><g class="ternarylayer"/><g class="geolayer"/><g class="funnelarealayer"/><g class="pielayer"/><g class="treemaplayer"/><g class="sunburstlayer"/><g class="glimages"/><defs id="topdefs-7b3d2b"><g class="clips"/></defs><g class="layer-above"><g class="imagelayer"/><g class="shapelayer"/></g><g class="infolayer"><g class="g-gtitle"/><g class="g-xtitle" transform="translate(0,-6.953125)"><text class="xtitle" x="165" y="252" text-anchor="middle" style="font-family: 'Open Sans', verdana, arial, sans-serif; font-size: 14px; fill: rgb(68, 68, 68); opacity: 1; font-weight: normal; white-space: pre;">O​<tspan style="font-size:70%" dy="0.3em">2</tspan><tspan dy="-0.21em">​</tspan>   (mol C-mol ​<tspan style="font-size:70%" dy="-0.6em">-1</tspan><tspan dy="0.42em">​</tspan>)</text></g><g class="g-ytitle"/></g></svg>