<svg class="main-svg" xmlns="http://www.w3.org/2000/svg" xmlns:xlink="http://www.w3.org/1999/xlink" width="286" height="250" style="" viewBox="0 0 286 250"><rect x="0" y="0" width="286" height="250" style="fill: rgb(255, 255, 255); fill-opacity: 1;"/><defs id="defs-2863bb"><g class="clips"><clipPath id="clip2863bbxyplot" class="plotclip"><rect width="226" height="170"/></clipPath><clipPath class="axesclip" id="clip2863bbx"><rect x="40" y="0" width="226" height="250"/></clipPath><clipPath class="axesclip" id="clip2863bby"><rect x="0" y="20" width="286" height="170"/></clipPath><clipPath class="axesclip" id="clip2863bbxy"><rect x="40" y="20" width="226" height="170"/></clipPath></g><g class="gradients"/></defs><g class="bglayer"/><g class="layer-below"><g class="imagelayer"/><g class="shapelayer"/></g><g class="cartesianlayer"><g class="subplot xy"><g class="layer-subplot"><g class="shapelayer"/><g class="imagelayer"/></g><g class="gridlayer"><g class="x"/><g class="y"><path class="ygrid crisp" transform="translate(0,181.5)" d="M40,0h226" style="stroke: rgb(238, 238, 238); stroke-opacity: 1; stroke-width: 1px;"/><path class="ygrid crisp" transform="translate(0,130.5)" d="M40,0h226" style="stroke: rgb(238, 238, 238); stroke-opacity: 1; stroke-width: 1px;"/><path class="ygrid crisp" transform="translate(0,79.5)" d="M40,0h226" style="stroke: rgb(238, 238, 238); stroke-opacity: 1; stroke-width: 1px;"/></g></g><g class="zerolinelayer"/><path class="xlines-below"/><path class="ylines-below"/><g class="overlines-below"/><g class="xaxislayer-below"/><g class="yaxislayer-below"/><g class="overaxes-below"/><g class="plot" transform="translate(40,20)" clip-path="url('#clip2863bbxyplot')"><g class="violinlayer mlayer"><g class="trace violins" style="opacity: 1;"><path class="violin" d="M114.44,161.5L114.44,161.49Q114.47,161.48 114.49,161.48C114.51,161.48 114.53,161.47 114.55,161.47C114.57,161.47 114.58,161.46 114.6,161.46C114.62,161.45 114.63,161.45 114.65,161.44C114.67,161.43 114.69,161.42 114.71,161.41C114.73,161.4 114.74,161.4 114.76,161.39C114.78,161.38 114.8,161.37 114.82,161.35C114.84,161.34 114.85,161.32 114.87,161.3C114.89,161.28 114.9,161.25 114.92,161.23C114.94,161.2 114.96,161.18 114.98,161.15C115,161.12 115.01,161.08 115.03,161.05C115.05,161.02 115.07,160.98 115.09,160.95C115.11,160.92 115.12,160.89 115.14,160.86C115.16,160.83 115.17,160.8 115.19,160.77C115.21,160.74 115.23,160.71 115.25,160.68C115.27,160.65 115.28,160.62 115.3,160.59C115.32,160.56 115.34,160.53 115.36,160.49C115.38,160.45 115.39,160.4 115.41,160.36C115.43,160.31 115.44,160.27 115.46,160.22C115.48,160.16 115.5,160.1 115.52,160.03C115.54,159.96 115.55,159.89 115.57,159.81C115.59,159.72 115.61,159.63 115.63,159.53C115.65,159.42 115.66,159.29 115.68,159.16C115.7,159.01 115.71,158.86 115.73,158.69C115.75,158.5 115.77,158.3 115.79,158.1C115.81,157.88 115.82,157.64 115.84,157.41C115.86,157.17 115.88,156.92 115.9,156.67C115.92,156.42 115.93,156.16 115.95,155.9C115.97,155.65 115.98,155.39 116,155.14C116.02,154.88 116.04,154.63 116.06,154.36C116.08,154.08 116.09,153.8 116.11,153.5C116.13,153.18 116.15,152.84 116.17,152.49C116.19,152.1 116.2,151.68 116.22,151.25C116.24,150.78 116.25,150.29 116.27,149.79C116.29,149.26 116.31,148.7 116.33,148.14C116.35,147.56 116.36,146.96 116.38,146.37C116.4,145.77 116.42,145.16 116.44,144.56C116.46,143.96 116.47,143.37 116.49,142.78C116.51,142.21 116.52,141.64 116.54,141.08C116.56,140.53 116.58,139.99 116.6,139.45C116.62,138.92 116.63,138.39 116.65,137.87C116.67,137.35 116.69,136.83 116.71,136.31C116.73,135.78 116.74,135.24 116.76,134.69C116.78,134.13 116.79,133.56 116.81,132.98C116.83,132.38 116.85,131.76 116.87,131.13C116.89,130.48 116.9,129.81 116.92,129.14C116.94,128.45 116.96,127.74 116.98,127.04C117,126.33 117.01,125.61 117.03,124.9C117.05,124.19 117.06,123.48 117.08,122.79C117.1,122.11 117.12,121.44 117.14,120.79C117.16,120.17 117.17,119.55 117.19,118.96C117.21,118.4 117.23,117.86 117.25,117.34C117.27,116.85 117.28,116.37 117.3,115.9C117.32,115.46 117.33,115.04 117.35,114.62C117.37,114.22 117.39,113.84 117.41,113.46C117.43,113.1 117.44,112.75 117.46,112.42C117.48,112.11 117.5,111.8 117.52,111.52C117.54,111.28 117.55,111.04 117.57,110.85C117.58,110.71 117.58,110.52 117.62,110.5C117.64,110.49 117.66,110.51 117.68,110.53C117.72,110.59 117.71,110.79 117.73,110.95C117.75,111.16 117.77,111.43 117.79,111.7C117.81,112.01 117.82,112.36 117.84,112.7C117.86,113.06 117.87,113.43 117.89,113.8C117.91,114.17 117.93,114.54 117.95,114.91C117.97,115.27 117.98,115.62 118,115.97C118.02,116.32 118.04,116.66 118.06,117.01C118.08,117.37 118.09,117.72 118.11,118.1C118.13,118.5 118.14,118.91 118.16,119.34C118.18,119.81 118.2,120.3 118.22,120.8C118.24,121.34 118.25,121.91 118.27,122.49C118.29,123.1 118.31,123.72 118.33,124.35C118.35,124.99 118.36,125.66 118.38,126.31C118.4,126.97 118.41,127.62 118.43,128.28C118.45,128.93 118.47,129.59 118.49,130.24C118.51,130.89 118.52,131.54 118.54,132.19C118.56,132.84 118.58,133.49 118.6,134.15C118.62,134.81 118.63,135.47 118.65,136.13C118.67,136.79 118.68,137.45 118.7,138.11C118.72,138.76 118.74,139.4 118.76,140.04C118.78,140.67 118.79,141.3 118.81,141.92C118.83,142.53 118.85,143.13 118.87,143.72C118.89,144.3 118.9,144.89 118.92,145.46C118.94,146.02 118.95,146.57 118.97,147.11C118.99,147.63 119.01,148.14 119.03,148.63C119.05,149.09 119.06,149.54 119.08,149.97C119.1,150.37 119.12,150.75 119.14,151.11C119.16,151.45 119.17,151.77 119.19,152.08C119.21,152.38 119.22,152.66 119.24,152.94C119.26,153.22 119.28,153.49 119.3,153.77C119.32,154.05 119.33,154.33 119.35,154.6C119.37,154.87 119.39,155.14 119.41,155.41C119.43,155.67 119.44,155.93 119.46,156.17C119.48,156.39 119.49,156.6 119.51,156.8C119.53,156.98 119.55,157.14 119.57,157.3C119.59,157.44 119.6,157.57 119.62,157.69C119.64,157.8 119.66,157.9 119.68,158C119.7,158.1 119.71,158.2 119.73,158.3C119.75,158.4 119.76,158.5 119.78,158.61C119.8,158.72 119.82,158.83 119.84,158.95C119.86,159.07 119.87,159.19 119.89,159.31C119.91,159.43 119.93,159.55 119.95,159.67C119.97,159.79 119.98,159.91 120,160.02C120.02,160.13 120.03,160.23 120.05,160.33C120.07,160.42 120.09,160.51 120.11,160.59C120.13,160.66 120.14,160.74 120.16,160.8C120.18,160.85 120.2,160.9 120.22,160.95C120.24,160.99 120.25,161.03 120.27,161.06C120.29,161.09 120.3,161.12 120.32,161.14C120.34,161.16 120.36,161.17 120.38,161.18C120.4,161.19 120.41,161.21 120.43,161.22C120.45,161.23 120.47,161.23 120.49,161.24C120.51,161.25 120.52,161.26 120.54,161.27C120.56,161.28 120.57,161.29 120.59,161.3C120.61,161.31 120.63,161.33 120.65,161.34C120.67,161.35 120.68,161.36 120.7,161.37C120.72,161.38 120.74,161.4 120.76,161.41C120.78,161.42 120.79,161.43 120.81,161.44C120.83,161.45 120.84,161.45 120.86,161.46C120.88,161.47 120.9,161.47 120.92,161.48Q120.94,161.48 120.97,161.49L120.97,161.5" style="vector-effect: non-scaling-stroke; stroke-width: 2px; stroke: rgb(102, 194, 164); stroke-opacity: 1; fill: rgb(102, 194, 164); fill-opacity: 0.5;"/><path class="meanline" d="M117.69,110.5494613647461V161.5" style="fill: none; vector-effect: non-scaling-stroke; stroke-width: 2px; stroke-dasharray: 4px, 2px; stroke: rgb(102, 194, 164); stroke-opacity: 1;"/></g><g class="trace violins" style="opacity: 1;"><path class="violin" d="M122.56,110.5L122.56,110.49Q122.61,110.48 122.64,110.48C122.66,110.48 122.69,110.47 122.71,110.47C122.73,110.47 122.76,110.46 122.78,110.46C122.8,110.45 122.83,110.45 122.85,110.44C122.87,110.43 122.9,110.42 122.92,110.41C122.94,110.4 122.97,110.39 122.99,110.38C123.01,110.37 123.04,110.36 123.06,110.35C123.08,110.33 123.11,110.31 123.13,110.29C123.15,110.27 123.18,110.25 123.2,110.22C123.23,110.19 123.26,110.15 123.28,110.11C123.31,110.07 123.33,110.03 123.35,109.98C123.37,109.93 123.4,109.87 123.42,109.82C123.44,109.76 123.47,109.71 123.49,109.65C123.51,109.59 123.54,109.53 123.56,109.47C123.58,109.41 123.61,109.36 123.63,109.3C123.65,109.24 123.68,109.19 123.7,109.13C123.72,109.07 123.75,109.02 123.77,108.96C123.79,108.9 123.82,108.83 123.84,108.76C123.87,108.68 123.9,108.6 123.92,108.52C123.95,108.43 123.97,108.34 123.99,108.24C124.01,108.13 124.04,108.02 124.06,107.9C124.08,107.77 124.11,107.63 124.13,107.49C124.15,107.34 124.18,107.18 124.2,107.02C124.22,106.84 124.25,106.66 124.27,106.47C124.29,106.26 124.32,106.05 124.34,105.83C124.36,105.6 124.39,105.37 124.41,105.14C124.43,104.9 124.46,104.64 124.48,104.39C124.51,104.13 124.54,103.87 124.56,103.61C124.59,103.35 124.61,103.08 124.63,102.81C124.65,102.53 124.68,102.25 124.7,101.97C124.72,101.68 124.75,101.38 124.77,101.07C124.79,100.75 124.82,100.42 124.84,100.08C124.86,99.72 124.89,99.36 124.91,98.98C124.93,98.59 124.96,98.18 124.98,97.77C125,97.35 125.03,96.91 125.05,96.48C125.07,96.04 125.1,95.6 125.12,95.15C125.14,94.7 125.17,94.24 125.19,93.78C125.22,93.32 125.25,92.85 125.27,92.38C125.3,91.9 125.32,91.42 125.34,90.93C125.36,90.43 125.39,89.93 125.41,89.42C125.43,88.9 125.46,88.37 125.48,87.83C125.5,87.28 125.53,86.73 125.55,86.17C125.57,85.59 125.6,85.01 125.62,84.42C125.64,83.82 125.67,83.22 125.69,82.61C125.71,81.99 125.74,81.36 125.76,80.72C125.78,80.07 125.81,79.42 125.83,78.76C125.86,78.1 125.88,77.43 125.91,76.77C125.93,76.11 125.96,75.45 125.98,74.81C126,74.19 126.03,73.58 126.05,73C126.07,72.45 126.1,71.91 126.12,71.4C126.14,70.93 126.17,70.49 126.19,70.06C126.21,69.67 126.24,69.3 126.26,68.94C126.28,68.6 126.31,68.29 126.33,67.97C126.35,67.65 126.38,67.34 126.4,67.01C126.42,66.67 126.45,66.33 126.47,65.97C126.5,65.59 126.53,65.2 126.55,64.8C126.58,64.38 126.6,63.94 126.62,63.51C126.64,63.08 126.67,62.63 126.69,62.2C126.71,61.79 126.73,61.38 126.76,61.01C126.78,60.69 126.8,60.37 126.83,60.11C126.85,59.91 126.86,59.69 126.9,59.59C126.92,59.54 126.95,59.5 126.97,59.5C127,59.51 127.02,59.7 127.04,59.83C127.07,60.02 127.09,60.28 127.11,60.54C127.14,60.86 127.17,61.22 127.19,61.59C127.22,62.01 127.24,62.46 127.26,62.92C127.28,63.42 127.31,63.94 127.33,64.47C127.35,65.03 127.38,65.6 127.4,66.18C127.42,66.78 127.45,67.39 127.47,68C127.49,68.63 127.52,69.26 127.54,69.9C127.56,70.55 127.59,71.22 127.61,71.88C127.63,72.55 127.66,73.23 127.68,73.91C127.7,74.59 127.72,75.27 127.75,75.94C127.77,76.6 127.8,77.25 127.83,77.9C127.85,78.53 127.88,79.16 127.9,79.78C127.92,80.39 127.95,80.99 127.97,81.59C127.99,82.19 128.02,82.78 128.04,83.39C128.06,84.01 128.09,84.63 128.11,85.26C128.13,85.91 128.16,86.56 128.18,87.22C128.2,87.89 128.23,88.58 128.25,89.26C128.27,89.94 128.3,90.64 128.32,91.31C128.34,91.97 128.36,92.62 128.39,93.26C128.41,93.87 128.44,94.48 128.47,95.07C128.49,95.63 128.52,96.17 128.54,96.7C128.56,97.2 128.59,97.68 128.61,98.16C128.63,98.62 128.66,99.06 128.68,99.5C128.7,99.92 128.73,100.32 128.75,100.72C128.77,101.1 128.8,101.47 128.82,101.83C128.84,102.18 128.87,102.52 128.89,102.85C128.91,103.16 128.94,103.47 128.96,103.77C128.98,104.06 129,104.34 129.03,104.61C129.05,104.87 129.08,105.13 129.11,105.38C129.13,105.63 129.16,105.87 129.18,106.11C129.2,106.34 129.23,106.57 129.25,106.79C129.27,107 129.3,107.21 129.32,107.41C129.34,107.6 129.37,107.78 129.39,107.95C129.41,108.1 129.44,108.25 129.46,108.39C129.48,108.51 129.5,108.63 129.53,108.74C129.55,108.83 129.58,108.91 129.6,108.98C129.62,109.05 129.64,109.11 129.67,109.17C129.69,109.22 129.72,109.26 129.75,109.31C129.77,109.36 129.8,109.4 129.82,109.45C129.84,109.5 129.87,109.55 129.89,109.6C129.91,109.65 129.94,109.7 129.96,109.75C129.98,109.8 130.01,109.86 130.03,109.91C130.05,109.96 130.08,110.01 130.1,110.05C130.12,110.09 130.15,110.13 130.17,110.17C130.19,110.21 130.22,110.24 130.24,110.27C130.26,110.3 130.28,110.33 130.31,110.35C130.33,110.37 130.36,110.38 130.39,110.4C130.41,110.41 130.44,110.43 130.46,110.44C130.48,110.45 130.51,110.46 130.53,110.47Q130.55,110.48 130.6,110.48L130.6,110.5" style="vector-effect: non-scaling-stroke; stroke-width: 2px; stroke: rgb(102, 194, 164); stroke-opacity: 1; fill: rgb(102, 194, 164); fill-opacity: 0.5;"/><path class="meanline" d="M126.8,60.429527282714844V110.5" style="fill: none; vector-effect: non-scaling-stroke; stroke-width: 2px; stroke-dasharray: 4px, 2px; stroke: rgb(102, 194, 164); stroke-opacity: 1;"/></g><g class="trace violins" style="opacity: 1;"><path class="violin" d="M48.71,59.5L48.71,59.43Q49.25,59.38 49.51,59.32C49.78,59.26 50.04,59.19 50.3,59.07C50.57,58.94 50.85,58.78 51.1,58.57C51.38,58.33 51.64,58.02 51.89,57.66C52.18,57.24 52.44,56.72 52.69,56.16C52.98,55.5 53.23,54.73 53.48,53.93C53.76,53.02 54.02,52.01 54.28,50.99C54.55,49.9 54.8,48.73 55.07,47.61C55.33,46.5 55.59,45.34 55.87,44.31C56.12,43.4 56.34,42.42 56.66,41.74C56.9,41.24 57.16,40.61 57.46,40.54C57.7,40.48 58.02,40.73 58.25,40.99C58.6,41.39 58.81,42.25 59.05,43C59.35,43.9 59.58,45.01 59.84,46.06C60.11,47.17 60.37,48.37 60.64,49.5C60.9,50.59 61.15,51.69 61.43,52.7C61.68,53.61 61.94,54.5 62.23,55.28C62.48,55.95 62.73,56.57 63.02,57.1C63.27,57.54 63.53,57.94 63.82,58.26C64.07,58.53 64.33,58.74 64.61,58.91C64.86,59.06 65.14,59.16 65.41,59.24C65.67,59.32 65.93,59.36 66.2,59.4C66.46,59.44 66.73,59.44 67,59.46C67.26,59.47 67.53,59.48 67.79,59.49C68.06,59.5 68.32,59.5 68.59,59.5C68.85,59.5 69.12,59.5 69.38,59.5C69.65,59.5 69.91,59.5 70.18,59.5C70.44,59.5 70.71,59.5 70.97,59.5C71.24,59.5 71.5,59.5 71.77,59.5C72.03,59.5 72.3,59.5 72.56,59.5C72.83,59.5 73.09,59.49 73.36,59.49C73.62,59.49 73.89,59.49 74.15,59.48C74.42,59.47 74.68,59.47 74.95,59.45C75.21,59.43 75.48,59.41 75.74,59.36C76.01,59.31 76.28,59.26 76.54,59.16C76.81,59.06 77.08,58.93 77.33,58.74C77.61,58.53 77.89,58.25 78.13,57.91C78.43,57.5 78.68,56.99 78.92,56.41C79.22,55.69 79.48,54.83 79.72,53.89C80.02,52.74 80.26,51.42 80.51,50.02C80.8,48.36 81.06,46.49 81.31,44.56C81.59,42.38 81.84,39.98 82.1,37.57C82.37,34.98 82.64,32.21 82.9,29.52C83.17,26.81 83.41,23.98 83.69,21.36C83.95,18.93 84.19,16.43 84.49,14.34C84.73,12.64 84.88,10.76 85.28,9.74C85.5,9.17 85.84,8.47 86.08,8.5C86.39,8.54 86.64,9.91 86.87,10.88C87.21,12.32 87.42,14.39 87.67,16.37C87.96,18.68 88.2,21.35 88.46,23.92C88.73,26.61 88.99,29.47 89.26,32.19C89.52,34.83 89.77,37.51 90.05,39.99C90.3,42.27 90.56,44.51 90.85,46.53C91.1,48.29 91.35,49.98 91.64,51.47C91.89,52.71 92.14,53.87 92.44,54.87C92.68,55.68 92.93,56.42 93.23,57.02C93.47,57.51 93.74,57.93 94.03,58.26C94.27,58.54 94.54,58.75 94.82,58.92C95.07,59.07 95.35,59.17 95.62,59.25Q95.88,59.33 96.41,59.4L96.41,59.5" style="vector-effect: non-scaling-stroke; stroke-width: 2px; stroke: rgb(102, 194, 164); stroke-opacity: 1; fill: rgb(102, 194, 164); fill-opacity: 0.5;"/><path class="meanline" d="M78.87,56.53047561645508V59.5" style="fill: none; vector-effect: non-scaling-stroke; stroke-width: 2px; stroke-dasharray: 4px, 2px; stroke: rgb(102, 194, 164); stroke-opacity: 1;"/></g></g></g><g class="overplot"/><path class="xlines-above crisp" d="M0,0" style="fill: none;"/><path class="ylines-above crisp" d="M0,0" style="fill: none;"/><g class="overlines-above"/><g class="xaxislayer-above"><g class="xtick"><text text-anchor="start" x="0" y="203" transform="translate(40,0) rotate(90,0,197)" style="font-family: 'Open Sans', verdana, arial, sans-serif; font-size: 12px; fill: rgb(68, 68, 68); fill-opacity: 1; white-space: pre;">−1</text></g><g class="xtick"><text text-anchor="start" x="0" y="203" transform="translate(68.25,0) rotate(90,0,197)" style="font-family: 'Open Sans', verdana, arial, sans-serif; font-size: 12px; fill: rgb(68, 68, 68); fill-opacity: 1; white-space: pre;">−0.75</text></g><g class="xtick"><text text-anchor="start" x="0" y="203" transform="translate(96.5,0) rotate(90,0,197)" style="font-family: 'Open Sans', verdana, arial, sans-serif; font-size: 12px; fill: rgb(68, 68, 68); fill-opacity: 1; white-space: pre;">−0.5</text></g><g class="xtick"><text text-anchor="start" x="0" y="203" transform="translate(124.75,0) rotate(90,0,197)" style="font-family: 'Open Sans', verdana, arial, sans-serif; font-size: 12px; fill: rgb(68, 68, 68); fill-opacity: 1; white-space: pre;">−0.25</text></g><g class="xtick"><text text-anchor="start" x="0" y="203" transform="translate(153,0) rotate(90,0,197)" style="font-family: 'Open Sans', verdana, arial, sans-serif; font-size: 12px; fill: rgb(68, 68, 68); fill-opacity: 1; white-space: pre;">0</text></g><g class="xtick"><text text-anchor="start" x="0" y="203" transform="translate(181.25,0) rotate(90,0,197)" style="font-family: 'Open Sans', verdana, arial, sans-serif; font-size: 12px; fill: rgb(68, 68, 68); fill-opacity: 1; white-space: pre;">0.25</text></g><g class="xtick"><text text-anchor="start" x="0" y="203" transform="translate(209.5,0) rotate(90,0,197)" style="font-family: 'Open Sans', verdana, arial, sans-serif; font-size: 12px; fill: rgb(68, 68, 68); fill-opacity: 1; white-space: pre;">0.5</text></g><g class="xtick"><text text-anchor="start" x="0" y="203" transform="translate(237.75,0) rotate(90,0,197)" style="font-family: 'Open Sans', verdana, arial, sans-serif; font-size: 12px; fill: rgb(68, 68, 68); fill-opacity: 1; white-space: pre;">0.75</text></g><g class="xtick"><text text-anchor="start" x="0" y="203" transform="translate(266,0) rotate(90,0,197)" style="font-family: 'Open Sans', verdana, arial, sans-serif; font-size: 12px; fill: rgb(68, 68, 68); fill-opacity: 1; white-space: pre;">1</text></g></g><g class="yaxislayer-above"><g class="ytick"><text text-anchor="end" x="39" y="4.199999999999999" transform="translate(0,181.5)" style="font-family: 'Open Sans', verdana, arial, sans-serif; font-size: 12px; fill: rgb(68, 68, 68); fill-opacity: 1; white-space: pre;">Meis</text></g><g class="ytick"><text text-anchor="end" x="39" y="4.199999999999999" transform="translate(0,130.5)" style="font-family: 'Open Sans', verdana, arial, sans-serif; font-size: 12px; fill: rgb(68, 68, 68); fill-opacity: 1; white-space: pre;">Meus</text></g><g class="ytick"><text text-anchor="end" x="39" y="4.199999999999999" transform="translate(0,79.5)" style="font-family: 'Open Sans', verdana, arial, sans-serif; font-size: 12px; fill: rgb(68, 68, 68); fill-opacity: 1; white-space: pre;">Seum</text></g></g><g class="overaxes-above"/></g></g><g class="polarlayer"/><g class="ternarylayer"/><g class="geolayer"/><g class="funnelarealayer"/><g class="pielayer"/><g class="treemaplayer"/><g class="sunburstlayer"/><g class="glimages"/><defs id="topdefs-2863bb"><g class="clips"/></defs><g class="layer-above"><g class="imagelayer"/><g class="shapelayer"><path data-index="0" fill-rule="evenodd" d="M141.7,181.5L141.7,28.5" clip-path="url('#clip2863bbxy')" style="opacity: 1; stroke: rgb(0, 0, 0); stroke-opacity: 1; fill: rgb(0, 0, 0); fill-opacity: 0; stroke-dasharray: 9px, 9px; stroke-width: 2px;"/><path data-index="1" fill-rule="evenodd" d="M164.3,181.5L164.3,28.5" clip-path="url('#clip2863bbxy')" style="opacity: 1; stroke: rgb(0, 0, 0); stroke-opacity: 1; fill: rgb(0, 0, 0); fill-opacity: 0; stroke-dasharray: 9px, 9px; stroke-width: 2px;"/></g></g><g class="infolayer"><g class="g-gtitle"/><g class="g-xtitle" transform="translate(0,0.703125)"><text class="xtitle" x="153" y="242" text-anchor="middle" style="font-family: 'Open Sans', verdana, arial, sans-serif; font-size: 14px; fill: rgb(68, 68, 68); opacity: 1; font-weight: normal; white-space: pre;">Coeficiente de Interacción</text></g><g class="g-ytitle"/></g></svg>