<svg class="main-svg" xmlns="http://www.w3.org/2000/svg" xmlns:xlink="http://www.w3.org/1999/xlink" width="286" height="250" style="" viewBox="0 0 286 250"><rect x="0" y="0" width="286" height="250" style="fill: rgb(255, 255, 255); fill-opacity: 1;"/><defs id="defs-f64bec"><g class="clips"><clipPath id="clipf64becxyplot" class="plotclip"><rect width="226" height="170"/></clipPath><clipPath class="axesclip" id="clipf64becx"><rect x="40" y="0" width="226" height="250"/></clipPath><clipPath class="axesclip" id="clipf64becy"><rect x="0" y="20" width="286" height="170"/></clipPath><clipPath class="axesclip" id="clipf64becxy"><rect x="40" y="20" width="226" height="170"/></clipPath></g><g class="gradients"/></defs><g class="bglayer"/><g class="layer-below"><g class="imagelayer"/><g class="shapelayer"/></g><g class="cartesianlayer"><g class="subplot xy"><g class="layer-subplot"><g class="shapelayer"/><g class="imagelayer"/></g><g class="gridlayer"><g class="x"/><g class="y"><path class="ygrid crisp" transform="translate(0,181.5)" d="M40,0h226" style="stroke: rgb(238, 238, 238); stroke-opacity: 1; stroke-width: 1px;"/><path class="ygrid crisp" transform="translate(0,143.25)" d="M40,0h226" style="stroke: rgb(238, 238, 238); stroke-opacity: 1; stroke-width: 1px;"/><path class="ygrid crisp" transform="translate(0,105)" d="M40,0h226" style="stroke: rgb(238, 238, 238); stroke-opacity: 1; stroke-width: 1px;"/><path class="ygrid crisp" transform="translate(0,66.75)" d="M40,0h226" style="stroke: rgb(238, 238, 238); stroke-opacity: 1; stroke-width: 1px;"/></g></g><g class="zerolinelayer"/><path class="xlines-below"/><path class="ylines-below"/><g class="overlines-below"/><g class="xaxislayer-below"/><g class="yaxislayer-below"/><g class="overaxes-below"/><g class="plot" transform="translate(40,20)" clip-path="url('#clipf64becxyplot')"><g class="violinlayer mlayer"><g class="trace violins" style="opacity: 1;"><path class="violin" d="M128.06,161.5L128.06,161.49Q128.11,161.49 128.13,161.49C128.15,161.49 128.18,161.48 128.2,161.48C128.22,161.48 128.25,161.47 128.27,161.47C128.29,161.47 128.31,161.46 128.33,161.46C128.35,161.46 128.38,161.45 128.4,161.45C128.42,161.45 128.45,161.45 128.47,161.45C128.49,161.45 128.51,161.44 128.53,161.44C128.55,161.44 128.58,161.44 128.6,161.44C128.62,161.44 128.65,161.43 128.67,161.42C128.69,161.41 128.72,161.4 128.74,161.39C128.76,161.37 128.78,161.35 128.8,161.33C128.82,161.31 128.85,161.28 128.87,161.25C128.89,161.22 128.92,161.18 128.94,161.15C128.96,161.11 128.98,161.08 129,161.04C129.02,161 129.05,160.97 129.07,160.93C129.09,160.89 129.12,160.85 129.14,160.81C129.16,160.77 129.19,160.73 129.21,160.69C129.23,160.65 129.25,160.6 129.27,160.56C129.29,160.51 129.32,160.46 129.34,160.41C129.36,160.36 129.39,160.3 129.41,160.24C129.43,160.17 129.45,160.1 129.47,160.03C129.49,159.96 129.52,159.89 129.54,159.81C129.56,159.73 129.59,159.64 129.61,159.55C129.63,159.46 129.66,159.36 129.68,159.26C129.7,159.15 129.72,159.04 129.74,158.93C129.76,158.81 129.79,158.68 129.81,158.55C129.83,158.41 129.86,158.26 129.88,158.1C129.9,157.93 129.92,157.76 129.94,157.58C129.96,157.39 129.99,157.19 130.01,156.99C130.03,156.78 130.06,156.55 130.08,156.33C130.1,156.1 130.13,155.85 130.15,155.61C130.17,155.36 130.19,155.1 130.21,154.83C130.23,154.55 130.26,154.26 130.28,153.96C130.3,153.65 130.33,153.33 130.35,153C130.37,152.66 130.39,152.31 130.41,151.96C130.43,151.6 130.46,151.23 130.48,150.86C130.5,150.48 130.53,150.1 130.55,149.72C130.57,149.33 130.6,148.93 130.62,148.53C130.64,148.13 130.66,147.72 130.68,147.31C130.7,146.88 130.73,146.45 130.75,146.01C130.77,145.55 130.8,145.09 130.82,144.61C130.84,144.11 130.86,143.61 130.88,143.09C130.9,142.55 130.93,142 130.95,141.44C130.97,140.87 131,140.28 131.02,139.69C131.04,139.09 131.06,138.47 131.08,137.86C131.1,137.24 131.13,136.62 131.15,136.01C131.17,135.41 131.2,134.81 131.22,134.22C131.24,133.65 131.27,133.07 131.29,132.52C131.31,131.99 131.33,131.47 131.35,130.97C131.37,130.49 131.4,130.02 131.42,129.56C131.44,129.12 131.47,128.69 131.49,128.28C131.51,127.89 131.53,127.5 131.55,127.14C131.57,126.81 131.59,126.48 131.62,126.19C131.64,125.94 131.66,125.69 131.69,125.48C131.71,125.32 131.73,125.15 131.76,125.04C131.78,124.97 131.79,124.89 131.82,124.86C131.84,124.84 131.87,124.84 131.89,124.85C131.91,124.86 131.94,124.9 131.96,124.9C131.98,124.9 132,124.88 132.02,124.86C132.05,124.82 132.07,124.75 132.09,124.68C132.12,124.59 132.14,124.47 132.16,124.35C132.19,124.22 132.21,124.06 132.23,123.92C132.25,123.78 132.27,123.63 132.29,123.51C132.31,123.41 132.32,123.27 132.36,123.25C132.38,123.24 132.41,123.25 132.43,123.27C132.47,123.32 132.47,123.51 132.49,123.66C132.52,123.88 132.54,124.15 132.56,124.44C132.59,124.79 132.61,125.19 132.63,125.6C132.65,126.06 132.68,126.56 132.7,127.06C132.72,127.6 132.74,128.17 132.76,128.74C132.78,129.33 132.81,129.94 132.83,130.54C132.85,131.14 132.88,131.76 132.9,132.36C132.92,132.95 132.94,133.54 132.96,134.12C132.98,134.68 133.01,135.23 133.03,135.77C133.05,136.29 133.08,136.79 133.1,137.29C133.12,137.77 133.15,138.24 133.17,138.71C133.19,139.17 133.21,139.63 133.23,140.09C133.25,140.55 133.28,141.01 133.3,141.47C133.32,141.94 133.35,142.43 133.37,142.91C133.39,143.4 133.41,143.91 133.43,144.41C133.45,144.92 133.48,145.43 133.5,145.94C133.52,146.44 133.55,146.95 133.57,147.44C133.59,147.92 133.62,148.4 133.64,148.86C133.66,149.3 133.68,149.72 133.7,150.13C133.72,150.51 133.75,150.88 133.77,151.23C133.79,151.55 133.82,151.86 133.84,152.16C133.86,152.43 133.88,152.69 133.9,152.94C133.92,153.18 133.95,153.41 133.97,153.64C133.99,153.87 134.02,154.09 134.04,154.31C134.06,154.53 134.09,154.75 134.11,154.97C134.13,155.2 134.15,155.43 134.17,155.66C134.19,155.89 134.22,156.12 134.24,156.35C134.26,156.58 134.29,156.81 134.31,157.03C134.33,157.25 134.35,157.46 134.37,157.67C134.39,157.86 134.42,158.05 134.44,158.23C134.46,158.4 134.49,158.56 134.51,158.72C134.53,158.86 134.56,159 134.58,159.13C134.6,159.25 134.62,159.37 134.64,159.48C134.66,159.59 134.69,159.7 134.71,159.8C134.73,159.9 134.76,159.99 134.78,160.09C134.8,160.18 134.82,160.27 134.84,160.36C134.86,160.45 134.89,160.53 134.91,160.61C134.93,160.69 134.96,160.76 134.98,160.83C135,160.89 135.03,160.95 135.05,161.01C135.07,161.06 135.09,161.11 135.11,161.15C135.13,161.19 135.16,161.23 135.18,161.26C135.2,161.29 135.23,161.32 135.25,161.34C135.27,161.36 135.29,161.38 135.31,161.39C135.33,161.4 135.36,161.41 135.38,161.42C135.4,161.43 135.43,161.44 135.45,161.45C135.47,161.46 135.5,161.46 135.52,161.47C135.54,161.47 135.56,161.48 135.58,161.48C135.6,161.48 135.63,161.49 135.65,161.49Q135.67,161.49 135.72,161.49L135.72,161.5" style="vector-effect: non-scaling-stroke; stroke-width: 2px; stroke: rgb(102, 194, 164); stroke-opacity: 1; fill: rgb(102, 194, 164); fill-opacity: 0.5;"/><path class="meanline" d="M132.12,124.56356048583984V161.5" style="fill: none; vector-effect: non-scaling-stroke; stroke-width: 2px; stroke-dasharray: 4px, 2px; stroke: rgb(102, 194, 164); stroke-opacity: 1;"/></g><g class="trace violins" style="opacity: 1;"><path class="violin" d="M34.63,123.25L34.63,123.24Q34.68,123.24 34.71,123.24C34.73,123.24 34.76,123.23 34.78,123.23C34.81,123.23 34.83,123.22 34.86,123.22C34.88,123.22 34.91,123.21 34.93,123.21C34.96,123.21 34.98,123.2 35.01,123.2C35.03,123.2 35.06,123.2 35.08,123.2C35.11,123.2 35.13,123.2 35.16,123.2C35.18,123.2 35.21,123.21 35.23,123.21C35.26,123.21 35.28,123.22 35.31,123.22C35.33,123.22 35.36,123.22 35.38,123.22C35.4,123.22 35.43,123.23 35.45,123.23C35.48,123.23 35.5,123.23 35.53,123.22C35.55,123.22 35.58,123.21 35.6,123.2C35.63,123.19 35.66,123.18 35.68,123.17C35.71,123.16 35.73,123.14 35.75,123.12C35.78,123.1 35.8,123.08 35.83,123.06C35.85,123.04 35.88,123.01 35.9,122.99C35.93,122.97 35.95,122.94 35.98,122.92C36,122.9 36.03,122.87 36.05,122.85C36.08,122.82 36.11,122.8 36.13,122.77C36.16,122.74 36.18,122.71 36.2,122.67C36.22,122.63 36.25,122.59 36.27,122.54C36.3,122.49 36.33,122.43 36.35,122.37C36.38,122.31 36.4,122.24 36.42,122.17C36.45,122.09 36.48,122 36.5,121.91C36.53,121.81 36.55,121.71 36.57,121.61C36.6,121.5 36.63,121.38 36.65,121.26C36.68,121.14 36.7,121.01 36.72,120.88C36.75,120.75 36.78,120.61 36.8,120.48C36.83,120.34 36.85,120.21 36.87,120.07C36.9,119.93 36.93,119.78 36.95,119.63C36.98,119.48 37,119.33 37.02,119.17C37.05,119 37.08,118.83 37.1,118.65C37.13,118.46 37.15,118.27 37.17,118.07C37.19,117.85 37.22,117.63 37.24,117.4C37.27,117.15 37.3,116.9 37.32,116.64C37.35,116.36 37.37,116.07 37.39,115.77C37.42,115.46 37.45,115.14 37.47,114.81C37.5,114.47 37.52,114.12 37.54,113.77C37.57,113.42 37.59,113.06 37.62,112.71C37.64,112.36 37.66,112 37.69,111.65C37.71,111.3 37.74,110.96 37.77,110.62C37.79,110.28 37.82,109.94 37.84,109.59C37.87,109.23 37.9,108.88 37.92,108.5C37.95,108.1 37.97,107.69 37.99,107.26C38.02,106.8 38.05,106.31 38.07,105.81C38.1,105.27 38.12,104.71 38.14,104.13C38.16,103.52 38.19,102.88 38.21,102.24C38.24,101.59 38.26,100.92 38.29,100.27C38.31,99.62 38.33,98.97 38.36,98.34C38.38,97.74 38.41,97.14 38.44,96.57C38.46,96.04 38.48,95.52 38.51,95.03C38.53,94.57 38.56,94.13 38.59,93.7C38.61,93.29 38.63,92.91 38.66,92.52C38.68,92.14 38.71,91.77 38.74,91.4C38.76,91.03 38.79,90.67 38.81,90.3C38.84,89.93 38.86,89.55 38.89,89.18C38.91,88.81 38.93,88.45 38.96,88.09C38.98,87.75 39.01,87.41 39.04,87.09C39.06,86.8 39.08,86.51 39.11,86.25C39.13,86.02 39.15,85.8 39.18,85.61C39.2,85.45 39.23,85.3 39.26,85.19C39.28,85.11 39.3,85.02 39.33,85C39.35,84.99 39.39,84.99 39.41,85.01C39.45,85.04 39.46,85.14 39.48,85.22C39.51,85.33 39.54,85.46 39.56,85.6C39.59,85.76 39.61,85.95 39.63,86.14C39.66,86.35 39.69,86.59 39.71,86.82C39.74,87.07 39.76,87.32 39.78,87.58C39.81,87.85 39.84,88.12 39.86,88.39C39.89,88.66 39.91,88.94 39.93,89.21C39.96,89.48 39.98,89.76 40.01,90.03C40.03,90.3 40.06,90.57 40.08,90.85C40.1,91.13 40.13,91.42 40.15,91.71C40.18,92.02 40.21,92.34 40.23,92.67C40.26,93.02 40.28,93.38 40.3,93.76C40.33,94.16 40.36,94.57 40.38,95C40.41,95.45 40.43,95.92 40.45,96.4C40.48,96.9 40.51,97.42 40.53,97.94C40.56,98.48 40.58,99.03 40.6,99.58C40.63,100.14 40.66,100.71 40.68,101.28C40.71,101.85 40.72,102.42 40.75,102.99C40.77,103.56 40.8,104.12 40.83,104.68C40.85,105.22 40.88,105.76 40.9,106.29C40.92,106.8 40.94,107.31 40.97,107.81C40.99,108.29 41.02,108.76 41.05,109.22C41.07,109.67 41.09,110.11 41.12,110.54C41.14,110.96 41.17,111.37 41.2,111.78C41.22,112.18 41.24,112.57 41.27,112.95C41.29,113.32 41.32,113.68 41.35,114.03C41.37,114.37 41.39,114.7 41.42,115.02C41.44,115.32 41.47,115.61 41.5,115.9C41.52,116.17 41.54,116.43 41.57,116.69C41.59,116.93 41.62,117.17 41.65,117.4C41.67,117.62 41.69,117.84 41.72,118.05C41.74,118.26 41.77,118.46 41.8,118.66C41.82,118.86 41.85,119.05 41.87,119.24C41.89,119.42 41.91,119.6 41.94,119.78C41.96,119.95 41.99,120.12 42.02,120.28C42.04,120.43 42.06,120.59 42.09,120.73C42.11,120.86 42.14,121 42.17,121.12C42.19,121.23 42.21,121.35 42.24,121.45C42.26,121.54 42.29,121.62 42.32,121.7C42.34,121.77 42.36,121.83 42.39,121.89C42.41,121.94 42.44,121.99 42.47,122.04C42.49,122.08 42.52,122.13 42.54,122.17C42.57,122.21 42.6,122.26 42.62,122.3C42.65,122.35 42.67,122.39 42.69,122.44C42.72,122.49 42.74,122.54 42.77,122.59C42.79,122.64 42.82,122.68 42.84,122.73C42.86,122.77 42.88,122.82 42.91,122.86C42.93,122.9 42.96,122.93 42.99,122.96C43.01,122.99 43.03,123.01 43.06,123.03C43.08,123.05 43.11,123.06 43.14,123.08C43.16,123.09 43.19,123.11 43.21,123.12C43.24,123.13 43.26,123.13 43.29,123.14C43.31,123.14 43.34,123.15 43.36,123.15C43.39,123.16 43.41,123.16 43.44,123.17C43.46,123.17 43.49,123.18 43.51,123.18C43.54,123.19 43.56,123.19 43.59,123.2C43.61,123.2 43.64,123.21 43.66,123.21C43.69,123.22 43.71,123.22 43.74,123.23C43.76,123.23 43.79,123.24 43.81,123.24Q43.83,123.24 43.88,123.24L43.88,123.25" style="vector-effect: non-scaling-stroke; stroke-width: 2px; stroke: rgb(102, 194, 164); stroke-opacity: 1; fill: rgb(102, 194, 164); fill-opacity: 0.5;"/><path class="meanline" d="M39.45,85.08584594726562V123.25" style="fill: none; vector-effect: non-scaling-stroke; stroke-width: 2px; stroke-dasharray: 4px, 2px; stroke: rgb(102, 194, 164); stroke-opacity: 1;"/></g><g class="trace violins" style="opacity: 1;"><path class="violin" d="M117.36,85L117.36,84.99Q117.41,84.98 117.43,84.98C117.45,84.98 117.48,84.98 117.5,84.97C117.52,84.96 117.55,84.95 117.57,84.94C117.59,84.93 117.62,84.93 117.64,84.92C117.66,84.91 117.69,84.89 117.71,84.88C117.73,84.87 117.76,84.86 117.78,84.85C117.8,84.84 117.83,84.83 117.85,84.82C117.87,84.81 117.9,84.8 117.92,84.79C117.94,84.78 117.97,84.78 117.99,84.77C118.01,84.76 118.04,84.74 118.06,84.73C118.08,84.72 118.11,84.71 118.13,84.69C118.15,84.67 118.18,84.65 118.2,84.63C118.22,84.61 118.25,84.58 118.27,84.55C118.29,84.52 118.32,84.49 118.34,84.45C118.36,84.41 118.39,84.36 118.41,84.31C118.44,84.25 118.46,84.19 118.48,84.12C118.5,84.05 118.53,83.97 118.55,83.89C118.57,83.8 118.6,83.71 118.62,83.61C118.64,83.5 118.66,83.39 118.68,83.28C118.7,83.16 118.73,83.02 118.75,82.89C118.77,82.75 118.8,82.6 118.82,82.45C118.84,82.29 118.87,82.13 118.89,81.96C118.91,81.78 118.94,81.6 118.96,81.42C118.98,81.23 119.01,81.04 119.03,80.85C119.05,80.65 119.08,80.45 119.1,80.25C119.12,80.04 119.15,79.83 119.17,79.61C119.19,79.38 119.22,79.15 119.24,78.9C119.26,78.64 119.29,78.36 119.31,78.08C119.33,77.78 119.36,77.46 119.38,77.13C119.4,76.78 119.43,76.41 119.45,76.04C119.47,75.65 119.5,75.24 119.52,74.83C119.54,74.4 119.57,73.96 119.59,73.52C119.61,73.07 119.64,72.62 119.66,72.16C119.68,71.7 119.71,71.23 119.73,70.77C119.75,70.3 119.78,69.83 119.8,69.36C119.82,68.89 119.85,68.43 119.87,67.96C119.89,67.5 119.92,67.03 119.94,66.57C119.96,66.11 119.99,65.66 120.01,65.2C120.03,64.75 120.05,64.3 120.07,63.84C120.09,63.37 120.12,62.91 120.14,62.43C120.16,61.94 120.19,61.45 120.21,60.95C120.23,60.43 120.26,59.9 120.28,59.36C120.3,58.81 120.33,58.26 120.35,57.7C120.37,57.14 120.4,56.57 120.42,56.01C120.44,55.46 120.47,54.92 120.49,54.39C120.51,53.89 120.54,53.39 120.56,52.91C120.58,52.46 120.61,52.02 120.63,51.6C120.65,51.2 120.68,50.82 120.7,50.45C120.72,50.1 120.75,49.77 120.77,49.45C120.79,49.16 120.82,48.88 120.84,48.61C120.86,48.37 120.88,48.14 120.91,47.93C120.93,47.75 120.95,47.57 120.98,47.42C121,47.29 121.02,47.17 121.05,47.07C121.07,46.99 121.09,46.91 121.12,46.85C121.14,46.81 121.16,46.76 121.19,46.75C121.21,46.74 121.24,46.75 121.26,46.77C121.29,46.8 121.31,46.89 121.33,46.97C121.36,47.08 121.38,47.22 121.4,47.37C121.43,47.56 121.44,47.78 121.46,48.01C121.48,48.27 121.51,48.55 121.53,48.83C121.55,49.13 121.58,49.45 121.6,49.77C121.62,50.1 121.65,50.43 121.67,50.76C121.69,51.1 121.72,51.44 121.74,51.78C121.76,52.13 121.79,52.47 121.81,52.83C121.83,53.2 121.86,53.58 121.88,53.97C121.9,54.37 121.93,54.79 121.95,55.21C121.97,55.65 122,56.1 122.02,56.55C122.04,57.01 122.07,57.49 122.09,57.96C122.11,58.43 122.14,58.91 122.16,59.38C122.18,59.84 122.21,60.3 122.23,60.76C122.25,61.21 122.28,61.65 122.3,62.09C122.32,62.53 122.35,62.98 122.37,63.42C122.39,63.87 122.42,64.31 122.44,64.77C122.46,65.24 122.49,65.72 122.51,66.2C122.53,66.69 122.56,67.19 122.58,67.69C122.6,68.19 122.63,68.7 122.65,69.2C122.67,69.7 122.7,70.2 122.72,70.68C122.74,71.15 122.77,71.61 122.79,72.05C122.81,72.47 122.83,72.87 122.85,73.26C122.87,73.62 122.9,73.98 122.92,74.31C122.94,74.62 122.97,74.91 122.99,75.19C123.01,75.45 123.04,75.7 123.06,75.94C123.08,76.17 123.11,76.4 123.13,76.62C123.15,76.84 123.18,77.06 123.2,77.28C123.22,77.5 123.25,77.73 123.27,77.96C123.29,78.2 123.32,78.45 123.34,78.69C123.36,78.94 123.39,79.19 123.41,79.44C123.43,79.69 123.46,79.95 123.48,80.2C123.5,80.44 123.53,80.67 123.55,80.9C123.57,81.12 123.6,81.33 123.62,81.53C123.64,81.71 123.67,81.89 123.69,82.06C123.71,82.22 123.74,82.37 123.76,82.51C123.78,82.64 123.81,82.75 123.83,82.87C123.85,82.98 123.88,83.08 123.9,83.18C123.92,83.27 123.95,83.36 123.97,83.44C123.99,83.52 124.02,83.6 124.04,83.67C124.06,83.74 124.09,83.81 124.11,83.88C124.13,83.94 124.16,83.99 124.18,84.05C124.2,84.1 124.22,84.16 124.24,84.21C124.26,84.26 124.29,84.3 124.31,84.34C124.33,84.38 124.36,84.41 124.38,84.45C124.4,84.48 124.43,84.52 124.45,84.55C124.47,84.58 124.5,84.6 124.52,84.63C124.54,84.66 124.57,84.69 124.59,84.71C124.61,84.73 124.64,84.75 124.66,84.77C124.68,84.79 124.71,84.81 124.73,84.83C124.75,84.85 124.78,84.86 124.8,84.88C124.82,84.89 124.85,84.91 124.87,84.92C124.89,84.93 124.92,84.93 124.94,84.94C124.96,84.94 124.99,84.95 125.01,84.95C125.03,84.95 125.06,84.95 125.08,84.95C125.1,84.95 125.13,84.95 125.15,84.95C125.17,84.95 125.2,84.95 125.22,84.95C125.24,84.95 125.27,84.95 125.29,84.95C125.31,84.95 125.34,84.96 125.36,84.96C125.38,84.96 125.41,84.97 125.43,84.97C125.45,84.97 125.48,84.98 125.5,84.98C125.52,84.98 125.54,84.99 125.56,84.99Q125.58,84.99 125.63,84.99L125.63,85" style="vector-effect: non-scaling-stroke; stroke-width: 2px; stroke: rgb(102, 194, 164); stroke-opacity: 1; fill: rgb(102, 194, 164); fill-opacity: 0.5;"/><path class="meanline" d="M121.25,46.761138916015625V85" style="fill: none; vector-effect: non-scaling-stroke; stroke-width: 2px; stroke-dasharray: 4px, 2px; stroke: rgb(102, 194, 164); stroke-opacity: 1;"/></g><g class="trace violins" style="opacity: 1;"><path class="violin" d="M103.33,46.75L103.33,46.74Q103.4,46.74 103.43,46.73C103.46,46.73 103.49,46.72 103.52,46.71C103.55,46.7 103.59,46.69 103.62,46.68C103.65,46.67 103.68,46.66 103.71,46.65C103.74,46.64 103.78,46.63 103.81,46.62C103.84,46.61 103.87,46.61 103.9,46.6C103.93,46.59 103.97,46.59 104,46.58C104.03,46.57 104.06,46.57 104.09,46.56C104.12,46.55 104.15,46.55 104.18,46.54C104.21,46.53 104.25,46.53 104.28,46.52C104.31,46.51 104.34,46.51 104.37,46.5C104.4,46.49 104.44,46.49 104.47,46.48C104.5,46.47 104.53,46.46 104.56,46.45C104.59,46.44 104.63,46.43 104.66,46.42C104.69,46.41 104.72,46.4 104.75,46.39C104.78,46.38 104.82,46.36 104.85,46.34C104.88,46.32 104.91,46.3 104.94,46.28C104.97,46.25 105,46.22 105.03,46.19C105.06,46.16 105.1,46.12 105.13,46.08C105.16,46.04 105.19,46 105.22,45.95C105.25,45.9 105.29,45.85 105.32,45.8C105.35,45.75 105.38,45.69 105.41,45.64C105.44,45.59 105.48,45.53 105.51,45.48C105.54,45.43 105.57,45.38 105.6,45.33C105.63,45.28 105.67,45.23 105.7,45.18C105.73,45.13 105.76,45.07 105.79,45.01C105.82,44.94 105.85,44.85 105.88,44.76C105.91,44.66 105.95,44.54 105.98,44.42C106.01,44.28 106.04,44.12 106.07,43.95C106.1,43.77 106.14,43.57 106.17,43.37C106.2,43.15 106.23,42.92 106.26,42.69C106.29,42.45 106.33,42.21 106.36,41.96C106.39,41.71 106.42,41.46 106.45,41.2C106.48,40.94 106.52,40.68 106.55,40.41C106.58,40.14 106.61,39.88 106.64,39.6C106.67,39.31 106.7,39.02 106.73,38.72C106.76,38.4 106.8,38.07 106.83,37.72C106.86,37.35 106.89,36.96 106.92,36.57C106.95,36.15 106.99,35.72 107.02,35.28C107.05,34.83 107.08,34.35 107.11,33.89C107.14,33.43 107.18,32.96 107.21,32.51C107.24,32.07 107.27,31.63 107.3,31.21C107.33,30.81 107.36,30.41 107.39,30.03C107.42,29.66 107.46,29.31 107.49,28.95C107.52,28.6 107.55,28.25 107.58,27.89C107.61,27.52 107.65,27.15 107.68,26.77C107.71,26.37 107.74,25.95 107.77,25.53C107.8,25.09 107.84,24.63 107.87,24.17C107.9,23.7 107.93,23.21 107.96,22.73C107.99,22.25 108.03,21.76 108.06,21.28C108.09,20.81 108.12,20.35 108.15,19.9C108.18,19.47 108.21,19.04 108.24,18.62C108.27,18.22 108.31,17.83 108.34,17.44C108.37,17.07 108.4,16.7 108.43,16.34C108.46,15.99 108.5,15.64 108.53,15.29C108.56,14.95 108.59,14.61 108.62,14.27C108.65,13.94 108.69,13.61 108.72,13.29C108.75,12.98 108.78,12.67 108.81,12.36C108.84,12.06 108.88,11.76 108.91,11.47C108.94,11.18 108.97,10.9 109,10.62C109.03,10.35 109.06,10.08 109.09,9.83C109.12,9.6 109.16,9.36 109.19,9.16C109.22,8.99 109.24,8.81 109.28,8.69C109.31,8.61 109.35,8.5 109.38,8.5C109.41,8.5 109.44,8.57 109.47,8.63C109.51,8.73 109.54,8.91 109.57,9.07C109.61,9.27 109.63,9.51 109.66,9.75C109.69,10.02 109.73,10.31 109.76,10.61C109.79,10.93 109.82,11.26 109.85,11.59C109.88,11.94 109.91,12.3 109.94,12.66C109.97,13.04 110.01,13.42 110.04,13.82C110.07,14.23 110.1,14.66 110.13,15.09C110.16,15.54 110.2,16.01 110.23,16.48C110.26,16.97 110.29,17.46 110.32,17.97C110.35,18.49 110.39,19.03 110.42,19.57C110.45,20.13 110.48,20.7 110.51,21.27C110.54,21.85 110.58,22.44 110.61,23.03C110.64,23.62 110.67,24.22 110.7,24.8C110.73,25.37 110.76,25.94 110.79,26.5C110.82,27.03 110.86,27.56 110.89,28.07C110.92,28.56 110.95,29.03 110.98,29.49C111.01,29.93 111.05,30.35 111.08,30.76C111.11,31.15 111.14,31.53 111.17,31.91C111.2,32.28 111.24,32.64 111.27,33.01C111.3,33.37 111.33,33.73 111.36,34.09C111.39,34.45 111.43,34.8 111.46,35.15C111.49,35.5 111.52,35.84 111.55,36.18C111.58,36.51 111.61,36.84 111.64,37.16C111.67,37.47 111.71,37.79 111.74,38.09C111.77,38.38 111.8,38.67 111.83,38.95C111.86,39.22 111.9,39.49 111.93,39.76C111.96,40.02 111.99,40.29 112.02,40.54C112.05,40.78 112.09,41.03 112.12,41.26C112.15,41.48 112.18,41.69 112.21,41.9C112.24,42.1 112.28,42.29 112.31,42.47C112.34,42.64 112.37,42.8 112.4,42.96C112.43,43.1 112.46,43.24 112.49,43.37C112.52,43.5 112.56,43.62 112.59,43.75C112.62,43.87 112.65,43.99 112.68,44.11C112.71,44.23 112.75,44.34 112.78,44.46C112.81,44.57 112.84,44.69 112.87,44.8C112.9,44.91 112.94,45.03 112.97,45.14C113,45.25 113.03,45.35 113.06,45.45C113.09,45.55 113.13,45.64 113.16,45.73C113.19,45.81 113.22,45.9 113.25,45.97C113.28,46.04 113.31,46.1 113.34,46.16C113.37,46.21 113.41,46.26 113.44,46.31C113.47,46.35 113.5,46.4 113.53,46.43C113.56,46.46 113.6,46.48 113.63,46.51C113.66,46.53 113.69,46.56 113.72,46.58C113.75,46.6 113.79,46.61 113.82,46.62C113.85,46.63 113.88,46.64 113.91,46.65C113.94,46.66 113.97,46.67 114,46.67C114.03,46.68 114.07,46.68 114.1,46.68C114.13,46.68 114.16,46.69 114.19,46.69C114.22,46.69 114.26,46.7 114.29,46.7C114.32,46.7 114.35,46.71 114.38,46.71C114.41,46.71 114.45,46.72 114.48,46.72C114.51,46.72 114.54,46.73 114.57,46.73C114.6,46.73 114.64,46.74 114.67,46.74C114.7,46.74 114.73,46.74 114.76,46.74C114.79,46.74 114.82,46.74 114.85,46.74C114.88,46.74 114.92,46.74 114.95,46.74C114.98,46.74 115.01,46.74 115.04,46.74C115.07,46.74 115.11,46.73 115.14,46.73C115.17,46.73 115.2,46.72 115.23,46.72C115.26,46.72 115.3,46.71 115.33,46.71C115.36,46.71 115.39,46.71 115.42,46.71C115.45,46.71 115.49,46.7 115.52,46.7C115.55,46.7 115.58,46.71 115.61,46.71C115.64,46.71 115.67,46.71 115.7,46.71C115.73,46.71 115.77,46.72 115.8,46.72C115.83,46.72 115.86,46.73 115.89,46.73C115.92,46.73 115.96,46.74 115.99,46.74Q116.02,46.74 116.08,46.74L116.08,46.75" style="vector-effect: non-scaling-stroke; stroke-width: 2px; stroke: rgb(102, 194, 164); stroke-opacity: 1; fill: rgb(102, 194, 164); fill-opacity: 0.5;"/><path class="meanline" d="M109.27,8.721051216125488V46.75" style="fill: none; vector-effect: non-scaling-stroke; stroke-width: 2px; stroke-dasharray: 4px, 2px; stroke: rgb(102, 194, 164); stroke-opacity: 1;"/></g></g></g><g class="overplot"/><path class="xlines-above crisp" d="M0,0" style="fill: none;"/><path class="ylines-above crisp" d="M0,0" style="fill: none;"/><g class="overlines-above"/><g class="xaxislayer-above"><g class="xtick"><text text-anchor="start" x="0" y="203" transform="translate(40,0) rotate(90,0,197)" style="font-family: 'Open Sans', verdana, arial, sans-serif; font-size: 12px; fill: rgb(68, 68, 68); fill-opacity: 1; white-space: pre;">−1</text></g><g class="xtick"><text text-anchor="start" x="0" y="203" transform="translate(68.25,0) rotate(90,0,197)" style="font-family: 'Open Sans', verdana, arial, sans-serif; font-size: 12px; fill: rgb(68, 68, 68); fill-opacity: 1; white-space: pre;">−0.75</text></g><g class="xtick"><text text-anchor="start" x="0" y="203" transform="translate(96.5,0) rotate(90,0,197)" style="font-family: 'Open Sans', verdana, arial, sans-serif; font-size: 12px; fill: rgb(68, 68, 68); fill-opacity: 1; white-space: pre;">−0.5</text></g><g class="xtick"><text text-anchor="start" x="0" y="203" transform="translate(124.75,0) rotate(90,0,197)" style="font-family: 'Open Sans', verdana, arial, sans-serif; font-size: 12px; fill: rgb(68, 68, 68); fill-opacity: 1; white-space: pre;">−0.25</text></g><g class="xtick"><text text-anchor="start" x="0" y="203" transform="translate(153,0) rotate(90,0,197)" style="font-family: 'Open Sans', verdana, arial, sans-serif; font-size: 12px; fill: rgb(68, 68, 68); fill-opacity: 1; white-space: pre;">0</text></g><g class="xtick"><text text-anchor="start" x="0" y="203" transform="translate(181.25,0) rotate(90,0,197)" style="font-family: 'Open Sans', verdana, arial, sans-serif; font-size: 12px; fill: rgb(68, 68, 68); fill-opacity: 1; white-space: pre;">0.25</text></g><g class="xtick"><text text-anchor="start" x="0" y="203" transform="translate(209.5,0) rotate(90,0,197)" style="font-family: 'Open Sans', verdana, arial, sans-serif; font-size: 12px; fill: rgb(68, 68, 68); fill-opacity: 1; white-space: pre;">0.5</text></g><g class="xtick"><text text-anchor="start" x="0" y="203" transform="translate(237.75,0) rotate(90,0,197)" style="font-family: 'Open Sans', verdana, arial, sans-serif; font-size: 12px; fill: rgb(68, 68, 68); fill-opacity: 1; white-space: pre;">0.75</text></g><g class="xtick"><text text-anchor="start" x="0" y="203" transform="translate(266,0) rotate(90,0,197)" style="font-family: 'Open Sans', verdana, arial, sans-serif; font-size: 12px; fill: rgb(68, 68, 68); fill-opacity: 1; white-space: pre;">1</text></g></g><g class="yaxislayer-above"><g class="ytick"><text text-anchor="end" x="39" y="4.199999999999999" transform="translate(0,181.5)" style="font-family: 'Open Sans', verdana, arial, sans-serif; font-size: 12px; fill: rgb(68, 68, 68); fill-opacity: 1; white-space: pre;">Meis</text></g><g class="ytick"><text text-anchor="end" x="39" y="4.199999999999999" transform="translate(0,143.25)" style="font-family: 'Open Sans', verdana, arial, sans-serif; font-size: 12px; fill: rgb(68, 68, 68); fill-opacity: 1; white-space: pre;">Meus</text></g><g class="ytick"><text text-anchor="end" x="39" y="4.199999999999999" transform="translate(0,105)" style="font-family: 'Open Sans', verdana, arial, sans-serif; font-size: 12px; fill: rgb(68, 68, 68); fill-opacity: 1; white-space: pre;">Seum</text></g><g class="ytick"><text text-anchor="end" x="39" y="4.199999999999999" transform="translate(0,66.75)" style="font-family: 'Open Sans', verdana, arial, sans-serif; font-size: 12px; fill: rgb(68, 68, 68); fill-opacity: 1; white-space: pre;">Raer</text></g></g><g class="overaxes-above"/></g></g><g class="polarlayer"/><g class="ternarylayer"/><g class="geolayer"/><g class="funnelarealayer"/><g class="pielayer"/><g class="treemaplayer"/><g class="sunburstlayer"/><g class="glimages"/><defs id="topdefs-f64bec"><g class="clips"/></defs><g class="layer-above"><g class="imagelayer"/><g class="shapelayer"><path data-index="0" fill-rule="evenodd" d="M141.7,181.5L141.7,28.5" clip-path="url('#clipf64becxy')" style="opacity: 1; stroke: rgb(0, 0, 0); stroke-opacity: 1; fill: rgb(0, 0, 0); fill-opacity: 0; stroke-dasharray: 9px, 9px; stroke-width: 2px;"/><path data-index="1" fill-rule="evenodd" d="M164.3,181.5L164.3,28.5" clip-path="url('#clipf64becxy')" style="opacity: 1; stroke: rgb(0, 0, 0); stroke-opacity: 1; fill: rgb(0, 0, 0); fill-opacity: 0; stroke-dasharray: 9px, 9px; stroke-width: 2px;"/></g></g><g class="infolayer"><g class="g-gtitle"/><g class="g-xtitle" transform="translate(0,0.703125)"><text class="xtitle" x="153" y="242" text-anchor="middle" style="font-family: 'Open Sans', verdana, arial, sans-serif; font-size: 14px; fill: rgb(68, 68, 68); opacity: 1; font-weight: normal; white-space: pre;">Coeficiente de Interacción</text></g><g class="g-ytitle"/></g></svg>