<svg class="main-svg" xmlns="http://www.w3.org/2000/svg" xmlns:xlink="http://www.w3.org/1999/xlink" width="266" height="250" style="" viewBox="0 0 266 250"><rect x="0" y="0" width="266" height="250" style="fill: rgb(255, 255, 255); fill-opacity: 1;"/><defs id="defs-4fe21c"><g class="clips"><clipPath id="clip4fe21cxyplot" class="plotclip"><rect width="226" height="170"/></clipPath><clipPath class="axesclip" id="clip4fe21cx"><rect x="20" y="0" width="226" height="250"/></clipPath><clipPath class="axesclip" id="clip4fe21cy"><rect x="0" y="20" width="266" height="170"/></clipPath><clipPath class="axesclip" id="clip4fe21cxy"><rect x="20" y="20" width="226" height="170"/></clipPath></g><g class="gradients"/></defs><g class="bglayer"/><g class="layer-below"><g class="imagelayer"/><g class="shapelayer"/></g><g class="cartesianlayer"><g class="subplot xy"><g class="layer-subplot"><g class="shapelayer"/><g class="imagelayer"/></g><g class="gridlayer"><g class="x"/><g class="y"><path class="ygrid crisp" transform="translate(0,181.5)" d="M20,0h226" style="stroke: rgb(238, 238, 238); stroke-opacity: 1; stroke-width: 1px;"/><path class="ygrid crisp" transform="translate(0,150.9)" d="M20,0h226" style="stroke: rgb(238, 238, 238); stroke-opacity: 1; stroke-width: 1px;"/><path class="ygrid crisp" transform="translate(0,120.3)" d="M20,0h226" style="stroke: rgb(238, 238, 238); stroke-opacity: 1; stroke-width: 1px;"/><path class="ygrid crisp" transform="translate(0,89.7)" d="M20,0h226" style="stroke: rgb(238, 238, 238); stroke-opacity: 1; stroke-width: 1px;"/><path class="ygrid crisp" transform="translate(0,59.1)" d="M20,0h226" style="stroke: rgb(238, 238, 238); stroke-opacity: 1; stroke-width: 1px;"/></g></g><g class="zerolinelayer"/><path class="xlines-below"/><path class="ylines-below"/><g class="overlines-below"/><g class="xaxislayer-below"/><g class="yaxislayer-below"/><g class="overaxes-below"/><g class="plot" transform="translate(20,20)" clip-path="url('#clip4fe21cxyplot')"><g class="violinlayer mlayer"><g class="trace violins" style="opacity: 1;"><path class="violin" d="M128.06,161.5L128.06,161.49Q128.11,161.49 128.13,161.49C128.15,161.49 128.18,161.48 128.2,161.48C128.22,161.48 128.25,161.48 128.27,161.48C128.29,161.48 128.31,161.47 128.33,161.47C128.35,161.47 128.38,161.46 128.4,161.46C128.42,161.46 128.45,161.46 128.47,161.46C128.49,161.46 128.51,161.45 128.53,161.45C128.55,161.45 128.58,161.45 128.6,161.45C128.62,161.45 128.65,161.45 128.67,161.44C128.69,161.43 128.72,161.42 128.74,161.41C128.76,161.4 128.78,161.39 128.8,161.37C128.82,161.35 128.85,161.32 128.87,161.3C128.89,161.27 128.92,161.25 128.94,161.22C128.96,161.19 128.98,161.16 129,161.13C129.02,161.1 129.05,161.07 129.07,161.04C129.09,161.01 129.12,160.98 129.14,160.95C129.16,160.92 129.19,160.89 129.21,160.86C129.23,160.83 129.25,160.79 129.27,160.75C129.29,160.71 129.32,160.67 129.34,160.63C129.36,160.59 129.39,160.54 129.41,160.49C129.43,160.44 129.45,160.39 129.47,160.33C129.49,160.27 129.52,160.2 129.54,160.14C129.56,160.07 129.59,160.01 129.61,159.94C129.63,159.87 129.66,159.79 129.68,159.71C129.7,159.62 129.72,159.53 129.74,159.44C129.76,159.34 129.79,159.24 129.81,159.14C129.83,159.03 129.86,158.9 129.88,158.78C129.9,158.65 129.92,158.5 129.94,158.36C129.96,158.21 129.99,158.05 130.01,157.89C130.03,157.72 130.06,157.55 130.08,157.37C130.1,157.18 130.13,156.99 130.15,156.79C130.17,156.58 130.19,156.38 130.21,156.16C130.23,155.93 130.26,155.7 130.28,155.46C130.3,155.21 130.33,154.96 130.35,154.7C130.37,154.43 130.39,154.15 130.41,153.87C130.43,153.58 130.46,153.29 130.48,152.99C130.5,152.69 130.53,152.38 130.55,152.07C130.57,151.76 130.6,151.45 130.62,151.13C130.64,150.81 130.66,150.48 130.68,150.15C130.7,149.81 130.73,149.46 130.75,149.1C130.77,148.73 130.8,148.36 130.82,147.98C130.84,147.58 130.86,147.18 130.88,146.77C130.9,146.34 130.93,145.9 130.95,145.45C130.97,144.99 131,144.52 131.02,144.05C131.04,143.57 131.06,143.08 131.08,142.59C131.1,142.1 131.13,141.6 131.15,141.11C131.17,140.63 131.2,140.14 131.22,139.67C131.24,139.21 131.27,138.76 131.29,138.32C131.31,137.9 131.33,137.48 131.35,137.08C131.37,136.69 131.4,136.31 131.42,135.94C131.44,135.59 131.47,135.25 131.49,134.92C131.51,134.61 131.53,134.3 131.55,134.01C131.57,133.75 131.59,133.48 131.62,133.25C131.64,133.05 131.66,132.85 131.69,132.68C131.71,132.55 131.73,132.42 131.76,132.33C131.78,132.27 131.79,132.21 131.82,132.19C131.84,132.18 131.87,132.18 131.89,132.18C131.91,132.18 131.94,132.22 131.96,132.22C131.98,132.22 132,132.21 132.02,132.19C132.05,132.16 132.07,132.11 132.09,132.05C132.12,131.98 132.14,131.88 132.16,131.78C132.18,131.67 132.21,131.55 132.23,131.44C132.25,131.33 132.27,131.21 132.29,131.11C132.31,131.03 132.33,130.92 132.36,130.9C132.38,130.89 132.41,130.9 132.43,130.92C132.47,130.96 132.47,131.11 132.49,131.23C132.52,131.4 132.54,131.62 132.56,131.85C132.59,132.13 132.61,132.45 132.63,132.78C132.65,133.15 132.68,133.55 132.7,133.95C132.72,134.38 132.74,134.84 132.76,135.29C132.78,135.76 132.81,136.25 132.83,136.73C132.85,137.21 132.88,137.71 132.9,138.19C132.92,138.66 132.94,139.14 132.96,139.6C132.98,140.04 133.01,140.48 133.03,140.91C133.05,141.32 133.08,141.73 133.1,142.13C133.12,142.52 133.15,142.89 133.17,143.27C133.19,143.64 133.21,144 133.23,144.37C133.25,144.74 133.28,145.11 133.3,145.48C133.32,145.86 133.35,146.24 133.37,146.63C133.39,147.03 133.41,147.43 133.43,147.83C133.45,148.24 133.48,148.64 133.5,149.05C133.52,149.45 133.55,149.86 133.57,150.26C133.59,150.64 133.62,151.02 133.64,151.39C133.66,151.74 133.68,152.08 133.7,152.41C133.72,152.71 133.75,153.01 133.77,153.29C133.79,153.55 133.82,153.79 133.84,154.03C133.86,154.25 133.88,154.46 133.9,154.66C133.92,154.85 133.95,155.04 133.97,155.22C133.99,155.4 134.02,155.57 134.04,155.75C134.06,155.93 134.09,156.1 134.11,156.28C134.13,156.46 134.15,156.65 134.17,156.83C134.19,157.01 134.22,157.2 134.24,157.38C134.26,157.56 134.29,157.75 134.31,157.93C134.33,158.1 134.35,158.27 134.37,158.43C134.39,158.59 134.42,158.74 134.44,158.89C134.46,159.02 134.49,159.15 134.51,159.27C134.53,159.38 134.56,159.49 134.58,159.6C134.6,159.7 134.62,159.79 134.64,159.88C134.66,159.97 134.69,160.06 134.71,160.14C134.73,160.22 134.76,160.29 134.78,160.37C134.8,160.44 134.82,160.52 134.84,160.59C134.86,160.66 134.89,160.73 134.91,160.79C134.93,160.85 134.96,160.91 134.98,160.96C135,161.01 135.03,161.06 135.05,161.11C135.07,161.15 135.09,161.19 135.11,161.22C135.13,161.25 135.16,161.28 135.18,161.31C135.2,161.33 135.23,161.35 135.25,161.37C135.27,161.39 135.29,161.4 135.31,161.41C135.33,161.42 135.36,161.43 135.38,161.44C135.4,161.45 135.43,161.45 135.45,161.46C135.47,161.46 135.5,161.47 135.52,161.47C135.54,161.47 135.56,161.48 135.58,161.48C135.6,161.48 135.63,161.49 135.65,161.49Q135.67,161.49 135.72,161.49L135.72,161.5" style="vector-effect: non-scaling-stroke; stroke-width: 2px; stroke: rgb(102, 194, 164); stroke-opacity: 1; fill: rgb(102, 194, 164); fill-opacity: 0.5;"/><path class="meanline" d="M132.12,131.96116638183594V161.5" style="fill: none; vector-effect: non-scaling-stroke; stroke-width: 2px; stroke-dasharray: 4px, 2px; stroke: rgb(102, 194, 164); stroke-opacity: 1;"/></g><g class="trace violins" style="opacity: 1;"><path class="violin" d="M34.63,130.9L34.63,130.89Q34.68,130.89 34.71,130.89C34.73,130.89 34.76,130.88 34.78,130.88C34.81,130.88 34.83,130.88 34.86,130.88C34.88,130.88 34.91,130.87 34.93,130.87C34.96,130.87 34.98,130.86 35.01,130.86C35.03,130.86 35.06,130.86 35.08,130.86C35.11,130.86 35.13,130.86 35.16,130.86C35.18,130.86 35.21,130.87 35.23,130.87C35.26,130.87 35.28,130.87 35.31,130.87C35.33,130.87 35.36,130.88 35.38,130.88C35.4,130.88 35.43,130.88 35.45,130.88C35.48,130.88 35.5,130.87 35.53,130.87C35.55,130.87 35.58,130.87 35.6,130.86C35.63,130.85 35.65,130.84 35.68,130.83C35.7,130.82 35.73,130.81 35.75,130.8C35.78,130.79 35.8,130.77 35.83,130.75C35.85,130.73 35.88,130.72 35.9,130.7C35.93,130.68 35.95,130.66 35.98,130.64C36,130.62 36.03,130.6 36.05,130.58C36.08,130.56 36.1,130.54 36.13,130.51C36.16,130.48 36.18,130.46 36.2,130.43C36.22,130.4 36.25,130.37 36.27,130.33C36.3,130.29 36.33,130.25 36.35,130.2C36.38,130.15 36.4,130.09 36.42,130.03C36.45,129.97 36.48,129.9 36.5,129.83C36.53,129.75 36.55,129.66 36.57,129.58C36.6,129.49 36.63,129.4 36.65,129.31C36.68,129.21 36.7,129.11 36.72,129.01C36.75,128.9 36.78,128.8 36.8,128.69C36.83,128.58 36.85,128.46 36.87,128.35C36.9,128.24 36.93,128.13 36.95,128.01C36.98,127.89 37,127.76 37.02,127.63C37.05,127.5 37.08,127.36 37.1,127.22C37.13,127.07 37.15,126.92 37.17,126.76C37.19,126.59 37.22,126.41 37.24,126.22C37.27,126.02 37.3,125.82 37.32,125.61C37.35,125.39 37.37,125.16 37.39,124.92C37.42,124.67 37.45,124.41 37.47,124.15C37.5,123.88 37.52,123.6 37.54,123.32C37.57,123.04 37.59,122.75 37.62,122.47C37.64,122.19 37.66,121.9 37.69,121.62C37.71,121.34 37.74,121.07 37.77,120.79C37.79,120.52 37.82,120.25 37.84,119.97C37.87,119.68 37.9,119.4 37.92,119.1C37.95,118.78 37.97,118.45 37.99,118.11C38.02,117.74 38.05,117.35 38.07,116.95C38.1,116.52 38.12,116.06 38.14,115.6C38.16,115.11 38.19,114.6 38.21,114.09C38.24,113.57 38.26,113.03 38.29,112.51C38.31,111.99 38.33,111.47 38.36,110.97C38.38,110.49 38.41,110.01 38.44,109.56C38.46,109.13 38.48,108.72 38.51,108.32C38.53,107.95 38.56,107.6 38.59,107.26C38.61,106.93 38.63,106.62 38.66,106.31C38.68,106.01 38.71,105.72 38.74,105.42C38.76,105.13 38.79,104.83 38.81,104.54C38.84,104.24 38.86,103.94 38.89,103.64C38.91,103.35 38.93,103.05 38.96,102.77C38.98,102.5 39.01,102.22 39.04,101.97C39.06,101.74 39.09,101.51 39.11,101.3C39.13,101.12 39.15,100.93 39.18,100.78C39.2,100.66 39.23,100.54 39.26,100.45C39.28,100.39 39.3,100.32 39.33,100.3C39.35,100.29 39.39,100.29 39.41,100.31C39.44,100.33 39.46,100.41 39.48,100.47C39.51,100.56 39.54,100.67 39.56,100.78C39.59,100.91 39.61,101.07 39.63,101.22C39.66,101.39 39.69,101.57 39.71,101.76C39.74,101.96 39.76,102.16 39.78,102.37C39.81,102.58 39.84,102.79 39.86,103.01C39.89,103.23 39.9,103.45 39.93,103.67C39.95,103.89 39.99,104.1 40.01,104.32C40.04,104.54 40.06,104.76 40.08,104.98C40.1,105.21 40.13,105.43 40.15,105.67C40.18,105.92 40.21,106.18 40.23,106.44C40.26,106.72 40.28,107.01 40.3,107.31C40.33,107.63 40.36,107.96 40.38,108.3C40.41,108.66 40.43,109.04 40.45,109.42C40.48,109.82 40.51,110.23 40.53,110.65C40.56,111.08 40.58,111.52 40.6,111.96C40.63,112.41 40.66,112.86 40.68,113.32C40.71,113.78 40.72,114.24 40.75,114.7C40.77,115.15 40.8,115.6 40.83,116.04C40.85,116.47 40.88,116.91 40.9,117.33C40.92,117.74 40.94,118.15 40.97,118.55C40.99,118.93 41.02,119.31 41.05,119.68C41.07,120.04 41.09,120.38 41.12,120.73C41.14,121.07 41.17,121.4 41.2,121.73C41.22,122.05 41.24,122.36 41.27,122.66C41.29,122.95 41.32,123.25 41.35,123.53C41.37,123.8 41.39,124.06 41.42,124.31C41.44,124.55 41.47,124.79 41.5,125.02C41.52,125.24 41.54,125.45 41.57,125.65C41.59,125.84 41.62,126.03 41.65,126.22C41.67,126.4 41.69,126.57 41.72,126.74C41.74,126.91 41.77,127.07 41.8,127.23C41.82,127.39 41.85,127.54 41.87,127.69C41.89,127.84 41.91,127.98 41.94,128.12C41.96,128.26 41.99,128.39 42.02,128.52C42.04,128.65 42.06,128.77 42.09,128.89C42.11,129 42.14,129.1 42.17,129.2C42.19,129.29 42.21,129.38 42.24,129.46C42.26,129.53 42.29,129.6 42.32,129.66C42.34,129.71 42.36,129.76 42.39,129.81C42.41,129.85 42.44,129.89 42.47,129.93C42.49,129.96 42.52,130 42.54,130.03C42.57,130.07 42.59,130.1 42.62,130.14C42.64,130.18 42.67,130.21 42.69,130.25C42.72,130.29 42.74,130.33 42.77,130.37C42.79,130.41 42.82,130.44 42.84,130.48C42.86,130.51 42.88,130.55 42.91,130.58C42.93,130.61 42.96,130.64 42.99,130.67C43.01,130.69 43.03,130.71 43.06,130.73C43.08,130.75 43.11,130.76 43.14,130.77C43.16,130.78 43.19,130.78 43.21,130.79C43.24,130.8 43.26,130.8 43.29,130.81C43.31,130.81 43.34,130.82 43.36,130.82C43.39,130.82 43.41,130.82 43.44,130.83C43.46,130.83 43.49,130.85 43.51,130.85C43.54,130.86 43.56,130.86 43.59,130.86C43.61,130.86 43.64,130.87 43.66,130.87C43.69,130.87 43.71,130.88 43.74,130.88C43.76,130.88 43.79,130.89 43.81,130.89Q43.83,130.89 43.88,130.89L43.88,130.9" style="vector-effect: non-scaling-stroke; stroke-width: 2px; stroke: rgb(102, 194, 164); stroke-opacity: 1; fill: rgb(102, 194, 164); fill-opacity: 0.5;"/><path class="meanline" d="M39.45,100.3778305053711V130.9" style="fill: none; vector-effect: non-scaling-stroke; stroke-width: 2px; stroke-dasharray: 4px, 2px; stroke: rgb(102, 194, 164); stroke-opacity: 1;"/></g><g class="trace violins" style="opacity: 1;"><path class="violin" d="M117.36,100.3L117.36,100.29Q117.41,100.28 117.43,100.28C117.45,100.28 117.48,100.27 117.5,100.27C117.52,100.27 117.55,100.27 117.57,100.26C117.59,100.25 117.62,100.24 117.64,100.23C117.66,100.22 117.69,100.22 117.71,100.21C117.73,100.2 117.76,100.19 117.78,100.18C117.8,100.17 117.83,100.17 117.85,100.16C117.87,100.15 117.9,100.15 117.92,100.14C117.94,100.13 117.97,100.12 117.99,100.11C118.01,100.1 118.04,100.1 118.06,100.09C118.08,100.08 118.11,100.06 118.13,100.05C118.15,100.04 118.18,100.03 118.2,100.01C118.22,99.99 118.25,99.96 118.27,99.94C118.29,99.91 118.32,99.89 118.34,99.86C118.36,99.83 118.39,99.79 118.41,99.75C118.43,99.7 118.46,99.65 118.48,99.6C118.5,99.54 118.53,99.48 118.55,99.41C118.57,99.34 118.6,99.27 118.62,99.19C118.64,99.11 118.66,99.01 118.68,98.92C118.7,98.82 118.73,98.72 118.75,98.61C118.77,98.5 118.8,98.38 118.82,98.26C118.84,98.13 118.87,98 118.89,97.87C118.91,97.73 118.94,97.59 118.96,97.44C118.98,97.29 119.01,97.14 119.03,96.98C119.05,96.82 119.08,96.66 119.1,96.5C119.12,96.33 119.15,96.16 119.17,95.99C119.19,95.81 119.22,95.62 119.24,95.42C119.26,95.21 119.29,94.99 119.31,94.76C119.33,94.52 119.36,94.26 119.38,94C119.4,93.72 119.43,93.43 119.45,93.13C119.47,92.82 119.5,92.49 119.52,92.16C119.54,91.82 119.57,91.47 119.59,91.12C119.61,90.76 119.64,90.39 119.66,90.03C119.68,89.66 119.71,89.29 119.73,88.92C119.75,88.55 119.78,88.17 119.8,87.79C119.82,87.42 119.85,87.04 119.87,86.67C119.89,86.3 119.92,85.93 119.94,85.56C119.96,85.19 119.99,84.83 120.01,84.46C120.03,84.1 120.05,83.74 120.07,83.37C120.09,83 120.12,82.63 120.14,82.25C120.16,81.86 120.19,81.46 120.21,81.06C120.23,80.64 120.26,80.22 120.28,79.79C120.3,79.35 120.33,78.9 120.35,78.46C120.37,78.01 120.4,77.56 120.42,77.11C120.44,76.67 120.47,76.23 120.49,75.81C120.51,75.41 120.54,75.01 120.56,74.63C120.58,74.27 120.61,73.92 120.63,73.58C120.65,73.26 120.68,72.96 120.7,72.66C120.72,72.38 120.75,72.11 120.77,71.86C120.79,71.63 120.82,71.4 120.84,71.19C120.86,71 120.88,70.81 120.91,70.64C120.93,70.5 120.95,70.36 120.98,70.24C121,70.14 121.02,70.04 121.05,69.96C121.07,69.89 121.09,69.83 121.12,69.78C121.14,69.75 121.16,69.71 121.19,69.7C121.21,69.69 121.24,69.7 121.26,69.72C121.29,69.75 121.31,69.81 121.33,69.87C121.36,69.96 121.38,70.08 121.4,70.2C121.42,70.35 121.44,70.52 121.46,70.7C121.48,70.9 121.51,71.13 121.53,71.36C121.55,71.6 121.58,71.86 121.6,72.11C121.62,72.37 121.65,72.64 121.67,72.91C121.69,73.18 121.72,73.45 121.74,73.72C121.76,74 121.79,74.28 121.81,74.57C121.83,74.87 121.86,75.16 121.88,75.47C121.9,75.79 121.93,76.13 121.95,76.47C121.97,76.82 122,77.18 122.02,77.54C122.04,77.91 122.07,78.29 122.09,78.67C122.11,79.05 122.14,79.43 122.16,79.8C122.18,80.17 122.21,80.54 122.23,80.91C122.25,81.27 122.28,81.62 122.3,81.97C122.32,82.32 122.35,82.67 122.37,83.03C122.39,83.39 122.42,83.75 122.44,84.12C122.46,84.5 122.49,84.88 122.51,85.26C122.53,85.65 122.56,86.05 122.58,86.45C122.6,86.85 122.63,87.26 122.65,87.66C122.67,88.06 122.7,88.45 122.72,88.84C122.74,89.21 122.77,89.58 122.79,89.94C122.81,90.27 122.83,90.6 122.85,90.91C122.87,91.2 122.9,91.47 122.92,91.74C122.94,91.99 122.97,92.22 122.99,92.45C123.01,92.66 123.04,92.85 123.06,93.05C123.08,93.24 123.11,93.42 123.13,93.6C123.15,93.78 123.18,93.94 123.2,94.12C123.22,94.3 123.25,94.48 123.27,94.67C123.29,94.86 123.32,95.05 123.34,95.25C123.36,95.45 123.39,95.66 123.41,95.86C123.43,96.06 123.46,96.26 123.48,96.46C123.5,96.65 123.53,96.84 123.55,97.02C123.57,97.19 123.6,97.36 123.62,97.52C123.64,97.67 123.67,97.81 123.69,97.95C123.71,98.07 123.74,98.19 123.76,98.3C123.78,98.4 123.81,98.51 123.83,98.6C123.85,98.68 123.88,98.76 123.9,98.84C123.92,98.91 123.95,98.98 123.97,99.05C123.99,99.12 124.02,99.18 124.04,99.24C124.06,99.3 124.09,99.35 124.11,99.4C124.13,99.45 124.16,99.49 124.18,99.54C124.2,99.58 124.22,99.63 124.24,99.67C124.26,99.71 124.29,99.74 124.31,99.77C124.33,99.8 124.36,99.83 124.38,99.86C124.4,99.89 124.43,99.92 124.45,99.94C124.47,99.96 124.5,99.98 124.52,100C124.54,100.02 124.57,100.04 124.59,100.06C124.61,100.08 124.64,100.1 124.66,100.12C124.68,100.14 124.71,100.15 124.73,100.17C124.75,100.18 124.78,100.2 124.8,100.21C124.82,100.22 124.85,100.22 124.87,100.23C124.89,100.24 124.92,100.24 124.94,100.25C124.96,100.25 124.99,100.26 125.01,100.26C125.03,100.26 125.06,100.26 125.08,100.26C125.1,100.26 125.13,100.26 125.15,100.26C125.17,100.26 125.2,100.26 125.22,100.26C125.24,100.26 125.27,100.26 125.29,100.26C125.31,100.26 125.34,100.27 125.36,100.27C125.38,100.27 125.41,100.28 125.43,100.28C125.45,100.28 125.48,100.28 125.5,100.28C125.52,100.28 125.54,100.29 125.56,100.29Q125.58,100.29 125.63,100.29L125.63,100.3" style="vector-effect: non-scaling-stroke; stroke-width: 2px; stroke: rgb(102, 194, 164); stroke-opacity: 1; fill: rgb(102, 194, 164); fill-opacity: 0.5;"/><path class="meanline" d="M121.25,69.71208190917969V100.3" style="fill: none; vector-effect: non-scaling-stroke; stroke-width: 2px; stroke-dasharray: 4px, 2px; stroke: rgb(102, 194, 164); stroke-opacity: 1;"/></g><g class="trace violins" style="opacity: 1;"><path class="violin" d="M49.31,69.7L49.31,69.69Q49.36,69.69 49.38,69.69C49.41,69.69 49.43,69.68 49.46,69.68C49.49,69.68 49.51,69.68 49.54,69.68C49.57,69.68 49.59,69.67 49.62,69.67C49.65,69.67 49.67,69.66 49.7,69.66C49.73,69.66 49.75,69.66 49.78,69.66C49.81,69.66 49.83,69.66 49.86,69.66C49.89,69.66 49.91,69.66 49.94,69.66C49.97,69.66 49.99,69.65 50.02,69.65C50.04,69.65 50.07,69.65 50.09,69.64C50.12,69.63 50.14,69.62 50.17,69.61C50.2,69.6 50.22,69.58 50.25,69.57C50.28,69.55 50.3,69.54 50.33,69.52C50.36,69.5 50.38,69.48 50.41,69.46C50.44,69.44 50.46,69.42 50.49,69.39C50.52,69.36 50.54,69.33 50.57,69.3C50.6,69.26 50.62,69.22 50.65,69.18C50.68,69.14 50.71,69.09 50.73,69.04C50.76,68.98 50.78,68.92 50.8,68.85C50.83,68.78 50.85,68.7 50.88,68.62C50.91,68.53 50.93,68.44 50.96,68.34C50.99,68.24 51.01,68.14 51.04,68.04C51.07,67.94 51.09,67.83 51.12,67.73C51.15,67.63 51.17,67.53 51.2,67.43C51.23,67.33 51.25,67.22 51.28,67.12C51.31,67.02 51.33,66.93 51.36,66.83C51.39,66.73 51.42,66.62 51.44,66.51C51.47,66.4 51.49,66.28 51.51,66.16C51.54,66.02 51.56,65.88 51.59,65.73C51.62,65.56 51.64,65.39 51.67,65.2C51.7,65 51.72,64.78 51.75,64.56C51.78,64.32 51.8,64.07 51.83,63.81C51.86,63.53 51.88,63.24 51.91,62.95C51.94,62.64 51.96,62.33 51.99,62.01C52.02,61.68 52.04,61.33 52.07,60.99C52.1,60.64 52.13,60.29 52.15,59.93C52.18,59.56 52.2,59.19 52.22,58.82C52.25,58.44 52.27,58.06 52.3,57.68C52.33,57.29 52.35,56.88 52.38,56.48C52.41,56.07 52.43,55.66 52.46,55.24C52.49,54.82 52.51,54.39 52.54,53.96C52.57,53.53 52.59,53.11 52.62,52.68C52.65,52.26 52.67,51.83 52.7,51.41C52.73,51 52.75,50.59 52.78,50.18C52.8,49.78 52.83,49.38 52.85,48.98C52.88,48.58 52.9,48.18 52.93,47.78C52.96,47.37 52.98,46.96 53.01,46.54C53.04,46.11 53.06,45.68 53.09,45.25C53.12,44.81 53.14,44.36 53.17,43.91C53.2,43.47 53.22,43.01 53.25,42.58C53.28,42.17 53.3,41.75 53.33,41.37C53.36,41.02 53.38,40.67 53.41,40.37C53.43,40.12 53.46,39.87 53.49,39.67C53.51,39.52 53.53,39.37 53.56,39.27C53.58,39.2 53.61,39.13 53.64,39.11C53.66,39.09 53.69,39.09 53.72,39.1C53.75,39.11 53.77,39.13 53.8,39.15C53.83,39.17 53.85,39.19 53.88,39.21C53.91,39.23 53.94,39.26 53.96,39.29C53.99,39.33 54.02,39.39 54.04,39.45C54.07,39.53 54.1,39.64 54.12,39.75C54.15,39.89 54.18,40.05 54.2,40.21C54.23,40.4 54.25,40.61 54.27,40.82C54.3,41.05 54.32,41.29 54.35,41.53C54.38,41.78 54.4,42.05 54.43,42.31C54.46,42.57 54.48,42.84 54.51,43.1C54.54,43.37 54.56,43.63 54.59,43.9C54.62,44.17 54.64,44.43 54.67,44.7C54.7,44.97 54.72,45.25 54.75,45.52C54.78,45.8 54.8,46.08 54.83,46.36C54.86,46.65 54.89,46.96 54.91,47.26C54.94,47.57 54.96,47.89 54.98,48.22C55.01,48.56 55.03,48.91 55.06,49.26C55.09,49.63 55.11,50 55.14,50.38C55.17,50.77 55.19,51.16 55.22,51.56C55.25,51.97 55.27,52.39 55.3,52.81C55.33,53.23 55.35,53.67 55.38,54.09C55.41,54.51 55.43,54.93 55.46,55.34C55.49,55.74 55.51,56.14 55.54,56.53C55.57,56.89 55.59,57.25 55.62,57.59C55.64,57.91 55.66,58.21 55.69,58.51C55.71,58.79 55.74,59.05 55.77,59.31C55.8,59.56 55.82,59.79 55.85,60.03C55.88,60.27 55.9,60.51 55.93,60.75C55.96,61 55.98,61.25 56.01,61.5C56.04,61.76 56.06,62.03 56.09,62.3C56.12,62.58 56.14,62.86 56.17,63.14C56.2,63.42 56.22,63.71 56.25,63.98C56.28,64.24 56.3,64.51 56.33,64.76C56.35,65 56.37,65.23 56.4,65.46C56.42,65.67 56.45,65.88 56.48,66.08C56.51,66.26 56.53,66.44 56.56,66.61C56.59,66.77 56.61,66.93 56.64,67.08C56.67,67.22 56.69,67.34 56.72,67.47C56.75,67.59 56.77,67.7 56.8,67.81C56.83,67.91 56.85,68.01 56.88,68.1C56.91,68.19 56.93,68.28 56.96,68.36C56.99,68.44 57.01,68.51 57.04,68.58C57.06,68.64 57.08,68.7 57.11,68.76C57.13,68.82 57.16,68.87 57.19,68.92C57.22,68.97 57.24,69.01 57.27,69.05C57.3,69.09 57.32,69.12 57.35,69.15C57.38,69.18 57.4,69.2 57.43,69.22C57.46,69.24 57.48,69.27 57.51,69.29C57.54,69.31 57.56,69.32 57.59,69.34C57.62,69.35 57.64,69.37 57.67,69.38C57.7,69.39 57.72,69.41 57.75,69.42C57.77,69.43 57.8,69.44 57.82,69.45C57.85,69.46 57.87,69.47 57.9,69.48C57.93,69.49 57.95,69.51 57.98,69.52C58.01,69.53 58.03,69.54 58.06,69.55C58.09,69.56 58.11,69.57 58.14,69.58C58.17,69.59 58.19,69.6 58.22,69.61C58.25,69.62 58.27,69.62 58.3,69.63C58.33,69.64 58.35,69.64 58.38,69.65C58.41,69.66 58.43,69.66 58.46,69.67C58.48,69.67 58.51,69.68 58.53,69.68C58.56,69.68 58.58,69.69 58.61,69.69Q58.64,69.69 58.69,69.69L58.69,69.7" style="vector-effect: non-scaling-stroke; stroke-width: 2px; stroke: rgb(102, 194, 164); stroke-opacity: 1; fill: rgb(102, 194, 164); fill-opacity: 0.5;"/><path class="meanline" d="M53.98,39.31924057006836V69.7" style="fill: none; vector-effect: non-scaling-stroke; stroke-width: 2px; stroke-dasharray: 4px, 2px; stroke: rgb(102, 194, 164); stroke-opacity: 1;"/></g><g class="trace violins" style="opacity: 1;"><path class="violin" d="M103.33,39.1L103.33,39.09Q103.4,39.08 103.43,39.08C103.46,39.08 103.49,39.07 103.52,39.07C103.55,39.06 103.59,39.06 103.62,39.05C103.65,39.04 103.68,39.03 103.71,39.02C103.74,39.01 103.78,39.01 103.81,39C103.84,38.99 103.87,38.99 103.9,38.98C103.93,38.97 103.97,38.97 104,38.96C104.03,38.96 104.06,38.95 104.09,38.95C104.12,38.94 104.15,38.93 104.18,38.93C104.21,38.92 104.25,38.93 104.28,38.92C104.31,38.92 104.34,38.91 104.37,38.9C104.4,38.89 104.44,38.89 104.47,38.88C104.5,38.87 104.53,38.87 104.56,38.86C104.59,38.85 104.63,38.85 104.66,38.84C104.69,38.83 104.72,38.82 104.75,38.81C104.78,38.8 104.82,38.79 104.85,38.77C104.88,38.76 104.91,38.74 104.94,38.72C104.97,38.7 105,38.67 105.03,38.65C105.06,38.62 105.1,38.6 105.13,38.57C105.16,38.54 105.19,38.5 105.22,38.46C105.25,38.42 105.29,38.38 105.32,38.34C105.35,38.3 105.38,38.25 105.41,38.21C105.44,38.17 105.48,38.12 105.51,38.08C105.54,38.04 105.57,38.01 105.6,37.97C105.63,37.93 105.67,37.89 105.7,37.85C105.73,37.8 105.76,37.75 105.79,37.7C105.82,37.64 105.85,37.58 105.88,37.51C105.91,37.43 105.95,37.33 105.98,37.23C106.01,37.12 106.04,36.99 106.07,36.86C106.1,36.72 106.14,36.56 106.17,36.4C106.2,36.23 106.23,36.04 106.26,35.86C106.29,35.67 106.33,35.47 106.36,35.27C106.39,35.07 106.42,34.86 106.45,34.66C106.48,34.45 106.52,34.24 106.55,34.03C106.58,33.82 106.61,33.6 106.64,33.38C106.67,33.15 106.7,32.92 106.73,32.68C106.76,32.42 106.8,32.16 106.83,31.88C106.86,31.58 106.89,31.28 106.92,30.96C106.95,30.62 106.99,30.27 107.02,29.92C107.05,29.56 107.08,29.19 107.11,28.82C107.14,28.45 107.18,28.07 107.21,27.71C107.24,27.36 107.27,27.01 107.3,26.67C107.33,26.35 107.36,26.04 107.39,25.73C107.42,25.43 107.46,25.15 107.49,24.86C107.52,24.58 107.55,24.3 107.58,24.01C107.61,23.71 107.65,23.42 107.68,23.11C107.71,22.79 107.74,22.46 107.77,22.12C107.8,21.77 107.84,21.4 107.87,21.03C107.9,20.65 107.93,20.26 107.96,19.88C107.99,19.5 108.03,19.11 108.06,18.73C108.09,18.36 108.12,17.98 108.15,17.62C108.18,17.27 108.21,16.93 108.24,16.59C108.27,16.27 108.31,15.96 108.34,15.65C108.37,15.35 108.4,15.06 108.43,14.77C108.46,14.49 108.5,14.21 108.53,13.93C108.56,13.66 108.59,13.39 108.62,13.12C108.65,12.86 108.69,12.6 108.72,12.34C108.75,12.09 108.78,11.84 108.81,11.59C108.84,11.35 108.88,11.11 108.91,10.87C108.94,10.64 108.97,10.41 109,10.19C109.03,9.98 109.06,9.77 109.09,9.57C109.12,9.38 109.16,9.19 109.19,9.03C109.22,8.89 109.24,8.75 109.28,8.65C109.31,8.59 109.35,8.5 109.38,8.5C109.41,8.5 109.44,8.55 109.47,8.6C109.51,8.68 109.54,8.82 109.57,8.95C109.61,9.11 109.63,9.31 109.66,9.5C109.69,9.72 109.73,9.95 109.76,10.19C109.79,10.44 109.82,10.7 109.85,10.97C109.88,11.25 109.91,11.53 109.94,11.82C109.97,12.13 110.01,12.44 110.04,12.76C110.07,13.09 110.1,13.43 110.13,13.77C110.16,14.13 110.2,14.5 110.23,14.88C110.26,15.27 110.29,15.67 110.32,16.08C110.35,16.5 110.39,16.93 110.42,17.36C110.45,17.81 110.48,18.26 110.51,18.72C110.54,19.18 110.58,19.65 110.61,20.12C110.64,20.59 110.67,21.07 110.7,21.54C110.73,22 110.76,22.46 110.79,22.9C110.82,23.33 110.86,23.75 110.89,24.16C110.92,24.55 110.95,24.92 110.98,25.29C111.01,25.64 111.05,25.98 111.08,26.31C111.11,26.62 111.14,26.93 111.17,27.23C111.2,27.53 111.24,27.82 111.27,28.11C111.3,28.4 111.33,28.68 111.36,28.97C111.39,29.25 111.43,29.54 111.46,29.82C111.49,30.1 111.52,30.38 111.55,30.65C111.58,30.91 111.61,31.17 111.64,31.43C111.67,31.68 111.71,31.93 111.74,32.17C111.77,32.4 111.8,32.63 111.83,32.86C111.86,33.08 111.9,33.3 111.93,33.51C111.96,33.72 111.99,33.93 112.02,34.13C112.05,34.32 112.09,34.51 112.12,34.7C112.15,34.88 112.18,35.05 112.21,35.22C112.24,35.38 112.28,35.53 112.31,35.68C112.34,35.81 112.37,35.94 112.4,36.06C112.43,36.18 112.46,36.29 112.49,36.4C112.52,36.5 112.56,36.6 112.59,36.7C112.62,36.8 112.65,36.89 112.68,36.99C112.71,37.08 112.75,37.18 112.78,37.27C112.81,37.36 112.84,37.45 112.87,37.54C112.9,37.63 112.94,37.72 112.97,37.81C113,37.89 113.03,37.98 113.06,38.06C113.09,38.14 113.13,38.21 113.16,38.28C113.19,38.35 113.22,38.41 113.25,38.47C113.28,38.53 113.31,38.58 113.34,38.63C113.37,38.67 113.41,38.71 113.44,38.75C113.47,38.78 113.5,38.81 113.53,38.84C113.56,38.87 113.6,38.89 113.63,38.91C113.66,38.93 113.69,38.95 113.72,38.96C113.75,38.98 113.79,38.99 113.82,39C113.85,39.01 113.88,39.01 113.91,39.02C113.94,39.02 113.97,39.03 114,39.03C114.03,39.03 114.07,39.04 114.1,39.04C114.13,39.04 114.16,39.05 114.19,39.05C114.22,39.05 114.26,39.06 114.29,39.06C114.32,39.06 114.35,39.07 114.38,39.07C114.41,39.07 114.45,39.08 114.48,39.08C114.51,39.08 114.54,39.08 114.57,39.08C114.6,39.08 114.64,39.09 114.67,39.09C114.7,39.09 114.73,39.09 114.76,39.09C114.79,39.09 114.82,39.09 114.85,39.09C114.88,39.09 114.92,39.09 114.95,39.09C114.98,39.09 115.01,39.09 115.04,39.09C115.07,39.09 115.11,39.08 115.14,39.08C115.17,39.08 115.2,39.08 115.23,39.08C115.26,39.08 115.3,39.07 115.33,39.07C115.36,39.07 115.39,39.06 115.42,39.06C115.45,39.06 115.49,39.06 115.52,39.06C115.55,39.06 115.58,39.06 115.61,39.06C115.64,39.06 115.67,39.07 115.7,39.07C115.73,39.07 115.77,39.08 115.8,39.08C115.83,39.08 115.86,39.08 115.89,39.08C115.92,39.08 115.96,39.09 115.99,39.09Q116.02,39.09 116.08,39.09L116.08,39.1" style="vector-effect: non-scaling-stroke; stroke-width: 2px; stroke: rgb(102, 194, 164); stroke-opacity: 1; fill: rgb(102, 194, 164); fill-opacity: 0.5;"/><path class="meanline" d="M109.27,8.675323486328125V39.1" style="fill: none; vector-effect: non-scaling-stroke; stroke-width: 2px; stroke-dasharray: 4px, 2px; stroke: rgb(102, 194, 164); stroke-opacity: 1;"/></g></g></g><g class="overplot"/><path class="xlines-above crisp" d="M0,0" style="fill: none;"/><path class="ylines-above crisp" d="M0,0" style="fill: none;"/><g class="overlines-above"/><g class="xaxislayer-above"><g class="xtick"><text text-anchor="start" x="0" y="203" transform="translate(20,0) rotate(90,0,197)" style="font-family: 'Open Sans', verdana, arial, sans-serif; font-size: 12px; fill: rgb(68, 68, 68); fill-opacity: 1; white-space: pre;">−1</text></g><g class="xtick"><text text-anchor="start" x="0" y="203" transform="translate(48.25,0) rotate(90,0,197)" style="font-family: 'Open Sans', verdana, arial, sans-serif; font-size: 12px; fill: rgb(68, 68, 68); fill-opacity: 1; white-space: pre;">−0.75</text></g><g class="xtick"><text text-anchor="start" x="0" y="203" transform="translate(76.5,0) rotate(90,0,197)" style="font-family: 'Open Sans', verdana, arial, sans-serif; font-size: 12px; fill: rgb(68, 68, 68); fill-opacity: 1; white-space: pre;">−0.5</text></g><g class="xtick"><text text-anchor="start" x="0" y="203" transform="translate(104.75,0) rotate(90,0,197)" style="font-family: 'Open Sans', verdana, arial, sans-serif; font-size: 12px; fill: rgb(68, 68, 68); fill-opacity: 1; white-space: pre;">−0.25</text></g><g class="xtick"><text text-anchor="start" x="0" y="203" transform="translate(133,0) rotate(90,0,197)" style="font-family: 'Open Sans', verdana, arial, sans-serif; font-size: 12px; fill: rgb(68, 68, 68); fill-opacity: 1; white-space: pre;">0</text></g><g class="xtick"><text text-anchor="start" x="0" y="203" transform="translate(161.25,0) rotate(90,0,197)" style="font-family: 'Open Sans', verdana, arial, sans-serif; font-size: 12px; fill: rgb(68, 68, 68); fill-opacity: 1; white-space: pre;">0.25</text></g><g class="xtick"><text text-anchor="start" x="0" y="203" transform="translate(189.5,0) rotate(90,0,197)" style="font-family: 'Open Sans', verdana, arial, sans-serif; font-size: 12px; fill: rgb(68, 68, 68); fill-opacity: 1; white-space: pre;">0.5</text></g><g class="xtick"><text text-anchor="start" x="0" y="203" transform="translate(217.75,0) rotate(90,0,197)" style="font-family: 'Open Sans', verdana, arial, sans-serif; font-size: 12px; fill: rgb(68, 68, 68); fill-opacity: 1; white-space: pre;">0.75</text></g><g class="xtick"><text text-anchor="start" x="0" y="203" transform="translate(246,0) rotate(90,0,197)" style="font-family: 'Open Sans', verdana, arial, sans-serif; font-size: 12px; fill: rgb(68, 68, 68); fill-opacity: 1; white-space: pre;">1</text></g></g><g class="yaxislayer-above"/><g class="overaxes-above"/></g></g><g class="polarlayer"/><g class="ternarylayer"/><g class="geolayer"/><g class="funnelarealayer"/><g class="pielayer"/><g class="treemaplayer"/><g class="sunburstlayer"/><g class="glimages"/><defs id="topdefs-4fe21c"><g class="clips"/></defs><g class="layer-above"><g class="imagelayer"/><g class="shapelayer"><path data-index="0" fill-rule="evenodd" d="M121.7,181.5L121.7,28.5" clip-path="url('#clip4fe21cxy')" style="opacity: 1; stroke: rgb(0, 0, 0); stroke-opacity: 1; fill: rgb(0, 0, 0); fill-opacity: 0; stroke-dasharray: 9px, 9px; stroke-width: 2px;"/><path data-index="1" fill-rule="evenodd" d="M144.3,181.5L144.3,28.5" clip-path="url('#clip4fe21cxy')" style="opacity: 1; stroke: rgb(0, 0, 0); stroke-opacity: 1; fill: rgb(0, 0, 0); fill-opacity: 0; stroke-dasharray: 9px, 9px; stroke-width: 2px;"/></g></g><g class="infolayer"><g class="g-gtitle"><text class="gtitle" x="133" y="10" text-anchor="middle" dy="0em" style="font-family: Calibri; font-size: 14px; fill: rgb(68, 68, 68); opacity: 1; font-weight: normal; white-space: pre;">My_20</text></g><g class="g-xtitle" transform="translate(0,0.703125)"><text class="xtitle" x="133" y="242" text-anchor="middle" style="font-family: 'Open Sans', verdana, arial, sans-serif; font-size: 14px; fill: rgb(68, 68, 68); opacity: 1; font-weight: normal; white-space: pre;">Coeficiente de Interacción</text></g><g class="g-ytitle"/></g></svg>