<svg class="main-svg" xmlns="http://www.w3.org/2000/svg" xmlns:xlink="http://www.w3.org/1999/xlink" width="286" height="250" style="" viewBox="0 0 286 250"><rect x="0" y="0" width="286" height="250" style="fill: rgb(255, 255, 255); fill-opacity: 1;"/><defs id="defs-455c80"><g class="clips"><clipPath id="clip455c80xyplot" class="plotclip"><rect width="226" height="170"/></clipPath><clipPath class="axesclip" id="clip455c80x"><rect x="40" y="0" width="226" height="250"/></clipPath><clipPath class="axesclip" id="clip455c80y"><rect x="0" y="20" width="286" height="170"/></clipPath><clipPath class="axesclip" id="clip455c80xy"><rect x="40" y="20" width="226" height="170"/></clipPath></g><g class="gradients"/></defs><g class="bglayer"/><g class="layer-below"><g class="imagelayer"/><g class="shapelayer"/></g><g class="cartesianlayer"><g class="subplot xy"><g class="layer-subplot"><g class="shapelayer"/><g class="imagelayer"/></g><g class="gridlayer"><g class="x"/><g class="y"><path class="ygrid crisp" transform="translate(0,181.5)" d="M40,0h226" style="stroke: rgb(238, 238, 238); stroke-opacity: 1; stroke-width: 1px;"/><path class="ygrid crisp" transform="translate(0,154.75)" d="M40,0h226" style="stroke: rgb(238, 238, 238); stroke-opacity: 1; stroke-width: 1px;"/><path class="ygrid crisp" transform="translate(0,128)" d="M40,0h226" style="stroke: rgb(238, 238, 238); stroke-opacity: 1; stroke-width: 1px;"/><path class="ygrid crisp" transform="translate(0,101.25)" d="M40,0h226" style="stroke: rgb(238, 238, 238); stroke-opacity: 1; stroke-width: 1px;"/><path class="ygrid crisp" transform="translate(0,74.5)" d="M40,0h226" style="stroke: rgb(238, 238, 238); stroke-opacity: 1; stroke-width: 1px;"/></g></g><g class="zerolinelayer"/><path class="xlines-below"/><path class="ylines-below"/><g class="overlines-below"/><g class="xaxislayer-below"/><g class="yaxislayer-below"/><g class="overaxes-below"/><g class="plot" transform="translate(40,20)" clip-path="url('#clip455c80xyplot')"><g class="violinlayer mlayer"><g class="trace violins" style="opacity: 1;"><path class="violin" d="M114.44,161.5L114.44,161.5Q114.47,161.49 114.49,161.49C114.51,161.49 114.53,161.49 114.55,161.49C114.57,161.49 114.58,161.48 114.6,161.48C114.62,161.48 114.63,161.47 114.65,161.47C114.67,161.47 114.69,161.47 114.71,161.46C114.73,161.46 114.74,161.45 114.76,161.44C114.78,161.43 114.8,161.43 114.82,161.42C114.84,161.41 114.85,161.4 114.87,161.39C114.89,161.38 114.9,161.37 114.92,161.36C114.94,161.35 114.96,161.34 114.98,161.32C115,161.31 115.01,161.29 115.03,161.27C115.05,161.25 115.07,161.23 115.09,161.21C115.11,161.19 115.12,161.18 115.14,161.16C115.16,161.14 115.17,161.12 115.19,161.11C115.21,161.09 115.23,161.09 115.25,161.07C115.27,161.06 115.28,161.04 115.3,161.02C115.32,161 115.34,160.99 115.36,160.97C115.38,160.95 115.39,160.92 115.41,160.9C115.43,160.88 115.44,160.86 115.46,160.83C115.48,160.8 115.5,160.77 115.52,160.73C115.54,160.69 115.55,160.65 115.57,160.61C115.59,160.57 115.61,160.52 115.63,160.47C115.65,160.41 115.66,160.34 115.68,160.27C115.7,160.19 115.71,160.12 115.73,160.03C115.75,159.93 115.77,159.83 115.79,159.72C115.81,159.6 115.82,159.48 115.84,159.36C115.86,159.23 115.88,159.1 115.9,158.97C115.92,158.84 115.93,158.69 115.95,158.56C115.97,158.43 115.98,158.3 116,158.17C116.02,158.03 116.04,157.9 116.06,157.76C116.08,157.61 116.09,157.47 116.11,157.31C116.13,157.14 116.15,156.96 116.17,156.77C116.19,156.57 116.2,156.35 116.22,156.13C116.24,155.89 116.25,155.62 116.27,155.36C116.29,155.08 116.31,154.78 116.33,154.49C116.35,154.19 116.36,153.87 116.38,153.56C116.4,153.24 116.42,152.93 116.44,152.61C116.46,152.3 116.47,151.99 116.49,151.68C116.51,151.38 116.52,151.08 116.54,150.79C116.56,150.5 116.58,150.21 116.6,149.93C116.62,149.65 116.63,149.38 116.65,149.11C116.67,148.84 116.69,148.57 116.71,148.29C116.73,148.01 116.74,147.73 116.76,147.44C116.78,147.14 116.79,146.85 116.81,146.54C116.83,146.22 116.85,145.9 116.87,145.57C116.89,145.23 116.9,144.88 116.92,144.53C116.94,144.17 116.96,143.8 116.98,143.43C117,143.06 117.01,142.67 117.03,142.3C117.05,141.93 117.06,141.55 117.08,141.19C117.1,140.84 117.12,140.49 117.14,140.15C117.16,139.82 117.17,139.5 117.19,139.19C117.21,138.9 117.23,138.62 117.25,138.34C117.27,138.08 117.28,137.83 117.3,137.58C117.32,137.35 117.33,137.13 117.35,136.91C117.37,136.7 117.39,136.5 117.41,136.3C117.43,136.11 117.44,135.93 117.46,135.75C117.48,135.59 117.5,135.43 117.52,135.28C117.54,135.15 117.55,135.03 117.57,134.93C117.58,134.86 117.59,134.77 117.62,134.75C117.64,134.74 117.66,134.74 117.68,134.76C117.71,134.79 117.71,134.9 117.73,134.98C117.75,135.09 117.77,135.24 117.79,135.38C117.81,135.54 117.82,135.72 117.84,135.9C117.86,136.09 117.87,136.29 117.89,136.48C117.91,136.67 117.93,136.87 117.95,137.06C117.97,137.25 117.98,137.44 118,137.62C118.02,137.8 118.04,137.98 118.06,138.16C118.08,138.35 118.09,138.54 118.11,138.74C118.13,138.95 118.14,139.16 118.16,139.39C118.18,139.63 118.2,139.89 118.22,140.15C118.24,140.43 118.25,140.74 118.27,141.04C118.29,141.36 118.31,141.69 118.33,142.02C118.35,142.36 118.36,142.7 118.38,143.04C118.4,143.38 118.41,143.74 118.43,144.08C118.45,144.42 118.47,144.76 118.49,145.1C118.51,145.44 118.52,145.79 118.54,146.13C118.56,146.47 118.58,146.82 118.6,147.16C118.62,147.51 118.63,147.85 118.65,148.2C118.67,148.54 118.68,148.89 118.7,149.23C118.72,149.57 118.74,149.91 118.76,150.25C118.78,150.58 118.79,150.91 118.81,151.23C118.83,151.55 118.85,151.87 118.87,152.18C118.89,152.49 118.9,152.79 118.92,153.09C118.94,153.38 118.95,153.67 118.97,153.95C118.99,154.22 119.01,154.49 119.03,154.75C119.05,154.99 119.06,155.23 119.08,155.45C119.1,155.66 119.12,155.86 119.14,156.05C119.16,156.23 119.17,156.4 119.19,156.56C119.21,156.71 119.22,156.86 119.24,157.01C119.26,157.16 119.28,157.3 119.3,157.44C119.32,157.59 119.33,157.73 119.35,157.88C119.37,158.02 119.39,158.17 119.41,158.31C119.43,158.44 119.44,158.57 119.46,158.7C119.48,158.82 119.49,158.93 119.51,159.04C119.53,159.13 119.55,159.22 119.57,159.3C119.59,159.37 119.6,159.44 119.62,159.5C119.64,159.56 119.66,159.62 119.68,159.67C119.7,159.72 119.71,159.77 119.73,159.82C119.75,159.87 119.76,159.93 119.78,159.98C119.8,160.04 119.82,160.1 119.84,160.16C119.86,160.22 119.87,160.29 119.89,160.35C119.91,160.41 119.93,160.48 119.95,160.54C119.97,160.6 119.98,160.66 120,160.72C120.02,160.78 120.03,160.83 120.05,160.88C120.07,160.93 120.09,160.98 120.11,161.02C120.13,161.06 120.14,161.1 120.16,161.13C120.18,161.16 120.2,161.19 120.22,161.21C120.24,161.23 120.25,161.25 120.27,161.27C120.29,161.29 120.3,161.3 120.32,161.31C120.34,161.32 120.36,161.32 120.38,161.33C120.4,161.34 120.41,161.34 120.43,161.35C120.45,161.36 120.47,161.36 120.49,161.37C120.51,161.37 120.52,161.38 120.54,161.38C120.56,161.39 120.57,161.4 120.59,161.4C120.61,161.41 120.63,161.4 120.65,161.41C120.67,161.41 120.68,161.42 120.7,161.43C120.72,161.44 120.74,161.44 120.76,161.45C120.78,161.46 120.79,161.46 120.81,161.47C120.83,161.47 120.84,161.48 120.86,161.48C120.88,161.48 120.9,161.49 120.92,161.49Q120.94,161.49 120.97,161.49L120.97,161.5" style="vector-effect: non-scaling-stroke; stroke-width: 2px; stroke: rgb(102, 194, 164); stroke-opacity: 1; fill: rgb(102, 194, 164); fill-opacity: 0.5;"/><path class="meanline" d="M117.69,134.7755889892578V161.5" style="fill: none; vector-effect: non-scaling-stroke; stroke-width: 2px; stroke-dasharray: 4px, 2px; stroke: rgb(102, 194, 164); stroke-opacity: 1;"/></g><g class="trace violins" style="opacity: 1;"><path class="violin" d="M122.56,134.75L122.56,134.75Q122.61,134.74 122.64,134.74C122.66,134.74 122.69,134.74 122.71,134.74C122.73,134.74 122.76,134.73 122.78,134.73C122.8,134.73 122.83,134.72 122.85,134.72C122.87,134.71 122.9,134.71 122.92,134.7C122.94,134.7 122.97,134.69 122.99,134.69C123.01,134.68 123.04,134.68 123.06,134.67C123.08,134.66 123.11,134.65 123.13,134.64C123.15,134.63 123.18,134.61 123.2,134.6C123.23,134.58 123.26,134.57 123.28,134.55C123.31,134.53 123.33,134.51 123.35,134.48C123.37,134.45 123.4,134.42 123.42,134.39C123.44,134.36 123.47,134.33 123.49,134.3C123.51,134.27 123.54,134.24 123.56,134.21C123.58,134.18 123.61,134.15 123.63,134.12C123.65,134.09 123.68,134.06 123.7,134.03C123.72,134 123.75,133.97 123.77,133.94C123.79,133.91 123.82,133.88 123.84,133.84C123.87,133.8 123.9,133.76 123.92,133.71C123.95,133.66 123.97,133.61 123.99,133.56C124.01,133.5 124.04,133.44 124.06,133.38C124.08,133.31 124.11,133.24 124.13,133.17C124.15,133.09 124.18,133.01 124.2,132.92C124.22,132.83 124.25,132.73 124.27,132.63C124.29,132.52 124.32,132.41 124.34,132.3C124.36,132.18 124.39,132.06 124.41,131.94C124.43,131.81 124.46,131.68 124.48,131.55C124.51,131.41 124.54,131.28 124.56,131.14C124.59,131 124.61,130.86 124.63,130.72C124.65,130.58 124.68,130.43 124.7,130.28C124.72,130.12 124.75,129.96 124.77,129.8C124.79,129.63 124.82,129.46 124.84,129.28C124.86,129.09 124.89,128.91 124.91,128.71C124.93,128.5 124.96,128.29 124.98,128.07C125,127.85 125.03,127.63 125.05,127.4C125.07,127.17 125.1,126.93 125.12,126.7C125.14,126.46 125.17,126.22 125.19,125.98C125.22,125.73 125.25,125.49 125.27,125.24C125.3,124.99 125.32,124.74 125.34,124.49C125.36,124.23 125.39,123.97 125.41,123.7C125.43,123.42 125.46,123.14 125.48,122.86C125.5,122.57 125.53,122.28 125.55,121.99C125.57,121.69 125.6,121.38 125.62,121.07C125.64,120.76 125.67,120.44 125.69,120.12C125.71,119.79 125.74,119.46 125.76,119.13C125.78,118.79 125.81,118.44 125.83,118.1C125.86,117.75 125.88,117.41 125.91,117.06C125.93,116.72 125.96,116.37 125.98,116.03C126,115.71 126.03,115.39 126.05,115.08C126.07,114.79 126.1,114.51 126.12,114.24C126.14,114 126.17,113.76 126.19,113.54C126.21,113.33 126.24,113.14 126.26,112.95C126.28,112.77 126.31,112.61 126.33,112.44C126.35,112.27 126.38,112.11 126.4,111.94C126.42,111.76 126.45,111.59 126.47,111.4C126.5,111.2 126.53,110.99 126.55,110.78C126.58,110.56 126.6,110.33 126.62,110.1C126.64,109.87 126.67,109.63 126.69,109.41C126.71,109.2 126.73,108.98 126.76,108.79C126.78,108.62 126.8,108.45 126.83,108.32C126.85,108.22 126.86,108.1 126.9,108.05C126.92,108.02 126.95,107.99 126.97,108C127,108.01 127.02,108.1 127.04,108.17C127.07,108.27 127.09,108.41 127.11,108.55C127.14,108.72 127.17,108.91 127.19,109.1C127.22,109.32 127.24,109.56 127.26,109.8C127.28,110.06 127.31,110.33 127.33,110.61C127.35,110.9 127.38,111.2 127.4,111.5C127.42,111.81 127.45,112.14 127.47,112.46C127.49,112.79 127.52,113.12 127.54,113.46C127.56,113.8 127.59,114.14 127.61,114.49C127.63,114.84 127.66,115.2 127.68,115.56C127.7,115.91 127.72,116.27 127.75,116.62C127.77,116.97 127.8,117.31 127.83,117.65C127.85,117.98 127.88,118.31 127.9,118.64C127.92,118.96 127.95,119.27 127.97,119.59C127.99,119.9 128.02,120.21 128.04,120.53C128.06,120.85 128.09,121.18 128.11,121.51C128.13,121.85 128.16,122.19 128.18,122.54C128.2,122.89 128.23,123.25 128.25,123.61C128.27,123.97 128.3,124.33 128.32,124.68C128.34,125.03 128.36,125.37 128.39,125.71C128.41,126.03 128.44,126.34 128.47,126.65C128.49,126.94 128.52,127.23 128.54,127.51C128.56,127.77 128.59,128.03 128.61,128.28C128.63,128.52 128.66,128.75 128.68,128.98C128.7,129.2 128.73,129.41 128.75,129.62C128.77,129.82 128.8,130.01 128.82,130.2C128.84,130.38 128.87,130.57 128.89,130.74C128.91,130.9 128.94,131.06 128.96,131.22C128.98,131.37 129,131.52 129.03,131.66C129.05,131.8 129.08,131.94 129.11,132.07C129.13,132.2 129.16,132.33 129.18,132.45C129.2,132.57 129.23,132.69 129.25,132.8C129.27,132.91 129.3,133.02 129.32,133.13C129.34,133.23 129.37,133.32 129.39,133.41C129.41,133.49 129.43,133.58 129.46,133.65C129.48,133.71 129.51,133.77 129.53,133.82C129.55,133.87 129.57,133.92 129.6,133.96C129.62,133.99 129.64,134.02 129.67,134.05C129.69,134.08 129.72,134.1 129.75,134.13C129.77,134.15 129.8,134.18 129.82,134.2C129.84,134.23 129.87,134.25 129.89,134.28C129.91,134.31 129.94,134.33 129.96,134.36C129.98,134.39 130.01,134.41 130.03,134.44C130.05,134.46 130.08,134.49 130.1,134.51C130.12,134.53 130.15,134.56 130.17,134.58C130.19,134.6 130.22,134.61 130.24,134.63C130.26,134.64 130.29,134.66 130.31,134.67C130.34,134.68 130.36,134.69 130.39,134.7C130.41,134.71 130.44,134.71 130.46,134.72C130.48,134.72 130.51,134.73 130.53,134.73Q130.55,134.73 130.6,134.74L130.6,134.75" style="vector-effect: non-scaling-stroke; stroke-width: 2px; stroke: rgb(102, 194, 164); stroke-opacity: 1; fill: rgb(102, 194, 164); fill-opacity: 0.5;"/><path class="meanline" d="M126.8,108.48262023925781V134.75" style="fill: none; vector-effect: non-scaling-stroke; stroke-width: 2px; stroke-dasharray: 4px, 2px; stroke: rgb(102, 194, 164); stroke-opacity: 1;"/></g><g class="trace violins" style="opacity: 1;"><path class="violin" d="M48.71,108L48.71,107.96Q49.24,107.93 49.51,107.9C49.77,107.87 50.04,107.83 50.3,107.77C50.57,107.7 50.84,107.63 51.1,107.51C51.37,107.39 51.64,107.24 51.89,107.04C52.17,106.82 52.44,106.55 52.69,106.25C52.97,105.91 53.23,105.5 53.48,105.08C53.76,104.61 54.02,104.08 54.28,103.54C54.55,102.97 54.8,102.36 55.07,101.77C55.33,101.19 55.59,100.57 55.87,100.03C56.12,99.55 56.36,99.04 56.66,98.69C56.9,98.41 57.18,98.1 57.46,98.05C57.71,98 58.01,98.12 58.25,98.29C58.55,98.5 58.8,98.95 59.05,99.35C59.34,99.82 59.58,100.4 59.84,100.95C60.11,101.53 60.37,102.16 60.64,102.75C60.9,103.32 61.15,103.91 61.43,104.43C61.69,104.91 61.95,105.39 62.23,105.79C62.48,106.15 62.74,106.47 63.02,106.74C63.27,106.98 63.54,107.19 63.82,107.35C64.08,107.5 64.34,107.6 64.61,107.69C64.87,107.78 65.14,107.83 65.41,107.87C65.67,107.91 65.94,107.93 66.2,107.95C66.47,107.97 66.73,107.97 67,107.98C67.26,107.99 67.53,107.99 67.79,107.99C68.06,107.99 68.32,108 68.59,108C68.85,108 69.12,108 69.38,108C69.65,108 69.91,108 70.18,108C70.44,108 70.71,108 70.97,108C71.24,108 71.5,108 71.77,108C72.03,108 72.3,108 72.56,108C72.83,108 73.09,108 73.36,108C73.62,108 73.89,107.99 74.15,107.99C74.42,107.98 74.68,107.98 74.95,107.97C75.21,107.96 75.48,107.95 75.74,107.93C76.01,107.9 76.28,107.87 76.54,107.82C76.81,107.76 77.07,107.7 77.33,107.6C77.6,107.49 77.88,107.36 78.13,107.17C78.41,106.96 78.67,106.69 78.92,106.38C79.21,106.01 79.47,105.56 79.72,105.06C80.01,104.47 80.26,103.77 80.51,103.03C80.8,102.16 81.06,101.18 81.31,100.16C81.59,99.02 81.84,97.77 82.1,96.5C82.37,95.15 82.64,93.69 82.9,92.28C83.17,90.86 83.41,89.36 83.69,87.99C83.95,86.71 84.19,85.4 84.49,84.31C84.73,83.42 84.92,82.42 85.28,81.9C85.51,81.57 85.83,81.21 86.08,81.25C86.37,81.3 86.64,81.98 86.87,82.5C87.2,83.24 87.42,84.34 87.67,85.38C87.96,86.59 88.2,87.99 88.46,89.34C88.73,90.75 88.99,92.25 89.26,93.67C89.52,95.06 89.77,96.47 90.05,97.77C90.3,98.97 90.57,100.14 90.85,101.2C91.1,102.13 91.35,103.02 91.64,103.79C91.89,104.45 92.15,105.06 92.44,105.57C92.69,106 92.94,106.39 93.23,106.7C93.48,106.97 93.75,107.18 94.03,107.35C94.28,107.51 94.55,107.61 94.82,107.7C95.08,107.78 95.35,107.83 95.62,107.87Q95.88,107.91 96.41,107.95L96.41,108" style="vector-effect: non-scaling-stroke; stroke-width: 2px; stroke: rgb(102, 194, 164); stroke-opacity: 1; fill: rgb(102, 194, 164); fill-opacity: 0.5;"/><path class="meanline" d="M78.87,106.44107055664062V108" style="fill: none; vector-effect: non-scaling-stroke; stroke-width: 2px; stroke-dasharray: 4px, 2px; stroke: rgb(102, 194, 164); stroke-opacity: 1;"/></g><g class="trace violins" style="opacity: 1;"><path class="violin" d="M86.84,81.25L86.84,81.24Q86.92,81.23 86.96,81.22C87,81.21 87.04,81.21 87.08,81.2C87.12,81.19 87.15,81.17 87.19,81.16C87.23,81.15 87.27,81.14 87.31,81.12C87.35,81.1 87.39,81.08 87.43,81.06C87.47,81.04 87.51,81.03 87.55,81.01C87.59,80.99 87.62,80.97 87.66,80.95C87.7,80.93 87.74,80.91 87.78,80.89C87.82,80.87 87.86,80.85 87.9,80.83C87.94,80.81 87.97,80.78 88.01,80.75C88.05,80.72 88.09,80.69 88.13,80.65C88.17,80.61 88.21,80.56 88.25,80.51C88.29,80.46 88.33,80.4 88.37,80.34C88.41,80.28 88.44,80.22 88.48,80.15C88.52,80.08 88.56,80 88.6,79.93C88.64,79.85 88.68,79.78 88.72,79.7C88.76,79.62 88.8,79.54 88.84,79.46C88.88,79.37 88.91,79.28 88.95,79.19C88.99,79.09 89.03,78.99 89.07,78.89C89.11,78.78 89.15,78.67 89.19,78.55C89.23,78.43 89.26,78.29 89.3,78.16C89.34,78.02 89.38,77.88 89.42,77.73C89.46,77.57 89.5,77.41 89.54,77.25C89.58,77.08 89.62,76.91 89.66,76.74C89.7,76.56 89.73,76.37 89.77,76.18C89.81,75.98 89.85,75.78 89.89,75.58C89.93,75.37 89.97,75.14 90.01,74.92C90.05,74.69 90.08,74.45 90.12,74.21C90.16,73.96 90.2,73.7 90.24,73.44C90.28,73.17 90.32,72.9 90.36,72.63C90.4,72.36 90.44,72.08 90.48,71.8C90.52,71.52 90.55,71.23 90.59,70.94C90.63,70.65 90.67,70.36 90.71,70.06C90.75,69.76 90.79,69.46 90.83,69.15C90.87,68.84 90.91,68.52 90.95,68.2C90.99,67.87 91.02,67.54 91.06,67.21C91.1,66.87 91.14,66.53 91.18,66.19C91.22,65.84 91.26,65.49 91.3,65.14C91.34,64.79 91.37,64.43 91.41,64.08C91.45,63.72 91.49,63.36 91.53,63.01C91.57,62.66 91.61,62.31 91.65,61.96C91.69,61.62 91.73,61.29 91.77,60.96C91.81,60.64 91.84,60.33 91.88,60.03C91.92,59.73 91.96,59.45 92,59.16C92.04,58.88 92.08,58.61 92.12,58.34C92.16,58.07 92.2,57.81 92.24,57.55C92.28,57.3 92.31,57.05 92.35,56.8C92.39,56.56 92.43,56.32 92.47,56.1C92.51,55.89 92.55,55.69 92.59,55.5C92.63,55.33 92.66,55.17 92.7,55.03C92.74,54.91 92.77,54.8 92.82,54.71C92.86,54.64 92.89,54.57 92.94,54.54C92.98,54.51 93.02,54.5 93.06,54.5C93.1,54.5 93.13,54.53 93.17,54.55C93.21,54.58 93.25,54.61 93.29,54.66C93.33,54.71 93.37,54.78 93.41,54.86C93.45,54.95 93.49,55.05 93.53,55.16C93.57,55.29 93.6,55.45 93.64,55.61C93.68,55.8 93.72,56.01 93.76,56.23C93.8,56.47 93.84,56.74 93.88,57.01C93.92,57.3 93.95,57.6 93.99,57.9C94.03,58.21 94.07,58.54 94.11,58.86C94.15,59.18 94.19,59.51 94.23,59.84C94.27,60.16 94.31,60.49 94.35,60.81C94.39,61.13 94.42,61.44 94.46,61.76C94.5,62.07 94.54,62.38 94.58,62.7C94.62,63.02 94.66,63.34 94.7,63.66C94.74,63.98 94.77,64.31 94.81,64.63C94.85,64.96 94.89,65.29 94.93,65.62C94.97,65.95 95.01,66.27 95.05,66.59C95.09,66.9 95.13,67.21 95.17,67.52C95.21,67.82 95.24,68.12 95.28,68.42C95.32,68.72 95.36,69.01 95.4,69.3C95.44,69.59 95.48,69.88 95.52,70.17C95.56,70.46 95.6,70.74 95.64,71.03C95.68,71.32 95.71,71.6 95.75,71.89C95.79,72.17 95.83,72.46 95.87,72.74C95.91,73.02 95.95,73.3 95.99,73.57C96.03,73.84 96.06,74.11 96.1,74.37C96.14,74.63 96.18,74.89 96.22,75.14C96.26,75.39 96.3,75.63 96.34,75.87C96.38,76.1 96.42,76.33 96.46,76.56C96.5,76.78 96.53,77 96.57,77.21C96.61,77.42 96.65,77.62 96.69,77.82C96.73,78.01 96.77,78.2 96.81,78.38C96.85,78.55 96.89,78.72 96.93,78.88C96.97,79.03 97,79.19 97.04,79.33C97.08,79.46 97.12,79.58 97.16,79.69C97.2,79.8 97.24,79.9 97.28,79.99C97.32,80.07 97.35,80.14 97.39,80.2C97.43,80.26 97.47,80.31 97.51,80.36C97.55,80.4 97.59,80.44 97.63,80.48C97.67,80.51 97.71,80.54 97.75,80.57C97.79,80.6 97.82,80.62 97.86,80.65C97.9,80.68 97.94,80.7 97.98,80.73C98.02,80.75 98.06,80.78 98.1,80.8C98.14,80.82 98.18,80.85 98.22,80.87C98.26,80.89 98.29,80.91 98.33,80.93C98.37,80.95 98.41,80.96 98.45,80.98C98.49,81 98.53,81.01 98.57,81.03C98.61,81.04 98.64,81.06 98.68,81.07C98.72,81.08 98.76,81.1 98.8,81.11C98.84,81.12 98.88,81.13 98.92,81.14C98.96,81.15 99,81.15 99.04,81.16C99.08,81.16 99.11,81.17 99.15,81.17C99.19,81.17 99.23,81.18 99.27,81.18C99.31,81.18 99.35,81.19 99.39,81.19C99.43,81.19 99.47,81.19 99.51,81.19C99.55,81.19 99.58,81.19 99.62,81.19C99.66,81.19 99.7,81.19 99.74,81.19C99.78,81.19 99.82,81.2 99.86,81.2C99.9,81.2 99.93,81.2 99.97,81.2C100.01,81.2 100.05,81.21 100.09,81.22C100.13,81.22 100.17,81.23 100.21,81.23C100.25,81.23 100.29,81.23 100.33,81.23C100.37,81.23 100.4,81.24 100.44,81.24Q100.48,81.24 100.56,81.25L100.56,81.25" style="vector-effect: non-scaling-stroke; stroke-width: 2px; stroke: rgb(102, 194, 164); stroke-opacity: 1; fill: rgb(102, 194, 164); fill-opacity: 0.5;"/><path class="meanline" d="M93.07,54.50064468383789V81.25" style="fill: none; vector-effect: non-scaling-stroke; stroke-width: 2px; stroke-dasharray: 4px, 2px; stroke: rgb(102, 194, 164); stroke-opacity: 1;"/></g><g class="trace violins" style="opacity: 1;"><path class="violin" d="M-17.65,54.5L-17.65,54.46Q-15.58,54.43 -14.54,54.41C-13.51,54.39 -12.47,54.36 -11.44,54.32C-10.4,54.28 -9.37,54.23 -8.33,54.16C-7.29,54.09 -6.25,54.01 -5.22,53.91C-4.18,53.81 -3.15,53.69 -2.12,53.55C-1.08,53.41 -0.05,53.24 0.99,53.07C2.03,52.89 3.07,52.7 4.1,52.5C5.14,52.3 6.17,52.08 7.2,51.87C8.24,51.65 9.27,51.43 10.31,51.21C11.35,50.99 12.38,50.77 13.42,50.55C14.45,50.33 15.49,50.12 16.52,49.91C17.56,49.7 18.59,49.49 19.63,49.27C20.67,49.05 21.7,48.83 22.74,48.6C23.77,48.37 24.81,48.13 25.84,47.89C26.88,47.64 27.91,47.39 28.95,47.13C29.99,46.87 31.02,46.61 32.06,46.35C33.09,46.09 34.13,45.82 35.16,45.56C36.2,45.3 37.23,45.05 38.27,44.8C39.31,44.55 40.34,44.3 41.38,44.05C42.41,43.8 43.45,43.56 44.48,43.32C45.52,43.07 46.55,42.83 47.59,42.58C48.63,42.33 49.66,42.07 50.7,41.81C51.73,41.55 52.77,41.29 53.8,41.03C54.84,40.77 55.87,40.51 56.91,40.25C57.95,39.99 58.98,39.73 60.02,39.46C61.05,39.2 62.09,38.93 63.12,38.66C64.16,38.39 65.19,38.12 66.23,37.83C67.27,37.54 68.31,37.25 69.34,36.94C70.38,36.63 71.41,36.31 72.44,35.99C73.48,35.67 74.51,35.34 75.55,35.02C76.59,34.7 77.62,34.37 78.66,34.06C79.69,33.75 80.72,33.46 81.76,33.18C82.79,32.91 83.83,32.65 84.87,32.41C85.9,32.18 86.94,31.97 87.98,31.77C89.01,31.58 90.05,31.41 91.08,31.24C92.12,31.07 93.15,30.93 94.19,30.77C95.23,30.62 96.26,30.47 97.3,30.31C98.33,30.15 99.37,29.98 100.4,29.81C101.44,29.64 102.47,29.45 103.51,29.27C104.55,29.09 105.58,28.89 106.62,28.71C107.65,28.54 108.68,28.36 109.72,28.22C110.75,28.08 111.79,27.96 112.83,27.88C113.87,27.8 114.9,27.76 115.94,27.75C116.97,27.74 118.01,27.78 119.04,27.84C120.08,27.9 121.11,28 122.15,28.12C123.19,28.24 124.23,28.39 125.26,28.55C126.3,28.71 127.33,28.89 128.36,29.09C129.4,29.29 130.44,29.5 131.47,29.73C132.51,29.96 133.54,30.2 134.57,30.45C135.61,30.7 136.64,30.97 137.68,31.25C138.72,31.53 139.76,31.82 140.79,32.12C141.83,32.43 142.86,32.75 143.89,33.08C144.93,33.41 145.96,33.75 147,34.09C148.04,34.43 149.07,34.78 150.11,35.13C151.14,35.47 152.18,35.82 153.21,36.16C154.25,36.5 155.28,36.84 156.32,37.16C157.36,37.48 158.39,37.79 159.43,38.09C160.46,38.38 161.49,38.66 162.53,38.93C163.56,39.2 164.6,39.45 165.64,39.69C166.68,39.93 167.71,40.16 168.75,40.39C169.78,40.62 170.82,40.83 171.85,41.05C172.89,41.27 173.92,41.49 174.96,41.71C176,41.93 177.03,42.16 178.07,42.39C179.1,42.62 180.14,42.86 181.17,43.11C182.21,43.36 183.24,43.61 184.28,43.87C185.32,44.13 186.35,44.4 187.39,44.67C188.42,44.94 189.46,45.21 190.49,45.48C191.53,45.75 192.56,46.02 193.6,46.28C194.64,46.54 195.67,46.81 196.71,47.06C197.74,47.31 198.78,47.56 199.81,47.8C200.85,48.04 201.88,48.28 202.92,48.52C203.96,48.75 204.99,48.98 206.03,49.21C207.06,49.44 208.1,49.67 209.13,49.9C210.17,50.13 211.2,50.36 212.24,50.59C213.28,50.82 214.31,51.04 215.35,51.27C216.38,51.49 217.41,51.72 218.45,51.94C219.48,52.15 220.52,52.36 221.56,52.56C222.6,52.75 223.63,52.94 224.67,53.11C225.7,53.28 226.73,53.44 227.77,53.57C228.8,53.7 229.84,53.81 230.88,53.91C231.92,54.01 232.95,54.09 233.99,54.16C235.02,54.23 236.06,54.27 237.09,54.31C238.13,54.35 239.16,54.38 240.2,54.41Q241.24,54.43 243.31,54.46L243.31,54.5" style="vector-effect: non-scaling-stroke; stroke-width: 2px; stroke: rgb(102, 194, 164); stroke-opacity: 1; fill: rgb(102, 194, 164); fill-opacity: 0.5;"/><path class="meanline" d="M112.94,27.871784210205078V54.5" style="fill: none; vector-effect: non-scaling-stroke; stroke-width: 2px; stroke-dasharray: 4px, 2px; stroke: rgb(102, 194, 164); stroke-opacity: 1;"/></g></g></g><g class="overplot"/><path class="xlines-above crisp" d="M0,0" style="fill: none;"/><path class="ylines-above crisp" d="M0,0" style="fill: none;"/><g class="overlines-above"/><g class="xaxislayer-above"><g class="xtick"><text text-anchor="start" x="0" y="203" transform="translate(40,0) rotate(90,0,197)" style="font-family: 'Open Sans', verdana, arial, sans-serif; font-size: 12px; fill: rgb(68, 68, 68); fill-opacity: 1; white-space: pre;">−1</text></g><g class="xtick"><text text-anchor="start" x="0" y="203" transform="translate(68.25,0) rotate(90,0,197)" style="font-family: 'Open Sans', verdana, arial, sans-serif; font-size: 12px; fill: rgb(68, 68, 68); fill-opacity: 1; white-space: pre;">−0.75</text></g><g class="xtick"><text text-anchor="start" x="0" y="203" transform="translate(96.5,0) rotate(90,0,197)" style="font-family: 'Open Sans', verdana, arial, sans-serif; font-size: 12px; fill: rgb(68, 68, 68); fill-opacity: 1; white-space: pre;">−0.5</text></g><g class="xtick"><text text-anchor="start" x="0" y="203" transform="translate(124.75,0) rotate(90,0,197)" style="font-family: 'Open Sans', verdana, arial, sans-serif; font-size: 12px; fill: rgb(68, 68, 68); fill-opacity: 1; white-space: pre;">−0.25</text></g><g class="xtick"><text text-anchor="start" x="0" y="203" transform="translate(153,0) rotate(90,0,197)" style="font-family: 'Open Sans', verdana, arial, sans-serif; font-size: 12px; fill: rgb(68, 68, 68); fill-opacity: 1; white-space: pre;">0</text></g><g class="xtick"><text text-anchor="start" x="0" y="203" transform="translate(181.25,0) rotate(90,0,197)" style="font-family: 'Open Sans', verdana, arial, sans-serif; font-size: 12px; fill: rgb(68, 68, 68); fill-opacity: 1; white-space: pre;">0.25</text></g><g class="xtick"><text text-anchor="start" x="0" y="203" transform="translate(209.5,0) rotate(90,0,197)" style="font-family: 'Open Sans', verdana, arial, sans-serif; font-size: 12px; fill: rgb(68, 68, 68); fill-opacity: 1; white-space: pre;">0.5</text></g><g class="xtick"><text text-anchor="start" x="0" y="203" transform="translate(237.75,0) rotate(90,0,197)" style="font-family: 'Open Sans', verdana, arial, sans-serif; font-size: 12px; fill: rgb(68, 68, 68); fill-opacity: 1; white-space: pre;">0.75</text></g><g class="xtick"><text text-anchor="start" x="0" y="203" transform="translate(266,0) rotate(90,0,197)" style="font-family: 'Open Sans', verdana, arial, sans-serif; font-size: 12px; fill: rgb(68, 68, 68); fill-opacity: 1; white-space: pre;">1</text></g></g><g class="yaxislayer-above"><g class="ytick"><text text-anchor="end" x="39" y="4.199999999999999" transform="translate(0,181.5)" style="font-family: 'Open Sans', verdana, arial, sans-serif; font-size: 12px; fill: rgb(68, 68, 68); fill-opacity: 1; white-space: pre;">Meis</text></g><g class="ytick"><text text-anchor="end" x="39" y="4.199999999999999" transform="translate(0,154.75)" style="font-family: 'Open Sans', verdana, arial, sans-serif; font-size: 12px; fill: rgb(68, 68, 68); fill-opacity: 1; white-space: pre;">Meus</text></g><g class="ytick"><text text-anchor="end" x="39" y="4.199999999999999" transform="translate(0,128)" style="font-family: 'Open Sans', verdana, arial, sans-serif; font-size: 12px; fill: rgb(68, 68, 68); fill-opacity: 1; white-space: pre;">Seum</text></g><g class="ytick"><text text-anchor="end" x="39" y="4.199999999999999" transform="translate(0,101.25)" style="font-family: 'Open Sans', verdana, arial, sans-serif; font-size: 12px; fill: rgb(68, 68, 68); fill-opacity: 1; white-space: pre;">Teas</text></g><g class="ytick"><text text-anchor="end" x="39" y="4.199999999999999" transform="translate(0,74.5)" style="font-family: 'Open Sans', verdana, arial, sans-serif; font-size: 12px; fill: rgb(68, 68, 68); fill-opacity: 1; white-space: pre;">Raer</text></g></g><g class="overaxes-above"/></g></g><g class="polarlayer"/><g class="ternarylayer"/><g class="geolayer"/><g class="funnelarealayer"/><g class="pielayer"/><g class="treemaplayer"/><g class="sunburstlayer"/><g class="glimages"/><defs id="topdefs-455c80"><g class="clips"/></defs><g class="layer-above"><g class="imagelayer"/><g class="shapelayer"><path data-index="0" fill-rule="evenodd" d="M141.7,181.5L141.7,21" clip-path="url('#clip455c80xy')" style="opacity: 1; stroke: rgb(0, 0, 0); stroke-opacity: 1; fill: rgb(0, 0, 0); fill-opacity: 0; stroke-dasharray: 9px, 9px; stroke-width: 2px;"/><path data-index="1" fill-rule="evenodd" d="M164.3,181.5L164.3,21" clip-path="url('#clip455c80xy')" style="opacity: 1; stroke: rgb(0, 0, 0); stroke-opacity: 1; fill: rgb(0, 0, 0); fill-opacity: 0; stroke-dasharray: 9px, 9px; stroke-width: 2px;"/></g></g><g class="infolayer"><g class="g-gtitle"><text class="gtitle" x="143" y="10" text-anchor="middle" dy="0em" style="font-family: Calibri; font-size: 14px; fill: rgb(68, 68, 68); opacity: 1; font-weight: normal; white-space: pre;">CIR_19</text></g><g class="g-xtitle" transform="translate(0,0.703125)"><text class="xtitle" x="153" y="242" text-anchor="middle" style="font-family: 'Open Sans', verdana, arial, sans-serif; font-size: 14px; fill: rgb(68, 68, 68); opacity: 1; font-weight: normal; white-space: pre;">Coeficiente de Interacción</text></g><g class="g-ytitle"/></g></svg>