<svg class="main-svg" xmlns="http://www.w3.org/2000/svg" xmlns:xlink="http://www.w3.org/1999/xlink" width="286" height="250" style="" viewBox="0 0 286 250"><rect x="0" y="0" width="286" height="250" style="fill: rgb(255, 255, 255); fill-opacity: 1;"/><defs id="defs-29ee22"><g class="clips"><clipPath id="clip29ee22xyplot" class="plotclip"><rect width="226" height="170"/></clipPath><clipPath class="axesclip" id="clip29ee22x"><rect x="40" y="0" width="226" height="250"/></clipPath><clipPath class="axesclip" id="clip29ee22y"><rect x="0" y="20" width="286" height="170"/></clipPath><clipPath class="axesclip" id="clip29ee22xy"><rect x="40" y="20" width="226" height="170"/></clipPath></g><g class="gradients"/></defs><g class="bglayer"/><g class="layer-below"><g class="imagelayer"/><g class="shapelayer"/></g><g class="cartesianlayer"><g class="subplot xy"><g class="layer-subplot"><g class="shapelayer"/><g class="imagelayer"/></g><g class="gridlayer"><g class="x"/><g class="y"><path class="ygrid crisp" transform="translate(0,181.5)" d="M40,0h226" style="stroke: rgb(238, 238, 238); stroke-opacity: 1; stroke-width: 1px;"/><path class="ygrid crisp" transform="translate(0,154.75)" d="M40,0h226" style="stroke: rgb(238, 238, 238); stroke-opacity: 1; stroke-width: 1px;"/><path class="ygrid crisp" transform="translate(0,128)" d="M40,0h226" style="stroke: rgb(238, 238, 238); stroke-opacity: 1; stroke-width: 1px;"/><path class="ygrid crisp" transform="translate(0,101.25)" d="M40,0h226" style="stroke: rgb(238, 238, 238); stroke-opacity: 1; stroke-width: 1px;"/><path class="ygrid crisp" transform="translate(0,74.5)" d="M40,0h226" style="stroke: rgb(238, 238, 238); stroke-opacity: 1; stroke-width: 1px;"/></g></g><g class="zerolinelayer"/><path class="xlines-below"/><path class="ylines-below"/><g class="overlines-below"/><g class="xaxislayer-below"/><g class="yaxislayer-below"/><g class="overaxes-below"/><g class="plot" transform="translate(40,20)" clip-path="url('#clip29ee22xyplot')"><g class="violinlayer mlayer"><g class="trace violins" style="opacity: 1;"><path class="violin" d="M76.89,161.5L76.89,161.01Q78.37,160.71 79.09,160.46C79.84,160.2 80.58,159.88 81.3,159.47C82.06,159.04 82.79,158.5 83.5,157.9C84.26,157.25 84.99,156.48 85.7,155.67C86.46,154.8 87.18,153.81 87.9,152.82C88.65,151.79 89.38,150.66 90.11,149.58C90.85,148.49 91.56,147.36 92.31,146.31C93.03,145.3 93.75,144.28 94.51,143.39C95.22,142.56 95.94,141.75 96.71,141.09C97.42,140.48 98.15,139.94 98.91,139.51C99.62,139.11 100.37,138.81 101.12,138.57C101.84,138.34 102.58,138.21 103.32,138.1C104.05,137.99 104.79,137.96 105.52,137.92C106.25,137.88 106.99,137.88 107.72,137.87C108.46,137.86 109.19,137.86 109.93,137.84C110.66,137.82 111.4,137.81 112.13,137.77C112.86,137.73 113.6,137.68 114.33,137.62C115.06,137.55 115.8,137.47 116.53,137.38C117.27,137.29 118,137.19 118.74,137.09C119.47,136.99 120.21,136.88 120.94,136.78C121.67,136.68 122.41,136.58 123.14,136.5C123.87,136.42 124.61,136.35 125.34,136.3C126.07,136.25 126.81,136.2 127.54,136.18C128.28,136.16 129.01,136.15 129.75,136.16C130.48,136.17 131.22,136.21 131.95,136.25C132.68,136.3 133.42,136.36 134.15,136.43C134.88,136.5 135.62,136.58 136.35,136.66C137.09,136.74 137.82,136.83 138.56,136.89C139.29,136.95 140.03,137.01 140.76,137.04C141.49,137.07 142.23,137.07 142.96,137.05C143.69,137.03 144.43,136.98 145.16,136.91C145.89,136.84 146.63,136.75 147.36,136.65C148.1,136.55 148.83,136.43 149.57,136.32C150.3,136.21 151.04,136.09 151.77,135.98C152.5,135.88 153.24,135.77 153.97,135.69C154.7,135.61 155.44,135.53 156.17,135.48C156.91,135.42 157.64,135.39 158.38,135.36C159.11,135.33 159.85,135.32 160.58,135.32C161.31,135.32 162.05,135.34 162.78,135.35C163.51,135.36 164.25,135.38 164.98,135.4C165.72,135.42 166.45,135.45 167.19,135.47C167.92,135.49 168.66,135.51 169.39,135.52C170.12,135.53 170.86,135.54 171.59,135.54C172.32,135.54 173.06,135.54 173.79,135.53C174.52,135.52 175.26,135.51 175.99,135.5C176.73,135.48 177.46,135.46 178.2,135.44C178.93,135.42 179.67,135.4 180.4,135.37C181.13,135.34 181.87,135.31 182.6,135.27C183.33,135.23 184.07,135.18 184.8,135.12C185.54,135.06 186.27,134.99 187.01,134.93C187.74,134.87 188.48,134.78 189.21,134.75C189.94,134.72 190.68,134.68 191.41,134.75C192.15,134.82 192.89,134.91 193.61,135.15C194.36,135.4 195.11,135.76 195.82,136.23C196.59,136.74 197.32,137.42 198.02,138.16C198.79,138.98 199.51,139.97 200.22,140.98C200.98,142.07 201.7,143.29 202.42,144.49C203.17,145.73 203.88,147.06 204.62,148.32C205.35,149.57 206.07,150.84 206.83,152.02C207.55,153.13 208.26,154.24 209.03,155.21C209.74,156.11 210.46,156.96 211.23,157.67C211.93,158.32 212.67,158.89 213.43,159.36C214.14,159.8 214.89,160.13 215.64,160.41Q216.36,160.68 217.84,161L217.84,161.5" style="vector-effect: non-scaling-stroke; stroke-width: 2px; stroke: rgb(102, 194, 164); stroke-opacity: 1; fill: rgb(102, 194, 164); fill-opacity: 0.5;"/><path class="meanline" d="M148.73,136.44798278808594V161.5" style="fill: none; vector-effect: non-scaling-stroke; stroke-width: 2px; stroke-dasharray: 4px, 2px; stroke: rgb(102, 194, 164); stroke-opacity: 1;"/></g><g class="trace violins" style="opacity: 1;"><path class="violin" d="M147.37,134.75L147.37,134.74Q147.44,134.74 147.48,134.74C147.51,134.74 147.55,134.73 147.58,134.72C147.61,134.72 147.65,134.71 147.68,134.71C147.72,134.7 147.75,134.7 147.79,134.69C147.82,134.68 147.86,134.68 147.89,134.67C147.92,134.66 147.96,134.65 147.99,134.64C148.03,134.63 148.06,134.62 148.1,134.61C148.13,134.6 148.17,134.59 148.2,134.58C148.23,134.57 148.27,134.55 148.3,134.54C148.34,134.52 148.37,134.51 148.41,134.49C148.44,134.47 148.48,134.45 148.51,134.43C148.54,134.41 148.58,134.38 148.61,134.35C148.64,134.32 148.68,134.29 148.71,134.26C148.75,134.23 148.79,134.19 148.82,134.15C148.86,134.11 148.89,134.07 148.92,134.03C148.95,133.98 148.99,133.93 149.02,133.88C149.06,133.83 149.1,133.78 149.13,133.72C149.17,133.66 149.2,133.6 149.23,133.53C149.26,133.46 149.3,133.39 149.33,133.32C149.37,133.24 149.41,133.16 149.44,133.07C149.48,132.98 149.51,132.87 149.54,132.77C149.57,132.66 149.61,132.54 149.64,132.42C149.68,132.29 149.72,132.15 149.75,132C149.79,131.85 149.82,131.68 149.85,131.52C149.88,131.35 149.92,131.18 149.95,131C149.99,130.81 150.03,130.62 150.06,130.43C150.1,130.24 150.13,130.04 150.16,129.84C150.19,129.64 150.23,129.44 150.26,129.24C150.29,129.03 150.33,128.82 150.36,128.61C150.4,128.39 150.44,128.18 150.47,127.96C150.51,127.74 150.54,127.51 150.57,127.28C150.6,127.04 150.64,126.8 150.67,126.56C150.71,126.31 150.75,126.05 150.78,125.79C150.82,125.52 150.85,125.25 150.88,124.98C150.91,124.71 150.95,124.43 150.98,124.16C151.02,123.88 151.06,123.61 151.09,123.33C151.13,123.05 151.16,122.77 151.19,122.48C151.22,122.18 151.26,121.88 151.29,121.57C151.33,121.24 151.37,120.91 151.4,120.56C151.44,120.19 151.47,119.81 151.5,119.42C151.53,119.01 151.57,118.57 151.6,118.14C151.64,117.7 151.68,117.24 151.71,116.79C151.75,116.34 151.78,115.87 151.81,115.43C151.84,115 151.88,114.58 151.91,114.17C151.94,113.79 151.97,113.41 152.01,113.06C152.04,112.74 152.08,112.43 152.12,112.14C152.15,111.88 152.18,111.62 152.22,111.39C152.25,111.18 152.28,110.99 152.32,110.8C152.35,110.63 152.39,110.46 152.43,110.31C152.46,110.17 152.5,110.04 152.53,109.91C152.56,109.79 152.59,109.67 152.63,109.56C152.66,109.45 152.7,109.34 152.74,109.23C152.77,109.12 152.81,109.01 152.84,108.91C152.87,108.81 152.9,108.71 152.94,108.61C152.97,108.51 153.01,108.42 153.05,108.33C153.08,108.25 153.11,108.17 153.15,108.11C153.18,108.06 153.21,108.01 153.25,108C153.28,107.99 153.33,108.01 153.36,108.04C153.4,108.08 153.43,108.17 153.46,108.25C153.5,108.36 153.53,108.5 153.56,108.64C153.6,108.8 153.63,108.98 153.66,109.16C153.7,109.36 153.74,109.57 153.77,109.79C153.81,110.02 153.84,110.26 153.87,110.51C153.9,110.77 153.94,111.04 153.97,111.31C154.01,111.6 154.05,111.89 154.08,112.2C154.12,112.52 154.15,112.86 154.18,113.2C154.21,113.56 154.25,113.93 154.28,114.31C154.32,114.7 154.36,115.1 154.39,115.5C154.43,115.9 154.46,116.31 154.49,116.71C154.52,117.11 154.55,117.5 154.59,117.89C154.62,118.27 154.66,118.64 154.7,119C154.73,119.35 154.77,119.7 154.8,120.04C154.83,120.37 154.87,120.7 154.9,121.02C154.93,121.34 154.96,121.65 155,121.96C155.03,122.26 155.07,122.56 155.11,122.85C155.14,123.13 155.18,123.4 155.21,123.67C155.24,123.93 155.27,124.18 155.31,124.43C155.34,124.67 155.38,124.9 155.42,125.14C155.45,125.37 155.49,125.61 155.52,125.84C155.55,126.07 155.59,126.3 155.62,126.54C155.66,126.78 155.7,127.03 155.73,127.27C155.77,127.52 155.8,127.76 155.83,128.01C155.86,128.25 155.89,128.5 155.93,128.74C155.96,128.98 156,129.21 156.04,129.44C156.07,129.66 156.11,129.88 156.14,130.1C156.17,130.31 156.2,130.52 156.24,130.72C156.27,130.91 156.31,131.1 156.35,131.29C156.38,131.47 156.42,131.65 156.45,131.82C156.48,131.98 156.52,132.15 156.55,132.3C156.58,132.44 156.61,132.59 156.65,132.72C156.68,132.85 156.72,132.97 156.76,133.08C156.79,133.18 156.82,133.28 156.86,133.37C156.89,133.45 156.92,133.53 156.96,133.6C156.99,133.67 157.03,133.73 157.07,133.79C157.1,133.85 157.14,133.9 157.17,133.95C157.2,134 157.23,134.04 157.27,134.08C157.3,134.12 157.34,134.16 157.38,134.2C157.41,134.24 157.45,134.28 157.48,134.31C157.51,134.34 157.54,134.37 157.58,134.4C157.61,134.43 157.65,134.45 157.69,134.47C157.72,134.49 157.76,134.5 157.79,134.52C157.82,134.53 157.86,134.55 157.89,134.56C157.93,134.57 157.96,134.58 158,134.59C158.03,134.6 158.07,134.61 158.1,134.62C158.13,134.63 158.17,134.64 158.2,134.65C158.23,134.66 158.27,134.66 158.3,134.67C158.34,134.68 158.37,134.68 158.41,134.69C158.44,134.7 158.48,134.7 158.51,134.71C158.54,134.71 158.58,134.72 158.61,134.72C158.65,134.72 158.68,134.73 158.72,134.73C158.75,134.73 158.79,134.74 158.82,134.74Q158.85,134.74 158.92,134.74L158.92,134.75" style="vector-effect: non-scaling-stroke; stroke-width: 2px; stroke: rgb(102, 194, 164); stroke-opacity: 1; fill: rgb(102, 194, 164); fill-opacity: 0.5;"/><path class="meanline" d="M153.12,108.16130828857422V134.75" style="fill: none; vector-effect: non-scaling-stroke; stroke-width: 2px; stroke-dasharray: 4px, 2px; stroke: rgb(102, 194, 164); stroke-opacity: 1;"/></g><g class="trace violins" style="opacity: 1;"><path class="violin" d="M76.55,108L76.55,107.99Q76.6,107.99 76.62,107.99C76.64,107.99 76.66,107.98 76.68,107.98C76.7,107.98 76.73,107.97 76.75,107.97C76.77,107.97 76.79,107.96 76.81,107.96C76.83,107.95 76.86,107.95 76.88,107.94C76.9,107.94 76.93,107.94 76.95,107.93C76.97,107.93 76.99,107.91 77.01,107.91C77.03,107.9 77.06,107.9 77.08,107.9C77.1,107.9 77.12,107.89 77.14,107.89C77.16,107.88 77.19,107.88 77.21,107.87C77.23,107.86 77.26,107.86 77.28,107.85C77.3,107.84 77.32,107.84 77.34,107.83C77.36,107.82 77.39,107.82 77.41,107.81C77.43,107.8 77.45,107.78 77.47,107.77C77.49,107.76 77.52,107.75 77.54,107.73C77.56,107.72 77.58,107.7 77.6,107.68C77.62,107.66 77.65,107.64 77.67,107.62C77.69,107.6 77.72,107.57 77.74,107.55C77.76,107.52 77.78,107.5 77.8,107.47C77.82,107.44 77.85,107.41 77.87,107.37C77.89,107.33 77.91,107.29 77.93,107.25C77.95,107.21 77.98,107.16 78,107.11C78.02,107.05 78.05,106.99 78.07,106.93C78.09,106.86 78.11,106.79 78.13,106.71C78.15,106.63 78.18,106.54 78.2,106.46C78.22,106.37 78.24,106.29 78.26,106.2C78.28,106.11 78.31,106.02 78.33,105.93C78.35,105.84 78.38,105.76 78.4,105.67C78.42,105.58 78.44,105.49 78.46,105.39C78.48,105.29 78.51,105.18 78.53,105.07C78.55,104.95 78.57,104.82 78.59,104.68C78.61,104.53 78.64,104.38 78.66,104.22C78.68,104.05 78.7,103.87 78.72,103.68C78.74,103.48 78.77,103.27 78.79,103.06C78.81,102.84 78.84,102.62 78.86,102.39C78.88,102.16 78.9,101.92 78.92,101.69C78.94,101.46 78.97,101.22 78.99,100.99C79.01,100.76 79.03,100.53 79.05,100.3C79.07,100.07 79.1,99.85 79.12,99.62C79.14,99.39 79.17,99.17 79.19,98.94C79.21,98.7 79.23,98.46 79.25,98.22C79.27,97.97 79.3,97.72 79.32,97.46C79.34,97.19 79.36,96.92 79.38,96.65C79.4,96.38 79.43,96.1 79.45,95.83C79.47,95.56 79.5,95.29 79.52,95.02C79.54,94.76 79.56,94.49 79.58,94.23C79.6,93.97 79.63,93.73 79.65,93.47C79.67,93.21 79.69,92.95 79.71,92.68C79.73,92.41 79.76,92.13 79.78,91.85C79.8,91.55 79.83,91.24 79.85,90.93C79.87,90.61 79.89,90.28 79.91,89.95C79.93,89.61 79.96,89.26 79.98,88.92C80,88.58 80.02,88.23 80.04,87.89C80.06,87.56 80.09,87.22 80.11,86.9C80.13,86.59 80.15,86.27 80.17,85.97C80.19,85.68 80.22,85.39 80.24,85.11C80.26,84.84 80.29,84.58 80.31,84.33C80.33,84.09 80.35,83.85 80.37,83.62C80.39,83.4 80.42,83.19 80.44,82.98C80.46,82.78 80.48,82.58 80.5,82.4C80.52,82.23 80.54,82.06 80.57,81.91C80.59,81.78 80.62,81.65 80.64,81.54C80.66,81.45 80.67,81.36 80.7,81.31C80.72,81.28 80.75,81.25 80.77,81.25C80.79,81.25 80.81,81.32 80.83,81.37C80.86,81.44 80.88,81.55 80.9,81.66C80.93,81.8 80.95,81.96 80.97,82.12C80.99,82.31 81.01,82.51 81.03,82.73C81.05,82.97 81.08,83.23 81.1,83.5C81.12,83.79 81.14,84.1 81.16,84.41C81.18,84.74 81.21,85.08 81.23,85.43C81.25,85.79 81.27,86.16 81.29,86.53C81.31,86.9 81.34,87.29 81.36,87.66C81.38,88.03 81.41,88.4 81.43,88.76C81.45,89.11 81.47,89.46 81.49,89.8C81.51,90.13 81.54,90.45 81.56,90.77C81.58,91.08 81.6,91.37 81.62,91.67C81.64,91.96 81.67,92.24 81.69,92.53C81.71,92.81 81.74,93.1 81.76,93.38C81.78,93.67 81.8,93.95 81.82,94.24C81.84,94.54 81.87,94.84 81.89,95.14C81.91,95.44 81.93,95.75 81.95,96.06C81.97,96.37 82,96.68 82.02,96.99C82.04,97.29 82.07,97.59 82.09,97.89C82.11,98.19 82.13,98.49 82.15,98.78C82.17,99.06 82.2,99.34 82.22,99.62C82.24,99.89 82.26,100.17 82.28,100.44C82.3,100.7 82.33,100.96 82.35,101.22C82.37,101.47 82.4,101.72 82.42,101.96C82.44,102.2 82.46,102.44 82.48,102.67C82.5,102.89 82.53,103.11 82.55,103.33C82.57,103.54 82.59,103.74 82.61,103.94C82.63,104.13 82.66,104.31 82.68,104.48C82.7,104.64 82.72,104.81 82.74,104.96C82.76,105.1 82.79,105.23 82.81,105.35C82.83,105.46 82.86,105.56 82.88,105.66C82.9,105.75 82.92,105.82 82.94,105.9C82.96,105.97 82.99,106.04 83.01,106.1C83.03,106.16 83.05,106.21 83.07,106.27C83.09,106.32 83.12,106.38 83.14,106.43C83.16,106.48 83.19,106.54 83.21,106.59C83.23,106.64 83.25,106.69 83.27,106.74C83.29,106.79 83.32,106.85 83.34,106.9C83.36,106.95 83.38,107.01 83.4,107.06C83.42,107.11 83.45,107.16 83.47,107.21C83.49,107.26 83.52,107.31 83.54,107.35C83.56,107.39 83.58,107.42 83.6,107.46C83.62,107.49 83.65,107.53 83.67,107.56C83.69,107.59 83.71,107.62 83.73,107.64C83.75,107.66 83.78,107.68 83.8,107.7C83.82,107.72 83.84,107.75 83.86,107.77C83.88,107.79 83.91,107.8 83.93,107.82C83.95,107.84 83.98,107.85 84,107.87C84.02,107.89 84.04,107.91 84.06,107.92C84.08,107.93 84.11,107.94 84.13,107.95C84.15,107.96 84.17,107.97 84.19,107.97C84.21,107.98 84.24,107.98 84.26,107.98C84.28,107.98 84.31,107.98 84.33,107.98C84.35,107.98 84.37,107.98 84.39,107.98C84.41,107.98 84.44,107.97 84.46,107.97C84.48,107.97 84.5,107.97 84.52,107.97C84.54,107.97 84.57,107.97 84.59,107.97C84.61,107.97 84.64,107.97 84.66,107.97C84.68,107.97 84.7,107.97 84.72,107.97C84.74,107.97 84.77,107.98 84.79,107.98C84.81,107.98 84.83,107.99 84.85,107.99C84.87,107.99 84.9,107.99 84.92,107.99Q84.94,107.99 84.99,108L84.99,108" style="vector-effect: non-scaling-stroke; stroke-width: 2px; stroke: rgb(102, 194, 164); stroke-opacity: 1; fill: rgb(102, 194, 164); fill-opacity: 0.5;"/><path class="meanline" d="M80.68,81.35993194580078V108" style="fill: none; vector-effect: non-scaling-stroke; stroke-width: 2px; stroke-dasharray: 4px, 2px; stroke: rgb(102, 194, 164); stroke-opacity: 1;"/></g><g class="trace violins" style="opacity: 1;"><path class="violin" d="M78.35,81.25L78.35,81.25Q78.4,81.24 78.42,81.24C78.44,81.24 78.47,81.24 78.49,81.24C78.51,81.24 78.54,81.23 78.56,81.23C78.58,81.23 78.61,81.22 78.63,81.22C78.65,81.22 78.68,81.22 78.7,81.22C78.72,81.22 78.75,81.21 78.77,81.21C78.79,81.21 78.82,81.21 78.84,81.21C78.86,81.21 78.89,81.21 78.91,81.21C78.93,81.21 78.96,81.2 78.98,81.2C79,81.2 79.03,81.2 79.05,81.2C79.07,81.2 79.1,81.19 79.12,81.18C79.14,81.17 79.17,81.17 79.19,81.16C79.21,81.15 79.24,81.13 79.26,81.12C79.28,81.11 79.31,81.1 79.33,81.09C79.35,81.08 79.38,81.06 79.4,81.04C79.42,81.03 79.45,81.01 79.47,81C79.49,80.98 79.52,80.97 79.54,80.95C79.56,80.93 79.59,80.91 79.61,80.89C79.63,80.87 79.66,80.85 79.68,80.83C79.7,80.81 79.73,80.78 79.75,80.75C79.77,80.72 79.8,80.69 79.82,80.65C79.84,80.61 79.87,80.57 79.89,80.53C79.91,80.49 79.94,80.45 79.96,80.41C79.98,80.37 80.01,80.32 80.03,80.27C80.05,80.23 80.08,80.18 80.1,80.14C80.12,80.09 80.15,80.05 80.17,80C80.19,79.96 80.21,79.91 80.23,79.87C80.25,79.83 80.28,79.78 80.3,79.74C80.32,79.69 80.35,79.65 80.37,79.6C80.39,79.55 80.42,79.51 80.44,79.46C80.46,79.41 80.49,79.35 80.51,79.29C80.53,79.23 80.56,79.17 80.58,79.1C80.6,79.03 80.63,78.94 80.65,78.86C80.67,78.77 80.7,78.67 80.72,78.57C80.74,78.46 80.77,78.34 80.79,78.22C80.81,78.09 80.84,77.96 80.86,77.82C80.88,77.68 80.91,77.53 80.93,77.38C80.95,77.23 80.98,77.08 81,76.92C81.02,76.76 81.05,76.59 81.07,76.43C81.09,76.26 81.12,76.09 81.14,75.92C81.16,75.74 81.19,75.55 81.21,75.35C81.23,75.14 81.26,74.92 81.28,74.69C81.3,74.44 81.33,74.19 81.35,73.92C81.37,73.63 81.4,73.33 81.42,73.02C81.44,72.7 81.47,72.36 81.49,72.03C81.51,71.69 81.54,71.34 81.56,71C81.58,70.66 81.61,70.33 81.63,70C81.65,69.68 81.68,69.37 81.7,69.06C81.72,68.77 81.75,68.49 81.77,68.21C81.79,67.94 81.82,67.67 81.84,67.41C81.86,67.15 81.89,66.89 81.91,66.63C81.93,66.37 81.96,66.11 81.98,65.84C82,65.57 82.03,65.29 82.05,65.01C82.07,64.73 82.1,64.44 82.12,64.15C82.14,63.86 82.17,63.56 82.19,63.26C82.21,62.96 82.24,62.67 82.26,62.37C82.28,62.07 82.31,61.76 82.33,61.46C82.35,61.15 82.38,60.85 82.4,60.54C82.42,60.23 82.45,59.91 82.47,59.59C82.49,59.27 82.52,58.94 82.54,58.62C82.56,58.3 82.59,57.97 82.61,57.65C82.63,57.34 82.66,57.03 82.68,56.74C82.7,56.46 82.73,56.19 82.75,55.93C82.77,55.7 82.79,55.47 82.82,55.27C82.84,55.1 82.86,54.94 82.89,54.81C82.91,54.71 82.93,54.6 82.96,54.55C82.98,54.52 83.01,54.49 83.03,54.5C83.06,54.51 83.08,54.59 83.1,54.65C83.13,54.74 83.14,54.86 83.16,54.98C83.18,55.12 83.21,55.29 83.23,55.46C83.25,55.65 83.28,55.86 83.3,56.08C83.32,56.32 83.35,56.57 83.37,56.83C83.39,57.11 83.42,57.4 83.44,57.69C83.46,57.99 83.49,58.31 83.51,58.62C83.53,58.94 83.56,59.28 83.58,59.61C83.6,59.94 83.63,60.29 83.65,60.62C83.67,60.95 83.7,61.28 83.72,61.61C83.74,61.93 83.77,62.24 83.79,62.55C83.81,62.85 83.84,63.14 83.86,63.43C83.88,63.71 83.91,63.97 83.93,64.24C83.95,64.5 83.98,64.75 84,65C84.02,65.25 84.05,65.5 84.07,65.75C84.09,66 84.12,66.25 84.14,66.51C84.16,66.78 84.19,67.06 84.21,67.34C84.23,67.63 84.26,67.94 84.28,68.24C84.3,68.55 84.33,68.87 84.35,69.19C84.37,69.51 84.4,69.84 84.42,70.16C84.44,70.48 84.47,70.81 84.49,71.13C84.51,71.44 84.54,71.75 84.56,72.06C84.58,72.36 84.61,72.66 84.63,72.95C84.65,73.23 84.68,73.51 84.7,73.78C84.72,74.04 84.75,74.3 84.77,74.55C84.79,74.79 84.82,75.02 84.84,75.25C84.86,75.47 84.89,75.68 84.91,75.88C84.93,76.07 84.96,76.26 84.98,76.45C85,76.63 85.03,76.81 85.05,76.98C85.07,77.15 85.1,77.32 85.12,77.48C85.14,77.64 85.17,77.8 85.19,77.96C85.21,78.11 85.24,78.26 85.26,78.41C85.28,78.55 85.31,78.68 85.33,78.81C85.35,78.93 85.38,79.05 85.4,79.17C85.42,79.28 85.45,79.38 85.47,79.48C85.49,79.57 85.52,79.66 85.54,79.74C85.56,79.82 85.59,79.89 85.61,79.96C85.63,80.03 85.66,80.09 85.68,80.15C85.7,80.21 85.73,80.26 85.75,80.31C85.77,80.36 85.8,80.4 85.82,80.45C85.84,80.49 85.87,80.54 85.89,80.58C85.91,80.62 85.94,80.66 85.96,80.7C85.98,80.74 86,80.77 86.02,80.81C86.04,80.84 86.07,80.88 86.09,80.91C86.11,80.94 86.14,80.96 86.16,80.99C86.18,81.01 86.21,81.04 86.23,81.06C86.25,81.08 86.28,81.1 86.3,81.12C86.32,81.14 86.35,81.15 86.37,81.16C86.39,81.17 86.42,81.18 86.44,81.19C86.46,81.2 86.49,81.21 86.51,81.22C86.53,81.23 86.56,81.23 86.58,81.23C86.6,81.23 86.63,81.24 86.65,81.24Q86.67,81.24 86.72,81.24L86.72,81.25" style="vector-effect: non-scaling-stroke; stroke-width: 2px; stroke: rgb(102, 194, 164); stroke-opacity: 1; fill: rgb(102, 194, 164); fill-opacity: 0.5;"/><path class="meanline" d="M83,54.50604248046875V81.25" style="fill: none; vector-effect: non-scaling-stroke; stroke-width: 2px; stroke-dasharray: 4px, 2px; stroke: rgb(102, 194, 164); stroke-opacity: 1;"/></g><g class="trace violins" style="opacity: 1;"><path class="violin" d="M-17.65,54.5L-17.65,54.46Q-15.58,54.43 -14.54,54.41C-13.51,54.39 -12.47,54.36 -11.44,54.32C-10.4,54.28 -9.37,54.23 -8.33,54.16C-7.29,54.09 -6.25,54.01 -5.22,53.91C-4.18,53.81 -3.15,53.69 -2.12,53.55C-1.08,53.41 -0.05,53.24 0.99,53.07C2.03,52.89 3.07,52.7 4.1,52.5C5.14,52.3 6.17,52.08 7.2,51.87C8.24,51.65 9.27,51.43 10.31,51.21C11.35,50.99 12.38,50.77 13.42,50.55C14.45,50.33 15.49,50.12 16.52,49.91C17.56,49.7 18.59,49.49 19.63,49.27C20.67,49.05 21.7,48.83 22.74,48.6C23.77,48.37 24.81,48.13 25.84,47.89C26.88,47.64 27.91,47.39 28.95,47.13C29.99,46.87 31.02,46.61 32.06,46.35C33.09,46.09 34.13,45.82 35.16,45.56C36.2,45.3 37.23,45.05 38.27,44.8C39.31,44.55 40.34,44.3 41.38,44.05C42.41,43.8 43.45,43.56 44.48,43.32C45.52,43.07 46.55,42.83 47.59,42.58C48.63,42.33 49.66,42.07 50.7,41.81C51.73,41.55 52.77,41.29 53.8,41.03C54.84,40.77 55.87,40.51 56.91,40.25C57.95,39.99 58.98,39.73 60.02,39.46C61.05,39.2 62.09,38.93 63.12,38.66C64.16,38.39 65.19,38.12 66.23,37.83C67.27,37.54 68.31,37.25 69.34,36.94C70.38,36.63 71.41,36.31 72.44,35.99C73.48,35.67 74.51,35.34 75.55,35.02C76.59,34.7 77.62,34.37 78.66,34.06C79.69,33.75 80.72,33.46 81.76,33.18C82.79,32.91 83.83,32.65 84.87,32.41C85.9,32.18 86.94,31.97 87.98,31.77C89.01,31.58 90.05,31.41 91.08,31.24C92.12,31.07 93.15,30.93 94.19,30.77C95.23,30.62 96.26,30.47 97.3,30.31C98.33,30.15 99.37,29.98 100.4,29.81C101.44,29.64 102.47,29.45 103.51,29.27C104.55,29.09 105.58,28.89 106.62,28.71C107.65,28.54 108.68,28.36 109.72,28.22C110.75,28.08 111.79,27.96 112.83,27.88C113.87,27.8 114.9,27.76 115.94,27.75C116.97,27.74 118.01,27.78 119.04,27.84C120.08,27.9 121.11,28 122.15,28.12C123.19,28.24 124.23,28.39 125.26,28.55C126.3,28.71 127.33,28.89 128.36,29.09C129.4,29.29 130.44,29.5 131.47,29.73C132.51,29.96 133.54,30.2 134.57,30.45C135.61,30.7 136.64,30.97 137.68,31.25C138.72,31.53 139.76,31.82 140.79,32.12C141.83,32.43 142.86,32.75 143.89,33.08C144.93,33.41 145.96,33.75 147,34.09C148.04,34.43 149.07,34.78 150.11,35.13C151.14,35.47 152.18,35.82 153.21,36.16C154.25,36.5 155.28,36.84 156.32,37.16C157.36,37.48 158.39,37.79 159.43,38.09C160.46,38.38 161.49,38.66 162.53,38.93C163.56,39.2 164.6,39.45 165.64,39.69C166.68,39.93 167.71,40.16 168.75,40.39C169.78,40.62 170.82,40.83 171.85,41.05C172.89,41.27 173.92,41.49 174.96,41.71C176,41.93 177.03,42.16 178.07,42.39C179.1,42.62 180.14,42.86 181.17,43.11C182.21,43.36 183.24,43.61 184.28,43.87C185.32,44.13 186.35,44.4 187.39,44.67C188.42,44.94 189.46,45.21 190.49,45.48C191.53,45.75 192.56,46.02 193.6,46.28C194.64,46.54 195.67,46.81 196.71,47.06C197.74,47.31 198.78,47.56 199.81,47.8C200.85,48.04 201.88,48.28 202.92,48.52C203.96,48.75 204.99,48.98 206.03,49.21C207.06,49.44 208.1,49.67 209.13,49.9C210.17,50.13 211.2,50.36 212.24,50.59C213.28,50.82 214.31,51.04 215.35,51.27C216.38,51.49 217.41,51.72 218.45,51.94C219.48,52.15 220.52,52.36 221.56,52.56C222.6,52.75 223.63,52.94 224.67,53.11C225.7,53.28 226.73,53.44 227.77,53.57C228.8,53.7 229.84,53.81 230.88,53.91C231.92,54.01 232.95,54.09 233.99,54.16C235.02,54.23 236.06,54.27 237.09,54.31C238.13,54.35 239.16,54.38 240.2,54.41Q241.24,54.43 243.31,54.46L243.31,54.5" style="vector-effect: non-scaling-stroke; stroke-width: 2px; stroke: rgb(102, 194, 164); stroke-opacity: 1; fill: rgb(102, 194, 164); fill-opacity: 0.5;"/><path class="meanline" d="M112.94,27.871784210205078V54.5" style="fill: none; vector-effect: non-scaling-stroke; stroke-width: 2px; stroke-dasharray: 4px, 2px; stroke: rgb(102, 194, 164); stroke-opacity: 1;"/></g></g></g><g class="overplot"/><path class="xlines-above crisp" d="M0,0" style="fill: none;"/><path class="ylines-above crisp" d="M0,0" style="fill: none;"/><g class="overlines-above"/><g class="xaxislayer-above"><g class="xtick"><text text-anchor="start" x="0" y="203" transform="translate(40,0) rotate(90,0,197)" style="font-family: 'Open Sans', verdana, arial, sans-serif; font-size: 12px; fill: rgb(68, 68, 68); fill-opacity: 1; white-space: pre;">−1</text></g><g class="xtick"><text text-anchor="start" x="0" y="203" transform="translate(68.25,0) rotate(90,0,197)" style="font-family: 'Open Sans', verdana, arial, sans-serif; font-size: 12px; fill: rgb(68, 68, 68); fill-opacity: 1; white-space: pre;">−0.75</text></g><g class="xtick"><text text-anchor="start" x="0" y="203" transform="translate(96.5,0) rotate(90,0,197)" style="font-family: 'Open Sans', verdana, arial, sans-serif; font-size: 12px; fill: rgb(68, 68, 68); fill-opacity: 1; white-space: pre;">−0.5</text></g><g class="xtick"><text text-anchor="start" x="0" y="203" transform="translate(124.75,0) rotate(90,0,197)" style="font-family: 'Open Sans', verdana, arial, sans-serif; font-size: 12px; fill: rgb(68, 68, 68); fill-opacity: 1; white-space: pre;">−0.25</text></g><g class="xtick"><text text-anchor="start" x="0" y="203" transform="translate(153,0) rotate(90,0,197)" style="font-family: 'Open Sans', verdana, arial, sans-serif; font-size: 12px; fill: rgb(68, 68, 68); fill-opacity: 1; white-space: pre;">0</text></g><g class="xtick"><text text-anchor="start" x="0" y="203" transform="translate(181.25,0) rotate(90,0,197)" style="font-family: 'Open Sans', verdana, arial, sans-serif; font-size: 12px; fill: rgb(68, 68, 68); fill-opacity: 1; white-space: pre;">0.25</text></g><g class="xtick"><text text-anchor="start" x="0" y="203" transform="translate(209.5,0) rotate(90,0,197)" style="font-family: 'Open Sans', verdana, arial, sans-serif; font-size: 12px; fill: rgb(68, 68, 68); fill-opacity: 1; white-space: pre;">0.5</text></g><g class="xtick"><text text-anchor="start" x="0" y="203" transform="translate(237.75,0) rotate(90,0,197)" style="font-family: 'Open Sans', verdana, arial, sans-serif; font-size: 12px; fill: rgb(68, 68, 68); fill-opacity: 1; white-space: pre;">0.75</text></g><g class="xtick"><text text-anchor="start" x="0" y="203" transform="translate(266,0) rotate(90,0,197)" style="font-family: 'Open Sans', verdana, arial, sans-serif; font-size: 12px; fill: rgb(68, 68, 68); fill-opacity: 1; white-space: pre;">1</text></g></g><g class="yaxislayer-above"><g class="ytick"><text text-anchor="end" x="39" y="4.199999999999999" transform="translate(0,181.5)" style="font-family: 'Open Sans', verdana, arial, sans-serif; font-size: 12px; fill: rgb(68, 68, 68); fill-opacity: 1; white-space: pre;">Meus</text></g><g class="ytick"><text text-anchor="end" x="39" y="4.199999999999999" transform="translate(0,154.75)" style="font-family: 'Open Sans', verdana, arial, sans-serif; font-size: 12px; fill: rgb(68, 68, 68); fill-opacity: 1; white-space: pre;">Hyum</text></g><g class="ytick"><text text-anchor="end" x="39" y="4.199999999999999" transform="translate(0,128)" style="font-family: 'Open Sans', verdana, arial, sans-serif; font-size: 12px; fill: rgb(68, 68, 68); fill-opacity: 1; white-space: pre;">Seum</text></g><g class="ytick"><text text-anchor="end" x="39" y="4.199999999999999" transform="translate(0,101.25)" style="font-family: 'Open Sans', verdana, arial, sans-serif; font-size: 12px; fill: rgb(68, 68, 68); fill-opacity: 1; white-space: pre;">Teas</text></g><g class="ytick"><text text-anchor="end" x="39" y="4.199999999999999" transform="translate(0,74.5)" style="font-family: 'Open Sans', verdana, arial, sans-serif; font-size: 12px; fill: rgb(68, 68, 68); fill-opacity: 1; white-space: pre;">Raer</text></g></g><g class="overaxes-above"/></g></g><g class="polarlayer"/><g class="ternarylayer"/><g class="geolayer"/><g class="funnelarealayer"/><g class="pielayer"/><g class="treemaplayer"/><g class="sunburstlayer"/><g class="glimages"/><defs id="topdefs-29ee22"><g class="clips"/></defs><g class="layer-above"><g class="imagelayer"/><g class="shapelayer"><path data-index="0" fill-rule="evenodd" d="M141.7,181.5L141.7,21" clip-path="url('#clip29ee22xy')" style="opacity: 1; stroke: rgb(0, 0, 0); stroke-opacity: 1; fill: rgb(0, 0, 0); fill-opacity: 0; stroke-dasharray: 9px, 9px; stroke-width: 2px;"/><path data-index="1" fill-rule="evenodd" d="M164.3,181.5L164.3,21" clip-path="url('#clip29ee22xy')" style="opacity: 1; stroke: rgb(0, 0, 0); stroke-opacity: 1; fill: rgb(0, 0, 0); fill-opacity: 0; stroke-dasharray: 9px, 9px; stroke-width: 2px;"/></g></g><g class="infolayer"><g class="g-gtitle"><text class="gtitle" x="143" y="10" text-anchor="middle" dy="0em" style="font-family: Calibri; font-size: 14px; fill: rgb(68, 68, 68); opacity: 1; font-weight: normal; white-space: pre;">CIR_19</text></g><g class="g-xtitle" transform="translate(0,0.703125)"><text class="xtitle" x="153" y="242" text-anchor="middle" style="font-family: 'Open Sans', verdana, arial, sans-serif; font-size: 14px; fill: rgb(68, 68, 68); opacity: 1; font-weight: normal; white-space: pre;">Coeficiente de Interacción</text></g><g class="g-ytitle"/></g></svg>