<svg class="main-svg" xmlns="http://www.w3.org/2000/svg" xmlns:xlink="http://www.w3.org/1999/xlink" width="266" height="250" style="" viewBox="0 0 266 250"><rect x="0" y="0" width="266" height="250" style="fill: rgb(255, 255, 255); fill-opacity: 1;"/><defs id="defs-26e50a"><g class="clips"><clipPath id="clip26e50axyplot" class="plotclip"><rect width="226" height="170"/></clipPath><clipPath class="axesclip" id="clip26e50ax"><rect x="20" y="0" width="226" height="250"/></clipPath><clipPath class="axesclip" id="clip26e50ay"><rect x="0" y="20" width="266" height="170"/></clipPath><clipPath class="axesclip" id="clip26e50axy"><rect x="20" y="20" width="226" height="170"/></clipPath></g><g class="gradients"/></defs><g class="bglayer"/><g class="layer-below"><g class="imagelayer"/><g class="shapelayer"/></g><g class="cartesianlayer"><g class="subplot xy"><g class="layer-subplot"><g class="shapelayer"/><g class="imagelayer"/></g><g class="gridlayer"><g class="x"/><g class="y"><path class="ygrid crisp" transform="translate(0,181.5)" d="M20,0h226" style="stroke: rgb(238, 238, 238); stroke-opacity: 1; stroke-width: 1px;"/><path class="ygrid crisp" transform="translate(0,150.9)" d="M20,0h226" style="stroke: rgb(238, 238, 238); stroke-opacity: 1; stroke-width: 1px;"/><path class="ygrid crisp" transform="translate(0,120.3)" d="M20,0h226" style="stroke: rgb(238, 238, 238); stroke-opacity: 1; stroke-width: 1px;"/><path class="ygrid crisp" transform="translate(0,89.7)" d="M20,0h226" style="stroke: rgb(238, 238, 238); stroke-opacity: 1; stroke-width: 1px;"/><path class="ygrid crisp" transform="translate(0,59.1)" d="M20,0h226" style="stroke: rgb(238, 238, 238); stroke-opacity: 1; stroke-width: 1px;"/></g></g><g class="zerolinelayer"/><path class="xlines-below"/><path class="ylines-below"/><g class="overlines-below"/><g class="xaxislayer-below"/><g class="yaxislayer-below"/><g class="overaxes-below"/><g class="plot" transform="translate(20,20)" clip-path="url('#clip26e50axyplot')"><g class="violinlayer mlayer"><g class="trace violins" style="opacity: 1;"><path class="violin" d="M68.12,161.5L68.12,161.49Q68.17,161.49 68.2,161.49C68.22,161.49 68.25,161.48 68.27,161.48C68.3,161.48 68.32,161.47 68.35,161.47C68.38,161.46 68.4,161.46 68.43,161.45C68.45,161.45 68.48,161.44 68.5,161.44C68.53,161.44 68.55,161.43 68.58,161.43C68.6,161.43 68.63,161.42 68.65,161.42C68.68,161.42 68.7,161.41 68.73,161.41C68.75,161.41 68.78,161.41 68.8,161.41C68.83,161.41 68.85,161.41 68.88,161.41C68.9,161.41 68.93,161.41 68.95,161.41C68.98,161.41 69,161.4 69.03,161.4C69.06,161.4 69.08,161.4 69.11,161.4C69.13,161.4 69.16,161.38 69.18,161.38C69.21,161.37 69.24,161.38 69.26,161.37C69.29,161.36 69.31,161.34 69.33,161.33C69.36,161.31 69.39,161.3 69.41,161.28C69.44,161.26 69.46,161.24 69.48,161.21C69.51,161.18 69.54,161.15 69.56,161.11C69.59,161.07 69.61,161.03 69.63,160.99C69.66,160.95 69.68,160.9 69.71,160.85C69.73,160.8 69.76,160.76 69.78,160.71C69.81,160.66 69.83,160.61 69.86,160.56C69.89,160.51 69.92,160.46 69.94,160.4C69.97,160.34 69.99,160.28 70.01,160.22C70.04,160.16 70.07,160.09 70.09,160.02C70.12,159.95 70.14,159.87 70.16,159.79C70.19,159.71 70.22,159.62 70.24,159.53C70.27,159.44 70.29,159.34 70.31,159.24C70.34,159.14 70.37,159.03 70.39,158.92C70.42,158.81 70.44,158.7 70.46,158.59C70.49,158.47 70.51,158.35 70.54,158.23C70.57,158.1 70.6,157.97 70.62,157.84C70.65,157.7 70.67,157.54 70.69,157.39C70.72,157.23 70.75,157.06 70.77,156.88C70.8,156.68 70.82,156.48 70.84,156.26C70.87,156.03 70.9,155.78 70.92,155.53C70.95,155.26 70.97,154.98 70.99,154.69C71.02,154.39 71.05,154.07 71.07,153.75C71.1,153.41 71.12,153.07 71.14,152.72C71.17,152.36 71.19,152 71.22,151.64C71.25,151.28 71.27,150.9 71.3,150.54C71.32,150.18 71.34,149.82 71.37,149.47C71.39,149.12 71.42,148.78 71.45,148.44C71.47,148.11 71.5,147.78 71.52,147.45C71.55,147.12 71.58,146.79 71.6,146.46C71.63,146.12 71.65,145.78 71.67,145.43C71.7,145.06 71.73,144.68 71.75,144.3C71.78,143.9 71.8,143.49 71.82,143.07C71.85,142.64 71.87,142.2 71.9,141.77C71.93,141.33 71.95,140.89 71.98,140.46C72,140.04 72.02,139.61 72.05,139.2C72.07,138.8 72.1,138.4 72.13,138.01C72.15,137.63 72.17,137.25 72.2,136.88C72.22,136.52 72.25,136.16 72.28,135.8C72.3,135.45 72.32,135.09 72.35,134.74C72.37,134.4 72.4,134.06 72.43,133.73C72.45,133.41 72.47,133.1 72.5,132.8C72.52,132.53 72.55,132.25 72.58,132.01C72.6,131.8 72.62,131.6 72.65,131.43C72.67,131.29 72.7,131.16 72.73,131.06C72.75,130.99 72.78,130.92 72.81,130.9C72.83,130.89 72.86,130.9 72.88,130.91C72.91,130.93 72.94,131 72.96,131.05C72.99,131.12 73.01,131.2 73.03,131.28C73.06,131.37 73.09,131.47 73.11,131.57C73.14,131.68 73.16,131.79 73.18,131.9C73.21,132.02 73.24,132.16 73.26,132.29C73.29,132.43 73.31,132.58 73.33,132.73C73.36,132.9 73.38,133.07 73.41,133.25C73.44,133.44 73.47,133.65 73.49,133.85C73.52,134.06 73.54,134.28 73.56,134.51C73.59,134.75 73.62,135 73.64,135.26C73.67,135.53 73.69,135.81 73.71,136.1C73.74,136.41 73.77,136.72 73.79,137.05C73.82,137.4 73.84,137.76 73.86,138.13C73.89,138.52 73.92,138.93 73.94,139.34C73.97,139.77 73.99,140.2 74.01,140.64C74.04,141.09 74.06,141.54 74.09,141.99C74.12,142.44 74.14,142.9 74.17,143.35C74.19,143.8 74.21,144.25 74.24,144.69C74.26,145.13 74.29,145.56 74.32,145.99C74.34,146.41 74.36,146.82 74.39,147.23C74.41,147.63 74.44,148.02 74.47,148.41C74.49,148.79 74.51,149.17 74.54,149.55C74.56,149.92 74.59,150.29 74.62,150.66C74.64,151.02 74.66,151.38 74.69,151.73C74.71,152.07 74.74,152.42 74.77,152.75C74.79,153.07 74.81,153.39 74.84,153.7C74.86,153.99 74.89,154.28 74.92,154.55C74.95,154.81 74.97,155.05 75,155.29C75.02,155.51 75.04,155.72 75.07,155.93C75.09,156.12 75.12,156.31 75.15,156.49C75.17,156.67 75.19,156.84 75.22,157.01C75.24,157.18 75.27,157.35 75.3,157.52C75.32,157.69 75.34,157.86 75.37,158.02C75.39,158.18 75.42,158.34 75.45,158.5C75.47,158.65 75.49,158.81 75.52,158.95C75.54,159.08 75.57,159.22 75.6,159.34C75.63,159.45 75.65,159.56 75.68,159.66C75.7,159.75 75.72,159.84 75.75,159.92C75.77,159.99 75.8,160.06 75.83,160.13C75.85,160.19 75.88,160.24 75.9,160.3C75.93,160.36 75.95,160.42 75.98,160.47C76,160.52 76.02,160.57 76.05,160.62C76.07,160.67 76.1,160.71 76.13,160.76C76.15,160.81 76.17,160.86 76.2,160.9C76.22,160.94 76.25,160.98 76.28,161.02C76.31,161.06 76.33,161.1 76.36,161.13C76.38,161.16 76.4,161.19 76.43,161.22C76.45,161.24 76.48,161.26 76.51,161.28C76.53,161.3 76.56,161.31 76.58,161.32C76.61,161.33 76.63,161.33 76.66,161.34C76.68,161.34 76.71,161.35 76.73,161.35C76.76,161.35 76.78,161.36 76.81,161.36C76.83,161.36 76.86,161.37 76.88,161.37C76.91,161.38 76.93,161.38 76.96,161.39C76.98,161.4 77.01,161.4 77.03,161.41C77.06,161.42 77.08,161.43 77.11,161.44C77.14,161.45 77.16,161.45 77.19,161.46C77.21,161.46 77.24,161.47 77.26,161.47C77.29,161.48 77.31,161.49 77.34,161.49Q77.36,161.49 77.41,161.49L77.41,161.5" style="vector-effect: non-scaling-stroke; stroke-width: 2px; stroke: rgb(102, 194, 164); stroke-opacity: 1; fill: rgb(102, 194, 164); fill-opacity: 0.5;"/><path class="meanline" d="M72.96,131.04800415039062V161.5" style="fill: none; vector-effect: non-scaling-stroke; stroke-width: 2px; stroke-dasharray: 4px, 2px; stroke: rgb(102, 194, 164); stroke-opacity: 1;"/></g><g class="trace violins" style="opacity: 1;"><path class="violin" d="M147.51,130.9L147.51,130.89Q147.58,130.89 147.61,130.89C147.64,130.89 147.68,130.88 147.71,130.88C147.74,130.88 147.78,130.88 147.81,130.88C147.84,130.88 147.88,130.87 147.91,130.87C147.94,130.87 147.98,130.86 148.01,130.86C148.04,130.86 148.08,130.86 148.11,130.86C148.14,130.86 148.18,130.86 148.21,130.86C148.24,130.86 148.28,130.87 148.31,130.87C148.34,130.87 148.38,130.88 148.41,130.88C148.44,130.88 148.48,130.88 148.51,130.88C148.54,130.88 148.58,130.89 148.61,130.89C148.64,130.89 148.68,130.89 148.71,130.89C148.74,130.89 148.78,130.88 148.81,130.88C148.84,130.88 148.88,130.88 148.91,130.88C148.95,130.88 148.98,130.87 149.02,130.87C149.05,130.87 149.09,130.86 149.12,130.86C149.15,130.86 149.19,130.85 149.22,130.85C149.25,130.85 149.29,130.84 149.32,130.84C149.35,130.84 149.39,130.83 149.42,130.83C149.45,130.82 149.49,130.82 149.52,130.81C149.55,130.8 149.59,130.8 149.62,130.79C149.65,130.78 149.69,130.76 149.72,130.75C149.75,130.74 149.79,130.72 149.82,130.71C149.85,130.69 149.89,130.68 149.92,130.66C149.95,130.64 149.99,130.61 150.02,130.59C150.05,130.56 150.09,130.54 150.12,130.51C150.15,130.48 150.19,130.45 150.22,130.41C150.25,130.37 150.29,130.33 150.32,130.28C150.35,130.23 150.39,130.18 150.42,130.12C150.45,130.06 150.49,130 150.52,129.93C150.55,129.86 150.59,129.79 150.62,129.71C150.65,129.63 150.69,129.55 150.72,129.47C150.75,129.39 150.79,129.3 150.82,129.22C150.85,129.14 150.89,129.07 150.92,128.99C150.95,128.91 150.99,128.84 151.02,128.76C151.05,128.68 151.09,128.6 151.12,128.52C151.15,128.44 151.19,128.35 151.22,128.26C151.25,128.16 151.29,128.06 151.32,127.95C151.36,127.83 151.39,127.69 151.42,127.55C151.45,127.4 151.49,127.24 151.52,127.07C151.55,126.89 151.59,126.7 151.62,126.51C151.65,126.31 151.69,126.09 151.72,125.88C151.75,125.66 151.79,125.42 151.82,125.19C151.85,124.95 151.89,124.71 151.92,124.46C151.95,124.2 151.99,123.94 152.02,123.67C152.05,123.39 152.09,123.12 152.12,122.83C152.16,122.53 152.2,122.23 152.23,121.92C152.27,121.6 152.3,121.27 152.33,120.93C152.36,120.58 152.4,120.22 152.43,119.86C152.46,119.48 152.5,119.1 152.53,118.71C152.56,118.31 152.6,117.9 152.63,117.49C152.66,117.07 152.7,116.64 152.73,116.22C152.76,115.8 152.8,115.37 152.83,114.95C152.86,114.54 152.9,114.12 152.93,113.72C152.96,113.33 153,112.94 153.03,112.57C153.06,112.21 153.1,111.86 153.13,111.52C153.16,111.2 153.2,110.88 153.23,110.57C153.26,110.27 153.3,109.98 153.33,109.68C153.36,109.39 153.4,109.1 153.43,108.8C153.46,108.5 153.5,108.2 153.53,107.9C153.56,107.59 153.6,107.27 153.63,106.95C153.66,106.63 153.7,106.3 153.73,105.98C153.76,105.66 153.8,105.35 153.83,105.04C153.86,104.74 153.9,104.45 153.93,104.17C153.96,103.91 154,103.66 154.03,103.42C154.06,103.2 154.1,102.99 154.13,102.78C154.16,102.59 154.2,102.41 154.23,102.23C154.26,102.06 154.3,101.9 154.33,101.74C154.36,101.59 154.4,101.44 154.43,101.3C154.46,101.17 154.5,101.03 154.53,100.91C154.56,100.8 154.59,100.68 154.63,100.58C154.66,100.5 154.69,100.42 154.73,100.37C154.76,100.34 154.8,100.3 154.83,100.3C154.86,100.3 154.9,100.35 154.93,100.4C154.97,100.47 155,100.59 155.03,100.7C155.07,100.85 155.1,101.02 155.13,101.21C155.17,101.43 155.2,101.68 155.23,101.93C155.27,102.22 155.3,102.53 155.33,102.85C155.36,103.2 155.4,103.56 155.43,103.93C155.47,104.32 155.51,104.72 155.54,105.12C155.58,105.53 155.61,105.96 155.64,106.38C155.67,106.81 155.71,107.24 155.74,107.67C155.77,108.11 155.81,108.55 155.84,108.99C155.87,109.43 155.91,109.87 155.94,110.3C155.97,110.73 156.01,111.16 156.04,111.58C156.07,112 156.11,112.41 156.14,112.82C156.17,113.22 156.21,113.61 156.24,114C156.27,114.38 156.31,114.76 156.34,115.14C156.37,115.51 156.41,115.88 156.44,116.25C156.47,116.62 156.51,116.98 156.54,117.35C156.57,117.72 156.61,118.08 156.64,118.45C156.67,118.81 156.71,119.18 156.74,119.54C156.77,119.9 156.81,120.26 156.84,120.61C156.87,120.96 156.91,121.31 156.94,121.65C156.97,121.98 157.01,122.31 157.04,122.63C157.07,122.94 157.11,123.24 157.14,123.54C157.17,123.82 157.21,124.1 157.24,124.36C157.27,124.6 157.31,124.84 157.34,125.06C157.37,125.27 157.41,125.46 157.44,125.65C157.47,125.82 157.51,125.98 157.54,126.14C157.57,126.29 157.61,126.42 157.64,126.56C157.67,126.69 157.71,126.82 157.74,126.95C157.77,127.08 157.81,127.2 157.84,127.33C157.87,127.47 157.91,127.61 157.94,127.75C157.97,127.89 158.01,128.04 158.04,128.18C158.07,128.33 158.11,128.47 158.14,128.62C158.17,128.76 158.21,128.91 158.24,129.05C158.27,129.18 158.31,129.31 158.34,129.44C158.37,129.56 158.4,129.67 158.44,129.78C158.47,129.88 158.51,129.97 158.54,130.05C158.57,130.13 158.6,130.2 158.64,130.27C158.67,130.33 158.7,130.38 158.74,130.42C158.77,130.46 158.81,130.5 158.85,130.53C158.88,130.56 158.92,130.58 158.95,130.6C158.98,130.62 159.02,130.63 159.05,130.65C159.08,130.66 159.12,130.68 159.15,130.69C159.18,130.7 159.22,130.71 159.25,130.72C159.28,130.73 159.32,130.74 159.35,130.75C159.38,130.76 159.42,130.77 159.45,130.78C159.48,130.79 159.52,130.79 159.55,130.8C159.58,130.8 159.62,130.81 159.65,130.81C159.68,130.81 159.72,130.82 159.75,130.82C159.78,130.82 159.82,130.83 159.85,130.83C159.88,130.83 159.92,130.83 159.95,130.83C159.98,130.83 160.02,130.84 160.05,130.84C160.08,130.84 160.12,130.85 160.15,130.85C160.18,130.85 160.22,130.85 160.25,130.85C160.28,130.85 160.32,130.86 160.35,130.86C160.38,130.86 160.42,130.87 160.45,130.87C160.48,130.87 160.52,130.88 160.55,130.88C160.58,130.88 160.62,130.89 160.65,130.89Q160.68,130.89 160.75,130.89L160.75,130.9" style="vector-effect: non-scaling-stroke; stroke-width: 2px; stroke: rgb(102, 194, 164); stroke-opacity: 1; fill: rgb(102, 194, 164); fill-opacity: 0.5;"/><path class="meanline" d="M154.6,100.66305541992188V130.9" style="fill: none; vector-effect: non-scaling-stroke; stroke-width: 2px; stroke-dasharray: 4px, 2px; stroke: rgb(102, 194, 164); stroke-opacity: 1;"/></g><g class="trace violins" style="opacity: 1;"><path class="violin" d="M157.75,100.3L157.75,100.29Q157.88,100.29 157.94,100.29C158,100.29 158.06,100.28 158.12,100.28C158.18,100.28 158.25,100.28 158.31,100.28C158.37,100.28 158.44,100.27 158.5,100.27C158.56,100.27 158.62,100.26 158.68,100.26C158.74,100.26 158.81,100.26 158.87,100.26C158.93,100.26 158.99,100.25 159.05,100.25C159.11,100.25 159.18,100.25 159.24,100.25C159.3,100.25 159.36,100.25 159.42,100.25C159.48,100.25 159.55,100.25 159.61,100.24C159.67,100.24 159.73,100.23 159.79,100.22C159.85,100.21 159.92,100.2 159.98,100.19C160.04,100.18 160.1,100.17 160.16,100.16C160.22,100.15 160.29,100.14 160.35,100.13C160.41,100.12 160.47,100.1 160.53,100.09C160.59,100.07 160.66,100.06 160.72,100.04C160.78,100.02 160.84,100 160.9,99.98C160.96,99.96 161.03,99.95 161.09,99.93C161.15,99.91 161.21,99.89 161.27,99.87C161.33,99.85 161.4,99.83 161.46,99.81C161.52,99.79 161.58,99.76 161.64,99.74C161.7,99.72 161.77,99.7 161.83,99.67C161.89,99.64 161.96,99.6 162.02,99.56C162.08,99.52 162.14,99.47 162.2,99.42C162.26,99.37 162.33,99.3 162.39,99.24C162.45,99.17 162.51,99.1 162.57,99.03C162.63,98.95 162.7,98.87 162.76,98.79C162.82,98.71 162.88,98.62 162.94,98.54C163,98.45 163.07,98.37 163.13,98.28C163.19,98.18 163.25,98.08 163.31,97.98C163.37,97.88 163.44,97.77 163.5,97.66C163.56,97.54 163.62,97.42 163.68,97.3C163.74,97.17 163.81,97.04 163.87,96.9C163.93,96.76 163.99,96.61 164.05,96.46C164.11,96.3 164.18,96.14 164.24,95.97C164.3,95.79 164.36,95.61 164.42,95.42C164.48,95.22 164.55,95 164.61,94.79C164.67,94.57 164.73,94.34 164.79,94.11C164.85,93.87 164.92,93.63 164.98,93.38C165.04,93.13 165.1,92.87 165.16,92.61C165.22,92.34 165.29,92.07 165.35,91.8C165.41,91.52 165.48,91.23 165.54,90.94C165.6,90.64 165.66,90.33 165.72,90.02C165.78,89.69 165.85,89.36 165.91,89.02C165.97,88.66 166.03,88.29 166.09,87.92C166.15,87.54 166.22,87.15 166.28,86.76C166.34,86.36 166.4,85.95 166.46,85.54C166.52,85.13 166.59,84.71 166.65,84.29C166.71,83.87 166.77,83.44 166.83,83.01C166.89,82.58 166.96,82.15 167.02,81.72C167.08,81.29 167.14,80.86 167.2,80.43C167.26,80 167.33,79.57 167.39,79.15C167.45,78.74 167.51,78.33 167.57,77.92C167.63,77.52 167.7,77.12 167.76,76.73C167.82,76.35 167.88,75.98 167.94,75.62C168,75.27 168.07,74.92 168.13,74.58C168.19,74.26 168.25,73.94 168.31,73.64C168.37,73.35 168.43,73.07 168.5,72.8C168.56,72.55 168.63,72.3 168.69,72.06C168.75,71.84 168.81,71.62 168.87,71.41C168.93,71.22 169,71.03 169.06,70.85C169.12,70.69 169.17,70.52 169.24,70.38C169.3,70.25 169.36,70.12 169.43,70.02C169.49,69.93 169.54,69.84 169.61,69.79C169.67,69.74 169.74,69.71 169.8,69.7C169.86,69.69 169.92,69.71 169.98,69.74C170.05,69.77 170.11,69.83 170.17,69.89C170.24,69.96 170.29,70.04 170.35,70.12C170.41,70.21 170.48,70.31 170.54,70.42C170.61,70.54 170.66,70.68 170.72,70.83C170.79,71 170.85,71.18 170.91,71.38C170.98,71.61 171.03,71.86 171.09,72.12C171.16,72.41 171.22,72.73 171.28,73.06C171.34,73.41 171.4,73.79 171.46,74.17C171.52,74.56 171.59,74.97 171.65,75.38C171.71,75.79 171.77,76.22 171.83,76.63C171.89,77.04 171.96,77.45 172.02,77.86C172.08,78.26 172.15,78.65 172.21,79.05C172.27,79.44 172.33,79.83 172.39,80.22C172.45,80.61 172.52,80.99 172.58,81.38C172.64,81.77 172.7,82.16 172.76,82.55C172.82,82.95 172.89,83.35 172.95,83.75C173.01,84.15 173.07,84.55 173.13,84.95C173.19,85.34 173.26,85.74 173.32,86.12C173.38,86.49 173.44,86.86 173.5,87.22C173.56,87.56 173.63,87.9 173.69,88.22C173.75,88.53 173.81,88.82 173.87,89.11C173.93,89.38 174,89.64 174.06,89.9C174.12,90.14 174.18,90.38 174.24,90.61C174.3,90.84 174.37,91.07 174.43,91.3C174.49,91.53 174.55,91.76 174.61,91.99C174.67,92.22 174.74,92.45 174.8,92.69C174.86,92.93 174.92,93.18 174.98,93.42C175.04,93.66 175.11,93.9 175.17,94.14C175.23,94.38 175.29,94.62 175.35,94.85C175.41,95.08 175.48,95.31 175.54,95.53C175.6,95.75 175.67,95.96 175.73,96.17C175.79,96.38 175.85,96.58 175.91,96.78C175.97,96.97 176.04,97.16 176.1,97.34C176.16,97.51 176.22,97.68 176.28,97.83C176.34,97.97 176.41,98.1 176.47,98.23C176.53,98.35 176.59,98.46 176.65,98.56C176.71,98.65 176.78,98.74 176.84,98.82C176.9,98.89 176.96,98.97 177.02,99.03C177.08,99.09 177.15,99.14 177.21,99.2C177.27,99.25 177.33,99.31 177.39,99.36C177.45,99.41 177.52,99.45 177.58,99.5C177.64,99.54 177.7,99.59 177.76,99.63C177.82,99.67 177.89,99.71 177.95,99.74C178.01,99.77 178.07,99.8 178.13,99.83C178.19,99.85 178.26,99.87 178.32,99.89C178.38,99.91 178.44,99.93 178.5,99.95C178.56,99.97 178.63,99.98 178.69,100C178.75,100.02 178.81,100.03 178.87,100.05C178.93,100.07 179,100.08 179.06,100.1C179.12,100.12 179.19,100.13 179.25,100.15C179.31,100.16 179.37,100.18 179.43,100.19C179.49,100.2 179.56,100.22 179.62,100.23C179.68,100.24 179.74,100.25 179.8,100.26C179.86,100.27 179.93,100.27 179.99,100.28Q180.05,100.28 180.17,100.29L180.17,100.3" style="vector-effect: non-scaling-stroke; stroke-width: 2px; stroke: rgb(102, 194, 164); stroke-opacity: 1; fill: rgb(102, 194, 164); fill-opacity: 0.5;"/><path class="meanline" d="M169.87,69.70071411132812V100.3" style="fill: none; vector-effect: non-scaling-stroke; stroke-width: 2px; stroke-dasharray: 4px, 2px; stroke: rgb(102, 194, 164); stroke-opacity: 1;"/></g><g class="trace violins" style="opacity: 1;"><path class="violin" d="M76.23,69.7L76.23,69.69Q76.28,69.68 76.3,69.68C76.32,69.68 76.35,69.67 76.37,69.67C76.39,69.66 76.42,69.66 76.44,69.65C76.46,69.64 76.49,69.63 76.51,69.62C76.53,69.61 76.56,69.59 76.58,69.58C76.6,69.56 76.63,69.55 76.65,69.53C76.67,69.52 76.7,69.5 76.72,69.49C76.74,69.48 76.77,69.46 76.79,69.45C76.81,69.44 76.84,69.43 76.86,69.42C76.88,69.41 76.91,69.41 76.93,69.41C76.95,69.41 76.98,69.4 77,69.4C77.02,69.4 77.05,69.4 77.07,69.4C77.09,69.4 77.12,69.39 77.14,69.38C77.16,69.37 77.19,69.36 77.21,69.34C77.23,69.32 77.26,69.3 77.28,69.27C77.3,69.24 77.33,69.21 77.35,69.17C77.37,69.13 77.4,69.08 77.42,69.03C77.44,68.98 77.47,68.93 77.49,68.87C77.51,68.81 77.54,68.75 77.56,68.68C77.58,68.61 77.61,68.54 77.63,68.47C77.65,68.39 77.68,68.31 77.7,68.22C77.72,68.13 77.74,68.04 77.76,67.95C77.78,67.85 77.81,67.74 77.83,67.63C77.85,67.52 77.88,67.41 77.9,67.29C77.92,67.17 77.95,67.04 77.97,66.91C77.99,66.78 78.02,66.64 78.04,66.5C78.06,66.35 78.09,66.2 78.11,66.04C78.13,65.87 78.16,65.69 78.18,65.51C78.2,65.31 78.23,65.11 78.25,64.9C78.27,64.67 78.3,64.44 78.32,64.2C78.34,63.95 78.37,63.69 78.39,63.43C78.41,63.16 78.44,62.88 78.46,62.6C78.48,62.31 78.51,62.01 78.53,61.72C78.55,61.42 78.58,61.12 78.6,60.82C78.62,60.52 78.65,60.21 78.67,59.9C78.69,59.59 78.72,59.28 78.74,58.97C78.76,58.66 78.79,58.34 78.81,58.03C78.83,57.72 78.86,57.41 78.88,57.1C78.9,56.8 78.93,56.49 78.95,56.19C78.97,55.89 79,55.59 79.02,55.29C79.04,54.98 79.07,54.66 79.09,54.34C79.11,54 79.14,53.66 79.16,53.3C79.18,52.92 79.21,52.53 79.23,52.13C79.25,51.71 79.28,51.27 79.3,50.82C79.32,50.35 79.35,49.87 79.37,49.39C79.39,48.9 79.42,48.39 79.44,47.89C79.46,47.4 79.49,46.9 79.51,46.42C79.53,45.95 79.56,45.48 79.58,45.03C79.6,44.6 79.63,44.18 79.65,43.78C79.67,43.41 79.69,43.05 79.71,42.7C79.73,42.38 79.76,42.07 79.78,41.78C79.8,41.51 79.83,41.25 79.85,41.01C79.87,40.79 79.9,40.59 79.92,40.4C79.94,40.23 79.96,40.07 79.99,39.92C80.01,39.79 80.03,39.67 80.06,39.56C80.08,39.47 80.1,39.38 80.13,39.31C80.15,39.25 80.17,39.2 80.2,39.16C80.22,39.13 80.25,39.1 80.27,39.1C80.29,39.1 80.32,39.13 80.34,39.16C80.37,39.2 80.39,39.28 80.41,39.35C80.44,39.44 80.46,39.55 80.48,39.67C80.51,39.81 80.53,39.97 80.55,40.13C80.57,40.31 80.6,40.49 80.62,40.68C80.64,40.88 80.67,41.09 80.69,41.3C80.71,41.52 80.74,41.76 80.76,41.99C80.78,42.23 80.81,42.48 80.83,42.73C80.85,42.99 80.88,43.24 80.9,43.51C80.92,43.79 80.95,44.07 80.97,44.36C80.99,44.66 81.02,44.97 81.04,45.29C81.06,45.62 81.09,45.95 81.11,46.29C81.13,46.64 81.16,47 81.18,47.37C81.2,47.75 81.23,48.13 81.25,48.52C81.27,48.92 81.3,49.33 81.32,49.74C81.34,50.15 81.37,50.57 81.39,50.99C81.41,51.41 81.44,51.84 81.46,52.27C81.48,52.7 81.51,53.12 81.53,53.55C81.55,53.97 81.57,54.39 81.59,54.81C81.61,55.22 81.64,55.63 81.66,56.03C81.68,56.42 81.71,56.8 81.73,57.18C81.75,57.55 81.78,57.91 81.8,58.27C81.82,58.62 81.85,58.96 81.87,59.3C81.89,59.63 81.92,59.94 81.94,60.26C81.96,60.57 81.99,60.87 82.01,61.17C82.03,61.46 82.06,61.74 82.08,62.01C82.1,62.27 82.13,62.52 82.15,62.77C82.17,63 82.2,63.23 82.22,63.45C82.24,63.66 82.27,63.85 82.29,64.05C82.31,64.24 82.34,64.43 82.36,64.61C82.38,64.79 82.41,64.97 82.43,65.15C82.45,65.33 82.48,65.5 82.5,65.68C82.52,65.86 82.55,66.04 82.57,66.22C82.59,66.39 82.62,66.56 82.64,66.73C82.66,66.89 82.69,67.05 82.71,67.21C82.73,67.36 82.76,67.5 82.78,67.64C82.8,67.77 82.83,67.9 82.85,68.02C82.87,68.13 82.9,68.24 82.92,68.34C82.94,68.43 82.97,68.52 82.99,68.61C83.01,68.69 83.04,68.77 83.06,68.84C83.08,68.91 83.1,68.97 83.13,69.03C83.15,69.08 83.18,69.13 83.2,69.17C83.22,69.21 83.25,69.25 83.27,69.28C83.29,69.31 83.32,69.34 83.34,69.36C83.36,69.38 83.39,69.39 83.41,69.41C83.43,69.42 83.46,69.44 83.48,69.45C83.5,69.46 83.52,69.48 83.54,69.49C83.56,69.5 83.59,69.51 83.61,69.52C83.63,69.53 83.66,69.53 83.68,69.54C83.7,69.55 83.73,69.55 83.75,69.56C83.77,69.57 83.8,69.57 83.82,69.58C83.84,69.59 83.87,69.59 83.89,69.6C83.91,69.6 83.94,69.61 83.96,69.61C83.98,69.62 84.01,69.62 84.03,69.63C84.05,69.63 84.08,69.64 84.1,69.64C84.12,69.65 84.15,69.65 84.17,69.66C84.19,69.66 84.22,69.67 84.24,69.67C84.26,69.68 84.29,69.69 84.31,69.69Q84.33,69.69 84.38,69.69L84.38,69.7" style="vector-effect: non-scaling-stroke; stroke-width: 2px; stroke: rgb(102, 194, 164); stroke-opacity: 1; fill: rgb(102, 194, 164); fill-opacity: 0.5;"/><path class="meanline" d="M80.31,39.12416458129883V69.7" style="fill: none; vector-effect: non-scaling-stroke; stroke-width: 2px; stroke-dasharray: 4px, 2px; stroke: rgb(102, 194, 164); stroke-opacity: 1;"/></g><g class="trace violins" style="opacity: 1;"><path class="violin" d="M119.54,39.1L119.54,39.09Q119.61,39.09 119.65,39.09C119.69,39.09 119.72,39.08 119.76,39.08C119.79,39.08 119.83,39.07 119.86,39.07C119.9,39.07 119.93,39.06 119.97,39.06C120,39.06 120.04,39.05 120.07,39.05C120.11,39.05 120.14,39.04 120.18,39.04C120.22,39.04 120.25,39.03 120.29,39.03C120.32,39.03 120.36,39.03 120.39,39.03C120.43,39.03 120.46,39.03 120.5,39.03C120.53,39.03 120.57,39.02 120.6,39.02C120.64,39.02 120.67,39.02 120.71,39.02C120.75,39.02 120.78,39.01 120.82,39C120.85,38.99 120.89,38.99 120.92,38.98C120.96,38.97 120.99,38.97 121.03,38.96C121.07,38.95 121.1,38.95 121.14,38.94C121.17,38.93 121.21,38.92 121.24,38.91C121.28,38.9 121.31,38.9 121.35,38.89C121.38,38.88 121.42,38.87 121.45,38.86C121.49,38.85 121.52,38.84 121.56,38.82C121.6,38.8 121.64,38.77 121.67,38.74C121.71,38.71 121.74,38.68 121.77,38.64C121.81,38.6 121.85,38.56 121.88,38.52C121.92,38.48 121.95,38.43 121.98,38.38C122.02,38.33 122.05,38.28 122.09,38.22C122.13,38.16 122.17,38.1 122.2,38.04C122.24,37.97 122.27,37.9 122.3,37.83C122.34,37.75 122.37,37.66 122.41,37.56C122.45,37.46 122.49,37.35 122.52,37.23C122.56,37.1 122.59,36.96 122.62,36.82C122.66,36.66 122.7,36.49 122.73,36.32C122.77,36.14 122.8,35.95 122.83,35.76C122.87,35.56 122.9,35.36 122.94,35.16C122.98,34.95 123.02,34.74 123.05,34.53C123.09,34.32 123.12,34.1 123.15,33.89C123.19,33.67 123.23,33.45 123.26,33.23C123.3,33 123.33,32.77 123.36,32.54C123.4,32.3 123.43,32.05 123.47,31.8C123.51,31.54 123.55,31.27 123.58,31C123.62,30.72 123.65,30.42 123.68,30.13C123.72,29.83 123.75,29.53 123.79,29.22C123.83,28.91 123.87,28.6 123.9,28.29C123.94,27.98 123.96,27.66 124,27.35C124.03,27.04 124.07,26.73 124.11,26.42C124.14,26.11 124.18,25.8 124.21,25.49C124.25,25.17 124.28,24.86 124.32,24.53C124.36,24.19 124.4,23.85 124.43,23.49C124.47,23.11 124.5,22.73 124.53,22.33C124.57,21.91 124.61,21.48 124.64,21.04C124.68,20.58 124.71,20.11 124.74,19.63C124.78,19.14 124.81,18.63 124.85,18.14C124.89,17.65 124.92,17.15 124.96,16.68C124.99,16.23 125.02,15.78 125.06,15.36C125.09,14.98 125.13,14.61 125.17,14.27C125.2,13.98 125.24,13.7 125.28,13.46C125.31,13.26 125.34,13.08 125.38,12.92C125.41,12.79 125.45,12.68 125.49,12.58C125.52,12.5 125.55,12.43 125.59,12.35C125.62,12.28 125.67,12.21 125.7,12.13C125.74,12.04 125.78,11.94 125.81,11.83C125.85,11.71 125.88,11.57 125.91,11.43C125.95,11.27 125.99,11.1 126.02,10.92C126.06,10.73 126.09,10.53 126.12,10.34C126.16,10.14 126.19,9.94 126.23,9.74C126.27,9.55 126.3,9.36 126.34,9.19C126.37,9.03 126.4,8.86 126.44,8.74C126.47,8.65 126.5,8.52 126.55,8.5C126.58,8.49 126.63,8.51 126.66,8.54C126.71,8.6 126.73,8.77 126.76,8.91C126.8,9.11 126.84,9.36 126.87,9.61C126.91,9.9 126.94,10.23 126.97,10.55C127.01,10.9 127.04,11.27 127.08,11.64C127.12,12.02 127.15,12.41 127.19,12.79C127.22,13.17 127.25,13.56 127.29,13.94C127.32,14.32 127.36,14.7 127.4,15.08C127.43,15.45 127.47,15.83 127.5,16.2C127.54,16.57 127.57,16.94 127.61,17.32C127.65,17.7 127.69,18.08 127.72,18.46C127.76,18.84 127.79,19.23 127.82,19.61C127.86,20 127.89,20.38 127.93,20.77C127.97,21.16 128.01,21.56 128.04,21.95C128.08,22.35 128.11,22.74 128.14,23.14C128.18,23.54 128.21,23.93 128.25,24.33C128.28,24.73 128.31,25.13 128.35,25.52C128.38,25.91 128.42,26.29 128.46,26.67C128.5,27.04 128.53,27.42 128.57,27.78C128.6,28.13 128.63,28.48 128.67,28.82C128.7,29.15 128.74,29.47 128.78,29.79C128.81,30.1 128.84,30.4 128.88,30.7C128.91,30.99 128.95,31.28 128.99,31.56C129.03,31.83 129.06,32.11 129.1,32.37C129.13,32.62 129.16,32.87 129.2,33.12C129.23,33.36 129.27,33.6 129.31,33.83C129.35,34.05 129.38,34.27 129.42,34.48C129.45,34.68 129.48,34.88 129.52,35.07C129.55,35.25 129.59,35.43 129.63,35.6C129.66,35.76 129.69,35.92 129.73,36.07C129.76,36.21 129.8,36.34 129.84,36.47C129.88,36.59 129.91,36.71 129.95,36.83C129.98,36.94 130.01,37.05 130.05,37.15C130.08,37.25 130.12,37.34 130.16,37.43C130.19,37.52 130.22,37.6 130.26,37.68C130.29,37.76 130.33,37.83 130.37,37.9C130.41,37.96 130.44,38.02 130.48,38.08C130.51,38.13 130.54,38.19 130.58,38.24C130.61,38.29 130.65,38.34 130.69,38.38C130.73,38.42 130.76,38.46 130.8,38.5C130.83,38.54 130.87,38.57 130.9,38.6C130.94,38.63 130.97,38.66 131.01,38.69C131.04,38.71 131.08,38.73 131.11,38.75C131.15,38.77 131.18,38.79 131.22,38.81C131.26,38.83 131.29,38.84 131.33,38.85C131.36,38.86 131.4,38.87 131.43,38.88C131.47,38.89 131.5,38.9 131.54,38.91C131.57,38.92 131.61,38.93 131.64,38.94C131.68,38.95 131.71,38.97 131.75,38.98C131.79,38.99 131.82,39 131.86,39.01C131.89,39.02 131.93,39.02 131.96,39.03C132,39.04 132.03,39.05 132.07,39.06C132.11,39.07 132.14,39.06 132.18,39.07C132.21,39.07 132.25,39.09 132.28,39.09Q132.32,39.09 132.39,39.09L132.39,39.1" style="vector-effect: non-scaling-stroke; stroke-width: 2px; stroke: rgb(102, 194, 164); stroke-opacity: 1; fill: rgb(102, 194, 164); fill-opacity: 0.5;"/><path class="meanline" d="M126.28,9.47914981842041V39.1" style="fill: none; vector-effect: non-scaling-stroke; stroke-width: 2px; stroke-dasharray: 4px, 2px; stroke: rgb(102, 194, 164); stroke-opacity: 1;"/></g></g></g><g class="overplot"/><path class="xlines-above crisp" d="M0,0" style="fill: none;"/><path class="ylines-above crisp" d="M0,0" style="fill: none;"/><g class="overlines-above"/><g class="xaxislayer-above"><g class="xtick"><text text-anchor="start" x="0" y="203" transform="translate(20,0) rotate(90,0,197)" style="font-family: 'Open Sans', verdana, arial, sans-serif; font-size: 12px; fill: rgb(68, 68, 68); fill-opacity: 1; white-space: pre;">−1</text></g><g class="xtick"><text text-anchor="start" x="0" y="203" transform="translate(48.25,0) rotate(90,0,197)" style="font-family: 'Open Sans', verdana, arial, sans-serif; font-size: 12px; fill: rgb(68, 68, 68); fill-opacity: 1; white-space: pre;">−0.75</text></g><g class="xtick"><text text-anchor="start" x="0" y="203" transform="translate(76.5,0) rotate(90,0,197)" style="font-family: 'Open Sans', verdana, arial, sans-serif; font-size: 12px; fill: rgb(68, 68, 68); fill-opacity: 1; white-space: pre;">−0.5</text></g><g class="xtick"><text text-anchor="start" x="0" y="203" transform="translate(104.75,0) rotate(90,0,197)" style="font-family: 'Open Sans', verdana, arial, sans-serif; font-size: 12px; fill: rgb(68, 68, 68); fill-opacity: 1; white-space: pre;">−0.25</text></g><g class="xtick"><text text-anchor="start" x="0" y="203" transform="translate(133,0) rotate(90,0,197)" style="font-family: 'Open Sans', verdana, arial, sans-serif; font-size: 12px; fill: rgb(68, 68, 68); fill-opacity: 1; white-space: pre;">0</text></g><g class="xtick"><text text-anchor="start" x="0" y="203" transform="translate(161.25,0) rotate(90,0,197)" style="font-family: 'Open Sans', verdana, arial, sans-serif; font-size: 12px; fill: rgb(68, 68, 68); fill-opacity: 1; white-space: pre;">0.25</text></g><g class="xtick"><text text-anchor="start" x="0" y="203" transform="translate(189.5,0) rotate(90,0,197)" style="font-family: 'Open Sans', verdana, arial, sans-serif; font-size: 12px; fill: rgb(68, 68, 68); fill-opacity: 1; white-space: pre;">0.5</text></g><g class="xtick"><text text-anchor="start" x="0" y="203" transform="translate(217.75,0) rotate(90,0,197)" style="font-family: 'Open Sans', verdana, arial, sans-serif; font-size: 12px; fill: rgb(68, 68, 68); fill-opacity: 1; white-space: pre;">0.75</text></g><g class="xtick"><text text-anchor="start" x="0" y="203" transform="translate(246,0) rotate(90,0,197)" style="font-family: 'Open Sans', verdana, arial, sans-serif; font-size: 12px; fill: rgb(68, 68, 68); fill-opacity: 1; white-space: pre;">1</text></g></g><g class="yaxislayer-above"/><g class="overaxes-above"/></g></g><g class="polarlayer"/><g class="ternarylayer"/><g class="geolayer"/><g class="funnelarealayer"/><g class="pielayer"/><g class="treemaplayer"/><g class="sunburstlayer"/><g class="glimages"/><defs id="topdefs-26e50a"><g class="clips"/></defs><g class="layer-above"><g class="imagelayer"/><g class="shapelayer"><path data-index="0" fill-rule="evenodd" d="M121.7,181.5L121.7,28.5" clip-path="url('#clip26e50axy')" style="opacity: 1; stroke: rgb(0, 0, 0); stroke-opacity: 1; fill: rgb(0, 0, 0); fill-opacity: 0; stroke-dasharray: 9px, 9px; stroke-width: 2px;"/><path data-index="1" fill-rule="evenodd" d="M144.3,181.5L144.3,28.5" clip-path="url('#clip26e50axy')" style="opacity: 1; stroke: rgb(0, 0, 0); stroke-opacity: 1; fill: rgb(0, 0, 0); fill-opacity: 0; stroke-dasharray: 9px, 9px; stroke-width: 2px;"/></g></g><g class="infolayer"><g class="g-gtitle"><text class="gtitle" x="133" y="10" text-anchor="middle" dy="0em" style="font-family: Calibri; font-size: 14px; fill: rgb(68, 68, 68); opacity: 1; font-weight: normal; white-space: pre;">My_20</text></g><g class="g-xtitle" transform="translate(0,0.703125)"><text class="xtitle" x="133" y="242" text-anchor="middle" style="font-family: 'Open Sans', verdana, arial, sans-serif; font-size: 14px; fill: rgb(68, 68, 68); opacity: 1; font-weight: normal; white-space: pre;">Coeficiente de Interacción</text></g><g class="g-ytitle"/></g></svg>