<svg class="main-svg" xmlns="http://www.w3.org/2000/svg" xmlns:xlink="http://www.w3.org/1999/xlink" width="286" height="250" style="" viewBox="0 0 286 250"><rect x="0" y="0" width="286" height="250" style="fill: rgb(255, 255, 255); fill-opacity: 1;"/><defs id="defs-5a88d2"><g class="clips"><clipPath id="clip5a88d2xyplot" class="plotclip"><rect width="226" height="170"/></clipPath><clipPath class="axesclip" id="clip5a88d2x"><rect x="40" y="0" width="226" height="250"/></clipPath><clipPath class="axesclip" id="clip5a88d2y"><rect x="0" y="20" width="286" height="170"/></clipPath><clipPath class="axesclip" id="clip5a88d2xy"><rect x="40" y="20" width="226" height="170"/></clipPath></g><g class="gradients"/></defs><g class="bglayer"/><g class="layer-below"><g class="imagelayer"/><g class="shapelayer"/></g><g class="cartesianlayer"><g class="subplot xy"><g class="layer-subplot"><g class="shapelayer"/><g class="imagelayer"/></g><g class="gridlayer"><g class="x"/><g class="y"><path class="ygrid crisp" transform="translate(0,181.5)" d="M40,0h226" style="stroke: rgb(238, 238, 238); stroke-opacity: 1; stroke-width: 1px;"/><path class="ygrid crisp" transform="translate(0,143.25)" d="M40,0h226" style="stroke: rgb(238, 238, 238); stroke-opacity: 1; stroke-width: 1px;"/><path class="ygrid crisp" transform="translate(0,105)" d="M40,0h226" style="stroke: rgb(238, 238, 238); stroke-opacity: 1; stroke-width: 1px;"/><path class="ygrid crisp" transform="translate(0,66.75)" d="M40,0h226" style="stroke: rgb(238, 238, 238); stroke-opacity: 1; stroke-width: 1px;"/></g></g><g class="zerolinelayer"/><path class="xlines-below"/><path class="ylines-below"/><g class="overlines-below"/><g class="xaxislayer-below"/><g class="yaxislayer-below"/><g class="overaxes-below"/><g class="plot" transform="translate(40,20)" clip-path="url('#clip5a88d2xyplot')"><g class="violinlayer mlayer"><g class="trace violins" style="opacity: 1;"><path class="violin" d="M68.12,161.5L68.12,161.49Q68.17,161.48 68.2,161.48C68.22,161.48 68.25,161.47 68.27,161.47C68.3,161.47 68.32,161.46 68.35,161.46C68.38,161.45 68.4,161.45 68.43,161.44C68.45,161.43 68.48,161.42 68.5,161.42C68.53,161.41 68.55,161.41 68.58,161.41C68.6,161.41 68.63,161.4 68.65,161.4C68.68,161.4 68.7,161.39 68.73,161.39C68.75,161.39 68.78,161.39 68.8,161.39C68.83,161.39 68.85,161.39 68.88,161.39C68.9,161.39 68.93,161.39 68.95,161.39C68.98,161.39 69,161.38 69.03,161.38C69.06,161.38 69.08,161.37 69.11,161.37C69.13,161.37 69.16,161.37 69.18,161.36C69.21,161.35 69.23,161.34 69.26,161.33C69.28,161.32 69.31,161.31 69.33,161.29C69.36,161.27 69.39,161.25 69.41,161.23C69.44,161.2 69.46,161.17 69.48,161.14C69.51,161.1 69.54,161.06 69.56,161.02C69.59,160.97 69.61,160.91 69.63,160.86C69.66,160.8 69.69,160.75 69.71,160.69C69.74,160.63 69.76,160.57 69.78,160.51C69.81,160.45 69.83,160.38 69.86,160.32C69.89,160.25 69.92,160.19 69.94,160.12C69.97,160.05 69.99,159.97 70.01,159.9C70.04,159.82 70.07,159.74 70.09,159.66C70.12,159.57 70.14,159.47 70.16,159.37C70.19,159.26 70.22,159.15 70.24,159.04C70.27,158.92 70.29,158.79 70.31,158.67C70.34,158.54 70.37,158.41 70.39,158.28C70.42,158.14 70.44,158 70.46,157.86C70.49,157.71 70.51,157.56 70.54,157.41C70.57,157.25 70.6,157.09 70.62,156.92C70.65,156.74 70.67,156.56 70.69,156.37C70.72,156.16 70.75,155.95 70.77,155.72C70.8,155.47 70.82,155.22 70.84,154.95C70.87,154.66 70.9,154.35 70.92,154.04C70.95,153.7 70.97,153.35 70.99,152.99C71.02,152.61 71.05,152.21 71.07,151.81C71.1,151.39 71.12,150.95 71.14,150.52C71.17,150.08 71.19,149.62 71.22,149.17C71.25,148.72 71.27,148.26 71.3,147.81C71.32,147.36 71.34,146.9 71.37,146.46C71.39,146.03 71.42,145.59 71.45,145.17C71.47,144.76 71.5,144.35 71.52,143.94C71.55,143.53 71.58,143.12 71.6,142.7C71.63,142.27 71.65,141.85 71.67,141.41C71.7,140.95 71.73,140.48 71.75,140C71.78,139.5 71.8,138.98 71.82,138.46C71.85,137.93 71.87,137.38 71.9,136.84C71.93,136.3 71.95,135.74 71.98,135.2C72,134.67 72.02,134.14 72.05,133.62C72.07,133.12 72.1,132.63 72.13,132.14C72.15,131.66 72.17,131.2 72.2,130.73C72.22,130.27 72.25,129.82 72.28,129.37C72.3,128.93 72.32,128.49 72.35,128.05C72.37,127.62 72.4,127.19 72.43,126.78C72.45,126.38 72.47,125.99 72.5,125.62C72.52,125.28 72.55,124.94 72.58,124.64C72.6,124.38 72.62,124.12 72.65,123.91C72.67,123.74 72.7,123.57 72.73,123.45C72.75,123.37 72.77,123.27 72.81,123.25C72.83,123.24 72.86,123.25 72.88,123.27C72.91,123.3 72.94,123.37 72.96,123.44C72.99,123.52 73.01,123.63 73.03,123.73C73.06,123.84 73.09,123.97 73.11,124.09C73.14,124.22 73.16,124.36 73.18,124.5C73.21,124.65 73.24,124.81 73.26,124.98C73.29,125.16 73.31,125.35 73.33,125.54C73.36,125.75 73.38,125.97 73.41,126.19C73.44,126.43 73.47,126.68 73.49,126.93C73.52,127.2 73.54,127.48 73.56,127.77C73.59,128.07 73.62,128.38 73.64,128.7C73.67,129.04 73.69,129.38 73.71,129.74C73.74,130.13 73.77,130.53 73.79,130.94C73.82,131.38 73.84,131.83 73.86,132.29C73.89,132.78 73.92,133.29 73.94,133.8C73.97,134.33 73.99,134.87 74.01,135.42C74.04,135.98 74.06,136.55 74.09,137.11C74.12,137.68 74.14,138.24 74.17,138.81C74.19,139.37 74.21,139.94 74.24,140.49C74.26,141.03 74.29,141.58 74.32,142.11C74.34,142.63 74.36,143.15 74.39,143.66C74.41,144.16 74.44,144.65 74.47,145.14C74.49,145.62 74.51,146.1 74.54,146.57C74.56,147.03 74.59,147.49 74.62,147.94C74.64,148.39 74.66,148.84 74.69,149.28C74.71,149.71 74.74,150.14 74.77,150.56C74.79,150.96 74.81,151.36 74.84,151.75C74.86,152.12 74.89,152.48 74.92,152.82C74.95,153.14 74.97,153.44 75,153.74C75.02,154.02 75.04,154.28 75.07,154.54C75.09,154.78 75.12,155.01 75.15,155.24C75.17,155.46 75.19,155.68 75.22,155.89C75.24,156.1 75.27,156.31 75.3,156.52C75.32,156.73 75.34,156.94 75.37,157.15C75.39,157.35 75.42,157.55 75.45,157.75C75.47,157.94 75.49,158.13 75.52,158.31C75.54,158.48 75.57,158.65 75.6,158.8C75.63,158.94 75.65,159.07 75.68,159.2C75.7,159.31 75.72,159.42 75.75,159.52C75.77,159.61 75.8,159.7 75.83,159.78C75.85,159.86 75.87,159.94 75.9,160.01C75.92,160.08 75.95,160.14 75.98,160.21C76,160.27 76.02,160.34 76.05,160.4C76.07,160.46 76.1,160.52 76.13,160.58C76.15,160.64 76.17,160.7 76.2,160.75C76.22,160.8 76.25,160.85 76.28,160.9C76.31,160.95 76.33,161 76.36,161.04C76.38,161.08 76.4,161.11 76.43,161.14C76.45,161.17 76.48,161.2 76.51,161.22C76.53,161.24 76.55,161.26 76.58,161.27C76.6,161.28 76.63,161.29 76.66,161.3C76.68,161.31 76.71,161.31 76.73,161.31C76.76,161.31 76.78,161.31 76.81,161.32C76.83,161.32 76.86,161.33 76.88,161.34C76.91,161.35 76.93,161.35 76.96,161.36C76.98,161.37 77.01,161.38 77.03,161.39C77.06,161.4 77.08,161.41 77.11,161.42C77.14,161.43 77.16,161.44 77.19,161.45C77.21,161.46 77.24,161.47 77.26,161.47C77.29,161.48 77.31,161.48 77.34,161.48Q77.36,161.48 77.41,161.49L77.41,161.5" style="vector-effect: non-scaling-stroke; stroke-width: 2px; stroke: rgb(102, 194, 164); stroke-opacity: 1; fill: rgb(102, 194, 164); fill-opacity: 0.5;"/><path class="meanline" d="M72.96,123.43955993652344V161.5" style="fill: none; vector-effect: non-scaling-stroke; stroke-width: 2px; stroke-dasharray: 4px, 2px; stroke: rgb(102, 194, 164); stroke-opacity: 1;"/></g><g class="trace violins" style="opacity: 1;"><path class="violin" d="M147.51,123.25L147.51,123.24Q147.58,123.24 147.61,123.24C147.64,123.24 147.68,123.23 147.71,123.23C147.74,123.23 147.78,123.22 147.81,123.22C147.84,123.22 147.88,123.21 147.91,123.21C147.94,123.21 147.98,123.2 148.01,123.2C148.04,123.2 148.08,123.2 148.11,123.2C148.14,123.2 148.18,123.2 148.21,123.2C148.24,123.2 148.28,123.21 148.31,123.21C148.34,123.21 148.38,123.22 148.41,123.22C148.44,123.22 148.48,123.23 148.51,123.23C148.54,123.23 148.58,123.23 148.61,123.23C148.64,123.23 148.68,123.23 148.71,123.23C148.74,123.23 148.78,123.23 148.81,123.23C148.84,123.23 148.88,123.22 148.91,123.22C148.95,123.22 148.98,123.21 149.02,123.21C149.05,123.21 149.09,123.2 149.12,123.2C149.15,123.2 149.19,123.19 149.22,123.19C149.25,123.18 149.29,123.18 149.32,123.17C149.35,123.17 149.39,123.16 149.42,123.16C149.45,123.15 149.49,123.15 149.52,123.14C149.55,123.13 149.59,123.12 149.62,123.11C149.65,123.1 149.69,123.09 149.72,123.07C149.75,123.05 149.79,123.03 149.82,123.01C149.85,122.99 149.89,122.97 149.92,122.95C149.95,122.93 149.99,122.9 150.02,122.87C150.05,122.84 150.09,122.8 150.12,122.76C150.15,122.72 150.19,122.68 150.22,122.64C150.26,122.59 150.29,122.54 150.32,122.48C150.35,122.42 150.39,122.35 150.42,122.28C150.45,122.2 150.49,122.12 150.52,122.04C150.55,121.95 150.59,121.86 150.62,121.76C150.65,121.66 150.69,121.56 150.72,121.46C150.75,121.36 150.79,121.25 150.82,121.15C150.85,121.05 150.89,120.96 150.92,120.86C150.95,120.76 150.99,120.67 151.02,120.57C151.05,120.47 151.09,120.38 151.12,120.28C151.15,120.17 151.19,120.06 151.22,119.95C151.25,119.83 151.29,119.7 151.32,119.56C151.36,119.4 151.39,119.23 151.42,119.06C151.45,118.87 151.49,118.67 151.52,118.46C151.55,118.24 151.59,118 151.62,117.76C151.65,117.5 151.69,117.24 151.72,116.97C151.75,116.69 151.79,116.4 151.82,116.11C151.85,115.81 151.89,115.51 151.92,115.2C151.95,114.88 151.99,114.55 152.02,114.22C152.05,113.88 152.09,113.53 152.12,113.17C152.16,112.8 152.2,112.42 152.23,112.03C152.27,111.63 152.3,111.21 152.33,110.79C152.36,110.35 152.4,109.9 152.43,109.45C152.46,108.98 152.5,108.5 152.53,108.01C152.56,107.51 152.6,106.99 152.63,106.48C152.66,105.96 152.7,105.43 152.73,104.9C152.76,104.37 152.8,103.84 152.83,103.32C152.86,102.8 152.9,102.28 152.93,101.78C152.96,101.29 153,100.81 153.03,100.34C153.06,99.89 153.1,99.46 153.13,99.03C153.16,98.62 153.2,98.23 153.23,97.84C153.26,97.46 153.3,97.1 153.33,96.73C153.36,96.36 153.4,96 153.43,95.63C153.46,95.26 153.5,94.88 153.53,94.5C153.56,94.11 153.6,93.72 153.63,93.32C153.66,92.92 153.7,92.5 153.73,92.1C153.76,91.71 153.8,91.31 153.83,90.93C153.86,90.56 153.9,90.19 153.93,89.84C153.96,89.51 154,89.2 154.03,88.9C154.06,88.62 154.1,88.35 154.13,88.09C154.16,87.85 154.2,87.63 154.23,87.41C154.26,87.2 154.3,87 154.33,86.8C154.36,86.61 154.4,86.43 154.43,86.25C154.46,86.08 154.5,85.92 154.53,85.76C154.56,85.62 154.59,85.47 154.63,85.35C154.66,85.25 154.69,85.15 154.73,85.09C154.76,85.05 154.8,85 154.83,85C154.87,85 154.9,85.07 154.93,85.13C154.97,85.22 155,85.36 155.03,85.5C155.07,85.68 155.1,85.91 155.13,86.14C155.17,86.41 155.2,86.72 155.23,87.04C155.27,87.4 155.3,87.79 155.33,88.19C155.36,88.62 155.4,89.08 155.43,89.54C155.47,90.02 155.51,90.52 155.54,91.02C155.58,91.54 155.61,92.06 155.64,92.59C155.67,93.13 155.71,93.68 155.74,94.22C155.77,94.77 155.81,95.31 155.84,95.86C155.87,96.41 155.91,96.96 155.94,97.5C155.97,98.04 156.01,98.57 156.04,99.1C156.07,99.62 156.11,100.14 156.14,100.65C156.17,101.15 156.21,101.64 156.24,102.13C156.27,102.61 156.31,103.08 156.34,103.55C156.37,104.02 156.41,104.48 156.44,104.94C156.47,105.4 156.51,105.86 156.54,106.32C156.57,106.78 156.61,107.23 156.64,107.69C156.67,108.14 156.71,108.6 156.74,109.05C156.77,109.5 156.81,109.95 156.84,110.39C156.87,110.83 156.91,111.26 156.94,111.69C156.97,112.11 157.01,112.52 157.04,112.92C157.07,113.31 157.11,113.69 157.14,114.06C157.17,114.41 157.21,114.75 157.24,115.07C157.27,115.37 157.31,115.67 157.34,115.95C157.37,116.21 157.4,116.46 157.44,116.69C157.47,116.9 157.51,117.11 157.54,117.3C157.57,117.48 157.61,117.65 157.64,117.82C157.67,117.99 157.71,118.15 157.74,118.31C157.77,118.47 157.81,118.63 157.84,118.79C157.87,118.96 157.91,119.13 157.94,119.31C157.97,119.49 158.01,119.67 158.04,119.85C158.07,120.03 158.11,120.22 158.14,120.4C158.17,120.58 158.21,120.76 158.24,120.93C158.27,121.1 158.31,121.26 158.34,121.42C158.37,121.57 158.4,121.72 158.44,121.85C158.47,121.97 158.5,122.08 158.54,122.19C158.57,122.29 158.6,122.38 158.64,122.46C158.67,122.53 158.7,122.59 158.74,122.65C158.77,122.7 158.81,122.74 158.85,122.78C158.88,122.82 158.91,122.85 158.95,122.88C158.98,122.9 159.02,122.92 159.05,122.94C159.08,122.96 159.12,122.97 159.15,122.99C159.18,123 159.22,123.02 159.25,123.03C159.28,123.04 159.32,123.05 159.35,123.06C159.38,123.07 159.42,123.08 159.45,123.09C159.48,123.1 159.52,123.11 159.55,123.12C159.58,123.13 159.62,123.13 159.65,123.14C159.68,123.14 159.72,123.15 159.75,123.15C159.78,123.15 159.82,123.16 159.85,123.16C159.88,123.16 159.92,123.17 159.95,123.17C159.98,123.17 160.02,123.17 160.05,123.17C160.08,123.17 160.12,123.18 160.15,123.18C160.18,123.18 160.22,123.19 160.25,123.19C160.28,123.2 160.32,123.2 160.35,123.21C160.38,123.21 160.42,123.22 160.45,123.22C160.48,123.22 160.52,123.23 160.55,123.23C160.58,123.23 160.62,123.24 160.65,123.24Q160.68,123.24 160.75,123.24L160.75,123.25" style="vector-effect: non-scaling-stroke; stroke-width: 2px; stroke: rgb(102, 194, 164); stroke-opacity: 1; fill: rgb(102, 194, 164); fill-opacity: 0.5;"/><path class="meanline" d="M154.6,85.4479751586914V123.25" style="fill: none; vector-effect: non-scaling-stroke; stroke-width: 2px; stroke-dasharray: 4px, 2px; stroke: rgb(102, 194, 164); stroke-opacity: 1;"/></g><g class="trace violins" style="opacity: 1;"><path class="violin" d="M157.75,85L157.75,84.99Q157.88,84.99 157.94,84.99C158,84.99 158.06,84.98 158.12,84.98C158.18,84.98 158.25,84.97 158.31,84.97C158.37,84.97 158.44,84.96 158.5,84.96C158.56,84.96 158.62,84.95 158.68,84.95C158.74,84.95 158.81,84.95 158.87,84.95C158.93,84.95 158.99,84.94 159.05,84.94C159.11,84.94 159.18,84.94 159.24,84.94C159.3,84.94 159.36,84.93 159.42,84.93C159.48,84.93 159.55,84.93 159.61,84.92C159.67,84.92 159.73,84.91 159.79,84.9C159.85,84.89 159.92,84.88 159.98,84.87C160.04,84.86 160.1,84.84 160.16,84.83C160.22,84.82 160.29,84.81 160.35,84.79C160.41,84.77 160.47,84.75 160.53,84.73C160.59,84.71 160.66,84.69 160.72,84.67C160.78,84.65 160.84,84.62 160.9,84.6C160.96,84.58 161.03,84.55 161.09,84.53C161.15,84.51 161.21,84.48 161.27,84.46C161.33,84.44 161.4,84.42 161.46,84.39C161.52,84.37 161.58,84.34 161.64,84.31C161.7,84.28 161.77,84.25 161.83,84.21C161.89,84.17 161.96,84.12 162.02,84.07C162.08,84.02 162.14,83.96 162.2,83.9C162.26,83.83 162.33,83.75 162.39,83.67C162.45,83.59 162.51,83.5 162.57,83.41C162.63,83.32 162.7,83.22 162.76,83.12C162.82,83.02 162.88,82.92 162.94,82.81C163,82.7 163.07,82.59 163.13,82.47C163.19,82.35 163.25,82.23 163.31,82.1C163.37,81.97 163.44,81.84 163.5,81.7C163.56,81.56 163.62,81.4 163.68,81.25C163.74,81.09 163.81,80.93 163.87,80.76C163.93,80.58 163.99,80.4 164.05,80.21C164.11,80.01 164.18,79.8 164.24,79.59C164.3,79.36 164.36,79.13 164.42,78.89C164.48,78.64 164.55,78.38 164.61,78.12C164.67,77.84 164.73,77.55 164.79,77.26C164.85,76.96 164.92,76.66 164.98,76.35C165.04,76.03 165.1,75.71 165.16,75.38C165.22,75.05 165.29,74.71 165.35,74.37C165.41,74.02 165.48,73.66 165.54,73.3C165.6,72.92 165.66,72.54 165.72,72.15C165.78,71.74 165.85,71.32 165.91,70.89C165.97,70.45 166.03,69.99 166.09,69.53C166.15,69.05 166.22,68.57 166.28,68.08C166.34,67.58 166.4,67.06 166.46,66.55C166.52,66.03 166.59,65.51 166.65,64.99C166.71,64.46 166.77,63.92 166.83,63.39C166.89,62.85 166.96,62.31 167.02,61.77C167.08,61.23 167.14,60.69 167.2,60.16C167.26,59.63 167.33,59.1 167.39,58.57C167.45,58.05 167.51,57.53 167.57,57.02C167.63,56.52 167.7,56.03 167.76,55.54C167.82,55.07 167.88,54.6 167.94,54.15C168,53.71 168.07,53.28 168.13,52.86C168.19,52.46 168.25,52.06 168.31,51.68C168.37,51.32 168.43,50.97 168.5,50.63C168.56,50.31 168.63,50.01 168.69,49.71C168.75,49.43 168.81,49.15 168.87,48.89C168.93,48.65 169,48.41 169.06,48.19C169.12,47.98 169.17,47.78 169.24,47.6C169.3,47.44 169.36,47.28 169.43,47.15C169.49,47.04 169.54,46.93 169.61,46.86C169.67,46.81 169.74,46.76 169.8,46.75C169.86,46.74 169.92,46.77 169.98,46.8C170.05,46.84 170.11,46.92 170.17,46.99C170.24,47.07 170.29,47.17 170.35,47.27C170.42,47.39 170.48,47.51 170.54,47.65C170.61,47.81 170.66,47.98 170.72,48.16C170.79,48.37 170.85,48.6 170.91,48.85C170.98,49.14 171.03,49.45 171.09,49.78C171.16,50.15 171.22,50.54 171.28,50.95C171.34,51.39 171.4,51.87 171.46,52.34C171.52,52.83 171.59,53.34 171.65,53.85C171.71,54.37 171.77,54.89 171.83,55.41C171.89,55.93 171.96,56.44 172.02,56.95C172.08,57.45 172.15,57.95 172.21,58.44C172.27,58.93 172.33,59.41 172.39,59.9C172.45,60.38 172.52,60.86 172.58,61.35C172.64,61.84 172.7,62.33 172.76,62.82C172.82,63.32 172.89,63.81 172.95,64.31C173.01,64.81 173.07,65.31 173.13,65.81C173.19,66.3 173.26,66.8 173.32,67.28C173.38,67.74 173.44,68.2 173.5,68.65C173.56,69.08 173.63,69.5 173.69,69.91C173.75,70.29 173.81,70.66 173.87,71.02C173.93,71.36 174,71.68 174.06,72C174.12,72.3 174.18,72.6 174.24,72.89C174.3,73.18 174.37,73.46 174.43,73.75C174.49,74.04 174.55,74.32 174.61,74.61C174.67,74.9 174.74,75.19 174.8,75.49C174.86,75.79 174.92,76.1 174.98,76.4C175.04,76.7 175.11,77 175.17,77.3C175.23,77.59 175.29,77.89 175.35,78.18C175.41,78.47 175.48,78.75 175.54,79.03C175.6,79.3 175.67,79.57 175.73,79.84C175.79,80.1 175.85,80.35 175.91,80.6C175.97,80.84 176.04,81.08 176.1,81.3C176.16,81.51 176.22,81.72 176.28,81.91C176.34,82.09 176.41,82.26 176.47,82.42C176.53,82.57 176.59,82.7 176.65,82.83C176.71,82.95 176.78,83.05 176.84,83.15C176.9,83.24 176.96,83.33 177.02,83.41C177.08,83.49 177.15,83.56 177.21,83.63C177.27,83.7 177.33,83.77 177.39,83.83C177.45,83.89 177.52,83.94 177.58,84C177.64,84.05 177.7,84.11 177.76,84.16C177.82,84.21 177.89,84.26 177.95,84.3C178.01,84.34 178.07,84.38 178.13,84.41C178.19,84.44 178.26,84.46 178.32,84.49C178.38,84.51 178.44,84.54 178.5,84.56C178.56,84.58 178.63,84.6 178.69,84.62C178.75,84.64 178.81,84.66 178.87,84.68C178.93,84.7 179,84.73 179.06,84.75C179.12,84.77 179.19,84.79 179.25,84.81C179.31,84.83 179.37,84.84 179.43,84.86C179.49,84.88 179.56,84.89 179.62,84.91C179.68,84.92 179.74,84.94 179.8,84.95C179.86,84.96 179.93,84.96 179.99,84.97Q180.05,84.97 180.17,84.98L180.17,85" style="vector-effect: non-scaling-stroke; stroke-width: 2px; stroke: rgb(102, 194, 164); stroke-opacity: 1; fill: rgb(102, 194, 164); fill-opacity: 0.5;"/><path class="meanline" d="M169.87,46.75437927246094V85" style="fill: none; vector-effect: non-scaling-stroke; stroke-width: 2px; stroke-dasharray: 4px, 2px; stroke: rgb(102, 194, 164); stroke-opacity: 1;"/></g><g class="trace violins" style="opacity: 1;"><path class="violin" d="M119.54,46.75L119.54,46.74Q119.61,46.74 119.65,46.74C119.69,46.74 119.72,46.73 119.76,46.73C119.79,46.73 119.83,46.72 119.86,46.72C119.9,46.71 119.93,46.71 119.97,46.7C120,46.7 120.04,46.69 120.07,46.69C120.11,46.69 120.14,46.68 120.18,46.68C120.22,46.68 120.25,46.67 120.29,46.67C120.32,46.67 120.36,46.66 120.39,46.66C120.43,46.66 120.46,46.66 120.5,46.66C120.53,46.66 120.57,46.65 120.6,46.65C120.64,46.65 120.67,46.64 120.71,46.64C120.75,46.64 120.78,46.64 120.82,46.63C120.85,46.62 120.89,46.61 120.92,46.6C120.96,46.59 120.99,46.58 121.03,46.57C121.07,46.56 121.1,46.55 121.14,46.54C121.17,46.53 121.21,46.53 121.24,46.52C121.28,46.51 121.31,46.5 121.35,46.49C121.38,46.48 121.42,46.46 121.45,46.45C121.49,46.43 121.53,46.42 121.56,46.4C121.6,46.37 121.64,46.34 121.67,46.3C121.71,46.26 121.74,46.22 121.77,46.18C121.81,46.13 121.85,46.08 121.88,46.03C121.92,45.97 121.95,45.91 121.98,45.85C122.02,45.79 122.05,45.72 122.09,45.65C122.13,45.58 122.17,45.5 122.2,45.42C122.24,45.34 122.27,45.25 122.3,45.16C122.34,45.06 122.38,44.95 122.41,44.83C122.45,44.7 122.49,44.56 122.52,44.41C122.56,44.25 122.59,44.07 122.62,43.89C122.66,43.69 122.7,43.49 122.73,43.28C122.77,43.06 122.8,42.82 122.83,42.58C122.87,42.33 122.9,42.08 122.94,41.83C122.98,41.57 123.02,41.3 123.05,41.04C123.09,40.77 123.12,40.51 123.15,40.24C123.19,39.97 123.23,39.69 123.26,39.41C123.3,39.13 123.33,38.84 123.36,38.55C123.4,38.25 123.43,37.94 123.47,37.62C123.51,37.29 123.55,36.96 123.58,36.62C123.62,36.27 123.65,35.9 123.68,35.54C123.72,35.17 123.75,34.78 123.79,34.4C123.83,34.01 123.86,33.62 123.9,33.23C123.93,32.84 123.96,32.45 124,32.06C124.03,31.67 124.08,31.3 124.11,30.91C124.15,30.52 124.18,30.13 124.21,29.74C124.25,29.34 124.28,28.95 124.32,28.54C124.36,28.12 124.4,27.69 124.43,27.24C124.47,26.77 124.5,26.29 124.53,25.79C124.57,25.27 124.61,24.73 124.64,24.18C124.68,23.6 124.71,23.01 124.74,22.41C124.78,21.8 124.81,21.17 124.85,20.55C124.89,19.94 124.92,19.32 124.96,18.73C124.99,18.17 125.02,17.6 125.06,17.08C125.09,16.6 125.13,16.13 125.17,15.71C125.2,15.35 125.24,15 125.28,14.7C125.31,14.45 125.34,14.22 125.38,14.02C125.41,13.86 125.45,13.73 125.49,13.6C125.52,13.49 125.55,13.41 125.59,13.31C125.62,13.22 125.67,13.13 125.7,13.03C125.74,12.92 125.78,12.8 125.81,12.67C125.85,12.52 125.88,12.34 125.91,12.16C125.95,11.96 125.99,11.75 126.02,11.53C126.06,11.3 126.09,11.04 126.12,10.8C126.16,10.55 126.19,10.3 126.23,10.06C126.27,9.82 126.3,9.58 126.34,9.36C126.37,9.16 126.4,8.96 126.44,8.8C126.47,8.68 126.5,8.52 126.55,8.5C126.58,8.49 126.63,8.51 126.66,8.55C126.72,8.62 126.73,8.84 126.76,9.02C126.8,9.26 126.84,9.57 126.87,9.88C126.91,10.24 126.94,10.65 126.97,11.06C127.01,11.5 127.04,11.97 127.08,12.43C127.12,12.9 127.15,13.39 127.19,13.87C127.22,14.35 127.25,14.83 127.29,15.31C127.32,15.78 127.36,16.25 127.4,16.72C127.43,17.19 127.47,17.65 127.5,18.12C127.54,18.59 127.57,19.06 127.61,19.53C127.65,20 127.69,20.48 127.72,20.95C127.76,21.43 127.79,21.9 127.82,22.38C127.86,22.86 127.89,23.35 127.93,23.84C127.97,24.33 128.01,24.82 128.04,25.31C128.08,25.8 128.11,26.3 128.14,26.79C128.18,27.29 128.21,27.79 128.25,28.29C128.28,28.78 128.31,29.28 128.35,29.77C128.38,30.25 128.42,30.74 128.46,31.21C128.5,31.67 128.53,32.14 128.57,32.59C128.6,33.03 128.63,33.47 128.67,33.9C128.7,34.31 128.74,34.71 128.78,35.11C128.81,35.5 128.84,35.88 128.88,36.25C128.91,36.61 128.95,36.97 128.99,37.32C129.03,37.66 129.06,38 129.1,38.33C129.13,38.65 129.16,38.97 129.2,39.28C129.23,39.58 129.27,39.87 129.31,40.16C129.35,40.44 129.38,40.71 129.42,40.98C129.45,41.23 129.48,41.48 129.52,41.72C129.55,41.95 129.59,42.17 129.63,42.38C129.66,42.58 129.69,42.77 129.73,42.96C129.76,43.14 129.8,43.31 129.84,43.47C129.88,43.62 129.91,43.77 129.95,43.91C129.98,44.05 130.01,44.18 130.05,44.31C130.08,44.43 130.12,44.55 130.16,44.67C130.19,44.78 130.22,44.88 130.26,44.98C130.29,45.07 130.33,45.16 130.37,45.25C130.41,45.33 130.44,45.41 130.48,45.48C130.51,45.55 130.54,45.62 130.58,45.68C130.61,45.74 130.65,45.8 130.69,45.85C130.73,45.9 130.76,45.95 130.8,46C130.83,46.05 130.86,46.09 130.9,46.13C130.93,46.17 130.97,46.2 131.01,46.23C131.04,46.26 131.07,46.29 131.11,46.32C131.14,46.35 131.18,46.37 131.22,46.39C131.26,46.41 131.29,46.42 131.33,46.44C131.36,46.45 131.4,46.47 131.43,46.48C131.47,46.49 131.5,46.51 131.54,46.52C131.57,46.53 131.61,46.55 131.64,46.56C131.68,46.57 131.71,46.59 131.75,46.6C131.79,46.61 131.82,46.62 131.86,46.63C131.89,46.64 131.93,46.66 131.96,46.67C132,46.68 132.03,46.69 132.07,46.7C132.11,46.71 132.14,46.71 132.18,46.72C132.21,46.72 132.25,46.73 132.28,46.73Q132.32,46.73 132.39,46.74L132.39,46.75" style="vector-effect: non-scaling-stroke; stroke-width: 2px; stroke: rgb(102, 194, 164); stroke-opacity: 1; fill: rgb(102, 194, 164); fill-opacity: 0.5;"/><path class="meanline" d="M126.28,9.734753608703613V46.75" style="fill: none; vector-effect: non-scaling-stroke; stroke-width: 2px; stroke-dasharray: 4px, 2px; stroke: rgb(102, 194, 164); stroke-opacity: 1;"/></g></g></g><g class="overplot"/><path class="xlines-above crisp" d="M0,0" style="fill: none;"/><path class="ylines-above crisp" d="M0,0" style="fill: none;"/><g class="overlines-above"/><g class="xaxislayer-above"><g class="xtick"><text text-anchor="start" x="0" y="203" transform="translate(40,0) rotate(90,0,197)" style="font-family: 'Open Sans', verdana, arial, sans-serif; font-size: 12px; fill: rgb(68, 68, 68); fill-opacity: 1; white-space: pre;">−1</text></g><g class="xtick"><text text-anchor="start" x="0" y="203" transform="translate(68.25,0) rotate(90,0,197)" style="font-family: 'Open Sans', verdana, arial, sans-serif; font-size: 12px; fill: rgb(68, 68, 68); fill-opacity: 1; white-space: pre;">−0.75</text></g><g class="xtick"><text text-anchor="start" x="0" y="203" transform="translate(96.5,0) rotate(90,0,197)" style="font-family: 'Open Sans', verdana, arial, sans-serif; font-size: 12px; fill: rgb(68, 68, 68); fill-opacity: 1; white-space: pre;">−0.5</text></g><g class="xtick"><text text-anchor="start" x="0" y="203" transform="translate(124.75,0) rotate(90,0,197)" style="font-family: 'Open Sans', verdana, arial, sans-serif; font-size: 12px; fill: rgb(68, 68, 68); fill-opacity: 1; white-space: pre;">−0.25</text></g><g class="xtick"><text text-anchor="start" x="0" y="203" transform="translate(153,0) rotate(90,0,197)" style="font-family: 'Open Sans', verdana, arial, sans-serif; font-size: 12px; fill: rgb(68, 68, 68); fill-opacity: 1; white-space: pre;">0</text></g><g class="xtick"><text text-anchor="start" x="0" y="203" transform="translate(181.25,0) rotate(90,0,197)" style="font-family: 'Open Sans', verdana, arial, sans-serif; font-size: 12px; fill: rgb(68, 68, 68); fill-opacity: 1; white-space: pre;">0.25</text></g><g class="xtick"><text text-anchor="start" x="0" y="203" transform="translate(209.5,0) rotate(90,0,197)" style="font-family: 'Open Sans', verdana, arial, sans-serif; font-size: 12px; fill: rgb(68, 68, 68); fill-opacity: 1; white-space: pre;">0.5</text></g><g class="xtick"><text text-anchor="start" x="0" y="203" transform="translate(237.75,0) rotate(90,0,197)" style="font-family: 'Open Sans', verdana, arial, sans-serif; font-size: 12px; fill: rgb(68, 68, 68); fill-opacity: 1; white-space: pre;">0.75</text></g><g class="xtick"><text text-anchor="start" x="0" y="203" transform="translate(266,0) rotate(90,0,197)" style="font-family: 'Open Sans', verdana, arial, sans-serif; font-size: 12px; fill: rgb(68, 68, 68); fill-opacity: 1; white-space: pre;">1</text></g></g><g class="yaxislayer-above"><g class="ytick"><text text-anchor="end" x="39" y="4.199999999999999" transform="translate(0,181.5)" style="font-family: 'Open Sans', verdana, arial, sans-serif; font-size: 12px; fill: rgb(68, 68, 68); fill-opacity: 1; white-space: pre;">Meus</text></g><g class="ytick"><text text-anchor="end" x="39" y="4.199999999999999" transform="translate(0,143.25)" style="font-family: 'Open Sans', verdana, arial, sans-serif; font-size: 12px; fill: rgb(68, 68, 68); fill-opacity: 1; white-space: pre;">Hyum</text></g><g class="ytick"><text text-anchor="end" x="39" y="4.199999999999999" transform="translate(0,105)" style="font-family: 'Open Sans', verdana, arial, sans-serif; font-size: 12px; fill: rgb(68, 68, 68); fill-opacity: 1; white-space: pre;">Seum</text></g><g class="ytick"><text text-anchor="end" x="39" y="4.199999999999999" transform="translate(0,66.75)" style="font-family: 'Open Sans', verdana, arial, sans-serif; font-size: 12px; fill: rgb(68, 68, 68); fill-opacity: 1; white-space: pre;">Raer</text></g></g><g class="overaxes-above"/></g></g><g class="polarlayer"/><g class="ternarylayer"/><g class="geolayer"/><g class="funnelarealayer"/><g class="pielayer"/><g class="treemaplayer"/><g class="sunburstlayer"/><g class="glimages"/><defs id="topdefs-5a88d2"><g class="clips"/></defs><g class="layer-above"><g class="imagelayer"/><g class="shapelayer"><path data-index="0" fill-rule="evenodd" d="M141.7,181.5L141.7,28.5" clip-path="url('#clip5a88d2xy')" style="opacity: 1; stroke: rgb(0, 0, 0); stroke-opacity: 1; fill: rgb(0, 0, 0); fill-opacity: 0; stroke-dasharray: 9px, 9px; stroke-width: 2px;"/><path data-index="1" fill-rule="evenodd" d="M164.3,181.5L164.3,28.5" clip-path="url('#clip5a88d2xy')" style="opacity: 1; stroke: rgb(0, 0, 0); stroke-opacity: 1; fill: rgb(0, 0, 0); fill-opacity: 0; stroke-dasharray: 9px, 9px; stroke-width: 2px;"/></g></g><g class="infolayer"><g class="g-gtitle"/><g class="g-xtitle" transform="translate(0,0.703125)"><text class="xtitle" x="153" y="242" text-anchor="middle" style="font-family: 'Open Sans', verdana, arial, sans-serif; font-size: 14px; fill: rgb(68, 68, 68); opacity: 1; font-weight: normal; white-space: pre;">Coeficiente de Interacción</text></g><g class="g-ytitle"/></g></svg>