<svg class="main-svg" xmlns="http://www.w3.org/2000/svg" xmlns:xlink="http://www.w3.org/1999/xlink" width="286" height="250" style="" viewBox="0 0 286 250"><rect x="0" y="0" width="286" height="250" style="fill: rgb(255, 255, 255); fill-opacity: 1;"/><defs id="defs-b81aba"><g class="clips"><clipPath id="clipb81abaxyplot" class="plotclip"><rect width="226" height="170"/></clipPath><clipPath class="axesclip" id="clipb81abax"><rect x="40" y="0" width="226" height="250"/></clipPath><clipPath class="axesclip" id="clipb81abay"><rect x="0" y="20" width="286" height="170"/></clipPath><clipPath class="axesclip" id="clipb81abaxy"><rect x="40" y="20" width="226" height="170"/></clipPath></g><g class="gradients"/></defs><g class="bglayer"/><g class="layer-below"><g class="imagelayer"/><g class="shapelayer"/></g><g class="cartesianlayer"><g class="subplot xy"><g class="layer-subplot"><g class="shapelayer"/><g class="imagelayer"/></g><g class="gridlayer"><g class="x"/><g class="y"><path class="ygrid crisp" transform="translate(0,181.5)" d="M40,0h226" style="stroke: rgb(238, 238, 238); stroke-opacity: 1; stroke-width: 1px;"/><path class="ygrid crisp" transform="translate(0,130.5)" d="M40,0h226" style="stroke: rgb(238, 238, 238); stroke-opacity: 1; stroke-width: 1px;"/><path class="ygrid crisp" transform="translate(0,79.5)" d="M40,0h226" style="stroke: rgb(238, 238, 238); stroke-opacity: 1; stroke-width: 1px;"/></g></g><g class="zerolinelayer"/><path class="xlines-below"/><path class="ylines-below"/><g class="overlines-below"/><g class="xaxislayer-below"/><g class="yaxislayer-below"/><g class="overaxes-below"/><g class="plot" transform="translate(40,20)" clip-path="url('#clipb81abaxyplot')"><g class="violinlayer mlayer"><g class="trace violins" style="opacity: 1;"><path class="violin" d="M76.89,161.5L76.89,160.57Q78.38,159.97 79.09,159.51C79.86,159.01 80.61,158.38 81.3,157.64C82.09,156.8 82.81,155.76 83.5,154.64C84.29,153.37 85,151.9 85.7,150.38C86.47,148.7 87.18,146.83 87.9,144.95C88.66,142.97 89.38,140.84 90.11,138.78C90.85,136.71 91.56,134.55 92.31,132.54C93.03,130.62 93.74,128.7 94.51,126.97C95.21,125.4 95.92,123.88 96.71,122.58C97.4,121.45 98.12,120.4 98.91,119.57C99.6,118.84 100.35,118.23 101.12,117.78C101.82,117.37 102.58,117.11 103.32,116.9C104.04,116.7 104.78,116.62 105.52,116.54C106.25,116.46 106.99,116.46 107.72,116.44C108.46,116.41 109.19,116.42 109.93,116.39C110.66,116.36 111.4,116.33 112.13,116.26C112.86,116.19 113.6,116.09 114.33,115.97C115.07,115.85 115.8,115.69 116.53,115.52C117.27,115.35 118,115.15 118.74,114.96C119.47,114.77 120.21,114.56 120.94,114.37C121.67,114.18 122.4,113.99 123.14,113.84C123.87,113.69 124.6,113.55 125.34,113.45C126.07,113.35 126.8,113.26 127.54,113.22C128.27,113.18 129.01,113.17 129.75,113.19C130.48,113.21 131.22,113.27 131.95,113.35C132.69,113.44 133.42,113.57 134.15,113.7C134.88,113.83 135.62,114 136.35,114.14C137.09,114.29 137.82,114.45 138.56,114.57C139.29,114.69 140.03,114.81 140.76,114.86C141.49,114.91 142.23,114.93 142.96,114.89C143.69,114.85 144.43,114.76 145.16,114.63C145.9,114.5 146.63,114.32 147.36,114.13C148.1,113.94 148.83,113.7 149.57,113.49C150.3,113.28 151.03,113.05 151.77,112.85C152.5,112.65 153.23,112.45 153.97,112.29C154.7,112.13 155.43,112 156.17,111.89C156.9,111.79 157.64,111.71 158.38,111.66C159.11,111.61 159.85,111.59 160.58,111.59C161.31,111.59 162.05,111.62 162.78,111.64C163.51,111.67 164.25,111.7 164.98,111.74C165.72,111.78 166.45,111.82 167.19,111.86C167.92,111.9 168.66,111.93 169.39,111.96C170.12,111.98 170.86,112.01 171.59,112.01C172.32,112.01 173.06,112 173.79,111.99C174.52,111.98 175.26,111.96 175.99,111.93C176.73,111.9 177.46,111.86 178.2,111.82C178.93,111.78 179.67,111.74 180.4,111.69C181.13,111.63 181.87,111.57 182.6,111.49C183.33,111.41 184.07,111.32 184.8,111.21C185.54,111.1 186.27,110.95 187.01,110.83C187.74,110.71 188.47,110.55 189.21,110.5C189.94,110.45 190.69,110.38 191.41,110.5C192.15,110.63 192.92,110.85 193.61,111.27C194.4,111.74 195.14,112.47 195.82,113.31C196.63,114.31 197.33,115.63 198.02,117C198.82,118.6 199.52,120.47 200.22,122.37C200.99,124.47 201.7,126.78 202.42,129.07C203.17,131.45 203.88,133.96 204.62,136.37C205.35,138.74 206.07,141.17 206.83,143.43C207.54,145.54 208.25,147.63 209.03,149.51C209.73,151.19 210.44,152.8 211.23,154.19C211.92,155.4 212.64,156.52 213.43,157.43C214.12,158.23 214.87,158.9 215.64,159.43Q216.34,159.91 217.84,160.54L217.84,161.5" style="vector-effect: non-scaling-stroke; stroke-width: 2px; stroke: rgb(102, 194, 164); stroke-opacity: 1; fill: rgb(102, 194, 164); fill-opacity: 0.5;"/><path class="meanline" d="M148.73,113.7378921508789V161.5" style="fill: none; vector-effect: non-scaling-stroke; stroke-width: 2px; stroke-dasharray: 4px, 2px; stroke: rgb(102, 194, 164); stroke-opacity: 1;"/></g><g class="trace violins" style="opacity: 1;"><path class="violin" d="M147.37,110.5L147.37,110.49Q147.44,110.48 147.48,110.47C147.51,110.46 147.55,110.46 147.58,110.45C147.61,110.44 147.65,110.43 147.68,110.42C147.72,110.41 147.75,110.39 147.79,110.38C147.82,110.37 147.86,110.35 147.89,110.34C147.92,110.32 147.96,110.31 147.99,110.29C148.03,110.27 148.06,110.25 148.1,110.23C148.13,110.21 148.17,110.19 148.2,110.17C148.23,110.15 148.27,110.12 148.3,110.09C148.34,110.06 148.38,110.03 148.41,110C148.45,109.96 148.48,109.92 148.51,109.88C148.54,109.84 148.58,109.79 148.61,109.74C148.64,109.69 148.68,109.63 148.71,109.57C148.75,109.5 148.79,109.43 148.82,109.36C148.86,109.28 148.89,109.2 148.92,109.12C148.95,109.03 148.99,108.94 149.02,108.85C149.06,108.75 149.1,108.64 149.13,108.53C149.17,108.42 149.2,108.3 149.23,108.18C149.26,108.05 149.3,107.91 149.33,107.77C149.37,107.62 149.41,107.46 149.44,107.29C149.48,107.11 149.51,106.93 149.54,106.73C149.58,106.51 149.61,106.29 149.64,106.05C149.68,105.8 149.72,105.53 149.75,105.26C149.79,104.97 149.82,104.66 149.85,104.35C149.88,104.02 149.92,103.68 149.95,103.34C149.99,102.99 150.03,102.63 150.06,102.27C150.1,101.9 150.13,101.53 150.16,101.15C150.19,100.77 150.23,100.38 150.26,99.99C150.29,99.6 150.33,99.2 150.36,98.8C150.4,98.39 150.44,97.98 150.47,97.56C150.51,97.13 150.54,96.7 150.57,96.26C150.6,95.81 150.64,95.35 150.67,94.88C150.71,94.4 150.75,93.9 150.78,93.41C150.82,92.91 150.85,92.39 150.88,91.88C150.91,91.36 150.95,90.83 150.98,90.31C151.02,89.78 151.06,89.25 151.09,88.72C151.13,88.18 151.16,87.65 151.19,87.1C151.22,86.53 151.26,85.96 151.29,85.37C151.33,84.75 151.37,84.11 151.4,83.45C151.44,82.75 151.47,82.02 151.5,81.27C151.53,80.48 151.57,79.66 151.6,78.84C151.64,77.99 151.68,77.12 151.71,76.26C151.75,75.4 151.78,74.52 151.81,73.67C151.84,72.85 151.88,72.04 151.91,71.26C151.94,70.53 151.97,69.82 152.01,69.15C152.04,68.54 152.08,67.95 152.12,67.39C152.15,66.89 152.18,66.42 152.22,65.97C152.25,65.57 152.28,65.19 152.32,64.83C152.35,64.51 152.39,64.2 152.43,63.91C152.46,63.64 152.5,63.39 152.53,63.14C152.56,62.91 152.59,62.68 152.63,62.46C152.66,62.25 152.7,62.05 152.74,61.84C152.77,61.64 152.81,61.44 152.84,61.24C152.87,61.04 152.9,60.85 152.94,60.66C152.97,60.48 153.01,60.29 153.05,60.12C153.08,59.97 153.11,59.82 153.15,59.71C153.18,59.63 153.21,59.51 153.25,59.5C153.28,59.49 153.33,59.53 153.36,59.58C153.41,59.66 153.43,59.83 153.46,59.99C153.5,60.2 153.53,60.45 153.56,60.71C153.6,61.02 153.63,61.36 153.66,61.71C153.7,62.09 153.74,62.5 153.77,62.92C153.81,63.36 153.84,63.82 153.87,64.29C153.9,64.78 153.94,65.29 153.97,65.81C154.01,66.36 154.05,66.93 154.08,67.51C154.12,68.13 154.15,68.76 154.18,69.41C154.21,70.1 154.25,70.81 154.28,71.53C154.32,72.27 154.36,73.03 154.39,73.79C154.43,74.56 154.46,75.34 154.49,76.1C154.52,76.85 154.55,77.61 154.59,78.35C154.62,79.07 154.66,79.78 154.7,80.47C154.73,81.14 154.77,81.8 154.8,82.45C154.83,83.08 154.87,83.71 154.9,84.33C154.93,84.93 154.96,85.53 155,86.12C155.03,86.69 155.07,87.26 155.11,87.81C155.14,88.34 155.18,88.87 155.21,89.38C155.24,89.87 155.27,90.35 155.31,90.82C155.34,91.28 155.38,91.73 155.42,92.18C155.45,92.62 155.49,93.06 155.52,93.5C155.55,93.95 155.59,94.4 155.62,94.85C155.66,95.31 155.7,95.77 155.73,96.24C155.77,96.71 155.8,97.19 155.83,97.66C155.86,98.13 155.89,98.59 155.93,99.05C155.96,99.5 156,99.94 156.04,100.38C156.07,100.81 156.11,101.23 156.14,101.64C156.17,102.04 156.2,102.43 156.24,102.81C156.27,103.18 156.31,103.55 156.35,103.91C156.38,104.25 156.42,104.59 156.45,104.92C156.48,105.23 156.52,105.54 156.55,105.84C156.58,106.12 156.61,106.38 156.65,106.64C156.68,106.88 156.72,107.11 156.76,107.32C156.79,107.51 156.82,107.7 156.86,107.87C156.89,108.03 156.92,108.18 156.96,108.32C156.99,108.44 157.03,108.56 157.07,108.67C157.1,108.77 157.14,108.87 157.17,108.97C157.2,109.06 157.23,109.15 157.27,109.23C157.3,109.31 157.34,109.39 157.38,109.46C157.41,109.53 157.45,109.6 157.48,109.66C157.51,109.72 157.54,109.78 157.58,109.83C157.61,109.88 157.65,109.92 157.69,109.96C157.72,110 157.76,110.03 157.79,110.06C157.82,110.09 157.85,110.12 157.89,110.14C157.92,110.16 157.96,110.18 158,110.2C158.03,110.22 158.07,110.24 158.1,110.26C158.13,110.28 158.17,110.29 158.2,110.3C158.23,110.32 158.27,110.34 158.3,110.35C158.34,110.37 158.37,110.38 158.41,110.39C158.44,110.4 158.48,110.41 158.51,110.42C158.54,110.43 158.58,110.44 158.61,110.45C158.65,110.46 158.68,110.46 158.72,110.47C158.75,110.47 158.79,110.48 158.82,110.48Q158.85,110.48 158.92,110.49L158.92,110.5" style="vector-effect: non-scaling-stroke; stroke-width: 2px; stroke: rgb(102, 194, 164); stroke-opacity: 1; fill: rgb(102, 194, 164); fill-opacity: 0.5;"/><path class="meanline" d="M153.12,59.80481719970703V110.5" style="fill: none; vector-effect: non-scaling-stroke; stroke-width: 2px; stroke-dasharray: 4px, 2px; stroke: rgb(102, 194, 164); stroke-opacity: 1;"/></g><g class="trace violins" style="opacity: 1;"><path class="violin" d="M76.55,59.5L76.55,59.49Q76.6,59.48 76.62,59.48C76.64,59.48 76.66,59.47 76.68,59.47C76.7,59.46 76.73,59.46 76.75,59.45C76.77,59.44 76.79,59.43 76.81,59.42C76.83,59.41 76.86,59.4 76.88,59.39C76.9,59.38 76.93,59.38 76.95,59.37C76.97,59.36 76.99,59.35 77.01,59.34C77.03,59.33 77.06,59.32 77.08,59.31C77.1,59.3 77.12,59.29 77.14,59.28C77.16,59.27 77.19,59.26 77.21,59.25C77.23,59.24 77.26,59.23 77.28,59.22C77.3,59.21 77.32,59.19 77.34,59.18C77.36,59.16 77.39,59.15 77.41,59.13C77.43,59.11 77.45,59.09 77.47,59.07C77.49,59.05 77.52,59.02 77.54,58.99C77.56,58.96 77.58,58.92 77.6,58.89C77.62,58.85 77.65,58.82 77.67,58.78C77.69,58.74 77.72,58.69 77.74,58.64C77.76,58.59 77.78,58.53 77.8,58.48C77.82,58.42 77.85,58.36 77.87,58.3C77.89,58.23 77.91,58.15 77.93,58.07C77.95,57.98 77.98,57.9 78,57.8C78.02,57.69 78.05,57.57 78.07,57.45C78.09,57.32 78.11,57.17 78.13,57.03C78.15,56.88 78.18,56.72 78.2,56.56C78.22,56.4 78.24,56.23 78.26,56.06C78.28,55.89 78.31,55.73 78.33,55.56C78.35,55.39 78.38,55.22 78.4,55.05C78.42,54.87 78.44,54.69 78.46,54.51C78.48,54.32 78.51,54.12 78.53,53.91C78.55,53.68 78.57,53.43 78.59,53.18C78.61,52.9 78.64,52.61 78.66,52.3C78.68,51.97 78.7,51.62 78.72,51.26C78.74,50.88 78.77,50.49 78.79,50.09C78.81,49.67 78.84,49.23 78.86,48.8C78.88,48.36 78.9,47.91 78.92,47.47C78.94,47.02 78.97,46.57 78.99,46.13C79.01,45.69 79.03,45.25 79.05,44.82C79.07,44.39 79.1,43.96 79.12,43.53C79.14,43.1 79.17,42.66 79.19,42.22C79.21,41.77 79.23,41.32 79.25,40.86C79.27,40.38 79.3,39.89 79.32,39.4C79.34,38.89 79.36,38.38 79.38,37.86C79.4,37.34 79.43,36.81 79.45,36.29C79.47,35.77 79.5,35.26 79.52,34.75C79.54,34.25 79.56,33.75 79.58,33.25C79.6,32.76 79.63,32.28 79.65,31.79C79.67,31.3 79.69,30.81 79.71,30.3C79.73,29.78 79.76,29.24 79.78,28.7C79.8,28.13 79.83,27.55 79.85,26.96C79.87,26.35 79.89,25.71 79.91,25.08C79.93,24.44 79.96,23.78 79.98,23.13C80,22.48 80.02,21.82 80.04,21.17C80.06,20.53 80.09,19.89 80.11,19.27C80.13,18.67 80.15,18.08 80.17,17.5C80.19,16.94 80.22,16.39 80.24,15.86C80.26,15.35 80.29,14.86 80.31,14.38C80.33,13.92 80.35,13.47 80.37,13.03C80.39,12.61 80.42,12.2 80.44,11.8C80.46,11.42 80.48,11.05 80.5,10.7C80.52,10.37 80.54,10.05 80.57,9.76C80.59,9.5 80.62,9.25 80.64,9.04C80.66,8.88 80.67,8.7 80.7,8.61C80.72,8.56 80.75,8.5 80.77,8.5C80.8,8.5 80.81,8.64 80.83,8.73C80.86,8.87 80.88,9.08 80.9,9.28C80.93,9.54 80.95,9.84 80.97,10.15C80.99,10.51 81.01,10.91 81.03,11.32C81.05,11.78 81.08,12.28 81.1,12.79C81.12,13.34 81.14,13.93 81.16,14.52C81.18,15.15 81.21,15.82 81.23,16.48C81.25,17.17 81.27,17.87 81.29,18.57C81.31,19.28 81.34,20 81.36,20.71C81.38,21.42 81.41,22.13 81.43,22.82C81.45,23.49 81.47,24.15 81.49,24.8C81.51,25.43 81.54,26.05 81.56,26.65C81.58,27.23 81.6,27.8 81.62,28.36C81.64,28.91 81.67,29.46 81.69,30C81.71,30.54 81.74,31.08 81.76,31.62C81.78,32.17 81.8,32.71 81.82,33.27C81.84,33.84 81.87,34.41 81.89,34.99C81.91,35.57 81.93,36.16 81.95,36.74C81.97,37.33 82,37.92 82.02,38.5C82.04,39.08 82.07,39.66 82.09,40.23C82.11,40.79 82.13,41.36 82.15,41.91C82.17,42.45 82.2,43 82.22,43.53C82.24,44.05 82.26,44.58 82.28,45.09C82.3,45.59 82.33,46.08 82.35,46.57C82.37,47.05 82.4,47.52 82.42,47.99C82.44,48.44 82.46,48.89 82.48,49.33C82.5,49.76 82.53,50.18 82.55,50.59C82.57,50.98 82.59,51.37 82.61,51.75C82.63,52.11 82.66,52.45 82.68,52.79C82.7,53.1 82.72,53.41 82.74,53.7C82.76,53.96 82.79,54.21 82.81,54.44C82.83,54.65 82.86,54.85 82.88,55.04C82.9,55.21 82.92,55.36 82.94,55.51C82.96,55.64 82.99,55.76 83.01,55.88C83.03,55.99 83.05,56.1 83.07,56.2C83.09,56.3 83.12,56.4 83.14,56.5C83.16,56.6 83.19,56.7 83.21,56.8C83.23,56.9 83.25,57.01 83.27,57.11C83.29,57.21 83.32,57.31 83.34,57.41C83.36,57.51 83.38,57.61 83.4,57.71C83.42,57.81 83.45,57.9 83.47,57.99C83.49,58.08 83.52,58.17 83.54,58.25C83.56,58.33 83.58,58.4 83.6,58.47C83.62,58.54 83.65,58.6 83.67,58.66C83.69,58.71 83.71,58.76 83.73,58.81C83.75,58.86 83.78,58.9 83.8,58.94C83.82,58.98 83.84,59.01 83.86,59.05C83.88,59.09 83.91,59.12 83.93,59.16C83.95,59.19 83.98,59.23 84,59.26C84.02,59.29 84.04,59.32 84.06,59.34C84.08,59.36 84.11,59.38 84.13,59.4C84.15,59.42 84.17,59.43 84.19,59.44C84.21,59.45 84.24,59.46 84.26,59.46C84.28,59.46 84.31,59.46 84.33,59.46C84.35,59.46 84.37,59.46 84.39,59.46C84.41,59.46 84.44,59.45 84.46,59.45C84.48,59.45 84.5,59.44 84.52,59.44C84.54,59.44 84.57,59.44 84.59,59.44C84.61,59.44 84.64,59.44 84.66,59.44C84.68,59.44 84.7,59.45 84.72,59.45C84.74,59.45 84.77,59.46 84.79,59.46C84.81,59.46 84.83,59.47 84.85,59.47C84.87,59.47 84.9,59.48 84.92,59.48Q84.94,59.48 84.99,59.49L84.99,59.5" style="vector-effect: non-scaling-stroke; stroke-width: 2px; stroke: rgb(102, 194, 164); stroke-opacity: 1; fill: rgb(102, 194, 164); fill-opacity: 0.5;"/><path class="meanline" d="M80.68,8.69626522064209V59.5" style="fill: none; vector-effect: non-scaling-stroke; stroke-width: 2px; stroke-dasharray: 4px, 2px; stroke: rgb(102, 194, 164); stroke-opacity: 1;"/></g></g></g><g class="overplot"/><path class="xlines-above crisp" d="M0,0" style="fill: none;"/><path class="ylines-above crisp" d="M0,0" style="fill: none;"/><g class="overlines-above"/><g class="xaxislayer-above"><g class="xtick"><text text-anchor="start" x="0" y="203" transform="translate(40,0) rotate(90,0,197)" style="font-family: 'Open Sans', verdana, arial, sans-serif; font-size: 12px; fill: rgb(68, 68, 68); fill-opacity: 1; white-space: pre;">−1</text></g><g class="xtick"><text text-anchor="start" x="0" y="203" transform="translate(68.25,0) rotate(90,0,197)" style="font-family: 'Open Sans', verdana, arial, sans-serif; font-size: 12px; fill: rgb(68, 68, 68); fill-opacity: 1; white-space: pre;">−0.75</text></g><g class="xtick"><text text-anchor="start" x="0" y="203" transform="translate(96.5,0) rotate(90,0,197)" style="font-family: 'Open Sans', verdana, arial, sans-serif; font-size: 12px; fill: rgb(68, 68, 68); fill-opacity: 1; white-space: pre;">−0.5</text></g><g class="xtick"><text text-anchor="start" x="0" y="203" transform="translate(124.75,0) rotate(90,0,197)" style="font-family: 'Open Sans', verdana, arial, sans-serif; font-size: 12px; fill: rgb(68, 68, 68); fill-opacity: 1; white-space: pre;">−0.25</text></g><g class="xtick"><text text-anchor="start" x="0" y="203" transform="translate(153,0) rotate(90,0,197)" style="font-family: 'Open Sans', verdana, arial, sans-serif; font-size: 12px; fill: rgb(68, 68, 68); fill-opacity: 1; white-space: pre;">0</text></g><g class="xtick"><text text-anchor="start" x="0" y="203" transform="translate(181.25,0) rotate(90,0,197)" style="font-family: 'Open Sans', verdana, arial, sans-serif; font-size: 12px; fill: rgb(68, 68, 68); fill-opacity: 1; white-space: pre;">0.25</text></g><g class="xtick"><text text-anchor="start" x="0" y="203" transform="translate(209.5,0) rotate(90,0,197)" style="font-family: 'Open Sans', verdana, arial, sans-serif; font-size: 12px; fill: rgb(68, 68, 68); fill-opacity: 1; white-space: pre;">0.5</text></g><g class="xtick"><text text-anchor="start" x="0" y="203" transform="translate(237.75,0) rotate(90,0,197)" style="font-family: 'Open Sans', verdana, arial, sans-serif; font-size: 12px; fill: rgb(68, 68, 68); fill-opacity: 1; white-space: pre;">0.75</text></g><g class="xtick"><text text-anchor="start" x="0" y="203" transform="translate(266,0) rotate(90,0,197)" style="font-family: 'Open Sans', verdana, arial, sans-serif; font-size: 12px; fill: rgb(68, 68, 68); fill-opacity: 1; white-space: pre;">1</text></g></g><g class="yaxislayer-above"><g class="ytick"><text text-anchor="end" x="39" y="4.199999999999999" transform="translate(0,181.5)" style="font-family: 'Open Sans', verdana, arial, sans-serif; font-size: 12px; fill: rgb(68, 68, 68); fill-opacity: 1; white-space: pre;">Meus</text></g><g class="ytick"><text text-anchor="end" x="39" y="4.199999999999999" transform="translate(0,130.5)" style="font-family: 'Open Sans', verdana, arial, sans-serif; font-size: 12px; fill: rgb(68, 68, 68); fill-opacity: 1; white-space: pre;">Hyum</text></g><g class="ytick"><text text-anchor="end" x="39" y="4.199999999999999" transform="translate(0,79.5)" style="font-family: 'Open Sans', verdana, arial, sans-serif; font-size: 12px; fill: rgb(68, 68, 68); fill-opacity: 1; white-space: pre;">Seum</text></g></g><g class="overaxes-above"/></g></g><g class="polarlayer"/><g class="ternarylayer"/><g class="geolayer"/><g class="funnelarealayer"/><g class="pielayer"/><g class="treemaplayer"/><g class="sunburstlayer"/><g class="glimages"/><defs id="topdefs-b81aba"><g class="clips"/></defs><g class="layer-above"><g class="imagelayer"/><g class="shapelayer"><path data-index="0" fill-rule="evenodd" d="M141.7,181.5L141.7,28.5" clip-path="url('#clipb81abaxy')" style="opacity: 1; stroke: rgb(0, 0, 0); stroke-opacity: 1; fill: rgb(0, 0, 0); fill-opacity: 0; stroke-dasharray: 9px, 9px; stroke-width: 2px;"/><path data-index="1" fill-rule="evenodd" d="M164.3,181.5L164.3,28.5" clip-path="url('#clipb81abaxy')" style="opacity: 1; stroke: rgb(0, 0, 0); stroke-opacity: 1; fill: rgb(0, 0, 0); fill-opacity: 0; stroke-dasharray: 9px, 9px; stroke-width: 2px;"/></g></g><g class="infolayer"><g class="g-gtitle"/><g class="g-xtitle" transform="translate(0,0.703125)"><text class="xtitle" x="153" y="242" text-anchor="middle" style="font-family: 'Open Sans', verdana, arial, sans-serif; font-size: 14px; fill: rgb(68, 68, 68); opacity: 1; font-weight: normal; white-space: pre;">Coeficiente de Interacción</text></g><g class="g-ytitle"/></g></svg>