<svg class="main-svg" xmlns="http://www.w3.org/2000/svg" xmlns:xlink="http://www.w3.org/1999/xlink" width="266" height="250" style="" viewBox="0 0 266 250"><rect x="0" y="0" width="266" height="250" style="fill: rgb(255, 255, 255); fill-opacity: 1;"/><defs id="defs-ef06fb"><g class="clips"><clipPath id="clipef06fbxyplot" class="plotclip"><rect width="226" height="170"/></clipPath><clipPath class="axesclip" id="clipef06fbx"><rect x="20" y="0" width="226" height="250"/></clipPath><clipPath class="axesclip" id="clipef06fby"><rect x="0" y="20" width="266" height="170"/></clipPath><clipPath class="axesclip" id="clipef06fbxy"><rect x="20" y="20" width="226" height="170"/></clipPath></g><g class="gradients"/></defs><g class="bglayer"/><g class="layer-below"><g class="imagelayer"/><g class="shapelayer"/></g><g class="cartesianlayer"><g class="subplot xy"><g class="layer-subplot"><g class="shapelayer"/><g class="imagelayer"/></g><g class="gridlayer"><g class="x"/><g class="y"><path class="ygrid crisp" transform="translate(0,181.5)" d="M20,0h226" style="stroke: rgb(238, 238, 238); stroke-opacity: 1; stroke-width: 1px;"/><path class="ygrid crisp" transform="translate(0,150.9)" d="M20,0h226" style="stroke: rgb(238, 238, 238); stroke-opacity: 1; stroke-width: 1px;"/><path class="ygrid crisp" transform="translate(0,120.3)" d="M20,0h226" style="stroke: rgb(238, 238, 238); stroke-opacity: 1; stroke-width: 1px;"/><path class="ygrid crisp" transform="translate(0,89.7)" d="M20,0h226" style="stroke: rgb(238, 238, 238); stroke-opacity: 1; stroke-width: 1px;"/><path class="ygrid crisp" transform="translate(0,59.1)" d="M20,0h226" style="stroke: rgb(238, 238, 238); stroke-opacity: 1; stroke-width: 1px;"/></g></g><g class="zerolinelayer"/><path class="xlines-below"/><path class="ylines-below"/><g class="overlines-below"/><g class="xaxislayer-below"/><g class="yaxislayer-below"/><g class="overaxes-below"/><g class="plot" transform="translate(20,20)" clip-path="url('#clipef06fbxyplot')"><g class="violinlayer mlayer"><g class="trace violins" style="opacity: 1;"><path class="violin" d="M113,161.5L113,161.49Q113,161.49 113,161.49C113,161.49 113,161.48 113,161.48C113,161.47 113,161.47 113,161.46C113,161.46 113,161.45 113,161.45C113,161.45 113,161.44 113,161.44C113,161.44 113,161.43 113,161.43C113,161.43 113,161.42 113,161.42C113,161.42 113,161.42 113,161.42C113,161.42 113,161.42 113,161.42C113,161.42 113,161.42 113,161.42C113,161.42 113,161.41 113,161.41C113,161.4 113,161.4 113,161.39C113,161.38 113,161.36 113,161.35C113,161.34 113,161.32 113,161.31C113,161.29 113,161.27 113,161.25C113,161.23 113,161.21 113,161.19C113,161.17 113,161.14 113,161.11C113,161.08 113,161.06 113,161.03C113,161 113,160.96 113,160.93C113,160.89 113,160.85 113,160.81C113,160.77 113,160.73 113,160.68C113,160.63 113,160.58 113,160.52C113,160.46 113,160.4 113,160.33C113,160.25 113,160.17 113,160.08C113,159.98 113,159.88 113,159.77C113,159.65 113,159.51 113,159.37C113,159.22 113,159.06 113,158.9C113,158.73 113,158.54 113,158.36C113,158.17 113,157.97 113,157.78C113,157.58 113,157.38 113,157.18C113,156.98 113,156.78 113,156.58C113,156.38 113,156.18 113,155.98C113,155.79 113,155.6 113,155.41C113,155.22 113,155.02 113,154.83C113,154.64 113,154.45 113,154.26C113,154.07 113,153.87 113,153.67C113,153.46 113,153.25 113,153.03C113,152.8 113,152.58 113,152.34C113,152.09 113,151.83 113,151.56C113,151.28 113,150.98 113,150.68C113,150.36 113,150.04 113,149.71C113,149.36 113,149 113,148.64C113,148.26 113,147.88 113,147.49C113,147.09 113,146.69 113,146.28C113,145.86 113,145.44 113,145.01C113,144.57 113,144.13 113,143.69C113,143.24 113,142.79 113,142.34C113,141.88 113,141.41 113,140.94C113,140.47 113,139.99 113,139.52C113,139.05 113,138.58 113,138.11C113,137.65 113,137.19 113,136.74C113,136.31 113,135.89 113,135.48C113,135.1 113,134.73 113,134.38C113,134.06 113,133.75 113,133.46C113,133.2 113,132.96 113,132.73C113,132.52 113,132.32 113,132.13C113,131.96 113,131.81 113,131.66C113,131.53 113,131.39 113,131.28C113,131.19 113,131.09 113,131.02C113,130.97 113,130.9 113,130.9C113,130.9 113,130.93 113,130.96C113,131.02 113,131.12 113,131.22C113,131.35 113,131.5 113,131.66C113,131.84 113,132.03 113,132.23C113,132.44 113,132.67 113,132.89C113,133.12 113,133.36 113,133.6C113,133.85 113,134.1 113,134.35C113,134.61 113,134.89 113,135.16C113,135.44 113,135.74 113,136.03C113,136.33 113,136.65 113,136.96C113,137.27 113,137.6 113,137.91C113,138.22 113,138.54 113,138.84C113,139.13 113,139.43 113,139.71C113,139.98 113,140.23 113,140.49C113,140.74 113,140.98 113,141.22C113,141.46 113,141.7 113,141.95C113,142.22 113,142.49 113,142.77C113,143.08 113,143.39 113,143.72C113,144.08 113,144.46 113,144.85C113,145.27 113,145.7 113,146.14C113,146.59 113,147.07 113,147.53C113,148 113,148.47 113,148.94C113,149.4 113,149.86 113,150.31C113,150.74 113,151.16 113,151.57C113,151.95 113,152.33 113,152.69C113,153.02 113,153.35 113,153.66C113,153.94 113,154.21 113,154.47C113,154.71 113,154.94 113,155.17C113,155.38 113,155.59 113,155.79C113,155.98 113,156.17 113,156.36C113,156.54 113,156.73 113,156.91C113,157.09 113,157.28 113,157.46C113,157.64 113,157.81 113,157.98C113,158.14 113,158.31 113,158.46C113,158.6 113,158.75 113,158.88C113,159 113,159.11 113,159.22C113,159.32 113,159.4 113,159.49C113,159.57 113,159.64 113,159.71C113,159.77 113,159.83 113,159.89C113,159.95 113,160.01 113,160.07C113,160.13 113,160.19 113,160.25C113,160.31 113,160.36 113,160.42C113,160.48 113,160.54 113,160.6C113,160.66 113,160.72 113,160.77C113,160.82 113,160.87 113,160.92C113,160.97 113,161.02 113,161.06C113,161.1 113,161.13 113,161.16C113,161.19 113,161.22 113,161.25C113,161.27 113,161.29 113,161.31C113,161.33 113,161.34 113,161.36C113,161.37 113,161.39 113,161.4C113,161.41 113,161.42 113,161.43C113,161.44 113,161.44 113,161.45C113,161.46 113,161.47 113,161.47C113,161.47 113,161.47 113,161.47C113,161.47 113,161.48 113,161.48C113,161.48 113,161.47 113,161.47C113,161.47 113,161.47 113,161.47C113,161.47 113,161.46 113,161.46C113,161.46 113,161.46 113,161.46C113,161.46 113.01,161.46 113.01,161.46C113.01,161.46 113.01,161.47 113.01,161.47C113.01,161.47 113.01,161.48 113.01,161.48C113.01,161.48 113.01,161.48 113.01,161.48C113.01,161.48 113.01,161.49 113.01,161.49Q113.01,161.49 113.01,161.49L113.01,161.5" style="vector-effect: non-scaling-stroke; stroke-width: 2px; stroke: rgb(102, 194, 164); stroke-opacity: 1; fill: rgb(102, 194, 164); fill-opacity: 0.5;"/><path class="meanline" d="M113,130.92498779296875V161.5" style="fill: none; vector-effect: non-scaling-stroke; stroke-width: 2px; stroke-dasharray: 4px, 2px; stroke: rgb(102, 194, 164); stroke-opacity: 1;"/></g><g class="trace violins" style="opacity: 1;"><path class="violin" d="M113,130.9L113,130.8Q113,130.71 113,130.65C113,130.56 113,130.44 113,130.31C113,130.12 113,129.89 113,129.63C113,129.28 113,128.86 113,128.39C113,127.79 113,127.09 113,126.34C113,125.42 113,124.37 113,123.27C113,122 113,120.58 113,119.14C113,117.56 113,115.85 113,114.17C113,112.45 113,110.64 113,108.96C113,107.37 113,105.73 113,104.34C113,103.2 113,101.95 113,101.22C113,100.82 113,100.3 113,100.3C113,100.3 113,101.18 113,101.78C113,102.71 113,104.06 113,105.34C113,106.83 113,108.55 113,110.2C113,111.92 113,113.74 113,115.45C113,117.09 113,118.74 113,120.26C113,121.63 113,122.96 113,124.15C113,125.16 113,126.12 113,126.96C113,127.63 113,128.25 113,128.78C113,129.18 113,129.55 113,129.85C113,130.07 113,130.26 113,130.42C113,130.53 113,130.63 113,130.7C113,130.75 113,130.79 113,130.82C113,130.84 113,130.86 113,130.87C113,130.88 113,130.88 113,130.89C113,130.89 113,130.9 113,130.9C113,130.9 113,130.9 113,130.9C113,130.9 113,130.9 113,130.9C113,130.9 113,130.9 113,130.9C113,130.9 113,130.9 113,130.9C113,130.9 113,130.9 113,130.9C113,130.9 113,130.9 113,130.9C113,130.9 113,130.9 113,130.9C113,130.9 113,130.9 113,130.9C113,130.9 113.01,130.89 113.01,130.89C113.01,130.88 113.01,130.88 113.01,130.87C113.01,130.86 113.01,130.83 113.01,130.81C113.01,130.77 113.01,130.73 113.01,130.68C113.01,130.6 113.01,130.51 113.01,130.4C113.01,130.25 113.01,130.07 113.01,129.87C113.01,129.61 113.01,129.3 113.01,128.97C113.01,128.57 113.01,128.11 113.01,127.63C113.01,127.08 113.01,126.46 113.01,125.85C113.01,125.19 113.01,124.48 113.01,123.81C113.01,123.15 113.01,122.46 113.01,121.86C113.01,121.34 113.01,120.78 113.01,120.41C113.01,120.18 113.01,119.84 113.01,119.84C113.01,119.84 113.01,120.1 113.01,120.29C113.01,120.62 113.01,121.15 113.01,121.64C113.01,122.22 113.01,122.9 113.01,123.54C113.01,124.21 113.01,124.92 113.01,125.58C113.01,126.2 113.01,126.83 113.01,127.4C113.01,127.9 113.01,128.38 113.01,128.8C113.01,129.15 113.01,129.47 113.01,129.75C113.01,129.97 113.01,130.17 113.01,130.33C113.01,130.45 113.01,130.56 113.01,130.64Q113.01,130.7 113.01,130.79L113.01,130.9" style="vector-effect: non-scaling-stroke; stroke-width: 2px; stroke: rgb(102, 194, 164); stroke-opacity: 1; fill: rgb(102, 194, 164); fill-opacity: 0.5;"/><path class="meanline" d="M113,111.36207580566406V130.9" style="fill: none; vector-effect: non-scaling-stroke; stroke-width: 2px; stroke-dasharray: 4px, 2px; stroke: rgb(102, 194, 164); stroke-opacity: 1;"/></g><g class="trace violins" style="opacity: 1;"><path class="violin" d="M113,100.3L113,100.29Q113,100.28 113,100.27C113,100.26 113,100.26 113,100.25C113,100.24 113,100.23 113,100.22C113,100.21 113,100.2 113,100.19C113,100.18 113,100.16 113,100.15C113,100.14 113,100.12 113,100.11C113,100.1 113,100.08 113,100.07C113,100.06 113,100.04 113,100.03C113,100.02 113,100 113,99.99C113,99.97 113,99.95 113,99.93C113,99.91 113,99.88 113,99.86C113,99.83 113,99.8 113,99.77C113,99.74 113,99.7 113,99.66C113,99.62 113,99.57 113,99.53C113,99.48 113,99.43 113,99.38C113,99.32 113,99.26 113,99.2C113,99.13 113,99.06 113,98.98C113,98.9 113,98.82 113,98.73C113,98.64 113,98.54 113,98.44C113,98.34 113,98.23 113,98.13C113,98.02 113,97.91 113,97.8C113,97.68 113,97.56 113,97.43C113,97.3 113,97.17 113,97.03C113,96.88 113,96.72 113,96.55C113,96.37 113,96.19 113,96C113,95.79 113,95.57 113,95.35C113,95.11 113,94.87 113,94.62C113,94.36 113,94.08 113,93.81C113,93.53 113,93.23 113,92.94C113,92.64 113,92.34 113,92.04C113,91.74 113,91.43 113,91.12C113,90.81 113,90.49 113,90.18C113,89.87 113,89.56 113,89.25C113,88.94 113,88.62 113,88.31C113,87.99 113,87.68 113,87.36C113,87.04 113,86.71 113,86.38C113,86.03 113,85.68 113,85.32C113,84.94 113,84.56 113,84.17C113,83.76 113,83.34 113,82.92C113,82.48 113,82.03 113,81.58C113,81.12 113,80.66 113,80.2C113,79.74 113,79.28 113,78.83C113,78.38 113,77.94 113,77.5C113,77.08 113,76.66 113,76.26C113,75.87 113,75.49 113,75.13C113,74.79 113,74.46 113,74.15C113,73.86 113,73.59 113,73.33C113,73.09 113,72.86 113,72.65C113,72.46 113,72.28 113,72.1C113,71.93 113,71.77 113,71.61C113,71.45 113,71.3 113,71.15C113,71 113,70.86 113,70.72C113,70.59 113,70.45 113,70.33C113,70.22 113,70.1 113,70C113,69.92 113,69.85 113,69.79C113,69.75 113,69.7 113,69.7C113,69.7 113,69.74 113,69.77C113,69.83 113,69.92 113,70.02C113,70.15 113,70.3 113,70.46C113,70.66 113,70.89 113,71.12C113,71.39 113,71.68 113,71.98C113,72.31 113,72.66 113,73.02C113,73.4 113,73.79 113,74.18C113,74.58 113,74.99 113,75.4C113,75.81 113,76.22 113,76.63C113,77.03 113,77.42 113,77.81C113,78.19 113,78.56 113,78.93C113,79.28 113,79.63 113,79.97C113,80.3 113,80.63 113,80.96C113,81.28 113,81.59 113,81.91C113,82.23 113,82.55 113,82.87C113,83.2 113,83.54 113,83.89C113,84.25 113,84.61 113,84.98C113,85.36 113,85.74 113,86.12C113,86.5 113,86.9 113,87.28C113,87.66 113,88.04 113,88.41C113,88.77 113,89.13 113,89.48C113,89.82 113,90.15 113,90.48C113,90.8 113,91.1 113,91.41C113,91.71 113,92.02 113,92.32C113,92.61 113,92.9 113,93.19C113,93.47 113,93.76 113,94.04C113,94.31 113,94.58 113,94.84C113,95.09 113,95.33 113,95.56C113,95.78 113,95.99 113,96.19C113,96.37 113,96.54 113,96.71C113,96.86 113,97.01 113,97.15C113,97.28 113,97.41 113,97.54C113,97.66 113,97.78 113,97.9C113,98.01 113,98.12 113,98.23C113,98.33 113,98.44 113,98.54C113,98.63 113,98.72 113,98.81C113,98.89 113,98.96 113,99.03C113,99.09 113,99.15 113,99.2C113,99.25 113,99.29 113,99.33C113,99.37 113,99.4 113,99.44C113,99.47 113,99.51 113,99.54C113,99.57 113,99.61 113,99.64C113,99.67 113,99.71 113,99.74C113,99.77 113,99.81 113,99.84C113,99.87 113,99.9 113,99.93C113,99.96 113,99.99 113,100.01C113,100.03 113,100.05 113,100.07C113,100.09 113,100.11 113,100.12C113,100.13 113,100.14 113,100.15C113,100.16 113,100.17 113,100.18C113,100.19 113,100.19 113,100.2C113,100.21 113,100.21 113,100.22C113,100.22 113,100.23 113,100.23C113,100.23 113,100.24 113,100.24C113,100.24 113,100.25 113,100.25C113,100.25 113,100.25 113,100.25C113,100.25 113,100.25 113,100.25C113,100.25 113,100.26 113,100.26C113,100.26 113,100.27 113,100.27C113,100.27 113,100.28 113,100.28C113,100.28 113,100.28 113,100.28C113,100.28 113,100.29 113,100.29Q113,100.29 113,100.29L113,100.3" style="vector-effect: non-scaling-stroke; stroke-width: 2px; stroke: rgb(102, 194, 164); stroke-opacity: 1; fill: rgb(102, 194, 164); fill-opacity: 0.5;"/><path class="meanline" d="M113,69.69999694824219V100.3" style="fill: none; vector-effect: non-scaling-stroke; stroke-width: 2px; stroke-dasharray: 4px, 2px; stroke: rgb(102, 194, 164); stroke-opacity: 1;"/></g><g class="trace violins" style="opacity: 1;"><path class="violin" d="M112.53,69.7L112.53,69.69Q112.53,69.69 112.53,69.69C112.53,69.69 112.53,69.68 112.53,69.68C112.53,69.68 112.53,69.68 112.53,69.68C112.53,69.68 112.53,69.67 112.53,69.67C112.53,69.67 112.53,69.66 112.53,69.66C112.53,69.66 112.53,69.65 112.53,69.65C112.53,69.65 112.53,69.65 112.53,69.65C112.53,69.65 112.53,69.65 112.53,69.65C112.53,69.65 112.54,69.64 112.54,69.64C112.54,69.64 112.54,69.63 112.54,69.63C112.54,69.62 112.54,69.62 112.54,69.61C112.54,69.6 112.54,69.6 112.54,69.59C112.54,69.58 112.54,69.56 112.54,69.55C112.54,69.54 112.54,69.52 112.54,69.51C112.54,69.49 112.54,69.47 112.54,69.45C112.54,69.43 112.54,69.41 112.54,69.39C112.54,69.37 112.54,69.35 112.54,69.33C112.54,69.31 112.54,69.28 112.54,69.25C112.54,69.23 112.54,69.2 112.54,69.18C112.54,69.15 112.55,69.12 112.55,69.09C112.55,69.06 112.55,69.03 112.55,69C112.55,68.96 112.55,68.92 112.55,68.88C112.55,68.84 112.55,68.79 112.55,68.74C112.55,68.68 112.55,68.62 112.55,68.56C112.55,68.49 112.55,68.42 112.55,68.34C112.55,68.26 112.55,68.17 112.55,68.09C112.55,68 112.55,67.91 112.55,67.82C112.55,67.73 112.55,67.63 112.55,67.54C112.55,67.44 112.55,67.34 112.55,67.24C112.55,67.13 112.55,67.01 112.55,66.89C112.55,66.76 112.56,66.62 112.56,66.48C112.56,66.32 112.56,66.14 112.56,65.96C112.56,65.76 112.56,65.54 112.56,65.32C112.56,65.08 112.56,64.83 112.56,64.57C112.56,64.3 112.56,64.01 112.56,63.73C112.56,63.44 112.56,63.14 112.56,62.85C112.56,62.56 112.56,62.27 112.56,61.99C112.56,61.71 112.56,61.43 112.56,61.16C112.56,60.89 112.56,60.63 112.56,60.37C112.56,60.11 112.56,59.85 112.56,59.58C112.56,59.31 112.56,59.03 112.56,58.75C112.56,58.46 112.57,58.16 112.57,57.85C112.57,57.53 112.57,57.2 112.57,56.86C112.57,56.5 112.57,56.13 112.57,55.76C112.57,55.37 112.57,54.97 112.57,54.56C112.57,54.14 112.57,53.7 112.57,53.27C112.57,52.83 112.57,52.37 112.57,51.92C112.57,51.47 112.57,51 112.57,50.55C112.57,50.1 112.57,49.65 112.57,49.2C112.57,48.76 112.57,48.32 112.57,47.88C112.57,47.44 112.57,47 112.57,46.55C112.57,46.1 112.57,45.65 112.57,45.19C112.57,44.73 112.58,44.26 112.58,43.8C112.58,43.34 112.58,42.88 112.58,42.44C112.58,42.02 112.58,41.6 112.58,41.21C112.58,40.86 112.58,40.53 112.58,40.23C112.58,39.99 112.58,39.75 112.58,39.56C112.58,39.42 112.58,39.29 112.58,39.21C112.58,39.16 112.58,39.1 112.58,39.1C112.58,39.1 112.58,39.12 112.58,39.14C112.58,39.16 112.58,39.2 112.58,39.23C112.58,39.25 112.58,39.28 112.58,39.3C112.58,39.32 112.58,39.33 112.58,39.34C112.58,39.35 112.59,39.34 112.59,39.35C112.59,39.36 112.59,39.39 112.59,39.41C112.59,39.45 112.59,39.5 112.59,39.56C112.59,39.64 112.59,39.75 112.59,39.86C112.59,40 112.59,40.16 112.59,40.33C112.59,40.52 112.59,40.74 112.59,40.96C112.59,41.2 112.59,41.45 112.59,41.71C112.59,41.98 112.59,42.27 112.59,42.56C112.59,42.86 112.59,43.18 112.59,43.49C112.59,43.81 112.59,44.15 112.59,44.48C112.59,44.82 112.59,45.16 112.59,45.5C112.59,45.85 112.6,46.21 112.6,46.57C112.6,46.93 112.6,47.3 112.6,47.66C112.6,48.03 112.6,48.4 112.6,48.77C112.6,49.14 112.6,49.52 112.6,49.9C112.6,50.27 112.6,50.65 112.6,51.02C112.6,51.4 112.6,51.78 112.6,52.16C112.6,52.54 112.6,52.92 112.6,53.3C112.6,53.69 112.6,54.08 112.6,54.47C112.6,54.87 112.6,55.27 112.6,55.67C112.6,56.07 112.6,56.47 112.6,56.87C112.6,57.26 112.6,57.66 112.6,58.04C112.6,58.41 112.61,58.79 112.61,59.15C112.61,59.5 112.61,59.84 112.61,60.18C112.61,60.5 112.61,60.81 112.61,61.12C112.61,61.42 112.61,61.71 112.61,61.99C112.61,62.26 112.61,62.53 112.61,62.8C112.61,63.06 112.61,63.31 112.61,63.56C112.61,63.81 112.61,64.05 112.61,64.29C112.61,64.52 112.61,64.75 112.61,64.97C112.61,65.18 112.61,65.39 112.61,65.59C112.61,65.78 112.61,65.96 112.61,66.14C112.61,66.3 112.61,66.46 112.61,66.61C112.61,66.75 112.62,66.9 112.62,67.03C112.62,67.15 112.62,67.27 112.62,67.39C112.62,67.5 112.62,67.61 112.62,67.71C112.62,67.81 112.62,67.91 112.62,68C112.62,68.09 112.62,68.18 112.62,68.26C112.62,68.34 112.62,68.42 112.62,68.49C112.62,68.56 112.62,68.63 112.62,68.69C112.62,68.75 112.62,68.8 112.62,68.85C112.62,68.9 112.62,68.94 112.62,68.98C112.62,69.02 112.62,69.05 112.62,69.09C112.62,69.12 112.62,69.16 112.62,69.19C112.62,69.22 112.63,69.25 112.63,69.28C112.63,69.31 112.63,69.33 112.63,69.36C112.63,69.39 112.63,69.41 112.63,69.44C112.63,69.46 112.63,69.49 112.63,69.51C112.63,69.53 112.63,69.55 112.63,69.57C112.63,69.59 112.63,69.61 112.63,69.62C112.63,69.63 112.63,69.64 112.63,69.65C112.63,69.66 112.63,69.66 112.63,69.67Q112.63,69.68 112.63,69.69L112.63,69.7" style="vector-effect: non-scaling-stroke; stroke-width: 2px; stroke: rgb(102, 194, 164); stroke-opacity: 1; fill: rgb(102, 194, 164); fill-opacity: 0.5;"/><path class="meanline" d="M112.58,39.1013069152832V69.7" style="fill: none; vector-effect: non-scaling-stroke; stroke-width: 2px; stroke-dasharray: 4px, 2px; stroke: rgb(102, 194, 164); stroke-opacity: 1;"/></g><g class="trace violins" style="opacity: 1;"><path class="violin" d="M113.01,39.1L113.01,39.09Q113.01,39.09 113.01,39.09C113.01,39.09 113.01,39.08 113.01,39.08C113.01,39.08 113.01,39.07 113.01,39.07C113.01,39.06 113.01,39.06 113.01,39.05C113.01,39.04 113.01,39.03 113.01,39.02C113.01,39.01 113.01,38.99 113.01,38.98C113.01,38.96 113.01,38.94 113.01,38.92C113.01,38.9 113.01,38.87 113.01,38.84C113.01,38.81 113.01,38.77 113.01,38.73C113.01,38.69 113.01,38.65 113.01,38.6C113.01,38.55 113.01,38.49 113.01,38.44C113.01,38.38 113.01,38.32 113.01,38.26C113.01,38.2 113.01,38.13 113.01,38.06C113.01,37.99 113.01,37.91 113.01,37.83C113.01,37.75 113.01,37.67 113.01,37.59C113.01,37.51 113.01,37.43 113.01,37.35C113.01,37.27 113.01,37.19 113.01,37.11C113.01,37.03 113.01,36.95 113.01,36.87C113.01,36.79 113.01,36.72 113.01,36.64C113.01,36.56 113.01,36.48 113.01,36.4C113.01,36.31 113.01,36.21 113.01,36.11C113.01,36 113.01,35.88 113.01,35.76C113.01,35.62 113.01,35.47 113.01,35.32C113.01,35.15 113.01,34.98 113.01,34.79C113.01,34.58 113.01,34.36 113.01,34.14C113.01,33.9 113.01,33.65 113.01,33.4C113.01,33.13 113.01,32.85 113.01,32.57C113.01,32.28 113.01,31.97 113.01,31.67C113.01,31.36 113.01,31.04 113.01,30.72C113.01,30.4 113.01,30.09 113.01,29.77C113.01,29.45 113.01,29.13 113.01,28.81C113.01,28.49 113.01,28.18 113.01,27.86C113.01,27.54 113.01,27.23 113.01,26.91C113.01,26.59 113.01,26.28 113.01,25.96C113.01,25.64 113.01,25.32 113.01,25C113.01,24.67 113.01,24.34 113.01,24.01C113.01,23.67 113.01,23.33 113.01,22.99C113.01,22.64 113.01,22.29 113.01,21.94C113.01,21.58 113.01,21.22 113.01,20.85C113.01,20.47 113.01,20.09 113.01,19.71C113.01,19.32 113.01,18.93 113.01,18.54C113.01,18.14 113.01,17.74 113.01,17.34C113.01,16.94 113.01,16.54 113.01,16.14C113.01,15.75 113.01,15.35 113.01,14.96C113.01,14.58 113.01,14.21 113.01,13.85C113.01,13.51 113.01,13.17 113.01,12.84C113.01,12.54 113.01,12.24 113.01,11.96C113.01,11.7 113.01,11.46 113.01,11.22C113.01,11 113.01,10.8 113.01,10.6C113.01,10.41 113.01,10.23 113.01,10.05C113.01,9.88 113.01,9.72 113.01,9.56C113.01,9.4 113.01,9.24 113.01,9.1C113.01,8.97 113.01,8.84 113.01,8.73C113.01,8.64 113.01,8.5 113.01,8.5C113.01,8.5 113.01,8.5 113.01,8.5C113.01,8.5 113.01,8.66 113.01,8.76C113.01,8.9 113.01,9.09 113.01,9.27C113.01,9.48 113.01,9.73 113.01,9.97C113.01,10.23 113.01,10.5 113.01,10.77C113.01,11.04 113.01,11.31 113.01,11.57C113.01,11.82 113.01,12.07 113.01,12.32C113.01,12.56 113.01,12.79 113.01,13.02C113.01,13.25 113.01,13.47 113.01,13.7C113.01,13.93 113.01,14.16 113.01,14.39C113.01,14.63 113.01,14.88 113.01,15.14C113.01,15.41 113.01,15.68 113.01,15.97C113.01,16.28 113.01,16.59 113.01,16.92C113.01,17.27 113.01,17.64 113.01,18.01C113.01,18.41 113.01,18.82 113.01,19.24C113.01,19.69 113.01,20.15 113.01,20.62C113.01,21.1 113.01,21.6 113.01,22.1C113.01,22.6 113.01,23.12 113.01,23.62C113.01,24.12 113.01,24.62 113.01,25.1C113.01,25.57 113.01,26.03 113.01,26.48C113.01,26.91 113.01,27.33 113.01,27.74C113.01,28.13 113.01,28.51 113.01,28.88C113.01,29.24 113.01,29.59 113.01,29.93C113.01,30.26 113.01,30.58 113.01,30.89C113.01,31.19 113.01,31.49 113.01,31.78C113.01,32.05 113.01,32.31 113.01,32.57C113.01,32.81 113.01,33.05 113.01,33.28C113.01,33.49 113.01,33.7 113.01,33.9C113.01,34.09 113.01,34.27 113.01,34.44C113.01,34.6 113.01,34.76 113.01,34.91C113.01,35.06 113.01,35.2 113.01,35.34C113.01,35.47 113.01,35.6 113.01,35.73C113.01,35.85 113.01,35.97 113.01,36.09C113.01,36.2 113.01,36.32 113.01,36.43C113.01,36.54 113.01,36.64 113.01,36.75C113.01,36.85 113.01,36.96 113.01,37.06C113.01,37.16 113.01,37.25 113.01,37.35C113.01,37.45 113.01,37.55 113.01,37.64C113.01,37.73 113.01,37.82 113.01,37.91C113.01,37.99 113.01,38.08 113.01,38.16C113.01,38.23 113.01,38.3 113.01,38.37C113.01,38.43 113.01,38.49 113.01,38.55C113.01,38.6 113.01,38.66 113.01,38.7C113.01,38.74 113.01,38.77 113.01,38.8C113.01,38.83 113.01,38.86 113.01,38.88C113.01,38.9 113.01,38.91 113.01,38.93C113.01,38.94 113.01,38.96 113.01,38.97C113.01,38.98 113.01,38.99 113.01,39C113.01,39.01 113.01,39.01 113.01,39.02C113.01,39.03 113.01,39.03 113.01,39.04C113.01,39.05 113.01,39.05 113.01,39.06C113.01,39.06 113.01,39.07 113.01,39.07C113.01,39.07 113.01,39.08 113.01,39.08C113.01,39.08 113.01,39.09 113.01,39.09Q113.01,39.09 113.01,39.09L113.01,39.1" style="vector-effect: non-scaling-stroke; stroke-width: 2px; stroke: rgb(102, 194, 164); stroke-opacity: 1; fill: rgb(102, 194, 164); fill-opacity: 0.5;"/><path class="meanline" d="M113.01,8.500001907348633V39.1" style="fill: none; vector-effect: non-scaling-stroke; stroke-width: 2px; stroke-dasharray: 4px, 2px; stroke: rgb(102, 194, 164); stroke-opacity: 1;"/></g></g></g><g class="overplot"/><path class="xlines-above crisp" d="M0,0" style="fill: none;"/><path class="ylines-above crisp" d="M0,0" style="fill: none;"/><g class="overlines-above"/><g class="xaxislayer-above"><g class="xtick"><text text-anchor="start" x="0" y="203" transform="translate(20,0) rotate(90,0,197)" style="font-family: 'Open Sans', verdana, arial, sans-serif; font-size: 12px; fill: rgb(68, 68, 68); fill-opacity: 1; white-space: pre;">−1</text></g><g class="xtick"><text text-anchor="start" x="0" y="203" transform="translate(48.25,0) rotate(90,0,197)" style="font-family: 'Open Sans', verdana, arial, sans-serif; font-size: 12px; fill: rgb(68, 68, 68); fill-opacity: 1; white-space: pre;">−0.75</text></g><g class="xtick"><text text-anchor="start" x="0" y="203" transform="translate(76.5,0) rotate(90,0,197)" style="font-family: 'Open Sans', verdana, arial, sans-serif; font-size: 12px; fill: rgb(68, 68, 68); fill-opacity: 1; white-space: pre;">−0.5</text></g><g class="xtick"><text text-anchor="start" x="0" y="203" transform="translate(104.75,0) rotate(90,0,197)" style="font-family: 'Open Sans', verdana, arial, sans-serif; font-size: 12px; fill: rgb(68, 68, 68); fill-opacity: 1; white-space: pre;">−0.25</text></g><g class="xtick"><text text-anchor="start" x="0" y="203" transform="translate(133,0) rotate(90,0,197)" style="font-family: 'Open Sans', verdana, arial, sans-serif; font-size: 12px; fill: rgb(68, 68, 68); fill-opacity: 1; white-space: pre;">0</text></g><g class="xtick"><text text-anchor="start" x="0" y="203" transform="translate(161.25,0) rotate(90,0,197)" style="font-family: 'Open Sans', verdana, arial, sans-serif; font-size: 12px; fill: rgb(68, 68, 68); fill-opacity: 1; white-space: pre;">0.25</text></g><g class="xtick"><text text-anchor="start" x="0" y="203" transform="translate(189.5,0) rotate(90,0,197)" style="font-family: 'Open Sans', verdana, arial, sans-serif; font-size: 12px; fill: rgb(68, 68, 68); fill-opacity: 1; white-space: pre;">0.5</text></g><g class="xtick"><text text-anchor="start" x="0" y="203" transform="translate(217.75,0) rotate(90,0,197)" style="font-family: 'Open Sans', verdana, arial, sans-serif; font-size: 12px; fill: rgb(68, 68, 68); fill-opacity: 1; white-space: pre;">0.75</text></g><g class="xtick"><text text-anchor="start" x="0" y="203" transform="translate(246,0) rotate(90,0,197)" style="font-family: 'Open Sans', verdana, arial, sans-serif; font-size: 12px; fill: rgb(68, 68, 68); fill-opacity: 1; white-space: pre;">1</text></g></g><g class="yaxislayer-above"/><g class="overaxes-above"/></g></g><g class="polarlayer"/><g class="ternarylayer"/><g class="geolayer"/><g class="funnelarealayer"/><g class="pielayer"/><g class="treemaplayer"/><g class="sunburstlayer"/><g class="glimages"/><defs id="topdefs-ef06fb"><g class="clips"/></defs><g class="layer-above"><g class="imagelayer"/><g class="shapelayer"><path data-index="0" fill-rule="evenodd" d="M121.7,181.5L121.7,28.5" clip-path="url('#clipef06fbxy')" style="opacity: 1; stroke: rgb(0, 0, 0); stroke-opacity: 1; fill: rgb(0, 0, 0); fill-opacity: 0; stroke-dasharray: 9px, 9px; stroke-width: 2px;"/><path data-index="1" fill-rule="evenodd" d="M144.3,181.5L144.3,28.5" clip-path="url('#clipef06fbxy')" style="opacity: 1; stroke: rgb(0, 0, 0); stroke-opacity: 1; fill: rgb(0, 0, 0); fill-opacity: 0; stroke-dasharray: 9px, 9px; stroke-width: 2px;"/></g></g><g class="infolayer"><g class="g-gtitle"><text class="gtitle" x="133" y="10" text-anchor="middle" dy="0em" style="font-family: Calibri; font-size: 14px; fill: rgb(68, 68, 68); opacity: 1; font-weight: normal; white-space: pre;">My_20</text></g><g class="g-xtitle" transform="translate(0,0.703125)"><text class="xtitle" x="133" y="242" text-anchor="middle" style="font-family: 'Open Sans', verdana, arial, sans-serif; font-size: 14px; fill: rgb(68, 68, 68); opacity: 1; font-weight: normal; white-space: pre;">Coeficiente de Interacción</text></g><g class="g-ytitle"/></g></svg>