<svg class="main-svg" xmlns="http://www.w3.org/2000/svg" xmlns:xlink="http://www.w3.org/1999/xlink" width="286" height="250" style="" viewBox="0 0 286 250"><rect x="0" y="0" width="286" height="250" style="fill: rgb(255, 255, 255); fill-opacity: 1;"/><defs id="defs-36402e"><g class="clips"><clipPath id="clip36402exyplot" class="plotclip"><rect width="226" height="170"/></clipPath><clipPath class="axesclip" id="clip36402ex"><rect x="40" y="0" width="226" height="250"/></clipPath><clipPath class="axesclip" id="clip36402ey"><rect x="0" y="20" width="286" height="170"/></clipPath><clipPath class="axesclip" id="clip36402exy"><rect x="40" y="20" width="226" height="170"/></clipPath></g><g class="gradients"/></defs><g class="bglayer"/><g class="layer-below"><g class="imagelayer"/><g class="shapelayer"/></g><g class="cartesianlayer"><g class="subplot xy"><g class="layer-subplot"><g class="shapelayer"/><g class="imagelayer"/></g><g class="gridlayer"><g class="x"/><g class="y"><path class="ygrid crisp" transform="translate(0,181.5)" d="M40,0h226" style="stroke: rgb(238, 238, 238); stroke-opacity: 1; stroke-width: 1px;"/><path class="ygrid crisp" transform="translate(0,143.25)" d="M40,0h226" style="stroke: rgb(238, 238, 238); stroke-opacity: 1; stroke-width: 1px;"/><path class="ygrid crisp" transform="translate(0,105)" d="M40,0h226" style="stroke: rgb(238, 238, 238); stroke-opacity: 1; stroke-width: 1px;"/><path class="ygrid crisp" transform="translate(0,66.75)" d="M40,0h226" style="stroke: rgb(238, 238, 238); stroke-opacity: 1; stroke-width: 1px;"/></g></g><g class="zerolinelayer"/><path class="xlines-below"/><path class="ylines-below"/><g class="overlines-below"/><g class="xaxislayer-below"/><g class="yaxislayer-below"/><g class="overaxes-below"/><g class="plot" transform="translate(40,20)" clip-path="url('#clip36402exyplot')"><g class="violinlayer mlayer"><g class="trace violins" style="opacity: 1;"><path class="violin" d="M113,161.5L113,161.49Q113,161.48 113,161.48C113,161.48 113,161.47 113,161.47C113,161.47 113,161.46 113,161.46C113,161.45 113,161.45 113,161.44C113,161.43 113,161.43 113,161.42C113,161.42 113,161.41 113,161.41C113,161.41 113,161.4 113,161.4C113,161.4 113,161.4 113,161.4C113,161.4 113,161.41 113,161.41C113,161.41 113,161.4 113,161.4C113,161.4 113,161.39 113,161.39C113,161.38 113,161.37 113,161.36C113,161.35 113,161.33 113,161.32C113,161.3 113,161.28 113,161.26C113,161.24 113,161.21 113,161.19C113,161.16 113,161.14 113,161.11C113,161.08 113,161.04 113,161.01C113,160.98 113,160.95 113,160.91C113,160.87 113,160.82 113,160.78C113,160.73 113,160.69 113,160.64C113,160.59 113,160.54 113,160.48C113,160.42 113,160.35 113,160.28C113,160.2 113,160.13 113,160.04C113,159.94 113,159.84 113,159.73C113,159.61 113,159.48 113,159.34C113,159.18 113,159.01 113,158.84C113,158.65 113,158.45 113,158.25C113,158.03 113,157.81 113,157.58C113,157.34 113,157.09 113,156.85C113,156.6 113,156.35 113,156.1C113,155.85 113,155.6 113,155.35C113,155.1 113,154.86 113,154.61C113,154.37 113,154.12 113,153.88C113,153.64 113,153.41 113,153.17C113,152.93 113,152.69 113,152.45C113,152.21 113,151.96 113,151.71C113,151.45 113,151.19 113,150.92C113,150.64 113,150.35 113,150.05C113,149.73 113,149.41 113,149.07C113,148.72 113,148.35 113,147.98C113,147.58 113,147.18 113,146.76C113,146.33 113,145.88 113,145.43C113,144.96 113,144.48 113,143.99C113,143.49 113,142.98 113,142.47C113,141.95 113,141.42 113,140.89C113,140.35 113,139.79 113,139.24C113,138.68 113,138.12 113,137.55C113,136.97 113,136.39 113,135.81C113,135.22 113,134.62 113,134.03C113,133.44 113,132.84 113,132.26C113,131.69 113,131.11 113,130.55C113,130.01 113,129.48 113,128.97C113,128.5 113,128.04 113,127.6C113,127.2 113,126.81 113,126.45C113,126.13 113,125.82 113,125.53C113,125.27 113,125.02 113,124.79C113,124.58 113,124.39 113,124.2C113,124.03 113,123.87 113,123.73C113,123.61 113,123.49 113,123.4C113,123.34 113,123.25 113,123.25C113,123.25 113,123.29 113,123.33C113,123.4 113,123.53 113,123.65C113,123.81 113,124 113,124.2C113,124.42 113,124.66 113,124.91C113,125.18 113,125.46 113,125.74C113,126.03 113,126.32 113,126.62C113,126.93 113,127.24 113,127.56C113,127.89 113,128.23 113,128.57C113,128.93 113,129.29 113,129.66C113,130.04 113,130.43 113,130.82C113,131.22 113,131.62 113,132.02C113,132.41 113,132.8 113,133.18C113,133.55 113,133.91 113,134.26C113,134.59 113,134.92 113,135.24C113,135.55 113,135.85 113,136.15C113,136.45 113,136.75 113,137.06C113,137.39 113,137.73 113,138.08C113,138.46 113,138.86 113,139.28C113,139.73 113,140.2 113,140.69C113,141.21 113,141.75 113,142.3C113,142.87 113,143.45 113,144.03C113,144.62 113,145.22 113,145.8C113,146.37 113,146.95 113,147.51C113,148.05 113,148.58 113,149.09C113,149.57 113,150.04 113,150.49C113,150.91 113,151.31 113,151.7C113,152.05 113,152.39 113,152.72C113,153.02 113,153.31 113,153.59C113,153.85 113,154.11 113,154.36C113,154.6 113,154.84 113,155.07C113,155.3 113,155.53 113,155.76C113,155.99 113,156.22 113,156.44C113,156.66 113,156.88 113,157.1C113,157.31 113,157.52 113,157.71C113,157.89 113,158.06 113,158.22C113,158.37 113,158.52 113,158.65C113,158.77 113,158.87 113,158.98C113,159.08 113,159.17 113,159.26C113,159.34 113,159.41 113,159.49C113,159.56 113,159.64 113,159.71C113,159.78 113,159.86 113,159.93C113,160 113,160.08 113,160.15C113,160.22 113,160.3 113,160.37C113,160.44 113,160.51 113,160.58C113,160.65 113,160.72 113,160.78C113,160.84 113,160.89 113,160.94C113,160.99 113,161.04 113,161.08C113,161.12 113,161.16 113,161.19C113,161.22 113,161.25 113,161.27C113,161.29 113,161.31 113,161.33C113,161.34 113,161.36 113,161.37C113,161.38 113,161.4 113,161.41C113,161.42 113,161.43 113,161.44C113,161.45 113,161.45 113,161.46C113,161.46 113,161.47 113,161.47C113,161.47 113,161.47 113,161.47C113,161.47 113,161.47 113,161.47C113,161.47 113,161.46 113,161.46C113,161.46 113,161.45 113,161.45C113,161.45 113,161.45 113,161.45C113,161.45 113.01,161.45 113.01,161.45C113.01,161.45 113.01,161.46 113.01,161.46C113.01,161.46 113.01,161.47 113.01,161.47C113.01,161.47 113.01,161.48 113.01,161.48C113.01,161.48 113.01,161.49 113.01,161.49Q113.01,161.49 113.01,161.49L113.01,161.5" style="vector-effect: non-scaling-stroke; stroke-width: 2px; stroke: rgb(102, 194, 164); stroke-opacity: 1; fill: rgb(102, 194, 164); fill-opacity: 0.5;"/><path class="meanline" d="M113,123.2650146484375V161.5" style="fill: none; vector-effect: non-scaling-stroke; stroke-width: 2px; stroke-dasharray: 4px, 2px; stroke: rgb(102, 194, 164); stroke-opacity: 1;"/></g><g class="trace violins" style="opacity: 1;"><path class="violin" d="M113,123.25L113,123.12Q113,123.01 113,122.93C113,122.82 113,122.67 113,122.51C113,122.28 113,121.99 113,121.66C113,121.22 113,120.69 113,120.11C113,119.36 113,118.49 113,117.55C113,116.4 113,115.09 113,113.72C113,112.13 113,110.35 113,108.55C113,106.57 113,104.44 113,102.34C113,100.19 113,97.93 113,95.82C113,93.84 113,91.79 113,90.05C113,88.62 113,87.06 113,86.15C113,85.65 113,85 113,85C113,85 113,86.1 113,86.85C113,88.01 113,89.7 113,91.3C113,93.17 113,95.32 113,97.38C113,99.52 113,101.79 113,103.93C113,105.98 113,108.06 113,109.96C113,111.67 113,113.33 113,114.82C113,116.08 113,117.28 113,118.32C113,119.16 113,119.94 113,120.6C113,121.11 113,121.56 113,121.94C113,122.21 113,122.45 113,122.65C113,122.79 113,122.91 113,123C113,123.06 113,123.11 113,123.15C113,123.18 113,123.2 113,123.22C113,123.23 113,123.23 113,123.24C113,123.24 113,123.25 113,123.25C113,123.25 113,123.25 113,123.25C113,123.25 113,123.25 113,123.25C113,123.25 113,123.25 113,123.25C113,123.25 113,123.25 113,123.25C113,123.25 113,123.25 113,123.25C113,123.25 113,123.25 113,123.25C113,123.25 113,123.25 113,123.25C113,123.25 113,123.25 113,123.25C113,123.25 113.01,123.24 113.01,123.24C113.01,123.23 113.01,123.22 113.01,123.21C113.01,123.19 113.01,123.17 113.01,123.14C113.01,123.1 113.01,123.04 113.01,122.98C113.01,122.89 113.01,122.77 113.01,122.63C113.01,122.44 113.01,122.21 113.01,121.96C113.01,121.63 113.01,121.25 113.01,120.84C113.01,120.34 113.01,119.76 113.01,119.16C113.01,118.47 113.01,117.7 113.01,116.93C113.01,116.11 113.01,115.22 113.01,114.38C113.01,113.56 113.01,112.69 113.01,111.94C113.01,111.29 113.01,110.6 113.01,110.14C113.01,109.85 113.01,109.43 113.01,109.43C113.01,109.43 113.01,109.75 113.01,109.99C113.01,110.4 113.01,111.06 113.01,111.67C113.01,112.39 113.01,113.24 113.01,114.05C113.01,114.89 113.01,115.77 113.01,116.6C113.01,117.38 113.01,118.16 113.01,118.87C113.01,119.49 113.01,120.09 113.01,120.62C113.01,121.06 113.01,121.47 113.01,121.82C113.01,122.09 113.01,122.34 113.01,122.54C113.01,122.69 113.01,122.82 113.01,122.93Q113.01,123 113.01,123.12L113.01,123.25" style="vector-effect: non-scaling-stroke; stroke-width: 2px; stroke: rgb(102, 194, 164); stroke-opacity: 1; fill: rgb(102, 194, 164); fill-opacity: 0.5;"/><path class="meanline" d="M113,98.82206726074219V123.25" style="fill: none; vector-effect: non-scaling-stroke; stroke-width: 2px; stroke-dasharray: 4px, 2px; stroke: rgb(102, 194, 164); stroke-opacity: 1;"/></g><g class="trace violins" style="opacity: 1;"><path class="violin" d="M113,85L113,84.98Q113,84.97 113,84.97C113,84.96 113,84.95 113,84.94C113,84.93 113,84.91 113,84.9C113,84.89 113,84.87 113,84.86C113,84.84 113,84.83 113,84.81C113,84.79 113,84.78 113,84.76C113,84.74 113,84.73 113,84.71C113,84.69 113,84.68 113,84.66C113,84.64 113,84.63 113,84.61C113,84.59 113,84.56 113,84.54C113,84.51 113,84.48 113,84.45C113,84.42 113,84.38 113,84.34C113,84.3 113,84.25 113,84.2C113,84.15 113,84.1 113,84.04C113,83.98 113,83.92 113,83.85C113,83.78 113,83.7 113,83.62C113,83.53 113,83.44 113,83.35C113,83.25 113,83.15 113,83.04C113,82.92 113,82.8 113,82.68C113,82.55 113,82.42 113,82.29C113,82.15 113,82.01 113,81.87C113,81.72 113,81.57 113,81.42C113,81.26 113,81.09 113,80.91C113,80.72 113,80.53 113,80.32C113,80.1 113,79.86 113,79.62C113,79.36 113,79.1 113,78.82C113,78.52 113,78.21 113,77.9C113,77.57 113,77.22 113,76.88C113,76.53 113,76.16 113,75.8C113,75.43 113,75.05 113,74.67C113,74.29 113,73.9 113,73.52C113,73.13 113,72.75 113,72.36C113,71.97 113,71.58 113,71.19C113,70.8 113,70.4 113,70.01C113,69.62 113,69.23 113,68.83C113,68.42 113,68.02 113,67.6C113,67.17 113,66.73 113,66.28C113,65.81 113,65.33 113,64.84C113,64.33 113,63.8 113,63.27C113,62.72 113,62.16 113,61.6C113,61.03 113,60.45 113,59.88C113,59.31 113,58.73 113,58.16C113,57.6 113,57.04 113,56.5C113,55.97 113,55.45 113,54.94C113,54.46 113,53.98 113,53.53C113,53.11 113,52.7 113,52.31C113,51.95 113,51.61 113,51.28C113,50.99 113,50.71 113,50.44C113,50.2 113,49.97 113,49.74C113,49.53 113,49.33 113,49.13C113,48.94 113,48.75 113,48.57C113,48.39 113,48.21 113,48.03C113,47.86 113,47.7 113,47.54C113,47.4 113,47.25 113,47.13C113,47.03 113,46.93 113,46.86C113,46.82 113,46.75 113,46.75C113,46.75 113,46.8 113,46.84C113,46.91 113,47.03 113,47.15C113,47.31 113,47.5 113,47.7C113,47.95 113,48.23 113,48.52C113,48.86 113,49.22 113,49.6C113,50.01 113,50.45 113,50.9C113,51.37 113,51.86 113,52.35C113,52.85 113,53.37 113,53.88C113,54.39 113,54.9 113,55.41C113,55.91 113,56.4 113,56.89C113,57.36 113,57.83 113,58.29C113,58.73 113,59.16 113,59.59C113,60.01 113,60.41 113,60.82C113,61.22 113,61.61 113,62.01C113,62.41 113,62.81 113,63.22C113,63.64 113,64.06 113,64.49C113,64.94 113,65.39 113,65.85C113,66.32 113,66.8 113,67.28C113,67.76 113,68.25 113,68.73C113,69.2 113,69.68 113,70.14C113,70.59 113,71.03 113,71.47C113,71.89 113,72.31 113,72.72C113,73.12 113,73.5 113,73.89C113,74.27 113,74.65 113,75.02C113,75.39 113,75.76 113,76.12C113,76.48 113,76.83 113,77.18C113,77.52 113,77.86 113,78.18C113,78.49 113,78.79 113,79.08C113,79.35 113,79.61 113,79.86C113,80.09 113,80.31 113,80.52C113,80.71 113,80.89 113,81.07C113,81.24 113,81.39 113,81.55C113,81.7 113,81.85 113,82C113,82.14 113,82.28 113,82.42C113,82.55 113,82.68 113,82.8C113,82.91 113,83.02 113,83.13C113,83.23 113,83.32 113,83.41C113,83.49 113,83.55 113,83.62C113,83.68 113,83.74 113,83.79C113,83.84 113,83.88 113,83.92C113,83.96 113,84.01 113,84.05C113,84.09 113,84.13 113,84.17C113,84.21 113,84.26 113,84.3C113,84.34 113,84.39 113,84.43C113,84.47 113,84.5 113,84.54C113,84.57 113,84.61 113,84.64C113,84.67 113,84.7 113,84.72C113,84.74 113,84.76 113,84.78C113,84.79 113,84.81 113,84.82C113,84.83 113,84.84 113,84.85C113,84.86 113,84.87 113,84.88C113,84.89 113,84.89 113,84.9C113,84.9 113,84.91 113,84.91C113,84.92 113,84.93 113,84.93C113,84.93 113,84.93 113,84.93C113,84.93 113,84.94 113,84.94C113,84.94 113,84.94 113,84.94C113,84.94 113,84.95 113,84.95C113,84.95 113,84.96 113,84.96C113,84.96 113,84.97 113,84.97C113,84.97 113,84.98 113,84.98C113,84.98 113,84.99 113,84.99Q113,84.99 113,84.99L113,85" style="vector-effect: non-scaling-stroke; stroke-width: 2px; stroke: rgb(102, 194, 164); stroke-opacity: 1; fill: rgb(102, 194, 164); fill-opacity: 0.5;"/><path class="meanline" d="M113,46.75000762939453V85" style="fill: none; vector-effect: non-scaling-stroke; stroke-width: 2px; stroke-dasharray: 4px, 2px; stroke: rgb(102, 194, 164); stroke-opacity: 1;"/></g><g class="trace violins" style="opacity: 1;"><path class="violin" d="M113.01,46.75L113.01,46.74Q113.01,46.74 113.01,46.74C113.01,46.74 113.01,46.73 113.01,46.73C113.01,46.72 113.01,46.72 113.01,46.71C113.01,46.7 113.01,46.69 113.01,46.68C113.01,46.67 113.01,46.66 113.01,46.65C113.01,46.64 113.01,46.62 113.01,46.6C113.01,46.58 113.01,46.55 113.01,46.52C113.01,46.49 113.01,46.46 113.01,46.42C113.01,46.38 113.01,46.34 113.01,46.29C113.01,46.24 113.01,46.18 113.01,46.12C113.01,46.06 113.01,46 113.01,45.93C113.01,45.86 113.01,45.78 113.01,45.7C113.01,45.62 113.01,45.54 113.01,45.45C113.01,45.36 113.01,45.26 113.01,45.17C113.01,45.07 113.01,44.97 113.01,44.87C113.01,44.77 113.01,44.66 113.01,44.56C113.01,44.46 113.01,44.36 113.01,44.26C113.01,44.16 113.01,44.07 113.01,43.97C113.01,43.87 113.01,43.78 113.01,43.68C113.01,43.58 113.01,43.48 113.01,43.37C113.01,43.26 113.01,43.14 113.01,43.02C113.01,42.88 113.01,42.73 113.01,42.58C113.01,42.41 113.01,42.22 113.01,42.03C113.01,41.82 113.01,41.59 113.01,41.36C113.01,41.11 113.01,40.84 113.01,40.56C113.01,40.26 113.01,39.95 113.01,39.63C113.01,39.29 113.01,38.94 113.01,38.59C113.01,38.22 113.01,37.84 113.01,37.46C113.01,37.07 113.01,36.67 113.01,36.28C113.01,35.88 113.01,35.48 113.01,35.08C113.01,34.68 113.01,34.29 113.01,33.89C113.01,33.49 113.01,33.1 113.01,32.7C113.01,32.31 113.01,31.91 113.01,31.52C113.01,31.12 113.01,30.73 113.01,30.33C113.01,29.93 113.01,29.52 113.01,29.12C113.01,28.71 113.01,28.3 113.01,27.89C113.01,27.47 113.01,27.04 113.01,26.61C113.01,26.18 113.01,25.74 113.01,25.3C113.01,24.85 113.01,24.39 113.01,23.93C113.01,23.46 113.01,22.99 113.01,22.52C113.01,22.04 113.01,21.54 113.01,21.05C113.01,20.55 113.01,20.05 113.01,19.55C113.01,19.05 113.01,18.54 113.01,18.04C113.01,17.55 113.01,17.05 113.01,16.57C113.01,16.1 113.01,15.63 113.01,15.18C113.01,14.75 113.01,14.32 113.01,13.92C113.01,13.54 113.01,13.18 113.01,12.83C113.01,12.51 113.01,12.2 113.01,11.9C113.01,11.63 113.01,11.37 113.01,11.12C113.01,10.89 113.01,10.66 113.01,10.44C113.01,10.23 113.01,10.02 113.01,9.82C113.01,9.63 113.01,9.43 113.01,9.25C113.01,9.09 113.01,8.92 113.01,8.78C113.01,8.67 113.01,8.5 113.01,8.5C113.01,8.5 113.01,8.5 113.01,8.5C113.01,8.5 113.01,8.7 113.01,8.83C113.01,9.01 113.01,9.24 113.01,9.47C113.01,9.74 113.01,10.04 113.01,10.34C113.01,10.66 113.01,11 113.01,11.33C113.01,11.66 113.01,12 113.01,12.33C113.01,12.65 113.01,12.97 113.01,13.28C113.01,13.58 113.01,13.86 113.01,14.15C113.01,14.43 113.01,14.72 113.01,15C113.01,15.29 113.01,15.57 113.01,15.86C113.01,16.16 113.01,16.47 113.01,16.79C113.01,17.13 113.01,17.48 113.01,17.84C113.01,18.22 113.01,18.62 113.01,19.03C113.01,19.47 113.01,19.92 113.01,20.39C113.01,20.89 113.01,21.4 113.01,21.93C113.01,22.49 113.01,23.07 113.01,23.65C113.01,24.26 113.01,24.89 113.01,25.51C113.01,26.14 113.01,26.77 113.01,27.4C113.01,28.02 113.01,28.64 113.01,29.25C113.01,29.83 113.01,30.41 113.01,30.97C113.01,31.51 113.01,32.04 113.01,32.55C113.01,33.04 113.01,33.51 113.01,33.98C113.01,34.43 113.01,34.86 113.01,35.29C113.01,35.7 113.01,36.1 113.01,36.49C113.01,36.86 113.01,37.23 113.01,37.59C113.01,37.93 113.01,38.27 113.01,38.59C113.01,38.89 113.01,39.19 113.01,39.47C113.01,39.74 113.01,39.99 113.01,40.24C113.01,40.47 113.01,40.7 113.01,40.92C113.01,41.13 113.01,41.33 113.01,41.52C113.01,41.7 113.01,41.88 113.01,42.05C113.01,42.22 113.01,42.38 113.01,42.54C113.01,42.69 113.01,42.84 113.01,42.99C113.01,43.13 113.01,43.27 113.01,43.41C113.01,43.54 113.01,43.68 113.01,43.81C113.01,43.94 113.01,44.07 113.01,44.2C113.01,44.32 113.01,44.45 113.01,44.57C113.01,44.69 113.01,44.81 113.01,44.93C113.01,45.04 113.01,45.15 113.01,45.26C113.01,45.36 113.01,45.47 113.01,45.57C113.01,45.66 113.01,45.75 113.01,45.84C113.01,45.92 113.01,46 113.01,46.07C113.01,46.13 113.01,46.19 113.01,46.25C113.01,46.3 113.01,46.34 113.01,46.38C113.01,46.42 113.01,46.45 113.01,46.48C113.01,46.5 113.01,46.52 113.01,46.54C113.01,46.56 113.01,46.58 113.01,46.59C113.01,46.6 113.01,46.61 113.01,46.62C113.01,46.63 113.01,46.64 113.01,46.65C113.01,46.66 113.01,46.67 113.01,46.68C113.01,46.69 113.01,46.69 113.01,46.7C113.01,46.7 113.01,46.71 113.01,46.71C113.01,46.72 113.01,46.72 113.01,46.73C113.01,46.73 113.01,46.74 113.01,46.74Q113.01,46.74 113.01,46.74L113.01,46.75" style="vector-effect: non-scaling-stroke; stroke-width: 2px; stroke: rgb(102, 194, 164); stroke-opacity: 1; fill: rgb(102, 194, 164); fill-opacity: 0.5;"/><path class="meanline" d="M113.01,8.500005722045898V46.75" style="fill: none; vector-effect: non-scaling-stroke; stroke-width: 2px; stroke-dasharray: 4px, 2px; stroke: rgb(102, 194, 164); stroke-opacity: 1;"/></g></g></g><g class="overplot"/><path class="xlines-above crisp" d="M0,0" style="fill: none;"/><path class="ylines-above crisp" d="M0,0" style="fill: none;"/><g class="overlines-above"/><g class="xaxislayer-above"><g class="xtick"><text text-anchor="start" x="0" y="203" transform="translate(40,0) rotate(90,0,197)" style="font-family: 'Open Sans', verdana, arial, sans-serif; font-size: 12px; fill: rgb(68, 68, 68); fill-opacity: 1; white-space: pre;">−1</text></g><g class="xtick"><text text-anchor="start" x="0" y="203" transform="translate(68.25,0) rotate(90,0,197)" style="font-family: 'Open Sans', verdana, arial, sans-serif; font-size: 12px; fill: rgb(68, 68, 68); fill-opacity: 1; white-space: pre;">−0.75</text></g><g class="xtick"><text text-anchor="start" x="0" y="203" transform="translate(96.5,0) rotate(90,0,197)" style="font-family: 'Open Sans', verdana, arial, sans-serif; font-size: 12px; fill: rgb(68, 68, 68); fill-opacity: 1; white-space: pre;">−0.5</text></g><g class="xtick"><text text-anchor="start" x="0" y="203" transform="translate(124.75,0) rotate(90,0,197)" style="font-family: 'Open Sans', verdana, arial, sans-serif; font-size: 12px; fill: rgb(68, 68, 68); fill-opacity: 1; white-space: pre;">−0.25</text></g><g class="xtick"><text text-anchor="start" x="0" y="203" transform="translate(153,0) rotate(90,0,197)" style="font-family: 'Open Sans', verdana, arial, sans-serif; font-size: 12px; fill: rgb(68, 68, 68); fill-opacity: 1; white-space: pre;">0</text></g><g class="xtick"><text text-anchor="start" x="0" y="203" transform="translate(181.25,0) rotate(90,0,197)" style="font-family: 'Open Sans', verdana, arial, sans-serif; font-size: 12px; fill: rgb(68, 68, 68); fill-opacity: 1; white-space: pre;">0.25</text></g><g class="xtick"><text text-anchor="start" x="0" y="203" transform="translate(209.5,0) rotate(90,0,197)" style="font-family: 'Open Sans', verdana, arial, sans-serif; font-size: 12px; fill: rgb(68, 68, 68); fill-opacity: 1; white-space: pre;">0.5</text></g><g class="xtick"><text text-anchor="start" x="0" y="203" transform="translate(237.75,0) rotate(90,0,197)" style="font-family: 'Open Sans', verdana, arial, sans-serif; font-size: 12px; fill: rgb(68, 68, 68); fill-opacity: 1; white-space: pre;">0.75</text></g><g class="xtick"><text text-anchor="start" x="0" y="203" transform="translate(266,0) rotate(90,0,197)" style="font-family: 'Open Sans', verdana, arial, sans-serif; font-size: 12px; fill: rgb(68, 68, 68); fill-opacity: 1; white-space: pre;">1</text></g></g><g class="yaxislayer-above"><g class="ytick"><text text-anchor="end" x="39" y="4.199999999999999" transform="translate(0,181.5)" style="font-family: 'Open Sans', verdana, arial, sans-serif; font-size: 12px; fill: rgb(68, 68, 68); fill-opacity: 1; white-space: pre;">Meis</text></g><g class="ytick"><text text-anchor="end" x="39" y="4.199999999999999" transform="translate(0,143.25)" style="font-family: 'Open Sans', verdana, arial, sans-serif; font-size: 12px; fill: rgb(68, 68, 68); fill-opacity: 1; white-space: pre;">Hyum</text></g><g class="ytick"><text text-anchor="end" x="39" y="4.199999999999999" transform="translate(0,105)" style="font-family: 'Open Sans', verdana, arial, sans-serif; font-size: 12px; fill: rgb(68, 68, 68); fill-opacity: 1; white-space: pre;">Seum</text></g><g class="ytick"><text text-anchor="end" x="39" y="4.199999999999999" transform="translate(0,66.75)" style="font-family: 'Open Sans', verdana, arial, sans-serif; font-size: 12px; fill: rgb(68, 68, 68); fill-opacity: 1; white-space: pre;">Raer</text></g></g><g class="overaxes-above"/></g></g><g class="polarlayer"/><g class="ternarylayer"/><g class="geolayer"/><g class="funnelarealayer"/><g class="pielayer"/><g class="treemaplayer"/><g class="sunburstlayer"/><g class="glimages"/><defs id="topdefs-36402e"><g class="clips"/></defs><g class="layer-above"><g class="imagelayer"/><g class="shapelayer"><path data-index="0" fill-rule="evenodd" d="M141.7,181.5L141.7,28.5" clip-path="url('#clip36402exy')" style="opacity: 1; stroke: rgb(0, 0, 0); stroke-opacity: 1; fill: rgb(0, 0, 0); fill-opacity: 0; stroke-dasharray: 9px, 9px; stroke-width: 2px;"/><path data-index="1" fill-rule="evenodd" d="M164.3,181.5L164.3,28.5" clip-path="url('#clip36402exy')" style="opacity: 1; stroke: rgb(0, 0, 0); stroke-opacity: 1; fill: rgb(0, 0, 0); fill-opacity: 0; stroke-dasharray: 9px, 9px; stroke-width: 2px;"/></g></g><g class="infolayer"><g class="g-gtitle"/><g class="g-xtitle" transform="translate(0,0.703125)"><text class="xtitle" x="153" y="242" text-anchor="middle" style="font-family: 'Open Sans', verdana, arial, sans-serif; font-size: 14px; fill: rgb(68, 68, 68); opacity: 1; font-weight: normal; white-space: pre;">Coeficiente de Interacción</text></g><g class="g-ytitle"/></g></svg>