<svg class="main-svg" xmlns="http://www.w3.org/2000/svg" xmlns:xlink="http://www.w3.org/1999/xlink" width="286" height="250" style="" viewBox="0 0 286 250"><rect x="0" y="0" width="286" height="250" style="fill: rgb(255, 255, 255); fill-opacity: 1;"/><defs id="defs-c52d8b"><g class="clips"><clipPath id="clipc52d8bxyplot" class="plotclip"><rect width="226" height="170"/></clipPath><clipPath class="axesclip" id="clipc52d8bx"><rect x="40" y="0" width="226" height="250"/></clipPath><clipPath class="axesclip" id="clipc52d8by"><rect x="0" y="20" width="286" height="170"/></clipPath><clipPath class="axesclip" id="clipc52d8bxy"><rect x="40" y="20" width="226" height="170"/></clipPath></g><g class="gradients"/></defs><g class="bglayer"/><g class="layer-below"><g class="imagelayer"/><g class="shapelayer"/></g><g class="cartesianlayer"><g class="subplot xy"><g class="layer-subplot"><g class="shapelayer"/><g class="imagelayer"/></g><g class="gridlayer"><g class="x"/><g class="y"><path class="ygrid crisp" transform="translate(0,181.5)" d="M40,0h226" style="stroke: rgb(238, 238, 238); stroke-opacity: 1; stroke-width: 1px;"/><path class="ygrid crisp" transform="translate(0,154.75)" d="M40,0h226" style="stroke: rgb(238, 238, 238); stroke-opacity: 1; stroke-width: 1px;"/><path class="ygrid crisp" transform="translate(0,128)" d="M40,0h226" style="stroke: rgb(238, 238, 238); stroke-opacity: 1; stroke-width: 1px;"/><path class="ygrid crisp" transform="translate(0,101.25)" d="M40,0h226" style="stroke: rgb(238, 238, 238); stroke-opacity: 1; stroke-width: 1px;"/><path class="ygrid crisp" transform="translate(0,74.5)" d="M40,0h226" style="stroke: rgb(238, 238, 238); stroke-opacity: 1; stroke-width: 1px;"/></g></g><g class="zerolinelayer"/><path class="xlines-below"/><path class="ylines-below"/><g class="overlines-below"/><g class="xaxislayer-below"/><g class="yaxislayer-below"/><g class="overaxes-below"/><g class="plot" transform="translate(40,20)" clip-path="url('#clipc52d8bxyplot')"><g class="violinlayer mlayer"><g class="trace violins" style="opacity: 1;"><path class="violin" d="M184.26,161.5L184.26,161.5Q184.39,161.49 184.45,161.49C184.51,161.49 184.58,161.49 184.64,161.49C184.7,161.49 184.77,161.48 184.83,161.48C184.89,161.48 184.95,161.47 185.01,161.47C185.07,161.47 185.14,161.47 185.2,161.47C185.26,161.47 185.33,161.46 185.39,161.46C185.45,161.46 185.52,161.46 185.58,161.46C185.64,161.46 185.71,161.47 185.77,161.47C185.83,161.47 185.9,161.47 185.96,161.47C186.02,161.47 186.09,161.47 186.15,161.47C186.21,161.47 186.27,161.47 186.33,161.47C186.39,161.47 186.46,161.46 186.52,161.46C186.58,161.46 186.65,161.46 186.71,161.46C186.77,161.46 186.84,161.46 186.9,161.46C186.96,161.46 187.03,161.45 187.09,161.45C187.15,161.45 187.22,161.45 187.28,161.45C187.34,161.45 187.41,161.44 187.47,161.44C187.53,161.44 187.59,161.44 187.65,161.44C187.71,161.44 187.78,161.43 187.84,161.43C187.9,161.43 187.97,161.43 188.03,161.43C188.09,161.43 188.16,161.44 188.22,161.44C188.28,161.44 188.35,161.45 188.41,161.45C188.47,161.45 188.54,161.46 188.6,161.46C188.66,161.46 188.73,161.47 188.79,161.47C188.85,161.47 188.92,161.47 188.98,161.47C189.04,161.47 189.1,161.47 189.16,161.47C189.22,161.47 189.29,161.47 189.35,161.47C189.41,161.47 189.48,161.46 189.54,161.46C189.6,161.46 189.67,161.46 189.73,161.46C189.79,161.46 189.86,161.45 189.92,161.45C189.98,161.45 190.05,161.44 190.11,161.44C190.17,161.44 190.24,161.44 190.3,161.44C190.36,161.44 190.42,161.43 190.48,161.43C190.54,161.43 190.61,161.42 190.67,161.42C190.73,161.42 190.8,161.42 190.86,161.41C190.92,161.4 190.99,161.39 191.05,161.38C191.11,161.37 191.18,161.36 191.24,161.35C191.3,161.34 191.37,161.33 191.43,161.32C191.49,161.31 191.56,161.29 191.62,161.28C191.68,161.27 191.74,161.26 191.8,161.25C191.86,161.24 191.93,161.24 191.99,161.23C192.05,161.23 192.12,161.22 192.18,161.22C192.24,161.22 192.31,161.22 192.37,161.22C192.43,161.22 192.5,161.22 192.56,161.22C192.62,161.22 192.69,161.22 192.75,161.22C192.81,161.22 192.88,161.21 192.94,161.21C193,161.21 193.06,161.21 193.12,161.21C193.18,161.21 193.25,161.2 193.31,161.19C193.37,161.19 193.44,161.19 193.5,161.18C193.56,161.17 193.63,161.16 193.69,161.15C193.75,161.14 193.82,161.12 193.88,161.11C193.94,161.1 194.01,161.09 194.07,161.07C194.13,161.05 194.2,161.03 194.26,161.01C194.32,160.99 194.38,160.96 194.44,160.94C194.5,160.92 194.57,160.89 194.63,160.87C194.69,160.85 194.76,160.82 194.82,160.8C194.88,160.78 194.95,160.75 195.01,160.73C195.07,160.7 195.14,160.68 195.2,160.65C195.26,160.62 195.33,160.6 195.39,160.57C195.45,160.54 195.52,160.5 195.58,160.47C195.64,160.43 195.71,160.4 195.77,160.36C195.83,160.32 195.89,160.28 195.95,160.24C196.01,160.2 196.08,160.17 196.14,160.13C196.2,160.09 196.27,160.05 196.33,160.01C196.39,159.97 196.46,159.94 196.52,159.9C196.58,159.87 196.65,159.83 196.71,159.8C196.77,159.76 196.84,159.73 196.9,159.69C196.96,159.65 197.03,159.61 197.09,159.57C197.15,159.53 197.21,159.48 197.27,159.43C197.33,159.38 197.4,159.33 197.46,159.27C197.52,159.21 197.59,159.15 197.65,159.09C197.71,159.02 197.78,158.95 197.84,158.88C197.9,158.81 197.97,158.74 198.03,158.66C198.1,158.58 198.16,158.49 198.22,158.4C198.28,158.31 198.35,158.22 198.41,158.12C198.47,158.02 198.53,157.9 198.59,157.79C198.65,157.67 198.72,157.56 198.78,157.43C198.85,157.3 198.91,157.16 198.97,157.01C199.04,156.85 199.1,156.69 199.16,156.52C199.23,156.34 199.29,156.14 199.35,155.94C199.42,155.72 199.48,155.49 199.54,155.26C199.61,155.01 199.67,154.75 199.73,154.49C199.79,154.22 199.85,153.94 199.91,153.66C199.97,153.38 200.04,153.1 200.1,152.83C200.16,152.56 200.23,152.3 200.29,152.04C200.35,151.79 200.41,151.55 200.48,151.31C200.54,151.09 200.61,150.87 200.67,150.66C200.73,150.45 200.8,150.25 200.86,150.04C200.92,149.84 200.99,149.64 201.05,149.43C201.11,149.21 201.17,149 201.23,148.77C201.29,148.52 201.36,148.26 201.42,147.99C201.49,147.69 201.55,147.38 201.61,147.05C201.68,146.69 201.74,146.31 201.8,145.93C201.87,145.53 201.93,145.1 201.99,144.68C202.05,144.25 202.12,143.8 202.18,143.37C202.24,142.94 202.31,142.52 202.37,142.1C202.43,141.7 202.5,141.3 202.56,140.92C202.62,140.56 202.68,140.21 202.74,139.87C202.8,139.54 202.87,139.22 202.93,138.91C202.99,138.61 203.06,138.32 203.12,138.03C203.18,137.75 203.24,137.46 203.31,137.19C203.37,136.93 203.43,136.68 203.5,136.44C203.56,136.22 203.62,135.99 203.69,135.79C203.75,135.61 203.81,135.44 203.88,135.29C203.94,135.17 203.99,135.05 204.06,134.96C204.12,134.89 204.18,134.81 204.25,134.78C204.31,134.75 204.38,134.74 204.44,134.75C204.5,134.76 204.57,134.8 204.63,134.84C204.7,134.89 204.76,134.96 204.82,135.03C204.89,135.11 204.95,135.21 205.01,135.31C205.08,135.42 205.14,135.55 205.2,135.68C205.26,135.82 205.32,135.98 205.38,136.14C205.44,136.31 205.51,136.5 205.57,136.69C205.64,136.89 205.7,137.1 205.76,137.32C205.83,137.55 205.89,137.79 205.95,138.03C206.02,138.29 206.08,138.56 206.14,138.84C206.21,139.13 206.27,139.43 206.33,139.74C206.4,140.07 206.46,140.4 206.52,140.75C206.58,141.11 206.64,141.49 206.7,141.86C206.76,142.24 206.83,142.64 206.89,143.03C206.95,143.43 207.02,143.84 207.08,144.25C207.14,144.66 207.21,145.07 207.27,145.48C207.33,145.89 207.4,146.3 207.46,146.7C207.52,147.1 207.59,147.5 207.65,147.89C207.71,148.28 207.78,148.67 207.84,149.06C207.9,149.44 207.96,149.82 208.02,150.2C208.08,150.57 208.15,150.93 208.21,151.29C208.27,151.64 208.34,151.99 208.4,152.33C208.46,152.66 208.53,152.99 208.59,153.31C208.65,153.62 208.72,153.92 208.78,154.22C208.84,154.5 208.91,154.78 208.97,155.05C209.03,155.31 209.1,155.56 209.16,155.8C209.22,156.04 209.29,156.27 209.35,156.49C209.41,156.7 209.47,156.9 209.53,157.1C209.59,157.29 209.65,157.47 209.72,157.64C209.78,157.8 209.84,157.96 209.91,158.11C209.97,158.25 210.03,158.38 210.1,158.51C210.16,158.63 210.22,158.75 210.29,158.86C210.35,158.96 210.41,159.07 210.48,159.16C210.54,159.25 210.61,159.33 210.67,159.41C210.73,159.49 210.79,159.56 210.85,159.63C210.91,159.7 210.98,159.77 211.04,159.84C211.1,159.91 211.17,159.97 211.23,160.03C211.29,160.09 211.36,160.16 211.42,160.22C211.48,160.28 211.55,160.33 211.61,160.39C211.67,160.44 211.74,160.5 211.8,160.55C211.86,160.6 211.93,160.64 211.99,160.69C212.05,160.74 212.11,160.79 212.17,160.83C212.23,160.87 212.3,160.91 212.36,160.95C212.42,160.99 212.49,161.02 212.55,161.06C212.61,161.09 212.68,161.13 212.74,161.16C212.8,161.19 212.87,161.22 212.93,161.24C212.99,161.26 213.06,161.28 213.12,161.3C213.18,161.31 213.25,161.32 213.31,161.33C213.37,161.34 213.43,161.35 213.49,161.35C213.55,161.36 213.62,161.36 213.68,161.36C213.74,161.36 213.81,161.37 213.87,161.37C213.93,161.37 214,161.38 214.06,161.38C214.12,161.39 214.19,161.39 214.25,161.4C214.31,161.41 214.38,161.41 214.44,161.42C214.5,161.43 214.57,161.43 214.63,161.44C214.69,161.45 214.76,161.45 214.82,161.46C214.88,161.47 214.94,161.48 215,161.48C215.06,161.49 215.13,161.49 215.19,161.49Q215.25,161.49 215.38,161.49L215.38,161.5" style="vector-effect: non-scaling-stroke; stroke-width: 2px; stroke: rgb(102, 194, 164); stroke-opacity: 1; fill: rgb(102, 194, 164); fill-opacity: 0.5;"/><path class="meanline" d="M204.18,134.82789611816406V161.5" style="fill: none; vector-effect: non-scaling-stroke; stroke-width: 2px; stroke-dasharray: 4px, 2px; stroke: rgb(102, 194, 164); stroke-opacity: 1;"/></g><g class="trace violins" style="opacity: 1;"><path class="violin" d="M124.85,134.75L124.85,134.75Q124.9,134.74 124.93,134.74C124.96,134.74 124.99,134.74 125.02,134.74C125.05,134.74 125.08,134.73 125.11,134.73C125.14,134.73 125.17,134.72 125.2,134.72C125.23,134.72 125.25,134.71 125.28,134.71C125.31,134.7 125.34,134.7 125.37,134.69C125.4,134.68 125.43,134.68 125.46,134.67C125.49,134.66 125.51,134.66 125.54,134.65C125.57,134.64 125.6,134.62 125.63,134.6C125.66,134.58 125.69,134.57 125.72,134.55C125.75,134.53 125.78,134.5 125.81,134.47C125.84,134.44 125.86,134.4 125.89,134.37C125.92,134.34 125.95,134.3 125.98,134.27C126.01,134.24 126.04,134.2 126.07,134.17C126.1,134.13 126.13,134.1 126.16,134.06C126.19,134.03 126.21,134 126.24,133.96C126.27,133.92 126.3,133.88 126.33,133.84C126.36,133.8 126.39,133.75 126.42,133.7C126.45,133.65 126.47,133.59 126.5,133.53C126.53,133.47 126.56,133.4 126.59,133.33C126.62,133.25 126.65,133.17 126.68,133.09C126.71,133.01 126.74,132.92 126.77,132.83C126.8,132.74 126.82,132.64 126.85,132.54C126.88,132.44 126.91,132.34 126.94,132.23C126.97,132.11 127,131.99 127.03,131.87C127.06,131.74 127.09,131.6 127.12,131.46C127.15,131.31 127.17,131.15 127.2,130.98C127.23,130.8 127.26,130.62 127.29,130.43C127.32,130.23 127.35,130.02 127.38,129.8C127.41,129.57 127.43,129.34 127.46,129.1C127.49,128.85 127.52,128.6 127.55,128.34C127.58,128.07 127.61,127.8 127.64,127.53C127.67,127.25 127.7,126.97 127.73,126.69C127.76,126.4 127.78,126.11 127.81,125.82C127.84,125.53 127.87,125.23 127.9,124.94C127.93,124.65 127.96,124.35 127.99,124.06C128.02,123.77 128.05,123.48 128.08,123.18C128.11,122.88 128.13,122.58 128.16,122.28C128.19,121.97 128.22,121.65 128.25,121.33C128.28,120.99 128.31,120.64 128.34,120.29C128.37,119.92 128.4,119.54 128.43,119.15C128.46,118.74 128.48,118.32 128.51,117.9C128.54,117.46 128.57,117.01 128.6,116.57C128.63,116.12 128.66,115.67 128.69,115.23C128.72,114.8 128.74,114.36 128.77,113.95C128.8,113.56 128.83,113.17 128.86,112.81C128.89,112.48 128.92,112.16 128.95,111.86C128.98,111.6 129.01,111.34 129.04,111.11C129.07,110.9 129.09,110.71 129.12,110.53C129.15,110.37 129.18,110.22 129.21,110.07C129.24,109.93 129.27,109.79 129.3,109.65C129.33,109.51 129.36,109.38 129.39,109.25C129.42,109.12 129.44,108.98 129.47,108.85C129.5,108.72 129.53,108.6 129.56,108.48C129.59,108.38 129.62,108.27 129.65,108.19C129.68,108.12 129.69,108.05 129.73,108.02C129.76,108 129.79,107.99 129.82,108C129.86,108.01 129.88,108.08 129.91,108.14C129.95,108.22 129.97,108.33 130,108.44C130.03,108.57 130.05,108.71 130.08,108.86C130.11,109.02 130.14,109.19 130.17,109.37C130.2,109.56 130.23,109.76 130.26,109.97C130.29,110.19 130.32,110.41 130.35,110.64C130.38,110.88 130.4,111.13 130.43,111.39C130.46,111.66 130.49,111.95 130.52,112.24C130.55,112.54 130.58,112.84 130.61,113.15C130.64,113.46 130.66,113.78 130.69,114.1C130.72,114.42 130.75,114.75 130.78,115.07C130.81,115.39 130.84,115.72 130.87,116.04C130.9,116.37 130.93,116.69 130.96,117.02C130.99,117.35 131.01,117.67 131.04,118C131.07,118.33 131.1,118.67 131.13,119.01C131.16,119.35 131.19,119.69 131.22,120.03C131.25,120.37 131.28,120.71 131.31,121.04C131.34,121.37 131.36,121.69 131.39,122.01C131.42,122.32 131.45,122.63 131.48,122.93C131.51,123.22 131.54,123.51 131.57,123.79C131.6,124.07 131.63,124.34 131.66,124.61C131.69,124.88 131.71,125.14 131.74,125.4C131.77,125.65 131.8,125.9 131.83,126.15C131.86,126.4 131.89,126.65 131.92,126.89C131.95,127.13 131.97,127.37 132,127.6C132.03,127.83 132.06,128.06 132.09,128.29C132.12,128.52 132.15,128.75 132.18,128.97C132.21,129.19 132.24,129.41 132.27,129.63C132.3,129.84 132.32,130.06 132.35,130.27C132.38,130.48 132.41,130.68 132.44,130.88C132.47,131.07 132.5,131.27 132.53,131.45C132.56,131.62 132.59,131.79 132.62,131.95C132.65,132.1 132.67,132.25 132.7,132.39C132.73,132.51 132.76,132.63 132.79,132.74C132.82,132.84 132.85,132.93 132.88,133.01C132.91,133.08 132.93,133.15 132.96,133.22C132.99,133.28 133.02,133.34 133.05,133.39C133.08,133.44 133.11,133.49 133.14,133.54C133.17,133.59 133.2,133.64 133.23,133.69C133.26,133.74 133.28,133.79 133.31,133.84C133.34,133.89 133.37,133.95 133.4,134C133.43,134.05 133.46,134.09 133.49,134.14C133.52,134.19 133.55,134.24 133.58,134.28C133.61,134.32 133.63,134.36 133.66,134.39C133.69,134.42 133.72,134.45 133.75,134.47C133.78,134.49 133.81,134.51 133.84,134.53C133.87,134.54 133.89,134.55 133.92,134.56C133.95,134.57 133.98,134.57 134.01,134.58C134.04,134.58 134.07,134.59 134.1,134.59C134.13,134.59 134.16,134.6 134.19,134.6C134.22,134.6 134.24,134.6 134.27,134.6C134.3,134.6 134.33,134.61 134.36,134.61C134.39,134.61 134.42,134.62 134.45,134.62C134.48,134.62 134.51,134.62 134.54,134.63C134.57,134.63 134.59,134.64 134.62,134.65C134.65,134.66 134.68,134.66 134.71,134.67C134.74,134.68 134.77,134.69 134.8,134.7C134.83,134.71 134.86,134.71 134.89,134.72C134.92,134.72 134.94,134.73 134.97,134.73Q135,134.73 135.06,134.74L135.06,134.75" style="vector-effect: non-scaling-stroke; stroke-width: 2px; stroke: rgb(102, 194, 164); stroke-opacity: 1; fill: rgb(102, 194, 164); fill-opacity: 0.5;"/><path class="meanline" d="M129.8,107.9962158203125V134.75" style="fill: none; vector-effect: non-scaling-stroke; stroke-width: 2px; stroke-dasharray: 4px, 2px; stroke: rgb(102, 194, 164); stroke-opacity: 1;"/></g><g class="trace violins" style="opacity: 1;"><path class="violin" d="M79.95,108L79.95,108Q80,107.99 80.03,107.99C80.06,107.99 80.08,107.99 80.11,107.99C80.13,107.99 80.16,107.98 80.18,107.98C80.21,107.98 80.23,107.97 80.26,107.97C80.29,107.97 80.31,107.96 80.34,107.96C80.37,107.95 80.39,107.95 80.42,107.94C80.44,107.94 80.47,107.93 80.49,107.93C80.52,107.92 80.54,107.92 80.57,107.91C80.6,107.9 80.62,107.89 80.65,107.88C80.68,107.87 80.71,107.86 80.73,107.85C80.76,107.84 80.78,107.82 80.8,107.8C80.83,107.78 80.85,107.77 80.88,107.75C80.91,107.73 80.93,107.72 80.96,107.7C80.99,107.68 81.01,107.65 81.04,107.63C81.06,107.61 81.09,107.58 81.11,107.56C81.14,107.53 81.16,107.51 81.19,107.48C81.22,107.45 81.24,107.43 81.27,107.4C81.3,107.37 81.33,107.33 81.35,107.3C81.38,107.26 81.4,107.23 81.42,107.19C81.45,107.15 81.47,107.1 81.5,107.06C81.53,107.01 81.56,106.97 81.58,106.92C81.61,106.87 81.63,106.81 81.65,106.75C81.68,106.69 81.7,106.63 81.73,106.57C81.76,106.51 81.78,106.44 81.81,106.38C81.84,106.31 81.87,106.25 81.89,106.18C81.92,106.11 81.94,106.04 81.96,105.96C81.99,105.88 82.01,105.8 82.04,105.71C82.07,105.62 82.09,105.52 82.12,105.42C82.15,105.31 82.18,105.21 82.2,105.09C82.23,104.96 82.25,104.82 82.27,104.68C82.3,104.53 82.32,104.37 82.35,104.21C82.38,104.03 82.4,103.84 82.43,103.65C82.46,103.44 82.49,103.22 82.51,103C82.54,102.76 82.56,102.52 82.58,102.27C82.61,102.01 82.63,101.74 82.66,101.47C82.69,101.19 82.71,100.91 82.74,100.63C82.77,100.35 82.79,100.06 82.82,99.77C82.84,99.48 82.87,99.2 82.89,98.91C82.92,98.62 82.94,98.33 82.97,98.04C83,97.75 83.02,97.45 83.05,97.15C83.08,96.85 83.11,96.54 83.13,96.23C83.16,95.92 83.18,95.6 83.2,95.28C83.23,94.96 83.25,94.64 83.28,94.33C83.31,94.02 83.33,93.71 83.36,93.41C83.39,93.12 83.41,92.84 83.44,92.57C83.46,92.31 83.48,92.07 83.51,91.82C83.53,91.58 83.56,91.35 83.59,91.12C83.62,90.89 83.65,90.67 83.67,90.44C83.7,90.2 83.72,89.96 83.74,89.71C83.77,89.45 83.79,89.18 83.82,88.9C83.85,88.61 83.87,88.3 83.9,88C83.93,87.69 83.95,87.37 83.98,87.05C84,86.74 84.02,86.42 84.05,86.11C84.07,85.81 84.1,85.52 84.13,85.24C84.16,84.97 84.18,84.7 84.21,84.44C84.24,84.19 84.26,83.95 84.29,83.71C84.31,83.48 84.33,83.25 84.36,83.02C84.38,82.8 84.41,82.59 84.44,82.38C84.47,82.18 84.49,81.98 84.52,81.81C84.54,81.66 84.57,81.51 84.6,81.41C84.62,81.34 84.64,81.25 84.67,81.25C84.69,81.25 84.73,81.32 84.75,81.38C84.79,81.48 84.81,81.64 84.83,81.79C84.86,81.97 84.89,82.2 84.91,82.41C84.94,82.64 84.96,82.89 84.98,83.13C85.01,83.38 85.03,83.63 85.06,83.87C85.09,84.1 85.11,84.33 85.14,84.56C85.17,84.78 85.2,85 85.22,85.23C85.25,85.46 85.27,85.68 85.29,85.92C85.32,86.17 85.34,86.43 85.37,86.7C85.4,86.99 85.42,87.29 85.45,87.59C85.48,87.91 85.51,88.25 85.53,88.58C85.56,88.92 85.58,89.27 85.6,89.62C85.63,89.97 85.65,90.33 85.68,90.68C85.71,91.03 85.73,91.37 85.76,91.71C85.78,92.05 85.8,92.39 85.83,92.73C85.85,93.07 85.88,93.4 85.91,93.74C85.94,94.08 85.96,94.42 85.99,94.76C86.02,95.1 86.04,95.45 86.07,95.79C86.09,96.13 86.11,96.47 86.14,96.81C86.16,97.14 86.19,97.47 86.22,97.79C86.25,98.1 86.27,98.42 86.3,98.72C86.33,99.01 86.35,99.31 86.38,99.59C86.4,99.86 86.42,100.12 86.45,100.38C86.47,100.63 86.5,100.87 86.53,101.1C86.56,101.32 86.58,101.53 86.61,101.74C86.64,101.93 86.66,102.12 86.69,102.3C86.71,102.46 86.73,102.62 86.76,102.77C86.78,102.92 86.81,103.06 86.84,103.2C86.87,103.33 86.89,103.46 86.92,103.59C86.95,103.72 86.98,103.84 87,103.97C87.03,104.1 87.05,104.23 87.07,104.36C87.1,104.49 87.12,104.63 87.15,104.76C87.18,104.89 87.2,105.02 87.23,105.15C87.26,105.28 87.28,105.4 87.31,105.52C87.33,105.64 87.35,105.76 87.38,105.87C87.4,105.98 87.43,106.09 87.46,106.19C87.49,106.29 87.51,106.39 87.54,106.48C87.57,106.57 87.59,106.66 87.62,106.74C87.64,106.82 87.66,106.9 87.69,106.97C87.71,107.04 87.74,107.11 87.77,107.18C87.8,107.24 87.82,107.3 87.85,107.36C87.87,107.41 87.89,107.46 87.92,107.51C87.94,107.56 87.97,107.6 88,107.64C88.03,107.68 88.05,107.72 88.08,107.75C88.11,107.78 88.13,107.81 88.16,107.83C88.18,107.85 88.2,107.87 88.23,107.89C88.25,107.91 88.28,107.92 88.31,107.93C88.34,107.94 88.36,107.95 88.39,107.95C88.42,107.95 88.44,107.95 88.47,107.95C88.49,107.95 88.52,107.95 88.54,107.95C88.57,107.95 88.59,107.94 88.62,107.94C88.65,107.94 88.67,107.94 88.7,107.94C88.73,107.94 88.75,107.94 88.78,107.94C88.8,107.94 88.83,107.95 88.85,107.95C88.88,107.95 88.9,107.96 88.93,107.96C88.96,107.96 88.98,107.97 89.01,107.97C89.04,107.97 89.06,107.98 89.09,107.98C89.11,107.98 89.14,107.98 89.16,107.98C89.19,107.98 89.21,107.99 89.24,107.99Q89.27,107.99 89.32,108L89.32,108" style="vector-effect: non-scaling-stroke; stroke-width: 2px; stroke: rgb(102, 194, 164); stroke-opacity: 1; fill: rgb(102, 194, 164); fill-opacity: 0.5;"/><path class="meanline" d="M84.64,81.28318786621094V108" style="fill: none; vector-effect: non-scaling-stroke; stroke-width: 2px; stroke-dasharray: 4px, 2px; stroke: rgb(102, 194, 164); stroke-opacity: 1;"/></g><g class="trace violins" style="opacity: 1;"><path class="violin" d="M83.06,81.25L83.06,81.25Q83.11,81.24 83.14,81.24C83.16,81.24 83.19,81.23 83.21,81.23C83.23,81.23 83.26,81.22 83.28,81.22C83.31,81.22 83.33,81.21 83.36,81.21C83.38,81.21 83.41,81.2 83.43,81.2C83.45,81.19 83.48,81.19 83.5,81.18C83.53,81.17 83.55,81.17 83.58,81.16C83.6,81.15 83.63,81.14 83.65,81.13C83.67,81.12 83.7,81.11 83.72,81.1C83.75,81.09 83.77,81.08 83.8,81.07C83.82,81.06 83.85,81.05 83.87,81.04C83.89,81.03 83.92,81.01 83.94,81C83.97,80.98 84,80.97 84.02,80.95C84.05,80.93 84.07,80.91 84.09,80.88C84.11,80.85 84.14,80.81 84.16,80.78C84.19,80.74 84.22,80.7 84.24,80.66C84.27,80.62 84.29,80.57 84.31,80.52C84.33,80.47 84.36,80.41 84.38,80.35C84.41,80.29 84.44,80.22 84.46,80.15C84.49,80.08 84.51,80.01 84.53,79.94C84.55,79.87 84.58,79.79 84.6,79.71C84.63,79.63 84.66,79.54 84.68,79.45C84.71,79.36 84.73,79.27 84.75,79.18C84.77,79.08 84.8,78.98 84.82,78.87C84.85,78.76 84.88,78.65 84.9,78.53C84.93,78.4 84.95,78.27 84.97,78.13C84.99,77.98 85.02,77.83 85.04,77.67C85.07,77.5 85.1,77.32 85.12,77.14C85.15,76.95 85.17,76.76 85.19,76.56C85.21,76.35 85.24,76.14 85.26,75.93C85.28,75.72 85.3,75.49 85.33,75.28C85.35,75.07 85.38,74.86 85.41,74.65C85.43,74.45 85.46,74.24 85.48,74.04C85.5,73.84 85.52,73.65 85.55,73.46C85.57,73.27 85.61,73.08 85.63,72.89C85.66,72.69 85.68,72.48 85.7,72.27C85.72,72.04 85.75,71.8 85.77,71.55C85.8,71.27 85.83,70.98 85.85,70.68C85.88,70.36 85.9,70.02 85.92,69.67C85.94,69.3 85.97,68.92 85.99,68.54C86.02,68.15 86.04,67.74 86.07,67.34C86.09,66.95 86.12,66.55 86.14,66.16C86.16,65.79 86.18,65.42 86.21,65.07C86.23,64.73 86.26,64.4 86.29,64.08C86.31,63.78 86.34,63.48 86.36,63.19C86.38,62.91 86.4,62.64 86.43,62.36C86.45,62.09 86.49,61.81 86.51,61.54C86.54,61.26 86.56,60.99 86.58,60.71C86.6,60.44 86.62,60.16 86.65,59.89C86.67,59.63 86.7,59.36 86.73,59.11C86.75,58.87 86.78,58.62 86.8,58.39C86.82,58.17 86.84,57.96 86.87,57.75C86.89,57.54 86.92,57.34 86.95,57.14C86.97,56.95 87,56.76 87.02,56.57C87.04,56.39 87.06,56.2 87.09,56.02C87.11,55.85 87.14,55.67 87.17,55.51C87.19,55.36 87.21,55.21 87.24,55.07C87.26,54.95 87.28,54.83 87.31,54.74C87.33,54.67 87.36,54.59 87.39,54.55C87.41,54.52 87.44,54.5 87.46,54.5C87.49,54.51 87.51,54.57 87.53,54.62C87.56,54.7 87.59,54.81 87.61,54.92C87.64,55.06 87.66,55.22 87.68,55.38C87.71,55.57 87.73,55.78 87.75,56C87.78,56.24 87.81,56.49 87.83,56.75C87.86,57.02 87.88,57.31 87.9,57.6C87.92,57.91 87.95,58.22 87.97,58.54C87.99,58.87 88.02,59.21 88.04,59.54C88.07,59.88 88.1,60.22 88.12,60.56C88.15,60.9 88.17,61.25 88.19,61.59C88.21,61.92 88.23,62.25 88.26,62.57C88.28,62.89 88.31,63.2 88.34,63.51C88.36,63.81 88.39,64.11 88.41,64.41C88.43,64.71 88.46,65.01 88.48,65.32C88.51,65.63 88.54,65.95 88.56,66.27C88.59,66.6 88.61,66.94 88.63,67.29C88.65,67.65 88.68,68.02 88.7,68.39C88.73,68.76 88.75,69.14 88.78,69.52C88.8,69.89 88.83,70.27 88.85,70.63C88.87,70.98 88.89,71.33 88.92,71.66C88.94,71.97 88.97,72.28 89,72.57C89.02,72.84 89.05,73.11 89.07,73.36C89.09,73.6 89.11,73.83 89.14,74.05C89.16,74.26 89.19,74.47 89.22,74.68C89.24,74.88 89.27,75.08 89.29,75.28C89.31,75.48 89.34,75.68 89.36,75.88C89.39,76.08 89.42,76.29 89.44,76.49C89.47,76.7 89.49,76.9 89.51,77.11C89.53,77.32 89.55,77.53 89.58,77.73C89.6,77.93 89.63,78.13 89.66,78.32C89.68,78.5 89.71,78.69 89.73,78.86C89.75,79.02 89.77,79.17 89.8,79.32C89.82,79.45 89.85,79.58 89.88,79.7C89.9,79.8 89.92,79.9 89.95,79.99C89.97,80.06 89.99,80.13 90.02,80.19C90.04,80.24 90.07,80.28 90.1,80.32C90.12,80.35 90.15,80.38 90.17,80.41C90.19,80.44 90.22,80.46 90.24,80.49C90.27,80.52 90.3,80.53 90.32,80.56C90.35,80.59 90.37,80.62 90.39,80.65C90.41,80.68 90.44,80.7 90.46,80.73C90.49,80.76 90.51,80.79 90.54,80.82C90.56,80.85 90.59,80.87 90.61,80.9C90.63,80.92 90.66,80.95 90.68,80.97C90.7,80.99 90.73,81.01 90.75,81.03C90.78,81.05 90.8,81.06 90.83,81.08C90.85,81.09 90.88,81.11 90.9,81.12C90.92,81.13 90.95,81.14 90.97,81.15C91,81.16 91.02,81.16 91.05,81.17C91.07,81.18 91.1,81.18 91.12,81.19C91.14,81.19 91.17,81.2 91.19,81.2C91.22,81.2 91.24,81.21 91.27,81.21C91.29,81.21 91.32,81.22 91.34,81.22C91.36,81.22 91.39,81.22 91.41,81.22C91.44,81.22 91.46,81.22 91.49,81.22C91.51,81.22 91.54,81.22 91.56,81.22C91.58,81.22 91.61,81.22 91.63,81.22C91.66,81.22 91.68,81.22 91.71,81.22C91.73,81.22 91.76,81.22 91.78,81.22C91.8,81.22 91.83,81.23 91.85,81.23C91.88,81.23 91.9,81.24 91.93,81.24C91.95,81.24 91.98,81.24 92,81.24Q92.02,81.24 92.07,81.25L92.07,81.25" style="vector-effect: non-scaling-stroke; stroke-width: 2px; stroke: rgb(102, 194, 164); stroke-opacity: 1; fill: rgb(102, 194, 164); fill-opacity: 0.5;"/><path class="meanline" d="M87.32,54.70525360107422V81.25" style="fill: none; vector-effect: non-scaling-stroke; stroke-width: 2px; stroke-dasharray: 4px, 2px; stroke: rgb(102, 194, 164); stroke-opacity: 1;"/></g><g class="trace violins" style="opacity: 1;"><path class="violin" d="M-17.65,54.5L-17.65,54.46Q-15.58,54.43 -14.54,54.41C-13.51,54.39 -12.47,54.36 -11.44,54.32C-10.4,54.28 -9.37,54.23 -8.33,54.16C-7.29,54.09 -6.25,54.01 -5.22,53.91C-4.18,53.81 -3.15,53.69 -2.12,53.55C-1.08,53.41 -0.05,53.24 0.99,53.07C2.03,52.89 3.07,52.7 4.1,52.5C5.14,52.3 6.17,52.08 7.2,51.87C8.24,51.65 9.27,51.43 10.31,51.21C11.35,50.99 12.38,50.77 13.42,50.55C14.45,50.33 15.49,50.12 16.52,49.91C17.56,49.7 18.59,49.49 19.63,49.27C20.67,49.05 21.7,48.83 22.74,48.6C23.77,48.37 24.81,48.13 25.84,47.89C26.88,47.64 27.91,47.39 28.95,47.13C29.99,46.87 31.02,46.61 32.06,46.35C33.09,46.09 34.13,45.82 35.16,45.56C36.2,45.3 37.23,45.05 38.27,44.8C39.31,44.55 40.34,44.3 41.38,44.05C42.41,43.8 43.45,43.56 44.48,43.32C45.52,43.07 46.55,42.83 47.59,42.58C48.63,42.33 49.66,42.07 50.7,41.81C51.73,41.55 52.77,41.29 53.8,41.03C54.84,40.77 55.87,40.51 56.91,40.25C57.95,39.99 58.98,39.73 60.02,39.46C61.05,39.2 62.09,38.93 63.12,38.66C64.16,38.39 65.19,38.12 66.23,37.83C67.27,37.54 68.31,37.25 69.34,36.94C70.38,36.63 71.41,36.31 72.44,35.99C73.48,35.67 74.51,35.34 75.55,35.02C76.59,34.7 77.62,34.37 78.66,34.06C79.69,33.75 80.72,33.46 81.76,33.18C82.79,32.91 83.83,32.65 84.87,32.41C85.9,32.18 86.94,31.97 87.98,31.77C89.01,31.58 90.05,31.41 91.08,31.24C92.12,31.07 93.15,30.93 94.19,30.77C95.23,30.62 96.26,30.47 97.3,30.31C98.33,30.15 99.37,29.98 100.4,29.81C101.44,29.64 102.47,29.45 103.51,29.27C104.55,29.09 105.58,28.89 106.62,28.71C107.65,28.54 108.68,28.36 109.72,28.22C110.75,28.08 111.79,27.96 112.83,27.88C113.87,27.8 114.9,27.76 115.94,27.75C116.97,27.74 118.01,27.78 119.04,27.84C120.08,27.9 121.11,28 122.15,28.12C123.19,28.24 124.23,28.39 125.26,28.55C126.3,28.71 127.33,28.89 128.36,29.09C129.4,29.29 130.44,29.5 131.47,29.73C132.51,29.96 133.54,30.2 134.57,30.45C135.61,30.7 136.64,30.97 137.68,31.25C138.72,31.53 139.76,31.82 140.79,32.12C141.83,32.43 142.86,32.75 143.89,33.08C144.93,33.41 145.96,33.75 147,34.09C148.04,34.43 149.07,34.78 150.11,35.13C151.14,35.47 152.18,35.82 153.21,36.16C154.25,36.5 155.28,36.84 156.32,37.16C157.36,37.48 158.39,37.79 159.43,38.09C160.46,38.38 161.49,38.66 162.53,38.93C163.56,39.2 164.6,39.45 165.64,39.69C166.68,39.93 167.71,40.16 168.75,40.39C169.78,40.62 170.82,40.83 171.85,41.05C172.89,41.27 173.92,41.49 174.96,41.71C176,41.93 177.03,42.16 178.07,42.39C179.1,42.62 180.14,42.86 181.17,43.11C182.21,43.36 183.24,43.61 184.28,43.87C185.32,44.13 186.35,44.4 187.39,44.67C188.42,44.94 189.46,45.21 190.49,45.48C191.53,45.75 192.56,46.02 193.6,46.28C194.64,46.54 195.67,46.81 196.71,47.06C197.74,47.31 198.78,47.56 199.81,47.8C200.85,48.04 201.88,48.28 202.92,48.52C203.96,48.75 204.99,48.98 206.03,49.21C207.06,49.44 208.1,49.67 209.13,49.9C210.17,50.13 211.2,50.36 212.24,50.59C213.28,50.82 214.31,51.04 215.35,51.27C216.38,51.49 217.41,51.72 218.45,51.94C219.48,52.15 220.52,52.36 221.56,52.56C222.6,52.75 223.63,52.94 224.67,53.11C225.7,53.28 226.73,53.44 227.77,53.57C228.8,53.7 229.84,53.81 230.88,53.91C231.92,54.01 232.95,54.09 233.99,54.16C235.02,54.23 236.06,54.27 237.09,54.31C238.13,54.35 239.16,54.38 240.2,54.41Q241.24,54.43 243.31,54.46L243.31,54.5" style="vector-effect: non-scaling-stroke; stroke-width: 2px; stroke: rgb(102, 194, 164); stroke-opacity: 1; fill: rgb(102, 194, 164); fill-opacity: 0.5;"/><path class="meanline" d="M112.94,27.871784210205078V54.5" style="fill: none; vector-effect: non-scaling-stroke; stroke-width: 2px; stroke-dasharray: 4px, 2px; stroke: rgb(102, 194, 164); stroke-opacity: 1;"/></g></g></g><g class="overplot"/><path class="xlines-above crisp" d="M0,0" style="fill: none;"/><path class="ylines-above crisp" d="M0,0" style="fill: none;"/><g class="overlines-above"/><g class="xaxislayer-above"><g class="xtick"><text text-anchor="start" x="0" y="203" transform="translate(40,0) rotate(90,0,197)" style="font-family: 'Open Sans', verdana, arial, sans-serif; font-size: 12px; fill: rgb(68, 68, 68); fill-opacity: 1; white-space: pre;">−1</text></g><g class="xtick"><text text-anchor="start" x="0" y="203" transform="translate(68.25,0) rotate(90,0,197)" style="font-family: 'Open Sans', verdana, arial, sans-serif; font-size: 12px; fill: rgb(68, 68, 68); fill-opacity: 1; white-space: pre;">−0.75</text></g><g class="xtick"><text text-anchor="start" x="0" y="203" transform="translate(96.5,0) rotate(90,0,197)" style="font-family: 'Open Sans', verdana, arial, sans-serif; font-size: 12px; fill: rgb(68, 68, 68); fill-opacity: 1; white-space: pre;">−0.5</text></g><g class="xtick"><text text-anchor="start" x="0" y="203" transform="translate(124.75,0) rotate(90,0,197)" style="font-family: 'Open Sans', verdana, arial, sans-serif; font-size: 12px; fill: rgb(68, 68, 68); fill-opacity: 1; white-space: pre;">−0.25</text></g><g class="xtick"><text text-anchor="start" x="0" y="203" transform="translate(153,0) rotate(90,0,197)" style="font-family: 'Open Sans', verdana, arial, sans-serif; font-size: 12px; fill: rgb(68, 68, 68); fill-opacity: 1; white-space: pre;">0</text></g><g class="xtick"><text text-anchor="start" x="0" y="203" transform="translate(181.25,0) rotate(90,0,197)" style="font-family: 'Open Sans', verdana, arial, sans-serif; font-size: 12px; fill: rgb(68, 68, 68); fill-opacity: 1; white-space: pre;">0.25</text></g><g class="xtick"><text text-anchor="start" x="0" y="203" transform="translate(209.5,0) rotate(90,0,197)" style="font-family: 'Open Sans', verdana, arial, sans-serif; font-size: 12px; fill: rgb(68, 68, 68); fill-opacity: 1; white-space: pre;">0.5</text></g><g class="xtick"><text text-anchor="start" x="0" y="203" transform="translate(237.75,0) rotate(90,0,197)" style="font-family: 'Open Sans', verdana, arial, sans-serif; font-size: 12px; fill: rgb(68, 68, 68); fill-opacity: 1; white-space: pre;">0.75</text></g><g class="xtick"><text text-anchor="start" x="0" y="203" transform="translate(266,0) rotate(90,0,197)" style="font-family: 'Open Sans', verdana, arial, sans-serif; font-size: 12px; fill: rgb(68, 68, 68); fill-opacity: 1; white-space: pre;">1</text></g></g><g class="yaxislayer-above"><g class="ytick"><text text-anchor="end" x="39" y="4.199999999999999" transform="translate(0,181.5)" style="font-family: 'Open Sans', verdana, arial, sans-serif; font-size: 12px; fill: rgb(68, 68, 68); fill-opacity: 1; white-space: pre;">Meis</text></g><g class="ytick"><text text-anchor="end" x="39" y="4.199999999999999" transform="translate(0,154.75)" style="font-family: 'Open Sans', verdana, arial, sans-serif; font-size: 12px; fill: rgb(68, 68, 68); fill-opacity: 1; white-space: pre;">Hyum</text></g><g class="ytick"><text text-anchor="end" x="39" y="4.199999999999999" transform="translate(0,128)" style="font-family: 'Open Sans', verdana, arial, sans-serif; font-size: 12px; fill: rgb(68, 68, 68); fill-opacity: 1; white-space: pre;">Seum</text></g><g class="ytick"><text text-anchor="end" x="39" y="4.199999999999999" transform="translate(0,101.25)" style="font-family: 'Open Sans', verdana, arial, sans-serif; font-size: 12px; fill: rgb(68, 68, 68); fill-opacity: 1; white-space: pre;">Teas</text></g><g class="ytick"><text text-anchor="end" x="39" y="4.199999999999999" transform="translate(0,74.5)" style="font-family: 'Open Sans', verdana, arial, sans-serif; font-size: 12px; fill: rgb(68, 68, 68); fill-opacity: 1; white-space: pre;">Raer</text></g></g><g class="overaxes-above"/></g></g><g class="polarlayer"/><g class="ternarylayer"/><g class="geolayer"/><g class="funnelarealayer"/><g class="pielayer"/><g class="treemaplayer"/><g class="sunburstlayer"/><g class="glimages"/><defs id="topdefs-c52d8b"><g class="clips"/></defs><g class="layer-above"><g class="imagelayer"/><g class="shapelayer"><path data-index="0" fill-rule="evenodd" d="M141.7,181.5L141.7,21" clip-path="url('#clipc52d8bxy')" style="opacity: 1; stroke: rgb(0, 0, 0); stroke-opacity: 1; fill: rgb(0, 0, 0); fill-opacity: 0; stroke-dasharray: 9px, 9px; stroke-width: 2px;"/><path data-index="1" fill-rule="evenodd" d="M164.3,181.5L164.3,21" clip-path="url('#clipc52d8bxy')" style="opacity: 1; stroke: rgb(0, 0, 0); stroke-opacity: 1; fill: rgb(0, 0, 0); fill-opacity: 0; stroke-dasharray: 9px, 9px; stroke-width: 2px;"/></g></g><g class="infolayer"><g class="g-gtitle"><text class="gtitle" x="143" y="10" text-anchor="middle" dy="0em" style="font-family: Calibri; font-size: 14px; fill: rgb(68, 68, 68); opacity: 1; font-weight: normal; white-space: pre;">CIR_19</text></g><g class="g-xtitle" transform="translate(0,0.703125)"><text class="xtitle" x="153" y="242" text-anchor="middle" style="font-family: 'Open Sans', verdana, arial, sans-serif; font-size: 14px; fill: rgb(68, 68, 68); opacity: 1; font-weight: normal; white-space: pre;">Coeficiente de Interacción</text></g><g class="g-ytitle"/></g></svg>