<svg class="main-svg" xmlns="http://www.w3.org/2000/svg" xmlns:xlink="http://www.w3.org/1999/xlink" width="286" height="250" style="" viewBox="0 0 286 250"><rect x="0" y="0" width="286" height="250" style="fill: rgb(255, 255, 255); fill-opacity: 1;"/><defs id="defs-5cd9e1"><g class="clips"><clipPath id="clip5cd9e1xyplot" class="plotclip"><rect width="226" height="170"/></clipPath><clipPath class="axesclip" id="clip5cd9e1x"><rect x="40" y="0" width="226" height="250"/></clipPath><clipPath class="axesclip" id="clip5cd9e1y"><rect x="0" y="20" width="286" height="170"/></clipPath><clipPath class="axesclip" id="clip5cd9e1xy"><rect x="40" y="20" width="226" height="170"/></clipPath></g><g class="gradients"/></defs><g class="bglayer"/><g class="layer-below"><g class="imagelayer"/><g class="shapelayer"/></g><g class="cartesianlayer"><g class="subplot xy"><g class="layer-subplot"><g class="shapelayer"/><g class="imagelayer"/></g><g class="gridlayer"><g class="x"/><g class="y"><path class="ygrid crisp" transform="translate(0,181.5)" d="M40,0h226" style="stroke: rgb(238, 238, 238); stroke-opacity: 1; stroke-width: 1px;"/><path class="ygrid crisp" transform="translate(0,130.5)" d="M40,0h226" style="stroke: rgb(238, 238, 238); stroke-opacity: 1; stroke-width: 1px;"/><path class="ygrid crisp" transform="translate(0,79.5)" d="M40,0h226" style="stroke: rgb(238, 238, 238); stroke-opacity: 1; stroke-width: 1px;"/></g></g><g class="zerolinelayer"/><path class="xlines-below"/><path class="ylines-below"/><g class="overlines-below"/><g class="xaxislayer-below"/><g class="yaxislayer-below"/><g class="overaxes-below"/><g class="plot" transform="translate(40,20)" clip-path="url('#clip5cd9e1xyplot')"><g class="violinlayer mlayer"><g class="trace violins" style="opacity: 1;"><path class="violin" d="M184.26,161.5L184.26,161.49Q184.39,161.48 184.45,161.48C184.51,161.48 184.58,161.47 184.64,161.47C184.7,161.47 184.77,161.46 184.83,161.46C184.89,161.46 184.95,161.45 185.01,161.45C185.07,161.45 185.14,161.44 185.2,161.44C185.26,161.44 185.33,161.43 185.39,161.43C185.45,161.43 185.52,161.43 185.58,161.43C185.64,161.43 185.71,161.43 185.77,161.43C185.83,161.43 185.9,161.44 185.96,161.44C186.02,161.44 186.09,161.44 186.15,161.44C186.21,161.44 186.27,161.43 186.33,161.43C186.39,161.43 186.46,161.43 186.52,161.43C186.58,161.43 186.65,161.42 186.71,161.42C186.77,161.42 186.84,161.41 186.9,161.41C186.96,161.41 187.03,161.41 187.09,161.41C187.15,161.41 187.22,161.4 187.28,161.4C187.34,161.4 187.41,161.39 187.47,161.39C187.53,161.39 187.59,161.38 187.65,161.38C187.71,161.38 187.78,161.37 187.84,161.37C187.9,161.37 187.97,161.37 188.03,161.37C188.09,161.37 188.16,161.38 188.22,161.38C188.28,161.39 188.35,161.39 188.41,161.4C188.47,161.41 188.54,161.41 188.6,161.42C188.66,161.43 188.73,161.43 188.79,161.44C188.85,161.44 188.92,161.45 188.98,161.45C189.04,161.45 189.1,161.45 189.16,161.45C189.22,161.45 189.29,161.45 189.35,161.45C189.41,161.45 189.48,161.44 189.54,161.43C189.6,161.43 189.67,161.42 189.73,161.42C189.79,161.41 189.86,161.41 189.92,161.4C189.98,161.4 190.05,161.39 190.11,161.39C190.17,161.39 190.24,161.38 190.3,161.38C190.36,161.38 190.42,161.37 190.48,161.37C190.54,161.36 190.61,161.36 190.67,161.35C190.73,161.34 190.8,161.33 190.86,161.32C190.92,161.31 190.99,161.3 191.05,161.28C191.11,161.26 191.18,161.24 191.24,161.22C191.3,161.2 191.37,161.17 191.43,161.15C191.49,161.13 191.56,161.1 191.62,161.08C191.68,161.06 191.74,161.04 191.8,161.03C191.86,161.01 191.93,161 191.99,160.99C192.05,160.98 192.12,160.98 192.18,160.97C192.24,160.97 192.31,160.96 192.37,160.96C192.43,160.96 192.5,160.96 192.56,160.96C192.62,160.96 192.69,160.96 192.75,160.96C192.81,160.96 192.88,160.95 192.94,160.95C193,160.95 193.06,160.94 193.12,160.94C193.18,160.93 193.25,160.93 193.31,160.92C193.37,160.91 193.44,160.89 193.5,160.88C193.56,160.86 193.63,160.85 193.69,160.83C193.75,160.81 193.82,160.79 193.88,160.76C193.94,160.73 194.01,160.7 194.07,160.67C194.13,160.64 194.2,160.6 194.26,160.56C194.32,160.52 194.38,160.48 194.44,160.44C194.5,160.4 194.57,160.35 194.63,160.3C194.69,160.26 194.76,160.21 194.82,160.17C194.88,160.13 194.95,160.09 195.01,160.04C195.07,159.99 195.14,159.94 195.2,159.89C195.26,159.84 195.33,159.78 195.39,159.72C195.45,159.66 195.52,159.6 195.58,159.53C195.64,159.46 195.71,159.39 195.77,159.32C195.83,159.25 195.89,159.17 195.95,159.1C196.01,159.03 196.08,158.95 196.14,158.88C196.2,158.81 196.27,158.73 196.33,158.66C196.39,158.59 196.46,158.53 196.52,158.46C196.58,158.39 196.65,158.33 196.71,158.26C196.77,158.19 196.84,158.13 196.9,158.06C196.96,157.99 197.03,157.91 197.09,157.83C197.15,157.75 197.21,157.65 197.27,157.56C197.33,157.46 197.4,157.36 197.46,157.25C197.52,157.14 197.59,157.02 197.65,156.9C197.71,156.77 197.78,156.64 197.84,156.51C197.9,156.37 197.97,156.23 198.03,156.08C198.09,155.93 198.16,155.77 198.22,155.6C198.29,155.42 198.35,155.24 198.41,155.05C198.47,154.85 198.53,154.64 198.59,154.43C198.65,154.21 198.72,153.98 198.78,153.74C198.85,153.48 198.91,153.22 198.97,152.94C199.04,152.64 199.1,152.33 199.16,152.01C199.23,151.66 199.29,151.29 199.35,150.91C199.42,150.5 199.48,150.06 199.54,149.61C199.61,149.13 199.67,148.63 199.73,148.13C199.79,147.61 199.85,147.08 199.91,146.55C199.97,146.02 200.04,145.49 200.1,144.97C200.16,144.46 200.23,143.95 200.29,143.46C200.35,142.99 200.42,142.53 200.48,142.08C200.54,141.65 200.61,141.24 200.67,140.83C200.73,140.43 200.8,140.04 200.86,139.65C200.92,139.26 200.99,138.89 201.05,138.49C201.11,138.08 201.17,137.66 201.23,137.22C201.29,136.75 201.36,136.26 201.42,135.74C201.49,135.17 201.55,134.56 201.61,133.94C201.68,133.26 201.74,132.55 201.8,131.82C201.87,131.05 201.93,130.23 201.99,129.43C202.05,128.61 202.12,127.76 202.18,126.94C202.24,126.13 202.31,125.3 202.37,124.51C202.43,123.75 202.5,123 202.56,122.27C202.62,121.58 202.68,120.91 202.74,120.26C202.8,119.64 202.87,119.04 202.93,118.44C202.99,117.87 203.06,117.3 203.12,116.75C203.18,116.21 203.25,115.68 203.31,115.16C203.37,114.67 203.43,114.18 203.5,113.72C203.56,113.29 203.62,112.87 203.69,112.49C203.75,112.15 203.81,111.82 203.88,111.53C203.94,111.29 203.99,111.06 204.06,110.89C204.12,110.76 204.17,110.62 204.25,110.56C204.31,110.51 204.38,110.49 204.44,110.5C204.51,110.51 204.57,110.6 204.63,110.67C204.7,110.76 204.76,110.9 204.82,111.04C204.89,111.2 204.95,111.39 205.01,111.58C205.08,111.8 205.14,112.03 205.2,112.28C205.27,112.56 205.32,112.85 205.38,113.16C205.44,113.49 205.51,113.84 205.57,114.2C205.64,114.59 205.7,114.99 205.76,115.4C205.83,115.84 205.89,116.29 205.95,116.76C206.02,117.25 206.08,117.76 206.14,118.29C206.21,118.85 206.27,119.43 206.33,120.02C206.4,120.64 206.46,121.28 206.52,121.94C206.58,122.63 206.64,123.34 206.7,124.05C206.76,124.79 206.83,125.54 206.89,126.3C206.95,127.07 207.02,127.85 207.08,128.62C207.14,129.4 207.21,130.17 207.27,130.95C207.33,131.72 207.4,132.5 207.46,133.27C207.52,134.03 207.59,134.79 207.65,135.55C207.71,136.3 207.78,137.04 207.84,137.78C207.9,138.51 207.96,139.23 208.02,139.95C208.08,140.65 208.15,141.35 208.21,142.04C208.27,142.71 208.34,143.38 208.4,144.03C208.46,144.66 208.53,145.28 208.59,145.89C208.65,146.48 208.72,147.06 208.78,147.62C208.84,148.16 208.91,148.69 208.97,149.2C209.03,149.69 209.09,150.17 209.16,150.64C209.22,151.08 209.29,151.52 209.35,151.94C209.41,152.34 209.47,152.73 209.53,153.1C209.59,153.45 209.65,153.8 209.72,154.13C209.78,154.44 209.84,154.74 209.91,155.03C209.97,155.3 210.03,155.56 210.1,155.81C210.16,156.04 210.22,156.26 210.29,156.47C210.35,156.67 210.41,156.85 210.48,157.03C210.54,157.2 210.61,157.35 210.67,157.51C210.73,157.66 210.79,157.8 210.85,157.94C210.91,158.07 210.98,158.2 211.04,158.33C211.1,158.46 211.17,158.58 211.23,158.7C211.29,158.82 211.36,158.94 211.42,159.05C211.48,159.16 211.55,159.27 211.61,159.38C211.67,159.48 211.74,159.58 211.8,159.68C211.86,159.78 211.93,159.87 211.99,159.96C212.05,160.05 212.11,160.13 212.17,160.21C212.23,160.29 212.3,160.37 212.36,160.45C212.42,160.52 212.49,160.59 212.55,160.66C212.61,160.73 212.67,160.79 212.74,160.85C212.8,160.9 212.87,160.96 212.93,161C212.99,161.04 213.06,161.08 213.12,161.11C213.18,161.14 213.25,161.16 213.31,161.18C213.37,161.2 213.43,161.2 213.49,161.21C213.55,161.22 213.62,161.22 213.68,161.23C213.74,161.24 213.81,161.24 213.87,161.25C213.93,161.26 214,161.26 214.06,161.27C214.12,161.28 214.19,161.29 214.25,161.3C214.31,161.31 214.38,161.33 214.44,161.34C214.5,161.36 214.57,161.38 214.63,161.39C214.69,161.4 214.76,161.41 214.82,161.42C214.88,161.43 214.94,161.44 215,161.45C215.06,161.46 215.13,161.46 215.19,161.47Q215.25,161.48 215.38,161.49L215.38,161.5" style="vector-effect: non-scaling-stroke; stroke-width: 2px; stroke: rgb(102, 194, 164); stroke-opacity: 1; fill: rgb(102, 194, 164); fill-opacity: 0.5;"/><path class="meanline" d="M204.18,110.63973236083984V161.5" style="fill: none; vector-effect: non-scaling-stroke; stroke-width: 2px; stroke-dasharray: 4px, 2px; stroke: rgb(102, 194, 164); stroke-opacity: 1;"/></g><g class="trace violins" style="opacity: 1;"><path class="violin" d="M124.85,110.5L124.85,110.49Q124.9,110.48 124.93,110.48C124.96,110.48 124.99,110.47 125.02,110.47C125.05,110.47 125.08,110.46 125.11,110.46C125.14,110.45 125.17,110.45 125.2,110.44C125.23,110.43 125.25,110.43 125.28,110.42C125.31,110.41 125.34,110.4 125.37,110.39C125.4,110.38 125.43,110.37 125.46,110.35C125.49,110.34 125.51,110.32 125.54,110.3C125.57,110.28 125.6,110.25 125.63,110.22C125.66,110.19 125.69,110.15 125.72,110.11C125.75,110.06 125.78,110.01 125.81,109.96C125.84,109.9 125.86,109.84 125.89,109.78C125.92,109.72 125.95,109.65 125.98,109.59C126.01,109.52 126.04,109.46 126.07,109.39C126.1,109.32 126.13,109.26 126.16,109.19C126.19,109.12 126.21,109.06 126.24,108.99C126.27,108.92 126.3,108.85 126.33,108.77C126.36,108.69 126.39,108.6 126.42,108.5C126.45,108.4 126.47,108.28 126.5,108.17C126.53,108.05 126.56,107.91 126.59,107.78C126.62,107.64 126.65,107.49 126.68,107.34C126.71,107.18 126.74,107.01 126.77,106.84C126.8,106.66 126.82,106.48 126.85,106.29C126.88,106.09 126.91,105.9 126.94,105.69C126.97,105.47 127,105.25 127.03,105.02C127.06,104.77 127.09,104.5 127.12,104.23C127.15,103.94 127.17,103.63 127.2,103.32C127.23,102.98 127.26,102.62 127.29,102.26C127.32,101.87 127.35,101.47 127.38,101.06C127.41,100.63 127.43,100.18 127.46,99.73C127.49,99.26 127.52,98.77 127.55,98.28C127.58,97.77 127.61,97.26 127.64,96.74C127.67,96.21 127.7,95.67 127.73,95.13C127.76,94.58 127.78,94.02 127.81,93.47C127.84,92.91 127.87,92.35 127.9,91.79C127.93,91.23 127.96,90.68 127.99,90.12C128.02,89.56 128.05,89 128.08,88.44C128.11,87.87 128.13,87.3 128.16,86.72C128.19,86.12 128.22,85.53 128.25,84.91C128.28,84.27 128.31,83.61 128.34,82.94C128.37,82.23 128.4,81.5 128.43,80.76C128.46,79.98 128.48,79.19 128.51,78.38C128.54,77.55 128.57,76.7 128.6,75.85C128.63,75 128.66,74.13 128.69,73.28C128.72,72.46 128.74,71.63 128.77,70.84C128.8,70.09 128.83,69.35 128.86,68.66C128.89,68.03 128.92,67.42 128.95,66.85C128.98,66.35 129.01,65.87 129.04,65.43C129.07,65.04 129.09,64.68 129.12,64.33C129.15,64.02 129.18,63.73 129.21,63.44C129.24,63.17 129.27,62.91 129.3,62.65C129.33,62.39 129.36,62.14 129.39,61.88C129.42,61.63 129.44,61.37 129.47,61.12C129.5,60.88 129.53,60.63 129.56,60.41C129.59,60.21 129.62,60.02 129.65,59.86C129.68,59.74 129.69,59.59 129.73,59.54C129.75,59.51 129.79,59.49 129.82,59.5C129.86,59.52 129.88,59.66 129.91,59.77C129.95,59.92 129.97,60.13 130,60.33C130.03,60.57 130.05,60.85 130.08,61.13C130.11,61.44 130.14,61.78 130.17,62.12C130.2,62.48 130.23,62.86 130.26,63.25C130.29,63.66 130.32,64.09 130.35,64.53C130.38,65 130.4,65.48 130.43,65.97C130.46,66.49 130.49,67.03 130.52,67.58C130.55,68.15 130.58,68.73 130.61,69.32C130.64,69.92 130.66,70.53 130.69,71.14C130.72,71.75 130.75,72.37 130.78,72.99C130.81,73.6 130.84,74.22 130.87,74.83C130.9,75.45 130.93,76.07 130.96,76.69C130.99,77.31 131.01,77.94 131.04,78.57C131.07,79.21 131.1,79.86 131.13,80.5C131.16,81.15 131.19,81.8 131.22,82.44C131.25,83.08 131.28,83.73 131.31,84.36C131.34,84.98 131.36,85.6 131.39,86.21C131.42,86.8 131.45,87.39 131.48,87.96C131.51,88.52 131.54,89.07 131.57,89.61C131.6,90.14 131.63,90.66 131.66,91.17C131.69,91.67 131.71,92.18 131.74,92.67C131.77,93.15 131.8,93.63 131.83,94.11C131.86,94.58 131.89,95.05 131.92,95.51C131.95,95.97 131.97,96.42 132,96.87C132.03,97.31 132.06,97.75 132.09,98.19C132.12,98.62 132.15,99.05 132.18,99.48C132.21,99.9 132.24,100.32 132.27,100.73C132.3,101.14 132.32,101.55 132.35,101.95C132.38,102.34 132.41,102.74 132.44,103.12C132.47,103.49 132.5,103.85 132.53,104.2C132.56,104.53 132.59,104.86 132.62,105.17C132.65,105.46 132.67,105.74 132.7,106C132.73,106.24 132.76,106.46 132.79,106.67C132.82,106.85 132.85,107.03 132.88,107.19C132.91,107.33 132.93,107.46 132.96,107.59C132.99,107.7 133.02,107.81 133.05,107.91C133.08,108.01 133.11,108.1 133.14,108.2C133.17,108.29 133.2,108.39 133.23,108.48C133.26,108.58 133.28,108.67 133.31,108.77C133.34,108.87 133.37,108.96 133.4,109.06C133.43,109.16 133.46,109.26 133.49,109.35C133.52,109.44 133.55,109.52 133.58,109.6C133.61,109.67 133.63,109.75 133.66,109.81C133.69,109.87 133.72,109.91 133.75,109.96C133.78,110 133.81,110.04 133.84,110.07C133.87,110.1 133.89,110.12 133.92,110.14C133.95,110.16 133.98,110.17 134.01,110.18C134.04,110.19 134.07,110.19 134.1,110.2C134.13,110.2 134.16,110.21 134.19,110.21C134.22,110.21 134.24,110.22 134.27,110.22C134.3,110.22 134.33,110.23 134.36,110.23C134.39,110.23 134.42,110.23 134.45,110.24C134.48,110.25 134.51,110.26 134.54,110.27C134.57,110.28 134.59,110.3 134.62,110.31C134.65,110.33 134.68,110.34 134.71,110.36C134.74,110.37 134.77,110.39 134.8,110.4C134.83,110.41 134.86,110.43 134.89,110.44C134.92,110.45 134.94,110.45 134.97,110.46Q135,110.47 135.06,110.48L135.06,110.5" style="vector-effect: non-scaling-stroke; stroke-width: 2px; stroke: rgb(102, 194, 164); stroke-opacity: 1; fill: rgb(102, 194, 164); fill-opacity: 0.5;"/><path class="meanline" d="M129.8,59.49753189086914V110.5" style="fill: none; vector-effect: non-scaling-stroke; stroke-width: 2px; stroke-dasharray: 4px, 2px; stroke: rgb(102, 194, 164); stroke-opacity: 1;"/></g><g class="trace violins" style="opacity: 1;"><path class="violin" d="M79.95,59.5L79.95,59.49Q80,59.48 80.03,59.48C80.06,59.48 80.08,59.47 80.11,59.47C80.13,59.47 80.16,59.46 80.18,59.46C80.21,59.45 80.23,59.45 80.26,59.44C80.29,59.43 80.31,59.43 80.34,59.42C80.37,59.41 80.39,59.4 80.42,59.39C80.44,59.38 80.47,59.38 80.49,59.37C80.52,59.36 80.54,59.34 80.57,59.33C80.6,59.31 80.62,59.3 80.65,59.28C80.68,59.26 80.71,59.24 80.73,59.21C80.76,59.19 80.78,59.16 80.8,59.13C80.83,59.1 80.85,59.06 80.88,59.03C80.91,58.99 80.93,58.96 80.96,58.92C80.99,58.88 81.02,58.84 81.04,58.8C81.07,58.76 81.09,58.71 81.11,58.66C81.14,58.61 81.16,58.56 81.19,58.51C81.22,58.46 81.24,58.41 81.27,58.35C81.3,58.29 81.33,58.23 81.35,58.17C81.38,58.1 81.4,58.03 81.42,57.96C81.45,57.88 81.47,57.8 81.5,57.72C81.53,57.63 81.56,57.54 81.58,57.44C81.61,57.34 81.63,57.23 81.65,57.12C81.68,57.01 81.7,56.9 81.73,56.78C81.76,56.66 81.78,56.54 81.81,56.41C81.84,56.28 81.87,56.15 81.89,56.02C81.92,55.88 81.94,55.74 81.96,55.6C81.99,55.45 82.01,55.29 82.04,55.13C82.07,54.96 82.09,54.78 82.12,54.59C82.15,54.38 82.18,54.17 82.2,53.94C82.23,53.7 82.25,53.44 82.27,53.18C82.3,52.89 82.32,52.59 82.35,52.27C82.38,51.93 82.4,51.57 82.43,51.2C82.46,50.8 82.49,50.39 82.51,49.96C82.54,49.51 82.56,49.04 82.58,48.57C82.61,48.08 82.63,47.57 82.66,47.06C82.69,46.53 82.71,46 82.74,45.46C82.77,44.92 82.8,44.37 82.82,43.82C82.85,43.27 82.87,42.72 82.89,42.17C82.92,41.62 82.94,41.07 82.97,40.51C83,39.95 83.02,39.39 83.05,38.82C83.08,38.24 83.11,37.66 83.13,37.07C83.16,36.47 83.18,35.86 83.2,35.26C83.23,34.65 83.25,34.04 83.28,33.44C83.31,32.85 83.33,32.26 83.36,31.69C83.39,31.14 83.41,30.61 83.44,30.09C83.46,29.6 83.48,29.12 83.51,28.65C83.53,28.2 83.56,27.76 83.59,27.32C83.62,26.89 83.65,26.47 83.67,26.03C83.7,25.58 83.72,25.12 83.74,24.64C83.77,24.14 83.79,23.62 83.82,23.09C83.85,22.53 83.87,21.95 83.9,21.37C83.93,20.77 83.95,20.16 83.98,19.56C84,18.96 84.02,18.36 84.05,17.77C84.07,17.21 84.1,16.65 84.13,16.11C84.16,15.59 84.18,15.09 84.21,14.59C84.24,14.12 84.26,13.66 84.29,13.2C84.31,12.75 84.33,12.31 84.36,11.88C84.38,11.46 84.41,11.05 84.44,10.65C84.47,10.28 84.49,9.91 84.52,9.58C84.54,9.3 84.57,9.01 84.6,8.81C84.62,8.68 84.64,8.5 84.67,8.5C84.69,8.5 84.73,8.64 84.75,8.75C84.79,8.94 84.81,9.24 84.83,9.53C84.86,9.88 84.89,10.3 84.91,10.71C84.94,11.15 84.96,11.63 84.98,12.09C85.01,12.56 85.03,13.03 85.06,13.49C85.09,13.94 85.11,14.38 85.14,14.82C85.17,15.25 85.2,15.66 85.22,16.09C85.25,16.53 85.27,16.96 85.29,17.41C85.32,17.89 85.34,18.38 85.37,18.89C85.4,19.44 85.42,20.01 85.45,20.59C85.48,21.2 85.51,21.83 85.53,22.47C85.56,23.12 85.58,23.8 85.6,24.46C85.63,25.13 85.65,25.8 85.68,26.47C85.71,27.13 85.73,27.79 85.76,28.45C85.78,29.1 85.81,29.74 85.83,30.38C85.86,31.02 85.88,31.67 85.91,32.31C85.94,32.96 85.96,33.61 85.99,34.26C86.02,34.91 86.04,35.57 86.07,36.22C86.09,36.87 86.11,37.52 86.14,38.16C86.16,38.79 86.19,39.41 86.22,40.03C86.25,40.63 86.27,41.23 86.3,41.81C86.33,42.37 86.35,42.92 86.38,43.46C86.4,43.98 86.42,44.49 86.45,44.98C86.47,45.45 86.5,45.91 86.53,46.35C86.56,46.77 86.58,47.18 86.61,47.57C86.64,47.94 86.66,48.29 86.69,48.63C86.71,48.94 86.73,49.25 86.76,49.54C86.78,49.82 86.81,50.08 86.84,50.34C86.87,50.59 86.89,50.84 86.92,51.09C86.95,51.33 86.98,51.57 87,51.82C87.03,52.07 87.05,52.32 87.07,52.57C87.1,52.82 87.12,53.07 87.15,53.32C87.18,53.57 87.2,53.82 87.23,54.07C87.26,54.31 87.28,54.55 87.31,54.78C87.33,55 87.35,55.23 87.38,55.44C87.4,55.64 87.43,55.84 87.46,56.04C87.49,56.23 87.51,56.42 87.54,56.6C87.57,56.77 87.59,56.93 87.62,57.09C87.64,57.24 87.66,57.4 87.69,57.54C87.71,57.67 87.74,57.8 87.77,57.93C87.8,58.05 87.82,58.16 87.85,58.27C87.87,58.37 87.89,58.47 87.92,58.56C87.94,58.65 87.97,58.73 88,58.81C88.03,58.88 88.05,58.96 88.08,59.02C88.11,59.08 88.13,59.13 88.16,59.18C88.18,59.22 88.2,59.26 88.23,59.29C88.25,59.32 88.28,59.34 88.31,59.36C88.34,59.38 88.36,59.39 88.39,59.4C88.42,59.41 88.44,59.41 88.47,59.41C88.49,59.41 88.52,59.4 88.54,59.4C88.57,59.4 88.59,59.39 88.62,59.39C88.65,59.39 88.67,59.39 88.7,59.39C88.73,59.39 88.75,59.39 88.78,59.39C88.8,59.39 88.83,59.4 88.85,59.4C88.88,59.41 88.9,59.41 88.93,59.42C88.96,59.42 88.98,59.43 89.01,59.43C89.04,59.44 89.06,59.44 89.09,59.45C89.11,59.46 89.14,59.47 89.16,59.47C89.19,59.48 89.21,59.48 89.24,59.48Q89.27,59.48 89.32,59.49L89.32,59.5" style="vector-effect: non-scaling-stroke; stroke-width: 2px; stroke: rgb(102, 194, 164); stroke-opacity: 1; fill: rgb(102, 194, 164); fill-opacity: 0.5;"/><path class="meanline" d="M84.64,8.56093978881836V59.5" style="fill: none; vector-effect: non-scaling-stroke; stroke-width: 2px; stroke-dasharray: 4px, 2px; stroke: rgb(102, 194, 164); stroke-opacity: 1;"/></g></g></g><g class="overplot"/><path class="xlines-above crisp" d="M0,0" style="fill: none;"/><path class="ylines-above crisp" d="M0,0" style="fill: none;"/><g class="overlines-above"/><g class="xaxislayer-above"><g class="xtick"><text text-anchor="start" x="0" y="203" transform="translate(40,0) rotate(90,0,197)" style="font-family: 'Open Sans', verdana, arial, sans-serif; font-size: 12px; fill: rgb(68, 68, 68); fill-opacity: 1; white-space: pre;">−1</text></g><g class="xtick"><text text-anchor="start" x="0" y="203" transform="translate(68.25,0) rotate(90,0,197)" style="font-family: 'Open Sans', verdana, arial, sans-serif; font-size: 12px; fill: rgb(68, 68, 68); fill-opacity: 1; white-space: pre;">−0.75</text></g><g class="xtick"><text text-anchor="start" x="0" y="203" transform="translate(96.5,0) rotate(90,0,197)" style="font-family: 'Open Sans', verdana, arial, sans-serif; font-size: 12px; fill: rgb(68, 68, 68); fill-opacity: 1; white-space: pre;">−0.5</text></g><g class="xtick"><text text-anchor="start" x="0" y="203" transform="translate(124.75,0) rotate(90,0,197)" style="font-family: 'Open Sans', verdana, arial, sans-serif; font-size: 12px; fill: rgb(68, 68, 68); fill-opacity: 1; white-space: pre;">−0.25</text></g><g class="xtick"><text text-anchor="start" x="0" y="203" transform="translate(153,0) rotate(90,0,197)" style="font-family: 'Open Sans', verdana, arial, sans-serif; font-size: 12px; fill: rgb(68, 68, 68); fill-opacity: 1; white-space: pre;">0</text></g><g class="xtick"><text text-anchor="start" x="0" y="203" transform="translate(181.25,0) rotate(90,0,197)" style="font-family: 'Open Sans', verdana, arial, sans-serif; font-size: 12px; fill: rgb(68, 68, 68); fill-opacity: 1; white-space: pre;">0.25</text></g><g class="xtick"><text text-anchor="start" x="0" y="203" transform="translate(209.5,0) rotate(90,0,197)" style="font-family: 'Open Sans', verdana, arial, sans-serif; font-size: 12px; fill: rgb(68, 68, 68); fill-opacity: 1; white-space: pre;">0.5</text></g><g class="xtick"><text text-anchor="start" x="0" y="203" transform="translate(237.75,0) rotate(90,0,197)" style="font-family: 'Open Sans', verdana, arial, sans-serif; font-size: 12px; fill: rgb(68, 68, 68); fill-opacity: 1; white-space: pre;">0.75</text></g><g class="xtick"><text text-anchor="start" x="0" y="203" transform="translate(266,0) rotate(90,0,197)" style="font-family: 'Open Sans', verdana, arial, sans-serif; font-size: 12px; fill: rgb(68, 68, 68); fill-opacity: 1; white-space: pre;">1</text></g></g><g class="yaxislayer-above"><g class="ytick"><text text-anchor="end" x="39" y="4.199999999999999" transform="translate(0,181.5)" style="font-family: 'Open Sans', verdana, arial, sans-serif; font-size: 12px; fill: rgb(68, 68, 68); fill-opacity: 1; white-space: pre;">Meis</text></g><g class="ytick"><text text-anchor="end" x="39" y="4.199999999999999" transform="translate(0,130.5)" style="font-family: 'Open Sans', verdana, arial, sans-serif; font-size: 12px; fill: rgb(68, 68, 68); fill-opacity: 1; white-space: pre;">Hyum</text></g><g class="ytick"><text text-anchor="end" x="39" y="4.199999999999999" transform="translate(0,79.5)" style="font-family: 'Open Sans', verdana, arial, sans-serif; font-size: 12px; fill: rgb(68, 68, 68); fill-opacity: 1; white-space: pre;">Seum</text></g></g><g class="overaxes-above"/></g></g><g class="polarlayer"/><g class="ternarylayer"/><g class="geolayer"/><g class="funnelarealayer"/><g class="pielayer"/><g class="treemaplayer"/><g class="sunburstlayer"/><g class="glimages"/><defs id="topdefs-5cd9e1"><g class="clips"/></defs><g class="layer-above"><g class="imagelayer"/><g class="shapelayer"><path data-index="0" fill-rule="evenodd" d="M141.7,181.5L141.7,28.5" clip-path="url('#clip5cd9e1xy')" style="opacity: 1; stroke: rgb(0, 0, 0); stroke-opacity: 1; fill: rgb(0, 0, 0); fill-opacity: 0; stroke-dasharray: 9px, 9px; stroke-width: 2px;"/><path data-index="1" fill-rule="evenodd" d="M164.3,181.5L164.3,28.5" clip-path="url('#clip5cd9e1xy')" style="opacity: 1; stroke: rgb(0, 0, 0); stroke-opacity: 1; fill: rgb(0, 0, 0); fill-opacity: 0; stroke-dasharray: 9px, 9px; stroke-width: 2px;"/></g></g><g class="infolayer"><g class="g-gtitle"/><g class="g-xtitle" transform="translate(0,0.703125)"><text class="xtitle" x="153" y="242" text-anchor="middle" style="font-family: 'Open Sans', verdana, arial, sans-serif; font-size: 14px; fill: rgb(68, 68, 68); opacity: 1; font-weight: normal; white-space: pre;">Coeficiente de Interacción</text></g><g class="g-ytitle"/></g></svg>