<svg class="main-svg" xmlns="http://www.w3.org/2000/svg" xmlns:xlink="http://www.w3.org/1999/xlink" width="266" height="250" style="" viewBox="0 0 266 250"><rect x="0" y="0" width="266" height="250" style="fill: rgb(255, 255, 255); fill-opacity: 1;"/><defs id="defs-408aa4"><g class="clips"><clipPath id="clip408aa4xyplot" class="plotclip"><rect width="226" height="170"/></clipPath><clipPath class="axesclip" id="clip408aa4x"><rect x="20" y="0" width="226" height="250"/></clipPath><clipPath class="axesclip" id="clip408aa4y"><rect x="0" y="20" width="266" height="170"/></clipPath><clipPath class="axesclip" id="clip408aa4xy"><rect x="20" y="20" width="226" height="170"/></clipPath></g><g class="gradients"/></defs><g class="bglayer"/><g class="layer-below"><g class="imagelayer"/><g class="shapelayer"/></g><g class="cartesianlayer"><g class="subplot xy"><g class="layer-subplot"><g class="shapelayer"/><g class="imagelayer"/></g><g class="gridlayer"><g class="x"/><g class="y"><path class="ygrid crisp" transform="translate(0,181.5)" d="M20,0h226" style="stroke: rgb(238, 238, 238); stroke-opacity: 1; stroke-width: 1px;"/><path class="ygrid crisp" transform="translate(0,150.9)" d="M20,0h226" style="stroke: rgb(238, 238, 238); stroke-opacity: 1; stroke-width: 1px;"/><path class="ygrid crisp" transform="translate(0,120.3)" d="M20,0h226" style="stroke: rgb(238, 238, 238); stroke-opacity: 1; stroke-width: 1px;"/><path class="ygrid crisp" transform="translate(0,89.7)" d="M20,0h226" style="stroke: rgb(238, 238, 238); stroke-opacity: 1; stroke-width: 1px;"/><path class="ygrid crisp" transform="translate(0,59.1)" d="M20,0h226" style="stroke: rgb(238, 238, 238); stroke-opacity: 1; stroke-width: 1px;"/></g></g><g class="zerolinelayer"/><path class="xlines-below"/><path class="ylines-below"/><g class="overlines-below"/><g class="xaxislayer-below"/><g class="yaxislayer-below"/><g class="overaxes-below"/><g class="plot" transform="translate(20,20)" clip-path="url('#clip408aa4xyplot')"><g class="violinlayer mlayer"><g class="trace violins" style="opacity: 1;"><path class="violin" d="M119.3,161.5L119.3,161.49Q119.33,161.49 119.34,161.49C119.35,161.49 119.36,161.48 119.37,161.48C119.38,161.48 119.4,161.47 119.41,161.47C119.42,161.47 119.44,161.47 119.45,161.46C119.46,161.46 119.47,161.45 119.48,161.44C119.49,161.43 119.51,161.42 119.52,161.41C119.53,161.4 119.54,161.39 119.55,161.38C119.56,161.36 119.58,161.34 119.59,161.32C119.6,161.3 119.61,161.27 119.62,161.24C119.63,161.21 119.65,161.17 119.66,161.13C119.67,161.08 119.68,161.02 119.69,160.97C119.7,160.91 119.72,160.85 119.73,160.79C119.74,160.72 119.75,160.64 119.76,160.57C119.77,160.49 119.79,160.41 119.8,160.33C119.81,160.24 119.82,160.15 119.83,160.05C119.84,159.95 119.86,159.85 119.87,159.74C119.88,159.63 119.89,159.51 119.9,159.39C119.91,159.26 119.93,159.13 119.94,159C119.95,158.86 119.96,158.72 119.97,158.57C119.98,158.42 120,158.26 120.01,158.1C120.02,157.93 120.03,157.76 120.04,157.59C120.05,157.41 120.07,157.22 120.08,157.03C120.09,156.82 120.1,156.61 120.11,156.39C120.12,156.15 120.14,155.91 120.15,155.65C120.16,155.37 120.17,155.08 120.18,154.78C120.19,154.46 120.21,154.13 120.22,153.79C120.23,153.43 120.24,153.05 120.25,152.67C120.26,152.27 120.28,151.87 120.29,151.46C120.3,151.04 120.31,150.62 120.32,150.19C120.33,149.76 120.35,149.32 120.36,148.89C120.37,148.46 120.38,148.04 120.39,147.61C120.4,147.19 120.42,146.76 120.43,146.34C120.44,145.92 120.45,145.5 120.46,145.08C120.47,144.65 120.49,144.22 120.5,143.79C120.51,143.35 120.52,142.9 120.53,142.45C120.54,142 120.56,141.54 120.57,141.08C120.58,140.63 120.59,140.17 120.6,139.73C120.61,139.31 120.63,138.89 120.64,138.49C120.65,138.12 120.66,137.75 120.67,137.41C120.68,137.09 120.7,136.79 120.71,136.5C120.72,136.23 120.73,135.98 120.74,135.72C120.75,135.47 120.77,135.23 120.78,134.98C120.79,134.73 120.8,134.49 120.81,134.24C120.82,133.98 120.84,133.72 120.85,133.46C120.86,133.2 120.87,132.93 120.88,132.68C120.89,132.44 120.91,132.19 120.92,131.97C120.93,131.77 120.95,131.57 120.96,131.4C120.97,131.27 120.97,131.13 120.99,131.04C121,130.98 121.02,130.9 121.03,130.9C121.04,130.9 121.05,130.95 121.06,130.98C121.08,131.04 121.09,131.13 121.1,131.22C121.11,131.33 121.12,131.45 121.13,131.57C121.14,131.7 121.16,131.83 121.17,131.97C121.18,132.11 121.19,132.26 121.2,132.4C121.21,132.54 121.23,132.68 121.24,132.83C121.25,132.98 121.26,133.13 121.27,133.28C121.28,133.44 121.3,133.6 121.31,133.76C121.32,133.93 121.33,134.1 121.34,134.27C121.35,134.45 121.37,134.63 121.38,134.82C121.39,135.02 121.4,135.22 121.41,135.43C121.42,135.65 121.44,135.87 121.45,136.1C121.46,136.34 121.47,136.6 121.48,136.85C121.49,137.11 121.51,137.38 121.52,137.65C121.53,137.94 121.54,138.24 121.55,138.54C121.56,138.86 121.58,139.18 121.59,139.51C121.6,139.86 121.61,140.21 121.62,140.58C121.63,140.96 121.65,141.36 121.66,141.76C121.67,142.17 121.68,142.6 121.69,143.02C121.7,143.45 121.72,143.89 121.73,144.33C121.74,144.77 121.75,145.21 121.76,145.64C121.77,146.07 121.79,146.5 121.8,146.92C121.81,147.33 121.82,147.73 121.83,148.12C121.84,148.5 121.86,148.87 121.87,149.24C121.88,149.59 121.89,149.94 121.9,150.28C121.91,150.61 121.93,150.94 121.94,151.27C121.95,151.59 121.96,151.91 121.97,152.23C121.98,152.55 122,152.86 122.01,153.17C122.02,153.48 122.03,153.79 122.04,154.09C122.05,154.38 122.07,154.67 122.08,154.96C122.09,155.24 122.1,155.51 122.11,155.78C122.12,156.03 122.14,156.27 122.15,156.51C122.16,156.74 122.17,156.96 122.18,157.17C122.19,157.37 122.21,157.57 122.22,157.77C122.23,157.96 122.24,158.14 122.25,158.32C122.26,158.5 122.28,158.67 122.29,158.84C122.3,159.01 122.31,159.17 122.32,159.33C122.33,159.48 122.35,159.62 122.36,159.75C122.37,159.87 122.38,160 122.39,160.11C122.4,160.21 122.42,160.3 122.43,160.38C122.44,160.45 122.46,160.51 122.47,160.57C122.48,160.61 122.49,160.66 122.5,160.69C122.51,160.72 122.53,160.74 122.54,160.76C122.55,160.77 122.56,160.78 122.57,160.79C122.58,160.8 122.6,160.8 122.61,160.8C122.62,160.8 122.63,160.8 122.64,160.8C122.65,160.8 122.67,160.81 122.68,160.82C122.69,160.83 122.7,160.85 122.71,160.86C122.72,160.88 122.74,160.9 122.75,160.92C122.76,160.94 122.77,160.97 122.78,161C122.79,161.03 122.81,161.06 122.82,161.09C122.83,161.12 122.84,161.15 122.85,161.18C122.86,161.21 122.88,161.23 122.89,161.25C122.9,161.27 122.91,161.29 122.92,161.31C122.93,161.32 122.95,161.33 122.96,161.34C122.97,161.35 122.98,161.36 122.99,161.36C123,161.37 123.02,161.37 123.03,161.37C123.04,161.37 123.05,161.37 123.06,161.37C123.07,161.37 123.09,161.38 123.1,161.38C123.11,161.38 123.12,161.39 123.13,161.39C123.14,161.39 123.16,161.39 123.17,161.4C123.18,161.4 123.19,161.41 123.2,161.42C123.21,161.43 123.23,161.43 123.24,161.44C123.25,161.45 123.26,161.45 123.27,161.46C123.28,161.47 123.3,161.47 123.31,161.48C123.32,161.48 123.33,161.49 123.34,161.49Q123.35,161.49 123.38,161.49L123.38,161.5" style="vector-effect: non-scaling-stroke; stroke-width: 2px; stroke: rgb(102, 194, 164); stroke-opacity: 1; fill: rgb(102, 194, 164); fill-opacity: 0.5;"/><path class="meanline" d="M121.12,131.4501190185547V161.5" style="fill: none; vector-effect: non-scaling-stroke; stroke-width: 2px; stroke-dasharray: 4px, 2px; stroke: rgb(102, 194, 164); stroke-opacity: 1;"/></g><g class="trace violins" style="opacity: 1;"><path class="violin" d="M17.69,130.9L17.69,130.88Q17.76,130.88 17.8,130.87C17.84,130.86 17.87,130.85 17.91,130.84C17.95,130.83 17.98,130.82 18.02,130.8C18.06,130.78 18.1,130.76 18.14,130.74C18.18,130.72 18.21,130.69 18.25,130.66C18.29,130.63 18.32,130.59 18.36,130.55C18.4,130.51 18.44,130.47 18.47,130.42C18.51,130.37 18.54,130.3 18.58,130.24C18.62,130.17 18.65,130.09 18.69,130.01C18.73,129.92 18.76,129.82 18.8,129.72C18.84,129.61 18.88,129.49 18.92,129.37C18.96,129.24 18.99,129.1 19.03,128.96C19.07,128.81 19.1,128.66 19.14,128.5C19.18,128.33 19.21,128.15 19.25,127.97C19.29,127.78 19.32,127.57 19.36,127.37C19.4,127.16 19.43,126.93 19.47,126.71C19.51,126.48 19.54,126.24 19.58,126.01C19.62,125.77 19.66,125.54 19.7,125.3C19.74,125.06 19.77,124.82 19.81,124.58C19.85,124.34 19.88,124.09 19.92,123.84C19.96,123.58 19.99,123.32 20.03,123.05C20.07,122.76 20.1,122.46 20.14,122.15C20.18,121.81 20.21,121.46 20.25,121.1C20.29,120.72 20.33,120.32 20.37,119.91C20.41,119.48 20.44,119.04 20.48,118.6C20.52,118.14 20.55,117.66 20.59,117.19C20.63,116.71 20.66,116.22 20.7,115.73C20.74,115.23 20.77,114.72 20.81,114.21C20.85,113.7 20.88,113.18 20.92,112.66C20.96,112.14 20.99,111.62 21.03,111.1C21.07,110.58 21.11,110.06 21.15,109.55C21.19,109.05 21.22,108.55 21.26,108.06C21.3,107.58 21.33,107.11 21.37,106.65C21.41,106.2 21.44,105.76 21.48,105.32C21.52,104.9 21.55,104.48 21.59,104.07C21.63,103.68 21.66,103.29 21.7,102.92C21.74,102.57 21.77,102.22 21.81,101.9C21.85,101.61 21.89,101.33 21.93,101.09C21.96,100.89 21.99,100.69 22.04,100.55C22.07,100.45 22.1,100.32 22.15,100.3C22.18,100.29 22.23,100.31 22.26,100.34C22.31,100.39 22.34,100.5 22.37,100.59C22.41,100.7 22.44,100.85 22.48,100.98C22.52,101.12 22.55,101.28 22.59,101.43C22.63,101.58 22.67,101.74 22.71,101.89C22.75,102.05 22.78,102.21 22.82,102.36C22.86,102.51 22.89,102.66 22.93,102.81C22.97,102.95 23,103.09 23.04,103.23C23.08,103.36 23.11,103.48 23.15,103.6C23.19,103.71 23.22,103.81 23.26,103.91C23.3,104.01 23.34,104.1 23.38,104.21C23.42,104.32 23.46,104.44 23.49,104.57C23.53,104.72 23.57,104.88 23.6,105.05C23.64,105.25 23.68,105.48 23.71,105.72C23.75,105.99 23.78,106.28 23.82,106.58C23.86,106.9 23.89,107.24 23.93,107.59C23.97,107.95 24,108.33 24.04,108.71C24.08,109.1 24.12,109.49 24.16,109.88C24.2,110.27 24.23,110.67 24.27,111.06C24.31,111.45 24.34,111.84 24.38,112.24C24.42,112.64 24.45,113.04 24.49,113.44C24.53,113.84 24.56,114.23 24.6,114.63C24.64,115.03 24.67,115.43 24.71,115.83C24.75,116.23 24.78,116.62 24.82,117.01C24.86,117.4 24.9,117.79 24.94,118.17C24.98,118.54 25.01,118.91 25.05,119.28C25.09,119.64 25.12,120 25.16,120.35C25.2,120.69 25.23,121.02 25.27,121.35C25.31,121.67 25.34,121.98 25.38,122.28C25.42,122.57 25.45,122.87 25.49,123.15C25.53,123.42 25.57,123.68 25.61,123.93C25.65,124.17 25.68,124.4 25.72,124.62C25.76,124.82 25.79,125.02 25.83,125.2C25.87,125.37 25.9,125.54 25.94,125.69C25.98,125.83 26.01,125.96 26.05,126.09C26.09,126.21 26.12,126.31 26.16,126.42C26.2,126.53 26.23,126.63 26.27,126.73C26.31,126.84 26.35,126.94 26.39,127.05C26.43,127.16 26.46,127.27 26.5,127.39C26.54,127.51 26.57,127.63 26.61,127.75C26.65,127.87 26.68,127.99 26.72,128.11C26.76,128.23 26.79,128.34 26.83,128.45C26.87,128.55 26.9,128.65 26.94,128.74C26.98,128.82 27.01,128.9 27.05,128.97C27.09,129.04 27.13,129.09 27.17,129.15C27.21,129.2 27.24,129.25 27.28,129.3C27.32,129.35 27.35,129.4 27.39,129.45C27.43,129.5 27.46,129.55 27.5,129.6C27.54,129.65 27.57,129.7 27.61,129.75C27.65,129.8 27.68,129.86 27.72,129.91C27.76,129.96 27.8,130.01 27.84,130.06C27.88,130.11 27.91,130.15 27.95,130.19C27.99,130.23 28.02,130.27 28.06,130.3C28.1,130.33 28.13,130.35 28.17,130.38C28.21,130.41 28.24,130.44 28.28,130.46C28.32,130.48 28.35,130.5 28.39,130.52C28.43,130.54 28.46,130.56 28.5,130.58C28.54,130.6 28.58,130.61 28.62,130.63C28.66,130.65 28.69,130.66 28.73,130.68C28.77,130.69 28.8,130.71 28.84,130.72C28.88,130.73 28.91,130.75 28.95,130.76C28.99,130.77 29.02,130.78 29.06,130.79C29.1,130.8 29.13,130.8 29.17,130.81C29.21,130.82 29.24,130.82 29.28,130.83C29.32,130.84 29.36,130.85 29.4,130.85C29.44,130.85 29.47,130.85 29.51,130.85C29.55,130.85 29.58,130.86 29.62,130.86C29.66,130.86 29.69,130.86 29.73,130.86C29.77,130.86 29.8,130.86 29.84,130.86C29.88,130.86 29.91,130.86 29.95,130.86C29.99,130.86 30.03,130.86 30.07,130.86C30.11,130.86 30.14,130.87 30.18,130.87C30.22,130.87 30.25,130.88 30.29,130.88C30.33,130.88 30.36,130.88 30.4,130.88C30.44,130.88 30.47,130.89 30.51,130.89Q30.55,130.89 30.62,130.89L30.62,130.9" style="vector-effect: non-scaling-stroke; stroke-width: 2px; stroke: rgb(102, 194, 164); stroke-opacity: 1; fill: rgb(102, 194, 164); fill-opacity: 0.5;"/><path class="meanline" d="M22.81,102.32512664794922V130.9" style="fill: none; vector-effect: non-scaling-stroke; stroke-width: 2px; stroke-dasharray: 4px, 2px; stroke: rgb(102, 194, 164); stroke-opacity: 1;"/></g><g class="trace violins" style="opacity: 1;"><path class="violin" d="M111.1,100.3L111.1,100.29Q111.12,100.29 111.13,100.29C111.14,100.29 111.15,100.28 111.16,100.28C111.17,100.28 111.19,100.28 111.2,100.28C111.21,100.28 111.22,100.27 111.23,100.27C111.24,100.27 111.25,100.26 111.26,100.26C111.27,100.26 111.29,100.26 111.3,100.26C111.31,100.26 111.32,100.25 111.33,100.25C111.34,100.25 111.36,100.25 111.37,100.25C111.38,100.25 111.39,100.24 111.4,100.23C111.41,100.22 111.42,100.22 111.43,100.21C111.44,100.2 111.46,100.18 111.47,100.17C111.48,100.15 111.49,100.14 111.5,100.12C111.51,100.1 111.52,100.07 111.53,100.05C111.54,100.02 111.56,99.99 111.57,99.96C111.58,99.93 111.59,99.89 111.6,99.85C111.61,99.81 111.63,99.76 111.64,99.71C111.65,99.66 111.66,99.6 111.67,99.54C111.68,99.47 111.69,99.4 111.7,99.33C111.71,99.25 111.73,99.17 111.74,99.09C111.75,99 111.76,98.9 111.77,98.81C111.78,98.71 111.79,98.61 111.8,98.51C111.81,98.4 111.83,98.28 111.84,98.16C111.85,98.03 111.86,97.9 111.87,97.77C111.88,97.63 111.89,97.48 111.9,97.33C111.91,97.17 111.93,97.01 111.94,96.84C111.95,96.66 111.96,96.48 111.97,96.29C111.98,96.09 112,95.89 112.01,95.68C112.02,95.46 112.03,95.24 112.04,95.02C112.05,94.79 112.06,94.55 112.07,94.31C112.08,94.06 112.1,93.81 112.11,93.56C112.12,93.3 112.13,93.03 112.14,92.75C112.15,92.46 112.16,92.17 112.17,91.87C112.18,91.56 112.2,91.23 112.21,90.91C112.22,90.58 112.23,90.23 112.24,89.89C112.25,89.54 112.27,89.19 112.28,88.83C112.29,88.47 112.3,88.11 112.31,87.75C112.32,87.39 112.33,87.04 112.34,86.68C112.35,86.32 112.37,85.96 112.38,85.6C112.39,85.23 112.4,84.86 112.41,84.49C112.42,84.11 112.43,83.71 112.44,83.32C112.45,82.92 112.47,82.51 112.48,82.09C112.49,81.66 112.5,81.22 112.51,80.78C112.52,80.33 112.54,79.87 112.55,79.42C112.56,78.97 112.57,78.51 112.58,78.06C112.59,77.62 112.6,77.18 112.61,76.76C112.62,76.35 112.64,75.95 112.65,75.57C112.66,75.21 112.67,74.87 112.68,74.54C112.69,74.24 112.7,73.96 112.71,73.69C112.72,73.45 112.74,73.22 112.75,73.01C112.76,72.82 112.77,72.64 112.78,72.46C112.79,72.3 112.8,72.15 112.81,72C112.82,71.85 112.84,71.71 112.85,71.57C112.86,71.43 112.87,71.28 112.88,71.14C112.89,71 112.91,70.85 112.92,70.71C112.93,70.57 112.94,70.44 112.95,70.31C112.96,70.2 112.97,70.09 112.98,69.99C112.99,69.91 113,69.82 113.02,69.77C113.03,69.74 113.04,69.7 113.05,69.7C113.06,69.7 113.07,69.77 113.08,69.82C113.1,69.9 113.11,70.02 113.12,70.14C113.13,70.3 113.14,70.5 113.15,70.7C113.16,70.94 113.18,71.2 113.19,71.47C113.2,71.77 113.21,72.1 113.22,72.43C113.23,72.78 113.24,73.14 113.25,73.51C113.26,73.89 113.28,74.28 113.29,74.66C113.3,75.04 113.31,75.43 113.32,75.81C113.33,76.19 113.34,76.57 113.35,76.94C113.36,77.31 113.38,77.67 113.39,78.04C113.4,78.4 113.41,78.77 113.42,79.13C113.43,79.5 113.45,79.86 113.46,80.23C113.47,80.6 113.48,80.97 113.49,81.35C113.5,81.73 113.51,82.12 113.52,82.51C113.53,82.9 113.55,83.29 113.56,83.67C113.57,84.05 113.58,84.43 113.59,84.8C113.6,85.17 113.61,85.54 113.62,85.9C113.63,86.25 113.65,86.6 113.66,86.94C113.67,87.28 113.68,87.61 113.69,87.94C113.7,88.26 113.71,88.58 113.72,88.9C113.73,89.22 113.75,89.54 113.76,89.86C113.77,90.17 113.78,90.48 113.79,90.79C113.8,91.09 113.82,91.39 113.83,91.68C113.84,91.97 113.85,92.25 113.86,92.53C113.87,92.8 113.88,93.06 113.89,93.31C113.9,93.55 113.92,93.8 113.93,94.03C113.94,94.25 113.95,94.48 113.96,94.69C113.97,94.89 113.98,95.1 113.99,95.29C114,95.47 114.02,95.65 114.03,95.83C114.04,96 114.05,96.17 114.06,96.33C114.07,96.49 114.09,96.64 114.1,96.79C114.11,96.94 114.12,97.09 114.13,97.23C114.14,97.37 114.15,97.51 114.16,97.64C114.17,97.77 114.19,97.9 114.2,98.03C114.21,98.15 114.22,98.27 114.23,98.39C114.24,98.5 114.25,98.61 114.26,98.71C114.27,98.81 114.29,98.9 114.3,98.99C114.31,99.07 114.32,99.14 114.33,99.21C114.34,99.27 114.36,99.32 114.37,99.37C114.38,99.41 114.39,99.45 114.4,99.48C114.41,99.51 114.42,99.54 114.43,99.56C114.44,99.58 114.46,99.59 114.47,99.61C114.48,99.63 114.49,99.64 114.5,99.66C114.51,99.68 114.52,99.7 114.53,99.72C114.54,99.74 114.56,99.76 114.57,99.78C114.58,99.8 114.59,99.83 114.6,99.86C114.61,99.89 114.62,99.92 114.63,99.95C114.64,99.98 114.66,100 114.67,100.03C114.68,100.06 114.69,100.08 114.7,100.11C114.71,100.13 114.73,100.16 114.74,100.18C114.75,100.2 114.76,100.21 114.77,100.22C114.78,100.23 114.79,100.24 114.8,100.25C114.81,100.26 114.83,100.26 114.84,100.26C114.85,100.26 114.86,100.27 114.87,100.27C114.88,100.27 114.89,100.26 114.9,100.26C114.91,100.26 114.93,100.26 114.94,100.26C114.95,100.26 114.96,100.26 114.97,100.26C114.98,100.26 115,100.26 115.01,100.26C115.02,100.26 115.03,100.27 115.04,100.27C115.05,100.27 115.06,100.28 115.07,100.28C115.08,100.28 115.1,100.28 115.11,100.28C115.12,100.28 115.13,100.29 115.14,100.29Q115.15,100.29 115.17,100.29L115.17,100.3" style="vector-effect: non-scaling-stroke; stroke-width: 2px; stroke: rgb(102, 194, 164); stroke-opacity: 1; fill: rgb(102, 194, 164); fill-opacity: 0.5;"/><path class="meanline" d="M113.01,69.80316925048828V100.3" style="fill: none; vector-effect: non-scaling-stroke; stroke-width: 2px; stroke-dasharray: 4px, 2px; stroke: rgb(102, 194, 164); stroke-opacity: 1;"/></g><g class="trace violins" style="opacity: 1;"><path class="violin" d="M111.17,69.7L111.17,69.69Q111.18,69.69 111.18,69.69C111.19,69.69 111.19,69.68 111.2,69.68C111.21,69.68 111.22,69.68 111.22,69.67C111.23,69.67 111.23,69.66 111.23,69.65C111.24,69.64 111.24,69.64 111.25,69.63C111.26,69.62 111.26,69.62 111.27,69.61C111.28,69.6 111.28,69.6 111.29,69.59C111.29,69.58 111.3,69.58 111.3,69.57C111.31,69.56 111.31,69.55 111.32,69.54C111.33,69.53 111.34,69.53 111.34,69.52C111.35,69.51 111.35,69.49 111.35,69.48C111.36,69.46 111.36,69.45 111.37,69.43C111.38,69.41 111.39,69.39 111.39,69.37C111.4,69.34 111.4,69.31 111.4,69.28C111.41,69.25 111.41,69.21 111.42,69.18C111.43,69.14 111.44,69.1 111.44,69.06C111.45,69.02 111.45,68.97 111.45,68.93C111.46,68.88 111.46,68.83 111.47,68.78C111.48,68.72 111.48,68.66 111.49,68.6C111.5,68.54 111.51,68.47 111.51,68.4C111.52,68.32 111.52,68.24 111.52,68.15C111.53,68.06 111.53,67.96 111.54,67.86C111.55,67.75 111.56,67.62 111.56,67.5C111.57,67.37 111.57,67.23 111.57,67.09C111.58,66.94 111.58,66.78 111.59,66.62C111.6,66.45 111.61,66.28 111.61,66.11C111.62,65.93 111.62,65.75 111.62,65.57C111.63,65.39 111.63,65.2 111.64,65.02C111.65,64.84 111.66,64.66 111.66,64.48C111.67,64.3 111.67,64.11 111.67,63.93C111.68,63.75 111.68,63.56 111.69,63.38C111.7,63.19 111.7,63 111.71,62.81C111.72,62.61 111.73,62.4 111.73,62.2C111.74,61.99 111.74,61.78 111.74,61.57C111.75,61.35 111.75,61.12 111.76,60.89C111.77,60.65 111.78,60.4 111.78,60.15C111.79,59.88 111.79,59.61 111.79,59.33C111.8,59.03 111.8,58.72 111.81,58.4C111.82,58.07 111.83,57.72 111.83,57.37C111.84,57 111.84,56.61 111.84,56.22C111.85,55.81 111.85,55.39 111.86,54.97C111.87,54.54 111.88,54.09 111.88,53.65C111.89,53.2 111.89,52.74 111.89,52.29C111.9,51.83 111.9,51.37 111.91,50.91C111.92,50.45 111.92,49.99 111.93,49.54C111.93,49.09 111.93,48.65 111.94,48.21C111.94,47.79 111.95,47.37 111.96,46.96C111.97,46.57 111.97,46.19 111.98,45.83C111.99,45.49 111.99,45.16 112,44.84C112,44.54 112,44.25 112.01,43.97C112.01,43.7 112.02,43.44 112.03,43.18C112.04,42.93 112.04,42.68 112.05,42.43C112.05,42.18 112.05,41.93 112.06,41.68C112.06,41.44 112.07,41.19 112.08,40.95C112.09,40.72 112.09,40.49 112.1,40.27C112.1,40.07 112.1,39.87 112.11,39.69C112.11,39.54 112.12,39.4 112.13,39.29C112.14,39.21 112.14,39.1 112.15,39.1C112.15,39.1 112.16,39.12 112.16,39.14C112.17,39.19 112.17,39.3 112.18,39.4C112.19,39.53 112.19,39.68 112.2,39.83C112.21,40 112.22,40.19 112.22,40.38C112.23,40.58 112.23,40.78 112.23,40.99C112.24,41.2 112.24,41.42 112.25,41.63C112.26,41.85 112.27,42.07 112.27,42.29C112.28,42.52 112.28,42.76 112.28,43C112.29,43.25 112.29,43.51 112.3,43.78C112.31,44.06 112.32,44.36 112.32,44.66C112.33,44.98 112.33,45.32 112.33,45.66C112.34,46.02 112.34,46.4 112.35,46.78C112.36,47.18 112.37,47.58 112.37,47.99C112.38,48.41 112.38,48.83 112.38,49.26C112.39,49.69 112.39,50.13 112.4,50.56C112.41,50.99 112.41,51.41 112.42,51.83C112.42,52.24 112.42,52.65 112.43,53.06C112.43,53.46 112.44,53.85 112.45,54.24C112.46,54.63 112.46,55.01 112.47,55.39C112.48,55.77 112.49,56.14 112.49,56.52C112.5,56.9 112.49,57.29 112.5,57.67C112.5,58.05 112.51,58.43 112.52,58.81C112.53,59.18 112.53,59.56 112.54,59.93C112.54,60.28 112.54,60.63 112.55,60.97C112.55,61.29 112.56,61.6 112.57,61.9C112.58,62.17 112.58,62.44 112.59,62.69C112.59,62.92 112.59,63.13 112.6,63.34C112.6,63.53 112.61,63.71 112.62,63.89C112.63,64.06 112.63,64.23 112.64,64.4C112.64,64.57 112.65,64.74 112.65,64.91C112.66,65.09 112.66,65.27 112.67,65.45C112.68,65.63 112.68,65.82 112.69,66.01C112.7,66.19 112.7,66.38 112.71,66.56C112.71,66.74 112.71,66.92 112.72,67.09C112.72,67.25 112.73,67.4 112.74,67.54C112.75,67.67 112.75,67.8 112.76,67.92C112.76,68.03 112.76,68.13 112.77,68.22C112.77,68.3 112.78,68.38 112.79,68.46C112.8,68.53 112.8,68.6 112.81,68.66C112.81,68.72 112.81,68.78 112.82,68.83C112.82,68.88 112.83,68.92 112.84,68.96C112.85,69 112.85,69.04 112.86,69.08C112.86,69.11 112.86,69.14 112.87,69.17C112.87,69.2 112.88,69.22 112.89,69.24C112.9,69.26 112.9,69.28 112.91,69.3C112.92,69.32 112.92,69.34 112.93,69.36C112.93,69.38 112.94,69.39 112.94,69.41C112.95,69.43 112.95,69.44 112.96,69.46C112.97,69.48 112.97,69.49 112.98,69.51C112.98,69.52 112.98,69.54 112.99,69.55C112.99,69.56 113,69.57 113.01,69.58C113.02,69.59 113.02,69.6 113.03,69.61C113.03,69.62 113.04,69.62 113.04,69.63C113.05,69.64 113.05,69.64 113.06,69.65C113.07,69.65 113.07,69.66 113.08,69.66C113.08,69.66 113.09,69.67 113.09,69.67C113.1,69.67 113.1,69.67 113.11,69.67C113.12,69.67 113.12,69.67 113.13,69.67C113.13,69.67 113.14,69.67 113.14,69.67C113.15,69.67 113.15,69.66 113.16,69.66C113.17,69.66 113.17,69.66 113.18,69.66C113.19,69.66 113.19,69.66 113.2,69.66C113.2,69.66 113.21,69.67 113.21,69.67C113.22,69.67 113.22,69.68 113.23,69.68C113.24,69.68 113.24,69.68 113.25,69.68C113.25,69.68 113.26,69.69 113.26,69.69Q113.27,69.69 113.28,69.69L113.28,69.7" style="vector-effect: non-scaling-stroke; stroke-width: 2px; stroke: rgb(102, 194, 164); stroke-opacity: 1; fill: rgb(102, 194, 164); fill-opacity: 0.5;"/><path class="meanline" d="M112.15,39.10177993774414V69.7" style="fill: none; vector-effect: non-scaling-stroke; stroke-width: 2px; stroke-dasharray: 4px, 2px; stroke: rgb(102, 194, 164); stroke-opacity: 1;"/></g><g class="trace violins" style="opacity: 1;"><path class="violin" d="M57.42,39.1L57.42,39.09Q57.51,39.08 57.56,39.08C57.61,39.08 57.65,39.08 57.7,39.07C57.75,39.06 57.79,39.05 57.84,39.04C57.89,39.03 57.93,39.02 57.98,39.01C58.03,39 58.07,38.99 58.12,38.98C58.17,38.97 58.21,38.95 58.26,38.94C58.31,38.93 58.35,38.91 58.4,38.9C58.45,38.89 58.49,38.87 58.54,38.86C58.59,38.85 58.63,38.84 58.68,38.83C58.73,38.82 58.77,38.8 58.82,38.78C58.87,38.76 58.91,38.74 58.96,38.72C59.01,38.7 59.05,38.67 59.1,38.64C59.15,38.61 59.19,38.57 59.24,38.53C59.29,38.49 59.33,38.44 59.38,38.39C59.43,38.34 59.47,38.29 59.52,38.23C59.57,38.17 59.61,38.1 59.66,38.03C59.71,37.96 59.75,37.88 59.8,37.81C59.85,37.73 59.9,37.66 59.95,37.58C60,37.5 60.04,37.41 60.09,37.33C60.14,37.25 60.18,37.16 60.23,37.08C60.28,36.99 60.32,36.91 60.37,36.82C60.42,36.72 60.46,36.63 60.51,36.52C60.56,36.41 60.61,36.29 60.65,36.16C60.7,36.02 60.75,35.87 60.79,35.72C60.84,35.55 60.89,35.37 60.93,35.18C60.98,34.97 61.02,34.75 61.07,34.53C61.12,34.29 61.16,34.05 61.21,33.8C61.26,33.54 61.3,33.28 61.35,33.02C61.4,32.77 61.44,32.51 61.49,32.27C61.54,32.04 61.58,31.8 61.63,31.58C61.68,31.37 61.72,31.16 61.77,30.95C61.82,30.75 61.86,30.56 61.91,30.36C61.96,30.16 62,29.95 62.05,29.74C62.1,29.51 62.15,29.27 62.19,29.02C62.24,28.74 62.29,28.45 62.33,28.15C62.38,27.82 62.42,27.48 62.47,27.12C62.52,26.74 62.56,26.33 62.61,25.93C62.66,25.51 62.7,25.09 62.75,24.66C62.8,24.22 62.84,23.78 62.89,23.34C62.94,22.91 62.98,22.48 63.03,22.05C63.08,21.63 63.12,21.22 63.17,20.81C63.22,20.41 63.26,20.02 63.31,19.63C63.36,19.25 63.4,18.88 63.45,18.52C63.5,18.17 63.54,17.83 63.59,17.49C63.64,17.16 63.68,16.84 63.73,16.53C63.78,16.23 63.83,15.94 63.88,15.65C63.93,15.38 63.97,15.11 64.02,14.85C64.07,14.6 64.11,14.35 64.16,14.11C64.21,13.87 64.25,13.63 64.3,13.4C64.35,13.17 64.39,12.94 64.44,12.72C64.49,12.5 64.53,12.28 64.58,12.07C64.63,11.86 64.67,11.64 64.72,11.44C64.77,11.24 64.81,11.05 64.86,10.87C64.91,10.69 64.95,10.52 65,10.36C65.05,10.2 65.09,10.06 65.14,9.91C65.19,9.77 65.23,9.63 65.28,9.5C65.33,9.37 65.37,9.24 65.42,9.11C65.47,8.99 65.51,8.87 65.56,8.77C65.6,8.68 65.64,8.58 65.7,8.54C65.74,8.51 65.8,8.49 65.84,8.5C65.89,8.52 65.94,8.62 65.98,8.7C66.04,8.82 66.08,9 66.12,9.17C66.17,9.38 66.22,9.62 66.26,9.86C66.31,10.13 66.35,10.43 66.4,10.72C66.45,11.03 66.49,11.35 66.54,11.66C66.59,11.98 66.63,12.3 66.68,12.61C66.73,12.92 66.77,13.23 66.82,13.54C66.87,13.85 66.91,14.14 66.96,14.45C67.01,14.76 67.05,15.07 67.1,15.39C67.15,15.72 67.19,16.05 67.24,16.39C67.29,16.75 67.33,17.12 67.38,17.49C67.43,17.88 67.47,18.28 67.52,18.68C67.57,19.1 67.61,19.53 67.66,19.96C67.71,20.4 67.76,20.84 67.81,21.28C67.86,21.72 67.9,22.16 67.95,22.6C68,23.04 68.04,23.47 68.09,23.9C68.14,24.32 68.18,24.73 68.23,25.14C68.28,25.54 68.32,25.93 68.37,26.32C68.42,26.71 68.46,27.09 68.51,27.47C68.56,27.85 68.6,28.22 68.65,28.6C68.7,28.98 68.74,29.36 68.79,29.73C68.84,30.1 68.88,30.47 68.93,30.84C68.98,31.2 69.02,31.56 69.07,31.91C69.12,32.25 69.16,32.59 69.21,32.91C69.26,33.22 69.3,33.52 69.35,33.81C69.4,34.08 69.44,34.35 69.49,34.6C69.54,34.84 69.58,35.07 69.63,35.29C69.68,35.49 69.72,35.69 69.77,35.88C69.81,36.05 69.86,36.22 69.91,36.38C69.96,36.53 70,36.67 70.05,36.81C70.1,36.94 70.14,37.07 70.19,37.19C70.24,37.3 70.28,37.41 70.33,37.51C70.38,37.61 70.42,37.7 70.47,37.79C70.52,37.88 70.56,37.96 70.61,38.04C70.65,38.11 70.7,38.18 70.75,38.24C70.8,38.3 70.84,38.36 70.89,38.41C70.94,38.46 70.98,38.5 71.03,38.54C71.08,38.58 71.12,38.61 71.17,38.64C71.22,38.67 71.26,38.69 71.31,38.71C71.36,38.73 71.4,38.75 71.45,38.77C71.5,38.79 71.54,38.8 71.59,38.81C71.64,38.83 71.69,38.84 71.74,38.86C71.79,38.87 71.83,38.89 71.88,38.9C71.93,38.91 71.97,38.93 72.02,38.94C72.07,38.95 72.11,38.97 72.16,38.98C72.21,38.99 72.25,39.01 72.3,39.02C72.35,39.03 72.39,39.04 72.44,39.05C72.49,39.06 72.53,39.06 72.58,39.07C72.63,39.07 72.67,39.08 72.72,39.08Q72.77,39.08 72.86,39.09L72.86,39.1" style="vector-effect: non-scaling-stroke; stroke-width: 2px; stroke: rgb(102, 194, 164); stroke-opacity: 1; fill: rgb(102, 194, 164); fill-opacity: 0.5;"/><path class="meanline" d="M65.37,9.248173713684082V39.1" style="fill: none; vector-effect: non-scaling-stroke; stroke-width: 2px; stroke-dasharray: 4px, 2px; stroke: rgb(102, 194, 164); stroke-opacity: 1;"/></g></g></g><g class="overplot"/><path class="xlines-above crisp" d="M0,0" style="fill: none;"/><path class="ylines-above crisp" d="M0,0" style="fill: none;"/><g class="overlines-above"/><g class="xaxislayer-above"><g class="xtick"><text text-anchor="start" x="0" y="203" transform="translate(20,0) rotate(90,0,197)" style="font-family: 'Open Sans', verdana, arial, sans-serif; font-size: 12px; fill: rgb(68, 68, 68); fill-opacity: 1; white-space: pre;">−1</text></g><g class="xtick"><text text-anchor="start" x="0" y="203" transform="translate(48.25,0) rotate(90,0,197)" style="font-family: 'Open Sans', verdana, arial, sans-serif; font-size: 12px; fill: rgb(68, 68, 68); fill-opacity: 1; white-space: pre;">−0.75</text></g><g class="xtick"><text text-anchor="start" x="0" y="203" transform="translate(76.5,0) rotate(90,0,197)" style="font-family: 'Open Sans', verdana, arial, sans-serif; font-size: 12px; fill: rgb(68, 68, 68); fill-opacity: 1; white-space: pre;">−0.5</text></g><g class="xtick"><text text-anchor="start" x="0" y="203" transform="translate(104.75,0) rotate(90,0,197)" style="font-family: 'Open Sans', verdana, arial, sans-serif; font-size: 12px; fill: rgb(68, 68, 68); fill-opacity: 1; white-space: pre;">−0.25</text></g><g class="xtick"><text text-anchor="start" x="0" y="203" transform="translate(133,0) rotate(90,0,197)" style="font-family: 'Open Sans', verdana, arial, sans-serif; font-size: 12px; fill: rgb(68, 68, 68); fill-opacity: 1; white-space: pre;">0</text></g><g class="xtick"><text text-anchor="start" x="0" y="203" transform="translate(161.25,0) rotate(90,0,197)" style="font-family: 'Open Sans', verdana, arial, sans-serif; font-size: 12px; fill: rgb(68, 68, 68); fill-opacity: 1; white-space: pre;">0.25</text></g><g class="xtick"><text text-anchor="start" x="0" y="203" transform="translate(189.5,0) rotate(90,0,197)" style="font-family: 'Open Sans', verdana, arial, sans-serif; font-size: 12px; fill: rgb(68, 68, 68); fill-opacity: 1; white-space: pre;">0.5</text></g><g class="xtick"><text text-anchor="start" x="0" y="203" transform="translate(217.75,0) rotate(90,0,197)" style="font-family: 'Open Sans', verdana, arial, sans-serif; font-size: 12px; fill: rgb(68, 68, 68); fill-opacity: 1; white-space: pre;">0.75</text></g><g class="xtick"><text text-anchor="start" x="0" y="203" transform="translate(246,0) rotate(90,0,197)" style="font-family: 'Open Sans', verdana, arial, sans-serif; font-size: 12px; fill: rgb(68, 68, 68); fill-opacity: 1; white-space: pre;">1</text></g></g><g class="yaxislayer-above"/><g class="overaxes-above"/></g></g><g class="polarlayer"/><g class="ternarylayer"/><g class="geolayer"/><g class="funnelarealayer"/><g class="pielayer"/><g class="treemaplayer"/><g class="sunburstlayer"/><g class="glimages"/><defs id="topdefs-408aa4"><g class="clips"/></defs><g class="layer-above"><g class="imagelayer"/><g class="shapelayer"><path data-index="0" fill-rule="evenodd" d="M121.7,181.5L121.7,28.5" clip-path="url('#clip408aa4xy')" style="opacity: 1; stroke: rgb(0, 0, 0); stroke-opacity: 1; fill: rgb(0, 0, 0); fill-opacity: 0; stroke-dasharray: 9px, 9px; stroke-width: 2px;"/><path data-index="1" fill-rule="evenodd" d="M144.3,181.5L144.3,28.5" clip-path="url('#clip408aa4xy')" style="opacity: 1; stroke: rgb(0, 0, 0); stroke-opacity: 1; fill: rgb(0, 0, 0); fill-opacity: 0; stroke-dasharray: 9px, 9px; stroke-width: 2px;"/></g></g><g class="infolayer"><g class="g-gtitle"><text class="gtitle" x="133" y="10" text-anchor="middle" dy="0em" style="font-family: Calibri; font-size: 14px; fill: rgb(68, 68, 68); opacity: 1; font-weight: normal; white-space: pre;">My_20</text></g><g class="g-xtitle" transform="translate(0,0.703125)"><text class="xtitle" x="133" y="242" text-anchor="middle" style="font-family: 'Open Sans', verdana, arial, sans-serif; font-size: 14px; fill: rgb(68, 68, 68); opacity: 1; font-weight: normal; white-space: pre;">Coeficiente de Interacción</text></g><g class="g-ytitle"/></g></svg>