<svg class="main-svg" xmlns="http://www.w3.org/2000/svg" xmlns:xlink="http://www.w3.org/1999/xlink" width="286" height="250" style="" viewBox="0 0 286 250"><rect x="0" y="0" width="286" height="250" style="fill: rgb(255, 255, 255); fill-opacity: 1;"/><defs id="defs-295301"><g class="clips"><clipPath id="clip295301xyplot" class="plotclip"><rect width="226" height="170"/></clipPath><clipPath class="axesclip" id="clip295301x"><rect x="40" y="0" width="226" height="250"/></clipPath><clipPath class="axesclip" id="clip295301y"><rect x="0" y="20" width="286" height="170"/></clipPath><clipPath class="axesclip" id="clip295301xy"><rect x="40" y="20" width="226" height="170"/></clipPath></g><g class="gradients"/></defs><g class="bglayer"/><g class="layer-below"><g class="imagelayer"/><g class="shapelayer"/></g><g class="cartesianlayer"><g class="subplot xy"><g class="layer-subplot"><g class="shapelayer"/><g class="imagelayer"/></g><g class="gridlayer"><g class="x"/><g class="y"><path class="ygrid crisp" transform="translate(0,181.5)" d="M40,0h226" style="stroke: rgb(238, 238, 238); stroke-opacity: 1; stroke-width: 1px;"/><path class="ygrid crisp" transform="translate(0,130.5)" d="M40,0h226" style="stroke: rgb(238, 238, 238); stroke-opacity: 1; stroke-width: 1px;"/><path class="ygrid crisp" transform="translate(0,79.5)" d="M40,0h226" style="stroke: rgb(238, 238, 238); stroke-opacity: 1; stroke-width: 1px;"/></g></g><g class="zerolinelayer"/><path class="xlines-below"/><path class="ylines-below"/><g class="overlines-below"/><g class="xaxislayer-below"/><g class="yaxislayer-below"/><g class="overaxes-below"/><g class="plot" transform="translate(40,20)" clip-path="url('#clip295301xyplot')"><g class="violinlayer mlayer"><g class="trace violins" style="opacity: 1;"><path class="violin" d="M-17.65,161.5L-17.65,161.43Q-15.58,161.39 -14.54,161.34C-13.51,161.3 -12.47,161.24 -11.44,161.16C-10.4,161.08 -9.36,160.99 -8.33,160.86C-7.29,160.73 -6.25,160.57 -5.22,160.38C-4.18,160.18 -3.15,159.95 -2.12,159.69C-1.08,159.42 -0.04,159.11 0.99,158.78C2.03,158.45 3.07,158.07 4.1,157.69C5.14,157.31 6.17,156.89 7.2,156.48C8.24,156.07 9.27,155.65 10.31,155.23C11.35,154.81 12.38,154.39 13.42,153.98C14.45,153.57 15.49,153.17 16.52,152.76C17.56,152.35 18.59,151.95 19.63,151.53C20.67,151.11 21.71,150.7 22.74,150.26C23.78,149.82 24.81,149.37 25.84,148.9C26.88,148.43 27.91,147.94 28.95,147.45C29.99,146.96 31.02,146.45 32.06,145.95C33.09,145.45 34.12,144.95 35.16,144.46C36.19,143.97 37.23,143.48 38.27,143C39.31,142.52 40.34,142.05 41.38,141.58C42.41,141.11 43.45,140.65 44.48,140.18C45.52,139.71 46.55,139.25 47.59,138.77C48.63,138.29 49.66,137.8 50.7,137.31C51.73,136.82 52.77,136.33 53.8,135.83C54.84,135.33 55.87,134.83 56.91,134.33C57.95,133.83 58.99,133.33 60.02,132.83C61.06,132.32 62.09,131.82 63.12,131.3C64.16,130.78 65.2,130.26 66.23,129.71C67.27,129.16 68.31,128.59 69.34,128.01C70.38,127.43 71.41,126.82 72.44,126.21C73.48,125.6 74.51,124.96 75.55,124.35C76.59,123.74 77.62,123.12 78.66,122.53C79.69,121.95 80.72,121.38 81.76,120.85C82.79,120.33 83.83,119.83 84.87,119.38C85.9,118.94 86.94,118.53 87.98,118.16C89.01,117.79 90.04,117.47 91.08,117.15C92.11,116.83 93.15,116.56 94.19,116.26C95.23,115.97 96.27,115.68 97.3,115.38C98.34,115.07 99.37,114.76 100.4,114.43C101.44,114.1 102.47,113.74 103.51,113.39C104.55,113.04 105.58,112.66 106.62,112.33C107.65,112 108.68,111.66 109.72,111.4C110.75,111.14 111.79,110.9 112.83,110.75C113.86,110.6 114.9,110.51 115.94,110.5C116.97,110.49 118.01,110.55 119.04,110.67C120.08,110.79 121.12,110.98 122.15,111.21C123.19,111.44 124.23,111.72 125.26,112.03C126.3,112.34 127.33,112.69 128.36,113.06C129.4,113.44 130.44,113.84 131.47,114.27C132.51,114.7 133.54,115.16 134.57,115.64C135.61,116.12 136.65,116.63 137.68,117.16C138.72,117.7 139.76,118.26 140.79,118.84C141.83,119.43 142.86,120.04 143.89,120.66C144.93,121.29 145.97,121.93 147,122.58C148.04,123.23 149.07,123.9 150.11,124.56C151.14,125.22 152.17,125.89 153.21,126.54C154.24,127.19 155.28,127.83 156.32,128.44C157.35,129.05 158.39,129.64 159.43,130.2C160.46,130.76 161.49,131.3 162.53,131.81C163.56,132.32 164.6,132.79 165.64,133.26C166.67,133.72 167.71,134.17 168.75,134.6C169.78,135.03 170.82,135.44 171.85,135.86C172.89,136.28 173.92,136.7 174.96,137.12C176,137.55 177.04,137.97 178.07,138.41C179.11,138.85 180.14,139.31 181.17,139.78C182.21,140.25 183.25,140.74 184.28,141.23C185.32,141.73 186.36,142.24 187.39,142.75C188.43,143.26 189.46,143.79 190.49,144.3C191.53,144.81 192.56,145.33 193.6,145.83C194.64,146.33 195.67,146.83 196.71,147.31C197.74,147.79 198.77,148.27 199.81,148.73C200.84,149.19 201.88,149.64 202.92,150.09C203.96,150.54 204.99,150.98 206.03,151.42C207.06,151.86 208.1,152.29 209.13,152.73C210.17,153.17 211.2,153.61 212.24,154.05C213.28,154.49 214.31,154.92 215.35,155.35C216.38,155.78 217.41,156.21 218.45,156.62C219.48,157.03 220.52,157.44 221.56,157.81C222.59,158.18 223.63,158.53 224.67,158.85C225.7,159.17 226.73,159.46 227.77,159.72C228.8,159.97 229.84,160.19 230.88,160.38C231.91,160.57 232.95,160.72 233.99,160.85C235.02,160.98 236.06,161.07 237.09,161.15C238.13,161.23 239.16,161.27 240.2,161.32Q241.24,161.36 243.31,161.42L243.31,161.5" style="vector-effect: non-scaling-stroke; stroke-width: 2px; stroke: rgb(102, 194, 164); stroke-opacity: 1; fill: rgb(102, 194, 164); fill-opacity: 0.5;"/><path class="meanline" d="M112.94,110.7343521118164V161.5" style="fill: none; vector-effect: non-scaling-stroke; stroke-width: 2px; stroke-dasharray: 4px, 2px; stroke: rgb(102, 194, 164); stroke-opacity: 1;"/></g><g class="trace violins" style="opacity: 1;"><path class="violin" d="M-17.65,110.5L-17.65,110.43Q-15.58,110.39 -14.54,110.34C-13.51,110.3 -12.47,110.24 -11.44,110.16C-10.4,110.08 -9.36,109.99 -8.33,109.86C-7.29,109.73 -6.25,109.57 -5.22,109.38C-4.18,109.18 -3.15,108.95 -2.12,108.69C-1.08,108.42 -0.04,108.11 0.99,107.78C2.03,107.45 3.07,107.07 4.1,106.69C5.14,106.31 6.17,105.89 7.2,105.48C8.24,105.07 9.27,104.65 10.31,104.23C11.35,103.81 12.38,103.39 13.42,102.98C14.45,102.57 15.49,102.17 16.52,101.76C17.56,101.35 18.59,100.95 19.63,100.53C20.67,100.11 21.71,99.7 22.74,99.26C23.78,98.82 24.81,98.37 25.84,97.9C26.88,97.43 27.91,96.94 28.95,96.45C29.99,95.96 31.02,95.45 32.06,94.95C33.09,94.45 34.12,93.95 35.16,93.46C36.19,92.97 37.23,92.48 38.27,92C39.31,91.52 40.34,91.05 41.38,90.58C42.41,90.11 43.45,89.65 44.48,89.18C45.52,88.71 46.55,88.25 47.59,87.77C48.63,87.29 49.66,86.8 50.7,86.31C51.73,85.82 52.77,85.33 53.8,84.83C54.84,84.33 55.87,83.83 56.91,83.33C57.95,82.83 58.99,82.33 60.02,81.83C61.06,81.32 62.09,80.82 63.12,80.3C64.16,79.78 65.2,79.26 66.23,78.71C67.27,78.16 68.31,77.59 69.34,77.01C70.38,76.43 71.41,75.82 72.44,75.21C73.48,74.6 74.51,73.96 75.55,73.35C76.59,72.74 77.62,72.12 78.66,71.53C79.69,70.95 80.72,70.38 81.76,69.85C82.79,69.33 83.83,68.83 84.87,68.38C85.9,67.94 86.94,67.53 87.98,67.16C89.01,66.79 90.04,66.47 91.08,66.15C92.11,65.83 93.15,65.56 94.19,65.26C95.23,64.97 96.27,64.68 97.3,64.38C98.34,64.07 99.37,63.76 100.4,63.43C101.44,63.1 102.47,62.74 103.51,62.39C104.55,62.04 105.58,61.66 106.62,61.33C107.65,61 108.68,60.66 109.72,60.4C110.75,60.14 111.79,59.9 112.83,59.75C113.86,59.6 114.9,59.51 115.94,59.5C116.97,59.49 118.01,59.55 119.04,59.67C120.08,59.79 121.12,59.98 122.15,60.21C123.19,60.44 124.23,60.72 125.26,61.03C126.3,61.34 127.33,61.69 128.36,62.06C129.4,62.44 130.44,62.84 131.47,63.27C132.51,63.7 133.54,64.16 134.57,64.64C135.61,65.12 136.65,65.63 137.68,66.16C138.72,66.7 139.76,67.26 140.79,67.84C141.83,68.43 142.86,69.04 143.89,69.66C144.93,70.29 145.97,70.93 147,71.58C148.04,72.23 149.07,72.9 150.11,73.56C151.14,74.22 152.17,74.89 153.21,75.54C154.24,76.19 155.28,76.83 156.32,77.44C157.35,78.05 158.39,78.64 159.43,79.2C160.46,79.76 161.49,80.3 162.53,80.81C163.56,81.32 164.6,81.79 165.64,82.26C166.67,82.72 167.71,83.17 168.75,83.6C169.78,84.03 170.82,84.44 171.85,84.86C172.89,85.28 173.92,85.7 174.96,86.12C176,86.55 177.04,86.97 178.07,87.41C179.11,87.85 180.14,88.31 181.17,88.78C182.21,89.25 183.25,89.74 184.28,90.23C185.32,90.73 186.36,91.24 187.39,91.75C188.43,92.26 189.46,92.79 190.49,93.3C191.53,93.81 192.56,94.33 193.6,94.83C194.64,95.33 195.67,95.83 196.71,96.31C197.74,96.79 198.77,97.27 199.81,97.73C200.84,98.19 201.88,98.64 202.92,99.09C203.96,99.54 204.99,99.98 206.03,100.42C207.06,100.86 208.1,101.29 209.13,101.73C210.17,102.17 211.2,102.61 212.24,103.05C213.28,103.49 214.31,103.92 215.35,104.35C216.38,104.78 217.41,105.21 218.45,105.62C219.48,106.03 220.52,106.44 221.56,106.81C222.59,107.18 223.63,107.53 224.67,107.85C225.7,108.17 226.73,108.46 227.77,108.72C228.8,108.97 229.84,109.19 230.88,109.38C231.91,109.57 232.95,109.72 233.99,109.85C235.02,109.98 236.06,110.07 237.09,110.15C238.13,110.23 239.16,110.27 240.2,110.32Q241.24,110.36 243.31,110.42L243.31,110.5" style="vector-effect: non-scaling-stroke; stroke-width: 2px; stroke: rgb(102, 194, 164); stroke-opacity: 1; fill: rgb(102, 194, 164); fill-opacity: 0.5;"/><path class="meanline" d="M112.94,59.73434829711914V110.5" style="fill: none; vector-effect: non-scaling-stroke; stroke-width: 2px; stroke-dasharray: 4px, 2px; stroke: rgb(102, 194, 164); stroke-opacity: 1;"/></g><g class="trace violins" style="opacity: 1;"><path class="violin" d="M-17.65,59.5L-17.65,59.43Q-15.58,59.39 -14.54,59.34C-13.51,59.3 -12.47,59.24 -11.44,59.16C-10.4,59.08 -9.36,58.99 -8.33,58.86C-7.29,58.73 -6.25,58.57 -5.22,58.38C-4.18,58.18 -3.15,57.95 -2.12,57.69C-1.08,57.42 -0.04,57.11 0.99,56.78C2.03,56.45 3.07,56.07 4.1,55.69C5.14,55.31 6.17,54.89 7.2,54.48C8.24,54.07 9.27,53.65 10.31,53.23C11.35,52.81 12.38,52.39 13.42,51.98C14.45,51.57 15.49,51.17 16.52,50.76C17.56,50.35 18.59,49.95 19.63,49.53C20.67,49.11 21.71,48.7 22.74,48.26C23.78,47.82 24.81,47.37 25.84,46.9C26.88,46.43 27.91,45.94 28.95,45.45C29.99,44.96 31.02,44.45 32.06,43.95C33.09,43.45 34.12,42.95 35.16,42.46C36.19,41.97 37.23,41.48 38.27,41C39.31,40.52 40.34,40.05 41.38,39.58C42.41,39.11 43.45,38.65 44.48,38.18C45.52,37.71 46.55,37.25 47.59,36.77C48.63,36.29 49.66,35.8 50.7,35.31C51.73,34.82 52.77,34.33 53.8,33.83C54.84,33.33 55.87,32.83 56.91,32.33C57.95,31.83 58.99,31.33 60.02,30.83C61.06,30.32 62.09,29.82 63.12,29.3C64.16,28.78 65.2,28.26 66.23,27.71C67.27,27.16 68.31,26.59 69.34,26.01C70.38,25.43 71.41,24.82 72.44,24.21C73.48,23.6 74.51,22.96 75.55,22.35C76.59,21.74 77.62,21.12 78.66,20.53C79.69,19.95 80.72,19.38 81.76,18.85C82.79,18.33 83.83,17.83 84.87,17.38C85.9,16.94 86.94,16.53 87.98,16.16C89.01,15.79 90.04,15.47 91.08,15.15C92.11,14.83 93.15,14.56 94.19,14.26C95.23,13.97 96.27,13.68 97.3,13.38C98.34,13.07 99.37,12.76 100.4,12.43C101.44,12.1 102.47,11.74 103.51,11.39C104.55,11.04 105.58,10.66 106.62,10.33C107.65,10 108.68,9.66 109.72,9.4C110.75,9.14 111.79,8.9 112.83,8.75C113.86,8.6 114.9,8.51 115.94,8.5C116.97,8.49 118.01,8.55 119.04,8.67C120.08,8.79 121.12,8.98 122.15,9.21C123.19,9.44 124.23,9.72 125.26,10.03C126.3,10.34 127.33,10.69 128.36,11.06C129.4,11.44 130.44,11.84 131.47,12.27C132.51,12.7 133.54,13.16 134.57,13.64C135.61,14.12 136.65,14.63 137.68,15.16C138.72,15.7 139.76,16.26 140.79,16.84C141.83,17.43 142.86,18.04 143.89,18.66C144.93,19.29 145.97,19.93 147,20.58C148.04,21.23 149.07,21.9 150.11,22.56C151.14,23.22 152.17,23.89 153.21,24.54C154.24,25.19 155.28,25.83 156.32,26.44C157.35,27.05 158.39,27.64 159.43,28.2C160.46,28.76 161.49,29.3 162.53,29.81C163.56,30.32 164.6,30.79 165.64,31.26C166.67,31.72 167.71,32.17 168.75,32.6C169.78,33.03 170.82,33.44 171.85,33.86C172.89,34.28 173.92,34.7 174.96,35.12C176,35.55 177.04,35.97 178.07,36.41C179.11,36.85 180.14,37.31 181.17,37.78C182.21,38.25 183.25,38.74 184.28,39.23C185.32,39.73 186.36,40.24 187.39,40.75C188.43,41.26 189.46,41.79 190.49,42.3C191.53,42.81 192.56,43.33 193.6,43.83C194.64,44.33 195.67,44.83 196.71,45.31C197.74,45.79 198.77,46.27 199.81,46.73C200.84,47.19 201.88,47.64 202.92,48.09C203.96,48.54 204.99,48.98 206.03,49.42C207.06,49.86 208.1,50.29 209.13,50.73C210.17,51.17 211.2,51.61 212.24,52.05C213.28,52.49 214.31,52.92 215.35,53.35C216.38,53.78 217.41,54.21 218.45,54.62C219.48,55.03 220.52,55.44 221.56,55.81C222.59,56.18 223.63,56.53 224.67,56.85C225.7,57.17 226.73,57.46 227.77,57.72C228.8,57.97 229.84,58.19 230.88,58.38C231.91,58.57 232.95,58.72 233.99,58.85C235.02,58.98 236.06,59.07 237.09,59.15C238.13,59.23 239.16,59.27 240.2,59.32Q241.24,59.36 243.31,59.42L243.31,59.5" style="vector-effect: non-scaling-stroke; stroke-width: 2px; stroke: rgb(102, 194, 164); stroke-opacity: 1; fill: rgb(102, 194, 164); fill-opacity: 0.5;"/><path class="meanline" d="M112.94,8.734345436096191V59.5" style="fill: none; vector-effect: non-scaling-stroke; stroke-width: 2px; stroke-dasharray: 4px, 2px; stroke: rgb(102, 194, 164); stroke-opacity: 1;"/></g></g></g><g class="overplot"/><path class="xlines-above crisp" d="M0,0" style="fill: none;"/><path class="ylines-above crisp" d="M0,0" style="fill: none;"/><g class="overlines-above"/><g class="xaxislayer-above"><g class="xtick"><text text-anchor="start" x="0" y="203" transform="translate(40,0) rotate(90,0,197)" style="font-family: 'Open Sans', verdana, arial, sans-serif; font-size: 12px; fill: rgb(68, 68, 68); fill-opacity: 1; white-space: pre;">−1</text></g><g class="xtick"><text text-anchor="start" x="0" y="203" transform="translate(68.25,0) rotate(90,0,197)" style="font-family: 'Open Sans', verdana, arial, sans-serif; font-size: 12px; fill: rgb(68, 68, 68); fill-opacity: 1; white-space: pre;">−0.75</text></g><g class="xtick"><text text-anchor="start" x="0" y="203" transform="translate(96.5,0) rotate(90,0,197)" style="font-family: 'Open Sans', verdana, arial, sans-serif; font-size: 12px; fill: rgb(68, 68, 68); fill-opacity: 1; white-space: pre;">−0.5</text></g><g class="xtick"><text text-anchor="start" x="0" y="203" transform="translate(124.75,0) rotate(90,0,197)" style="font-family: 'Open Sans', verdana, arial, sans-serif; font-size: 12px; fill: rgb(68, 68, 68); fill-opacity: 1; white-space: pre;">−0.25</text></g><g class="xtick"><text text-anchor="start" x="0" y="203" transform="translate(153,0) rotate(90,0,197)" style="font-family: 'Open Sans', verdana, arial, sans-serif; font-size: 12px; fill: rgb(68, 68, 68); fill-opacity: 1; white-space: pre;">0</text></g><g class="xtick"><text text-anchor="start" x="0" y="203" transform="translate(181.25,0) rotate(90,0,197)" style="font-family: 'Open Sans', verdana, arial, sans-serif; font-size: 12px; fill: rgb(68, 68, 68); fill-opacity: 1; white-space: pre;">0.25</text></g><g class="xtick"><text text-anchor="start" x="0" y="203" transform="translate(209.5,0) rotate(90,0,197)" style="font-family: 'Open Sans', verdana, arial, sans-serif; font-size: 12px; fill: rgb(68, 68, 68); fill-opacity: 1; white-space: pre;">0.5</text></g><g class="xtick"><text text-anchor="start" x="0" y="203" transform="translate(237.75,0) rotate(90,0,197)" style="font-family: 'Open Sans', verdana, arial, sans-serif; font-size: 12px; fill: rgb(68, 68, 68); fill-opacity: 1; white-space: pre;">0.75</text></g><g class="xtick"><text text-anchor="start" x="0" y="203" transform="translate(266,0) rotate(90,0,197)" style="font-family: 'Open Sans', verdana, arial, sans-serif; font-size: 12px; fill: rgb(68, 68, 68); fill-opacity: 1; white-space: pre;">1</text></g></g><g class="yaxislayer-above"><g class="ytick"><text text-anchor="end" x="39" y="4.199999999999999" transform="translate(0,181.5)" style="font-family: 'Open Sans', verdana, arial, sans-serif; font-size: 12px; fill: rgb(68, 68, 68); fill-opacity: 1; white-space: pre;">Meis</text></g><g class="ytick"><text text-anchor="end" x="39" y="4.199999999999999" transform="translate(0,130.5)" style="font-family: 'Open Sans', verdana, arial, sans-serif; font-size: 12px; fill: rgb(68, 68, 68); fill-opacity: 1; white-space: pre;">Meus</text></g><g class="ytick"><text text-anchor="end" x="39" y="4.199999999999999" transform="translate(0,79.5)" style="font-family: 'Open Sans', verdana, arial, sans-serif; font-size: 12px; fill: rgb(68, 68, 68); fill-opacity: 1; white-space: pre;">Hyum</text></g></g><g class="overaxes-above"/></g></g><g class="polarlayer"/><g class="ternarylayer"/><g class="geolayer"/><g class="funnelarealayer"/><g class="pielayer"/><g class="treemaplayer"/><g class="sunburstlayer"/><g class="glimages"/><defs id="topdefs-295301"><g class="clips"/></defs><g class="layer-above"><g class="imagelayer"/><g class="shapelayer"><path data-index="0" fill-rule="evenodd" d="M141.7,181.5L141.7,28.5" clip-path="url('#clip295301xy')" style="opacity: 1; stroke: rgb(0, 0, 0); stroke-opacity: 1; fill: rgb(0, 0, 0); fill-opacity: 0; stroke-dasharray: 9px, 9px; stroke-width: 2px;"/><path data-index="1" fill-rule="evenodd" d="M164.3,181.5L164.3,28.5" clip-path="url('#clip295301xy')" style="opacity: 1; stroke: rgb(0, 0, 0); stroke-opacity: 1; fill: rgb(0, 0, 0); fill-opacity: 0; stroke-dasharray: 9px, 9px; stroke-width: 2px;"/></g></g><g class="infolayer"><g class="g-gtitle"/><g class="g-xtitle" transform="translate(0,0.703125)"><text class="xtitle" x="153" y="242" text-anchor="middle" style="font-family: 'Open Sans', verdana, arial, sans-serif; font-size: 14px; fill: rgb(68, 68, 68); opacity: 1; font-weight: normal; white-space: pre;">Coeficiente de Interacción</text></g><g class="g-ytitle"/></g></svg>