<svg class="main-svg" xmlns="http://www.w3.org/2000/svg" xmlns:xlink="http://www.w3.org/1999/xlink" width="286" height="250" style="" viewBox="0 0 286 250"><rect x="0" y="0" width="286" height="250" style="fill: rgb(255, 255, 255); fill-opacity: 1;"/><defs id="defs-32d1bc"><g class="clips"><clipPath id="clip32d1bcxyplot" class="plotclip"><rect width="226" height="170"/></clipPath><clipPath class="axesclip" id="clip32d1bcx"><rect x="40" y="0" width="226" height="250"/></clipPath><clipPath class="axesclip" id="clip32d1bcy"><rect x="0" y="20" width="286" height="170"/></clipPath><clipPath class="axesclip" id="clip32d1bcxy"><rect x="40" y="20" width="226" height="170"/></clipPath></g><g class="gradients"/></defs><g class="bglayer"/><g class="layer-below"><g class="imagelayer"/><g class="shapelayer"/></g><g class="cartesianlayer"><g class="subplot xy"><g class="layer-subplot"><g class="shapelayer"/><g class="imagelayer"/></g><g class="gridlayer"><g class="x"/><g class="y"><path class="ygrid crisp" transform="translate(0,181.5)" d="M40,0h226" style="stroke: rgb(238, 238, 238); stroke-opacity: 1; stroke-width: 1px;"/><path class="ygrid crisp" transform="translate(0,154.75)" d="M40,0h226" style="stroke: rgb(238, 238, 238); stroke-opacity: 1; stroke-width: 1px;"/><path class="ygrid crisp" transform="translate(0,128)" d="M40,0h226" style="stroke: rgb(238, 238, 238); stroke-opacity: 1; stroke-width: 1px;"/><path class="ygrid crisp" transform="translate(0,101.25)" d="M40,0h226" style="stroke: rgb(238, 238, 238); stroke-opacity: 1; stroke-width: 1px;"/><path class="ygrid crisp" transform="translate(0,74.5)" d="M40,0h226" style="stroke: rgb(238, 238, 238); stroke-opacity: 1; stroke-width: 1px;"/></g></g><g class="zerolinelayer"/><path class="xlines-below"/><path class="ylines-below"/><g class="overlines-below"/><g class="xaxislayer-below"/><g class="yaxislayer-below"/><g class="overaxes-below"/><g class="plot" transform="translate(40,20)" clip-path="url('#clip32d1bcxyplot')"><g class="violinlayer mlayer"><g class="trace violins" style="opacity: 1;"><path class="violin" d="M-17.65,161.5L-17.65,161.46Q-15.58,161.43 -14.54,161.41C-13.51,161.39 -12.47,161.36 -11.44,161.32C-10.4,161.28 -9.37,161.23 -8.33,161.16C-7.29,161.09 -6.25,161.01 -5.22,160.91C-4.18,160.81 -3.15,160.69 -2.12,160.55C-1.08,160.41 -0.05,160.24 0.99,160.07C2.03,159.89 3.07,159.7 4.1,159.5C5.14,159.3 6.17,159.08 7.2,158.87C8.24,158.65 9.27,158.43 10.31,158.21C11.35,157.99 12.38,157.77 13.42,157.55C14.45,157.33 15.49,157.12 16.52,156.91C17.56,156.7 18.59,156.49 19.63,156.27C20.67,156.05 21.7,155.83 22.74,155.6C23.77,155.37 24.81,155.13 25.84,154.89C26.88,154.64 27.91,154.39 28.95,154.13C29.99,153.87 31.02,153.61 32.06,153.35C33.09,153.09 34.13,152.82 35.16,152.56C36.2,152.3 37.23,152.05 38.27,151.8C39.31,151.55 40.34,151.3 41.38,151.05C42.41,150.8 43.45,150.56 44.48,150.32C45.52,150.07 46.55,149.83 47.59,149.58C48.63,149.33 49.66,149.07 50.7,148.81C51.73,148.55 52.77,148.29 53.8,148.03C54.84,147.77 55.87,147.51 56.91,147.25C57.95,146.99 58.98,146.73 60.02,146.46C61.05,146.2 62.09,145.93 63.12,145.66C64.16,145.39 65.19,145.12 66.23,144.83C67.27,144.54 68.31,144.25 69.34,143.94C70.38,143.63 71.41,143.31 72.44,142.99C73.48,142.67 74.51,142.34 75.55,142.02C76.59,141.7 77.62,141.37 78.66,141.06C79.69,140.75 80.72,140.46 81.76,140.18C82.79,139.91 83.83,139.65 84.87,139.41C85.9,139.18 86.94,138.97 87.98,138.77C89.01,138.58 90.05,138.41 91.08,138.24C92.12,138.07 93.15,137.93 94.19,137.77C95.23,137.62 96.26,137.47 97.3,137.31C98.33,137.15 99.37,136.98 100.4,136.81C101.44,136.64 102.47,136.45 103.51,136.27C104.55,136.09 105.58,135.89 106.62,135.71C107.65,135.54 108.68,135.36 109.72,135.22C110.75,135.08 111.79,134.96 112.83,134.88C113.87,134.8 114.9,134.76 115.94,134.75C116.97,134.74 118.01,134.78 119.04,134.84C120.08,134.9 121.11,135 122.15,135.12C123.19,135.24 124.23,135.39 125.26,135.55C126.3,135.71 127.33,135.89 128.36,136.09C129.4,136.29 130.44,136.5 131.47,136.73C132.51,136.96 133.54,137.2 134.57,137.45C135.61,137.7 136.64,137.97 137.68,138.25C138.72,138.53 139.76,138.82 140.79,139.12C141.83,139.43 142.86,139.75 143.89,140.08C144.93,140.41 145.96,140.75 147,141.09C148.04,141.43 149.07,141.78 150.11,142.13C151.14,142.47 152.18,142.82 153.21,143.16C154.25,143.5 155.28,143.84 156.32,144.16C157.36,144.48 158.39,144.79 159.43,145.09C160.46,145.38 161.49,145.66 162.53,145.93C163.56,146.2 164.6,146.45 165.64,146.69C166.68,146.93 167.71,147.16 168.75,147.39C169.78,147.62 170.82,147.83 171.85,148.05C172.89,148.27 173.92,148.49 174.96,148.71C176,148.93 177.03,149.16 178.07,149.39C179.1,149.62 180.14,149.86 181.17,150.11C182.21,150.36 183.24,150.61 184.28,150.87C185.32,151.13 186.35,151.4 187.39,151.67C188.42,151.94 189.46,152.21 190.49,152.48C191.53,152.75 192.56,153.02 193.6,153.28C194.64,153.54 195.67,153.81 196.71,154.06C197.74,154.31 198.78,154.56 199.81,154.8C200.85,155.04 201.88,155.28 202.92,155.52C203.96,155.75 204.99,155.98 206.03,156.21C207.06,156.44 208.1,156.67 209.13,156.9C210.17,157.13 211.2,157.36 212.24,157.59C213.28,157.82 214.31,158.04 215.35,158.27C216.38,158.49 217.41,158.72 218.45,158.94C219.48,159.15 220.52,159.36 221.56,159.56C222.6,159.75 223.63,159.94 224.67,160.11C225.7,160.28 226.73,160.44 227.77,160.57C228.8,160.7 229.84,160.81 230.88,160.91C231.92,161.01 232.95,161.09 233.99,161.16C235.02,161.23 236.06,161.27 237.09,161.31C238.13,161.35 239.16,161.38 240.2,161.41Q241.24,161.43 243.31,161.46L243.31,161.5" style="vector-effect: non-scaling-stroke; stroke-width: 2px; stroke: rgb(102, 194, 164); stroke-opacity: 1; fill: rgb(102, 194, 164); fill-opacity: 0.5;"/><path class="meanline" d="M112.94,134.8717803955078V161.5" style="fill: none; vector-effect: non-scaling-stroke; stroke-width: 2px; stroke-dasharray: 4px, 2px; stroke: rgb(102, 194, 164); stroke-opacity: 1;"/></g><g class="trace violins" style="opacity: 1;"><path class="violin" d="M-17.65,134.75L-17.65,134.71Q-15.58,134.68 -14.54,134.66C-13.51,134.64 -12.47,134.61 -11.44,134.57C-10.4,134.53 -9.37,134.48 -8.33,134.41C-7.29,134.34 -6.25,134.26 -5.22,134.16C-4.18,134.06 -3.15,133.94 -2.12,133.8C-1.08,133.66 -0.05,133.49 0.99,133.32C2.03,133.14 3.07,132.95 4.1,132.75C5.14,132.55 6.17,132.33 7.2,132.12C8.24,131.9 9.27,131.68 10.31,131.46C11.35,131.24 12.38,131.02 13.42,130.8C14.45,130.58 15.49,130.37 16.52,130.16C17.56,129.95 18.59,129.74 19.63,129.52C20.67,129.3 21.7,129.08 22.74,128.85C23.77,128.62 24.81,128.38 25.84,128.14C26.88,127.89 27.91,127.64 28.95,127.38C29.99,127.12 31.02,126.86 32.06,126.6C33.09,126.34 34.13,126.07 35.16,125.81C36.2,125.55 37.23,125.3 38.27,125.05C39.31,124.8 40.34,124.55 41.38,124.3C42.41,124.05 43.45,123.81 44.48,123.57C45.52,123.32 46.55,123.08 47.59,122.83C48.63,122.58 49.66,122.32 50.7,122.06C51.73,121.8 52.77,121.54 53.8,121.28C54.84,121.02 55.87,120.76 56.91,120.5C57.95,120.24 58.98,119.98 60.02,119.71C61.05,119.45 62.09,119.18 63.12,118.91C64.16,118.64 65.19,118.37 66.23,118.08C67.27,117.79 68.31,117.5 69.34,117.19C70.38,116.88 71.41,116.56 72.44,116.24C73.48,115.92 74.51,115.59 75.55,115.27C76.59,114.95 77.62,114.62 78.66,114.31C79.69,114 80.72,113.71 81.76,113.43C82.79,113.16 83.83,112.9 84.87,112.66C85.9,112.43 86.94,112.22 87.98,112.02C89.01,111.83 90.05,111.66 91.08,111.49C92.12,111.32 93.15,111.18 94.19,111.02C95.23,110.87 96.26,110.72 97.3,110.56C98.33,110.4 99.37,110.23 100.4,110.06C101.44,109.89 102.47,109.7 103.51,109.52C104.55,109.34 105.58,109.14 106.62,108.96C107.65,108.79 108.68,108.61 109.72,108.47C110.75,108.33 111.79,108.21 112.83,108.13C113.87,108.05 114.9,108.01 115.94,108C116.97,107.99 118.01,108.03 119.04,108.09C120.08,108.15 121.11,108.25 122.15,108.37C123.19,108.49 124.23,108.64 125.26,108.8C126.3,108.96 127.33,109.14 128.36,109.34C129.4,109.54 130.44,109.75 131.47,109.98C132.51,110.21 133.54,110.45 134.57,110.7C135.61,110.95 136.64,111.22 137.68,111.5C138.72,111.78 139.76,112.07 140.79,112.37C141.83,112.68 142.86,113 143.89,113.33C144.93,113.66 145.96,114 147,114.34C148.04,114.68 149.07,115.03 150.11,115.38C151.14,115.72 152.18,116.07 153.21,116.41C154.25,116.75 155.28,117.09 156.32,117.41C157.36,117.73 158.39,118.04 159.43,118.34C160.46,118.63 161.49,118.91 162.53,119.18C163.56,119.45 164.6,119.7 165.64,119.94C166.68,120.18 167.71,120.41 168.75,120.64C169.78,120.87 170.82,121.08 171.85,121.3C172.89,121.52 173.92,121.74 174.96,121.96C176,122.18 177.03,122.41 178.07,122.64C179.1,122.87 180.14,123.11 181.17,123.36C182.21,123.61 183.24,123.86 184.28,124.12C185.32,124.38 186.35,124.65 187.39,124.92C188.42,125.19 189.46,125.46 190.49,125.73C191.53,126 192.56,126.27 193.6,126.53C194.64,126.79 195.67,127.06 196.71,127.31C197.74,127.56 198.78,127.81 199.81,128.05C200.85,128.29 201.88,128.53 202.92,128.77C203.96,129 204.99,129.23 206.03,129.46C207.06,129.69 208.1,129.92 209.13,130.15C210.17,130.38 211.2,130.61 212.24,130.84C213.28,131.07 214.31,131.29 215.35,131.52C216.38,131.74 217.41,131.97 218.45,132.19C219.48,132.4 220.52,132.61 221.56,132.81C222.6,133 223.63,133.19 224.67,133.36C225.7,133.53 226.73,133.69 227.77,133.82C228.8,133.95 229.84,134.06 230.88,134.16C231.92,134.26 232.95,134.34 233.99,134.41C235.02,134.48 236.06,134.52 237.09,134.56C238.13,134.6 239.16,134.63 240.2,134.66Q241.24,134.68 243.31,134.71L243.31,134.75" style="vector-effect: non-scaling-stroke; stroke-width: 2px; stroke: rgb(102, 194, 164); stroke-opacity: 1; fill: rgb(102, 194, 164); fill-opacity: 0.5;"/><path class="meanline" d="M112.94,108.12178039550781V134.75" style="fill: none; vector-effect: non-scaling-stroke; stroke-width: 2px; stroke-dasharray: 4px, 2px; stroke: rgb(102, 194, 164); stroke-opacity: 1;"/></g><g class="trace violins" style="opacity: 1;"><path class="violin" d="M-17.65,108L-17.65,107.96Q-15.58,107.93 -14.54,107.91C-13.51,107.89 -12.47,107.86 -11.44,107.82C-10.4,107.78 -9.37,107.73 -8.33,107.66C-7.29,107.59 -6.25,107.51 -5.22,107.41C-4.18,107.31 -3.15,107.19 -2.12,107.05C-1.08,106.91 -0.05,106.74 0.99,106.57C2.03,106.39 3.07,106.2 4.1,106C5.14,105.8 6.17,105.58 7.2,105.37C8.24,105.15 9.27,104.93 10.31,104.71C11.35,104.49 12.38,104.27 13.42,104.05C14.45,103.83 15.49,103.62 16.52,103.41C17.56,103.2 18.59,102.99 19.63,102.77C20.67,102.55 21.7,102.33 22.74,102.1C23.77,101.87 24.81,101.63 25.84,101.39C26.88,101.14 27.91,100.89 28.95,100.63C29.99,100.37 31.02,100.11 32.06,99.85C33.09,99.59 34.13,99.32 35.16,99.06C36.2,98.8 37.23,98.55 38.27,98.3C39.31,98.05 40.34,97.8 41.38,97.55C42.41,97.3 43.45,97.06 44.48,96.82C45.52,96.57 46.55,96.33 47.59,96.08C48.63,95.83 49.66,95.57 50.7,95.31C51.73,95.05 52.77,94.79 53.8,94.53C54.84,94.27 55.87,94.01 56.91,93.75C57.95,93.49 58.98,93.23 60.02,92.96C61.05,92.7 62.09,92.43 63.12,92.16C64.16,91.89 65.19,91.62 66.23,91.33C67.27,91.04 68.31,90.75 69.34,90.44C70.38,90.13 71.41,89.81 72.44,89.49C73.48,89.17 74.51,88.84 75.55,88.52C76.59,88.2 77.62,87.87 78.66,87.56C79.69,87.25 80.72,86.96 81.76,86.68C82.79,86.41 83.83,86.15 84.87,85.91C85.9,85.68 86.94,85.47 87.98,85.27C89.01,85.08 90.05,84.91 91.08,84.74C92.12,84.57 93.15,84.43 94.19,84.27C95.23,84.12 96.26,83.97 97.3,83.81C98.33,83.65 99.37,83.48 100.4,83.31C101.44,83.14 102.47,82.95 103.51,82.77C104.55,82.59 105.58,82.39 106.62,82.21C107.65,82.04 108.68,81.86 109.72,81.72C110.75,81.58 111.79,81.46 112.83,81.38C113.87,81.3 114.9,81.26 115.94,81.25C116.97,81.24 118.01,81.28 119.04,81.34C120.08,81.4 121.11,81.5 122.15,81.62C123.19,81.74 124.23,81.89 125.26,82.05C126.3,82.21 127.33,82.39 128.36,82.59C129.4,82.79 130.44,83 131.47,83.23C132.51,83.46 133.54,83.7 134.57,83.95C135.61,84.2 136.64,84.47 137.68,84.75C138.72,85.03 139.76,85.32 140.79,85.62C141.83,85.93 142.86,86.25 143.89,86.58C144.93,86.91 145.96,87.25 147,87.59C148.04,87.93 149.07,88.28 150.11,88.63C151.14,88.97 152.18,89.32 153.21,89.66C154.25,90 155.28,90.34 156.32,90.66C157.36,90.98 158.39,91.29 159.43,91.59C160.46,91.88 161.49,92.16 162.53,92.43C163.56,92.7 164.6,92.95 165.64,93.19C166.68,93.43 167.71,93.66 168.75,93.89C169.78,94.12 170.82,94.33 171.85,94.55C172.89,94.77 173.92,94.99 174.96,95.21C176,95.43 177.03,95.66 178.07,95.89C179.1,96.12 180.14,96.36 181.17,96.61C182.21,96.86 183.24,97.11 184.28,97.37C185.32,97.63 186.35,97.9 187.39,98.17C188.42,98.44 189.46,98.71 190.49,98.98C191.53,99.25 192.56,99.52 193.6,99.78C194.64,100.04 195.67,100.31 196.71,100.56C197.74,100.81 198.78,101.06 199.81,101.3C200.85,101.54 201.88,101.78 202.92,102.02C203.96,102.25 204.99,102.48 206.03,102.71C207.06,102.94 208.1,103.17 209.13,103.4C210.17,103.63 211.2,103.86 212.24,104.09C213.28,104.32 214.31,104.54 215.35,104.77C216.38,104.99 217.41,105.22 218.45,105.44C219.48,105.65 220.52,105.86 221.56,106.06C222.6,106.25 223.63,106.44 224.67,106.61C225.7,106.78 226.73,106.94 227.77,107.07C228.8,107.2 229.84,107.31 230.88,107.41C231.92,107.51 232.95,107.59 233.99,107.66C235.02,107.73 236.06,107.77 237.09,107.81C238.13,107.85 239.16,107.88 240.2,107.91Q241.24,107.93 243.31,107.96L243.31,108" style="vector-effect: non-scaling-stroke; stroke-width: 2px; stroke: rgb(102, 194, 164); stroke-opacity: 1; fill: rgb(102, 194, 164); fill-opacity: 0.5;"/><path class="meanline" d="M112.94,81.37178039550781V108" style="fill: none; vector-effect: non-scaling-stroke; stroke-width: 2px; stroke-dasharray: 4px, 2px; stroke: rgb(102, 194, 164); stroke-opacity: 1;"/></g><g class="trace violins" style="opacity: 1;"><path class="violin" d="M-17.65,81.25L-17.65,81.21Q-15.58,81.18 -14.54,81.16C-13.51,81.14 -12.47,81.11 -11.44,81.07C-10.4,81.03 -9.37,80.98 -8.33,80.91C-7.29,80.84 -6.25,80.76 -5.22,80.66C-4.18,80.56 -3.15,80.44 -2.12,80.3C-1.08,80.16 -0.05,79.99 0.99,79.82C2.03,79.64 3.07,79.45 4.1,79.25C5.14,79.05 6.17,78.83 7.2,78.62C8.24,78.4 9.27,78.18 10.31,77.96C11.35,77.74 12.38,77.52 13.42,77.3C14.45,77.08 15.49,76.87 16.52,76.66C17.56,76.45 18.59,76.24 19.63,76.02C20.67,75.8 21.7,75.58 22.74,75.35C23.77,75.12 24.81,74.88 25.84,74.64C26.88,74.39 27.91,74.14 28.95,73.88C29.99,73.62 31.02,73.36 32.06,73.1C33.09,72.84 34.13,72.57 35.16,72.31C36.2,72.05 37.23,71.8 38.27,71.55C39.31,71.3 40.34,71.05 41.38,70.8C42.41,70.55 43.45,70.31 44.48,70.07C45.52,69.82 46.55,69.58 47.59,69.33C48.63,69.08 49.66,68.82 50.7,68.56C51.73,68.3 52.77,68.04 53.8,67.78C54.84,67.52 55.87,67.26 56.91,67C57.95,66.74 58.98,66.48 60.02,66.21C61.05,65.95 62.09,65.68 63.12,65.41C64.16,65.14 65.19,64.87 66.23,64.58C67.27,64.29 68.31,64 69.34,63.69C70.38,63.38 71.41,63.06 72.44,62.74C73.48,62.42 74.51,62.09 75.55,61.77C76.59,61.45 77.62,61.12 78.66,60.81C79.69,60.5 80.72,60.21 81.76,59.93C82.79,59.66 83.83,59.4 84.87,59.16C85.9,58.93 86.94,58.72 87.98,58.52C89.01,58.33 90.05,58.16 91.08,57.99C92.12,57.82 93.15,57.68 94.19,57.52C95.23,57.37 96.26,57.22 97.3,57.06C98.33,56.9 99.37,56.73 100.4,56.56C101.44,56.39 102.47,56.2 103.51,56.02C104.55,55.84 105.58,55.64 106.62,55.46C107.65,55.29 108.68,55.11 109.72,54.97C110.75,54.83 111.79,54.71 112.83,54.63C113.87,54.55 114.9,54.51 115.94,54.5C116.97,54.49 118.01,54.53 119.04,54.59C120.08,54.65 121.11,54.75 122.15,54.87C123.19,54.99 124.23,55.14 125.26,55.3C126.3,55.46 127.33,55.64 128.36,55.84C129.4,56.04 130.44,56.25 131.47,56.48C132.51,56.71 133.54,56.95 134.57,57.2C135.61,57.45 136.64,57.72 137.68,58C138.72,58.28 139.76,58.57 140.79,58.87C141.83,59.18 142.86,59.5 143.89,59.83C144.93,60.16 145.96,60.5 147,60.84C148.04,61.18 149.07,61.53 150.11,61.88C151.14,62.22 152.18,62.57 153.21,62.91C154.25,63.25 155.28,63.59 156.32,63.91C157.36,64.23 158.39,64.54 159.43,64.84C160.46,65.13 161.49,65.41 162.53,65.68C163.56,65.95 164.6,66.2 165.64,66.44C166.68,66.68 167.71,66.91 168.75,67.14C169.78,67.37 170.82,67.58 171.85,67.8C172.89,68.02 173.92,68.24 174.96,68.46C176,68.68 177.03,68.91 178.07,69.14C179.1,69.37 180.14,69.61 181.17,69.86C182.21,70.11 183.24,70.36 184.28,70.62C185.32,70.88 186.35,71.15 187.39,71.42C188.42,71.69 189.46,71.96 190.49,72.23C191.53,72.5 192.56,72.77 193.6,73.03C194.64,73.29 195.67,73.56 196.71,73.81C197.74,74.06 198.78,74.31 199.81,74.55C200.85,74.79 201.88,75.03 202.92,75.27C203.96,75.5 204.99,75.73 206.03,75.96C207.06,76.19 208.1,76.42 209.13,76.65C210.17,76.88 211.2,77.11 212.24,77.34C213.28,77.57 214.31,77.79 215.35,78.02C216.38,78.24 217.41,78.47 218.45,78.69C219.48,78.9 220.52,79.11 221.56,79.31C222.6,79.5 223.63,79.69 224.67,79.86C225.7,80.03 226.73,80.19 227.77,80.32C228.8,80.45 229.84,80.56 230.88,80.66C231.92,80.76 232.95,80.84 233.99,80.91C235.02,80.98 236.06,81.02 237.09,81.06C238.13,81.1 239.16,81.13 240.2,81.16Q241.24,81.18 243.31,81.21L243.31,81.25" style="vector-effect: non-scaling-stroke; stroke-width: 2px; stroke: rgb(102, 194, 164); stroke-opacity: 1; fill: rgb(102, 194, 164); fill-opacity: 0.5;"/><path class="meanline" d="M112.94,54.621788024902344V81.25" style="fill: none; vector-effect: non-scaling-stroke; stroke-width: 2px; stroke-dasharray: 4px, 2px; stroke: rgb(102, 194, 164); stroke-opacity: 1;"/></g><g class="trace violins" style="opacity: 1;"><path class="violin" d="M-17.65,54.5L-17.65,54.46Q-15.58,54.43 -14.54,54.41C-13.51,54.39 -12.47,54.36 -11.44,54.32C-10.4,54.28 -9.37,54.23 -8.33,54.16C-7.29,54.09 -6.25,54.01 -5.22,53.91C-4.18,53.81 -3.15,53.69 -2.12,53.55C-1.08,53.41 -0.05,53.24 0.99,53.07C2.03,52.89 3.07,52.7 4.1,52.5C5.14,52.3 6.17,52.08 7.2,51.87C8.24,51.65 9.27,51.43 10.31,51.21C11.35,50.99 12.38,50.77 13.42,50.55C14.45,50.33 15.49,50.12 16.52,49.91C17.56,49.7 18.59,49.49 19.63,49.27C20.67,49.05 21.7,48.83 22.74,48.6C23.77,48.37 24.81,48.13 25.84,47.89C26.88,47.64 27.91,47.39 28.95,47.13C29.99,46.87 31.02,46.61 32.06,46.35C33.09,46.09 34.13,45.82 35.16,45.56C36.2,45.3 37.23,45.05 38.27,44.8C39.31,44.55 40.34,44.3 41.38,44.05C42.41,43.8 43.45,43.56 44.48,43.32C45.52,43.07 46.55,42.83 47.59,42.58C48.63,42.33 49.66,42.07 50.7,41.81C51.73,41.55 52.77,41.29 53.8,41.03C54.84,40.77 55.87,40.51 56.91,40.25C57.95,39.99 58.98,39.73 60.02,39.46C61.05,39.2 62.09,38.93 63.12,38.66C64.16,38.39 65.19,38.12 66.23,37.83C67.27,37.54 68.31,37.25 69.34,36.94C70.38,36.63 71.41,36.31 72.44,35.99C73.48,35.67 74.51,35.34 75.55,35.02C76.59,34.7 77.62,34.37 78.66,34.06C79.69,33.75 80.72,33.46 81.76,33.18C82.79,32.91 83.83,32.65 84.87,32.41C85.9,32.18 86.94,31.97 87.98,31.77C89.01,31.58 90.05,31.41 91.08,31.24C92.12,31.07 93.15,30.93 94.19,30.77C95.23,30.62 96.26,30.47 97.3,30.31C98.33,30.15 99.37,29.98 100.4,29.81C101.44,29.64 102.47,29.45 103.51,29.27C104.55,29.09 105.58,28.89 106.62,28.71C107.65,28.54 108.68,28.36 109.72,28.22C110.75,28.08 111.79,27.96 112.83,27.88C113.87,27.8 114.9,27.76 115.94,27.75C116.97,27.74 118.01,27.78 119.04,27.84C120.08,27.9 121.11,28 122.15,28.12C123.19,28.24 124.23,28.39 125.26,28.55C126.3,28.71 127.33,28.89 128.36,29.09C129.4,29.29 130.44,29.5 131.47,29.73C132.51,29.96 133.54,30.2 134.57,30.45C135.61,30.7 136.64,30.97 137.68,31.25C138.72,31.53 139.76,31.82 140.79,32.12C141.83,32.43 142.86,32.75 143.89,33.08C144.93,33.41 145.96,33.75 147,34.09C148.04,34.43 149.07,34.78 150.11,35.13C151.14,35.47 152.18,35.82 153.21,36.16C154.25,36.5 155.28,36.84 156.32,37.16C157.36,37.48 158.39,37.79 159.43,38.09C160.46,38.38 161.49,38.66 162.53,38.93C163.56,39.2 164.6,39.45 165.64,39.69C166.68,39.93 167.71,40.16 168.75,40.39C169.78,40.62 170.82,40.83 171.85,41.05C172.89,41.27 173.92,41.49 174.96,41.71C176,41.93 177.03,42.16 178.07,42.39C179.1,42.62 180.14,42.86 181.17,43.11C182.21,43.36 183.24,43.61 184.28,43.87C185.32,44.13 186.35,44.4 187.39,44.67C188.42,44.94 189.46,45.21 190.49,45.48C191.53,45.75 192.56,46.02 193.6,46.28C194.64,46.54 195.67,46.81 196.71,47.06C197.74,47.31 198.78,47.56 199.81,47.8C200.85,48.04 201.88,48.28 202.92,48.52C203.96,48.75 204.99,48.98 206.03,49.21C207.06,49.44 208.1,49.67 209.13,49.9C210.17,50.13 211.2,50.36 212.24,50.59C213.28,50.82 214.31,51.04 215.35,51.27C216.38,51.49 217.41,51.72 218.45,51.94C219.48,52.15 220.52,52.36 221.56,52.56C222.6,52.75 223.63,52.94 224.67,53.11C225.7,53.28 226.73,53.44 227.77,53.57C228.8,53.7 229.84,53.81 230.88,53.91C231.92,54.01 232.95,54.09 233.99,54.16C235.02,54.23 236.06,54.27 237.09,54.31C238.13,54.35 239.16,54.38 240.2,54.41Q241.24,54.43 243.31,54.46L243.31,54.5" style="vector-effect: non-scaling-stroke; stroke-width: 2px; stroke: rgb(102, 194, 164); stroke-opacity: 1; fill: rgb(102, 194, 164); fill-opacity: 0.5;"/><path class="meanline" d="M112.94,27.871784210205078V54.5" style="fill: none; vector-effect: non-scaling-stroke; stroke-width: 2px; stroke-dasharray: 4px, 2px; stroke: rgb(102, 194, 164); stroke-opacity: 1;"/></g></g></g><g class="overplot"/><path class="xlines-above crisp" d="M0,0" style="fill: none;"/><path class="ylines-above crisp" d="M0,0" style="fill: none;"/><g class="overlines-above"/><g class="xaxislayer-above"><g class="xtick"><text text-anchor="start" x="0" y="203" transform="translate(40,0) rotate(90,0,197)" style="font-family: 'Open Sans', verdana, arial, sans-serif; font-size: 12px; fill: rgb(68, 68, 68); fill-opacity: 1; white-space: pre;">−1</text></g><g class="xtick"><text text-anchor="start" x="0" y="203" transform="translate(68.25,0) rotate(90,0,197)" style="font-family: 'Open Sans', verdana, arial, sans-serif; font-size: 12px; fill: rgb(68, 68, 68); fill-opacity: 1; white-space: pre;">−0.75</text></g><g class="xtick"><text text-anchor="start" x="0" y="203" transform="translate(96.5,0) rotate(90,0,197)" style="font-family: 'Open Sans', verdana, arial, sans-serif; font-size: 12px; fill: rgb(68, 68, 68); fill-opacity: 1; white-space: pre;">−0.5</text></g><g class="xtick"><text text-anchor="start" x="0" y="203" transform="translate(124.75,0) rotate(90,0,197)" style="font-family: 'Open Sans', verdana, arial, sans-serif; font-size: 12px; fill: rgb(68, 68, 68); fill-opacity: 1; white-space: pre;">−0.25</text></g><g class="xtick"><text text-anchor="start" x="0" y="203" transform="translate(153,0) rotate(90,0,197)" style="font-family: 'Open Sans', verdana, arial, sans-serif; font-size: 12px; fill: rgb(68, 68, 68); fill-opacity: 1; white-space: pre;">0</text></g><g class="xtick"><text text-anchor="start" x="0" y="203" transform="translate(181.25,0) rotate(90,0,197)" style="font-family: 'Open Sans', verdana, arial, sans-serif; font-size: 12px; fill: rgb(68, 68, 68); fill-opacity: 1; white-space: pre;">0.25</text></g><g class="xtick"><text text-anchor="start" x="0" y="203" transform="translate(209.5,0) rotate(90,0,197)" style="font-family: 'Open Sans', verdana, arial, sans-serif; font-size: 12px; fill: rgb(68, 68, 68); fill-opacity: 1; white-space: pre;">0.5</text></g><g class="xtick"><text text-anchor="start" x="0" y="203" transform="translate(237.75,0) rotate(90,0,197)" style="font-family: 'Open Sans', verdana, arial, sans-serif; font-size: 12px; fill: rgb(68, 68, 68); fill-opacity: 1; white-space: pre;">0.75</text></g><g class="xtick"><text text-anchor="start" x="0" y="203" transform="translate(266,0) rotate(90,0,197)" style="font-family: 'Open Sans', verdana, arial, sans-serif; font-size: 12px; fill: rgb(68, 68, 68); fill-opacity: 1; white-space: pre;">1</text></g></g><g class="yaxislayer-above"><g class="ytick"><text text-anchor="end" x="39" y="4.199999999999999" transform="translate(0,181.5)" style="font-family: 'Open Sans', verdana, arial, sans-serif; font-size: 12px; fill: rgb(68, 68, 68); fill-opacity: 1; white-space: pre;">Meis</text></g><g class="ytick"><text text-anchor="end" x="39" y="4.199999999999999" transform="translate(0,154.75)" style="font-family: 'Open Sans', verdana, arial, sans-serif; font-size: 12px; fill: rgb(68, 68, 68); fill-opacity: 1; white-space: pre;">Meus</text></g><g class="ytick"><text text-anchor="end" x="39" y="4.199999999999999" transform="translate(0,128)" style="font-family: 'Open Sans', verdana, arial, sans-serif; font-size: 12px; fill: rgb(68, 68, 68); fill-opacity: 1; white-space: pre;">Hyum</text></g><g class="ytick"><text text-anchor="end" x="39" y="4.199999999999999" transform="translate(0,101.25)" style="font-family: 'Open Sans', verdana, arial, sans-serif; font-size: 12px; fill: rgb(68, 68, 68); fill-opacity: 1; white-space: pre;">Seum</text></g><g class="ytick"><text text-anchor="end" x="39" y="4.199999999999999" transform="translate(0,74.5)" style="font-family: 'Open Sans', verdana, arial, sans-serif; font-size: 12px; fill: rgb(68, 68, 68); fill-opacity: 1; white-space: pre;">Teas</text></g></g><g class="overaxes-above"/></g></g><g class="polarlayer"/><g class="ternarylayer"/><g class="geolayer"/><g class="funnelarealayer"/><g class="pielayer"/><g class="treemaplayer"/><g class="sunburstlayer"/><g class="glimages"/><defs id="topdefs-32d1bc"><g class="clips"/></defs><g class="layer-above"><g class="imagelayer"/><g class="shapelayer"><path data-index="0" fill-rule="evenodd" d="M141.7,181.5L141.7,21" clip-path="url('#clip32d1bcxy')" style="opacity: 1; stroke: rgb(0, 0, 0); stroke-opacity: 1; fill: rgb(0, 0, 0); fill-opacity: 0; stroke-dasharray: 9px, 9px; stroke-width: 2px;"/><path data-index="1" fill-rule="evenodd" d="M164.3,181.5L164.3,21" clip-path="url('#clip32d1bcxy')" style="opacity: 1; stroke: rgb(0, 0, 0); stroke-opacity: 1; fill: rgb(0, 0, 0); fill-opacity: 0; stroke-dasharray: 9px, 9px; stroke-width: 2px;"/></g></g><g class="infolayer"><g class="g-gtitle"><text class="gtitle" x="143" y="10" text-anchor="middle" dy="0em" style="font-family: Calibri; font-size: 14px; fill: rgb(68, 68, 68); opacity: 1; font-weight: normal; white-space: pre;">CIR_19</text></g><g class="g-xtitle" transform="translate(0,0.703125)"><text class="xtitle" x="153" y="242" text-anchor="middle" style="font-family: 'Open Sans', verdana, arial, sans-serif; font-size: 14px; fill: rgb(68, 68, 68); opacity: 1; font-weight: normal; white-space: pre;">Coeficiente de Interacción</text></g><g class="g-ytitle"/></g></svg>