<svg class="main-svg" xmlns="http://www.w3.org/2000/svg" xmlns:xlink="http://www.w3.org/1999/xlink" width="286" height="250" style="" viewBox="0 0 286 250"><rect x="0" y="0" width="286" height="250" style="fill: rgb(255, 255, 255); fill-opacity: 1;"/><defs id="defs-674fd0"><g class="clips"><clipPath id="clip674fd0xyplot" class="plotclip"><rect width="226" height="170"/></clipPath><clipPath class="axesclip" id="clip674fd0x"><rect x="40" y="0" width="226" height="250"/></clipPath><clipPath class="axesclip" id="clip674fd0y"><rect x="0" y="20" width="286" height="170"/></clipPath><clipPath class="axesclip" id="clip674fd0xy"><rect x="40" y="20" width="226" height="170"/></clipPath></g><g class="gradients"/></defs><g class="bglayer"/><g class="layer-below"><g class="imagelayer"/><g class="shapelayer"/></g><g class="cartesianlayer"><g class="subplot xy"><g class="layer-subplot"><g class="shapelayer"/><g class="imagelayer"/></g><g class="gridlayer"><g class="x"/><g class="y"><path class="ygrid crisp" transform="translate(0,181.5)" d="M40,0h226" style="stroke: rgb(238, 238, 238); stroke-opacity: 1; stroke-width: 1px;"/><path class="ygrid crisp" transform="translate(0,143.25)" d="M40,0h226" style="stroke: rgb(238, 238, 238); stroke-opacity: 1; stroke-width: 1px;"/><path class="ygrid crisp" transform="translate(0,105)" d="M40,0h226" style="stroke: rgb(238, 238, 238); stroke-opacity: 1; stroke-width: 1px;"/><path class="ygrid crisp" transform="translate(0,66.75)" d="M40,0h226" style="stroke: rgb(238, 238, 238); stroke-opacity: 1; stroke-width: 1px;"/></g></g><g class="zerolinelayer"/><path class="xlines-below"/><path class="ylines-below"/><g class="overlines-below"/><g class="xaxislayer-below"/><g class="yaxislayer-below"/><g class="overaxes-below"/><g class="plot" transform="translate(40,20)" clip-path="url('#clip674fd0xyplot')"><g class="violinlayer mlayer"><g class="trace violins" style="opacity: 1;"><path class="violin" d="M119.3,161.5L119.3,161.49Q119.33,161.49 119.34,161.49C119.35,161.49 119.36,161.48 119.37,161.48C119.38,161.47 119.4,161.47 119.41,161.46C119.42,161.45 119.44,161.45 119.45,161.44C119.46,161.43 119.47,161.43 119.48,161.42C119.49,161.41 119.51,161.4 119.52,161.39C119.53,161.38 119.54,161.37 119.55,161.35C119.56,161.33 119.58,161.31 119.59,161.28C119.6,161.25 119.61,161.22 119.62,161.18C119.63,161.14 119.65,161.08 119.66,161.03C119.67,160.97 119.68,160.91 119.69,160.84C119.7,160.77 119.72,160.69 119.73,160.61C119.74,160.52 119.75,160.43 119.76,160.34C119.77,160.24 119.79,160.14 119.8,160.03C119.81,159.92 119.82,159.81 119.83,159.69C119.84,159.57 119.86,159.44 119.87,159.31C119.88,159.17 119.89,159.02 119.9,158.87C119.91,158.71 119.93,158.54 119.94,158.37C119.95,158.19 119.96,158.01 119.97,157.83C119.98,157.64 120,157.45 120.01,157.25C120.02,157.04 120.03,156.84 120.04,156.62C120.05,156.39 120.07,156.15 120.08,155.91C120.09,155.65 120.1,155.39 120.11,155.12C120.12,154.82 120.14,154.51 120.15,154.19C120.16,153.84 120.17,153.48 120.18,153.1C120.19,152.7 120.21,152.29 120.22,151.86C120.23,151.41 120.24,150.94 120.25,150.46C120.26,149.97 120.28,149.46 120.29,148.95C120.3,148.43 120.31,147.89 120.32,147.36C120.33,146.82 120.35,146.28 120.36,145.74C120.37,145.21 120.38,144.67 120.39,144.14C120.4,143.61 120.42,143.09 120.43,142.56C120.44,142.03 120.45,141.51 120.46,140.98C120.47,140.45 120.49,139.91 120.5,139.37C120.51,138.82 120.52,138.25 120.53,137.69C120.54,137.12 120.56,136.54 120.57,135.97C120.58,135.4 120.59,134.83 120.6,134.28C120.61,133.75 120.63,133.23 120.64,132.73C120.65,132.27 120.66,131.82 120.67,131.39C120.68,130.99 120.7,130.61 120.71,130.25C120.72,129.91 120.73,129.6 120.74,129.28C120.75,128.97 120.77,128.67 120.78,128.36C120.79,128.05 120.8,127.74 120.81,127.42C120.82,127.1 120.84,126.77 120.85,126.44C120.86,126.12 120.87,125.79 120.88,125.47C120.89,125.17 120.91,124.86 120.92,124.58C120.93,124.33 120.95,124.09 120.96,123.88C120.97,123.71 120.97,123.54 120.99,123.42C121,123.35 121.02,123.25 121.03,123.25C121.04,123.25 121.05,123.3 121.06,123.34C121.08,123.41 121.09,123.54 121.1,123.65C121.11,123.78 121.12,123.94 121.13,124.09C121.14,124.25 121.16,124.42 121.17,124.59C121.18,124.76 121.19,124.94 121.2,125.12C121.21,125.3 121.23,125.48 121.24,125.66C121.25,125.84 121.26,126.03 121.27,126.22C121.28,126.42 121.3,126.62 121.31,126.82C121.32,127.03 121.33,127.24 121.34,127.46C121.35,127.69 121.37,127.91 121.38,128.15C121.39,128.4 121.4,128.65 121.41,128.91C121.42,129.19 121.44,129.47 121.45,129.76C121.46,130.06 121.47,130.37 121.48,130.68C121.49,131.01 121.51,131.35 121.52,131.69C121.53,132.05 121.54,132.42 121.55,132.8C121.56,133.19 121.58,133.6 121.59,134.01C121.6,134.45 121.61,134.89 121.62,135.35C121.63,135.83 121.65,136.32 121.66,136.82C121.67,137.33 121.68,137.86 121.69,138.39C121.7,138.93 121.72,139.48 121.73,140.03C121.74,140.58 121.75,141.14 121.76,141.68C121.77,142.21 121.79,142.75 121.8,143.27C121.81,143.78 121.82,144.28 121.83,144.77C121.84,145.24 121.86,145.71 121.87,146.17C121.88,146.61 121.89,147.05 121.9,147.48C121.91,147.9 121.93,148.31 121.94,148.72C121.95,149.12 121.96,149.52 121.97,149.92C121.98,150.31 122,150.7 122.01,151.09C122.02,151.47 122.03,151.85 122.04,152.23C122.05,152.6 122.07,152.97 122.08,153.33C122.09,153.67 122.1,154.01 122.11,154.34C122.12,154.65 122.14,154.96 122.15,155.26C122.16,155.54 122.17,155.82 122.18,156.09C122.19,156.34 122.21,156.59 122.22,156.83C122.23,157.07 122.24,157.3 122.25,157.53C122.26,157.75 122.28,157.97 122.29,158.18C122.3,158.38 122.31,158.59 122.32,158.78C122.33,158.96 122.35,159.15 122.36,159.32C122.37,159.47 122.38,159.62 122.39,159.76C122.4,159.88 122.42,160 122.43,160.1C122.44,160.19 122.46,160.27 122.47,160.34C122.48,160.4 122.49,160.45 122.5,160.49C122.51,160.52 122.53,160.55 122.54,160.57C122.55,160.59 122.56,160.6 122.57,160.61C122.58,160.62 122.6,160.62 122.61,160.62C122.62,160.62 122.63,160.63 122.64,160.63C122.65,160.64 122.67,160.64 122.68,160.65C122.69,160.66 122.7,160.68 122.71,160.7C122.72,160.72 122.74,160.75 122.75,160.78C122.76,160.81 122.77,160.85 122.78,160.88C122.79,160.92 122.81,160.95 122.82,160.99C122.83,161.03 122.84,161.07 122.85,161.1C122.86,161.13 122.88,161.16 122.89,161.19C122.9,161.21 122.91,161.24 122.92,161.26C122.93,161.28 122.95,161.29 122.96,161.3C122.97,161.31 122.98,161.32 122.99,161.33C123,161.34 123.02,161.34 123.03,161.34C123.04,161.34 123.05,161.34 123.06,161.34C123.07,161.34 123.09,161.35 123.1,161.35C123.11,161.35 123.12,161.36 123.13,161.36C123.14,161.37 123.16,161.37 123.17,161.38C123.18,161.39 123.19,161.39 123.2,161.4C123.21,161.41 123.23,161.42 123.24,161.43C123.25,161.44 123.26,161.44 123.27,161.45C123.28,161.46 123.3,161.46 123.31,161.47C123.32,161.47 123.33,161.48 123.34,161.48Q123.35,161.48 123.38,161.49L123.38,161.5" style="vector-effect: non-scaling-stroke; stroke-width: 2px; stroke: rgb(102, 194, 164); stroke-opacity: 1; fill: rgb(102, 194, 164); fill-opacity: 0.5;"/><path class="meanline" d="M121.12,123.9424819946289V161.5" style="fill: none; vector-effect: non-scaling-stroke; stroke-width: 2px; stroke-dasharray: 4px, 2px; stroke: rgb(102, 194, 164); stroke-opacity: 1;"/></g><g class="trace violins" style="opacity: 1;"><path class="violin" d="M17.69,123.25L17.69,123.23Q17.76,123.22 17.8,123.21C17.84,123.2 17.87,123.19 17.91,123.18C17.95,123.16 17.98,123.14 18.02,123.12C18.06,123.1 18.1,123.08 18.14,123.05C18.18,123.02 18.21,122.99 18.25,122.95C18.29,122.91 18.32,122.87 18.36,122.82C18.4,122.77 18.44,122.71 18.47,122.65C18.51,122.58 18.54,122.5 18.58,122.42C18.62,122.33 18.65,122.23 18.69,122.13C18.73,122.02 18.76,121.9 18.8,121.77C18.84,121.63 18.88,121.49 18.92,121.34C18.96,121.18 18.99,121.01 19.03,120.83C19.07,120.64 19.1,120.45 19.14,120.25C19.18,120.03 19.21,119.81 19.25,119.58C19.29,119.34 19.32,119.09 19.36,118.83C19.4,118.56 19.43,118.29 19.47,118.01C19.51,117.72 19.54,117.43 19.58,117.14C19.62,116.84 19.66,116.55 19.7,116.25C19.74,115.95 19.77,115.65 19.81,115.35C19.85,115.05 19.88,114.74 19.92,114.43C19.96,114.11 19.99,113.78 20.03,113.44C20.07,113.08 20.1,112.7 20.14,112.31C20.18,111.89 20.21,111.45 20.25,111C20.29,110.52 20.33,110.03 20.37,109.52C20.41,108.99 20.44,108.43 20.48,107.87C20.52,107.3 20.55,106.71 20.59,106.12C20.63,105.51 20.66,104.9 20.7,104.28C20.74,103.65 20.77,103.02 20.81,102.39C20.85,101.75 20.88,101.1 20.92,100.45C20.96,99.8 20.99,99.15 21.03,98.5C21.07,97.85 21.11,97.21 21.15,96.57C21.19,95.94 21.22,95.31 21.26,94.7C21.3,94.1 21.33,93.52 21.37,92.94C21.41,92.38 21.44,91.82 21.48,91.27C21.52,90.74 21.55,90.22 21.59,89.71C21.63,89.22 21.66,88.73 21.7,88.27C21.74,87.83 21.77,87.4 21.81,87C21.85,86.64 21.89,86.29 21.93,85.99C21.96,85.74 21.99,85.49 22.04,85.31C22.07,85.18 22.1,85.02 22.15,85C22.18,84.99 22.23,85.01 22.26,85.04C22.31,85.09 22.34,85.24 22.37,85.36C22.41,85.5 22.44,85.68 22.48,85.85C22.52,86.03 22.55,86.22 22.59,86.41C22.63,86.6 22.67,86.8 22.71,86.99C22.75,87.18 22.78,87.38 22.82,87.57C22.86,87.76 22.89,87.95 22.93,88.13C22.97,88.31 23,88.49 23.04,88.66C23.08,88.82 23.11,88.97 23.15,89.12C23.19,89.26 23.22,89.39 23.26,89.52C23.3,89.65 23.34,89.76 23.38,89.89C23.42,90.03 23.46,90.17 23.49,90.33C23.53,90.52 23.57,90.72 23.6,90.94C23.64,91.19 23.68,91.48 23.71,91.77C23.75,92.1 23.78,92.47 23.82,92.84C23.86,93.25 23.89,93.68 23.93,94.12C23.97,94.57 24,95.04 24.04,95.51C24.08,95.99 24.12,96.48 24.16,96.97C24.2,97.46 24.23,97.96 24.27,98.45C24.31,98.94 24.34,99.44 24.38,99.93C24.42,100.43 24.45,100.92 24.49,101.42C24.53,101.92 24.56,102.42 24.6,102.92C24.64,103.42 24.67,103.91 24.71,104.41C24.75,104.9 24.78,105.4 24.82,105.89C24.86,106.37 24.9,106.85 24.94,107.33C24.98,107.8 25.01,108.27 25.05,108.73C25.09,109.18 25.12,109.62 25.16,110.06C25.2,110.48 25.23,110.9 25.27,111.31C25.31,111.71 25.34,112.1 25.38,112.48C25.42,112.85 25.45,113.21 25.49,113.56C25.53,113.89 25.57,114.22 25.61,114.54C25.65,114.84 25.68,115.13 25.72,115.4C25.76,115.65 25.79,115.9 25.83,116.13C25.87,116.34 25.9,116.55 25.94,116.74C25.97,116.91 26.01,117.07 26.05,117.23C26.09,117.38 26.12,117.51 26.16,117.65C26.2,117.78 26.23,117.91 26.27,118.04C26.31,118.17 26.35,118.3 26.39,118.44C26.43,118.58 26.46,118.72 26.5,118.86C26.54,119.01 26.57,119.16 26.61,119.31C26.65,119.46 26.68,119.62 26.72,119.77C26.76,119.91 26.79,120.06 26.83,120.19C26.87,120.31 26.9,120.44 26.94,120.55C26.97,120.65 27.01,120.74 27.05,120.83C27.09,120.91 27.13,120.99 27.17,121.06C27.21,121.13 27.24,121.19 27.28,121.25C27.32,121.31 27.35,121.37 27.39,121.43C27.43,121.49 27.46,121.56 27.5,121.62C27.54,121.69 27.57,121.75 27.61,121.82C27.65,121.88 27.68,121.95 27.72,122.01C27.76,122.07 27.8,122.14 27.84,122.2C27.88,122.26 27.91,122.31 27.95,122.36C27.99,122.41 28.02,122.46 28.06,122.5C28.1,122.54 28.13,122.57 28.17,122.6C28.21,122.63 28.24,122.67 28.28,122.7C28.32,122.73 28.35,122.75 28.39,122.77C28.43,122.8 28.46,122.83 28.5,122.85C28.54,122.87 28.58,122.89 28.62,122.91C28.66,122.93 28.69,122.95 28.73,122.97C28.77,122.99 28.8,123.01 28.84,123.03C28.88,123.05 28.91,123.06 28.95,123.07C28.99,123.08 29.02,123.1 29.06,123.11C29.1,123.12 29.13,123.13 29.17,123.14C29.21,123.15 29.24,123.15 29.28,123.16C29.32,123.17 29.36,123.17 29.4,123.18C29.44,123.18 29.47,123.19 29.51,123.19C29.55,123.19 29.58,123.2 29.62,123.2C29.66,123.2 29.69,123.2 29.73,123.2C29.77,123.2 29.8,123.2 29.84,123.2C29.88,123.2 29.91,123.2 29.95,123.2C29.99,123.2 30.03,123.2 30.07,123.2C30.11,123.2 30.14,123.21 30.18,123.21C30.22,123.21 30.25,123.22 30.29,123.22C30.33,123.22 30.36,123.23 30.4,123.23C30.44,123.23 30.47,123.24 30.51,123.24Q30.55,123.24 30.62,123.24L30.62,123.25" style="vector-effect: non-scaling-stroke; stroke-width: 2px; stroke: rgb(102, 194, 164); stroke-opacity: 1; fill: rgb(102, 194, 164); fill-opacity: 0.5;"/><path class="meanline" d="M22.81,87.51937103271484V123.25" style="fill: none; vector-effect: non-scaling-stroke; stroke-width: 2px; stroke-dasharray: 4px, 2px; stroke: rgb(102, 194, 164); stroke-opacity: 1;"/></g><g class="trace violins" style="opacity: 1;"><path class="violin" d="M111.1,85L111.1,84.99Q111.12,84.99 111.13,84.99C111.14,84.99 111.15,84.98 111.16,84.98C111.17,84.98 111.19,84.97 111.2,84.97C111.21,84.97 111.22,84.96 111.23,84.96C111.24,84.96 111.25,84.95 111.26,84.95C111.27,84.95 111.29,84.95 111.3,84.95C111.31,84.95 111.32,84.94 111.33,84.94C111.34,84.94 111.36,84.93 111.37,84.93C111.38,84.93 111.39,84.93 111.4,84.92C111.41,84.91 111.42,84.9 111.43,84.89C111.44,84.88 111.46,84.86 111.47,84.84C111.48,84.82 111.49,84.79 111.5,84.77C111.51,84.74 111.52,84.72 111.53,84.69C111.54,84.65 111.56,84.61 111.57,84.57C111.58,84.53 111.59,84.49 111.6,84.44C111.61,84.38 111.63,84.32 111.64,84.26C111.65,84.19 111.66,84.12 111.67,84.05C111.68,83.97 111.69,83.88 111.7,83.79C111.71,83.69 111.73,83.59 111.74,83.49C111.75,83.38 111.76,83.26 111.77,83.14C111.78,83.02 111.79,82.89 111.8,82.76C111.81,82.62 111.83,82.48 111.84,82.33C111.85,82.17 111.86,82.01 111.87,81.84C111.88,81.66 111.89,81.48 111.9,81.29C111.91,81.09 111.93,80.88 111.94,80.67C111.95,80.45 111.96,80.22 111.97,79.98C111.98,79.73 112,79.48 112.01,79.22C112.02,78.95 112.03,78.68 112.04,78.4C112.05,78.11 112.06,77.82 112.07,77.52C112.08,77.21 112.1,76.89 112.11,76.57C112.12,76.24 112.13,75.9 112.14,75.56C112.15,75.2 112.16,74.83 112.17,74.46C112.18,74.07 112.2,73.67 112.21,73.26C112.22,72.84 112.23,72.42 112.24,71.99C112.25,71.55 112.27,71.1 112.28,70.66C112.29,70.21 112.3,69.77 112.31,69.32C112.32,68.87 112.33,68.42 112.34,67.97C112.35,67.52 112.37,67.07 112.38,66.62C112.39,66.16 112.4,65.7 112.41,65.23C112.42,64.75 112.43,64.27 112.44,63.78C112.45,63.27 112.47,62.75 112.48,62.23C112.49,61.69 112.5,61.14 112.51,60.59C112.52,60.03 112.54,59.46 112.55,58.9C112.56,58.33 112.57,57.76 112.58,57.2C112.59,56.65 112.6,56.11 112.61,55.58C112.62,55.07 112.64,54.57 112.65,54.09C112.66,53.64 112.67,53.21 112.68,52.8C112.69,52.43 112.7,52.07 112.71,51.73C112.72,51.43 112.74,51.15 112.75,50.88C112.76,50.64 112.77,50.42 112.78,50.2C112.79,50 112.8,49.81 112.81,49.62C112.82,49.44 112.84,49.26 112.85,49.08C112.86,48.9 112.87,48.73 112.88,48.55C112.89,48.37 112.91,48.19 112.92,48.01C112.93,47.84 112.94,47.68 112.95,47.52C112.96,47.38 112.97,47.23 112.98,47.11C112.99,47.01 113,46.91 113.02,46.84C113.03,46.8 113.04,46.75 113.05,46.75C113.06,46.75 113.07,46.83 113.08,46.89C113.1,46.99 113.11,47.14 113.12,47.3C113.13,47.5 113.14,47.75 113.15,48C113.16,48.29 113.18,48.62 113.19,48.96C113.2,49.34 113.21,49.75 113.22,50.16C113.23,50.6 113.24,51.06 113.25,51.52C113.26,51.99 113.28,52.47 113.29,52.95C113.3,53.43 113.31,53.91 113.32,54.39C113.33,54.86 113.34,55.33 113.35,55.8C113.36,56.26 113.38,56.72 113.39,57.18C113.4,57.63 113.41,58.09 113.42,58.54C113.43,59 113.45,59.45 113.46,59.91C113.47,60.38 113.48,60.85 113.49,61.32C113.5,61.8 113.51,62.28 113.52,62.76C113.53,63.24 113.55,63.73 113.56,64.21C113.57,64.69 113.58,65.16 113.59,65.63C113.6,66.09 113.61,66.55 113.62,67C113.63,67.44 113.65,67.87 113.66,68.3C113.67,68.72 113.68,69.14 113.69,69.55C113.7,69.96 113.71,70.36 113.72,70.76C113.73,71.16 113.75,71.55 113.76,71.94C113.77,72.33 113.78,72.72 113.79,73.11C113.8,73.49 113.82,73.86 113.83,74.23C113.84,74.59 113.85,74.94 113.86,75.28C113.87,75.61 113.88,75.95 113.89,76.27C113.9,76.58 113.92,76.88 113.93,77.17C113.94,77.45 113.95,77.72 113.96,77.99C113.97,78.24 113.98,78.49 113.99,78.73C114,78.96 114.02,79.19 114.03,79.41C114.04,79.62 114.05,79.83 114.06,80.04C114.07,80.24 114.09,80.43 114.1,80.62C114.11,80.8 114.12,80.98 114.13,81.16C114.14,81.33 114.15,81.5 114.16,81.67C114.17,81.84 114.19,82 114.2,82.16C114.21,82.31 114.22,82.46 114.23,82.61C114.24,82.75 114.25,82.88 114.26,83.01C114.27,83.13 114.29,83.25 114.3,83.36C114.31,83.46 114.32,83.55 114.33,83.63C114.34,83.7 114.36,83.78 114.37,83.84C114.38,83.89 114.39,83.94 114.4,83.98C114.41,84.01 114.42,84.04 114.43,84.07C114.44,84.1 114.46,84.12 114.47,84.14C114.48,84.16 114.49,84.18 114.5,84.2C114.51,84.22 114.52,84.25 114.53,84.27C114.54,84.3 114.56,84.32 114.57,84.35C114.58,84.38 114.59,84.42 114.6,84.45C114.61,84.49 114.62,84.52 114.63,84.56C114.64,84.6 114.66,84.63 114.67,84.67C114.68,84.7 114.69,84.74 114.7,84.77C114.71,84.8 114.73,84.83 114.74,84.85C114.75,84.87 114.76,84.88 114.77,84.9C114.78,84.91 114.79,84.93 114.8,84.94C114.81,84.95 114.83,84.95 114.84,84.95C114.85,84.95 114.86,84.96 114.87,84.96C114.88,84.96 114.89,84.96 114.9,84.96C114.91,84.96 114.93,84.95 114.94,84.95C114.95,84.95 114.96,84.95 114.97,84.95C114.98,84.95 115,84.95 115.01,84.95C115.02,84.95 115.03,84.96 115.04,84.96C115.05,84.96 115.06,84.97 115.07,84.97C115.08,84.97 115.1,84.98 115.11,84.98C115.12,84.98 115.13,84.99 115.14,84.99Q115.15,84.99 115.17,84.99L115.17,85" style="vector-effect: non-scaling-stroke; stroke-width: 2px; stroke: rgb(102, 194, 164); stroke-opacity: 1; fill: rgb(102, 194, 164); fill-opacity: 0.5;"/><path class="meanline" d="M113.01,46.880615234375V85" style="fill: none; vector-effect: non-scaling-stroke; stroke-width: 2px; stroke-dasharray: 4px, 2px; stroke: rgb(102, 194, 164); stroke-opacity: 1;"/></g><g class="trace violins" style="opacity: 1;"><path class="violin" d="M111.17,46.75L111.17,46.74Q111.18,46.74 111.18,46.74C111.19,46.74 111.19,46.73 111.2,46.72C111.21,46.72 111.22,46.72 111.22,46.71C111.23,46.71 111.23,46.7 111.23,46.69C111.24,46.68 111.24,46.67 111.25,46.66C111.26,46.65 111.26,46.65 111.27,46.64C111.28,46.63 111.28,46.62 111.29,46.61C111.29,46.6 111.29,46.59 111.3,46.58C111.3,46.57 111.31,46.57 111.32,46.56C111.33,46.55 111.33,46.53 111.34,46.52C111.34,46.51 111.35,46.49 111.35,46.48C111.36,46.46 111.36,46.44 111.37,46.42C111.38,46.4 111.39,46.37 111.39,46.34C111.4,46.31 111.4,46.27 111.4,46.23C111.41,46.19 111.41,46.14 111.42,46.1C111.43,46.05 111.44,46 111.44,45.95C111.45,45.9 111.45,45.85 111.45,45.79C111.46,45.73 111.46,45.67 111.47,45.6C111.48,45.53 111.48,45.46 111.49,45.38C111.5,45.3 111.51,45.21 111.51,45.12C111.52,45.02 111.52,44.93 111.52,44.82C111.53,44.7 111.53,44.58 111.54,44.45C111.55,44.31 111.56,44.15 111.56,44C111.57,43.84 111.57,43.67 111.57,43.49C111.58,43.3 111.58,43.1 111.59,42.9C111.6,42.69 111.61,42.48 111.61,42.26C111.62,42.04 111.62,41.81 111.62,41.59C111.63,41.36 111.63,41.14 111.64,40.91C111.65,40.68 111.65,40.45 111.66,40.22C111.66,39.99 111.67,39.77 111.67,39.54C111.68,39.31 111.68,39.08 111.69,38.85C111.7,38.61 111.7,38.37 111.71,38.13C111.72,37.88 111.73,37.63 111.73,37.38C111.74,37.12 111.74,36.85 111.74,36.58C111.75,36.3 111.75,36.02 111.76,35.73C111.77,35.43 111.78,35.13 111.78,34.81C111.79,34.48 111.79,34.13 111.79,33.78C111.8,33.41 111.8,33.03 111.81,32.63C111.82,32.21 111.83,31.77 111.83,31.33C111.84,30.86 111.84,30.39 111.84,29.9C111.85,29.39 111.85,28.87 111.86,28.34C111.87,27.8 111.88,27.24 111.88,26.69C111.89,26.13 111.89,25.56 111.89,24.99C111.9,24.42 111.9,23.84 111.91,23.27C111.92,22.7 111.92,22.13 111.93,21.56C111.93,21 111.93,20.44 111.94,19.89C111.94,19.36 111.95,18.84 111.96,18.33C111.97,17.85 111.97,17.37 111.98,16.92C111.99,16.49 111.99,16.08 112,15.68C112,15.3 112,14.94 112.01,14.59C112.01,14.25 112.02,13.93 112.03,13.6C112.04,13.28 112.04,12.97 112.05,12.66C112.05,12.35 112.05,12.04 112.06,11.73C112.06,11.42 112.07,11.11 112.08,10.81C112.09,10.52 112.09,10.23 112.1,9.96C112.1,9.71 112.1,9.46 112.11,9.24C112.11,9.06 112.12,8.88 112.13,8.74C112.14,8.65 112.14,8.5 112.15,8.5C112.15,8.5 112.16,8.53 112.16,8.55C112.17,8.61 112.17,8.75 112.18,8.87C112.19,9.03 112.19,9.22 112.2,9.41C112.21,9.63 112.22,9.86 112.22,10.1C112.23,10.35 112.23,10.6 112.23,10.86C112.24,11.12 112.24,11.39 112.25,11.66C112.26,11.93 112.27,12.21 112.27,12.49C112.28,12.78 112.28,13.07 112.28,13.37C112.29,13.69 112.29,14.01 112.3,14.34C112.31,14.7 112.32,15.07 112.32,15.45C112.33,15.86 112.33,16.28 112.33,16.71C112.34,17.16 112.34,17.63 112.35,18.1C112.36,18.59 112.37,19.1 112.37,19.61C112.38,20.13 112.38,20.67 112.38,21.2C112.39,21.74 112.39,22.28 112.4,22.82C112.41,23.35 112.41,23.89 112.42,24.42C112.42,24.94 112.42,25.44 112.43,25.95C112.43,26.45 112.44,26.94 112.45,27.43C112.46,27.91 112.46,28.38 112.47,28.86C112.48,29.33 112.49,29.81 112.49,30.28C112.5,30.76 112.5,31.23 112.5,31.71C112.51,32.19 112.51,32.67 112.52,33.14C112.53,33.61 112.53,34.08 112.54,34.54C112.54,34.98 112.54,35.42 112.55,35.84C112.55,36.24 112.56,36.63 112.57,37C112.58,37.34 112.58,37.67 112.59,37.98C112.59,38.27 112.59,38.54 112.6,38.8C112.6,39.04 112.61,39.26 112.62,39.49C112.63,39.71 112.63,39.92 112.64,40.13C112.64,40.34 112.65,40.55 112.65,40.76C112.66,40.98 112.66,41.2 112.67,41.43C112.68,41.66 112.68,41.9 112.69,42.13C112.7,42.36 112.7,42.6 112.71,42.83C112.71,43.05 112.71,43.27 112.72,43.48C112.72,43.68 112.73,43.87 112.74,44.05C112.75,44.21 112.75,44.37 112.76,44.52C112.76,44.65 112.76,44.78 112.77,44.9C112.77,45.01 112.78,45.1 112.79,45.2C112.8,45.29 112.8,45.37 112.81,45.45C112.81,45.52 112.81,45.59 112.82,45.66C112.82,45.72 112.83,45.78 112.84,45.83C112.85,45.88 112.85,45.93 112.86,45.97C112.86,46.01 112.86,46.04 112.87,46.08C112.87,46.11 112.88,46.15 112.89,46.18C112.9,46.21 112.9,46.23 112.91,46.25C112.92,46.27 112.92,46.3 112.93,46.32C112.93,46.34 112.93,46.37 112.94,46.39C112.94,46.41 112.95,46.43 112.96,46.45C112.97,46.47 112.97,46.49 112.98,46.51C112.98,46.53 112.98,46.54 112.99,46.56C112.99,46.57 113,46.59 113.01,46.6C113.02,46.61 113.02,46.63 113.03,46.64C113.03,46.65 113.04,46.65 113.04,46.66C113.05,46.67 113.05,46.67 113.06,46.68C113.07,46.69 113.07,46.69 113.08,46.7C113.08,46.7 113.09,46.71 113.09,46.71C113.1,46.71 113.1,46.71 113.11,46.71C113.12,46.71 113.12,46.71 113.13,46.71C113.13,46.71 113.14,46.71 113.14,46.71C113.15,46.71 113.15,46.7 113.16,46.7C113.17,46.7 113.17,46.7 113.18,46.7C113.19,46.7 113.19,46.7 113.2,46.7C113.2,46.7 113.21,46.71 113.21,46.71C113.22,46.71 113.22,46.72 113.23,46.72C113.24,46.72 113.24,46.73 113.25,46.73C113.25,46.73 113.26,46.74 113.26,46.74Q113.27,46.74 113.28,46.74L113.28,46.75" style="vector-effect: non-scaling-stroke; stroke-width: 2px; stroke: rgb(102, 194, 164); stroke-opacity: 1; fill: rgb(102, 194, 164); fill-opacity: 0.5;"/><path class="meanline" d="M112.15,8.500283241271973V46.75" style="fill: none; vector-effect: non-scaling-stroke; stroke-width: 2px; stroke-dasharray: 4px, 2px; stroke: rgb(102, 194, 164); stroke-opacity: 1;"/></g></g></g><g class="overplot"/><path class="xlines-above crisp" d="M0,0" style="fill: none;"/><path class="ylines-above crisp" d="M0,0" style="fill: none;"/><g class="overlines-above"/><g class="xaxislayer-above"><g class="xtick"><text text-anchor="start" x="0" y="203" transform="translate(40,0) rotate(90,0,197)" style="font-family: 'Open Sans', verdana, arial, sans-serif; font-size: 12px; fill: rgb(68, 68, 68); fill-opacity: 1; white-space: pre;">−1</text></g><g class="xtick"><text text-anchor="start" x="0" y="203" transform="translate(68.25,0) rotate(90,0,197)" style="font-family: 'Open Sans', verdana, arial, sans-serif; font-size: 12px; fill: rgb(68, 68, 68); fill-opacity: 1; white-space: pre;">−0.75</text></g><g class="xtick"><text text-anchor="start" x="0" y="203" transform="translate(96.5,0) rotate(90,0,197)" style="font-family: 'Open Sans', verdana, arial, sans-serif; font-size: 12px; fill: rgb(68, 68, 68); fill-opacity: 1; white-space: pre;">−0.5</text></g><g class="xtick"><text text-anchor="start" x="0" y="203" transform="translate(124.75,0) rotate(90,0,197)" style="font-family: 'Open Sans', verdana, arial, sans-serif; font-size: 12px; fill: rgb(68, 68, 68); fill-opacity: 1; white-space: pre;">−0.25</text></g><g class="xtick"><text text-anchor="start" x="0" y="203" transform="translate(153,0) rotate(90,0,197)" style="font-family: 'Open Sans', verdana, arial, sans-serif; font-size: 12px; fill: rgb(68, 68, 68); fill-opacity: 1; white-space: pre;">0</text></g><g class="xtick"><text text-anchor="start" x="0" y="203" transform="translate(181.25,0) rotate(90,0,197)" style="font-family: 'Open Sans', verdana, arial, sans-serif; font-size: 12px; fill: rgb(68, 68, 68); fill-opacity: 1; white-space: pre;">0.25</text></g><g class="xtick"><text text-anchor="start" x="0" y="203" transform="translate(209.5,0) rotate(90,0,197)" style="font-family: 'Open Sans', verdana, arial, sans-serif; font-size: 12px; fill: rgb(68, 68, 68); fill-opacity: 1; white-space: pre;">0.5</text></g><g class="xtick"><text text-anchor="start" x="0" y="203" transform="translate(237.75,0) rotate(90,0,197)" style="font-family: 'Open Sans', verdana, arial, sans-serif; font-size: 12px; fill: rgb(68, 68, 68); fill-opacity: 1; white-space: pre;">0.75</text></g><g class="xtick"><text text-anchor="start" x="0" y="203" transform="translate(266,0) rotate(90,0,197)" style="font-family: 'Open Sans', verdana, arial, sans-serif; font-size: 12px; fill: rgb(68, 68, 68); fill-opacity: 1; white-space: pre;">1</text></g></g><g class="yaxislayer-above"><g class="ytick"><text text-anchor="end" x="39" y="4.199999999999999" transform="translate(0,181.5)" style="font-family: 'Open Sans', verdana, arial, sans-serif; font-size: 12px; fill: rgb(68, 68, 68); fill-opacity: 1; white-space: pre;">Meis</text></g><g class="ytick"><text text-anchor="end" x="39" y="4.199999999999999" transform="translate(0,143.25)" style="font-family: 'Open Sans', verdana, arial, sans-serif; font-size: 12px; fill: rgb(68, 68, 68); fill-opacity: 1; white-space: pre;">Meus</text></g><g class="ytick"><text text-anchor="end" x="39" y="4.199999999999999" transform="translate(0,105)" style="font-family: 'Open Sans', verdana, arial, sans-serif; font-size: 12px; fill: rgb(68, 68, 68); fill-opacity: 1; white-space: pre;">Hyum</text></g><g class="ytick"><text text-anchor="end" x="39" y="4.199999999999999" transform="translate(0,66.75)" style="font-family: 'Open Sans', verdana, arial, sans-serif; font-size: 12px; fill: rgb(68, 68, 68); fill-opacity: 1; white-space: pre;">Seum</text></g></g><g class="overaxes-above"/></g></g><g class="polarlayer"/><g class="ternarylayer"/><g class="geolayer"/><g class="funnelarealayer"/><g class="pielayer"/><g class="treemaplayer"/><g class="sunburstlayer"/><g class="glimages"/><defs id="topdefs-674fd0"><g class="clips"/></defs><g class="layer-above"><g class="imagelayer"/><g class="shapelayer"><path data-index="0" fill-rule="evenodd" d="M141.7,181.5L141.7,28.5" clip-path="url('#clip674fd0xy')" style="opacity: 1; stroke: rgb(0, 0, 0); stroke-opacity: 1; fill: rgb(0, 0, 0); fill-opacity: 0; stroke-dasharray: 9px, 9px; stroke-width: 2px;"/><path data-index="1" fill-rule="evenodd" d="M164.3,181.5L164.3,28.5" clip-path="url('#clip674fd0xy')" style="opacity: 1; stroke: rgb(0, 0, 0); stroke-opacity: 1; fill: rgb(0, 0, 0); fill-opacity: 0; stroke-dasharray: 9px, 9px; stroke-width: 2px;"/></g></g><g class="infolayer"><g class="g-gtitle"/><g class="g-xtitle" transform="translate(0,0.703125)"><text class="xtitle" x="153" y="242" text-anchor="middle" style="font-family: 'Open Sans', verdana, arial, sans-serif; font-size: 14px; fill: rgb(68, 68, 68); opacity: 1; font-weight: normal; white-space: pre;">Coeficiente de Interacción</text></g><g class="g-ytitle"/></g></svg>