<svg class="main-svg" xmlns="http://www.w3.org/2000/svg" xmlns:xlink="http://www.w3.org/1999/xlink" width="266" height="250" style="" viewBox="0 0 266 250"><rect x="0" y="0" width="266" height="250" style="fill: rgb(255, 255, 255); fill-opacity: 1;"/><defs id="defs-48be84"><g class="clips"><clipPath id="clip48be84xyplot" class="plotclip"><rect width="226" height="170"/></clipPath><clipPath class="axesclip" id="clip48be84x"><rect x="20" y="0" width="226" height="250"/></clipPath><clipPath class="axesclip" id="clip48be84y"><rect x="0" y="20" width="266" height="170"/></clipPath><clipPath class="axesclip" id="clip48be84xy"><rect x="20" y="20" width="226" height="170"/></clipPath></g><g class="gradients"/></defs><g class="bglayer"/><g class="layer-below"><g class="imagelayer"/><g class="shapelayer"/></g><g class="cartesianlayer"><g class="subplot xy"><g class="layer-subplot"><g class="shapelayer"/><g class="imagelayer"/></g><g class="gridlayer"><g class="x"/><g class="y"><path class="ygrid crisp" transform="translate(0,181.5)" d="M20,0h226" style="stroke: rgb(238, 238, 238); stroke-opacity: 1; stroke-width: 1px;"/><path class="ygrid crisp" transform="translate(0,150.9)" d="M20,0h226" style="stroke: rgb(238, 238, 238); stroke-opacity: 1; stroke-width: 1px;"/><path class="ygrid crisp" transform="translate(0,120.3)" d="M20,0h226" style="stroke: rgb(238, 238, 238); stroke-opacity: 1; stroke-width: 1px;"/><path class="ygrid crisp" transform="translate(0,89.7)" d="M20,0h226" style="stroke: rgb(238, 238, 238); stroke-opacity: 1; stroke-width: 1px;"/><path class="ygrid crisp" transform="translate(0,59.1)" d="M20,0h226" style="stroke: rgb(238, 238, 238); stroke-opacity: 1; stroke-width: 1px;"/></g></g><g class="zerolinelayer"/><path class="xlines-below"/><path class="ylines-below"/><g class="overlines-below"/><g class="xaxislayer-below"/><g class="yaxislayer-below"/><g class="overaxes-below"/><g class="plot" transform="translate(20,20)" clip-path="url('#clip48be84xyplot')"><g class="violinlayer mlayer"><g class="trace violins" style="opacity: 1;"><path class="violin" d="M162.8,161.5L162.8,161.49Q162.89,161.49 162.94,161.49C162.99,161.49 163.04,161.48 163.09,161.48C163.14,161.48 163.18,161.48 163.23,161.48C163.28,161.48 163.33,161.47 163.38,161.47C163.43,161.47 163.47,161.46 163.52,161.46C163.57,161.46 163.61,161.46 163.66,161.46C163.71,161.46 163.76,161.46 163.81,161.46C163.86,161.46 163.9,161.46 163.95,161.46C164,161.46 164.05,161.46 164.1,161.46C164.15,161.46 164.19,161.46 164.24,161.46C164.29,161.46 164.34,161.46 164.39,161.45C164.44,161.45 164.48,161.44 164.53,161.43C164.58,161.42 164.62,161.41 164.67,161.41C164.72,161.4 164.77,161.41 164.82,161.4C164.87,161.4 164.91,161.38 164.96,161.38C165.01,161.37 165.06,161.37 165.11,161.37C165.16,161.37 165.2,161.36 165.25,161.36C165.3,161.35 165.35,161.35 165.4,161.34C165.45,161.33 165.49,161.33 165.54,161.32C165.59,161.31 165.63,161.31 165.68,161.3C165.73,161.29 165.78,161.28 165.83,161.27C165.88,161.26 165.92,161.25 165.97,161.24C166.02,161.23 166.07,161.22 166.12,161.21C166.17,161.2 166.21,161.18 166.26,161.17C166.31,161.16 166.36,161.15 166.41,161.13C166.46,161.11 166.5,161.09 166.55,161.07C166.6,161.05 166.64,161.03 166.69,161C166.74,160.97 166.79,160.94 166.84,160.91C166.89,160.88 166.93,160.84 166.98,160.81C167.03,160.78 167.08,160.75 167.13,160.71C167.18,160.68 167.22,160.64 167.27,160.6C167.32,160.56 167.36,160.53 167.41,160.49C167.46,160.45 167.51,160.41 167.56,160.36C167.61,160.31 167.65,160.26 167.7,160.21C167.75,160.15 167.8,160.09 167.85,160.02C167.9,159.95 167.94,159.86 167.99,159.78C168.04,159.69 168.09,159.6 168.14,159.5C168.19,159.4 168.23,159.29 168.28,159.18C168.33,159.07 168.37,158.95 168.42,158.83C168.47,158.71 168.52,158.58 168.57,158.45C168.62,158.32 168.66,158.2 168.71,158.07C168.76,157.94 168.81,157.81 168.86,157.68C168.91,157.54 168.95,157.4 169,157.26C169.05,157.11 169.1,156.96 169.15,156.81C169.2,156.65 169.24,156.49 169.29,156.32C169.34,156.14 169.38,155.95 169.43,155.76C169.48,155.56 169.53,155.36 169.58,155.15C169.63,154.93 169.67,154.7 169.72,154.47C169.77,154.23 169.82,153.99 169.87,153.75C169.92,153.5 169.96,153.25 170.01,153C170.06,152.74 170.1,152.47 170.15,152.2C170.2,151.92 170.25,151.65 170.3,151.36C170.35,151.06 170.39,150.76 170.44,150.45C170.49,150.12 170.54,149.79 170.59,149.45C170.64,149.09 170.68,148.73 170.73,148.36C170.78,147.98 170.83,147.59 170.88,147.2C170.93,146.8 170.97,146.4 171.02,145.99C171.07,145.58 171.11,145.17 171.16,144.76C171.21,144.35 171.26,143.95 171.31,143.54C171.36,143.14 171.4,142.73 171.45,142.33C171.5,141.93 171.55,141.53 171.6,141.14C171.65,140.76 171.69,140.38 171.74,140C171.79,139.63 171.84,139.26 171.89,138.9C171.94,138.55 171.98,138.2 172.03,137.86C172.08,137.52 172.12,137.19 172.17,136.86C172.22,136.54 172.27,136.22 172.32,135.9C172.37,135.58 172.41,135.26 172.46,134.95C172.51,134.64 172.56,134.34 172.61,134.04C172.66,133.75 172.7,133.47 172.75,133.2C172.8,132.95 172.84,132.69 172.89,132.46C172.94,132.25 172.99,132.04 173.04,131.85C173.09,131.68 173.13,131.52 173.18,131.38C173.23,131.26 173.27,131.15 173.33,131.06C173.37,130.99 173.42,130.92 173.47,130.9C173.52,130.88 173.58,130.89 173.62,130.92C173.68,130.96 173.72,131.05 173.76,131.13C173.81,131.24 173.86,131.38 173.9,131.53C173.95,131.7 174,131.91 174.05,132.11C174.1,132.33 174.14,132.57 174.19,132.81C174.24,133.06 174.29,133.31 174.34,133.57C174.39,133.83 174.43,134.1 174.48,134.36C174.53,134.63 174.58,134.9 174.63,135.17C174.68,135.45 174.72,135.72 174.77,136.01C174.82,136.31 174.86,136.61 174.91,136.92C174.96,137.24 175.01,137.56 175.06,137.9C175.11,138.25 175.15,138.62 175.2,138.99C175.25,139.38 175.3,139.78 175.35,140.18C175.4,140.6 175.44,141.03 175.49,141.47C175.54,141.92 175.58,142.38 175.63,142.83C175.68,143.29 175.73,143.75 175.78,144.2C175.83,144.65 175.87,145.09 175.92,145.53C175.97,145.96 176.02,146.38 176.07,146.79C176.12,147.19 176.16,147.57 176.21,147.96C176.26,148.34 176.31,148.71 176.36,149.08C176.41,149.44 176.45,149.8 176.5,150.16C176.55,150.52 176.59,150.87 176.64,151.22C176.69,151.57 176.74,151.91 176.79,152.25C176.84,152.58 176.88,152.9 176.93,153.22C176.98,153.52 177.03,153.82 177.08,154.11C177.13,154.38 177.17,154.65 177.22,154.9C177.27,155.14 177.32,155.37 177.37,155.59C177.42,155.8 177.46,156 177.51,156.19C177.56,156.37 177.6,156.55 177.65,156.72C177.7,156.89 177.75,157.05 177.8,157.21C177.85,157.36 177.89,157.51 177.94,157.66C177.99,157.81 178.04,157.95 178.09,158.09C178.14,158.23 178.18,158.37 178.23,158.5C178.28,158.63 178.32,158.76 178.37,158.89C178.42,159.01 178.47,159.13 178.52,159.25C178.57,159.36 178.61,159.48 178.66,159.59C178.71,159.69 178.76,159.79 178.81,159.89C178.86,159.98 178.9,160.07 178.95,160.16C179,160.24 179.05,160.32 179.1,160.4C179.15,160.47 179.19,160.54 179.24,160.61C179.29,160.67 179.33,160.73 179.38,160.78C179.43,160.83 179.48,160.86 179.53,160.9C179.58,160.94 179.62,160.97 179.67,161C179.72,161.03 179.77,161.05 179.82,161.07C179.87,161.09 179.91,161.11 179.96,161.12C180.01,161.14 180.06,161.15 180.11,161.16C180.16,161.17 180.2,161.19 180.25,161.2C180.3,161.21 180.34,161.23 180.39,161.24C180.44,161.25 180.49,161.26 180.54,161.27C180.59,161.28 180.63,161.29 180.68,161.3C180.73,161.31 180.78,161.32 180.83,161.33C180.88,161.34 180.92,161.35 180.97,161.36C181.02,161.37 181.06,161.37 181.11,161.38C181.16,161.39 181.21,161.4 181.26,161.41C181.31,161.42 181.35,161.42 181.4,161.43C181.45,161.44 181.5,161.44 181.55,161.45C181.6,161.45 181.64,161.46 181.69,161.46C181.74,161.47 181.79,161.47 181.84,161.48C181.89,161.48 181.93,161.49 181.98,161.49Q182.03,161.49 182.12,161.49L182.12,161.5" style="vector-effect: non-scaling-stroke; stroke-width: 2px; stroke: rgb(102, 194, 164); stroke-opacity: 1; fill: rgb(102, 194, 164); fill-opacity: 0.5;"/><path class="meanline" d="M173.43,130.92538452148438V161.5" style="fill: none; vector-effect: non-scaling-stroke; stroke-width: 2px; stroke-dasharray: 4px, 2px; stroke: rgb(102, 194, 164); stroke-opacity: 1;"/></g><g class="trace violins" style="opacity: 1;"><path class="violin" d="M70.18,130.9L70.18,130.89Q70.23,130.89 70.25,130.89C70.27,130.89 70.29,130.88 70.31,130.88C70.33,130.88 70.35,130.88 70.37,130.88C70.39,130.88 70.41,130.87 70.43,130.87C70.45,130.87 70.47,130.86 70.49,130.86C70.51,130.86 70.53,130.86 70.55,130.86C70.57,130.86 70.59,130.86 70.61,130.86C70.63,130.86 70.65,130.85 70.67,130.85C70.69,130.85 70.71,130.84 70.73,130.84C70.75,130.84 70.77,130.84 70.79,130.83C70.81,130.82 70.83,130.81 70.85,130.8C70.87,130.79 70.9,130.77 70.92,130.75C70.94,130.73 70.96,130.72 70.98,130.7C71,130.68 71.02,130.66 71.04,130.64C71.06,130.62 71.08,130.59 71.1,130.56C71.12,130.53 71.14,130.5 71.16,130.47C71.18,130.44 71.2,130.41 71.22,130.37C71.24,130.33 71.26,130.28 71.28,130.23C71.3,130.18 71.32,130.12 71.34,130.06C71.36,129.99 71.38,129.91 71.4,129.83C71.42,129.74 71.44,129.64 71.46,129.54C71.48,129.43 71.5,129.31 71.52,129.18C71.54,129.04 71.57,128.9 71.59,128.75C71.61,128.6 71.63,128.44 71.65,128.28C71.67,128.11 71.69,127.94 71.71,127.77C71.73,127.6 71.75,127.42 71.77,127.25C71.79,127.07 71.81,126.89 71.83,126.71C71.85,126.53 71.87,126.36 71.89,126.18C71.91,126 71.93,125.82 71.95,125.64C71.97,125.46 71.99,125.27 72.01,125.08C72.03,124.88 72.05,124.68 72.07,124.48C72.09,124.27 72.11,124.05 72.13,123.82C72.15,123.58 72.17,123.34 72.19,123.09C72.21,122.83 72.24,122.56 72.26,122.29C72.28,122 72.3,121.71 72.32,121.41C72.34,121.1 72.36,120.78 72.38,120.46C72.4,120.13 72.42,119.8 72.44,119.46C72.46,119.11 72.48,118.76 72.5,118.41C72.52,118.06 72.54,117.7 72.56,117.35C72.58,116.99 72.6,116.64 72.62,116.28C72.64,115.92 72.66,115.57 72.68,115.21C72.7,114.85 72.72,114.49 72.74,114.13C72.76,113.76 72.78,113.39 72.8,113.02C72.82,112.64 72.84,112.24 72.86,111.85C72.88,111.45 72.91,111.05 72.93,110.65C72.95,110.25 72.97,109.85 72.99,109.46C73.01,109.08 73.03,108.71 73.05,108.35C73.07,108.01 73.09,107.68 73.11,107.36C73.13,107.06 73.15,106.78 73.17,106.5C73.19,106.23 73.21,105.97 73.23,105.7C73.25,105.43 73.27,105.16 73.29,104.88C73.31,104.58 73.33,104.27 73.35,103.96C73.37,103.63 73.39,103.29 73.41,102.96C73.43,102.63 73.45,102.29 73.47,101.97C73.49,101.68 73.51,101.38 73.53,101.13C73.55,100.92 73.57,100.7 73.6,100.55C73.62,100.45 73.63,100.31 73.66,100.3C73.68,100.29 73.7,100.32 73.72,100.34C73.75,100.39 73.76,100.51 73.78,100.61C73.8,100.73 73.82,100.88 73.84,101.02C73.86,101.17 73.88,101.34 73.9,101.5C73.92,101.67 73.94,101.86 73.96,102.04C73.98,102.23 74,102.43 74.02,102.64C74.04,102.86 74.06,103.1 74.08,103.34C74.1,103.6 74.12,103.88 74.14,104.16C74.16,104.46 74.18,104.77 74.2,105.08C74.22,105.41 74.25,105.75 74.27,106.09C74.29,106.44 74.31,106.8 74.33,107.15C74.35,107.51 74.37,107.86 74.39,108.22C74.41,108.58 74.43,108.95 74.45,109.31C74.47,109.68 74.49,110.05 74.51,110.42C74.53,110.8 74.55,111.19 74.57,111.58C74.59,111.98 74.61,112.38 74.63,112.78C74.65,113.19 74.67,113.61 74.69,114.03C74.71,114.45 74.73,114.87 74.75,115.28C74.77,115.68 74.79,116.08 74.81,116.47C74.83,116.84 74.85,117.21 74.87,117.56C74.89,117.89 74.91,118.22 74.93,118.53C74.95,118.82 74.98,119.09 75,119.36C75.02,119.61 75.04,119.84 75.06,120.08C75.08,120.31 75.1,120.53 75.12,120.75C75.14,120.97 75.16,121.18 75.18,121.4C75.2,121.63 75.22,121.86 75.24,122.09C75.26,122.33 75.28,122.58 75.3,122.83C75.32,123.09 75.34,123.35 75.36,123.61C75.38,123.87 75.4,124.14 75.42,124.4C75.44,124.66 75.46,124.93 75.48,125.19C75.5,125.44 75.52,125.68 75.54,125.92C75.56,126.15 75.58,126.38 75.6,126.6C75.62,126.81 75.65,127.01 75.67,127.21C75.69,127.4 75.71,127.58 75.73,127.76C75.75,127.93 75.77,128.09 75.79,128.24C75.81,128.38 75.83,128.52 75.85,128.66C75.87,128.79 75.89,128.91 75.91,129.03C75.93,129.14 75.95,129.25 75.97,129.35C75.99,129.44 76.01,129.53 76.03,129.62C76.05,129.7 76.07,129.77 76.09,129.84C76.11,129.91 76.13,129.97 76.15,130.03C76.17,130.09 76.19,130.14 76.21,130.19C76.23,130.24 76.25,130.28 76.27,130.32C76.29,130.36 76.32,130.4 76.34,130.43C76.36,130.46 76.38,130.49 76.4,130.52C76.42,130.55 76.44,130.57 76.46,130.59C76.48,130.61 76.5,130.63 76.52,130.65C76.54,130.67 76.56,130.68 76.58,130.7C76.6,130.72 76.62,130.73 76.64,130.75C76.66,130.76 76.68,130.78 76.7,130.79C76.72,130.8 76.74,130.81 76.76,130.82C76.78,130.83 76.8,130.83 76.82,130.84C76.84,130.85 76.86,130.86 76.88,130.86C76.9,130.86 76.92,130.86 76.94,130.86C76.96,130.86 76.99,130.86 77.01,130.86C77.03,130.86 77.05,130.86 77.07,130.86C77.09,130.86 77.11,130.86 77.13,130.86C77.15,130.86 77.17,130.86 77.19,130.86C77.21,130.86 77.23,130.87 77.25,130.87C77.27,130.87 77.29,130.88 77.31,130.88C77.33,130.88 77.35,130.88 77.37,130.88C77.39,130.88 77.41,130.89 77.43,130.89Q77.45,130.89 77.49,130.89L77.49,130.9" style="vector-effect: non-scaling-stroke; stroke-width: 2px; stroke: rgb(102, 194, 164); stroke-opacity: 1; fill: rgb(102, 194, 164); fill-opacity: 0.5;"/><path class="meanline" d="M73.73,100.35860443115234V130.9" style="fill: none; vector-effect: non-scaling-stroke; stroke-width: 2px; stroke-dasharray: 4px, 2px; stroke: rgb(102, 194, 164); stroke-opacity: 1;"/></g><g class="trace violins" style="opacity: 1;"><path class="violin" d="M130.64,100.3L130.64,100.29Q130.69,100.29 130.72,100.29C130.75,100.29 130.77,100.28 130.8,100.27C130.83,100.27 130.85,100.27 130.88,100.26C130.91,100.25 130.93,100.24 130.96,100.23C130.98,100.22 131.01,100.2 131.03,100.19C131.06,100.17 131.08,100.16 131.11,100.14C131.14,100.12 131.16,100.11 131.19,100.09C131.22,100.07 131.24,100.04 131.27,100.02C131.3,100 131.32,99.98 131.35,99.96C131.38,99.94 131.4,99.92 131.43,99.9C131.46,99.88 131.48,99.85 131.51,99.83C131.54,99.81 131.56,99.79 131.59,99.76C131.62,99.73 131.64,99.7 131.67,99.67C131.7,99.63 131.72,99.59 131.75,99.55C131.78,99.5 131.8,99.45 131.83,99.4C131.86,99.34 131.88,99.28 131.91,99.22C131.94,99.16 131.96,99.09 131.99,99.02C132.02,98.96 132.04,98.89 132.07,98.83C132.09,98.77 132.12,98.7 132.14,98.64C132.17,98.57 132.19,98.51 132.22,98.44C132.25,98.37 132.27,98.3 132.3,98.22C132.33,98.14 132.35,98.05 132.38,97.95C132.41,97.84 132.43,97.72 132.46,97.6C132.49,97.46 132.51,97.31 132.54,97.16C132.57,97 132.59,96.83 132.62,96.65C132.65,96.46 132.67,96.26 132.7,96.06C132.73,95.85 132.75,95.62 132.78,95.4C132.81,95.17 132.83,94.93 132.86,94.68C132.89,94.42 132.91,94.16 132.94,93.89C132.97,93.6 132.99,93.3 133.02,93C133.05,92.68 133.08,92.35 133.1,92.02C133.13,91.67 133.15,91.31 133.17,90.94C133.2,90.56 133.22,90.16 133.25,89.77C133.28,89.37 133.3,88.96 133.33,88.55C133.36,88.14 133.38,87.72 133.41,87.31C133.44,86.9 133.46,86.5 133.49,86.1C133.52,85.71 133.54,85.32 133.57,84.95C133.6,84.59 133.62,84.24 133.65,83.9C133.68,83.58 133.7,83.26 133.73,82.95C133.76,82.66 133.78,82.38 133.81,82.1C133.84,81.83 133.86,81.58 133.89,81.32C133.92,81.07 133.94,80.82 133.97,80.56C134,80.29 134.02,80.03 134.05,79.75C134.08,79.45 134.11,79.15 134.13,78.83C134.16,78.49 134.18,78.15 134.2,77.79C134.23,77.41 134.25,77.02 134.28,76.63C134.31,76.23 134.33,75.83 134.36,75.43C134.39,75.04 134.41,74.65 134.44,74.28C134.47,73.92 134.49,73.57 134.52,73.24C134.55,72.94 134.57,72.65 134.6,72.37C134.63,72.12 134.65,71.89 134.68,71.66C134.71,71.45 134.73,71.26 134.76,71.07C134.79,70.9 134.81,70.74 134.84,70.58C134.87,70.44 134.89,70.3 134.92,70.17C134.94,70.06 134.97,69.95 135,69.87C135.02,69.81 135.05,69.73 135.08,69.71C135.1,69.69 135.14,69.69 135.16,69.7C135.19,69.72 135.22,69.78 135.24,69.84C135.27,69.92 135.29,70.02 135.31,70.12C135.34,70.24 135.36,70.37 135.39,70.51C135.42,70.66 135.44,70.83 135.47,71C135.5,71.19 135.52,71.39 135.55,71.6C135.58,71.83 135.6,72.07 135.63,72.31C135.66,72.57 135.68,72.84 135.71,73.11C135.74,73.4 135.76,73.7 135.79,74C135.82,74.32 135.84,74.64 135.87,74.98C135.9,75.34 135.92,75.71 135.95,76.08C135.98,76.47 136,76.87 136.03,77.28C136.06,77.7 136.08,78.14 136.11,78.58C136.14,79.02 136.16,79.47 136.19,79.92C136.22,80.37 136.24,80.82 136.27,81.27C136.29,81.71 136.31,82.15 136.34,82.58C136.36,83.01 136.39,83.43 136.42,83.85C136.45,84.26 136.47,84.67 136.5,85.07C136.53,85.46 136.55,85.85 136.58,86.23C136.61,86.6 136.63,86.97 136.66,87.33C136.69,87.68 136.71,88.03 136.74,88.38C136.77,88.72 136.79,89.06 136.82,89.39C136.85,89.71 136.87,90.03 136.9,90.35C136.93,90.66 136.95,90.97 136.98,91.27C137.01,91.57 137.03,91.86 137.06,92.15C137.09,92.43 137.11,92.71 137.14,92.98C137.17,93.24 137.19,93.5 137.22,93.75C137.25,94 137.27,94.24 137.3,94.48C137.33,94.71 137.35,94.94 137.38,95.16C137.4,95.37 137.42,95.58 137.45,95.79C137.47,95.99 137.5,96.19 137.53,96.38C137.56,96.57 137.58,96.75 137.61,96.93C137.64,97.1 137.66,97.27 137.69,97.43C137.72,97.59 137.74,97.75 137.77,97.9C137.8,98.04 137.82,98.18 137.85,98.32C137.88,98.45 137.9,98.58 137.93,98.7C137.96,98.81 137.98,98.91 138.01,99.01C138.04,99.1 138.06,99.19 138.09,99.27C138.12,99.34 138.14,99.4 138.17,99.46C138.2,99.51 138.22,99.56 138.25,99.6C138.27,99.63 138.3,99.66 138.33,99.68C138.36,99.7 138.38,99.72 138.41,99.74C138.43,99.75 138.46,99.76 138.48,99.77C138.51,99.78 138.53,99.79 138.56,99.8C138.59,99.81 138.61,99.83 138.64,99.84C138.67,99.85 138.69,99.87 138.72,99.88C138.75,99.9 138.77,99.91 138.8,99.93C138.83,99.95 138.85,99.97 138.88,99.99C138.91,100.01 138.93,100.04 138.96,100.06C138.99,100.08 139.01,100.1 139.04,100.12C139.07,100.14 139.09,100.15 139.12,100.16C139.15,100.17 139.17,100.19 139.2,100.2C139.23,100.21 139.25,100.21 139.28,100.22C139.31,100.23 139.33,100.23 139.36,100.24C139.39,100.24 139.41,100.25 139.44,100.25C139.47,100.25 139.49,100.26 139.52,100.26C139.54,100.26 139.57,100.27 139.59,100.27C139.62,100.27 139.64,100.27 139.67,100.27C139.7,100.27 139.72,100.27 139.75,100.27C139.78,100.27 139.8,100.27 139.83,100.27C139.86,100.27 139.88,100.26 139.91,100.26C139.94,100.26 139.96,100.26 139.99,100.26C140.02,100.26 140.04,100.26 140.07,100.26C140.1,100.26 140.12,100.26 140.15,100.26C140.18,100.26 140.2,100.27 140.23,100.27C140.26,100.27 140.28,100.28 140.31,100.28C140.34,100.28 140.36,100.28 140.39,100.28C140.42,100.28 140.44,100.29 140.47,100.29Q140.5,100.29 140.55,100.29L140.55,100.3" style="vector-effect: non-scaling-stroke; stroke-width: 2px; stroke: rgb(102, 194, 164); stroke-opacity: 1; fill: rgb(102, 194, 164); fill-opacity: 0.5;"/><path class="meanline" d="M135.07,69.7193374633789V100.3" style="fill: none; vector-effect: non-scaling-stroke; stroke-width: 2px; stroke-dasharray: 4px, 2px; stroke: rgb(102, 194, 164); stroke-opacity: 1;"/></g><g class="trace violins" style="opacity: 1;"><path class="violin" d="M70.94,69.7L70.94,69.69Q70.99,69.69 71.01,69.69C71.03,69.69 71.06,69.68 71.08,69.68C71.1,69.68 71.13,69.68 71.15,69.68C71.17,69.68 71.2,69.67 71.22,69.67C71.24,69.67 71.27,69.66 71.29,69.66C71.31,69.66 71.34,69.66 71.36,69.66C71.38,69.66 71.41,69.66 71.43,69.66C71.45,69.66 71.48,69.66 71.5,69.66C71.53,69.66 71.55,69.66 71.58,69.66C71.6,69.66 71.63,69.65 71.65,69.65C71.67,69.65 71.7,69.64 71.72,69.64C71.74,69.63 71.77,69.63 71.79,69.62C71.81,69.61 71.84,69.61 71.86,69.6C71.88,69.59 71.91,69.59 71.93,69.58C71.95,69.57 71.98,69.56 72,69.55C72.02,69.54 72.05,69.52 72.07,69.51C72.09,69.49 72.12,69.48 72.14,69.46C72.16,69.44 72.19,69.42 72.21,69.4C72.23,69.37 72.26,69.34 72.28,69.31C72.3,69.28 72.33,69.24 72.35,69.2C72.37,69.16 72.4,69.12 72.42,69.07C72.44,69.02 72.47,68.97 72.49,68.92C72.51,68.87 72.54,68.81 72.56,68.75C72.58,68.69 72.61,68.62 72.63,68.56C72.65,68.49 72.68,68.43 72.7,68.36C72.72,68.28 72.75,68.2 72.77,68.11C72.79,68.02 72.82,67.93 72.84,67.83C72.86,67.72 72.89,67.61 72.91,67.5C72.93,67.39 72.96,67.27 72.98,67.15C73,67.03 73.03,66.9 73.05,66.77C73.07,66.64 73.1,66.51 73.12,66.38C73.15,66.24 73.18,66.1 73.2,65.96C73.23,65.81 73.25,65.65 73.27,65.48C73.29,65.3 73.32,65.11 73.34,64.92C73.36,64.71 73.39,64.49 73.41,64.26C73.43,64.01 73.46,63.75 73.48,63.48C73.5,63.2 73.53,62.91 73.55,62.61C73.57,62.3 73.6,61.98 73.62,61.65C73.64,61.31 73.67,60.97 73.69,60.62C73.71,60.27 73.74,59.91 73.76,59.55C73.78,59.18 73.81,58.81 73.83,58.43C73.85,58.04 73.88,57.65 73.9,57.25C73.92,56.84 73.95,56.43 73.97,56.01C73.99,55.57 74.02,55.12 74.04,54.67C74.06,54.2 74.09,53.73 74.11,53.25C74.13,52.75 74.16,52.25 74.18,51.74C74.2,51.23 74.23,50.7 74.25,50.19C74.27,49.68 74.3,49.16 74.32,48.66C74.34,48.18 74.37,47.69 74.39,47.23C74.41,46.79 74.44,46.35 74.46,45.94C74.48,45.56 74.51,45.19 74.53,44.84C74.55,44.52 74.58,44.22 74.6,43.94C74.62,43.69 74.65,43.45 74.67,43.22C74.69,43.01 74.72,42.81 74.74,42.62C74.76,42.44 74.78,42.28 74.81,42.11C74.83,41.95 74.86,41.79 74.89,41.63C74.91,41.48 74.94,41.33 74.96,41.18C74.98,41.04 75.01,40.89 75.03,40.76C75.05,40.64 75.08,40.52 75.1,40.41C75.12,40.31 75.15,40.21 75.17,40.12C75.19,40.04 75.22,39.96 75.24,39.89C75.26,39.82 75.29,39.75 75.31,39.68C75.33,39.61 75.36,39.54 75.38,39.47C75.4,39.4 75.42,39.32 75.45,39.26C75.47,39.21 75.49,39.14 75.52,39.12C75.54,39.1 75.57,39.09 75.59,39.1C75.62,39.12 75.64,39.21 75.66,39.29C75.69,39.41 75.71,39.58 75.73,39.75C75.76,39.97 75.78,40.22 75.8,40.48C75.83,40.78 75.85,41.12 75.87,41.46C75.89,41.83 75.92,42.23 75.94,42.62C75.96,43.03 75.99,43.46 76.01,43.88C76.03,44.31 76.06,44.74 76.08,45.17C76.1,45.6 76.13,46.02 76.15,46.45C76.17,46.87 76.2,47.3 76.22,47.72C76.24,48.14 76.27,48.55 76.29,48.97C76.31,49.39 76.34,49.8 76.36,50.22C76.38,50.63 76.4,51.05 76.43,51.46C76.45,51.87 76.48,52.28 76.51,52.68C76.53,53.07 76.56,53.46 76.58,53.85C76.6,54.23 76.63,54.61 76.65,54.98C76.67,55.34 76.7,55.69 76.72,56.04C76.74,56.38 76.77,56.71 76.79,57.04C76.81,57.37 76.84,57.69 76.86,58.01C76.88,58.33 76.91,58.64 76.93,58.96C76.95,59.28 76.98,59.59 77,59.91C77.02,60.23 77.05,60.54 77.07,60.86C77.09,61.18 77.12,61.5 77.14,61.82C77.16,62.13 77.19,62.44 77.21,62.75C77.23,63.05 77.26,63.34 77.28,63.63C77.3,63.9 77.33,64.17 77.35,64.43C77.37,64.67 77.4,64.9 77.42,65.12C77.44,65.32 77.47,65.51 77.49,65.69C77.51,65.85 77.54,66 77.56,66.14C77.58,66.27 77.61,66.39 77.63,66.5C77.65,66.6 77.68,66.7 77.7,66.8C77.72,66.89 77.75,66.98 77.77,67.07C77.79,67.16 77.82,67.24 77.84,67.33C77.86,67.41 77.89,67.5 77.91,67.58C77.93,67.66 77.96,67.74 77.98,67.82C78,67.9 78.03,67.98 78.05,68.06C78.07,68.14 78.09,68.21 78.12,68.28C78.14,68.35 78.17,68.42 78.2,68.48C78.22,68.54 78.25,68.6 78.27,68.66C78.29,68.71 78.32,68.76 78.34,68.81C78.36,68.85 78.39,68.89 78.41,68.93C78.43,68.97 78.46,69 78.48,69.03C78.5,69.06 78.53,69.09 78.55,69.12C78.57,69.15 78.6,69.17 78.62,69.2C78.64,69.23 78.67,69.25 78.69,69.28C78.71,69.31 78.74,69.33 78.76,69.36C78.78,69.38 78.81,69.41 78.83,69.43C78.85,69.45 78.88,69.47 78.9,69.49C78.92,69.51 78.95,69.52 78.97,69.54C78.99,69.55 79.02,69.57 79.04,69.58C79.06,69.59 79.09,69.6 79.11,69.61C79.13,69.62 79.16,69.62 79.18,69.63C79.2,69.64 79.23,69.65 79.25,69.66C79.27,69.67 79.3,69.67 79.32,69.67C79.34,69.67 79.37,69.68 79.39,69.68Q79.41,69.68 79.46,69.69L79.46,69.7" style="vector-effect: non-scaling-stroke; stroke-width: 2px; stroke: rgb(102, 194, 164); stroke-opacity: 1; fill: rgb(102, 194, 164); fill-opacity: 0.5;"/><path class="meanline" d="M75.36,39.5340461730957V69.7" style="fill: none; vector-effect: non-scaling-stroke; stroke-width: 2px; stroke-dasharray: 4px, 2px; stroke: rgb(102, 194, 164); stroke-opacity: 1;"/></g><g class="trace violins" style="opacity: 1;"><path class="violin" d="M98.36,39.1L98.36,39.09Q98.43,39.09 98.46,39.09C98.49,39.09 98.53,39.08 98.56,39.08C98.59,39.08 98.62,39.08 98.65,39.08C98.68,39.08 98.72,39.07 98.75,39.07C98.78,39.07 98.82,39.06 98.85,39.06C98.88,39.06 98.92,39.05 98.95,39.05C98.98,39.05 99.02,39.05 99.05,39.05C99.08,39.05 99.12,39.04 99.15,39.04C99.18,39.04 99.22,39.04 99.25,39.03C99.28,39.03 99.31,39.02 99.34,39.01C99.37,39 99.41,39 99.44,38.99C99.47,38.98 99.51,38.98 99.54,38.97C99.57,38.96 99.61,38.94 99.64,38.93C99.67,38.92 99.71,38.91 99.74,38.9C99.77,38.89 99.81,38.87 99.84,38.85C99.87,38.83 99.9,38.81 99.93,38.78C99.96,38.75 100,38.72 100.03,38.69C100.06,38.65 100.1,38.61 100.13,38.57C100.16,38.53 100.2,38.49 100.23,38.44C100.26,38.39 100.3,38.33 100.33,38.28C100.36,38.22 100.4,38.17 100.43,38.11C100.46,38.05 100.5,38 100.53,37.94C100.56,37.88 100.59,37.81 100.62,37.74C100.65,37.66 100.69,37.58 100.72,37.5C100.75,37.41 100.79,37.32 100.82,37.22C100.86,37.11 100.89,36.99 100.92,36.87C100.95,36.74 100.99,36.59 101.02,36.45C101.05,36.3 101.09,36.14 101.12,35.98C101.15,35.81 101.19,35.62 101.22,35.44C101.25,35.25 101.28,35.06 101.31,34.87C101.34,34.67 101.38,34.46 101.41,34.25C101.44,34.04 101.48,33.83 101.51,33.61C101.54,33.38 101.58,33.15 101.61,32.92C101.64,32.68 101.68,32.43 101.71,32.18C101.74,31.92 101.78,31.64 101.81,31.37C101.84,31.09 101.88,30.79 101.91,30.5C101.94,30.2 101.97,29.89 102,29.58C102.03,29.26 102.07,28.94 102.1,28.62C102.13,28.3 102.17,27.97 102.2,27.65C102.23,27.33 102.27,27.01 102.3,26.69C102.33,26.37 102.37,26.05 102.4,25.73C102.43,25.41 102.47,25.1 102.5,24.78C102.53,24.46 102.57,24.14 102.6,23.82C102.63,23.49 102.66,23.16 102.69,22.83C102.72,22.49 102.76,22.14 102.79,21.79C102.82,21.43 102.86,21.07 102.89,20.7C102.92,20.32 102.96,19.93 102.99,19.54C103.02,19.14 103.06,18.74 103.09,18.33C103.12,17.92 103.16,17.5 103.19,17.08C103.22,16.65 103.26,16.22 103.29,15.79C103.32,15.35 103.35,14.91 103.38,14.47C103.41,14.03 103.45,13.6 103.48,13.17C103.51,12.75 103.55,12.32 103.58,11.92C103.61,11.54 103.65,11.16 103.68,10.81C103.71,10.49 103.74,10.17 103.78,9.88C103.81,9.64 103.84,9.4 103.88,9.2C103.91,9.04 103.94,8.88 103.98,8.76C104.01,8.67 104.03,8.58 104.07,8.54C104.1,8.51 104.14,8.49 104.17,8.5C104.21,8.51 104.24,8.57 104.27,8.62C104.31,8.69 104.34,8.78 104.37,8.87C104.41,8.98 104.44,9.1 104.47,9.22C104.51,9.36 104.54,9.5 104.57,9.65C104.6,9.8 104.64,9.96 104.67,10.12C104.7,10.28 104.73,10.45 104.76,10.62C104.79,10.79 104.83,10.97 104.86,11.15C104.89,11.33 104.93,11.52 104.96,11.71C104.99,11.91 105.03,12.12 105.06,12.34C105.1,12.58 105.13,12.83 105.16,13.1C105.2,13.4 105.23,13.71 105.26,14.04C105.29,14.4 105.32,14.77 105.35,15.16C105.38,15.57 105.42,16.01 105.45,16.45C105.48,16.9 105.52,17.38 105.55,17.84C105.58,18.31 105.62,18.78 105.65,19.24C105.68,19.68 105.72,20.12 105.75,20.55C105.78,20.95 105.82,21.35 105.85,21.73C105.88,22.09 105.92,22.44 105.95,22.79C105.98,23.12 106.01,23.44 106.04,23.76C106.07,24.07 106.11,24.37 106.14,24.68C106.17,24.99 106.21,25.29 106.24,25.6C106.27,25.9 106.31,26.21 106.34,26.51C106.37,26.81 106.41,27.12 106.44,27.42C106.47,27.72 106.51,28.01 106.54,28.3C106.57,28.59 106.61,28.87 106.64,29.16C106.67,29.45 106.7,29.74 106.73,30.02C106.76,30.3 106.8,30.58 106.83,30.86C106.86,31.14 106.9,31.42 106.93,31.69C106.96,31.96 107,32.24 107.03,32.5C107.06,32.75 107.1,33 107.13,33.24C107.16,33.47 107.2,33.69 107.23,33.91C107.26,34.12 107.3,34.32 107.33,34.51C107.36,34.69 107.39,34.86 107.42,35.03C107.45,35.19 107.49,35.35 107.52,35.5C107.55,35.64 107.59,35.78 107.62,35.92C107.65,36.05 107.69,36.18 107.72,36.31C107.75,36.43 107.79,36.55 107.82,36.66C107.85,36.76 107.89,36.86 107.92,36.96C107.95,37.05 107.99,37.14 108.02,37.22C108.05,37.3 108.08,37.37 108.11,37.44C108.14,37.51 108.18,37.57 108.21,37.63C108.24,37.69 108.28,37.74 108.31,37.8C108.34,37.86 108.38,37.91 108.41,37.97C108.44,38.03 108.48,38.08 108.51,38.14C108.54,38.19 108.58,38.25 108.61,38.3C108.64,38.35 108.68,38.4 108.71,38.44C108.74,38.48 108.77,38.52 108.8,38.56C108.83,38.6 108.87,38.63 108.9,38.67C108.93,38.7 108.97,38.74 109,38.77C109.03,38.8 109.07,38.82 109.1,38.85C109.13,38.87 109.17,38.9 109.2,38.92C109.23,38.94 109.27,38.95 109.3,38.97C109.33,38.98 109.37,39 109.4,39.01C109.43,39.02 109.46,39.03 109.49,39.04C109.52,39.05 109.56,39.05 109.59,39.06C109.62,39.07 109.66,39.07 109.69,39.08C109.72,39.08 109.76,39.09 109.79,39.09Q109.82,39.09 109.89,39.09L109.89,39.1" style="vector-effect: non-scaling-stroke; stroke-width: 2px; stroke: rgb(102, 194, 164); stroke-opacity: 1; fill: rgb(102, 194, 164); fill-opacity: 0.5;"/><path class="meanline" d="M104.35,8.811256408691406V39.1" style="fill: none; vector-effect: non-scaling-stroke; stroke-width: 2px; stroke-dasharray: 4px, 2px; stroke: rgb(102, 194, 164); stroke-opacity: 1;"/></g></g></g><g class="overplot"/><path class="xlines-above crisp" d="M0,0" style="fill: none;"/><path class="ylines-above crisp" d="M0,0" style="fill: none;"/><g class="overlines-above"/><g class="xaxislayer-above"><g class="xtick"><text text-anchor="start" x="0" y="203" transform="translate(20,0) rotate(90,0,197)" style="font-family: 'Open Sans', verdana, arial, sans-serif; font-size: 12px; fill: rgb(68, 68, 68); fill-opacity: 1; white-space: pre;">−1</text></g><g class="xtick"><text text-anchor="start" x="0" y="203" transform="translate(48.25,0) rotate(90,0,197)" style="font-family: 'Open Sans', verdana, arial, sans-serif; font-size: 12px; fill: rgb(68, 68, 68); fill-opacity: 1; white-space: pre;">−0.75</text></g><g class="xtick"><text text-anchor="start" x="0" y="203" transform="translate(76.5,0) rotate(90,0,197)" style="font-family: 'Open Sans', verdana, arial, sans-serif; font-size: 12px; fill: rgb(68, 68, 68); fill-opacity: 1; white-space: pre;">−0.5</text></g><g class="xtick"><text text-anchor="start" x="0" y="203" transform="translate(104.75,0) rotate(90,0,197)" style="font-family: 'Open Sans', verdana, arial, sans-serif; font-size: 12px; fill: rgb(68, 68, 68); fill-opacity: 1; white-space: pre;">−0.25</text></g><g class="xtick"><text text-anchor="start" x="0" y="203" transform="translate(133,0) rotate(90,0,197)" style="font-family: 'Open Sans', verdana, arial, sans-serif; font-size: 12px; fill: rgb(68, 68, 68); fill-opacity: 1; white-space: pre;">0</text></g><g class="xtick"><text text-anchor="start" x="0" y="203" transform="translate(161.25,0) rotate(90,0,197)" style="font-family: 'Open Sans', verdana, arial, sans-serif; font-size: 12px; fill: rgb(68, 68, 68); fill-opacity: 1; white-space: pre;">0.25</text></g><g class="xtick"><text text-anchor="start" x="0" y="203" transform="translate(189.5,0) rotate(90,0,197)" style="font-family: 'Open Sans', verdana, arial, sans-serif; font-size: 12px; fill: rgb(68, 68, 68); fill-opacity: 1; white-space: pre;">0.5</text></g><g class="xtick"><text text-anchor="start" x="0" y="203" transform="translate(217.75,0) rotate(90,0,197)" style="font-family: 'Open Sans', verdana, arial, sans-serif; font-size: 12px; fill: rgb(68, 68, 68); fill-opacity: 1; white-space: pre;">0.75</text></g><g class="xtick"><text text-anchor="start" x="0" y="203" transform="translate(246,0) rotate(90,0,197)" style="font-family: 'Open Sans', verdana, arial, sans-serif; font-size: 12px; fill: rgb(68, 68, 68); fill-opacity: 1; white-space: pre;">1</text></g></g><g class="yaxislayer-above"/><g class="overaxes-above"/></g></g><g class="polarlayer"/><g class="ternarylayer"/><g class="geolayer"/><g class="funnelarealayer"/><g class="pielayer"/><g class="treemaplayer"/><g class="sunburstlayer"/><g class="glimages"/><defs id="topdefs-48be84"><g class="clips"/></defs><g class="layer-above"><g class="imagelayer"/><g class="shapelayer"><path data-index="0" fill-rule="evenodd" d="M121.7,181.5L121.7,28.5" clip-path="url('#clip48be84xy')" style="opacity: 1; stroke: rgb(0, 0, 0); stroke-opacity: 1; fill: rgb(0, 0, 0); fill-opacity: 0; stroke-dasharray: 9px, 9px; stroke-width: 2px;"/><path data-index="1" fill-rule="evenodd" d="M144.3,181.5L144.3,28.5" clip-path="url('#clip48be84xy')" style="opacity: 1; stroke: rgb(0, 0, 0); stroke-opacity: 1; fill: rgb(0, 0, 0); fill-opacity: 0; stroke-dasharray: 9px, 9px; stroke-width: 2px;"/></g></g><g class="infolayer"><g class="g-gtitle"><text class="gtitle" x="133" y="10" text-anchor="middle" dy="0em" style="font-family: Calibri; font-size: 14px; fill: rgb(68, 68, 68); opacity: 1; font-weight: normal; white-space: pre;">My_20</text></g><g class="g-xtitle" transform="translate(0,0.703125)"><text class="xtitle" x="133" y="242" text-anchor="middle" style="font-family: 'Open Sans', verdana, arial, sans-serif; font-size: 14px; fill: rgb(68, 68, 68); opacity: 1; font-weight: normal; white-space: pre;">Coeficiente de Interacción</text></g><g class="g-ytitle"/></g></svg>