<svg class="main-svg" xmlns="http://www.w3.org/2000/svg" xmlns:xlink="http://www.w3.org/1999/xlink" width="286" height="250" style="" viewBox="0 0 286 250"><rect x="0" y="0" width="286" height="250" style="fill: rgb(255, 255, 255); fill-opacity: 1;"/><defs id="defs-e3b26d"><g class="clips"><clipPath id="clipe3b26dxyplot" class="plotclip"><rect width="226" height="170"/></clipPath><clipPath class="axesclip" id="clipe3b26dx"><rect x="40" y="0" width="226" height="250"/></clipPath><clipPath class="axesclip" id="clipe3b26dy"><rect x="0" y="20" width="286" height="170"/></clipPath><clipPath class="axesclip" id="clipe3b26dxy"><rect x="40" y="20" width="226" height="170"/></clipPath></g><g class="gradients"/></defs><g class="bglayer"/><g class="layer-below"><g class="imagelayer"/><g class="shapelayer"/></g><g class="cartesianlayer"><g class="subplot xy"><g class="layer-subplot"><g class="shapelayer"/><g class="imagelayer"/></g><g class="gridlayer"><g class="x"/><g class="y"><path class="ygrid crisp" transform="translate(0,181.5)" d="M40,0h226" style="stroke: rgb(238, 238, 238); stroke-opacity: 1; stroke-width: 1px;"/><path class="ygrid crisp" transform="translate(0,143.25)" d="M40,0h226" style="stroke: rgb(238, 238, 238); stroke-opacity: 1; stroke-width: 1px;"/><path class="ygrid crisp" transform="translate(0,105)" d="M40,0h226" style="stroke: rgb(238, 238, 238); stroke-opacity: 1; stroke-width: 1px;"/><path class="ygrid crisp" transform="translate(0,66.75)" d="M40,0h226" style="stroke: rgb(238, 238, 238); stroke-opacity: 1; stroke-width: 1px;"/></g></g><g class="zerolinelayer"/><path class="xlines-below"/><path class="ylines-below"/><g class="overlines-below"/><g class="xaxislayer-below"/><g class="yaxislayer-below"/><g class="overaxes-below"/><g class="plot" transform="translate(40,20)" clip-path="url('#clipe3b26dxyplot')"><g class="violinlayer mlayer"><g class="trace violins" style="opacity: 1;"><path class="violin" d="M162.8,161.5L162.8,161.49Q162.89,161.49 162.94,161.49C162.99,161.49 163.04,161.48 163.09,161.48C163.14,161.48 163.18,161.47 163.23,161.47C163.28,161.47 163.33,161.46 163.38,161.46C163.43,161.46 163.47,161.45 163.52,161.45C163.57,161.45 163.61,161.45 163.66,161.45C163.71,161.45 163.76,161.45 163.81,161.45C163.86,161.45 163.9,161.45 163.95,161.45C164,161.45 164.05,161.45 164.1,161.45C164.15,161.45 164.19,161.44 164.24,161.44C164.29,161.44 164.34,161.44 164.39,161.43C164.44,161.43 164.48,161.42 164.53,161.41C164.58,161.4 164.62,161.4 164.67,161.39C164.72,161.38 164.77,161.38 164.82,161.37C164.87,161.36 164.91,161.35 164.96,161.35C165.01,161.34 165.06,161.35 165.11,161.34C165.16,161.34 165.2,161.33 165.25,161.32C165.3,161.31 165.35,161.31 165.4,161.3C165.45,161.29 165.49,161.29 165.54,161.28C165.59,161.27 165.63,161.26 165.68,161.25C165.73,161.24 165.78,161.22 165.83,161.21C165.88,161.2 165.92,161.18 165.97,161.17C166.02,161.16 166.07,161.14 166.12,161.13C166.17,161.12 166.21,161.1 166.26,161.09C166.31,161.07 166.36,161.06 166.41,161.04C166.46,161.02 166.5,160.99 166.55,160.96C166.6,160.93 166.64,160.9 166.69,160.87C166.74,160.84 166.79,160.8 166.84,160.76C166.89,160.72 166.93,160.68 166.98,160.64C167.03,160.6 167.08,160.55 167.13,160.51C167.18,160.47 167.22,160.42 167.27,160.38C167.32,160.33 167.36,160.29 167.41,160.24C167.46,160.19 167.51,160.13 167.56,160.07C167.61,160.01 167.65,159.95 167.7,159.88C167.75,159.81 167.8,159.73 167.85,159.65C167.9,159.56 167.94,159.45 167.99,159.35C168.04,159.24 168.09,159.12 168.14,159C168.19,158.87 168.23,158.74 168.28,158.6C168.33,158.46 168.37,158.31 168.42,158.16C168.47,158.01 168.52,157.85 168.57,157.69C168.62,157.53 168.66,157.37 168.71,157.21C168.76,157.05 168.81,156.89 168.86,156.72C168.91,156.55 168.95,156.38 169,156.2C169.05,156.02 169.1,155.83 169.15,155.64C169.2,155.44 169.24,155.23 169.29,155.02C169.34,154.8 169.38,154.57 169.43,154.33C169.48,154.08 169.53,153.82 169.58,153.56C169.63,153.29 169.67,153 169.72,152.72C169.77,152.43 169.82,152.12 169.87,151.82C169.92,151.51 169.96,151.19 170.01,150.87C170.06,150.54 170.1,150.22 170.15,149.88C170.2,149.53 170.25,149.18 170.3,148.82C170.35,148.45 170.39,148.08 170.44,147.69C170.49,147.28 170.54,146.87 170.59,146.44C170.64,146 170.68,145.54 170.73,145.08C170.78,144.6 170.83,144.11 170.88,143.62C170.93,143.12 170.97,142.62 171.02,142.11C171.07,141.6 171.11,141.09 171.16,140.58C171.21,140.07 171.26,139.56 171.31,139.05C171.36,138.54 171.4,138.03 171.45,137.53C171.5,137.03 171.55,136.54 171.6,136.05C171.65,135.57 171.69,135.09 171.74,134.62C171.79,134.16 171.84,133.7 171.89,133.25C171.94,132.81 171.98,132.38 172.03,131.95C172.08,131.53 172.12,131.11 172.17,130.7C172.22,130.29 172.27,129.89 172.32,129.49C172.37,129.09 172.41,128.7 172.46,128.31C172.51,127.93 172.56,127.55 172.61,127.18C172.66,126.82 172.7,126.47 172.75,126.13C172.8,125.81 172.84,125.49 172.89,125.2C172.94,124.93 172.99,124.67 173.04,124.43C173.09,124.22 173.13,124.01 173.18,123.84C173.22,123.69 173.27,123.56 173.33,123.45C173.37,123.37 173.41,123.27 173.47,123.25C173.51,123.23 173.58,123.24 173.62,123.27C173.68,123.31 173.72,123.43 173.76,123.54C173.81,123.68 173.86,123.86 173.9,124.04C173.95,124.26 174,124.51 174.05,124.76C174.1,125.04 174.14,125.33 174.19,125.63C174.24,125.94 174.29,126.27 174.34,126.59C174.39,126.92 174.43,127.25 174.48,127.58C174.53,127.92 174.58,128.25 174.63,128.59C174.68,128.94 174.72,129.28 174.77,129.64C174.82,130.01 174.86,130.39 174.91,130.77C174.96,131.17 175.01,131.58 175.06,132C175.11,132.44 175.15,132.9 175.2,133.36C175.25,133.85 175.3,134.35 175.35,134.86C175.4,135.39 175.44,135.93 175.49,136.47C175.54,137.03 175.58,137.59 175.63,138.16C175.68,138.73 175.73,139.31 175.78,139.88C175.83,140.44 175.87,140.99 175.92,141.54C175.97,142.07 176.02,142.6 176.07,143.11C176.12,143.61 176.16,144.1 176.21,144.58C176.26,145.05 176.31,145.51 176.36,145.97C176.41,146.42 176.45,146.87 176.5,147.32C176.55,147.77 176.59,148.21 176.64,148.65C176.69,149.08 176.74,149.51 176.79,149.93C176.84,150.34 176.88,150.75 176.93,151.15C176.98,151.53 177.03,151.9 177.08,152.26C177.13,152.6 177.17,152.93 177.22,153.25C177.27,153.55 177.32,153.83 177.37,154.11C177.42,154.37 177.46,154.62 177.51,154.86C177.56,155.09 177.6,155.31 177.65,155.53C177.7,155.74 177.75,155.93 177.8,156.13C177.85,156.32 177.89,156.51 177.94,156.7C177.99,156.88 178.04,157.05 178.09,157.23C178.14,157.4 178.18,157.58 178.23,157.75C178.28,157.91 178.32,158.07 178.37,158.23C178.42,158.39 178.47,158.54 178.52,158.69C178.57,158.83 178.61,158.97 178.66,159.11C178.71,159.24 178.76,159.37 178.81,159.49C178.86,159.61 178.9,159.72 178.95,159.83C179,159.93 179.05,160.03 179.1,160.13C179.15,160.22 179.19,160.31 179.24,160.39C179.28,160.46 179.33,160.54 179.38,160.6C179.43,160.66 179.48,160.71 179.53,160.76C179.58,160.8 179.62,160.84 179.67,160.87C179.72,160.9 179.77,160.93 179.82,160.96C179.87,160.98 179.91,161 179.96,161.02C180.01,161.04 180.06,161.06 180.11,161.08C180.16,161.1 180.2,161.11 180.25,161.12C180.3,161.14 180.34,161.16 180.39,161.17C180.44,161.19 180.49,161.2 180.54,161.21C180.59,161.22 180.63,161.24 180.68,161.25C180.73,161.26 180.78,161.28 180.83,161.29C180.88,161.3 180.92,161.31 180.97,161.32C181.02,161.33 181.06,161.34 181.11,161.35C181.16,161.36 181.21,161.37 181.26,161.38C181.31,161.39 181.35,161.4 181.4,161.41C181.45,161.42 181.5,161.43 181.55,161.44C181.6,161.45 181.64,161.46 181.69,161.46C181.74,161.47 181.79,161.47 181.84,161.47C181.89,161.47 181.93,161.48 181.98,161.48Q182.03,161.48 182.12,161.49L182.12,161.5" style="vector-effect: non-scaling-stroke; stroke-width: 2px; stroke: rgb(102, 194, 164); stroke-opacity: 1; fill: rgb(102, 194, 164); fill-opacity: 0.5;"/><path class="meanline" d="M173.43,123.27649688720703V161.5" style="fill: none; vector-effect: non-scaling-stroke; stroke-width: 2px; stroke-dasharray: 4px, 2px; stroke: rgb(102, 194, 164); stroke-opacity: 1;"/></g><g class="trace violins" style="opacity: 1;"><path class="violin" d="M70.18,123.25L70.18,123.24Q70.23,123.24 70.25,123.24C70.27,123.24 70.29,123.23 70.31,123.23C70.33,123.23 70.35,123.22 70.37,123.22C70.39,123.22 70.41,123.21 70.43,123.21C70.45,123.21 70.47,123.2 70.49,123.2C70.51,123.2 70.53,123.2 70.55,123.2C70.57,123.2 70.59,123.2 70.61,123.2C70.63,123.2 70.65,123.19 70.67,123.19C70.69,123.19 70.71,123.18 70.73,123.18C70.75,123.17 70.77,123.17 70.79,123.16C70.81,123.15 70.83,123.13 70.85,123.12C70.87,123.1 70.9,123.09 70.92,123.07C70.94,123.05 70.96,123.02 70.98,123C71,122.97 71.02,122.95 71.04,122.92C71.06,122.89 71.08,122.86 71.1,122.83C71.12,122.8 71.14,122.76 71.16,122.72C71.18,122.68 71.2,122.64 71.22,122.59C71.24,122.54 71.26,122.48 71.28,122.42C71.3,122.35 71.32,122.28 71.34,122.2C71.36,122.11 71.38,122.01 71.4,121.91C71.42,121.79 71.44,121.67 71.46,121.54C71.48,121.4 71.5,121.25 71.52,121.09C71.54,120.92 71.57,120.75 71.59,120.57C71.61,120.38 71.63,120.17 71.65,119.97C71.67,119.76 71.69,119.55 71.71,119.34C71.73,119.12 71.75,118.9 71.77,118.68C71.79,118.46 71.81,118.24 71.83,118.02C71.85,117.8 71.87,117.57 71.89,117.35C71.91,117.13 71.93,116.91 71.95,116.68C71.97,116.45 71.99,116.22 72.01,115.98C72.03,115.73 72.05,115.49 72.07,115.23C72.09,114.96 72.11,114.68 72.13,114.4C72.15,114.1 72.17,113.8 72.19,113.49C72.21,113.16 72.24,112.83 72.26,112.49C72.28,112.13 72.3,111.76 72.32,111.38C72.34,110.99 72.36,110.6 72.38,110.2C72.4,109.79 72.42,109.36 72.44,108.94C72.46,108.51 72.48,108.08 72.5,107.64C72.52,107.2 72.54,106.75 72.56,106.31C72.58,105.86 72.6,105.42 72.62,104.97C72.64,104.52 72.66,104.08 72.68,103.63C72.7,103.18 72.72,102.74 72.74,102.29C72.76,101.83 72.78,101.37 72.8,100.9C72.82,100.42 72.84,99.93 72.86,99.44C72.88,98.94 72.91,98.44 72.93,97.94C72.95,97.44 72.97,96.94 72.99,96.45C73.01,95.98 73.03,95.51 73.05,95.06C73.07,94.64 73.09,94.23 73.11,93.83C73.13,93.46 73.15,93.1 73.17,92.75C73.19,92.41 73.21,92.09 73.23,91.75C73.25,91.41 73.27,91.07 73.29,90.72C73.31,90.35 73.33,89.97 73.35,89.58C73.37,89.17 73.39,88.75 73.41,88.33C73.43,87.92 73.45,87.49 73.47,87.09C73.49,86.73 73.51,86.36 73.53,86.04C73.55,85.78 73.57,85.51 73.6,85.32C73.62,85.19 73.63,85.01 73.66,85C73.68,84.99 73.7,85.03 73.72,85.06C73.75,85.12 73.76,85.27 73.78,85.39C73.8,85.54 73.82,85.72 73.84,85.9C73.86,86.09 73.88,86.29 73.9,86.5C73.92,86.72 73.94,86.94 73.96,87.17C73.98,87.42 74,87.67 74.02,87.93C74.04,88.21 74.06,88.5 74.08,88.8C74.1,89.13 74.12,89.47 74.14,89.82C74.16,90.19 74.18,90.59 74.2,90.98C74.22,91.39 74.25,91.82 74.27,92.24C74.29,92.67 74.31,93.12 74.33,93.56C74.35,94 74.37,94.45 74.39,94.9C74.41,95.35 74.43,95.8 74.45,96.26C74.47,96.72 74.49,97.18 74.51,97.65C74.53,98.13 74.55,98.6 74.57,99.09C74.59,99.59 74.61,100.1 74.63,100.61C74.65,101.12 74.67,101.64 74.69,102.16C74.71,102.68 74.73,103.21 74.75,103.72C74.77,104.22 74.79,104.72 74.81,105.21C74.83,105.68 74.85,106.14 74.87,106.58C74.89,106.99 74.91,107.39 74.93,107.78C74.95,108.14 74.98,108.49 75,108.82C75.02,109.13 75.04,109.43 75.06,109.72C75.08,110 75.1,110.28 75.12,110.56C75.14,110.83 75.16,111.1 75.18,111.38C75.2,111.66 75.22,111.95 75.24,112.24C75.26,112.54 75.28,112.86 75.3,113.17C75.32,113.49 75.34,113.82 75.36,114.14C75.38,114.47 75.4,114.8 75.42,115.13C75.44,115.46 75.46,115.79 75.48,116.11C75.5,116.42 75.52,116.73 75.54,117.03C75.56,117.32 75.58,117.6 75.6,117.88C75.62,118.14 75.65,118.39 75.67,118.64C75.69,118.87 75.71,119.1 75.73,119.32C75.75,119.53 75.77,119.73 75.79,119.92C75.81,120.1 75.83,120.28 75.85,120.45C75.87,120.61 75.89,120.76 75.91,120.91C75.93,121.05 75.95,121.18 75.97,121.31C75.99,121.43 76.01,121.54 76.03,121.65C76.05,121.75 76.07,121.84 76.09,121.93C76.11,122.01 76.13,122.09 76.15,122.16C76.17,122.23 76.19,122.3 76.21,122.36C76.23,122.42 76.25,122.47 76.27,122.52C76.29,122.57 76.32,122.62 76.34,122.66C76.36,122.7 76.38,122.74 76.4,122.77C76.42,122.8 76.44,122.83 76.46,122.86C76.48,122.89 76.5,122.92 76.52,122.94C76.54,122.96 76.56,122.98 76.58,123C76.6,123.02 76.62,123.04 76.64,123.06C76.66,123.08 76.68,123.09 76.7,123.11C76.72,123.12 76.74,123.14 76.76,123.15C76.78,123.16 76.8,123.17 76.82,123.18C76.84,123.19 76.86,123.19 76.88,123.19C76.9,123.19 76.92,123.2 76.94,123.2C76.96,123.2 76.99,123.2 77.01,123.2C77.03,123.2 77.05,123.2 77.07,123.2C77.09,123.2 77.11,123.2 77.13,123.2C77.15,123.2 77.17,123.2 77.19,123.2C77.21,123.2 77.23,123.21 77.25,123.21C77.27,123.21 77.29,123.22 77.31,123.22C77.33,123.22 77.35,123.23 77.37,123.23C77.39,123.23 77.41,123.24 77.43,123.24Q77.45,123.24 77.49,123.24L77.49,123.25" style="vector-effect: non-scaling-stroke; stroke-width: 2px; stroke: rgb(102, 194, 164); stroke-opacity: 1; fill: rgb(102, 194, 164); fill-opacity: 0.5;"/><path class="meanline" d="M73.73,85.08576202392578V123.25" style="fill: none; vector-effect: non-scaling-stroke; stroke-width: 2px; stroke-dasharray: 4px, 2px; stroke: rgb(102, 194, 164); stroke-opacity: 1;"/></g><g class="trace violins" style="opacity: 1;"><path class="violin" d="M130.64,85L130.64,84.99Q130.69,84.98 130.72,84.98C130.75,84.98 130.77,84.98 130.8,84.97C130.83,84.96 130.85,84.95 130.88,84.94C130.91,84.93 130.94,84.92 130.96,84.91C130.99,84.9 131.01,84.88 131.03,84.86C131.06,84.84 131.08,84.82 131.11,84.8C131.14,84.78 131.16,84.75 131.19,84.73C131.22,84.7 131.24,84.68 131.27,84.65C131.3,84.62 131.32,84.6 131.35,84.57C131.38,84.55 131.4,84.52 131.43,84.5C131.46,84.47 131.48,84.45 131.51,84.42C131.54,84.39 131.56,84.36 131.59,84.33C131.62,84.29 131.64,84.25 131.67,84.21C131.7,84.16 131.72,84.11 131.75,84.06C131.78,84 131.8,83.94 131.83,83.87C131.86,83.8 131.88,83.73 131.91,83.65C131.94,83.57 131.96,83.49 131.99,83.41C132.02,83.33 132.04,83.24 132.07,83.16C132.09,83.08 132.12,83 132.14,82.92C132.17,82.84 132.19,82.76 132.22,82.68C132.25,82.59 132.27,82.5 132.3,82.4C132.33,82.29 132.35,82.18 132.38,82.06C132.41,81.92 132.43,81.77 132.46,81.62C132.49,81.45 132.51,81.27 132.54,81.08C132.57,80.87 132.59,80.65 132.62,80.43C132.65,80.19 132.67,79.95 132.7,79.7C132.73,79.43 132.75,79.16 132.78,78.88C132.81,78.59 132.83,78.29 132.86,77.98C132.89,77.66 132.91,77.32 132.94,76.98C132.97,76.62 132.99,76.26 133.02,75.88C133.05,75.48 133.08,75.07 133.1,74.65C133.13,74.21 133.15,73.75 133.17,73.29C133.2,72.81 133.22,72.33 133.25,71.84C133.28,71.34 133.3,70.82 133.33,70.31C133.36,69.8 133.38,69.27 133.41,68.76C133.44,68.25 133.46,67.74 133.49,67.24C133.52,66.76 133.54,66.28 133.57,65.81C133.6,65.36 133.62,64.93 133.65,64.5C133.68,64.09 133.7,63.7 133.73,63.31C133.76,62.95 133.78,62.6 133.81,62.25C133.84,61.92 133.86,61.6 133.89,61.28C133.92,60.96 133.94,60.64 133.97,60.32C134,59.99 134.02,59.66 134.05,59.31C134.08,58.94 134.11,58.56 134.13,58.17C134.16,57.75 134.18,57.31 134.2,56.86C134.23,56.39 134.25,55.91 134.28,55.42C134.31,54.92 134.33,54.41 134.36,53.91C134.39,53.42 134.41,52.94 134.44,52.47C134.47,52.03 134.49,51.59 134.52,51.18C134.55,50.8 134.57,50.43 134.6,50.09C134.63,49.78 134.65,49.48 134.68,49.2C134.71,48.94 134.73,48.7 134.76,48.47C134.79,48.25 134.81,48.05 134.84,47.85C134.87,47.67 134.89,47.5 134.92,47.34C134.95,47.2 134.97,47.07 135,46.96C135.02,46.88 135.04,46.79 135.08,46.76C135.1,46.74 135.14,46.74 135.16,46.75C135.2,46.77 135.22,46.86 135.24,46.93C135.27,47.03 135.29,47.15 135.31,47.28C135.34,47.43 135.36,47.59 135.39,47.76C135.42,47.95 135.44,48.16 135.47,48.38C135.5,48.62 135.52,48.87 135.55,49.13C135.58,49.41 135.6,49.71 135.63,50.01C135.66,50.33 135.68,50.67 135.71,51.01C135.74,51.37 135.76,51.74 135.79,52.12C135.82,52.52 135.84,52.93 135.87,53.35C135.9,53.79 135.92,54.25 135.95,54.72C135.98,55.21 136,55.72 136.03,56.23C136.06,56.76 136.08,57.31 136.11,57.85C136.14,58.4 136.16,58.97 136.19,59.53C136.22,60.09 136.24,60.65 136.27,61.21C136.29,61.76 136.31,62.32 136.34,62.86C136.36,63.39 136.39,63.92 136.42,64.44C136.45,64.95 136.47,65.46 136.5,65.96C136.53,66.45 136.55,66.93 136.58,67.41C136.61,67.88 136.63,68.34 136.66,68.79C136.69,69.23 136.71,69.68 136.74,70.11C136.77,70.53 136.79,70.95 136.82,71.36C136.85,71.76 136.87,72.16 136.9,72.56C136.93,72.95 136.95,73.33 136.98,73.71C137.01,74.08 137.03,74.45 137.06,74.81C137.09,75.16 137.11,75.51 137.14,75.85C137.17,76.18 137.19,76.5 137.22,76.82C137.25,77.13 137.27,77.43 137.3,77.73C137.33,78.02 137.35,78.29 137.38,78.57C137.4,78.84 137.42,79.11 137.45,79.37C137.47,79.62 137.5,79.86 137.53,80.1C137.56,80.33 137.58,80.57 137.61,80.79C137.64,81 137.66,81.21 137.69,81.42C137.72,81.62 137.74,81.81 137.77,82C137.8,82.18 137.82,82.36 137.85,82.53C137.88,82.69 137.9,82.84 137.93,82.99C137.96,83.13 137.98,83.26 138.01,83.39C138.04,83.5 138.06,83.61 138.09,83.71C138.12,83.8 138.14,83.88 138.17,83.95C138.19,84.01 138.22,84.07 138.25,84.12C138.27,84.16 138.3,84.2 138.33,84.23C138.35,84.26 138.38,84.27 138.41,84.29C138.43,84.31 138.46,84.33 138.48,84.34C138.51,84.36 138.53,84.37 138.56,84.38C138.59,84.39 138.61,84.41 138.64,84.42C138.67,84.44 138.69,84.45 138.72,84.47C138.75,84.49 138.77,84.52 138.8,84.54C138.83,84.57 138.85,84.59 138.88,84.62C138.91,84.65 138.93,84.67 138.96,84.7C138.99,84.72 139.01,84.75 139.04,84.77C139.07,84.79 139.09,84.81 139.12,84.83C139.15,84.85 139.17,84.87 139.2,84.88C139.23,84.89 139.25,84.9 139.28,84.91C139.31,84.92 139.33,84.92 139.36,84.93C139.39,84.93 139.41,84.94 139.44,84.94C139.47,84.94 139.49,84.95 139.52,84.95C139.54,84.95 139.57,84.96 139.59,84.96C139.62,84.96 139.64,84.96 139.67,84.96C139.7,84.96 139.72,84.96 139.75,84.96C139.78,84.96 139.8,84.96 139.83,84.96C139.86,84.96 139.88,84.96 139.91,84.96C139.94,84.96 139.96,84.95 139.99,84.95C140.02,84.95 140.04,84.95 140.07,84.95C140.1,84.95 140.12,84.95 140.15,84.95C140.18,84.95 140.2,84.96 140.23,84.96C140.26,84.96 140.28,84.97 140.31,84.97C140.34,84.97 140.36,84.98 140.39,84.98C140.42,84.98 140.44,84.99 140.47,84.99Q140.5,84.99 140.55,84.99L140.55,85" style="vector-effect: non-scaling-stroke; stroke-width: 2px; stroke: rgb(102, 194, 164); stroke-opacity: 1; fill: rgb(102, 194, 164); fill-opacity: 0.5;"/><path class="meanline" d="M135.07,46.7695426940918V85" style="fill: none; vector-effect: non-scaling-stroke; stroke-width: 2px; stroke-dasharray: 4px, 2px; stroke: rgb(102, 194, 164); stroke-opacity: 1;"/></g><g class="trace violins" style="opacity: 1;"><path class="violin" d="M98.36,46.75L98.36,46.74Q98.43,46.74 98.46,46.74C98.49,46.74 98.53,46.73 98.56,46.73C98.59,46.73 98.62,46.72 98.65,46.72C98.68,46.72 98.72,46.71 98.75,46.71C98.78,46.71 98.82,46.7 98.85,46.7C98.88,46.7 98.92,46.69 98.95,46.69C98.98,46.69 99.02,46.68 99.05,46.68C99.08,46.68 99.12,46.67 99.15,46.67C99.18,46.67 99.22,46.67 99.25,46.66C99.28,46.66 99.31,46.65 99.34,46.64C99.37,46.63 99.41,46.63 99.44,46.62C99.47,46.61 99.51,46.59 99.54,46.58C99.57,46.57 99.61,46.55 99.64,46.54C99.67,46.52 99.71,46.51 99.74,46.49C99.77,46.47 99.81,46.45 99.84,46.43C99.87,46.41 99.9,46.38 99.93,46.35C99.96,46.32 100,46.28 100.03,46.24C100.07,46.2 100.1,46.14 100.13,46.09C100.16,46.04 100.2,45.98 100.23,45.92C100.26,45.86 100.3,45.8 100.33,45.73C100.36,45.66 100.4,45.59 100.43,45.52C100.46,45.45 100.5,45.38 100.53,45.3C100.56,45.22 100.59,45.14 100.62,45.05C100.65,44.96 100.69,44.86 100.72,44.76C100.76,44.65 100.79,44.53 100.82,44.4C100.86,44.26 100.89,44.11 100.92,43.96C100.95,43.79 100.99,43.62 101.02,43.44C101.05,43.25 101.09,43.04 101.12,42.84C101.15,42.63 101.19,42.4 101.22,42.18C101.25,41.95 101.28,41.7 101.31,41.46C101.34,41.21 101.38,40.95 101.41,40.69C101.44,40.43 101.48,40.16 101.51,39.89C101.54,39.61 101.58,39.32 101.61,39.03C101.64,38.73 101.68,38.42 101.71,38.1C101.74,37.77 101.78,37.43 101.81,37.09C101.84,36.73 101.88,36.37 101.91,36C101.94,35.62 101.97,35.24 102,34.85C102.03,34.45 102.07,34.05 102.1,33.65C102.13,33.25 102.17,32.84 102.2,32.44C102.23,32.04 102.27,31.63 102.3,31.23C102.33,30.83 102.37,30.44 102.4,30.04C102.43,29.64 102.47,29.25 102.5,28.85C102.53,28.45 102.57,28.05 102.6,27.65C102.63,27.24 102.66,26.83 102.69,26.41C102.72,25.98 102.76,25.55 102.79,25.11C102.82,24.66 102.86,24.21 102.89,23.75C102.92,23.27 102.96,22.79 102.99,22.3C103.02,21.8 103.06,21.3 103.09,20.79C103.12,20.27 103.16,19.75 103.19,19.22C103.22,18.69 103.26,18.15 103.29,17.61C103.32,17.06 103.35,16.51 103.38,15.96C103.41,15.41 103.45,14.87 103.48,14.33C103.51,13.81 103.55,13.28 103.58,12.78C103.61,12.3 103.64,11.82 103.68,11.38C103.71,10.98 103.74,10.59 103.78,10.23C103.81,9.92 103.84,9.62 103.88,9.37C103.91,9.17 103.94,8.97 103.98,8.82C104.01,8.71 104.02,8.59 104.07,8.54C104.1,8.51 104.14,8.49 104.17,8.5C104.21,8.51 104.24,8.59 104.27,8.65C104.31,8.73 104.34,8.85 104.37,8.96C104.41,9.1 104.44,9.25 104.47,9.41C104.5,9.58 104.54,9.76 104.57,9.94C104.6,10.13 104.64,10.33 104.67,10.53C104.7,10.74 104.73,10.95 104.76,11.16C104.79,11.38 104.83,11.59 104.86,11.81C104.89,12.04 104.93,12.27 104.96,12.51C104.99,12.77 105.03,13.02 105.06,13.3C105.1,13.6 105.13,13.92 105.16,14.26C105.2,14.63 105.23,15.01 105.26,15.42C105.29,15.87 105.32,16.34 105.35,16.83C105.38,17.35 105.42,17.89 105.45,18.44C105.48,19.01 105.52,19.6 105.55,20.18C105.58,20.76 105.62,21.35 105.65,21.92C105.68,22.47 105.72,23.03 105.75,23.56C105.78,24.07 105.82,24.56 105.85,25.04C105.88,25.5 105.92,25.94 105.95,26.37C105.98,26.78 106.01,27.17 106.04,27.57C106.07,27.96 106.11,28.35 106.14,28.73C106.17,29.11 106.21,29.49 106.24,29.87C106.27,30.25 106.31,30.63 106.34,31.01C106.37,31.39 106.41,31.77 106.44,32.14C106.47,32.51 106.51,32.88 106.54,33.25C106.57,33.61 106.61,33.97 106.64,34.33C106.67,34.68 106.7,35.04 106.73,35.39C106.76,35.74 106.8,36.1 106.83,36.45C106.86,36.8 106.9,37.15 106.93,37.49C106.96,37.83 107,38.17 107.03,38.5C107.06,38.82 107.1,39.13 107.13,39.43C107.16,39.72 107.2,40 107.23,40.27C107.26,40.52 107.3,40.77 107.33,41.01C107.36,41.23 107.39,41.45 107.42,41.66C107.45,41.86 107.49,42.06 107.52,42.25C107.55,42.43 107.59,42.61 107.62,42.78C107.65,42.94 107.69,43.1 107.72,43.26C107.75,43.41 107.79,43.56 107.82,43.7C107.85,43.83 107.89,43.96 107.92,44.08C107.95,44.19 107.99,44.3 108.02,44.4C108.05,44.49 108.08,44.58 108.11,44.67C108.14,44.75 108.18,44.83 108.21,44.91C108.24,44.99 108.28,45.06 108.31,45.13C108.34,45.2 108.38,45.27 108.41,45.34C108.44,45.41 108.48,45.48 108.51,45.55C108.54,45.62 108.58,45.69 108.61,45.75C108.64,45.81 108.68,45.86 108.71,45.92C108.74,45.97 108.77,46.03 108.8,46.08C108.83,46.13 108.87,46.18 108.9,46.22C108.93,46.26 108.97,46.29 109,46.33C109.03,46.37 109.07,46.41 109.1,46.44C109.13,46.47 109.17,46.49 109.2,46.52C109.23,46.54 109.27,46.57 109.3,46.59C109.33,46.61 109.37,46.62 109.4,46.64C109.43,46.65 109.46,46.67 109.49,46.68C109.52,46.69 109.56,46.7 109.59,46.71C109.62,46.72 109.66,46.72 109.69,46.72C109.72,46.73 109.76,46.74 109.79,46.74Q109.82,46.74 109.89,46.74L109.89,46.75" style="vector-effect: non-scaling-stroke; stroke-width: 2px; stroke: rgb(102, 194, 164); stroke-opacity: 1; fill: rgb(102, 194, 164); fill-opacity: 0.5;"/><path class="meanline" d="M104.35,8.886748313903809V46.75" style="fill: none; vector-effect: non-scaling-stroke; stroke-width: 2px; stroke-dasharray: 4px, 2px; stroke: rgb(102, 194, 164); stroke-opacity: 1;"/></g></g></g><g class="overplot"/><path class="xlines-above crisp" d="M0,0" style="fill: none;"/><path class="ylines-above crisp" d="M0,0" style="fill: none;"/><g class="overlines-above"/><g class="xaxislayer-above"><g class="xtick"><text text-anchor="start" x="0" y="203" transform="translate(40,0) rotate(90,0,197)" style="font-family: 'Open Sans', verdana, arial, sans-serif; font-size: 12px; fill: rgb(68, 68, 68); fill-opacity: 1; white-space: pre;">−1</text></g><g class="xtick"><text text-anchor="start" x="0" y="203" transform="translate(68.25,0) rotate(90,0,197)" style="font-family: 'Open Sans', verdana, arial, sans-serif; font-size: 12px; fill: rgb(68, 68, 68); fill-opacity: 1; white-space: pre;">−0.75</text></g><g class="xtick"><text text-anchor="start" x="0" y="203" transform="translate(96.5,0) rotate(90,0,197)" style="font-family: 'Open Sans', verdana, arial, sans-serif; font-size: 12px; fill: rgb(68, 68, 68); fill-opacity: 1; white-space: pre;">−0.5</text></g><g class="xtick"><text text-anchor="start" x="0" y="203" transform="translate(124.75,0) rotate(90,0,197)" style="font-family: 'Open Sans', verdana, arial, sans-serif; font-size: 12px; fill: rgb(68, 68, 68); fill-opacity: 1; white-space: pre;">−0.25</text></g><g class="xtick"><text text-anchor="start" x="0" y="203" transform="translate(153,0) rotate(90,0,197)" style="font-family: 'Open Sans', verdana, arial, sans-serif; font-size: 12px; fill: rgb(68, 68, 68); fill-opacity: 1; white-space: pre;">0</text></g><g class="xtick"><text text-anchor="start" x="0" y="203" transform="translate(181.25,0) rotate(90,0,197)" style="font-family: 'Open Sans', verdana, arial, sans-serif; font-size: 12px; fill: rgb(68, 68, 68); fill-opacity: 1; white-space: pre;">0.25</text></g><g class="xtick"><text text-anchor="start" x="0" y="203" transform="translate(209.5,0) rotate(90,0,197)" style="font-family: 'Open Sans', verdana, arial, sans-serif; font-size: 12px; fill: rgb(68, 68, 68); fill-opacity: 1; white-space: pre;">0.5</text></g><g class="xtick"><text text-anchor="start" x="0" y="203" transform="translate(237.75,0) rotate(90,0,197)" style="font-family: 'Open Sans', verdana, arial, sans-serif; font-size: 12px; fill: rgb(68, 68, 68); fill-opacity: 1; white-space: pre;">0.75</text></g><g class="xtick"><text text-anchor="start" x="0" y="203" transform="translate(266,0) rotate(90,0,197)" style="font-family: 'Open Sans', verdana, arial, sans-serif; font-size: 12px; fill: rgb(68, 68, 68); fill-opacity: 1; white-space: pre;">1</text></g></g><g class="yaxislayer-above"><g class="ytick"><text text-anchor="end" x="39" y="4.199999999999999" transform="translate(0,181.5)" style="font-family: 'Open Sans', verdana, arial, sans-serif; font-size: 12px; fill: rgb(68, 68, 68); fill-opacity: 1; white-space: pre;">Meis</text></g><g class="ytick"><text text-anchor="end" x="39" y="4.199999999999999" transform="translate(0,143.25)" style="font-family: 'Open Sans', verdana, arial, sans-serif; font-size: 12px; fill: rgb(68, 68, 68); fill-opacity: 1; white-space: pre;">Meus</text></g><g class="ytick"><text text-anchor="end" x="39" y="4.199999999999999" transform="translate(0,105)" style="font-family: 'Open Sans', verdana, arial, sans-serif; font-size: 12px; fill: rgb(68, 68, 68); fill-opacity: 1; white-space: pre;">Hyum</text></g><g class="ytick"><text text-anchor="end" x="39" y="4.199999999999999" transform="translate(0,66.75)" style="font-family: 'Open Sans', verdana, arial, sans-serif; font-size: 12px; fill: rgb(68, 68, 68); fill-opacity: 1; white-space: pre;">Raer</text></g></g><g class="overaxes-above"/></g></g><g class="polarlayer"/><g class="ternarylayer"/><g class="geolayer"/><g class="funnelarealayer"/><g class="pielayer"/><g class="treemaplayer"/><g class="sunburstlayer"/><g class="glimages"/><defs id="topdefs-e3b26d"><g class="clips"/></defs><g class="layer-above"><g class="imagelayer"/><g class="shapelayer"><path data-index="0" fill-rule="evenodd" d="M141.7,181.5L141.7,28.5" clip-path="url('#clipe3b26dxy')" style="opacity: 1; stroke: rgb(0, 0, 0); stroke-opacity: 1; fill: rgb(0, 0, 0); fill-opacity: 0; stroke-dasharray: 9px, 9px; stroke-width: 2px;"/><path data-index="1" fill-rule="evenodd" d="M164.3,181.5L164.3,28.5" clip-path="url('#clipe3b26dxy')" style="opacity: 1; stroke: rgb(0, 0, 0); stroke-opacity: 1; fill: rgb(0, 0, 0); fill-opacity: 0; stroke-dasharray: 9px, 9px; stroke-width: 2px;"/></g></g><g class="infolayer"><g class="g-gtitle"/><g class="g-xtitle" transform="translate(0,0.703125)"><text class="xtitle" x="153" y="242" text-anchor="middle" style="font-family: 'Open Sans', verdana, arial, sans-serif; font-size: 14px; fill: rgb(68, 68, 68); opacity: 1; font-weight: normal; white-space: pre;">Coeficiente de Interacción</text></g><g class="g-ytitle"/></g></svg>