<svg class="main-svg" xmlns="http://www.w3.org/2000/svg" xmlns:xlink="http://www.w3.org/1999/xlink" width="286" height="250" style="" viewBox="0 0 286 250"><rect x="0" y="0" width="286" height="250" style="fill: rgb(255, 255, 255); fill-opacity: 1;"/><defs id="defs-1783c9"><g class="clips"><clipPath id="clip1783c9xyplot" class="plotclip"><rect width="226" height="170"/></clipPath><clipPath class="axesclip" id="clip1783c9x"><rect x="40" y="0" width="226" height="250"/></clipPath><clipPath class="axesclip" id="clip1783c9y"><rect x="0" y="20" width="286" height="170"/></clipPath><clipPath class="axesclip" id="clip1783c9xy"><rect x="40" y="20" width="226" height="170"/></clipPath></g><g class="gradients"/></defs><g class="bglayer"/><g class="layer-below"><g class="imagelayer"/><g class="shapelayer"/></g><g class="cartesianlayer"><g class="subplot xy"><g class="layer-subplot"><g class="shapelayer"/><g class="imagelayer"/></g><g class="gridlayer"><g class="x"/><g class="y"><path class="ygrid crisp" transform="translate(0,181.5)" d="M40,0h226" style="stroke: rgb(238, 238, 238); stroke-opacity: 1; stroke-width: 1px;"/><path class="ygrid crisp" transform="translate(0,154.75)" d="M40,0h226" style="stroke: rgb(238, 238, 238); stroke-opacity: 1; stroke-width: 1px;"/><path class="ygrid crisp" transform="translate(0,128)" d="M40,0h226" style="stroke: rgb(238, 238, 238); stroke-opacity: 1; stroke-width: 1px;"/><path class="ygrid crisp" transform="translate(0,101.25)" d="M40,0h226" style="stroke: rgb(238, 238, 238); stroke-opacity: 1; stroke-width: 1px;"/><path class="ygrid crisp" transform="translate(0,74.5)" d="M40,0h226" style="stroke: rgb(238, 238, 238); stroke-opacity: 1; stroke-width: 1px;"/></g></g><g class="zerolinelayer"/><path class="xlines-below"/><path class="ylines-below"/><g class="overlines-below"/><g class="xaxislayer-below"/><g class="yaxislayer-below"/><g class="overaxes-below"/><g class="plot" transform="translate(40,20)" clip-path="url('#clip1783c9xyplot')"><g class="violinlayer mlayer"><g class="trace violins" style="opacity: 1;"><path class="violin" d="M113.3,161.5L113.3,161.49Q113.3,161.48 113.3,161.48C113.3,161.47 113.3,161.47 113.3,161.46C113.3,161.45 113.3,161.44 113.3,161.43C113.3,161.42 113.3,161.41 113.3,161.4C113.3,161.39 113.3,161.37 113.3,161.36C113.3,161.35 113.3,161.33 113.3,161.32C113.3,161.31 113.3,161.3 113.3,161.29C113.3,161.28 113.3,161.27 113.3,161.26C113.3,161.25 113.3,161.25 113.3,161.24C113.3,161.23 113.3,161.22 113.3,161.21C113.3,161.2 113.3,161.18 113.3,161.16C113.3,161.14 113.31,161.11 113.31,161.08C113.31,161.05 113.31,161.01 113.31,160.97C113.31,160.92 113.31,160.87 113.31,160.81C113.31,160.74 113.31,160.67 113.31,160.59C113.31,160.51 113.31,160.42 113.31,160.33C113.31,160.23 113.31,160.12 113.31,160.02C113.31,159.91 113.31,159.8 113.31,159.69C113.31,159.58 113.31,159.47 113.31,159.36C113.31,159.25 113.31,159.13 113.31,159.02C113.31,158.91 113.31,158.81 113.31,158.7C113.31,158.59 113.31,158.47 113.31,158.36C113.31,158.24 113.31,158.12 113.31,158C113.31,157.87 113.31,157.73 113.31,157.58C113.31,157.42 113.31,157.25 113.31,157.08C113.31,156.89 113.31,156.7 113.31,156.5C113.31,156.28 113.31,156.06 113.31,155.83C113.31,155.59 113.31,155.33 113.31,155.08C113.31,154.82 113.31,154.56 113.31,154.29C113.31,154.02 113.31,153.74 113.31,153.46C113.31,153.18 113.31,152.89 113.31,152.6C113.31,152.31 113.31,152.02 113.31,151.72C113.31,151.42 113.31,151.12 113.31,150.81C113.31,150.5 113.31,150.19 113.31,149.87C113.31,149.55 113.32,149.22 113.32,148.89C113.32,148.56 113.32,148.22 113.32,147.88C113.32,147.55 113.32,147.21 113.32,146.88C113.32,146.56 113.32,146.23 113.32,145.92C113.32,145.62 113.32,145.32 113.32,145.02C113.32,144.73 113.32,144.45 113.32,144.17C113.32,143.9 113.32,143.63 113.32,143.36C113.32,143.1 113.32,142.83 113.32,142.57C113.32,142.3 113.32,142.04 113.32,141.77C113.32,141.5 113.32,141.22 113.32,140.94C113.32,140.66 113.32,140.38 113.32,140.1C113.32,139.82 113.32,139.53 113.32,139.25C113.32,138.97 113.32,138.7 113.32,138.43C113.32,138.17 113.32,137.9 113.32,137.65C113.32,137.41 113.32,137.16 113.32,136.93C113.32,136.71 113.32,136.48 113.32,136.27C113.32,136.07 113.32,135.87 113.32,135.69C113.32,135.53 113.32,135.36 113.32,135.22C113.32,135.1 113.32,134.98 113.32,134.89C113.32,134.83 113.32,134.75 113.32,134.75C113.32,134.75 113.32,134.79 113.32,134.82C113.32,134.88 113.32,134.99 113.32,135.09C113.32,135.22 113.32,135.37 113.32,135.52C113.32,135.69 113.33,135.86 113.33,136.04C113.33,136.22 113.33,136.41 113.33,136.6C113.33,136.8 113.33,137 113.33,137.2C113.33,137.41 113.33,137.62 113.33,137.84C113.33,138.07 113.33,138.31 113.33,138.56C113.33,138.82 113.33,139.1 113.33,139.38C113.33,139.68 113.33,139.98 113.33,140.29C113.33,140.62 113.33,140.95 113.33,141.29C113.33,141.64 113.33,141.99 113.33,142.34C113.33,142.69 113.33,143.05 113.33,143.41C113.33,143.77 113.33,144.14 113.33,144.5C113.33,144.86 113.33,145.22 113.33,145.58C113.33,145.94 113.33,146.3 113.33,146.65C113.33,147 113.33,147.35 113.33,147.69C113.33,148.02 113.33,148.34 113.33,148.66C113.33,148.97 113.33,149.27 113.33,149.56C113.33,149.84 113.33,150.11 113.33,150.38C113.33,150.65 113.33,150.91 113.33,151.17C113.33,151.43 113.33,151.69 113.33,151.95C113.33,152.22 113.33,152.49 113.33,152.76C113.33,153.04 113.33,153.32 113.33,153.6C113.33,153.88 113.33,154.17 113.33,154.45C113.33,154.73 113.33,155.02 113.33,155.3C113.33,155.57 113.34,155.84 113.34,156.1C113.34,156.35 113.34,156.59 113.34,156.83C113.34,157.05 113.34,157.27 113.34,157.48C113.34,157.67 113.34,157.85 113.34,158.02C113.34,158.18 113.34,158.33 113.34,158.47C113.34,158.59 113.34,158.71 113.34,158.82C113.34,158.92 113.34,159 113.34,159.09C113.34,159.17 113.34,159.25 113.34,159.32C113.34,159.39 113.34,159.46 113.34,159.53C113.34,159.6 113.34,159.67 113.34,159.74C113.34,159.81 113.34,159.89 113.34,159.96C113.34,160.04 113.34,160.11 113.34,160.19C113.34,160.27 113.34,160.34 113.34,160.42C113.34,160.49 113.34,160.57 113.34,160.64C113.34,160.71 113.34,160.78 113.34,160.85C113.34,160.91 113.34,160.97 113.34,161.02C113.34,161.07 113.34,161.12 113.34,161.17C113.34,161.21 113.34,161.25 113.34,161.28C113.34,161.31 113.34,161.33 113.34,161.35C113.34,161.37 113.34,161.38 113.34,161.39C113.34,161.4 113.34,161.4 113.34,161.41C113.34,161.41 113.34,161.42 113.34,161.42C113.34,161.42 113.34,161.41 113.34,161.41C113.34,161.41 113.35,161.41 113.35,161.41C113.35,161.41 113.35,161.4 113.35,161.4C113.35,161.4 113.35,161.39 113.35,161.39C113.35,161.39 113.35,161.39 113.35,161.39C113.35,161.39 113.35,161.39 113.35,161.39C113.35,161.39 113.35,161.4 113.35,161.4C113.35,161.4 113.35,161.41 113.35,161.41C113.35,161.41 113.35,161.42 113.35,161.42C113.35,161.43 113.35,161.43 113.35,161.44C113.35,161.44 113.35,161.45 113.35,161.45C113.35,161.45 113.35,161.46 113.35,161.46C113.35,161.46 113.35,161.47 113.35,161.47C113.35,161.47 113.35,161.48 113.35,161.48C113.35,161.48 113.35,161.49 113.35,161.49Q113.35,161.49 113.35,161.5L113.35,161.5" style="vector-effect: non-scaling-stroke; stroke-width: 2px; stroke: rgb(102, 194, 164); stroke-opacity: 1; fill: rgb(102, 194, 164); fill-opacity: 0.5;"/><path class="meanline" d="M113.32,134.78469848632812V161.5" style="fill: none; vector-effect: non-scaling-stroke; stroke-width: 2px; stroke-dasharray: 4px, 2px; stroke: rgb(102, 194, 164); stroke-opacity: 1;"/></g><g class="trace violins" style="opacity: 1;"><path class="violin" d="M113.13,134.75L113.13,134.74Q113.13,134.74 113.13,134.74C113.13,134.74 113.13,134.73 113.13,134.73C113.13,134.73 113.13,134.72 113.13,134.72C113.13,134.71 113.13,134.71 113.13,134.7C113.13,134.69 113.13,134.69 113.13,134.68C113.13,134.67 113.13,134.67 113.13,134.66C113.13,134.65 113.13,134.64 113.13,134.63C113.13,134.62 113.13,134.61 113.13,134.6C113.13,134.59 113.13,134.58 113.13,134.57C113.13,134.56 113.13,134.54 113.13,134.53C113.13,134.52 113.13,134.51 113.13,134.5C113.13,134.49 113.13,134.47 113.13,134.45C113.13,134.43 113.13,134.42 113.13,134.4C113.13,134.38 113.13,134.35 113.13,134.33C113.13,134.3 113.13,134.28 113.13,134.25C113.13,134.22 113.14,134.18 113.14,134.15C113.14,134.11 113.14,134.08 113.14,134.04C113.14,134 113.14,133.96 113.14,133.92C113.14,133.88 113.14,133.84 113.14,133.8C113.14,133.76 113.14,133.71 113.14,133.67C113.14,133.62 113.14,133.57 113.14,133.52C113.14,133.46 113.14,133.39 113.14,133.32C113.14,133.24 113.14,133.16 113.14,133.07C113.14,132.97 113.14,132.88 113.14,132.77C113.14,132.65 113.14,132.53 113.14,132.4C113.14,132.26 113.14,132.12 113.14,131.98C113.14,131.83 113.14,131.67 113.14,131.51C113.14,131.34 113.14,131.15 113.14,130.97C113.14,130.78 113.14,130.57 113.14,130.37C113.14,130.16 113.14,129.93 113.14,129.71C113.14,129.48 113.15,129.25 113.15,129.02C113.15,128.79 113.15,128.54 113.15,128.31C113.15,128.08 113.15,127.85 113.15,127.62C113.15,127.4 113.15,127.18 113.15,126.96C113.15,126.74 113.15,126.53 113.15,126.31C113.15,126.09 113.15,125.87 113.15,125.64C113.15,125.41 113.15,125.17 113.15,124.93C113.15,124.68 113.15,124.42 113.15,124.15C113.15,123.87 113.15,123.57 113.15,123.27C113.15,122.95 113.15,122.62 113.15,122.28C113.15,121.93 113.15,121.57 113.15,121.2C113.15,120.82 113.15,120.43 113.15,120.04C113.15,119.64 113.15,119.24 113.15,118.84C113.15,118.44 113.15,118.02 113.15,117.62C113.15,117.22 113.15,116.83 113.15,116.44C113.15,116.06 113.16,115.69 113.16,115.33C113.16,114.98 113.16,114.64 113.16,114.3C113.16,113.98 113.16,113.66 113.16,113.35C113.16,113.05 113.16,112.76 113.16,112.48C113.16,112.21 113.16,111.94 113.16,111.68C113.16,111.44 113.16,111.2 113.16,110.98C113.16,110.77 113.16,110.57 113.16,110.39C113.16,110.23 113.16,110.07 113.16,109.93C113.16,109.8 113.16,109.69 113.16,109.57C113.16,109.46 113.16,109.36 113.16,109.26C113.16,109.16 113.16,109.06 113.16,108.96C113.16,108.86 113.16,108.75 113.16,108.64C113.16,108.54 113.16,108.43 113.16,108.33C113.16,108.24 113.16,108.15 113.16,108.09C113.16,108.05 113.16,108 113.16,108C113.16,108 113.17,108.05 113.17,108.09C113.17,108.15 113.17,108.26 113.17,108.35C113.17,108.46 113.17,108.59 113.17,108.72C113.17,108.86 113.17,109.01 113.17,109.16C113.17,109.31 113.17,109.47 113.17,109.63C113.17,109.81 113.17,109.99 113.17,110.18C113.17,110.39 113.17,110.62 113.17,110.86C113.17,111.13 113.17,111.43 113.17,111.74C113.17,112.08 113.17,112.45 113.17,112.83C113.17,113.24 113.17,113.67 113.17,114.1C113.17,114.55 113.17,115.01 113.17,115.46C113.17,115.91 113.17,116.37 113.17,116.82C113.17,117.25 113.17,117.68 113.17,118.09C113.17,118.48 113.17,118.87 113.17,119.24C113.17,119.59 113.17,119.92 113.17,120.25C113.17,120.56 113.18,120.86 113.18,121.15C113.18,121.43 113.18,121.69 113.18,121.96C113.18,122.22 113.18,122.47 113.18,122.72C113.18,122.97 113.18,123.21 113.18,123.46C113.18,123.71 113.18,123.96 113.18,124.21C113.18,124.46 113.18,124.71 113.18,124.96C113.18,125.21 113.18,125.47 113.18,125.73C113.18,125.98 113.18,126.24 113.18,126.49C113.18,126.74 113.18,127 113.18,127.25C113.18,127.5 113.18,127.76 113.18,128.01C113.18,128.26 113.18,128.5 113.18,128.74C113.18,128.98 113.18,129.22 113.18,129.46C113.18,129.69 113.18,129.92 113.18,130.15C113.18,130.37 113.18,130.59 113.18,130.8C113.18,131 113.18,131.21 113.18,131.4C113.18,131.58 113.18,131.76 113.18,131.93C113.18,132.09 113.19,132.25 113.19,132.4C113.19,132.54 113.19,132.67 113.19,132.79C113.19,132.9 113.19,133.01 113.19,133.11C113.19,133.2 113.19,133.29 113.19,133.37C113.19,133.44 113.19,133.51 113.19,133.58C113.19,133.64 113.19,133.7 113.19,133.76C113.19,133.81 113.19,133.87 113.19,133.92C113.19,133.97 113.19,134.01 113.19,134.06C113.19,134.11 113.19,134.16 113.19,134.2C113.19,134.24 113.19,134.28 113.19,134.32C113.19,134.36 113.19,134.4 113.19,134.43C113.19,134.46 113.19,134.49 113.19,134.51C113.19,134.53 113.19,134.55 113.19,134.57C113.19,134.59 113.19,134.6 113.19,134.62C113.19,134.63 113.19,134.65 113.19,134.66C113.19,134.67 113.2,134.67 113.2,134.68C113.2,134.69 113.2,134.69 113.2,134.7C113.2,134.7 113.2,134.71 113.2,134.71C113.2,134.71 113.2,134.71 113.2,134.71C113.2,134.71 113.2,134.71 113.2,134.71C113.2,134.71 113.2,134.71 113.2,134.71C113.2,134.71 113.2,134.71 113.2,134.71C113.2,134.71 113.2,134.72 113.2,134.72C113.2,134.72 113.2,134.72 113.2,134.72C113.2,134.72 113.2,134.73 113.2,134.73C113.2,134.73 113.2,134.74 113.2,134.74C113.2,134.74 113.2,134.74 113.2,134.74Q113.2,134.74 113.2,134.75L113.2,134.75" style="vector-effect: non-scaling-stroke; stroke-width: 2px; stroke: rgb(102, 194, 164); stroke-opacity: 1; fill: rgb(102, 194, 164); fill-opacity: 0.5;"/><path class="meanline" d="M113.16,108.0015869140625V134.75" style="fill: none; vector-effect: non-scaling-stroke; stroke-width: 2px; stroke-dasharray: 4px, 2px; stroke: rgb(102, 194, 164); stroke-opacity: 1;"/></g><g class="trace violins" style="opacity: 1;"><path class="violin" d="M112.73,108L112.73,107.99Q112.73,107.98 112.73,107.98C112.73,107.98 112.73,107.97 112.73,107.97C112.73,107.97 112.74,107.96 112.74,107.96C112.74,107.95 112.74,107.94 112.74,107.93C112.74,107.92 112.74,107.92 112.74,107.91C112.74,107.9 112.74,107.89 112.74,107.88C112.74,107.87 112.74,107.86 112.74,107.85C112.74,107.84 112.74,107.83 112.74,107.82C112.74,107.81 112.74,107.79 112.74,107.78C112.74,107.77 112.75,107.75 112.75,107.74C112.75,107.72 112.75,107.7 112.75,107.68C112.75,107.66 112.75,107.64 112.75,107.62C112.75,107.6 112.75,107.57 112.75,107.55C112.75,107.53 112.75,107.5 112.75,107.48C112.75,107.45 112.75,107.43 112.75,107.4C112.75,107.37 112.75,107.33 112.75,107.29C112.75,107.25 112.76,107.21 112.76,107.16C112.76,107.11 112.76,107.05 112.76,106.99C112.76,106.92 112.76,106.85 112.76,106.77C112.76,106.68 112.76,106.59 112.76,106.49C112.76,106.39 112.76,106.29 112.76,106.18C112.76,106.06 112.76,105.94 112.76,105.82C112.76,105.7 112.76,105.57 112.76,105.44C112.76,105.31 112.77,105.17 112.77,105.03C112.77,104.88 112.77,104.73 112.77,104.57C112.77,104.41 112.77,104.24 112.77,104.07C112.77,103.89 112.77,103.69 112.77,103.5C112.77,103.3 112.77,103.08 112.77,102.87C112.77,102.65 112.77,102.42 112.77,102.2C112.77,101.97 112.77,101.74 112.77,101.51C112.77,101.28 112.77,101.04 112.77,100.81C112.77,100.58 112.78,100.35 112.78,100.12C112.78,99.89 112.78,99.66 112.78,99.43C112.78,99.2 112.78,98.96 112.78,98.72C112.78,98.47 112.78,98.22 112.78,97.96C112.78,97.69 112.78,97.41 112.78,97.13C112.78,96.83 112.78,96.53 112.78,96.21C112.78,95.88 112.78,95.53 112.78,95.18C112.78,94.8 112.79,94.42 112.79,94.02C112.79,93.61 112.79,93.18 112.79,92.75C112.79,92.31 112.79,91.86 112.79,91.41C112.79,90.96 112.79,90.49 112.79,90.04C112.79,89.6 112.79,89.16 112.79,88.73C112.79,88.32 112.79,87.91 112.79,87.52C112.79,87.15 112.79,86.79 112.79,86.44C112.79,86.11 112.8,85.8 112.8,85.49C112.8,85.2 112.8,84.92 112.8,84.66C112.8,84.42 112.8,84.18 112.8,83.96C112.8,83.75 112.8,83.56 112.8,83.37C112.8,83.2 112.8,83.05 112.8,82.9C112.8,82.76 112.8,82.64 112.8,82.51C112.8,82.39 112.8,82.28 112.8,82.17C112.8,82.07 112.81,81.97 112.81,81.88C112.81,81.79 112.81,81.7 112.81,81.62C112.81,81.55 112.81,81.48 112.81,81.42C112.81,81.37 112.81,81.32 112.81,81.29C112.81,81.27 112.81,81.25 112.81,81.25C112.81,81.25 112.81,81.28 112.81,81.31C112.81,81.35 112.81,81.42 112.81,81.48C112.81,81.56 112.82,81.66 112.82,81.77C112.82,81.9 112.82,82.06 112.82,82.22C112.82,82.41 112.82,82.64 112.82,82.86C112.82,83.11 112.82,83.38 112.82,83.65C112.82,83.94 112.82,84.26 112.82,84.57C112.82,84.89 112.82,85.22 112.82,85.55C112.82,85.87 112.82,86.2 112.82,86.52C112.82,86.84 112.83,87.16 112.83,87.47C112.83,87.78 112.83,88.09 112.83,88.4C112.83,88.71 112.83,89.03 112.83,89.34C112.83,89.66 112.83,89.98 112.83,90.3C112.83,90.63 112.83,90.96 112.83,91.29C112.83,91.63 112.83,91.97 112.83,92.31C112.83,92.66 112.83,93.02 112.83,93.38C112.83,93.74 112.84,94.11 112.84,94.48C112.84,94.85 112.84,95.23 112.84,95.6C112.84,95.96 112.84,96.32 112.84,96.67C112.84,97 112.84,97.33 112.84,97.65C112.84,97.94 112.84,98.23 112.84,98.5C112.84,98.75 112.84,98.99 112.84,99.22C112.84,99.43 112.84,99.64 112.84,99.84C112.84,100.04 112.84,100.23 112.84,100.43C112.84,100.63 112.85,100.83 112.85,101.03C112.85,101.24 112.85,101.46 112.85,101.68C112.85,101.9 112.85,102.13 112.85,102.36C112.85,102.59 112.85,102.82 112.85,103.04C112.85,103.26 112.85,103.48 112.85,103.69C112.85,103.89 112.85,104.08 112.85,104.27C112.85,104.45 112.85,104.62 112.85,104.79C112.85,104.94 112.86,105.09 112.86,105.23C112.86,105.36 112.86,105.49 112.86,105.61C112.86,105.72 112.86,105.83 112.86,105.94C112.86,106.04 112.86,106.14 112.86,106.23C112.86,106.32 112.86,106.41 112.86,106.49C112.86,106.57 112.86,106.65 112.86,106.73C112.86,106.8 112.86,106.88 112.86,106.95C112.86,107.02 112.87,107.08 112.87,107.14C112.87,107.2 112.87,107.26 112.87,107.31C112.87,107.36 112.87,107.41 112.87,107.45C112.87,107.49 112.87,107.53 112.87,107.56C112.87,107.59 112.87,107.61 112.87,107.64C112.87,107.66 112.87,107.69 112.87,107.71C112.87,107.73 112.87,107.74 112.87,107.76C112.87,107.78 112.88,107.79 112.88,107.81C112.88,107.82 112.88,107.84 112.88,107.85C112.88,107.86 112.88,107.88 112.88,107.89C112.88,107.9 112.88,107.91 112.88,107.92C112.88,107.93 112.88,107.93 112.88,107.94C112.88,107.94 112.88,107.95 112.88,107.95C112.88,107.95 112.88,107.96 112.88,107.96C112.88,107.96 112.89,107.96 112.89,107.96C112.89,107.96 112.89,107.97 112.89,107.97C112.89,107.97 112.89,107.98 112.89,107.98C112.89,107.98 112.89,107.99 112.89,107.99C112.89,107.99 112.89,107.99 112.89,107.99Q112.89,107.99 112.89,108L112.89,108" style="vector-effect: non-scaling-stroke; stroke-width: 2px; stroke: rgb(102, 194, 164); stroke-opacity: 1; fill: rgb(102, 194, 164); fill-opacity: 0.5;"/><path class="meanline" d="M112.81,81.25279998779297V108" style="fill: none; vector-effect: non-scaling-stroke; stroke-width: 2px; stroke-dasharray: 4px, 2px; stroke: rgb(102, 194, 164); stroke-opacity: 1;"/></g><g class="trace violins" style="opacity: 1;"><path class="violin" d="M92.49,81.25L92.49,81.24Q92.5,81.24 92.51,81.24C92.52,81.24 92.52,81.23 92.53,81.23C92.54,81.22 92.54,81.21 92.55,81.21C92.56,81.2 92.57,81.21 92.58,81.2C92.59,81.2 92.59,81.19 92.6,81.18C92.61,81.17 92.61,81.17 92.62,81.16C92.63,81.15 92.63,81.15 92.64,81.14C92.65,81.13 92.66,81.13 92.67,81.12C92.68,81.12 92.68,81.11 92.69,81.11C92.7,81.1 92.7,81.1 92.71,81.09C92.72,81.09 92.72,81.08 92.73,81.08C92.74,81.07 92.75,81.07 92.76,81.06C92.77,81.05 92.77,81.05 92.78,81.04C92.79,81.03 92.79,81.01 92.8,81C92.81,80.99 92.81,80.98 92.82,80.96C92.83,80.94 92.84,80.91 92.85,80.89C92.86,80.86 92.86,80.84 92.87,80.81C92.88,80.78 92.88,80.75 92.89,80.72C92.9,80.68 92.9,80.64 92.91,80.6C92.92,80.56 92.93,80.52 92.94,80.47C92.95,80.42 92.95,80.37 92.96,80.31C92.97,80.25 92.97,80.18 92.98,80.11C92.99,80.04 92.99,79.96 93,79.88C93.01,79.79 93.02,79.7 93.03,79.61C93.04,79.51 93.04,79.4 93.05,79.29C93.06,79.17 93.06,79.05 93.07,78.93C93.08,78.8 93.08,78.67 93.09,78.54C93.1,78.4 93.11,78.26 93.12,78.11C93.13,77.96 93.13,77.81 93.14,77.66C93.15,77.51 93.15,77.35 93.16,77.2C93.17,77.04 93.17,76.88 93.18,76.72C93.19,76.56 93.19,76.4 93.2,76.23C93.21,76.06 93.22,75.89 93.23,75.71C93.24,75.52 93.24,75.33 93.25,75.14C93.26,74.94 93.26,74.73 93.27,74.52C93.28,74.3 93.28,74.07 93.29,73.84C93.3,73.6 93.31,73.36 93.32,73.11C93.33,72.86 93.33,72.6 93.34,72.34C93.35,72.08 93.35,71.81 93.36,71.55C93.37,71.28 93.37,71.02 93.38,70.75C93.39,70.48 93.4,70.22 93.41,69.95C93.42,69.69 93.42,69.42 93.43,69.16C93.44,68.9 93.44,68.64 93.45,68.38C93.46,68.11 93.46,67.84 93.47,67.57C93.48,67.29 93.49,67 93.5,66.71C93.51,66.4 93.51,66.08 93.52,65.75C93.53,65.4 93.53,65.03 93.54,64.65C93.55,64.25 93.55,63.83 93.56,63.41C93.57,62.97 93.58,62.53 93.59,62.08C93.6,61.63 93.6,61.17 93.61,60.72C93.62,60.28 93.62,59.84 93.63,59.42C93.64,59.02 93.64,58.62 93.65,58.25C93.66,57.9 93.67,57.57 93.68,57.25C93.69,56.97 93.69,56.7 93.7,56.44C93.71,56.21 93.71,55.98 93.72,55.77C93.73,55.58 93.73,55.4 93.74,55.24C93.75,55.1 93.76,54.96 93.77,54.84C93.78,54.74 93.78,54.64 93.79,54.58C93.8,54.55 93.8,54.5 93.81,54.5C93.82,54.5 93.82,54.56 93.83,54.61C93.84,54.68 93.85,54.79 93.86,54.89C93.87,55.02 93.87,55.17 93.88,55.32C93.89,55.48 93.89,55.66 93.9,55.83C93.91,56.01 93.91,56.19 93.92,56.37C93.93,56.55 93.93,56.74 93.94,56.92C93.95,57.1 93.96,57.29 93.97,57.47C93.98,57.65 93.98,57.83 93.99,58.02C94,58.21 94,58.4 94.01,58.6C94.02,58.81 94.02,59.02 94.03,59.23C94.04,59.45 94.05,59.67 94.06,59.9C94.07,60.14 94.07,60.39 94.08,60.64C94.09,60.91 94.09,61.18 94.1,61.46C94.11,61.76 94.11,62.07 94.12,62.38C94.13,62.71 94.14,63.04 94.15,63.38C94.16,63.73 94.16,64.1 94.17,64.46C94.18,64.83 94.18,65.22 94.19,65.59C94.2,65.96 94.2,66.33 94.21,66.69C94.22,67.04 94.23,67.4 94.24,67.74C94.25,68.07 94.25,68.4 94.26,68.71C94.27,69.01 94.27,69.3 94.28,69.58C94.29,69.85 94.29,70.12 94.3,70.39C94.31,70.65 94.32,70.9 94.33,71.15C94.34,71.4 94.34,71.65 94.35,71.9C94.36,72.15 94.36,72.4 94.37,72.64C94.38,72.88 94.38,73.12 94.39,73.36C94.4,73.6 94.41,73.84 94.42,74.08C94.43,74.32 94.43,74.56 94.44,74.79C94.45,75.02 94.45,75.25 94.46,75.48C94.47,75.7 94.47,75.92 94.48,76.14C94.49,76.35 94.5,76.56 94.51,76.76C94.52,76.95 94.52,77.15 94.53,77.33C94.54,77.5 94.54,77.68 94.55,77.84C94.56,77.99 94.56,78.14 94.57,78.28C94.58,78.41 94.59,78.54 94.6,78.67C94.61,78.79 94.61,78.91 94.62,79.02C94.63,79.13 94.63,79.24 94.64,79.34C94.65,79.44 94.65,79.54 94.66,79.63C94.67,79.72 94.68,79.81 94.69,79.9C94.7,79.98 94.7,80.06 94.71,80.14C94.72,80.21 94.72,80.28 94.73,80.35C94.74,80.41 94.74,80.47 94.75,80.52C94.76,80.57 94.76,80.62 94.77,80.67C94.78,80.71 94.79,80.74 94.8,80.78C94.81,80.82 94.81,80.86 94.82,80.89C94.83,80.92 94.83,80.95 94.84,80.98C94.85,81 94.85,81.03 94.86,81.05C94.87,81.07 94.88,81.09 94.89,81.11C94.9,81.13 94.9,81.15 94.91,81.16C94.92,81.17 94.92,81.18 94.93,81.19C94.94,81.2 94.94,81.21 94.95,81.21C94.96,81.21 94.97,81.21 94.98,81.21C94.99,81.21 94.99,81.21 95,81.21C95.01,81.21 95.01,81.2 95.02,81.19C95.03,81.18 95.03,81.17 95.04,81.17C95.05,81.16 95.06,81.17 95.07,81.16C95.08,81.16 95.08,81.15 95.09,81.14C95.1,81.14 95.1,81.13 95.11,81.13C95.12,81.13 95.12,81.14 95.13,81.14C95.14,81.14 95.15,81.15 95.16,81.15C95.17,81.15 95.17,81.16 95.18,81.16C95.19,81.17 95.19,81.17 95.2,81.18C95.21,81.19 95.21,81.19 95.22,81.2C95.23,81.21 95.24,81.21 95.25,81.22C95.26,81.22 95.26,81.23 95.27,81.23C95.28,81.23 95.28,81.24 95.29,81.24Q95.3,81.24 95.31,81.24L95.31,81.25" style="vector-effect: non-scaling-stroke; stroke-width: 2px; stroke: rgb(102, 194, 164); stroke-opacity: 1; fill: rgb(102, 194, 164); fill-opacity: 0.5;"/><path class="meanline" d="M93.85,54.77918243408203V81.25" style="fill: none; vector-effect: non-scaling-stroke; stroke-width: 2px; stroke-dasharray: 4px, 2px; stroke: rgb(102, 194, 164); stroke-opacity: 1;"/></g><g class="trace violins" style="opacity: 1;"><path class="violin" d="M-17.65,54.5L-17.65,54.46Q-15.58,54.43 -14.54,54.41C-13.51,54.39 -12.47,54.36 -11.44,54.32C-10.4,54.28 -9.37,54.23 -8.33,54.16C-7.29,54.09 -6.25,54.01 -5.22,53.91C-4.18,53.81 -3.15,53.69 -2.12,53.55C-1.08,53.41 -0.05,53.24 0.99,53.07C2.03,52.89 3.07,52.7 4.1,52.5C5.14,52.3 6.17,52.08 7.2,51.87C8.24,51.65 9.27,51.43 10.31,51.21C11.35,50.99 12.38,50.77 13.42,50.55C14.45,50.33 15.49,50.12 16.52,49.91C17.56,49.7 18.59,49.49 19.63,49.27C20.67,49.05 21.7,48.83 22.74,48.6C23.77,48.37 24.81,48.13 25.84,47.89C26.88,47.64 27.91,47.39 28.95,47.13C29.99,46.87 31.02,46.61 32.06,46.35C33.09,46.09 34.13,45.82 35.16,45.56C36.2,45.3 37.23,45.05 38.27,44.8C39.31,44.55 40.34,44.3 41.38,44.05C42.41,43.8 43.45,43.56 44.48,43.32C45.52,43.07 46.55,42.83 47.59,42.58C48.63,42.33 49.66,42.07 50.7,41.81C51.73,41.55 52.77,41.29 53.8,41.03C54.84,40.77 55.87,40.51 56.91,40.25C57.95,39.99 58.98,39.73 60.02,39.46C61.05,39.2 62.09,38.93 63.12,38.66C64.16,38.39 65.19,38.12 66.23,37.83C67.27,37.54 68.31,37.25 69.34,36.94C70.38,36.63 71.41,36.31 72.44,35.99C73.48,35.67 74.51,35.34 75.55,35.02C76.59,34.7 77.62,34.37 78.66,34.06C79.69,33.75 80.72,33.46 81.76,33.18C82.79,32.91 83.83,32.65 84.87,32.41C85.9,32.18 86.94,31.97 87.98,31.77C89.01,31.58 90.05,31.41 91.08,31.24C92.12,31.07 93.15,30.93 94.19,30.77C95.23,30.62 96.26,30.47 97.3,30.31C98.33,30.15 99.37,29.98 100.4,29.81C101.44,29.64 102.47,29.45 103.51,29.27C104.55,29.09 105.58,28.89 106.62,28.71C107.65,28.54 108.68,28.36 109.72,28.22C110.75,28.08 111.79,27.96 112.83,27.88C113.87,27.8 114.9,27.76 115.94,27.75C116.97,27.74 118.01,27.78 119.04,27.84C120.08,27.9 121.11,28 122.15,28.12C123.19,28.24 124.23,28.39 125.26,28.55C126.3,28.71 127.33,28.89 128.36,29.09C129.4,29.29 130.44,29.5 131.47,29.73C132.51,29.96 133.54,30.2 134.57,30.45C135.61,30.7 136.64,30.97 137.68,31.25C138.72,31.53 139.76,31.82 140.79,32.12C141.83,32.43 142.86,32.75 143.89,33.08C144.93,33.41 145.96,33.75 147,34.09C148.04,34.43 149.07,34.78 150.11,35.13C151.14,35.47 152.18,35.82 153.21,36.16C154.25,36.5 155.28,36.84 156.32,37.16C157.36,37.48 158.39,37.79 159.43,38.09C160.46,38.38 161.49,38.66 162.53,38.93C163.56,39.2 164.6,39.45 165.64,39.69C166.68,39.93 167.71,40.16 168.75,40.39C169.78,40.62 170.82,40.83 171.85,41.05C172.89,41.27 173.92,41.49 174.96,41.71C176,41.93 177.03,42.16 178.07,42.39C179.1,42.62 180.14,42.86 181.17,43.11C182.21,43.36 183.24,43.61 184.28,43.87C185.32,44.13 186.35,44.4 187.39,44.67C188.42,44.94 189.46,45.21 190.49,45.48C191.53,45.75 192.56,46.02 193.6,46.28C194.64,46.54 195.67,46.81 196.71,47.06C197.74,47.31 198.78,47.56 199.81,47.8C200.85,48.04 201.88,48.28 202.92,48.52C203.96,48.75 204.99,48.98 206.03,49.21C207.06,49.44 208.1,49.67 209.13,49.9C210.17,50.13 211.2,50.36 212.24,50.59C213.28,50.82 214.31,51.04 215.35,51.27C216.38,51.49 217.41,51.72 218.45,51.94C219.48,52.15 220.52,52.36 221.56,52.56C222.6,52.75 223.63,52.94 224.67,53.11C225.7,53.28 226.73,53.44 227.77,53.57C228.8,53.7 229.84,53.81 230.88,53.91C231.92,54.01 232.95,54.09 233.99,54.16C235.02,54.23 236.06,54.27 237.09,54.31C238.13,54.35 239.16,54.38 240.2,54.41Q241.24,54.43 243.31,54.46L243.31,54.5" style="vector-effect: non-scaling-stroke; stroke-width: 2px; stroke: rgb(102, 194, 164); stroke-opacity: 1; fill: rgb(102, 194, 164); fill-opacity: 0.5;"/><path class="meanline" d="M112.94,27.871784210205078V54.5" style="fill: none; vector-effect: non-scaling-stroke; stroke-width: 2px; stroke-dasharray: 4px, 2px; stroke: rgb(102, 194, 164); stroke-opacity: 1;"/></g></g></g><g class="overplot"/><path class="xlines-above crisp" d="M0,0" style="fill: none;"/><path class="ylines-above crisp" d="M0,0" style="fill: none;"/><g class="overlines-above"/><g class="xaxislayer-above"><g class="xtick"><text text-anchor="start" x="0" y="203" transform="translate(40,0) rotate(90,0,197)" style="font-family: 'Open Sans', verdana, arial, sans-serif; font-size: 12px; fill: rgb(68, 68, 68); fill-opacity: 1; white-space: pre;">−1</text></g><g class="xtick"><text text-anchor="start" x="0" y="203" transform="translate(68.25,0) rotate(90,0,197)" style="font-family: 'Open Sans', verdana, arial, sans-serif; font-size: 12px; fill: rgb(68, 68, 68); fill-opacity: 1; white-space: pre;">−0.75</text></g><g class="xtick"><text text-anchor="start" x="0" y="203" transform="translate(96.5,0) rotate(90,0,197)" style="font-family: 'Open Sans', verdana, arial, sans-serif; font-size: 12px; fill: rgb(68, 68, 68); fill-opacity: 1; white-space: pre;">−0.5</text></g><g class="xtick"><text text-anchor="start" x="0" y="203" transform="translate(124.75,0) rotate(90,0,197)" style="font-family: 'Open Sans', verdana, arial, sans-serif; font-size: 12px; fill: rgb(68, 68, 68); fill-opacity: 1; white-space: pre;">−0.25</text></g><g class="xtick"><text text-anchor="start" x="0" y="203" transform="translate(153,0) rotate(90,0,197)" style="font-family: 'Open Sans', verdana, arial, sans-serif; font-size: 12px; fill: rgb(68, 68, 68); fill-opacity: 1; white-space: pre;">0</text></g><g class="xtick"><text text-anchor="start" x="0" y="203" transform="translate(181.25,0) rotate(90,0,197)" style="font-family: 'Open Sans', verdana, arial, sans-serif; font-size: 12px; fill: rgb(68, 68, 68); fill-opacity: 1; white-space: pre;">0.25</text></g><g class="xtick"><text text-anchor="start" x="0" y="203" transform="translate(209.5,0) rotate(90,0,197)" style="font-family: 'Open Sans', verdana, arial, sans-serif; font-size: 12px; fill: rgb(68, 68, 68); fill-opacity: 1; white-space: pre;">0.5</text></g><g class="xtick"><text text-anchor="start" x="0" y="203" transform="translate(237.75,0) rotate(90,0,197)" style="font-family: 'Open Sans', verdana, arial, sans-serif; font-size: 12px; fill: rgb(68, 68, 68); fill-opacity: 1; white-space: pre;">0.75</text></g><g class="xtick"><text text-anchor="start" x="0" y="203" transform="translate(266,0) rotate(90,0,197)" style="font-family: 'Open Sans', verdana, arial, sans-serif; font-size: 12px; fill: rgb(68, 68, 68); fill-opacity: 1; white-space: pre;">1</text></g></g><g class="yaxislayer-above"><g class="ytick"><text text-anchor="end" x="39" y="4.199999999999999" transform="translate(0,181.5)" style="font-family: 'Open Sans', verdana, arial, sans-serif; font-size: 12px; fill: rgb(68, 68, 68); fill-opacity: 1; white-space: pre;">Meis</text></g><g class="ytick"><text text-anchor="end" x="39" y="4.199999999999999" transform="translate(0,154.75)" style="font-family: 'Open Sans', verdana, arial, sans-serif; font-size: 12px; fill: rgb(68, 68, 68); fill-opacity: 1; white-space: pre;">Meus</text></g><g class="ytick"><text text-anchor="end" x="39" y="4.199999999999999" transform="translate(0,128)" style="font-family: 'Open Sans', verdana, arial, sans-serif; font-size: 12px; fill: rgb(68, 68, 68); fill-opacity: 1; white-space: pre;">Hyum</text></g><g class="ytick"><text text-anchor="end" x="39" y="4.199999999999999" transform="translate(0,101.25)" style="font-family: 'Open Sans', verdana, arial, sans-serif; font-size: 12px; fill: rgb(68, 68, 68); fill-opacity: 1; white-space: pre;">Teas</text></g><g class="ytick"><text text-anchor="end" x="39" y="4.199999999999999" transform="translate(0,74.5)" style="font-family: 'Open Sans', verdana, arial, sans-serif; font-size: 12px; fill: rgb(68, 68, 68); fill-opacity: 1; white-space: pre;">Raer</text></g></g><g class="overaxes-above"/></g></g><g class="polarlayer"/><g class="ternarylayer"/><g class="geolayer"/><g class="funnelarealayer"/><g class="pielayer"/><g class="treemaplayer"/><g class="sunburstlayer"/><g class="glimages"/><defs id="topdefs-1783c9"><g class="clips"/></defs><g class="layer-above"><g class="imagelayer"/><g class="shapelayer"><path data-index="0" fill-rule="evenodd" d="M141.7,181.5L141.7,21" clip-path="url('#clip1783c9xy')" style="opacity: 1; stroke: rgb(0, 0, 0); stroke-opacity: 1; fill: rgb(0, 0, 0); fill-opacity: 0; stroke-dasharray: 9px, 9px; stroke-width: 2px;"/><path data-index="1" fill-rule="evenodd" d="M164.3,181.5L164.3,21" clip-path="url('#clip1783c9xy')" style="opacity: 1; stroke: rgb(0, 0, 0); stroke-opacity: 1; fill: rgb(0, 0, 0); fill-opacity: 0; stroke-dasharray: 9px, 9px; stroke-width: 2px;"/></g></g><g class="infolayer"><g class="g-gtitle"><text class="gtitle" x="143" y="10" text-anchor="middle" dy="0em" style="font-family: Calibri; font-size: 14px; fill: rgb(68, 68, 68); opacity: 1; font-weight: normal; white-space: pre;">CIR_19</text></g><g class="g-xtitle" transform="translate(0,0.703125)"><text class="xtitle" x="153" y="242" text-anchor="middle" style="font-family: 'Open Sans', verdana, arial, sans-serif; font-size: 14px; fill: rgb(68, 68, 68); opacity: 1; font-weight: normal; white-space: pre;">Coeficiente de Interacción</text></g><g class="g-ytitle"/></g></svg>