<svg class="main-svg" xmlns="http://www.w3.org/2000/svg" xmlns:xlink="http://www.w3.org/1999/xlink" width="286" height="250" style="" viewBox="0 0 286 250"><rect x="0" y="0" width="286" height="250" style="fill: rgb(255, 255, 255); fill-opacity: 1;"/><defs id="defs-c159af"><g class="clips"><clipPath id="clipc159afxyplot" class="plotclip"><rect width="226" height="170"/></clipPath><clipPath class="axesclip" id="clipc159afx"><rect x="40" y="0" width="226" height="250"/></clipPath><clipPath class="axesclip" id="clipc159afy"><rect x="0" y="20" width="286" height="170"/></clipPath><clipPath class="axesclip" id="clipc159afxy"><rect x="40" y="20" width="226" height="170"/></clipPath></g><g class="gradients"/></defs><g class="bglayer"/><g class="layer-below"><g class="imagelayer"/><g class="shapelayer"/></g><g class="cartesianlayer"><g class="subplot xy"><g class="layer-subplot"><g class="shapelayer"/><g class="imagelayer"/></g><g class="gridlayer"><g class="x"/><g class="y"><path class="ygrid crisp" transform="translate(0,181.5)" d="M40,0h226" style="stroke: rgb(238, 238, 238); stroke-opacity: 1; stroke-width: 1px;"/><path class="ygrid crisp" transform="translate(0,130.5)" d="M40,0h226" style="stroke: rgb(238, 238, 238); stroke-opacity: 1; stroke-width: 1px;"/><path class="ygrid crisp" transform="translate(0,79.5)" d="M40,0h226" style="stroke: rgb(238, 238, 238); stroke-opacity: 1; stroke-width: 1px;"/></g></g><g class="zerolinelayer"/><path class="xlines-below"/><path class="ylines-below"/><g class="overlines-below"/><g class="xaxislayer-below"/><g class="yaxislayer-below"/><g class="overaxes-below"/><g class="plot" transform="translate(40,20)" clip-path="url('#clipc159afxyplot')"><g class="violinlayer mlayer"><g class="trace violins" style="opacity: 1;"><path class="violin" d="M113.3,161.5L113.3,161.48Q113.3,161.46 113.3,161.45C113.3,161.44 113.3,161.43 113.3,161.42C113.3,161.41 113.3,161.39 113.3,161.37C113.3,161.35 113.3,161.32 113.3,161.3C113.3,161.28 113.3,161.25 113.3,161.23C113.3,161.21 113.3,161.18 113.3,161.16C113.3,161.14 113.3,161.12 113.3,161.1C113.3,161.08 113.3,161.07 113.3,161.05C113.3,161.03 113.3,161.02 113.3,161C113.3,160.98 113.3,160.96 113.3,160.94C113.3,160.91 113.3,160.88 113.3,160.85C113.3,160.81 113.31,160.75 113.31,160.7C113.31,160.64 113.31,160.57 113.31,160.49C113.31,160.4 113.31,160.29 113.31,160.18C113.31,160.05 113.31,159.91 113.31,159.77C113.31,159.61 113.31,159.44 113.31,159.26C113.31,159.07 113.31,158.88 113.31,158.68C113.31,158.48 113.31,158.27 113.31,158.06C113.31,157.85 113.31,157.62 113.31,157.41C113.31,157.2 113.31,156.99 113.31,156.78C113.31,156.57 113.31,156.36 113.31,156.15C113.31,155.94 113.31,155.74 113.31,155.52C113.31,155.29 113.31,155.06 113.31,154.82C113.31,154.56 113.31,154.3 113.31,154.02C113.31,153.72 113.31,153.41 113.31,153.08C113.31,152.72 113.31,152.35 113.31,151.96C113.31,151.55 113.31,151.13 113.31,150.69C113.31,150.23 113.31,149.75 113.31,149.27C113.31,148.77 113.31,148.26 113.31,147.75C113.31,147.23 113.31,146.69 113.31,146.16C113.31,145.62 113.31,145.08 113.31,144.53C113.31,143.97 113.31,143.41 113.31,142.85C113.31,142.28 113.31,141.71 113.31,141.13C113.31,140.54 113.31,139.94 113.31,139.33C113.31,138.71 113.32,138.09 113.32,137.46C113.32,136.82 113.32,136.18 113.32,135.54C113.32,134.91 113.32,134.27 113.32,133.64C113.32,133.02 113.32,132.4 113.32,131.8C113.32,131.21 113.32,130.64 113.32,130.07C113.32,129.52 113.32,128.99 113.32,128.46C113.32,127.94 113.32,127.43 113.32,126.92C113.32,126.41 113.32,125.91 113.32,125.41C113.32,124.9 113.32,124.39 113.32,123.88C113.32,123.36 113.32,122.84 113.32,122.31C113.32,121.77 113.32,121.23 113.32,120.69C113.32,120.15 113.32,119.61 113.32,119.08C113.32,118.55 113.32,118.03 113.32,117.51C113.32,117.01 113.32,116.51 113.32,116.03C113.32,115.56 113.32,115.1 113.32,114.65C113.32,114.22 113.32,113.8 113.32,113.4C113.32,113.02 113.32,112.64 113.32,112.29C113.32,111.97 113.32,111.66 113.32,111.39C113.32,111.16 113.32,110.92 113.32,110.76C113.32,110.65 113.32,110.5 113.32,110.5C113.32,110.5 113.32,110.58 113.32,110.64C113.32,110.76 113.32,110.96 113.32,111.15C113.32,111.39 113.32,111.68 113.32,111.96C113.32,112.27 113.33,112.61 113.33,112.95C113.33,113.3 113.33,113.67 113.33,114.04C113.33,114.41 113.33,114.79 113.33,115.17C113.33,115.57 113.33,115.98 113.33,116.4C113.33,116.84 113.33,117.3 113.33,117.77C113.33,118.27 113.33,118.79 113.33,119.32C113.33,119.89 113.33,120.47 113.33,121.07C113.33,121.69 113.33,122.33 113.33,122.97C113.33,123.63 113.33,124.3 113.33,124.97C113.33,125.65 113.33,126.33 113.33,127.01C113.33,127.7 113.33,128.39 113.33,129.08C113.33,129.77 113.33,130.46 113.33,131.15C113.33,131.83 113.33,132.52 113.33,133.19C113.33,133.85 113.33,134.51 113.33,135.16C113.33,135.79 113.33,136.41 113.33,137.02C113.33,137.6 113.33,138.17 113.33,138.73C113.33,139.26 113.33,139.78 113.33,140.3C113.33,140.81 113.33,141.3 113.33,141.8C113.33,142.3 113.33,142.79 113.33,143.29C113.33,143.8 113.33,144.32 113.33,144.84C113.33,145.37 113.33,145.9 113.33,146.44C113.33,146.98 113.33,147.53 113.33,148.07C113.33,148.61 113.33,149.14 113.33,149.67C113.33,150.19 113.34,150.7 113.34,151.2C113.34,151.67 113.34,152.14 113.34,152.59C113.34,153.02 113.34,153.43 113.34,153.83C113.34,154.19 113.34,154.54 113.34,154.87C113.34,155.17 113.34,155.45 113.34,155.72C113.34,155.96 113.34,156.18 113.34,156.39C113.34,156.57 113.34,156.74 113.34,156.91C113.34,157.06 113.34,157.21 113.34,157.35C113.34,157.48 113.34,157.61 113.34,157.74C113.34,157.87 113.34,158.01 113.34,158.14C113.34,158.28 113.34,158.42 113.34,158.56C113.34,158.7 113.34,158.85 113.34,158.99C113.34,159.14 113.34,159.29 113.34,159.44C113.34,159.58 113.34,159.72 113.34,159.86C113.34,159.99 113.34,160.12 113.34,160.25C113.34,160.37 113.34,160.48 113.34,160.59C113.34,160.69 113.34,160.78 113.34,160.87C113.34,160.94 113.34,161.01 113.34,161.07C113.34,161.12 113.34,161.17 113.34,161.21C113.34,161.24 113.34,161.28 113.34,161.3C113.34,161.32 113.34,161.33 113.34,161.34C113.34,161.34 113.34,161.35 113.34,161.35C113.34,161.35 113.34,161.34 113.34,161.34C113.34,161.33 113.35,161.33 113.35,161.32C113.35,161.31 113.35,161.31 113.35,161.3C113.35,161.3 113.35,161.29 113.35,161.29C113.35,161.29 113.35,161.29 113.35,161.29C113.35,161.29 113.35,161.29 113.35,161.29C113.35,161.29 113.35,161.3 113.35,161.3C113.35,161.31 113.35,161.31 113.35,161.32C113.35,161.33 113.35,161.34 113.35,161.35C113.35,161.36 113.35,161.37 113.35,161.38C113.35,161.39 113.35,161.39 113.35,161.4C113.35,161.41 113.35,161.42 113.35,161.43C113.35,161.44 113.35,161.44 113.35,161.45C113.35,161.46 113.35,161.46 113.35,161.47C113.35,161.47 113.35,161.48 113.35,161.48Q113.35,161.48 113.35,161.49L113.35,161.5" style="vector-effect: non-scaling-stroke; stroke-width: 2px; stroke: rgb(102, 194, 164); stroke-opacity: 1; fill: rgb(102, 194, 164); fill-opacity: 0.5;"/><path class="meanline" d="M113.32,110.56141662597656V161.5" style="fill: none; vector-effect: non-scaling-stroke; stroke-width: 2px; stroke-dasharray: 4px, 2px; stroke: rgb(102, 194, 164); stroke-opacity: 1;"/></g><g class="trace violins" style="opacity: 1;"><path class="violin" d="M113.13,110.5L113.13,110.49Q113.13,110.48 113.13,110.48C113.13,110.47 113.13,110.47 113.13,110.46C113.13,110.45 113.13,110.45 113.13,110.44C113.13,110.43 113.13,110.42 113.13,110.41C113.13,110.4 113.13,110.38 113.13,110.37C113.13,110.36 113.13,110.34 113.13,110.33C113.13,110.31 113.13,110.29 113.13,110.27C113.13,110.25 113.13,110.24 113.13,110.22C113.13,110.2 113.13,110.17 113.13,110.15C113.13,110.13 113.13,110.11 113.13,110.09C113.13,110.07 113.13,110.04 113.13,110.02C113.13,109.99 113.13,109.97 113.13,109.94C113.13,109.91 113.13,109.88 113.13,109.84C113.13,109.8 113.13,109.76 113.13,109.71C113.13,109.66 113.13,109.6 113.13,109.54C113.13,109.48 113.14,109.41 113.14,109.35C113.14,109.28 113.14,109.21 113.14,109.14C113.14,109.07 113.14,108.99 113.14,108.92C113.14,108.84 113.14,108.77 113.14,108.69C113.14,108.61 113.14,108.53 113.14,108.44C113.14,108.35 113.14,108.25 113.14,108.15C113.14,108.03 113.14,107.91 113.14,107.78C113.14,107.63 113.14,107.48 113.14,107.31C113.14,107.12 113.14,106.92 113.14,106.72C113.14,106.5 113.14,106.27 113.14,106.03C113.14,105.77 113.14,105.51 113.14,105.23C113.14,104.93 113.14,104.62 113.14,104.31C113.14,103.98 113.14,103.64 113.14,103.29C113.14,102.92 113.14,102.53 113.14,102.14C113.14,101.73 113.14,101.31 113.14,100.89C113.14,100.46 113.15,100.01 113.15,99.57C113.15,99.13 113.15,98.67 113.15,98.23C113.15,97.79 113.15,97.35 113.15,96.91C113.15,96.48 113.15,96.06 113.15,95.64C113.15,95.22 113.15,94.81 113.15,94.4C113.15,93.98 113.15,93.57 113.15,93.14C113.15,92.7 113.15,92.24 113.15,91.78C113.15,91.29 113.15,90.8 113.15,90.29C113.15,89.75 113.15,89.19 113.15,88.61C113.15,88 113.15,87.37 113.15,86.73C113.15,86.06 113.15,85.37 113.15,84.67C113.15,83.95 113.15,83.2 113.15,82.46C113.15,81.7 113.15,80.93 113.15,80.16C113.15,79.39 113.15,78.62 113.15,77.85C113.15,77.09 113.15,76.33 113.15,75.59C113.15,74.87 113.16,74.16 113.16,73.47C113.16,72.8 113.16,72.15 113.16,71.51C113.16,70.89 113.16,70.29 113.16,69.7C113.16,69.13 113.16,68.58 113.16,68.04C113.16,67.52 113.16,67.01 113.16,66.52C113.16,66.06 113.16,65.61 113.16,65.18C113.16,64.79 113.16,64.41 113.16,64.06C113.16,63.75 113.16,63.45 113.16,63.17C113.16,62.93 113.16,62.71 113.16,62.49C113.16,62.29 113.16,62.1 113.16,61.91C113.16,61.72 113.16,61.53 113.16,61.33C113.16,61.13 113.16,60.92 113.16,60.72C113.16,60.52 113.16,60.31 113.16,60.12C113.16,59.96 113.16,59.78 113.16,59.67C113.16,59.6 113.16,59.5 113.16,59.5C113.16,59.5 113.17,59.6 113.17,59.67C113.17,59.79 113.17,59.99 113.17,60.17C113.17,60.39 113.17,60.63 113.17,60.88C113.17,61.14 113.17,61.42 113.17,61.7C113.17,62 113.17,62.3 113.17,62.61C113.17,62.95 113.17,63.29 113.17,63.66C113.17,64.07 113.17,64.5 113.17,64.96C113.17,65.48 113.17,66.05 113.17,66.64C113.17,67.3 113.17,68 113.17,68.72C113.17,69.49 113.17,70.31 113.17,71.13C113.17,71.98 113.17,72.87 113.17,73.73C113.17,74.59 113.17,75.46 113.17,76.31C113.17,77.13 113.17,77.95 113.17,78.74C113.17,79.49 113.17,80.22 113.17,80.93C113.17,81.59 113.17,82.24 113.17,82.86C113.17,83.44 113.18,84.01 113.18,84.56C113.18,85.09 113.18,85.6 113.18,86.11C113.18,86.6 113.18,87.08 113.18,87.56C113.18,88.04 113.18,88.51 113.18,88.98C113.18,89.45 113.18,89.93 113.18,90.4C113.18,90.88 113.18,91.36 113.18,91.84C113.18,92.32 113.18,92.81 113.18,93.3C113.18,93.79 113.18,94.27 113.18,94.76C113.18,95.24 113.18,95.73 113.18,96.21C113.18,96.69 113.18,97.17 113.18,97.64C113.18,98.11 113.18,98.58 113.18,99.05C113.18,99.51 113.18,99.97 113.18,100.42C113.18,100.86 113.18,101.3 113.18,101.73C113.18,102.15 113.18,102.57 113.18,102.97C113.18,103.36 113.18,103.73 113.18,104.1C113.18,104.45 113.18,104.8 113.18,105.13C113.18,105.44 113.19,105.74 113.19,106.02C113.19,106.28 113.19,106.53 113.19,106.76C113.19,106.97 113.19,107.18 113.19,107.37C113.19,107.54 113.19,107.71 113.19,107.87C113.19,108.01 113.19,108.14 113.19,108.27C113.19,108.39 113.19,108.5 113.19,108.61C113.19,108.71 113.19,108.81 113.19,108.91C113.19,109 113.19,109.1 113.19,109.19C113.19,109.28 113.19,109.37 113.19,109.45C113.19,109.53 113.19,109.61 113.19,109.68C113.19,109.75 113.19,109.82 113.19,109.88C113.19,109.94 113.19,109.99 113.19,110.04C113.19,110.08 113.19,110.12 113.19,110.16C113.19,110.19 113.19,110.23 113.19,110.26C113.19,110.28 113.19,110.3 113.19,110.32C113.19,110.34 113.2,110.36 113.2,110.37C113.2,110.38 113.2,110.39 113.2,110.4C113.2,110.41 113.2,110.41 113.2,110.42C113.2,110.42 113.2,110.43 113.2,110.43C113.2,110.43 113.2,110.43 113.2,110.43C113.2,110.43 113.2,110.43 113.2,110.43C113.2,110.43 113.2,110.43 113.2,110.43C113.2,110.43 113.2,110.44 113.2,110.44C113.2,110.44 113.2,110.45 113.2,110.45C113.2,110.45 113.2,110.46 113.2,110.46C113.2,110.46 113.2,110.47 113.2,110.47C113.2,110.47 113.2,110.48 113.2,110.48Q113.2,110.48 113.2,110.49L113.2,110.5" style="vector-effect: non-scaling-stroke; stroke-width: 2px; stroke: rgb(102, 194, 164); stroke-opacity: 1; fill: rgb(102, 194, 164); fill-opacity: 0.5;"/><path class="meanline" d="M113.16,59.500614166259766V110.5" style="fill: none; vector-effect: non-scaling-stroke; stroke-width: 2px; stroke-dasharray: 4px, 2px; stroke: rgb(102, 194, 164); stroke-opacity: 1;"/></g><g class="trace violins" style="opacity: 1;"><path class="violin" d="M112.73,59.5L112.73,59.48Q112.73,59.47 112.73,59.47C112.73,59.46 112.73,59.46 112.73,59.45C112.73,59.44 112.74,59.42 112.74,59.41C112.74,59.4 112.74,59.38 112.74,59.37C112.74,59.36 112.74,59.34 112.74,59.33C112.74,59.31 112.74,59.3 112.74,59.28C112.74,59.26 112.74,59.24 112.74,59.22C112.74,59.2 112.74,59.18 112.74,59.16C112.74,59.14 112.74,59.11 112.74,59.08C112.74,59.05 112.75,59.03 112.75,59C112.75,58.97 112.75,58.93 112.75,58.89C112.75,58.85 112.75,58.82 112.75,58.78C112.75,58.74 112.75,58.69 112.75,58.65C112.75,58.6 112.75,58.56 112.75,58.51C112.75,58.46 112.75,58.41 112.75,58.35C112.75,58.29 112.75,58.22 112.75,58.15C112.75,58.07 112.76,57.99 112.76,57.9C112.76,57.8 112.76,57.69 112.76,57.57C112.76,57.44 112.76,57.3 112.76,57.15C112.76,56.99 112.76,56.81 112.76,56.63C112.76,56.43 112.76,56.23 112.76,56.02C112.76,55.8 112.76,55.58 112.76,55.35C112.76,55.11 112.76,54.87 112.76,54.62C112.76,54.36 112.77,54.1 112.77,53.83C112.77,53.55 112.77,53.27 112.77,52.97C112.77,52.66 112.77,52.33 112.77,52C112.77,51.65 112.77,51.29 112.77,50.92C112.77,50.53 112.77,50.13 112.77,49.73C112.77,49.31 112.77,48.88 112.77,48.45C112.77,48.01 112.77,47.56 112.77,47.12C112.77,46.68 112.77,46.24 112.77,45.8C112.77,45.36 112.78,44.93 112.78,44.49C112.78,44.05 112.78,43.61 112.78,43.17C112.78,42.72 112.78,42.27 112.78,41.81C112.78,41.33 112.78,40.85 112.78,40.36C112.78,39.84 112.78,39.32 112.78,38.78C112.78,38.21 112.78,37.62 112.78,37.02C112.78,36.38 112.78,35.73 112.78,35.06C112.78,34.35 112.79,33.6 112.79,32.85C112.79,32.06 112.79,31.25 112.79,30.43C112.79,29.59 112.79,28.72 112.79,27.86C112.79,27 112.79,26.12 112.79,25.26C112.79,24.42 112.79,23.58 112.79,22.76C112.79,21.97 112.79,21.2 112.79,20.45C112.79,19.74 112.79,19.05 112.79,18.39C112.79,17.77 112.8,17.16 112.8,16.58C112.8,16.04 112.8,15.5 112.8,15C112.8,14.53 112.8,14.09 112.8,13.66C112.8,13.27 112.8,12.9 112.8,12.55C112.8,12.23 112.8,11.93 112.8,11.64C112.8,11.38 112.8,11.13 112.8,10.89C112.8,10.67 112.8,10.46 112.8,10.26C112.8,10.07 112.81,9.88 112.81,9.7C112.81,9.53 112.81,9.36 112.81,9.21C112.81,9.07 112.81,8.94 112.81,8.82C112.81,8.73 112.81,8.63 112.81,8.57C112.81,8.54 112.81,8.5 112.81,8.5C112.81,8.5 112.81,8.56 112.81,8.61C112.81,8.69 112.81,8.81 112.81,8.93C112.81,9.09 112.82,9.28 112.82,9.49C112.82,9.75 112.82,10.05 112.82,10.36C112.82,10.73 112.82,11.14 112.82,11.56C112.82,12.04 112.82,12.56 112.82,13.08C112.82,13.64 112.82,14.24 112.82,14.83C112.82,15.44 112.82,16.07 112.82,16.69C112.82,17.31 112.82,17.93 112.82,18.55C112.82,19.16 112.83,19.76 112.83,20.36C112.83,20.96 112.83,21.55 112.83,22.14C112.83,22.73 112.83,23.32 112.83,23.92C112.83,24.53 112.83,25.14 112.83,25.75C112.83,26.37 112.83,27 112.83,27.64C112.83,28.29 112.83,28.94 112.83,29.6C112.83,30.27 112.83,30.95 112.83,31.63C112.83,32.32 112.84,33.03 112.84,33.73C112.84,34.43 112.84,35.15 112.84,35.85C112.84,36.54 112.84,37.23 112.84,37.9C112.84,38.54 112.84,39.17 112.84,39.77C112.84,40.33 112.84,40.87 112.84,41.39C112.84,41.86 112.84,42.31 112.84,42.75C112.84,43.16 112.84,43.55 112.84,43.94C112.84,44.32 112.84,44.68 112.84,45.06C112.84,45.44 112.85,45.83 112.85,46.22C112.85,46.62 112.85,47.04 112.85,47.45C112.85,47.87 112.85,48.31 112.85,48.74C112.85,49.17 112.85,49.61 112.85,50.04C112.85,50.46 112.85,50.87 112.85,51.27C112.85,51.65 112.85,52.04 112.85,52.4C112.85,52.74 112.85,53.06 112.85,53.38C112.85,53.67 112.86,53.96 112.86,54.23C112.86,54.48 112.86,54.72 112.86,54.95C112.86,55.16 112.86,55.37 112.86,55.57C112.86,55.76 112.86,55.94 112.86,56.12C112.86,56.29 112.86,56.46 112.86,56.62C112.86,56.78 112.86,56.93 112.86,57.08C112.86,57.22 112.86,57.36 112.86,57.49C112.86,57.62 112.87,57.75 112.87,57.87C112.87,57.98 112.87,58.09 112.87,58.19C112.87,58.28 112.87,58.37 112.87,58.45C112.87,58.52 112.87,58.59 112.87,58.66C112.87,58.72 112.87,58.77 112.87,58.82C112.87,58.87 112.87,58.91 112.87,58.95C112.87,58.99 112.87,59.02 112.87,59.05C112.87,59.08 112.88,59.11 112.88,59.14C112.88,59.17 112.88,59.19 112.88,59.22C112.88,59.24 112.88,59.27 112.88,59.29C112.88,59.31 112.88,59.32 112.88,59.34C112.88,59.35 112.88,59.37 112.88,59.38C112.88,59.39 112.88,59.39 112.88,59.4C112.88,59.41 112.88,59.41 112.88,59.42C112.88,59.42 112.89,59.43 112.89,59.43C112.89,59.43 112.89,59.44 112.89,59.44C112.89,59.45 112.89,59.45 112.89,59.46C112.89,59.46 112.89,59.47 112.89,59.47C112.89,59.47 112.89,59.48 112.89,59.48Q112.89,59.48 112.89,59.49L112.89,59.5" style="vector-effect: non-scaling-stroke; stroke-width: 2px; stroke: rgb(102, 194, 164); stroke-opacity: 1; fill: rgb(102, 194, 164); fill-opacity: 0.5;"/><path class="meanline" d="M112.81,8.501296043395996V59.5" style="fill: none; vector-effect: non-scaling-stroke; stroke-width: 2px; stroke-dasharray: 4px, 2px; stroke: rgb(102, 194, 164); stroke-opacity: 1;"/></g></g></g><g class="overplot"/><path class="xlines-above crisp" d="M0,0" style="fill: none;"/><path class="ylines-above crisp" d="M0,0" style="fill: none;"/><g class="overlines-above"/><g class="xaxislayer-above"><g class="xtick"><text text-anchor="start" x="0" y="203" transform="translate(40,0) rotate(90,0,197)" style="font-family: 'Open Sans', verdana, arial, sans-serif; font-size: 12px; fill: rgb(68, 68, 68); fill-opacity: 1; white-space: pre;">−1</text></g><g class="xtick"><text text-anchor="start" x="0" y="203" transform="translate(68.25,0) rotate(90,0,197)" style="font-family: 'Open Sans', verdana, arial, sans-serif; font-size: 12px; fill: rgb(68, 68, 68); fill-opacity: 1; white-space: pre;">−0.75</text></g><g class="xtick"><text text-anchor="start" x="0" y="203" transform="translate(96.5,0) rotate(90,0,197)" style="font-family: 'Open Sans', verdana, arial, sans-serif; font-size: 12px; fill: rgb(68, 68, 68); fill-opacity: 1; white-space: pre;">−0.5</text></g><g class="xtick"><text text-anchor="start" x="0" y="203" transform="translate(124.75,0) rotate(90,0,197)" style="font-family: 'Open Sans', verdana, arial, sans-serif; font-size: 12px; fill: rgb(68, 68, 68); fill-opacity: 1; white-space: pre;">−0.25</text></g><g class="xtick"><text text-anchor="start" x="0" y="203" transform="translate(153,0) rotate(90,0,197)" style="font-family: 'Open Sans', verdana, arial, sans-serif; font-size: 12px; fill: rgb(68, 68, 68); fill-opacity: 1; white-space: pre;">0</text></g><g class="xtick"><text text-anchor="start" x="0" y="203" transform="translate(181.25,0) rotate(90,0,197)" style="font-family: 'Open Sans', verdana, arial, sans-serif; font-size: 12px; fill: rgb(68, 68, 68); fill-opacity: 1; white-space: pre;">0.25</text></g><g class="xtick"><text text-anchor="start" x="0" y="203" transform="translate(209.5,0) rotate(90,0,197)" style="font-family: 'Open Sans', verdana, arial, sans-serif; font-size: 12px; fill: rgb(68, 68, 68); fill-opacity: 1; white-space: pre;">0.5</text></g><g class="xtick"><text text-anchor="start" x="0" y="203" transform="translate(237.75,0) rotate(90,0,197)" style="font-family: 'Open Sans', verdana, arial, sans-serif; font-size: 12px; fill: rgb(68, 68, 68); fill-opacity: 1; white-space: pre;">0.75</text></g><g class="xtick"><text text-anchor="start" x="0" y="203" transform="translate(266,0) rotate(90,0,197)" style="font-family: 'Open Sans', verdana, arial, sans-serif; font-size: 12px; fill: rgb(68, 68, 68); fill-opacity: 1; white-space: pre;">1</text></g></g><g class="yaxislayer-above"><g class="ytick"><text text-anchor="end" x="39" y="4.199999999999999" transform="translate(0,181.5)" style="font-family: 'Open Sans', verdana, arial, sans-serif; font-size: 12px; fill: rgb(68, 68, 68); fill-opacity: 1; white-space: pre;">Meis</text></g><g class="ytick"><text text-anchor="end" x="39" y="4.199999999999999" transform="translate(0,130.5)" style="font-family: 'Open Sans', verdana, arial, sans-serif; font-size: 12px; fill: rgb(68, 68, 68); fill-opacity: 1; white-space: pre;">Meus</text></g><g class="ytick"><text text-anchor="end" x="39" y="4.199999999999999" transform="translate(0,79.5)" style="font-family: 'Open Sans', verdana, arial, sans-serif; font-size: 12px; fill: rgb(68, 68, 68); fill-opacity: 1; white-space: pre;">Hyum</text></g></g><g class="overaxes-above"/></g></g><g class="polarlayer"/><g class="ternarylayer"/><g class="geolayer"/><g class="funnelarealayer"/><g class="pielayer"/><g class="treemaplayer"/><g class="sunburstlayer"/><g class="glimages"/><defs id="topdefs-c159af"><g class="clips"/></defs><g class="layer-above"><g class="imagelayer"/><g class="shapelayer"><path data-index="0" fill-rule="evenodd" d="M141.7,181.5L141.7,28.5" clip-path="url('#clipc159afxy')" style="opacity: 1; stroke: rgb(0, 0, 0); stroke-opacity: 1; fill: rgb(0, 0, 0); fill-opacity: 0; stroke-dasharray: 9px, 9px; stroke-width: 2px;"/><path data-index="1" fill-rule="evenodd" d="M164.3,181.5L164.3,28.5" clip-path="url('#clipc159afxy')" style="opacity: 1; stroke: rgb(0, 0, 0); stroke-opacity: 1; fill: rgb(0, 0, 0); fill-opacity: 0; stroke-dasharray: 9px, 9px; stroke-width: 2px;"/></g></g><g class="infolayer"><g class="g-gtitle"/><g class="g-xtitle" transform="translate(0,0.703125)"><text class="xtitle" x="153" y="242" text-anchor="middle" style="font-family: 'Open Sans', verdana, arial, sans-serif; font-size: 14px; fill: rgb(68, 68, 68); opacity: 1; font-weight: normal; white-space: pre;">Coeficiente de Interacción</text></g><g class="g-ytitle"/></g></svg>