<svg class="main-svg" xmlns="http://www.w3.org/2000/svg" xmlns:xlink="http://www.w3.org/1999/xlink" width="286" height="250" style="" viewBox="0 0 286 250"><rect x="0" y="0" width="286" height="250" style="fill: rgb(255, 255, 255); fill-opacity: 1;"/><defs id="defs-d7fde0"><g class="clips"><clipPath id="clipd7fde0xyplot" class="plotclip"><rect width="226" height="170"/></clipPath><clipPath class="axesclip" id="clipd7fde0x"><rect x="40" y="0" width="226" height="250"/></clipPath><clipPath class="axesclip" id="clipd7fde0y"><rect x="0" y="20" width="286" height="170"/></clipPath><clipPath class="axesclip" id="clipd7fde0xy"><rect x="40" y="20" width="226" height="170"/></clipPath></g><g class="gradients"/></defs><g class="bglayer"/><g class="layer-below"><g class="imagelayer"/><g class="shapelayer"/></g><g class="cartesianlayer"><g class="subplot xy"><g class="layer-subplot"><g class="shapelayer"/><g class="imagelayer"/></g><g class="gridlayer"><g class="x"/><g class="y"><path class="ygrid crisp" transform="translate(0,181.5)" d="M40,0h226" style="stroke: rgb(238, 238, 238); stroke-opacity: 1; stroke-width: 1px;"/><path class="ygrid crisp" transform="translate(0,154.75)" d="M40,0h226" style="stroke: rgb(238, 238, 238); stroke-opacity: 1; stroke-width: 1px;"/><path class="ygrid crisp" transform="translate(0,128)" d="M40,0h226" style="stroke: rgb(238, 238, 238); stroke-opacity: 1; stroke-width: 1px;"/><path class="ygrid crisp" transform="translate(0,101.25)" d="M40,0h226" style="stroke: rgb(238, 238, 238); stroke-opacity: 1; stroke-width: 1px;"/><path class="ygrid crisp" transform="translate(0,74.5)" d="M40,0h226" style="stroke: rgb(238, 238, 238); stroke-opacity: 1; stroke-width: 1px;"/></g></g><g class="zerolinelayer"/><path class="xlines-below"/><path class="ylines-below"/><g class="overlines-below"/><g class="xaxislayer-below"/><g class="yaxislayer-below"/><g class="overaxes-below"/><g class="plot" transform="translate(40,20)" clip-path="url('#clipd7fde0xyplot')"><g class="violinlayer mlayer"><g class="trace violins" style="opacity: 1;"><path class="violin" d="M113.29,161.5L113.29,161.49Q113.3,161.48 113.3,161.48C113.3,161.48 113.3,161.47 113.3,161.47C113.3,161.46 113.3,161.46 113.3,161.45C113.3,161.44 113.3,161.43 113.3,161.42C113.3,161.41 113.3,161.4 113.3,161.39C113.3,161.38 113.3,161.38 113.3,161.37C113.3,161.37 113.31,161.36 113.31,161.36C113.31,161.36 113.31,161.35 113.31,161.35C113.31,161.35 113.31,161.35 113.31,161.35C113.31,161.35 113.31,161.35 113.31,161.35C113.31,161.35 113.31,161.34 113.31,161.34C113.31,161.33 113.31,161.33 113.31,161.32C113.31,161.31 113.32,161.29 113.32,161.28C113.32,161.27 113.32,161.25 113.32,161.24C113.32,161.22 113.32,161.21 113.32,161.19C113.32,161.17 113.32,161.16 113.32,161.14C113.32,161.12 113.32,161.09 113.32,161.07C113.32,161.04 113.32,161.01 113.32,160.98C113.32,160.94 113.33,160.9 113.33,160.86C113.33,160.81 113.33,160.76 113.33,160.71C113.33,160.65 113.33,160.59 113.33,160.52C113.33,160.45 113.33,160.37 113.33,160.3C113.33,160.22 113.33,160.14 113.33,160.06C113.33,159.98 113.33,159.89 113.33,159.8C113.33,159.71 113.34,159.63 113.34,159.54C113.34,159.45 113.34,159.35 113.34,159.25C113.34,159.15 113.34,159.05 113.34,158.94C113.34,158.82 113.34,158.7 113.34,158.58C113.34,158.45 113.34,158.3 113.34,158.16C113.34,158.01 113.34,157.84 113.34,157.68C113.34,157.51 113.35,157.33 113.35,157.15C113.35,156.96 113.35,156.77 113.35,156.58C113.35,156.38 113.35,156.17 113.35,155.96C113.35,155.74 113.35,155.52 113.35,155.29C113.35,155.05 113.35,154.8 113.35,154.55C113.35,154.28 113.35,154 113.35,153.72C113.35,153.42 113.36,153.12 113.36,152.81C113.36,152.49 113.36,152.17 113.36,151.85C113.36,151.53 113.36,151.19 113.36,150.87C113.36,150.55 113.36,150.24 113.36,149.93C113.36,149.63 113.36,149.33 113.36,149.03C113.36,148.73 113.36,148.43 113.36,148.13C113.36,147.83 113.37,147.52 113.37,147.21C113.37,146.89 113.37,146.56 113.37,146.23C113.37,145.89 113.37,145.53 113.37,145.18C113.37,144.82 113.37,144.45 113.37,144.09C113.37,143.73 113.37,143.36 113.37,143.01C113.37,142.67 113.37,142.32 113.37,141.99C113.37,141.68 113.38,141.37 113.38,141.08C113.38,140.8 113.38,140.54 113.38,140.28C113.38,140.04 113.38,139.8 113.38,139.57C113.38,139.35 113.38,139.13 113.38,138.92C113.38,138.71 113.38,138.5 113.38,138.29C113.38,138.08 113.38,137.86 113.38,137.64C113.38,137.42 113.39,137.19 113.39,136.96C113.39,136.73 113.39,136.5 113.39,136.28C113.39,136.07 113.39,135.86 113.39,135.66C113.39,135.48 113.39,135.31 113.39,135.16C113.39,135.04 113.39,134.92 113.39,134.85C113.39,134.81 113.39,134.75 113.39,134.75C113.39,134.75 113.4,134.8 113.4,134.84C113.4,134.9 113.4,134.99 113.4,135.07C113.4,135.17 113.4,135.29 113.4,135.4C113.4,135.52 113.4,135.65 113.4,135.78C113.4,135.92 113.4,136.06 113.4,136.2C113.4,136.34 113.4,136.49 113.4,136.64C113.4,136.8 113.41,136.97 113.41,137.15C113.41,137.34 113.41,137.54 113.41,137.75C113.41,137.98 113.41,138.23 113.41,138.48C113.41,138.76 113.41,139.05 113.41,139.35C113.41,139.67 113.41,140.02 113.41,140.36C113.41,140.72 113.41,141.1 113.41,141.47C113.41,141.85 113.42,142.23 113.42,142.61C113.42,142.99 113.42,143.37 113.42,143.75C113.42,144.12 113.42,144.5 113.42,144.87C113.42,145.24 113.42,145.6 113.42,145.96C113.42,146.32 113.42,146.67 113.42,147.02C113.42,147.37 113.42,147.73 113.42,148.08C113.42,148.43 113.43,148.77 113.43,149.12C113.43,149.47 113.43,149.82 113.43,150.17C113.43,150.52 113.43,150.87 113.43,151.22C113.43,151.57 113.43,151.92 113.43,152.26C113.43,152.6 113.43,152.93 113.43,153.26C113.43,153.58 113.43,153.9 113.43,154.2C113.43,154.49 113.44,154.77 113.44,155.03C113.44,155.27 113.44,155.51 113.44,155.73C113.44,155.92 113.44,156.1 113.44,156.28C113.44,156.44 113.44,156.59 113.44,156.74C113.44,156.88 113.44,157 113.44,157.13C113.44,157.26 113.44,157.39 113.44,157.52C113.44,157.65 113.45,157.78 113.45,157.91C113.45,158.05 113.45,158.2 113.45,158.34C113.45,158.48 113.45,158.63 113.45,158.77C113.45,158.91 113.45,159.05 113.45,159.18C113.45,159.31 113.45,159.44 113.45,159.56C113.45,159.67 113.45,159.78 113.45,159.88C113.45,159.97 113.46,160.06 113.46,160.15C113.46,160.23 113.46,160.31 113.46,160.38C113.46,160.45 113.46,160.52 113.46,160.58C113.46,160.64 113.46,160.7 113.46,160.75C113.46,160.8 113.46,160.85 113.46,160.9C113.46,160.94 113.46,160.99 113.46,161.03C113.46,161.07 113.47,161.11 113.47,161.14C113.47,161.17 113.47,161.2 113.47,161.22C113.47,161.24 113.47,161.26 113.47,161.28C113.47,161.29 113.47,161.31 113.47,161.32C113.47,161.33 113.47,161.33 113.47,161.34C113.47,161.34 113.47,161.35 113.47,161.35C113.47,161.35 113.48,161.36 113.48,161.36C113.48,161.37 113.48,161.37 113.48,161.38C113.48,161.38 113.48,161.39 113.48,161.39C113.48,161.4 113.48,161.4 113.48,161.41C113.48,161.42 113.48,161.42 113.48,161.43C113.48,161.44 113.48,161.44 113.48,161.45C113.48,161.45 113.49,161.46 113.49,161.46C113.49,161.46 113.49,161.47 113.49,161.47C113.49,161.47 113.49,161.48 113.49,161.48C113.49,161.48 113.49,161.49 113.49,161.49Q113.49,161.49 113.49,161.5L113.49,161.5" style="vector-effect: non-scaling-stroke; stroke-width: 2px; stroke: rgb(102, 194, 164); stroke-opacity: 1; fill: rgb(102, 194, 164); fill-opacity: 0.5;"/><path class="meanline" d="M113.39,134.7503204345703V161.5" style="fill: none; vector-effect: non-scaling-stroke; stroke-width: 2px; stroke-dasharray: 4px, 2px; stroke: rgb(102, 194, 164); stroke-opacity: 1;"/></g><g class="trace violins" style="opacity: 1;"><path class="violin" d="M113.23,134.75L113.23,134.75Q113.23,134.74 113.23,134.74C113.23,134.74 113.24,134.73 113.24,134.73C113.24,134.73 113.24,134.73 113.24,134.73C113.24,134.73 113.24,134.72 113.24,134.72C113.24,134.72 113.24,134.71 113.24,134.71C113.24,134.71 113.24,134.7 113.24,134.7C113.24,134.7 113.24,134.69 113.24,134.69C113.24,134.69 113.24,134.69 113.24,134.69C113.24,134.69 113.24,134.69 113.24,134.69C113.24,134.69 113.25,134.69 113.25,134.69C113.25,134.69 113.25,134.69 113.25,134.69C113.25,134.69 113.25,134.68 113.25,134.68C113.25,134.68 113.25,134.67 113.25,134.67C113.25,134.66 113.25,134.65 113.25,134.64C113.25,134.63 113.25,134.61 113.25,134.6C113.25,134.59 113.25,134.57 113.25,134.56C113.25,134.54 113.25,134.53 113.25,134.51C113.25,134.49 113.26,134.47 113.26,134.45C113.26,134.43 113.26,134.4 113.26,134.38C113.26,134.35 113.26,134.33 113.26,134.3C113.26,134.27 113.26,134.24 113.26,134.2C113.26,134.16 113.26,134.11 113.26,134.07C113.26,134.02 113.26,133.97 113.26,133.92C113.26,133.86 113.26,133.8 113.26,133.74C113.26,133.67 113.26,133.59 113.26,133.52C113.26,133.44 113.27,133.36 113.27,133.28C113.27,133.19 113.27,133.1 113.27,133.01C113.27,132.92 113.27,132.82 113.27,132.72C113.27,132.62 113.27,132.52 113.27,132.42C113.27,132.32 113.27,132.22 113.27,132.12C113.27,132.02 113.27,131.92 113.27,131.82C113.27,131.72 113.27,131.62 113.27,131.52C113.27,131.42 113.27,131.33 113.27,131.23C113.27,131.13 113.28,131.03 113.28,130.92C113.28,130.81 113.28,130.69 113.28,130.57C113.28,130.43 113.28,130.29 113.28,130.13C113.28,129.95 113.28,129.76 113.28,129.55C113.28,129.31 113.28,129.05 113.28,128.78C113.28,128.48 113.28,128.16 113.28,127.83C113.28,127.48 113.28,127.1 113.28,126.73C113.28,126.35 113.28,125.96 113.28,125.57C113.28,125.19 113.29,124.8 113.29,124.42C113.29,124.05 113.29,123.69 113.29,123.34C113.29,123 113.29,122.67 113.29,122.35C113.29,122.04 113.29,121.74 113.29,121.43C113.29,121.13 113.29,120.82 113.29,120.52C113.29,120.21 113.29,119.91 113.29,119.6C113.29,119.29 113.29,118.97 113.29,118.66C113.29,118.34 113.29,118.02 113.29,117.71C113.29,117.4 113.3,117.09 113.3,116.78C113.3,116.47 113.3,116.17 113.3,115.86C113.3,115.55 113.3,115.24 113.3,114.93C113.3,114.62 113.3,114.3 113.3,113.98C113.3,113.66 113.3,113.34 113.3,113.02C113.3,112.7 113.3,112.38 113.3,112.07C113.3,111.77 113.3,111.47 113.3,111.18C113.3,110.9 113.3,110.63 113.3,110.37C113.3,110.13 113.31,109.89 113.31,109.67C113.31,109.46 113.31,109.26 113.31,109.07C113.31,108.9 113.31,108.75 113.31,108.6C113.31,108.47 113.31,108.35 113.31,108.25C113.31,108.17 113.31,108.09 113.31,108.05C113.31,108.03 113.31,108 113.31,108C113.31,108 113.31,108.07 113.31,108.11C113.31,108.18 113.31,108.28 113.31,108.38C113.31,108.5 113.32,108.65 113.32,108.8C113.32,108.98 113.32,109.17 113.32,109.37C113.32,109.58 113.32,109.81 113.32,110.03C113.32,110.26 113.32,110.51 113.32,110.75C113.32,110.98 113.32,111.22 113.32,111.44C113.32,111.65 113.32,111.87 113.32,112.07C113.32,112.26 113.32,112.45 113.32,112.64C113.32,112.82 113.32,113 113.32,113.18C113.32,113.37 113.33,113.57 113.33,113.78C113.33,114.01 113.33,114.24 113.33,114.49C113.33,114.76 113.33,115.05 113.33,115.35C113.33,115.67 113.33,116.02 113.33,116.36C113.33,116.72 113.33,117.1 113.33,117.47C113.33,117.85 113.33,118.25 113.33,118.64C113.33,119.03 113.33,119.42 113.33,119.81C113.33,120.2 113.33,120.59 113.33,120.97C113.33,121.35 113.34,121.72 113.34,122.09C113.34,122.45 113.34,122.8 113.34,123.15C113.34,123.49 113.34,123.82 113.34,124.15C113.34,124.47 113.34,124.79 113.34,125.1C113.34,125.4 113.34,125.7 113.34,126C113.34,126.29 113.34,126.58 113.34,126.87C113.34,127.15 113.34,127.42 113.34,127.69C113.34,127.95 113.34,128.21 113.34,128.46C113.34,128.7 113.35,128.93 113.35,129.16C113.35,129.38 113.35,129.59 113.35,129.79C113.35,129.98 113.35,130.17 113.35,130.35C113.35,130.52 113.35,130.68 113.35,130.84C113.35,130.99 113.35,131.13 113.35,131.27C113.35,131.4 113.35,131.53 113.35,131.66C113.35,131.78 113.35,131.9 113.35,132.02C113.35,132.13 113.35,132.25 113.35,132.36C113.35,132.47 113.36,132.58 113.36,132.69C113.36,132.79 113.36,132.9 113.36,133C113.36,133.1 113.36,133.2 113.36,133.29C113.36,133.38 113.36,133.47 113.36,133.56C113.36,133.64 113.36,133.72 113.36,133.8C113.36,133.87 113.36,133.94 113.36,134.01C113.36,134.07 113.36,134.13 113.36,134.18C113.36,134.23 113.36,134.27 113.36,134.31C113.36,134.35 113.37,134.39 113.37,134.42C113.37,134.44 113.37,134.46 113.37,134.48C113.37,134.49 113.37,134.51 113.37,134.52C113.37,134.53 113.37,134.53 113.37,134.54C113.37,134.54 113.37,134.55 113.37,134.55C113.37,134.55 113.37,134.55 113.37,134.55C113.37,134.55 113.37,134.56 113.37,134.56C113.37,134.56 113.37,134.57 113.37,134.57C113.37,134.58 113.38,134.58 113.38,134.59C113.38,134.6 113.38,134.61 113.38,134.62C113.38,134.63 113.38,134.63 113.38,134.64C113.38,134.65 113.38,134.66 113.38,134.67C113.38,134.68 113.38,134.69 113.38,134.7C113.38,134.71 113.38,134.71 113.38,134.72C113.38,134.72 113.38,134.73 113.38,134.73C113.38,134.73 113.38,134.74 113.38,134.74Q113.38,134.74 113.39,134.74L113.39,134.75" style="vector-effect: non-scaling-stroke; stroke-width: 2px; stroke: rgb(102, 194, 164); stroke-opacity: 1; fill: rgb(102, 194, 164); fill-opacity: 0.5;"/><path class="meanline" d="M113.31,108.00076293945312V134.75" style="fill: none; vector-effect: non-scaling-stroke; stroke-width: 2px; stroke-dasharray: 4px, 2px; stroke: rgb(102, 194, 164); stroke-opacity: 1;"/></g><g class="trace violins" style="opacity: 1;"><path class="violin" d="M112.43,108L112.43,107.99Q112.43,107.99 112.43,107.99C112.43,107.99 112.43,107.98 112.43,107.98C112.43,107.97 112.43,107.97 112.43,107.96C112.43,107.95 112.44,107.95 112.44,107.94C112.44,107.93 112.44,107.93 112.44,107.92C112.44,107.91 112.44,107.91 112.44,107.9C112.44,107.89 112.45,107.88 112.45,107.87C112.45,107.86 112.45,107.86 112.45,107.85C112.45,107.84 112.45,107.82 112.45,107.81C112.45,107.79 112.45,107.78 112.45,107.76C112.45,107.74 112.46,107.72 112.46,107.69C112.46,107.66 112.46,107.62 112.46,107.59C112.46,107.55 112.46,107.51 112.46,107.47C112.46,107.42 112.47,107.37 112.47,107.32C112.47,107.26 112.47,107.2 112.47,107.14C112.47,107.08 112.47,107.01 112.47,106.94C112.47,106.87 112.47,106.8 112.47,106.73C112.47,106.65 112.48,106.56 112.48,106.48C112.48,106.39 112.48,106.3 112.48,106.21C112.48,106.11 112.48,106.01 112.48,105.9C112.48,105.78 112.48,105.66 112.48,105.54C112.48,105.41 112.49,105.27 112.49,105.13C112.49,104.98 112.49,104.83 112.49,104.67C112.49,104.5 112.49,104.33 112.49,104.16C112.49,103.98 112.5,103.79 112.5,103.6C112.5,103.4 112.5,103.2 112.5,103C112.5,102.79 112.5,102.58 112.5,102.37C112.5,102.15 112.5,101.92 112.5,101.69C112.5,101.45 112.51,101.2 112.51,100.95C112.51,100.69 112.51,100.42 112.51,100.15C112.51,99.86 112.51,99.56 112.51,99.26C112.51,98.95 112.51,98.63 112.51,98.31C112.51,97.99 112.52,97.66 112.52,97.33C112.52,97 112.52,96.68 112.52,96.35C112.52,96.03 112.52,95.7 112.52,95.38C112.52,95.06 112.53,94.75 112.53,94.43C112.53,94.11 112.53,93.78 112.53,93.45C112.53,93.11 112.53,92.77 112.53,92.42C112.53,92.06 112.53,91.7 112.53,91.33C112.53,90.96 112.54,90.58 112.54,90.21C112.54,89.84 112.54,89.47 112.54,89.1C112.54,88.74 112.54,88.38 112.54,88.03C112.54,87.7 112.55,87.37 112.55,87.06C112.55,86.77 112.55,86.48 112.55,86.21C112.55,85.97 112.55,85.73 112.55,85.51C112.55,85.31 112.55,85.13 112.55,84.95C112.55,84.79 112.56,84.65 112.56,84.5C112.56,84.36 112.56,84.23 112.56,84.1C112.56,83.97 112.56,83.84 112.56,83.71C112.56,83.57 112.56,83.43 112.56,83.29C112.56,83.14 112.57,82.97 112.57,82.81C112.57,82.65 112.57,82.48 112.57,82.32C112.57,82.17 112.57,82.01 112.57,81.87C112.57,81.75 112.58,81.62 112.58,81.52C112.58,81.44 112.58,81.35 112.58,81.3C112.58,81.28 112.58,81.25 112.58,81.25C112.58,81.25 112.58,81.31 112.58,81.35C112.58,81.41 112.59,81.51 112.59,81.6C112.59,81.72 112.59,81.85 112.59,81.99C112.59,82.14 112.59,82.31 112.59,82.48C112.59,82.67 112.59,82.87 112.59,83.08C112.59,83.3 112.6,83.54 112.6,83.78C112.6,84.03 112.6,84.29 112.6,84.55C112.6,84.83 112.6,85.12 112.6,85.42C112.6,85.73 112.61,86.06 112.61,86.39C112.61,86.74 112.61,87.1 112.61,87.47C112.61,87.85 112.61,88.25 112.61,88.65C112.61,89.07 112.61,89.5 112.61,89.93C112.61,90.37 112.62,90.82 112.62,91.27C112.62,91.72 112.62,92.17 112.62,92.61C112.62,93.04 112.62,93.48 112.62,93.9C112.62,94.3 112.63,94.7 112.63,95.09C112.63,95.46 112.63,95.81 112.63,96.16C112.63,96.49 112.63,96.81 112.63,97.13C112.63,97.43 112.63,97.72 112.63,98.01C112.63,98.29 112.64,98.57 112.64,98.84C112.64,99.1 112.64,99.36 112.64,99.61C112.64,99.86 112.64,100.11 112.64,100.35C112.64,100.59 112.64,100.82 112.64,101.05C112.64,101.27 112.65,101.5 112.65,101.71C112.65,101.91 112.65,102.11 112.65,102.31C112.65,102.5 112.65,102.69 112.65,102.87C112.65,103.05 112.66,103.22 112.66,103.39C112.66,103.56 112.66,103.72 112.66,103.88C112.66,104.04 112.66,104.19 112.66,104.34C112.66,104.49 112.66,104.63 112.66,104.77C112.66,104.9 112.67,105.03 112.67,105.16C112.67,105.28 112.67,105.39 112.67,105.5C112.67,105.6 112.67,105.7 112.67,105.8C112.67,105.89 112.67,105.98 112.67,106.06C112.67,106.14 112.68,106.21 112.68,106.29C112.68,106.36 112.68,106.44 112.68,106.51C112.68,106.58 112.68,106.64 112.68,106.71C112.68,106.77 112.69,106.84 112.69,106.9C112.69,106.96 112.69,107.02 112.69,107.07C112.69,107.12 112.69,107.17 112.69,107.21C112.69,107.25 112.69,107.29 112.69,107.32C112.69,107.35 112.7,107.38 112.7,107.41C112.7,107.44 112.7,107.46 112.7,107.49C112.7,107.51 112.7,107.54 112.7,107.56C112.7,107.59 112.71,107.61 112.71,107.64C112.71,107.66 112.71,107.69 112.71,107.71C112.71,107.73 112.71,107.76 112.71,107.78C112.71,107.8 112.71,107.82 112.71,107.84C112.71,107.86 112.72,107.88 112.72,107.89C112.72,107.9 112.72,107.91 112.72,107.92C112.72,107.93 112.72,107.94 112.72,107.95C112.72,107.95 112.72,107.96 112.72,107.96C112.72,107.97 112.73,107.98 112.73,107.98C112.73,107.98 112.73,107.98 112.73,107.98C112.73,107.98 112.73,107.99 112.73,107.99Q112.73,107.99 112.74,108L112.74,108" style="vector-effect: non-scaling-stroke; stroke-width: 2px; stroke: rgb(102, 194, 164); stroke-opacity: 1; fill: rgb(102, 194, 164); fill-opacity: 0.5;"/><path class="meanline" d="M112.58,81.25176239013672V108" style="fill: none; vector-effect: non-scaling-stroke; stroke-width: 2px; stroke-dasharray: 4px, 2px; stroke: rgb(102, 194, 164); stroke-opacity: 1;"/></g><g class="trace violins" style="opacity: 1;"><path class="violin" d="M58.51,81.25L58.51,81.25Q58.54,81.24 58.56,81.24C58.57,81.24 58.59,81.24 58.6,81.24C58.61,81.24 58.63,81.23 58.64,81.23C58.65,81.23 58.67,81.22 58.68,81.22C58.69,81.22 58.71,81.22 58.72,81.22C58.73,81.22 58.75,81.21 58.76,81.21C58.77,81.21 58.79,81.21 58.8,81.21C58.81,81.21 58.83,81.21 58.84,81.21C58.85,81.21 58.87,81.2 58.88,81.2C58.89,81.2 58.91,81.2 58.92,81.19C58.93,81.18 58.95,81.17 58.96,81.16C58.97,81.15 58.99,81.13 59,81.12C59.02,81.1 59.04,81.09 59.05,81.07C59.07,81.05 59.08,81.03 59.09,81.01C59.1,80.99 59.12,80.96 59.13,80.93C59.14,80.9 59.16,80.87 59.17,80.84C59.18,80.81 59.2,80.77 59.21,80.73C59.22,80.69 59.24,80.66 59.25,80.62C59.26,80.58 59.28,80.54 59.29,80.49C59.3,80.44 59.32,80.39 59.33,80.34C59.34,80.29 59.36,80.23 59.37,80.17C59.38,80.11 59.4,80.04 59.41,79.97C59.42,79.9 59.44,79.82 59.45,79.75C59.46,79.67 59.48,79.59 59.49,79.51C59.51,79.42 59.53,79.33 59.54,79.23C59.56,79.13 59.57,79.02 59.58,78.91C59.59,78.79 59.61,78.66 59.62,78.53C59.63,78.39 59.65,78.24 59.66,78.09C59.67,77.93 59.69,77.77 59.7,77.6C59.71,77.42 59.73,77.24 59.74,77.05C59.75,76.85 59.77,76.65 59.78,76.45C59.79,76.24 59.81,76.03 59.82,75.81C59.83,75.59 59.85,75.36 59.86,75.13C59.87,74.9 59.89,74.67 59.9,74.43C59.91,74.19 59.93,73.94 59.94,73.7C59.96,73.45 59.98,73.21 59.99,72.96C60.01,72.71 60.02,72.46 60.03,72.2C60.04,71.94 60.06,71.67 60.07,71.4C60.08,71.12 60.1,70.83 60.11,70.53C60.12,70.22 60.14,69.9 60.15,69.58C60.16,69.25 60.18,68.91 60.19,68.57C60.2,68.22 60.22,67.86 60.23,67.5C60.24,67.13 60.26,66.76 60.27,66.38C60.28,66 60.3,65.62 60.31,65.23C60.32,64.83 60.34,64.44 60.35,64.03C60.36,63.61 60.38,63.19 60.39,62.76C60.4,62.32 60.42,61.88 60.43,61.44C60.45,60.99 60.46,60.54 60.48,60.1C60.49,59.67 60.51,59.23 60.52,58.82C60.53,58.43 60.55,58.05 60.56,57.7C60.57,57.38 60.59,57.07 60.6,56.8C60.61,56.57 60.62,56.35 60.64,56.16C60.65,56.01 60.66,55.87 60.68,55.75C60.69,55.66 60.7,55.57 60.72,55.5C60.73,55.44 60.75,55.39 60.76,55.34C60.77,55.29 60.79,55.25 60.8,55.2C60.81,55.15 60.83,55.09 60.84,55.03C60.85,54.97 60.87,54.9 60.88,54.84C60.89,54.78 60.9,54.71 60.92,54.66C60.93,54.61 60.95,54.56 60.97,54.53C60.98,54.51 61,54.5 61.01,54.5C61.03,54.5 61.04,54.56 61.05,54.6C61.07,54.66 61.08,54.76 61.09,54.85C61.1,54.96 61.12,55.09 61.13,55.22C61.14,55.36 61.16,55.52 61.17,55.68C61.18,55.85 61.2,56.02 61.21,56.2C61.22,56.39 61.24,56.58 61.25,56.77C61.26,56.97 61.28,57.18 61.29,57.39C61.3,57.61 61.32,57.84 61.33,58.08C61.34,58.33 61.36,58.59 61.37,58.85C61.39,59.13 61.41,59.42 61.42,59.72C61.44,60.04 61.45,60.36 61.46,60.7C61.47,61.06 61.49,61.43 61.5,61.81C61.51,62.21 61.53,62.62 61.54,63.03C61.55,63.46 61.57,63.91 61.58,64.35C61.59,64.8 61.61,65.27 61.62,65.73C61.63,66.18 61.65,66.64 61.66,67.08C61.67,67.51 61.69,67.94 61.7,68.36C61.71,68.76 61.73,69.14 61.74,69.52C61.75,69.87 61.77,70.22 61.78,70.55C61.79,70.86 61.81,71.16 61.82,71.45C61.83,71.73 61.84,72 61.86,72.27C61.87,72.53 61.89,72.77 61.91,73.02C61.92,73.26 61.94,73.51 61.95,73.75C61.96,73.99 61.98,74.22 61.99,74.45C62,74.68 62.02,74.9 62.03,75.12C62.04,75.33 62.06,75.54 62.07,75.74C62.08,75.93 62.1,76.12 62.11,76.3C62.12,76.47 62.14,76.64 62.15,76.81C62.16,76.97 62.18,77.12 62.19,77.27C62.2,77.42 62.22,77.56 62.23,77.7C62.24,77.84 62.26,77.97 62.27,78.11C62.28,78.24 62.3,78.38 62.31,78.51C62.32,78.64 62.33,78.76 62.35,78.88C62.36,78.99 62.38,79.1 62.4,79.21C62.41,79.31 62.43,79.41 62.44,79.51C62.45,79.6 62.47,79.69 62.48,79.77C62.49,79.85 62.51,79.92 62.52,79.99C62.53,80.06 62.55,80.13 62.56,80.19C62.57,80.25 62.59,80.3 62.6,80.36C62.61,80.41 62.63,80.47 62.64,80.52C62.65,80.57 62.67,80.61 62.68,80.65C62.69,80.69 62.71,80.73 62.72,80.77C62.73,80.81 62.75,80.84 62.76,80.87C62.77,80.9 62.78,80.92 62.8,80.94C62.81,80.96 62.83,80.98 62.85,80.99C62.86,81 62.88,81.01 62.89,81.02C62.9,81.03 62.92,81.04 62.93,81.04C62.94,81.04 62.96,81.04 62.97,81.04C62.98,81.04 63,81.05 63.01,81.05C63.02,81.05 63.04,81.06 63.05,81.06C63.06,81.07 63.08,81.07 63.09,81.08C63.1,81.09 63.12,81.1 63.13,81.11C63.14,81.12 63.16,81.13 63.17,81.14C63.18,81.15 63.2,81.16 63.21,81.17C63.22,81.18 63.24,81.19 63.25,81.2C63.26,81.21 63.28,81.22 63.29,81.22C63.31,81.23 63.32,81.23 63.34,81.23Q63.35,81.23 63.38,81.24L63.38,81.25" style="vector-effect: non-scaling-stroke; stroke-width: 2px; stroke: rgb(102, 194, 164); stroke-opacity: 1; fill: rgb(102, 194, 164); fill-opacity: 0.5;"/><path class="meanline" d="M60.96,54.54767990112305V81.25" style="fill: none; vector-effect: non-scaling-stroke; stroke-width: 2px; stroke-dasharray: 4px, 2px; stroke: rgb(102, 194, 164); stroke-opacity: 1;"/></g><g class="trace violins" style="opacity: 1;"><path class="violin" d="M-17.65,54.5L-17.65,54.46Q-15.58,54.43 -14.54,54.41C-13.51,54.39 -12.47,54.36 -11.44,54.32C-10.4,54.28 -9.37,54.23 -8.33,54.16C-7.29,54.09 -6.25,54.01 -5.22,53.91C-4.18,53.81 -3.15,53.69 -2.12,53.55C-1.08,53.41 -0.05,53.24 0.99,53.07C2.03,52.89 3.07,52.7 4.1,52.5C5.14,52.3 6.17,52.08 7.2,51.87C8.24,51.65 9.27,51.43 10.31,51.21C11.35,50.99 12.38,50.77 13.42,50.55C14.45,50.33 15.49,50.12 16.52,49.91C17.56,49.7 18.59,49.49 19.63,49.27C20.67,49.05 21.7,48.83 22.74,48.6C23.77,48.37 24.81,48.13 25.84,47.89C26.88,47.64 27.91,47.39 28.95,47.13C29.99,46.87 31.02,46.61 32.06,46.35C33.09,46.09 34.13,45.82 35.16,45.56C36.2,45.3 37.23,45.05 38.27,44.8C39.31,44.55 40.34,44.3 41.38,44.05C42.41,43.8 43.45,43.56 44.48,43.32C45.52,43.07 46.55,42.83 47.59,42.58C48.63,42.33 49.66,42.07 50.7,41.81C51.73,41.55 52.77,41.29 53.8,41.03C54.84,40.77 55.87,40.51 56.91,40.25C57.95,39.99 58.98,39.73 60.02,39.46C61.05,39.2 62.09,38.93 63.12,38.66C64.16,38.39 65.19,38.12 66.23,37.83C67.27,37.54 68.31,37.25 69.34,36.94C70.38,36.63 71.41,36.31 72.44,35.99C73.48,35.67 74.51,35.34 75.55,35.02C76.59,34.7 77.62,34.37 78.66,34.06C79.69,33.75 80.72,33.46 81.76,33.18C82.79,32.91 83.83,32.65 84.87,32.41C85.9,32.18 86.94,31.97 87.98,31.77C89.01,31.58 90.05,31.41 91.08,31.24C92.12,31.07 93.15,30.93 94.19,30.77C95.23,30.62 96.26,30.47 97.3,30.31C98.33,30.15 99.37,29.98 100.4,29.81C101.44,29.64 102.47,29.45 103.51,29.27C104.55,29.09 105.58,28.89 106.62,28.71C107.65,28.54 108.68,28.36 109.72,28.22C110.75,28.08 111.79,27.96 112.83,27.88C113.87,27.8 114.9,27.76 115.94,27.75C116.97,27.74 118.01,27.78 119.04,27.84C120.08,27.9 121.11,28 122.15,28.12C123.19,28.24 124.23,28.39 125.26,28.55C126.3,28.71 127.33,28.89 128.36,29.09C129.4,29.29 130.44,29.5 131.47,29.73C132.51,29.96 133.54,30.2 134.57,30.45C135.61,30.7 136.64,30.97 137.68,31.25C138.72,31.53 139.76,31.82 140.79,32.12C141.83,32.43 142.86,32.75 143.89,33.08C144.93,33.41 145.96,33.75 147,34.09C148.04,34.43 149.07,34.78 150.11,35.13C151.14,35.47 152.18,35.82 153.21,36.16C154.25,36.5 155.28,36.84 156.32,37.16C157.36,37.48 158.39,37.79 159.43,38.09C160.46,38.38 161.49,38.66 162.53,38.93C163.56,39.2 164.6,39.45 165.64,39.69C166.68,39.93 167.71,40.16 168.75,40.39C169.78,40.62 170.82,40.83 171.85,41.05C172.89,41.27 173.92,41.49 174.96,41.71C176,41.93 177.03,42.16 178.07,42.39C179.1,42.62 180.14,42.86 181.17,43.11C182.21,43.36 183.24,43.61 184.28,43.87C185.32,44.13 186.35,44.4 187.39,44.67C188.42,44.94 189.46,45.21 190.49,45.48C191.53,45.75 192.56,46.02 193.6,46.28C194.64,46.54 195.67,46.81 196.71,47.06C197.74,47.31 198.78,47.56 199.81,47.8C200.85,48.04 201.88,48.28 202.92,48.52C203.96,48.75 204.99,48.98 206.03,49.21C207.06,49.44 208.1,49.67 209.13,49.9C210.17,50.13 211.2,50.36 212.24,50.59C213.28,50.82 214.31,51.04 215.35,51.27C216.38,51.49 217.41,51.72 218.45,51.94C219.48,52.15 220.52,52.36 221.56,52.56C222.6,52.75 223.63,52.94 224.67,53.11C225.7,53.28 226.73,53.44 227.77,53.57C228.8,53.7 229.84,53.81 230.88,53.91C231.92,54.01 232.95,54.09 233.99,54.16C235.02,54.23 236.06,54.27 237.09,54.31C238.13,54.35 239.16,54.38 240.2,54.41Q241.24,54.43 243.31,54.46L243.31,54.5" style="vector-effect: non-scaling-stroke; stroke-width: 2px; stroke: rgb(102, 194, 164); stroke-opacity: 1; fill: rgb(102, 194, 164); fill-opacity: 0.5;"/><path class="meanline" d="M112.94,27.871784210205078V54.5" style="fill: none; vector-effect: non-scaling-stroke; stroke-width: 2px; stroke-dasharray: 4px, 2px; stroke: rgb(102, 194, 164); stroke-opacity: 1;"/></g></g></g><g class="overplot"/><path class="xlines-above crisp" d="M0,0" style="fill: none;"/><path class="ylines-above crisp" d="M0,0" style="fill: none;"/><g class="overlines-above"/><g class="xaxislayer-above"><g class="xtick"><text text-anchor="start" x="0" y="203" transform="translate(40,0) rotate(90,0,197)" style="font-family: 'Open Sans', verdana, arial, sans-serif; font-size: 12px; fill: rgb(68, 68, 68); fill-opacity: 1; white-space: pre;">−1</text></g><g class="xtick"><text text-anchor="start" x="0" y="203" transform="translate(68.25,0) rotate(90,0,197)" style="font-family: 'Open Sans', verdana, arial, sans-serif; font-size: 12px; fill: rgb(68, 68, 68); fill-opacity: 1; white-space: pre;">−0.75</text></g><g class="xtick"><text text-anchor="start" x="0" y="203" transform="translate(96.5,0) rotate(90,0,197)" style="font-family: 'Open Sans', verdana, arial, sans-serif; font-size: 12px; fill: rgb(68, 68, 68); fill-opacity: 1; white-space: pre;">−0.5</text></g><g class="xtick"><text text-anchor="start" x="0" y="203" transform="translate(124.75,0) rotate(90,0,197)" style="font-family: 'Open Sans', verdana, arial, sans-serif; font-size: 12px; fill: rgb(68, 68, 68); fill-opacity: 1; white-space: pre;">−0.25</text></g><g class="xtick"><text text-anchor="start" x="0" y="203" transform="translate(153,0) rotate(90,0,197)" style="font-family: 'Open Sans', verdana, arial, sans-serif; font-size: 12px; fill: rgb(68, 68, 68); fill-opacity: 1; white-space: pre;">0</text></g><g class="xtick"><text text-anchor="start" x="0" y="203" transform="translate(181.25,0) rotate(90,0,197)" style="font-family: 'Open Sans', verdana, arial, sans-serif; font-size: 12px; fill: rgb(68, 68, 68); fill-opacity: 1; white-space: pre;">0.25</text></g><g class="xtick"><text text-anchor="start" x="0" y="203" transform="translate(209.5,0) rotate(90,0,197)" style="font-family: 'Open Sans', verdana, arial, sans-serif; font-size: 12px; fill: rgb(68, 68, 68); fill-opacity: 1; white-space: pre;">0.5</text></g><g class="xtick"><text text-anchor="start" x="0" y="203" transform="translate(237.75,0) rotate(90,0,197)" style="font-family: 'Open Sans', verdana, arial, sans-serif; font-size: 12px; fill: rgb(68, 68, 68); fill-opacity: 1; white-space: pre;">0.75</text></g><g class="xtick"><text text-anchor="start" x="0" y="203" transform="translate(266,0) rotate(90,0,197)" style="font-family: 'Open Sans', verdana, arial, sans-serif; font-size: 12px; fill: rgb(68, 68, 68); fill-opacity: 1; white-space: pre;">1</text></g></g><g class="yaxislayer-above"><g class="ytick"><text text-anchor="end" x="39" y="4.199999999999999" transform="translate(0,181.5)" style="font-family: 'Open Sans', verdana, arial, sans-serif; font-size: 12px; fill: rgb(68, 68, 68); fill-opacity: 1; white-space: pre;">Meis</text></g><g class="ytick"><text text-anchor="end" x="39" y="4.199999999999999" transform="translate(0,154.75)" style="font-family: 'Open Sans', verdana, arial, sans-serif; font-size: 12px; fill: rgb(68, 68, 68); fill-opacity: 1; white-space: pre;">Meus</text></g><g class="ytick"><text text-anchor="end" x="39" y="4.199999999999999" transform="translate(0,128)" style="font-family: 'Open Sans', verdana, arial, sans-serif; font-size: 12px; fill: rgb(68, 68, 68); fill-opacity: 1; white-space: pre;">Hyum</text></g><g class="ytick"><text text-anchor="end" x="39" y="4.199999999999999" transform="translate(0,101.25)" style="font-family: 'Open Sans', verdana, arial, sans-serif; font-size: 12px; fill: rgb(68, 68, 68); fill-opacity: 1; white-space: pre;">Seum</text></g><g class="ytick"><text text-anchor="end" x="39" y="4.199999999999999" transform="translate(0,74.5)" style="font-family: 'Open Sans', verdana, arial, sans-serif; font-size: 12px; fill: rgb(68, 68, 68); fill-opacity: 1; white-space: pre;">Raer</text></g></g><g class="overaxes-above"/></g></g><g class="polarlayer"/><g class="ternarylayer"/><g class="geolayer"/><g class="funnelarealayer"/><g class="pielayer"/><g class="treemaplayer"/><g class="sunburstlayer"/><g class="glimages"/><defs id="topdefs-d7fde0"><g class="clips"/></defs><g class="layer-above"><g class="imagelayer"/><g class="shapelayer"><path data-index="0" fill-rule="evenodd" d="M141.7,181.5L141.7,21" clip-path="url('#clipd7fde0xy')" style="opacity: 1; stroke: rgb(0, 0, 0); stroke-opacity: 1; fill: rgb(0, 0, 0); fill-opacity: 0; stroke-dasharray: 9px, 9px; stroke-width: 2px;"/><path data-index="1" fill-rule="evenodd" d="M164.3,181.5L164.3,21" clip-path="url('#clipd7fde0xy')" style="opacity: 1; stroke: rgb(0, 0, 0); stroke-opacity: 1; fill: rgb(0, 0, 0); fill-opacity: 0; stroke-dasharray: 9px, 9px; stroke-width: 2px;"/></g></g><g class="infolayer"><g class="g-gtitle"><text class="gtitle" x="143" y="10" text-anchor="middle" dy="0em" style="font-family: Calibri; font-size: 14px; fill: rgb(68, 68, 68); opacity: 1; font-weight: normal; white-space: pre;">CIR_19</text></g><g class="g-xtitle" transform="translate(0,0.703125)"><text class="xtitle" x="153" y="242" text-anchor="middle" style="font-family: 'Open Sans', verdana, arial, sans-serif; font-size: 14px; fill: rgb(68, 68, 68); opacity: 1; font-weight: normal; white-space: pre;">Coeficiente de Interacción</text></g><g class="g-ytitle"/></g></svg>