<svg class="main-svg" xmlns="http://www.w3.org/2000/svg" xmlns:xlink="http://www.w3.org/1999/xlink" width="266" height="250" style="" viewBox="0 0 266 250"><rect x="0" y="0" width="266" height="250" style="fill: rgb(255, 255, 255); fill-opacity: 1;"/><defs id="defs-71d78a"><g class="clips"><clipPath id="clip71d78axyplot" class="plotclip"><rect width="226" height="170"/></clipPath><clipPath class="axesclip" id="clip71d78ax"><rect x="20" y="0" width="226" height="250"/></clipPath><clipPath class="axesclip" id="clip71d78ay"><rect x="0" y="20" width="266" height="170"/></clipPath><clipPath class="axesclip" id="clip71d78axy"><rect x="20" y="20" width="226" height="170"/></clipPath></g><g class="gradients"/></defs><g class="bglayer"/><g class="layer-below"><g class="imagelayer"/><g class="shapelayer"/></g><g class="cartesianlayer"><g class="subplot xy"><g class="layer-subplot"><g class="shapelayer"/><g class="imagelayer"/></g><g class="gridlayer"><g class="x"/><g class="y"><path class="ygrid crisp" transform="translate(0,181.5)" d="M20,0h226" style="stroke: rgb(238, 238, 238); stroke-opacity: 1; stroke-width: 1px;"/><path class="ygrid crisp" transform="translate(0,150.9)" d="M20,0h226" style="stroke: rgb(238, 238, 238); stroke-opacity: 1; stroke-width: 1px;"/><path class="ygrid crisp" transform="translate(0,120.3)" d="M20,0h226" style="stroke: rgb(238, 238, 238); stroke-opacity: 1; stroke-width: 1px;"/><path class="ygrid crisp" transform="translate(0,89.7)" d="M20,0h226" style="stroke: rgb(238, 238, 238); stroke-opacity: 1; stroke-width: 1px;"/><path class="ygrid crisp" transform="translate(0,59.1)" d="M20,0h226" style="stroke: rgb(238, 238, 238); stroke-opacity: 1; stroke-width: 1px;"/></g></g><g class="zerolinelayer"/><path class="xlines-below"/><path class="ylines-below"/><g class="overlines-below"/><g class="xaxislayer-below"/><g class="yaxislayer-below"/><g class="overaxes-below"/><g class="plot" transform="translate(20,20)" clip-path="url('#clip71d78axyplot')"><g class="violinlayer mlayer"><g class="trace violins" style="opacity: 1;"><path class="violin" d="M113.39,161.5L113.39,161.49Q113.39,161.49 113.39,161.49C113.39,161.49 113.39,161.48 113.39,161.48C113.39,161.48 113.39,161.48 113.39,161.48C113.39,161.48 113.39,161.47 113.39,161.47C113.39,161.47 113.39,161.46 113.39,161.46C113.39,161.46 113.39,161.45 113.39,161.45C113.39,161.45 113.39,161.44 113.39,161.44C113.39,161.43 113.39,161.43 113.39,161.42C113.39,161.41 113.4,161.41 113.4,161.4C113.4,161.39 113.4,161.39 113.4,161.38C113.4,161.37 113.4,161.35 113.4,161.34C113.4,161.32 113.4,161.31 113.4,161.29C113.4,161.27 113.4,161.25 113.4,161.23C113.4,161.21 113.4,161.18 113.4,161.16C113.4,161.13 113.4,161.1 113.4,161.07C113.4,161.04 113.4,161.01 113.4,160.98C113.4,160.95 113.4,160.91 113.4,160.88C113.4,160.84 113.4,160.8 113.4,160.76C113.4,160.72 113.4,160.67 113.4,160.62C113.4,160.57 113.4,160.51 113.4,160.45C113.4,160.39 113.41,160.32 113.41,160.25C113.41,160.17 113.41,160.09 113.41,160C113.41,159.91 113.41,159.82 113.41,159.72C113.41,159.62 113.41,159.51 113.41,159.41C113.41,159.3 113.41,159.2 113.41,159.09C113.41,158.98 113.41,158.87 113.41,158.76C113.41,158.64 113.41,158.52 113.41,158.4C113.41,158.27 113.41,158.15 113.41,158.01C113.41,157.86 113.41,157.71 113.41,157.55C113.41,157.38 113.41,157.2 113.41,157.01C113.41,156.8 113.41,156.58 113.41,156.35C113.41,156.11 113.42,155.86 113.42,155.6C113.42,155.33 113.42,155.05 113.42,154.77C113.42,154.48 113.42,154.18 113.42,153.88C113.42,153.57 113.42,153.26 113.42,152.94C113.42,152.62 113.42,152.3 113.42,151.97C113.42,151.63 113.42,151.29 113.42,150.95C113.42,150.6 113.42,150.25 113.42,149.89C113.42,149.53 113.42,149.16 113.42,148.8C113.42,148.43 113.42,148.07 113.42,147.7C113.42,147.33 113.42,146.96 113.42,146.58C113.42,146.2 113.42,145.81 113.42,145.43C113.42,145.04 113.42,144.65 113.42,144.26C113.42,143.86 113.43,143.46 113.43,143.06C113.43,142.66 113.43,142.25 113.43,141.85C113.43,141.45 113.43,141.04 113.43,140.64C113.43,140.24 113.43,139.85 113.43,139.46C113.43,139.08 113.43,138.7 113.43,138.33C113.43,137.96 113.43,137.6 113.43,137.24C113.43,136.88 113.43,136.53 113.43,136.18C113.43,135.83 113.43,135.49 113.43,135.14C113.43,134.8 113.43,134.45 113.43,134.11C113.43,133.78 113.43,133.45 113.43,133.13C113.43,132.83 113.43,132.53 113.43,132.26C113.43,132.01 113.44,131.77 113.44,131.56C113.44,131.39 113.44,131.22 113.44,131.1C113.44,131.02 113.44,130.9 113.44,130.9C113.44,130.9 113.44,130.93 113.44,130.96C113.44,131.02 113.44,131.14 113.44,131.24C113.44,131.37 113.44,131.52 113.44,131.68C113.44,131.86 113.44,132.05 113.44,132.24C113.44,132.44 113.44,132.66 113.44,132.87C113.44,133.09 113.44,133.31 113.44,133.53C113.44,133.75 113.44,133.98 113.44,134.2C113.44,134.43 113.44,134.66 113.44,134.89C113.44,135.13 113.44,135.37 113.44,135.62C113.44,135.88 113.45,136.13 113.45,136.4C113.45,136.68 113.45,136.98 113.45,137.27C113.45,137.57 113.45,137.89 113.45,138.2C113.45,138.52 113.45,138.85 113.45,139.18C113.45,139.51 113.45,139.83 113.45,140.16C113.45,140.48 113.45,140.81 113.45,141.13C113.45,141.45 113.45,141.76 113.45,142.08C113.45,142.4 113.45,142.71 113.45,143.03C113.45,143.36 113.45,143.7 113.45,144.04C113.45,144.39 113.45,144.75 113.45,145.12C113.45,145.5 113.45,145.9 113.45,146.29C113.45,146.69 113.45,147.09 113.45,147.49C113.45,147.89 113.46,148.29 113.46,148.68C113.46,149.06 113.46,149.44 113.46,149.81C113.46,150.16 113.46,150.5 113.46,150.84C113.46,151.16 113.46,151.47 113.46,151.78C113.46,152.08 113.46,152.37 113.46,152.66C113.46,152.94 113.46,153.22 113.46,153.5C113.46,153.77 113.46,154.04 113.46,154.3C113.46,154.56 113.46,154.81 113.46,155.06C113.46,155.3 113.46,155.53 113.46,155.76C113.46,155.97 113.46,156.18 113.46,156.38C113.46,156.57 113.46,156.76 113.46,156.94C113.46,157.11 113.47,157.27 113.47,157.43C113.47,157.58 113.47,157.73 113.47,157.87C113.47,158.01 113.47,158.15 113.47,158.28C113.47,158.4 113.47,158.52 113.47,158.64C113.47,158.75 113.47,158.87 113.47,158.98C113.47,159.08 113.47,159.17 113.47,159.27C113.47,159.36 113.47,159.46 113.47,159.55C113.47,159.64 113.47,159.72 113.47,159.8C113.47,159.88 113.47,159.96 113.47,160.03C113.47,160.1 113.47,160.17 113.47,160.24C113.47,160.3 113.47,160.36 113.47,160.42C113.47,160.48 113.47,160.54 113.47,160.59C113.47,160.64 113.48,160.69 113.48,160.74C113.48,160.79 113.48,160.84 113.48,160.88C113.48,160.92 113.48,160.96 113.48,161C113.48,161.04 113.48,161.08 113.48,161.12C113.48,161.15 113.48,161.18 113.48,161.21C113.48,161.23 113.48,161.26 113.48,161.28C113.48,161.3 113.48,161.32 113.48,161.33C113.48,161.34 113.48,161.34 113.48,161.35C113.48,161.35 113.48,161.36 113.48,161.36C113.48,161.36 113.48,161.36 113.48,161.36C113.48,161.36 113.48,161.37 113.48,161.37C113.48,161.37 113.49,161.37 113.49,161.37C113.49,161.37 113.49,161.38 113.49,161.39C113.49,161.4 113.49,161.4 113.49,161.41C113.49,161.42 113.49,161.43 113.49,161.44C113.49,161.45 113.49,161.45 113.49,161.46C113.49,161.47 113.49,161.47 113.49,161.48Q113.49,161.48 113.49,161.49L113.49,161.5" style="vector-effect: non-scaling-stroke; stroke-width: 2px; stroke: rgb(102, 194, 164); stroke-opacity: 1; fill: rgb(102, 194, 164); fill-opacity: 0.5;"/><path class="meanline" d="M113.44,130.9034881591797V161.5" style="fill: none; vector-effect: non-scaling-stroke; stroke-width: 2px; stroke-dasharray: 4px, 2px; stroke: rgb(102, 194, 164); stroke-opacity: 1;"/></g><g class="trace violins" style="opacity: 1;"><path class="violin" d="M1.76,130.9L1.76,130.89Q1.77,130.88 1.77,130.88C1.77,130.88 1.77,130.87 1.77,130.87C1.77,130.86 1.78,130.85 1.78,130.84C1.78,130.83 1.78,130.81 1.78,130.8C1.78,130.78 1.78,130.77 1.78,130.75C1.78,130.73 1.79,130.71 1.79,130.69C1.79,130.66 1.79,130.63 1.79,130.6C1.79,130.57 1.8,130.53 1.8,130.5C1.8,130.46 1.8,130.42 1.8,130.38C1.8,130.34 1.8,130.29 1.8,130.24C1.8,130.19 1.81,130.14 1.81,130.08C1.81,130.02 1.81,129.95 1.81,129.89C1.81,129.82 1.82,129.75 1.82,129.68C1.82,129.61 1.82,129.53 1.82,129.46C1.82,129.38 1.82,129.31 1.82,129.23C1.82,129.15 1.83,129.08 1.83,129C1.83,128.92 1.83,128.84 1.83,128.76C1.83,128.67 1.83,128.58 1.83,128.49C1.83,128.39 1.84,128.28 1.84,128.17C1.84,128.04 1.84,127.91 1.84,127.77C1.84,127.61 1.85,127.45 1.85,127.27C1.85,127.07 1.85,126.86 1.85,126.64C1.85,126.4 1.85,126.14 1.85,125.88C1.85,125.6 1.86,125.31 1.86,125.01C1.86,124.69 1.86,124.36 1.86,124.02C1.86,123.67 1.87,123.32 1.87,122.96C1.87,122.59 1.87,122.22 1.87,121.84C1.87,121.46 1.87,121.07 1.87,120.69C1.87,120.31 1.88,119.93 1.88,119.56C1.88,119.19 1.88,118.82 1.88,118.46C1.88,118.11 1.89,117.76 1.89,117.41C1.89,117.07 1.89,116.73 1.89,116.39C1.89,116.05 1.89,115.71 1.89,115.37C1.89,115.02 1.9,114.68 1.9,114.32C1.9,113.95 1.9,113.57 1.9,113.19C1.9,112.8 1.91,112.39 1.91,111.99C1.91,111.58 1.91,111.15 1.91,110.73C1.91,110.31 1.91,109.88 1.91,109.46C1.91,109.04 1.92,108.61 1.92,108.2C1.92,107.8 1.92,107.39 1.92,107C1.92,106.62 1.92,106.25 1.92,105.88C1.92,105.52 1.93,105.17 1.93,104.83C1.93,104.5 1.93,104.18 1.93,103.86C1.93,103.56 1.94,103.26 1.94,102.97C1.94,102.7 1.94,102.44 1.94,102.19C1.94,101.96 1.94,101.74 1.94,101.53C1.94,101.35 1.95,101.17 1.95,101.01C1.95,100.87 1.95,100.74 1.95,100.63C1.95,100.54 1.96,100.46 1.96,100.4C1.96,100.36 1.96,100.3 1.96,100.3C1.96,100.3 1.96,100.31 1.96,100.32C1.96,100.35 1.97,100.41 1.97,100.46C1.97,100.54 1.97,100.63 1.97,100.73C1.97,100.85 1.98,100.98 1.98,101.11C1.98,101.26 1.98,101.42 1.98,101.58C1.98,101.75 1.98,101.93 1.98,102.1C1.98,102.28 1.99,102.46 1.99,102.64C1.99,102.81 1.99,102.98 1.99,103.16C1.99,103.35 2,103.53 2,103.73C2,103.95 2,104.17 2,104.41C2,104.68 2,104.97 2,105.27C2,105.61 2.01,105.99 2.01,106.37C2.01,106.79 2.01,107.23 2.01,107.68C2.01,108.15 2.02,108.65 2.02,109.14C2.02,109.65 2.02,110.17 2.02,110.68C2.02,111.2 2.02,111.72 2.02,112.24C2.02,112.75 2.03,113.26 2.03,113.77C2.03,114.27 2.03,114.77 2.03,115.25C2.03,115.72 2.03,116.18 2.03,116.63C2.03,117.06 2.04,117.49 2.04,117.9C2.04,118.29 2.04,118.66 2.04,119.03C2.04,119.37 2.05,119.71 2.05,120.03C2.05,120.34 2.05,120.63 2.05,120.92C2.05,121.2 2.05,121.47 2.05,121.74C2.05,122 2.06,122.26 2.06,122.51C2.06,122.76 2.06,123 2.06,123.24C2.06,123.47 2.07,123.7 2.07,123.92C2.07,124.13 2.07,124.34 2.07,124.55C2.07,124.75 2.07,124.94 2.07,125.13C2.07,125.31 2.08,125.47 2.08,125.64C2.08,125.8 2.08,125.95 2.08,126.1C2.08,126.25 2.09,126.4 2.09,126.54C2.09,126.68 2.09,126.82 2.09,126.96C2.09,127.1 2.09,127.24 2.09,127.37C2.09,127.5 2.1,127.63 2.1,127.76C2.1,127.88 2.1,128 2.1,128.12C2.1,128.23 2.11,128.34 2.11,128.45C2.11,128.55 2.11,128.64 2.11,128.73C2.11,128.82 2.11,128.9 2.11,128.98C2.11,129.05 2.12,129.12 2.12,129.19C2.12,129.25 2.12,129.31 2.12,129.37C2.12,129.43 2.12,129.49 2.12,129.54C2.12,129.59 2.13,129.64 2.13,129.69C2.13,129.73 2.13,129.77 2.13,129.81C2.13,129.85 2.14,129.89 2.14,129.92C2.14,129.95 2.14,129.98 2.14,130.01C2.14,130.03 2.14,130.06 2.14,130.08C2.14,130.1 2.15,130.12 2.15,130.14C2.15,130.16 2.15,130.18 2.15,130.2C2.15,130.22 2.16,130.24 2.16,130.26C2.16,130.28 2.16,130.31 2.16,130.34C2.16,130.37 2.16,130.39 2.16,130.42C2.16,130.45 2.17,130.48 2.17,130.51C2.17,130.54 2.17,130.57 2.17,130.6C2.17,130.62 2.18,130.65 2.18,130.67C2.18,130.69 2.18,130.72 2.18,130.74C2.18,130.76 2.18,130.78 2.18,130.79C2.18,130.8 2.19,130.81 2.19,130.82C2.19,130.83 2.19,130.84 2.19,130.85C2.19,130.86 2.2,130.86 2.2,130.87C2.2,130.87 2.2,130.88 2.2,130.88C2.2,130.88 2.2,130.89 2.2,130.89Q2.2,130.89 2.21,130.89L2.21,130.9" style="vector-effect: non-scaling-stroke; stroke-width: 2px; stroke: rgb(102, 194, 164); stroke-opacity: 1; fill: rgb(102, 194, 164); fill-opacity: 0.5;"/><path class="meanline" d="M1.97,100.78382873535156V130.9" style="fill: none; vector-effect: non-scaling-stroke; stroke-width: 2px; stroke-dasharray: 4px, 2px; stroke: rgb(102, 194, 164); stroke-opacity: 1;"/></g><g class="trace violins" style="opacity: 1;"><path class="violin" d="M112.77,100.3L112.77,100.29Q112.77,100.29 112.77,100.29C112.77,100.29 112.77,100.28 112.77,100.28C112.77,100.28 112.77,100.28 112.77,100.28C112.77,100.28 112.78,100.27 112.78,100.27C112.78,100.27 112.78,100.26 112.78,100.26C112.78,100.26 112.78,100.26 112.78,100.26C112.78,100.26 112.78,100.26 112.78,100.26C112.78,100.26 112.78,100.25 112.78,100.25C112.78,100.25 112.79,100.25 112.79,100.25C112.79,100.25 112.79,100.25 112.79,100.25C112.79,100.25 112.79,100.24 112.79,100.23C112.79,100.22 112.79,100.22 112.79,100.21C112.79,100.2 112.8,100.2 112.8,100.19C112.8,100.18 112.8,100.16 112.8,100.15C112.8,100.13 112.8,100.12 112.8,100.1C112.8,100.08 112.8,100.05 112.8,100.03C112.8,100 112.81,99.98 112.81,99.95C112.81,99.92 112.81,99.88 112.81,99.85C112.81,99.81 112.81,99.78 112.81,99.74C112.81,99.7 112.81,99.66 112.81,99.62C112.81,99.58 112.82,99.54 112.82,99.5C112.82,99.46 112.82,99.42 112.82,99.38C112.82,99.34 112.82,99.3 112.82,99.26C112.82,99.22 112.82,99.18 112.82,99.14C112.82,99.1 112.83,99.06 112.83,99.01C112.83,98.95 112.83,98.89 112.83,98.83C112.83,98.76 112.83,98.68 112.83,98.6C112.83,98.51 112.83,98.41 112.83,98.31C112.83,98.19 112.84,98.07 112.84,97.94C112.84,97.8 112.84,97.64 112.84,97.49C112.84,97.33 112.84,97.16 112.84,96.98C112.84,96.79 112.84,96.59 112.84,96.38C112.84,96.16 112.85,95.93 112.85,95.7C112.85,95.45 112.85,95.2 112.85,94.94C112.85,94.67 112.85,94.39 112.85,94.1C112.85,93.8 112.85,93.49 112.85,93.19C112.85,92.88 112.86,92.58 112.86,92.27C112.86,91.96 112.86,91.65 112.86,91.34C112.86,91.04 112.86,90.73 112.86,90.43C112.86,90.12 112.86,89.81 112.86,89.5C112.86,89.18 112.87,88.85 112.87,88.52C112.87,88.17 112.87,87.82 112.87,87.45C112.87,87.07 112.87,86.67 112.87,86.27C112.87,85.85 112.87,85.41 112.87,84.97C112.87,84.52 112.88,84.06 112.88,83.6C112.88,83.14 112.88,82.67 112.88,82.22C112.88,81.78 112.88,81.33 112.88,80.9C112.88,80.48 112.88,80.07 112.88,79.67C112.88,79.28 112.89,78.9 112.89,78.53C112.89,78.17 112.89,77.81 112.89,77.46C112.89,77.11 112.89,76.77 112.89,76.42C112.89,76.07 112.89,75.73 112.89,75.38C112.89,75.03 112.89,74.69 112.89,74.34C112.89,74 112.9,73.65 112.9,73.31C112.9,72.98 112.9,72.65 112.9,72.33C112.9,72.03 112.9,71.73 112.9,71.45C112.9,71.19 112.9,70.94 112.9,70.71C112.9,70.51 112.91,70.32 112.91,70.16C112.91,70.04 112.91,69.91 112.91,69.83C112.91,69.78 112.91,69.7 112.91,69.7C112.91,69.7 112.91,69.73 112.91,69.75C112.91,69.79 112.92,69.87 112.92,69.94C112.92,70.02 112.92,70.12 112.92,70.22C112.92,70.33 112.92,70.44 112.92,70.55C112.92,70.67 112.92,70.8 112.92,70.92C112.92,71.05 112.93,71.17 112.93,71.3C112.93,71.42 112.93,71.55 112.93,71.67C112.93,71.78 112.93,71.89 112.93,71.99C112.93,72.09 112.93,72.18 112.93,72.28C112.93,72.38 112.94,72.47 112.94,72.58C112.94,72.7 112.94,72.82 112.94,72.95C112.94,73.11 112.94,73.29 112.94,73.48C112.94,73.7 112.94,73.95 112.94,74.21C112.94,74.5 112.95,74.82 112.95,75.15C112.95,75.51 112.95,75.9 112.95,76.29C112.95,76.7 112.95,77.13 112.95,77.56C112.95,78.01 112.95,78.47 112.95,78.93C112.95,79.4 112.96,79.88 112.96,80.35C112.96,80.83 112.96,81.31 112.96,81.79C112.96,82.26 112.96,82.73 112.96,83.2C112.96,83.66 112.96,84.12 112.96,84.57C112.96,85.01 112.97,85.44 112.97,85.87C112.97,86.28 112.97,86.68 112.97,87.08C112.97,87.46 112.97,87.84 112.97,88.2C112.97,88.55 112.97,88.88 112.97,89.21C112.97,89.52 112.98,89.83 112.98,90.12C112.98,90.4 112.98,90.67 112.98,90.93C112.98,91.18 112.98,91.43 112.98,91.67C112.98,91.91 112.98,92.14 112.98,92.37C112.98,92.6 112.99,92.83 112.99,93.06C112.99,93.3 112.99,93.54 112.99,93.79C112.99,94.04 112.99,94.3 112.99,94.56C112.99,94.82 112.99,95.09 112.99,95.36C112.99,95.63 112.99,95.9 112.99,96.16C112.99,96.42 113,96.68 113,96.92C113,97.15 113,97.37 113,97.58C113,97.77 113,97.95 113,98.12C113,98.27 113,98.4 113,98.53C113,98.64 113.01,98.74 113.01,98.83C113.01,98.91 113.01,98.97 113.01,99.04C113.01,99.1 113.01,99.16 113.01,99.21C113.01,99.26 113.01,99.3 113.01,99.35C113.01,99.39 113.02,99.44 113.02,99.48C113.02,99.52 113.02,99.56 113.02,99.6C113.02,99.64 113.02,99.67 113.02,99.71C113.02,99.74 113.02,99.78 113.02,99.81C113.02,99.84 113.03,99.86 113.03,99.88C113.03,99.9 113.03,99.93 113.03,99.95C113.03,99.97 113.03,99.98 113.03,100C113.03,100.02 113.03,100.03 113.03,100.05C113.03,100.06 113.04,100.08 113.04,100.09C113.04,100.1 113.04,100.12 113.04,100.13C113.04,100.14 113.04,100.14 113.04,100.15C113.04,100.16 113.04,100.16 113.04,100.17C113.04,100.18 113.05,100.18 113.05,100.19C113.05,100.19 113.05,100.2 113.05,100.2C113.05,100.2 113.05,100.2 113.05,100.2C113.05,100.2 113.05,100.21 113.05,100.21C113.05,100.21 113.06,100.22 113.06,100.22C113.06,100.22 113.06,100.23 113.06,100.23C113.06,100.23 113.06,100.24 113.06,100.24C113.06,100.25 113.06,100.25 113.06,100.26C113.06,100.26 113.07,100.27 113.07,100.27C113.07,100.27 113.07,100.28 113.07,100.28C113.07,100.28 113.07,100.29 113.07,100.29Q113.07,100.29 113.07,100.29L113.07,100.3" style="vector-effect: non-scaling-stroke; stroke-width: 2px; stroke: rgb(102, 194, 164); stroke-opacity: 1; fill: rgb(102, 194, 164); fill-opacity: 0.5;"/><path class="meanline" d="M112.92,70.65434265136719V100.3" style="fill: none; vector-effect: non-scaling-stroke; stroke-width: 2px; stroke-dasharray: 4px, 2px; stroke: rgb(102, 194, 164); stroke-opacity: 1;"/></g><g class="trace violins" style="opacity: 1;"><path class="violin" d="M112.97,69.7L112.97,69.69Q112.97,69.69 112.97,69.69C112.97,69.69 112.97,69.68 112.97,69.68C112.97,69.68 112.97,69.68 112.97,69.68C112.97,69.68 112.97,69.67 112.97,69.67C112.97,69.67 112.98,69.66 112.98,69.66C112.98,69.66 112.98,69.66 112.98,69.66C112.98,69.66 112.98,69.66 112.98,69.66C112.98,69.66 112.98,69.66 112.98,69.66C112.98,69.66 112.98,69.65 112.98,69.65C112.98,69.65 112.98,69.64 112.98,69.64C112.98,69.63 112.99,69.62 112.99,69.61C112.99,69.6 112.99,69.58 112.99,69.57C112.99,69.55 112.99,69.54 112.99,69.52C112.99,69.5 112.99,69.48 112.99,69.46C112.99,69.44 112.99,69.41 112.99,69.39C112.99,69.37 112.99,69.34 112.99,69.32C112.99,69.3 113,69.28 113,69.26C113,69.24 113,69.21 113,69.19C113,69.17 113,69.16 113,69.14C113,69.12 113,69.1 113,69.08C113,69.06 113,69.04 113,69.02C113,69 113.01,68.98 113.01,68.96C113.01,68.93 113.01,68.9 113.01,68.87C113.01,68.83 113.01,68.79 113.01,68.75C113.01,68.7 113.01,68.65 113.01,68.59C113.01,68.53 113.01,68.46 113.01,68.4C113.01,68.33 113.01,68.26 113.01,68.19C113.01,68.11 113.02,68.03 113.02,67.95C113.02,67.87 113.02,67.79 113.02,67.7C113.02,67.61 113.02,67.52 113.02,67.42C113.02,67.32 113.02,67.22 113.02,67.11C113.02,67 113.02,66.88 113.02,66.76C113.02,66.63 113.02,66.49 113.02,66.35C113.02,66.2 113.03,66.04 113.03,65.88C113.03,65.71 113.03,65.54 113.03,65.36C113.03,65.17 113.03,64.98 113.03,64.78C113.03,64.57 113.03,64.36 113.03,64.15C113.03,63.93 113.03,63.7 113.03,63.47C113.03,63.23 113.03,62.99 113.03,62.74C113.03,62.48 113.04,62.22 113.04,61.96C113.04,61.69 113.04,61.42 113.04,61.15C113.04,60.87 113.04,60.59 113.04,60.31C113.04,60.03 113.04,59.74 113.04,59.46C113.04,59.17 113.04,58.88 113.04,58.59C113.04,58.3 113.04,58 113.04,57.7C113.04,57.39 113.05,57.07 113.05,56.75C113.05,56.42 113.05,56.08 113.05,55.73C113.05,55.37 113.05,55 113.05,54.63C113.05,54.24 113.05,53.85 113.05,53.45C113.05,53.04 113.05,52.62 113.05,52.2C113.05,51.77 113.05,51.34 113.05,50.91C113.05,50.47 113.06,50.03 113.06,49.59C113.06,49.16 113.06,48.73 113.06,48.3C113.06,47.88 113.06,47.45 113.06,47.03C113.06,46.62 113.06,46.22 113.06,45.82C113.06,45.43 113.06,45.05 113.06,44.67C113.06,44.31 113.06,43.95 113.06,43.6C113.06,43.27 113.07,42.94 113.07,42.62C113.07,42.32 113.07,42.03 113.07,41.74C113.07,41.47 113.07,41.2 113.07,40.95C113.07,40.72 113.07,40.49 113.07,40.28C113.07,40.08 113.07,39.89 113.07,39.72C113.07,39.57 113.07,39.42 113.07,39.31C113.07,39.23 113.08,39.1 113.08,39.1C113.08,39.1 113.08,39.1 113.08,39.1C113.08,39.1 113.08,39.24 113.08,39.32C113.08,39.44 113.08,39.58 113.08,39.73C113.08,39.9 113.08,40.08 113.08,40.26C113.08,40.45 113.09,40.65 113.09,40.85C113.09,41.05 113.09,41.26 113.09,41.47C113.09,41.68 113.09,41.88 113.09,42.09C113.09,42.3 113.09,42.51 113.09,42.73C113.09,42.96 113.09,43.19 113.09,43.43C113.09,43.69 113.09,43.95 113.09,44.23C113.09,44.53 113.1,44.85 113.1,45.18C113.1,45.53 113.1,45.9 113.1,46.27C113.1,46.66 113.1,47.07 113.1,47.47C113.1,47.88 113.1,48.31 113.1,48.73C113.1,49.15 113.1,49.58 113.1,50C113.1,50.42 113.1,50.84 113.1,51.25C113.1,51.65 113.11,52.05 113.11,52.44C113.11,52.82 113.11,53.19 113.11,53.56C113.11,53.91 113.11,54.26 113.11,54.6C113.11,54.93 113.11,55.25 113.11,55.57C113.11,55.88 113.11,56.19 113.11,56.49C113.11,56.79 113.11,57.08 113.11,57.38C113.11,57.68 113.12,57.97 113.12,58.27C113.12,58.56 113.12,58.86 113.12,59.15C113.12,59.44 113.12,59.73 113.12,60.02C113.12,60.3 113.12,60.59 113.12,60.87C113.12,61.15 113.12,61.43 113.12,61.7C113.12,61.97 113.12,62.24 113.12,62.51C113.12,62.78 113.13,63.04 113.13,63.31C113.13,63.57 113.13,63.84 113.13,64.1C113.13,64.36 113.13,64.62 113.13,64.87C113.13,65.11 113.13,65.36 113.13,65.59C113.13,65.81 113.13,66.03 113.13,66.24C113.13,66.43 113.13,66.62 113.13,66.8C113.13,66.96 113.14,67.11 113.14,67.26C113.14,67.39 113.14,67.51 113.14,67.63C113.14,67.73 113.14,67.83 113.14,67.92C113.14,68 113.14,68.08 113.14,68.16C113.14,68.23 113.14,68.29 113.14,68.36C113.14,68.42 113.14,68.49 113.14,68.55C113.14,68.61 113.15,68.67 113.15,68.73C113.15,68.78 113.15,68.84 113.15,68.89C113.15,68.94 113.15,68.99 113.15,69.04C113.15,69.08 113.15,69.13 113.15,69.17C113.15,69.21 113.15,69.24 113.15,69.27C113.15,69.3 113.15,69.32 113.15,69.35C113.15,69.37 113.16,69.4 113.16,69.42C113.16,69.44 113.16,69.46 113.16,69.47C113.16,69.48 113.16,69.49 113.16,69.5C113.16,69.51 113.16,69.52 113.16,69.53C113.16,69.54 113.16,69.54 113.16,69.55C113.16,69.55 113.17,69.56 113.17,69.56C113.17,69.57 113.17,69.57 113.17,69.58C113.17,69.58 113.17,69.59 113.17,69.59C113.17,69.59 113.17,69.6 113.17,69.6C113.17,69.61 113.17,69.61 113.17,69.62C113.17,69.62 113.17,69.63 113.17,69.63C113.17,69.64 113.18,69.64 113.18,69.65C113.18,69.66 113.18,69.66 113.18,69.67C113.18,69.67 113.18,69.68 113.18,69.68Q113.18,69.68 113.18,69.69L113.18,69.7" style="vector-effect: non-scaling-stroke; stroke-width: 2px; stroke: rgb(102, 194, 164); stroke-opacity: 1; fill: rgb(102, 194, 164); fill-opacity: 0.5;"/><path class="meanline" d="M113.08,39.10001754760742V69.7" style="fill: none; vector-effect: non-scaling-stroke; stroke-width: 2px; stroke-dasharray: 4px, 2px; stroke: rgb(102, 194, 164); stroke-opacity: 1;"/></g><g class="trace violins" style="opacity: 1;"><path class="violin" d="M112.68,39.1L112.68,39.09Q112.68,39.09 112.68,39.09C112.68,39.09 112.69,39.08 112.69,39.08C112.69,39.08 112.69,39.08 112.69,39.08C112.69,39.08 112.69,39.07 112.69,39.07C112.69,39.07 112.7,39.06 112.7,39.06C112.7,39.06 112.7,39.06 112.7,39.06C112.7,39.06 112.71,39.06 112.71,39.06C112.71,39.06 112.71,39.06 112.71,39.06C112.71,39.06 112.71,39.06 112.71,39.06C112.71,39.06 112.72,39.06 112.72,39.06C112.72,39.06 112.72,39.05 112.72,39.05C112.72,39.05 112.73,39.05 112.73,39.05C112.73,39.05 112.73,39.05 112.73,39.05C112.73,39.05 112.74,39.05 112.74,39.05C112.74,39.05 112.74,39.05 112.74,39.05C112.74,39.05 112.74,39.05 112.74,39.05C112.74,39.05 112.75,39.05 112.75,39.05C112.75,39.05 112.75,39.05 112.75,39.05C112.75,39.05 112.76,39.05 112.76,39.05C112.76,39.05 112.76,39.05 112.76,39.05C112.76,39.05 112.76,39.05 112.76,39.05C112.76,39.05 112.77,39.04 112.77,39.04C112.77,39.03 112.77,39.02 112.77,39.01C112.77,38.99 112.78,38.97 112.78,38.95C112.78,38.93 112.78,38.9 112.78,38.87C112.78,38.84 112.79,38.81 112.79,38.77C112.79,38.73 112.79,38.68 112.79,38.64C112.79,38.6 112.79,38.55 112.79,38.51C112.79,38.47 112.8,38.42 112.8,38.38C112.8,38.34 112.8,38.3 112.8,38.26C112.8,38.22 112.81,38.19 112.81,38.15C112.81,38.11 112.81,38.07 112.81,38.03C112.81,37.98 112.81,37.93 112.81,37.88C112.81,37.82 112.82,37.75 112.82,37.67C112.82,37.58 112.82,37.47 112.82,37.36C112.82,37.23 112.83,37.1 112.83,36.95C112.83,36.78 112.83,36.6 112.83,36.41C112.83,36.21 112.84,35.99 112.84,35.77C112.84,35.54 112.84,35.3 112.84,35.06C112.84,34.81 112.84,34.56 112.84,34.31C112.84,34.07 112.85,33.83 112.85,33.6C112.85,33.38 112.85,33.15 112.85,32.94C112.85,32.74 112.86,32.54 112.86,32.35C112.86,32.16 112.86,31.98 112.86,31.79C112.86,31.6 112.86,31.4 112.86,31.2C112.86,30.98 112.87,30.76 112.87,30.53C112.87,30.28 112.87,30.01 112.87,29.73C112.87,29.43 112.88,29.11 112.88,28.78C112.88,28.43 112.88,28.06 112.88,27.69C112.88,27.29 112.89,26.88 112.89,26.47C112.89,26.04 112.89,25.59 112.89,25.15C112.89,24.7 112.89,24.23 112.89,23.77C112.89,23.31 112.9,22.83 112.9,22.37C112.9,21.92 112.9,21.46 112.9,21.02C112.9,20.59 112.91,20.16 112.91,19.74C112.91,19.35 112.91,18.96 112.91,18.59C112.91,18.23 112.91,17.89 112.91,17.55C112.91,17.23 112.92,16.91 112.92,16.6C112.92,16.3 112.92,16 112.92,15.7C112.92,15.4 112.93,15.1 112.93,14.79C112.93,14.48 112.93,14.16 112.93,13.85C112.93,13.53 112.94,13.22 112.94,12.9C112.94,12.58 112.94,12.26 112.94,11.95C112.94,11.64 112.94,11.34 112.94,11.04C112.94,10.76 112.95,10.48 112.95,10.22C112.95,9.98 112.95,9.74 112.95,9.53C112.95,9.35 112.96,9.17 112.96,9.02C112.96,8.9 112.96,8.78 112.96,8.69C112.96,8.63 112.95,8.56 112.96,8.53C112.96,8.52 112.97,8.5 112.97,8.5C112.97,8.5 112.97,8.54 112.97,8.57C112.97,8.61 112.98,8.65 112.98,8.7C112.98,8.76 112.98,8.83 112.98,8.91C112.98,9 112.99,9.1 112.99,9.21C112.99,9.34 112.99,9.47 112.99,9.62C112.99,9.79 112.99,9.96 112.99,10.15C112.99,10.36 113,10.58 113,10.81C113,11.05 113,11.3 113,11.55C113,11.81 113.01,12.09 113.01,12.36C113.01,12.64 113.01,12.92 113.01,13.21C113.01,13.51 113.01,13.8 113.01,14.11C113.01,14.43 113.02,14.77 113.02,15.11C113.02,15.48 113.02,15.86 113.02,16.25C113.02,16.66 113.03,17.09 113.03,17.52C113.03,17.97 113.03,18.44 113.03,18.9C113.03,19.37 113.04,19.85 113.04,20.32C113.04,20.78 113.04,21.24 113.04,21.68C113.04,22.11 113.04,22.53 113.04,22.94C113.04,23.33 113.05,23.71 113.05,24.08C113.05,24.44 113.05,24.8 113.05,25.15C113.05,25.49 113.06,25.83 113.06,26.17C113.06,26.51 113.06,26.84 113.06,27.18C113.06,27.52 113.06,27.86 113.06,28.19C113.06,28.52 113.07,28.85 113.07,29.17C113.07,29.49 113.07,29.8 113.07,30.11C113.07,30.41 113.08,30.71 113.08,31.01C113.08,31.3 113.08,31.59 113.08,31.87C113.08,32.15 113.09,32.43 113.09,32.71C113.09,32.98 113.09,33.26 113.09,33.53C113.09,33.8 113.09,34.06 113.09,34.32C113.09,34.57 113.1,34.83 113.1,35.07C113.1,35.3 113.1,35.52 113.1,35.73C113.1,35.92 113.11,36.11 113.11,36.29C113.11,36.45 113.11,36.6 113.11,36.74C113.11,36.87 113.11,36.99 113.11,37.1C113.11,37.2 113.12,37.29 113.12,37.38C113.12,37.46 113.12,37.53 113.12,37.6C113.12,37.66 113.13,37.72 113.13,37.78C113.13,37.83 113.13,37.89 113.13,37.94C113.13,37.99 113.14,38.03 113.14,38.08C113.14,38.12 113.14,38.17 113.14,38.21C113.14,38.25 113.14,38.29 113.14,38.33C113.14,38.37 113.15,38.4 113.15,38.44C113.15,38.48 113.15,38.51 113.15,38.55C113.15,38.58 113.16,38.62 113.16,38.65C113.16,38.68 113.16,38.71 113.16,38.74C113.16,38.76 113.16,38.79 113.16,38.81C113.16,38.83 113.17,38.86 113.17,38.88C113.17,38.9 113.17,38.91 113.17,38.93C113.17,38.94 113.18,38.96 113.18,38.97C113.18,38.98 113.18,39 113.18,39.01C113.18,39.02 113.19,39.02 113.19,39.03C113.19,39.04 113.19,39.05 113.19,39.05C113.19,39.05 113.19,39.05 113.19,39.05C113.19,39.05 113.2,39.06 113.2,39.06C113.2,39.06 113.2,39.06 113.2,39.06C113.2,39.06 113.21,39.06 113.21,39.06C113.21,39.06 113.21,39.06 113.21,39.06C113.21,39.06 113.21,39.07 113.21,39.07C113.21,39.07 113.22,39.08 113.22,39.08C113.22,39.08 113.22,39.08 113.22,39.08C113.22,39.08 113.23,39.09 113.23,39.09Q113.23,39.09 113.23,39.09L113.23,39.1" style="vector-effect: non-scaling-stroke; stroke-width: 2px; stroke: rgb(102, 194, 164); stroke-opacity: 1; fill: rgb(102, 194, 164); fill-opacity: 0.5;"/><path class="meanline" d="M112.97,8.536172866821289V39.1" style="fill: none; vector-effect: non-scaling-stroke; stroke-width: 2px; stroke-dasharray: 4px, 2px; stroke: rgb(102, 194, 164); stroke-opacity: 1;"/></g></g></g><g class="overplot"/><path class="xlines-above crisp" d="M0,0" style="fill: none;"/><path class="ylines-above crisp" d="M0,0" style="fill: none;"/><g class="overlines-above"/><g class="xaxislayer-above"><g class="xtick"><text text-anchor="start" x="0" y="203" transform="translate(20,0) rotate(90,0,197)" style="font-family: 'Open Sans', verdana, arial, sans-serif; font-size: 12px; fill: rgb(68, 68, 68); fill-opacity: 1; white-space: pre;">−1</text></g><g class="xtick"><text text-anchor="start" x="0" y="203" transform="translate(48.25,0) rotate(90,0,197)" style="font-family: 'Open Sans', verdana, arial, sans-serif; font-size: 12px; fill: rgb(68, 68, 68); fill-opacity: 1; white-space: pre;">−0.75</text></g><g class="xtick"><text text-anchor="start" x="0" y="203" transform="translate(76.5,0) rotate(90,0,197)" style="font-family: 'Open Sans', verdana, arial, sans-serif; font-size: 12px; fill: rgb(68, 68, 68); fill-opacity: 1; white-space: pre;">−0.5</text></g><g class="xtick"><text text-anchor="start" x="0" y="203" transform="translate(104.75,0) rotate(90,0,197)" style="font-family: 'Open Sans', verdana, arial, sans-serif; font-size: 12px; fill: rgb(68, 68, 68); fill-opacity: 1; white-space: pre;">−0.25</text></g><g class="xtick"><text text-anchor="start" x="0" y="203" transform="translate(133,0) rotate(90,0,197)" style="font-family: 'Open Sans', verdana, arial, sans-serif; font-size: 12px; fill: rgb(68, 68, 68); fill-opacity: 1; white-space: pre;">0</text></g><g class="xtick"><text text-anchor="start" x="0" y="203" transform="translate(161.25,0) rotate(90,0,197)" style="font-family: 'Open Sans', verdana, arial, sans-serif; font-size: 12px; fill: rgb(68, 68, 68); fill-opacity: 1; white-space: pre;">0.25</text></g><g class="xtick"><text text-anchor="start" x="0" y="203" transform="translate(189.5,0) rotate(90,0,197)" style="font-family: 'Open Sans', verdana, arial, sans-serif; font-size: 12px; fill: rgb(68, 68, 68); fill-opacity: 1; white-space: pre;">0.5</text></g><g class="xtick"><text text-anchor="start" x="0" y="203" transform="translate(217.75,0) rotate(90,0,197)" style="font-family: 'Open Sans', verdana, arial, sans-serif; font-size: 12px; fill: rgb(68, 68, 68); fill-opacity: 1; white-space: pre;">0.75</text></g><g class="xtick"><text text-anchor="start" x="0" y="203" transform="translate(246,0) rotate(90,0,197)" style="font-family: 'Open Sans', verdana, arial, sans-serif; font-size: 12px; fill: rgb(68, 68, 68); fill-opacity: 1; white-space: pre;">1</text></g></g><g class="yaxislayer-above"/><g class="overaxes-above"/></g></g><g class="polarlayer"/><g class="ternarylayer"/><g class="geolayer"/><g class="funnelarealayer"/><g class="pielayer"/><g class="treemaplayer"/><g class="sunburstlayer"/><g class="glimages"/><defs id="topdefs-71d78a"><g class="clips"/></defs><g class="layer-above"><g class="imagelayer"/><g class="shapelayer"><path data-index="0" fill-rule="evenodd" d="M121.7,181.5L121.7,28.5" clip-path="url('#clip71d78axy')" style="opacity: 1; stroke: rgb(0, 0, 0); stroke-opacity: 1; fill: rgb(0, 0, 0); fill-opacity: 0; stroke-dasharray: 9px, 9px; stroke-width: 2px;"/><path data-index="1" fill-rule="evenodd" d="M144.3,181.5L144.3,28.5" clip-path="url('#clip71d78axy')" style="opacity: 1; stroke: rgb(0, 0, 0); stroke-opacity: 1; fill: rgb(0, 0, 0); fill-opacity: 0; stroke-dasharray: 9px, 9px; stroke-width: 2px;"/></g></g><g class="infolayer"><g class="g-gtitle"><text class="gtitle" x="133" y="10" text-anchor="middle" dy="0em" style="font-family: Calibri; font-size: 14px; fill: rgb(68, 68, 68); opacity: 1; font-weight: normal; white-space: pre;">My_20</text></g><g class="g-xtitle" transform="translate(0,0.703125)"><text class="xtitle" x="133" y="242" text-anchor="middle" style="font-family: 'Open Sans', verdana, arial, sans-serif; font-size: 14px; fill: rgb(68, 68, 68); opacity: 1; font-weight: normal; white-space: pre;">Coeficiente de Interacción</text></g><g class="g-ytitle"/></g></svg>